<svg width="191" height="140" viewBox="0 0 191 140" fill="none" xmlns="http://www.w3.org/2000/svg">
<g clip-path="url(#clip0_52_1771)">
<path d="M24.5 21L53.6378 21.6705C63.3876 21.9359 73.6543 21.2794 82.8873 25.1206C101.451 32.1746 115.168 50.8222 115.196 70.7549C116.383 90.8971 101.814 109.601 82.9432 115.83C73.5984 119.309 63.4016 118.694 53.6518 118.973L24.514 119.56V114.671L53.6518 115.258C63.234 115.37 72.886 116.375 82.0911 113.26C100.445 107.827 114.679 90.2127 114.33 70.7689C113.687 46.6317 92.26 25.3162 68.1648 24.981C58.387 25.0229 34.599 25.6933 24.5 25.8889V21Z" fill="#F3C545"/>
<path d="M24.5 32.4958C33.6213 32.6635 56.4454 33.0965 65.2314 33.2501C67.5222 33.292 73.2073 33.4038 75.4143 33.4457C93.0981 33.5714 109.427 46.8552 113.031 64.0781C117.766 86.3155 100.906 105.536 78.9064 107.589C71.14 108.05 59.5184 107.994 51.6543 108.218L24.5 108.707V103.818L51.6543 104.307C59.4626 104.376 71.0003 104.823 78.6968 104.67C98.9229 103.832 116.97 85.0584 111.955 64.3155C107.988 48.1543 91.9946 35.8901 75.4143 36.4349C73.2213 36.4628 67.4803 36.5885 65.2314 36.6305C56.5292 36.7841 33.4816 37.2171 24.5 37.3847L24.5 32.4958Z" fill="#F3C545"/>
<path d="M24.5 43.9917C34.2778 44.2571 78.6689 44.9415 87.5248 45.3746C100.557 46.6876 112.011 57.8482 112.416 71.0901C112.416 87.5447 96.5064 97.8673 81.1273 96.7638C78.4454 96.8615 28.453 97.7555 24.5 97.8673V92.9784C28.7044 93.0482 78.2918 94.04 81.1273 94.0819C87.3152 94.459 93.3775 93.8723 98.8251 90.7434C107.332 86.2317 113.268 76.2025 110.74 66.5504C107.15 53.6298 94.1178 46.2965 81.1273 47.7352C78.4454 47.7352 28.453 48.8387 24.5 48.8806L24.5 43.9917Z" fill="#F3C545"/>
<path d="M24.5 55.4877C39.9489 55.8369 79.1718 56.7169 94.0899 57.0521C107.43 56.9683 117.668 71.9842 105.32 81.5524C102.177 84.0108 98.1546 85.5334 94.0899 85.4775L70.8886 85.9943L24.5 87.014V82.1251L70.8886 83.1448L94.0899 83.6616C97.7914 83.8572 101.451 82.614 104.468 80.4489C116.481 71.8305 106.2 58.3232 94.0899 58.8121C79.3394 59.1334 39.7533 60.0274 24.5 60.3766V55.4877Z" fill="#F3C545"/>
<path d="M167.451 45.0533L150.452 44.5225C144.892 44.4248 139.347 43.7543 134.053 45.7378C123.661 49.2717 115.685 59.4546 115.294 70.5733C114.93 84.8349 128.172 96.3867 141.987 96.247C147.672 96.2749 161.57 95.6044 167.451 95.5067V99.6971L150.452 99.1663L141.903 98.9149C133.089 98.5098 124.443 94.0819 119.289 86.9162C106.2 68.8133 120.043 42.7625 141.903 41.6311C147.351 41.4774 161.822 41.0305 167.451 40.8489V45.0394V45.0533Z" fill="#F3C545"/>
<path d="M167.451 54.9429L136.763 54.2165C131.818 53.8534 126.873 54.8451 122.99 58.0299C111.843 66.8299 115.643 83.2565 129.415 86.4413C134.235 87.6984 162.003 86.0083 167.451 86.1759V90.0172L136.763 89.2769C131.608 89.4165 125.868 88.1734 121.817 84.6813C117.081 80.8959 114.763 74.6381 115.517 68.7435C116.537 58.3511 126.636 51.1156 136.763 51.814L167.451 51.0876V54.9289V54.9429Z" fill="#F3C545"/>
<path d="M167.451 64.8184L140.101 64.1479L126.426 63.8126C124.247 63.7428 122.082 64.2038 120.364 65.4609C116.676 67.8914 116.523 73.8698 120.224 76.3422C121.956 77.5993 124.177 77.9765 126.356 77.9206C135.073 77.6971 158.456 77.0965 167.451 76.873V80.365L140.045 79.6666L126.343 79.3174C123.996 79.2755 121.482 78.7726 119.526 77.2361C115.531 74.1771 115.489 67.4723 119.61 64.4831C121.537 62.9466 124.052 62.346 126.412 62.332L140.087 61.9968L167.437 61.3263V64.8184H167.451Z" fill="#F3C545"/>
</g>
<defs>
<clipPath id="clip0_52_1771">
<rect width="142.965" height="98.56" fill="white" transform="translate(24.5 21)"/>
</clipPath>
</defs>
</svg>
