<svg width="191" height="140" viewBox="0 0 191 140" fill="none" xmlns="http://www.w3.org/2000/svg">
<g clip-path="url(#clip0_52_1764)">
<path d="M34.5 68.2222C54.6697 69.8166 75.7392 70.1127 96 70.2152C116.272 70.1241 137.319 69.828 157.5 68.2222V72.7777C132.319 70.8302 105.908 70.6708 80.625 70.8986C65.2272 71.1491 49.875 71.5591 34.5 72.7777V68.2222Z" fill="#F3C545"/>
<path d="M39.83 45.3533C57.9269 54.3847 77.3563 62.5619 96.1025 70.238C114.94 77.7433 134.563 85.3511 153.867 91.4327L152.159 95.658C129.54 84.4172 105.122 74.3722 81.5816 65.113C67.2088 59.578 52.8247 54.2024 38.1102 49.5786L39.8186 45.3533H39.83Z" fill="#F3C545"/>
<path d="M38.4976 92.435C57.6878 86.0231 77.197 78.0622 95.8862 70.2381C114.518 62.2317 133.766 53.7356 151.715 44.3739L153.491 48.565C129.552 56.6056 105.18 66.7758 81.9917 76.8664C67.9265 83.1189 53.9409 89.4853 40.2742 96.6261L38.4976 92.435Z" fill="#F3C545"/>
<path d="M98.2777 9C96.6833 29.1697 96.3872 50.2392 96.2847 70.5C96.3758 90.7722 96.6719 111.819 98.2777 132H93.7222C95.6697 106.819 95.8291 80.4083 95.6013 55.125C95.3508 39.7272 94.9408 24.375 93.7222 9H98.2777Z" fill="#F3C545"/>
<path d="M141.1 28.6231C125.714 41.7545 110.601 56.4461 96.205 70.705C81.9347 85.112 67.2659 100.202 54.1231 115.6L50.9 112.377C70.0789 95.9542 88.8706 77.3903 106.592 59.3503C117.297 48.2803 127.878 37.142 137.877 25.4L141.1 28.6231Z" fill="#F3C545"/>
<path d="M122.126 14.7741C112.776 32.7116 104.268 51.993 96.262 70.6025C88.4264 89.303 80.477 108.789 74.065 127.991L69.8739 126.214C81.502 103.801 91.9683 79.5541 101.649 56.1841C107.423 41.9139 113.061 27.6208 117.935 12.9861L122.126 14.7628V14.7741Z" fill="#F3C545"/>
<path d="M74.065 12.9976C80.477 32.1878 88.4378 51.697 96.262 70.3862C104.268 89.0184 112.764 108.266 122.126 126.215L117.935 127.991C109.894 104.052 99.7242 79.6795 89.6336 56.4917C83.3811 42.4265 77.0147 28.4409 69.8739 14.7742L74.065 12.9976Z" fill="#F3C545"/>
<path d="M137.877 115.6C124.746 100.214 110.054 85.1006 95.795 70.705C81.3881 56.4347 66.2978 41.7659 50.9 28.6231L54.1231 25.4C70.5459 44.5789 89.1097 63.3706 107.15 81.0917C118.22 91.7972 129.358 102.378 141.1 112.377L137.877 115.6Z" fill="#F3C545"/>
</g>
<defs>
<clipPath id="clip0_52_1764">
<rect width="123" height="123" fill="white" transform="translate(34.5 9)"/>
</clipPath>
</defs>
</svg>
