<svg width="190" height="140" viewBox="0 0 190 140" fill="none" xmlns="http://www.w3.org/2000/svg">
<g clip-path="url(#clip0_64_2735)">
<path d="M21.938 119.131C45.6947 110.664 71.9657 108.667 96.7577 113.16C121.272 117.467 146.97 116.839 171.226 111.274L172.095 116.746C152.905 117.541 134.306 117.486 115.319 116.45C96.6283 115.674 77.9188 113.659 59.1907 114.823C46.7855 115.563 34.3432 117.097 22.2338 119.982L21.938 119.113V119.131Z" fill="#F3C545"/>
<path d="M20.8655 118.613C33.9548 107.983 49.6139 99.8669 66.4931 97.5744C76.7168 96.1878 87.3657 98.4433 96.4987 103.139C108.035 110.183 120.884 114.657 134.177 110.054C143.679 107.17 151.758 101.216 159.172 94.7458C162.112 92.4348 164.866 89.181 168.786 88.46L169.192 93.9878C168.471 94.0617 166.9 94.9676 166.049 95.5592C161.89 98.3139 157.841 101.401 153.533 104.045C139.057 113.659 120.865 115.914 104.652 109.444C98.4214 106.929 92.8381 103.38 86.238 102.085C63.4242 97.2231 39.8893 105.82 21.4756 119.334L20.884 118.632L20.8655 118.613Z" fill="#F3C545"/>
<path d="M19.8859 118.059C38.4475 97.2971 72.8901 69.1218 99.4015 92.934C104.079 97.5744 108.239 102.806 114.099 105.986C130.479 115.249 142.274 95.6886 149.54 83.5607C151.518 80.3253 153.478 77.053 155.734 73.8177C158.211 70.3605 161.446 66.2377 166.068 65.6091L166.475 71.137C165.643 71.0815 164.275 71.8025 163.036 72.8748C149.54 85.2061 139.335 116.007 116.188 108.223C108.849 105.69 103.506 99.6635 97.9409 94.5794C79.5642 79.1052 54.0881 90.9928 37.4677 103.657C31.4592 108.186 25.7649 113.196 20.5514 118.65L19.8489 118.04L19.8859 118.059Z" fill="#F3C545"/>
<path d="M18.9429 117.467C33.5297 98.1105 67.4916 57.8997 94.4097 74.4832C104.264 80.6396 107.092 92.5272 114.746 100.514C138.614 124.492 141.331 43.8121 163.406 42.7953L163.813 48.3231C162.444 48.3601 160.947 49.0811 159.542 50.2828C154.994 54.461 152.276 60.3586 149.522 65.9974C145.824 73.8731 142.663 82.1002 138.725 90.0314C135.027 97.0382 129.167 109.185 119.35 105.284C107.148 99.3122 104.633 83.2649 93.0046 76.7572C73.9808 66.5705 50.7602 85.9086 37.3012 98.5727C31.0338 104.655 25.0993 111.126 19.6824 117.985L18.9429 117.43V117.467Z" fill="#F3C545"/>
<path d="M18.0001 116.894C30.5717 96.2803 73.3338 37.6188 100.159 63.6495C110.254 74.0026 110.069 90.1793 120.126 100.422C135.785 112.882 134.953 21.1093 160.707 20L161.113 25.5278C159.283 25.5278 157.397 26.2858 155.697 27.6724C150.28 32.4237 147.377 39.523 144.752 46.2895C141.239 55.7367 138.743 65.6092 136.1 75.4261C134.029 81.675 130.424 101.716 123.269 102.677C121.753 102.769 120.477 101.974 119.479 101.106C116.595 98.4618 114.783 94.9307 113.027 91.5104C108.442 82.7103 105.909 72.2278 98.3662 65.4428C78.9541 48.4341 50.52 79.9002 37.8004 93.6735C31.1264 101.272 24.7481 109.185 18.7396 117.356L17.9631 116.857L18.0001 116.894Z" fill="#F3C545"/>
</g>
<defs>
<clipPath id="clip0_64_2735">
<rect width="154.095" height="100" fill="white" transform="translate(18 20)"/>
</clipPath>
</defs>
</svg>
