<svg width="191" height="140" viewBox="0 0 191 140" fill="none" xmlns="http://www.w3.org/2000/svg">
<g clip-path="url(#clip0_64_2734)">
<path d="M151.5 69.4033C150.49 116.035 90.064 140.899 56.5997 107.943C32.3448 84.9141 36.0286 44.0199 64.056 25.7894C72.766 19.9742 83.218 16.9008 93.6478 17.0003V17.553C83.3289 17.6194 73.0877 20.8144 64.644 26.6407C37.8149 44.6832 34.564 84.2287 58.3417 106.13C90.1305 136.51 146.518 113.072 147.062 69.4033H151.5Z" fill="#F3C545"/>
<path d="M139.251 67.026C137.486 89.5903 116.604 107.39 94.369 108.263C81.7089 108.915 69.0156 103.752 60.2834 94.6537C38.4252 71.7246 46.8023 33.9038 76.372 22.3619C81.8754 20.2392 87.7671 19.2442 93.6478 19.2111V19.7638C88.3885 19.9518 83.107 20.7146 78.1917 22.6493C48.9327 33.3289 40.2004 70.7075 62.092 92.8959C76.9489 107.799 99.9833 108.915 117.026 96.9643C127.001 90.0436 134.036 78.8886 134.823 66.7165L139.251 67.026Z" fill="#F3C545"/>
<path d="M126.968 64.7486C120.388 94.7864 80.2887 104.416 62.0476 78.8223C49.5651 61.6199 55.3792 36.0486 74.3082 26.176C80.1889 22.8704 86.9683 21.4443 93.6367 21.4332V21.986C87.057 22.1629 80.4552 23.7328 74.8186 27.0826C57.0768 36.8556 51.8064 61.244 64.067 77.3629C76.1945 93.7693 100.028 94.5321 114.064 80.16C118.457 75.7267 121.453 70.0442 122.596 63.9416L126.957 64.7707L126.968 64.7486Z" fill="#F3C545"/>
<path d="M114.585 62.6813C108.139 77.3962 89.3094 84.1069 75.4954 75.3067C62.1586 67.0925 58.9963 48.1434 68.0614 35.6728C69.7812 33.1742 72.1557 30.9963 74.6078 29.2053C75.5065 28.6857 76.8269 27.7239 77.77 27.3148C82.6188 24.7278 88.2109 23.6112 93.6478 23.6444V24.1972C88.8656 24.3077 84.1278 25.3801 79.856 27.4254C79.3234 27.7128 78.0363 28.4204 77.5259 28.6968C77.0821 29.0063 75.8061 29.8686 75.329 30.1892C73.5426 31.6043 71.7007 33.2848 70.3471 35.12C57.7758 51.3605 68.4608 76.9539 89.9973 75.7821C98.9847 75.2514 107.173 69.193 110.513 60.9346L114.585 62.6813Z" fill="#F3C545"/>
<path d="M101.736 60.9567C85.8364 74.0685 65.9088 58.8893 71.3123 40.106C73.8421 30.4435 84.2165 25.4133 93.6366 25.8444V26.3972C90.5742 26.4635 87.523 26.9942 84.6825 28.0445C75.7173 31.0737 70.8796 40.2276 72.8879 49.2821C75.0072 59.5305 86.3025 65.7658 95.4896 60.0722C96.6768 59.3536 97.7975 58.5134 98.8515 57.5847L101.725 60.9567H101.736Z" fill="#F3C545"/>
</g>
<defs>
<clipPath id="clip0_64_2734">
<rect width="111" height="106" fill="white" transform="translate(40.5 17)"/>
</clipPath>
</defs>
</svg>
