<svg width="1280" height="973" viewBox="0 0 1280 973" fill="none" xmlns="http://www.w3.org/2000/svg">
<mask id="mask0_489_4567" style="mask-type:alpha" maskUnits="userSpaceOnUse" x="-210" y="0" width="1692" height="973">
<rect width="1596.32" height="579" transform="matrix(-0.965926 0.258819 0.258819 0.965926 1332.07 0.57196)" fill="#D9D9D9"/>
</mask>
<g mask="url(#mask0_489_4567)">
<path d="M906.131 -381.871C1028.32 -290.398 1145.19 -132.058 1017.27 6.00093C991.177 34.4442 959.836 57.614 926.945 77.6325C878.028 108.171 822.339 129.924 764.091 130.634C605.172 134.017 480.93 7.51212 326.253 -9.0215C204.955 -22.1846 103.193 57.3015 30.446 146.293C-37.3924 230.995 -53.7156 329.194 41.3696 401.197C147.284 478.239 305.825 486.678 432.524 475.152C605.624 458.037 774.387 396.898 917.992 298.726C949.886 277.009 982.761 256.692 1016.88 238.664C1417.31 25.9858 1484.73 418.627 1179.26 609.984C1276.18 550.082 1361.04 451.733 1370.17 334.424C1374.46 275.358 1350.03 215.19 1293.38 190.351C1239.41 166.508 1177.56 175.531 1122.78 192.062C1048.8 215.139 980.878 254.046 916.923 297.185C773.419 394.889 605.093 455.961 432.304 472.917C300.195 486.158 88.1378 473.239 2.52079 358.568C-47.4587 288.861 -16.454 208.571 32.2407 147.716C104.535 59.2484 205.486 -19.9195 326.037 -6.90902C480.624 9.76197 605.097 135.953 764.115 132.228C822.63 131.435 878.544 109.533 927.632 78.7844C960.581 58.6497 992.012 35.3927 1018.11 6.78396C1146 -132.036 1029.07 -290.284 906.131 -381.871Z" fill="#FAECC8"/>
<path d="M906.131 -381.871C982.39 -320.025 1065.38 -220.064 1059.76 -116.479C1056.89 -67.1714 1033.38 -24.0404 999.599 11.1386C972.944 38.9389 941.396 61.7106 908.195 81.0934C875.122 100.719 839.644 116.83 801.814 124.547C642.811 159.085 510.04 40.3606 364.244 1.10427C250.424 -30.1204 156.402 8.53405 72.4889 86.4263C37.3072 119.284 4.13156 155.626 -18.2396 198.563C-86.1464 330.019 11.2774 417.768 132.486 454.008C351.332 516.658 606.567 463.255 804.923 359.046C873.696 323.804 933.99 274.537 1002.75 239.299C1036.58 221.474 1072.42 205.596 1109.03 194.412C1165.42 177.411 1230.41 168.29 1284.76 196.19C1285.82 196.75 1286.93 197.222 1287.95 197.857L1294.1 201.579C1295.12 202.2 1296.17 202.802 1297.11 203.533L1302.94 207.73C1303.94 208.395 1304.83 209.189 1305.75 209.965L1311.23 214.62C1313.8 217.134 1316.38 219.644 1318.84 222.248L1323.52 227.715L1324.68 229.08L1325.74 230.536L1329.96 236.335C1331.92 239.34 1333.79 242.418 1335.62 245.509L1338.92 251.897L1339.75 253.489C1341.22 257.18 1343.34 261.299 1344.56 265.12L1346.92 271.911C1347.69 274.981 1349.99 282.444 1350.49 285.852C1358.06 321.208 1353.85 358.169 1343.68 392.619C1315.26 485.313 1245.3 560.539 1164.04 611.098C1245.52 560.706 1315.7 485.571 1344.4 392.831C1354.06 360.558 1358.31 326.169 1352.88 292.749C1352.18 289.382 1351.53 285.486 1350.77 282.097C1350.52 280.916 1350.15 279.768 1349.85 278.601L1347.94 271.613C1346.37 267.319 1344.81 262.053 1342.9 258.028C1341.97 255.944 1341 253.355 1339.92 251.413C1337.34 246.055 1334.11 240.582 1330.92 235.69C1329.89 234.186 1327.7 231.309 1326.66 229.808C1325.99 228.677 1320.82 222.729 1319.72 221.421C1316.4 218.037 1312.99 214.351 1309.29 211.349L1306.52 209.001C1305.61 208.213 1304.7 207.411 1303.69 206.734L1297.81 202.487C1295.19 200.592 1291.33 198.502 1288.56 196.736C1235.67 167.751 1171.42 174.972 1115.5 190.875C1085.56 199.413 1055.91 211.455 1027.8 224.773C984.342 245.681 942.739 270.542 902.848 297.553C712.222 426.701 476.593 495.812 246.231 474.073C188.964 467.89 131.746 455.53 79.3588 431.149C-19.0875 385.558 -70.3776 303.611 -16.2026 199.618C6.03057 156.919 39.0022 120.759 73.9917 88.0781C157.327 10.6683 250.553 -27.8485 363.677 3.13418C509.531 42.5135 642.931 160.943 802.099 126.033C840.072 118.241 875.705 102 908.85 82.2665C942.112 62.7793 973.744 39.8969 1000.42 11.9515C1034.27 -23.4857 1057.78 -66.8794 1060.54 -116.436C1065.93 -220.275 982.742 -320.031 906.131 -381.871Z" fill="#FAECC8"/>
<path d="M906.131 -381.871C962.573 -331.945 1013.87 -267.633 1036.98 -195.161C1079.98 -57.9803 984.318 36.1182 870.861 94.6136C806.427 127.911 739.614 138.529 668.297 124.426C551.599 101.913 453.862 25.9953 338.596 -1.16136C327.185 -3.80106 314.59 -6.00991 302.932 -7.36057C211.233 -18.3966 132.934 19.9647 65.8778 79.8412C33.6868 108.646 3.1945 140.588 -20.2722 176.987C-109.368 316.037 -18.5461 414.945 119.52 455.781C303.913 508.088 509.861 476.865 686.076 408.07C757.743 379.628 826.215 343.169 889.775 299.543C923.579 276.571 958.631 255.381 994.902 236.524C999.469 234.305 1009.72 229.164 1014.29 226.93C1017.89 225.197 1030.28 219.632 1033.96 217.904C1048.99 211.494 1065.46 204.749 1081.01 199.662C1144.5 178.467 1221.57 165.807 1281.03 203.971L1288.32 209.215C1291.12 211.45 1293.83 213.814 1296.55 216.148L1301.64 221.211C1302.49 222.056 1303.35 222.883 1304.11 223.815L1308.77 229.27C1309.59 230.148 1310.24 231.159 1310.95 232.115L1315.18 237.914L1317.06 240.966C1320.15 245.783 1323.27 251.566 1325.56 256.748L1328.39 263.351C1329.64 266.723 1330.79 270.12 1331.95 273.526C1332.79 276.87 1334.94 283.842 1335.47 287.456L1336.2 290.979C1337.14 295.328 1337.44 299.308 1338.11 303.413C1338.36 306.699 1338.74 310.88 1338.99 314.166C1339.12 316.704 1339.17 322.451 1339.27 324.956L1339.22 326.759L1339.12 330.355C1333.58 449.915 1246.86 551.12 1148.9 612.194C1247.16 551.303 1334.19 450.09 1340.02 330.378L1340.14 326.767L1340.18 324.964C1340.07 322.574 1340.03 316.523 1339.93 314.13C1339.65 310.826 1339.34 306.623 1339.07 303.32C1338.59 299.893 1337.87 294.149 1337.18 290.806C1336.33 287.303 1335.91 283.621 1334.84 280.214L1332.95 273.234C1331.53 268.761 1329.84 263.984 1327.97 259.645C1326.97 257.557 1326.14 254.993 1325.04 253.033L1321.72 246.598C1320.15 243.754 1317.84 240.102 1316.12 237.284C1314.01 234.497 1311.87 231.187 1309.68 228.537C1307.66 226.164 1304.57 222.393 1302.49 220.379L1297.36 215.251C1294.61 212.885 1291.88 210.492 1289.05 208.225L1283.17 203.979C1225.39 165.313 1150.15 176.246 1087.33 195.865C1082.19 197.596 1075.26 199.929 1070.2 201.664C1068.49 202.261 1055.41 207.305 1053.3 208.059C1046.97 210.698 1039.65 213.683 1033.27 216.4C1029.42 218.212 1017.62 223.506 1013.55 225.416C970.135 246.261 928.545 271.03 888.688 297.982C698.433 427.195 463.289 496.466 233.18 475.389C175.955 469.409 118.795 457.223 66.3264 433.242C-63.6324 373.345 -89.6885 268.565 -1.81893 154.661C20.6753 125.279 47.5552 98.6027 75.4477 74.3402C143.054 16.7993 219.696 -17.4755 309.798 -4.34759C320.262 -2.9794 331.37 -0.712571 341.605 1.63716C455.238 29.6724 552.356 103.891 667.939 126.059C742.008 140.635 811.803 128.475 877.838 92.3911C989.327 33.4274 1080.08 -61.0181 1037.51 -195.38C1014.16 -267.924 962.737 -332.039 906.095 -381.912L906.131 -381.871Z" fill="#FAECC8"/>
<path d="M906.131 -381.871C968.533 -321.997 1028.33 -235.106 1034.66 -146.82C1035.73 -130.104 1034.97 -113.162 1031.89 -96.6968C1028.4 -77.9502 1022.04 -59.4322 1013.17 -42.537C975.785 29.5691 893.873 81.9061 819.995 111.331C633.587 181.37 496.435 43.6153 327.705 0.307217C213.881 -28.1559 120.51 14.2944 38.2729 92.3174C-9.88175 138.231 -57.0468 192.689 -68.9273 260.129C-75.7277 298.528 -64.9385 338.983 -40.5338 369.298C19.6207 443.299 128.487 469.322 219.505 479.041C411.507 496.577 607.04 449.805 776.782 360.146C802.251 346.528 827.158 331.85 851.383 316.133C891.29 289.37 931.382 262.733 974.123 240.655C985.857 234.423 1000.81 227.191 1012.97 221.725C1075.88 193.602 1153.34 169.354 1222.07 186.254C1268.52 197.567 1302.95 229.205 1316.88 275.12C1328.66 314.364 1324.82 356.685 1313.19 395.546C1284.56 487.943 1214.82 562.931 1133.73 613.361C1215.03 563.09 1285 488.189 1313.9 395.758C1325.67 356.783 1329.64 314.253 1317.9 274.81C1303.94 228.435 1269.3 196.475 1222.4 184.97C1153.36 167.874 1075.54 192.054 1012.3 220.23C1000.06 225.715 985.11 232.909 973.329 239.154C930.494 261.206 890.315 287.803 850.336 314.535C826.131 330.184 801.258 344.802 775.821 358.349C606.414 447.704 411.307 494.324 219.745 476.733C129.274 467.032 21.1525 441.15 -38.6299 367.83C-62.6221 337.971 -73.3007 298.306 -66.5909 260.511C-56.7848 203.37 -20.126 155.017 19.3268 114.17C29.1778 104.018 39.9424 93.5086 50.4286 84.2203C176.723 -28.7238 287.389 -27.3075 435.347 41.5438C559.779 98.902 681.099 166.408 820.511 112.693C894.678 83.0264 976.676 30.4901 1014.06 -42.0827C1022.92 -59.0751 1029.27 -77.7053 1032.73 -96.5428C1035.77 -113.075 1036.51 -130.1 1035.38 -146.862C1028.8 -235.271 968.81 -322.046 906.146 -381.863L906.131 -381.871Z" fill="#FAECC8"/>
<path d="M906.131 -381.871C974.704 -309.848 1038.61 -200.88 1019.5 -98.2298C1010.96 -50.565 984.029 -8.62477 949.064 24.2384C921.147 50.6249 888.618 71.6679 854.736 89.5946C820.937 107.688 784.53 121.275 746.563 127.112C586.736 152.922 457.635 35.5088 309.983 0.0647213C229.754 -18.7082 157.84 -4.27911 89.0666 40.7561C48.9159 67.2697 13.1972 100.385 -18.4622 136.496C-120.905 253.763 -110.141 372.219 38.2768 439.208C224.592 518.705 474.127 483.075 657.886 409.46C720.402 384.454 780.518 353.46 836.957 316.746C884.672 284.5 933.197 253.159 985.36 228.519C1046.52 199.956 1118.01 175.179 1186.26 183.486L1189.83 183.904L1193.36 184.546L1200.42 185.816C1202.77 186.272 1205.07 186.953 1207.4 187.501C1212.66 188.663 1217.71 190.549 1222.83 192.189L1224.49 192.867L1231.13 195.6C1262.56 209.374 1286.02 234.421 1298.35 266.435C1306.34 287.699 1309.6 310.686 1308.75 333.348C1304.29 432.705 1241.42 520.816 1165.67 581.308C1150.61 593.244 1134.85 604.286 1118.56 614.474C1199.81 564.257 1269.69 489.444 1298.66 397.133C1309.74 360.447 1314 320.788 1304.73 283.267C1294.78 243.48 1270.67 212.519 1233.32 195.114C1230.96 194.109 1227.37 192.637 1224.97 191.642L1223.3 190.956L1221.58 190.383C1214.74 188.004 1207.78 186.038 1200.71 184.491C1197.73 183.954 1192.76 183.041 1190.04 182.547C1126.27 173.897 1062.54 193.293 1004.38 218.065C989.319 224.685 973.378 232.271 958.846 239.884C924.729 257.684 891.828 277.718 859.936 299.207C733.3 386.191 587.183 444.375 435.609 469.095C322.342 486.992 204.119 488.508 93.2004 456.758C38.7844 440.395 -16.0829 415.142 -52.6729 370.345C-117.974 288.912 -68.9974 193.875 -7.19238 127.212C79.0123 34.4634 178.824 -28.9843 309.531 2.10148C457.408 37.6746 586.467 154.696 746.828 128.617C784.938 122.704 821.527 108.992 855.409 90.7881C906.136 63.8481 954.79 29.3591 987.37 -18.7208C998.15 -34.5414 1007.07 -52.0194 1013.12 -70.1895C1019.32 -88.3119 1022.75 -107.633 1023.53 -126.735C1027.25 -220.447 969.121 -316.129 906.166 -381.881L906.131 -381.871Z" fill="#FAECC8"/>
<path d="M906.131 -381.871C960.75 -318.777 1006.91 -234.975 1010.91 -150.264C1012.91 -104.189 1000.63 -59.4197 975.028 -21.0226C941.508 29.0611 890.855 64.8042 837.738 91.8177C769.966 128.253 689.971 140.121 614.91 122.598C475.686 93.4535 352.562 -17.4322 206.532 -6.54932C128.726 -0.30956 60.042 44.2604 5.09307 97.225C-19.1749 120.365 -42.2571 145.481 -61.1202 173.248C-158.204 316.166 -66.4281 419.154 78.6318 460.561C295.927 520.16 552.071 466.047 748.009 361.528C781.917 343.418 814.639 323.142 846.389 301.501C898.064 266.745 952.308 235.22 1010.31 212.228C1067.15 190.269 1132.15 173.545 1192.62 188.738C1241.9 201.16 1276.27 235.572 1288.6 284.967C1293.17 303.505 1294.5 322.886 1293.22 341.922C1285.63 438.474 1224.42 523.391 1150.43 582.468C1135.38 594.389 1119.65 605.424 1103.37 615.609C1184.51 565.421 1254.4 490.681 1283.4 398.487C1294.52 361.866 1298.78 322.207 1289.61 284.708C1279.49 243.444 1253.11 210.558 1213.5 194.325C1200.28 188.728 1185.92 185.164 1171.7 183.317C1126.16 177.381 1080.05 186.761 1036.85 200.946C1004.97 211.466 973.973 225.306 944.205 240.731C910.105 258.502 877.218 278.494 845.344 299.954C703.044 397.726 536.155 459.497 364.463 477.722C250.812 488.815 131.5 484.195 25.3731 438.721C-95.1954 385.558 -137.175 288.474 -59.2062 174.551C-40.4474 146.912 -17.4908 121.893 6.65481 98.861C61.2333 46.21 129.412 1.82583 206.715 -4.40529C254.605 -8.43983 302.461 1.90376 347.302 18.2355C437.42 50.8826 520.083 103.703 614.562 124.266C689.945 141.767 770.434 129.716 838.37 93.0472C891.633 65.8688 942.391 29.9083 975.889 -20.4467C1001.48 -59.0296 1013.73 -104.067 1011.59 -150.282C1007.39 -235.066 960.986 -318.84 906.146 -381.863L906.131 -381.871Z" fill="#FAECC8"/>
<path d="M906.131 -381.871C952.46 -323.009 989.449 -249.216 997.937 -174.201C1003.84 -121.143 993.127 -68.2222 963.753 -23.2955C929.8 29.3622 876.707 66.4526 821.196 93.767C770.011 119.847 712.317 133.692 654.817 130.08C557.904 124.55 471.705 75.4878 384.653 37.3301C332.075 14.2613 276.584 -5.78343 218.514 -6.86109C126.632 -9.30238 46.9411 41.8595 -16.3007 104.243C-80.3539 166.189 -149.031 262.409 -99.6 352.304C-65.5446 411.947 0.983224 443.176 64.4615 461.988C250.781 512.015 451.694 480.704 629.015 411.134C686.949 387.871 742.814 359.429 795.582 326.068C807.79 318.449 819.706 310.302 831.677 302.318C879.383 270.276 929.207 240.956 982.246 218.64C1050.74 189.839 1141.73 165.847 1211.03 202.9C1238.56 217.949 1259.22 242.988 1269.34 272.621L1271.11 277.691L1273.49 286.319C1273.83 287.462 1274.04 288.64 1274.28 289.811L1275.01 293.322C1276.13 297.899 1276.58 302.947 1277.3 307.469C1287.89 414.929 1216.47 519.433 1135.21 583.62C1120.18 595.538 1104.44 606.562 1088.17 616.744C1108.52 604.093 1128.1 590.063 1146.47 574.667C1222.8 510.503 1288.19 410.588 1278.28 307.369C1277.93 304.551 1277.16 299.325 1276.73 296.669C1276.33 294.871 1275.67 291.394 1275.29 289.605C1274.73 286.478 1272.93 280.543 1272.12 277.397C1263.77 250.43 1247.24 225.68 1223.85 209.523L1220.93 207.409L1217.85 205.524C1215.77 204.29 1213.75 202.992 1211.65 201.803L1205.2 198.54C1202.18 196.929 1198.44 195.561 1195.26 194.207C1191.46 192.591 1185.54 190.788 1181.6 189.55C1179.57 189.021 1173.25 187.452 1171.09 186.907C1110.41 174.518 1048.15 191.023 991.589 212.998C970.467 221.594 949.667 231.113 929.455 241.646C895.373 259.387 862.495 279.364 830.623 300.785C672.665 409.269 484.356 474.007 292.82 483.08C169.893 489.133 -29.8745 467.489 -97.4958 351.16C-146.322 262.439 -77.9103 166.971 -14.7036 105.87C48.072 43.9134 127.229 -7.11822 218.496 -4.71362C276.279 -3.67238 331.488 16.3093 383.856 39.2074C471.055 77.3006 557.626 126.338 654.75 131.711C712.485 135.261 770.513 121.25 821.819 95.0115C877.476 67.5322 930.695 30.2064 964.611 -22.7313C993.96 -67.8909 1004.6 -121.008 998.545 -174.238C989.852 -249.311 952.666 -323.039 906.149 -381.851L906.131 -381.871Z" fill="#FAECC8"/>
<path d="M906.131 -381.871C964.486 -299.699 1007.79 -185.274 979.042 -84.7535C952.509 10.1061 866.179 71.4413 778.863 107.051C627.02 168.169 504.532 98.1392 368.341 36.8862C333.14 21.6266 297.072 7.74649 259.349 0.032042C135.773 -27.3306 35.0848 34.5875 -47.3078 121.45C-176.682 255.588 -159.443 388.745 22.5293 454.532C267.075 536.084 581.982 458.032 792.858 319.198C848.341 281.606 905.286 245.462 967.348 219.657C1002.53 204.824 1039.51 193.05 1077.37 187.719C1121.78 181.641 1170.59 185.214 1208.1 211.79C1229.65 226.776 1245.72 249.177 1254.2 273.929L1255.38 277.305L1255.96 279.003L1256.43 280.731L1258.33 287.633C1260.02 294.439 1261.21 301.823 1262.12 308.762C1272.59 416.204 1201.25 520.589 1119.99 584.761C1104.96 596.679 1089.23 607.688 1072.97 617.867C1089.27 607.729 1105.02 596.752 1120.09 584.875C1198.86 522.576 1266.18 426.796 1264.09 323.006C1263.89 314.855 1262.88 306 1261.57 297.944C1260.88 294.447 1260.15 290.801 1259.34 287.374C1258.97 285.809 1257.32 280.075 1256.97 278.681C1250.35 257.479 1238.98 237.561 1222.76 222.218C1221.57 220.925 1216.18 216.368 1214.62 215.072C1213.13 213.822 1210.46 211.953 1208.83 210.765C1205.02 207.838 1200.7 205.517 1196.64 203.026L1190.19 199.763C1189.1 199.247 1188.06 198.633 1186.94 198.177L1183.6 196.802C1181.37 195.901 1179.17 194.914 1176.91 194.096C1172.6 192.717 1167.39 190.798 1163.11 189.852C1098.75 173.244 1026.58 193.274 966.696 218.168C913.535 240.403 863.562 269.687 815.731 301.687C626.537 431.044 392.83 500.875 163.427 481.677C106.369 476.182 49.3628 464.66 -3.34618 441.714C-166.338 369.089 -160.496 242.138 -45.6911 123.008C58.115 14.552 166.523 -36.3136 314.102 17.6026C472.894 76.064 601.739 179.19 779.352 108.357C867.053 72.4423 953.349 10.8389 979.793 -84.539C1008.32 -185.289 964.764 -299.698 906.093 -381.874L906.131 -381.871Z" fill="#FAECC8"/>
<path d="M906.131 -381.871C972.231 -278.003 1010.3 -133.475 938.43 -23.0769C903.29 31.6509 847.929 70.0294 789.572 96.8965C720.482 130.484 640.45 139.437 565.788 121.139C418.705 89.2353 286.007 -34.3486 128.753 0.451918C52.9764 17.6556 -10.1359 67.9928 -62.8513 122.981C-114.054 176.832 -164.198 252.016 -140.777 329.154C-104.487 438.401 46.0686 475.588 148.48 485.153C373.468 503.744 602.918 437.058 789.895 312.24C879.468 251.183 1008.07 177.285 1119.59 187.32C1126.68 187.966 1133.85 189.196 1140.83 190.541L1151.25 193.157C1152.4 193.48 1153.51 193.886 1154.66 194.247L1161.45 196.485C1165.2 197.85 1167.8 199.12 1171.4 200.526C1172.49 200.988 1173.54 201.579 1174.61 202.098L1181 205.314L1187.12 209.004C1188.14 209.64 1189.19 210.203 1190.17 210.887L1193.07 212.969C1210.7 225.21 1224.59 242.525 1233.76 261.86C1236.46 267.818 1238.83 273.977 1240.85 280.204L1241.31 281.932L1243.21 288.835C1244.89 295.62 1246.08 303.039 1246.99 309.967C1257.18 415.116 1189.05 517.201 1110.44 581.372C1093.74 594.996 1076.11 607.561 1057.84 618.974C1074.12 608.851 1089.87 597.874 1104.94 585.997C1183.71 523.713 1251 427.978 1248.96 324.213C1249 320.293 1248.25 313.853 1247.97 309.856C1247.54 307.311 1246.91 301.645 1246.45 299.161C1245.62 295.675 1245.12 292.004 1244.23 288.587L1242.34 281.631C1236.28 260.934 1225.57 241.306 1210.27 225.968C1205.5 221.008 1199.47 215.881 1193.81 211.952C1190.75 209.506 1185.04 206.311 1181.63 204.199C1178.9 202.813 1174.51 200.549 1171.95 199.344L1168.62 197.969C1166.38 197.068 1164.19 196.08 1161.93 195.248L1155.08 192.988C1153.93 192.626 1152.8 192.212 1151.64 191.88C1085.92 173.744 1013.08 193.777 951.762 219.195C934.061 226.522 916.637 234.833 899.616 243.616C865.551 261.328 832.675 281.266 800.823 302.669C586.226 449.66 291.672 529.292 35.9337 462.259C-96.3275 425.186 -197.656 331.955 -113.87 192.261C-99.0586 167.697 -80.8843 145.32 -61.1641 124.52C3.45064 56.0965 88.1293 -4.94752 186.082 -3.77987C243.834 -3.56211 299.246 15.8608 351.69 38.4741C455.508 83.8609 562.553 144.302 679.98 130.156C718.231 125.994 755.461 114.532 790.186 98.1057C846.578 72.055 900.019 35.3633 935.341 -16.5647C965.5 -60.1138 979.553 -113.603 977.903 -166.3C975.363 -243.046 947.141 -317.563 906.187 -381.899L906.131 -381.871Z" fill="#FAECC8"/>
<path d="M906.131 -381.871C947.848 -307.719 973.932 -219.887 964.863 -134.371C959.647 -86.8546 941.342 -40.7088 911.485 -3.24014C875.883 42.133 826.526 74.7055 774.319 98.1474C704.827 130.846 624.807 138.902 550.227 120.582C403.278 88.5163 270.135 -34.6582 113.022 1.18832C47.0318 16.526 -9.9312 57.4513 -57.9323 103.891C-85.5488 130.55 -111.371 159.476 -131.233 192.464C-145.992 217.228 -157.475 244.416 -160.905 273.254C-166.082 311.823 -153.159 351.479 -127.808 380.759C-65.3238 452.385 42.3981 477.151 133.504 486.304C351.318 504.36 573.2 442.072 756.777 325.198C762.154 321.665 769.495 316.937 774.797 313.311C818.309 283.704 863.369 255.963 911.008 233.468C980.873 200.984 1070.47 171.103 1146.32 197.654C1148.55 198.481 1150.74 199.445 1152.95 200.34L1156.25 201.698C1157.35 202.172 1158.39 202.751 1159.46 203.27L1165.85 206.486L1171.97 210.192C1172.98 210.827 1174.03 211.391 1175 212.077L1177.9 214.16C1199.42 229.178 1215.46 251.589 1223.9 276.339C1228.68 289.716 1231.35 304.139 1232.4 318.301C1237.76 405.106 1191.2 487.751 1132.32 548.574C1105.63 575.917 1075.03 599.921 1042.63 620.123C1058.91 610 1074.67 599.024 1089.72 587.15C1167.29 525.566 1231.94 434.522 1233.91 332.605C1233.93 298.909 1225.48 264.962 1204.63 237.979C1201.63 234.359 1198.53 230.425 1195.09 227.161C1193.34 225.514 1191.7 223.596 1189.92 222.132L1184.43 217.453C1181.91 215.393 1178.37 212.976 1175.71 211.028C1174.13 210.016 1168.29 206.462 1166.47 205.374C1163.67 203.969 1159.39 201.75 1156.79 200.519C1153.47 199.141 1150.08 197.704 1146.77 196.423L1139.92 194.163C1081.71 176.472 1019.4 190.169 963.444 209.8C937.534 219.226 912.267 230.584 887.675 243.047C852.515 261.241 818.547 281.674 785.704 303.759C596.625 433.122 363.05 503.019 133.717 483.991C43.132 474.85 -63.8486 450.212 -125.961 379.219C-150.895 350.368 -163.669 311.504 -158.558 273.532C-151.158 216.129 -115.243 167.118 -76.5892 125.88C-11.98 57.4834 72.3654 -3.86202 170.278 -3.36414C228.029 -3.52441 283.532 15.6725 336.027 38.1461C423.496 75.6498 509.927 124.019 606.766 130.968C664.36 135.501 722.607 123.625 774.893 99.3928C839.148 70.6554 899.455 26.8552 934.31 -35.4847C994.862 -143.896 964.268 -279.033 906.131 -381.871Z" fill="#FAECC8"/>
<path d="M906.131 -381.871C955.696 -282.244 979.374 -153.132 928.402 -49.6693C911.606 -15.2717 886.84 15.0095 857.612 39.6553C784.015 99.7591 687.85 137.059 592.092 129.291C495.467 122.058 409.3 73.9204 321.888 36.4393C269.129 13.8727 213.286 -5.27111 155.223 -5.00212C56.7503 -5.2364 -28.1538 56.473 -93.204 125.202C-113.035 146.107 -131.352 168.611 -146.25 193.324C-230.548 333.886 -129.996 429.116 4.8536 466.805C251.25 532.56 544.198 457.153 753.536 318.516C806.877 282.116 862.26 247.916 921.976 222.966C957.145 208.148 994.133 196.397 1031.99 191.082C1076.39 185.019 1125.2 188.63 1162.67 215.242C1180.3 227.483 1194.19 244.797 1203.37 264.13C1206.07 270.088 1208.44 276.247 1210.46 282.473L1210.92 284.202L1212.82 291.104C1214.5 297.901 1215.69 305.297 1216.6 312.236C1227.04 419.614 1155.67 524.041 1074.46 588.165C1059.43 600.068 1043.71 611.088 1027.45 621.255C1043.73 611.12 1059.48 600.156 1074.55 588.278C1153.32 525.995 1220.61 430.259 1218.57 326.495C1218.64 322.607 1217.84 316.114 1217.59 312.137C1217.2 309.568 1216.49 303.936 1216.06 301.442C1215.37 297.945 1214.64 294.298 1213.84 290.868L1211.95 283.913C1205.89 263.215 1195.18 243.587 1179.89 228.249C1175.11 223.289 1169.08 218.162 1163.41 214.237C1160.36 211.791 1154.64 208.596 1151.23 206.483C1148.48 205.092 1144.13 202.842 1141.55 201.628L1138.22 200.253C1135.98 199.352 1133.79 198.365 1131.53 197.532L1124.68 195.272C1123.53 194.911 1122.4 194.496 1121.24 194.176C1055.52 176.041 982.687 196.074 921.37 221.503C903.669 228.83 886.244 237.141 869.223 245.924C835.158 263.635 802.282 283.574 770.431 304.977C644.166 391.936 498.542 450.405 347.334 475.455C225.119 494.905 96.3704 496.191 -21.7899 455.832C-144.739 412.862 -220.307 320.668 -144.254 194.554C-129.443 169.99 -111.265 147.624 -91.5363 126.81C-26.8792 58.4507 57.349 -3.00202 155.25 -2.82884C213.014 -3.13109 268.563 15.9527 321.1 38.3518C408.642 75.748 495.169 123.865 591.98 130.947C688.156 138.578 784.599 101.09 858.393 40.5929C887.655 15.7871 912.443 -14.6894 929.21 -49.2431C979.979 -153.042 956.037 -282.197 906.131 -381.871Z" fill="#FAECC8"/>
<path d="M906.131 -381.871C936.504 -311.852 952.405 -234.235 946.106 -157.881C936.13 -34.3463 857.628 53.3769 745.83 99.8823C693.266 122.84 635.145 134.053 577.851 129.276C461.338 120.691 361.81 53.257 253.682 16.0455C237.781 10.6386 221.533 6.00557 205.105 2.49206C100.245 -21.0124 11.8229 16.7339 -66.3437 85.8769C-94.818 111.266 -122.455 139.027 -145.022 169.879C-193.039 234.396 -215.248 315.103 -158.733 382.303C-121.099 426.807 -65.762 451.645 -10.8647 467.778C175.436 517.595 376.248 486.236 553.479 416.614C611.384 393.334 667.222 364.886 719.963 331.52C732.171 323.901 744.072 315.746 756.035 307.776C795.767 281.022 837.035 256.415 880.321 235.855C956.631 199.917 1067.51 164.396 1144.47 214.169L1150.28 218.334C1151.24 219.047 1152.25 219.685 1153.13 220.494L1158.59 225.12C1159.04 225.517 1159.51 225.881 1159.94 226.296L1161.2 227.559L1163.73 230.083C1166.82 233.075 1170.46 237.33 1173.23 240.759C1183.12 253.499 1190.39 268.1 1195.27 283.443C1196.47 287.935 1198.4 294.426 1199.15 299.065C1200.27 303.567 1200.72 308.74 1201.44 313.199C1211.94 420.647 1140.57 525.061 1059.32 589.234C1044.29 601.152 1028.56 612.172 1012.3 622.339C1044.77 602.206 1075.48 578.262 1102.24 550.962C1164.82 487.054 1215.56 394.089 1200.89 302.393C1196.9 279.918 1188.21 258.146 1174.18 240.025C1171.91 237.232 1169.56 234.469 1167.17 231.769C1165.92 230.453 1163.33 227.96 1162.07 226.659L1160.79 225.387C1160.36 224.96 1159.89 224.596 1159.44 224.199C1157.07 222.175 1153.44 218.962 1151.06 217.331L1148.13 215.216C1144.33 212.29 1140.01 209.969 1135.95 207.478C1133.12 206.067 1128.89 203.836 1126.26 202.638C1122.94 201.259 1119.54 199.799 1116.23 198.557C1113.22 197.575 1108.71 196.033 1105.93 195.204C1103.89 194.704 1097.59 193.079 1095.42 192.549C1033.59 179.952 970.092 197.066 912.647 219.895C892.641 228.041 873.003 237.185 853.843 247.121C819.769 264.847 786.897 284.798 755.036 306.216C597.155 414.704 408.948 479.491 217.475 488.66C95.2621 494.976 -105.742 472.907 -173.014 357.316C-222.379 268.752 -154.214 173.211 -91.092 111.982C-72.4658 93.6934 -52.3016 75.9635 -31.3675 60.4474C42.5383 5.8317 121.377 -15.772 211.716 6.06461C281.902 22.7769 345.758 57.3186 411.878 85.1407C481.994 115.396 558.21 138.219 635.377 130.398C673.527 126.894 711.307 116.355 746.424 101.11C858.566 54.2852 937.032 -33.9453 946.745 -157.85C952.847 -234.329 936.75 -311.879 906.187 -381.899L906.131 -381.871Z" fill="#FAECC8"/>
</g>
</svg>
