<svg width="427" height="652" viewBox="0 0 427 652" fill="none" xmlns="http://www.w3.org/2000/svg">
<g opacity="0.3">
<mask id="mask0_473_11009" style="mask-type:alpha" maskUnits="userSpaceOnUse" x="0" y="0" width="428" height="652">
<rect y="0.448608" width="427.219" height="651" fill="#D9D9D9"/>
</mask>
<g mask="url(#mask0_473_11009)">
<path d="M1442.82 1128.7C1600.85 1010.39 1752 805.608 1586.56 627.054C1552.81 590.268 1512.28 560.302 1469.74 534.412C1406.47 494.916 1334.45 466.782 1259.12 465.865C1053.59 461.489 892.901 625.1 692.855 646.483C535.978 663.507 404.368 560.707 310.283 445.612C222.547 336.065 201.436 209.063 324.411 115.941C461.392 16.3017 666.435 5.38629 830.297 20.2931C1054.17 42.4283 1272.43 121.5 1458.16 248.468C1499.41 276.556 1541.93 302.831 1586.06 326.147C2103.94 601.208 2191.13 93.3978 1796.06 -154.086C1921.41 -76.6152 2031.16 50.5816 2042.97 202.299C2048.52 278.69 2016.93 356.507 1943.66 388.632C1873.86 419.468 1793.87 407.798 1723.02 386.419C1627.33 356.573 1539.49 306.254 1456.78 250.461C1271.18 124.099 1053.48 45.1133 830.012 23.1836C659.154 6.05978 384.897 22.7672 274.167 171.073C209.528 261.227 249.627 365.067 312.604 443.772C406.104 558.188 536.665 660.578 692.575 643.751C892.506 622.19 1053.49 458.985 1259.15 463.803C1334.83 464.829 1407.14 493.155 1470.63 532.922C1513.24 558.963 1553.89 589.041 1587.64 626.042C1753.05 805.58 1601.82 1010.24 1442.82 1128.7Z" fill="#73206F"/>
<path d="M1442.82 1128.7C1541.45 1048.71 1648.78 919.428 1641.51 785.459C1637.81 721.689 1607.39 665.907 1563.7 620.41C1529.23 584.455 1488.43 555.004 1445.49 529.936C1402.72 504.554 1356.83 483.717 1307.91 473.737C1102.27 429.069 930.549 582.616 741.989 633.387C594.784 673.771 473.184 623.778 364.658 523.039C319.157 480.543 276.25 433.542 247.317 378.011C159.492 207.996 285.492 94.5093 442.254 47.6395C725.29 -33.3873 1055.39 35.6807 1311.93 170.456C1400.87 216.034 1478.85 279.752 1567.78 325.326C1611.54 348.38 1657.88 368.915 1705.23 383.379C1778.16 405.367 1862.22 417.163 1932.51 381.08C1933.88 380.355 1935.32 379.746 1936.63 378.924L1944.58 374.11C1945.91 373.307 1947.26 372.528 1948.48 371.583L1956.02 366.154C1957.31 365.294 1958.47 364.267 1959.65 363.264L1966.75 357.244C1970.07 353.993 1973.4 350.746 1976.59 347.378L1982.63 340.308L1984.13 338.542L1985.5 336.66L1990.97 329.16C1993.5 325.272 1995.92 321.292 1998.28 317.295L2002.55 309.033L2003.63 306.974C2005.52 302.201 2008.27 296.874 2009.84 291.931L2012.9 283.148C2013.9 279.178 2016.87 269.527 2017.52 265.118C2027.31 219.391 2021.86 171.589 2008.71 127.035C1971.95 7.15186 1881.47 -90.1382 1776.38 -155.528C1881.75 -90.3549 1972.53 6.81799 2009.64 126.761C2022.14 168.5 2027.64 212.976 2020.61 256.198C2019.7 260.553 2018.86 265.592 2017.88 269.975C2017.55 271.501 2017.07 272.987 2016.69 274.497L2014.22 283.534C2012.19 289.087 2010.17 295.898 2007.7 301.104C2006.5 303.799 2005.24 307.147 2003.85 309.659C2000.51 316.588 1996.33 323.667 1992.2 329.994C1990.88 331.939 1988.04 335.66 1986.7 337.601C1985.84 339.064 1979.14 346.757 1977.72 348.448C1973.43 352.824 1969.02 357.592 1964.23 361.475L1960.65 364.511C1959.47 365.53 1958.29 366.568 1957 367.443L1949.39 372.935C1946 375.387 1941 378.09 1937.42 380.374C1869.02 417.861 1785.92 408.521 1713.6 387.953C1674.88 376.911 1636.53 361.337 1600.18 344.113C1543.97 317.072 1490.17 284.919 1438.57 249.985C1192.03 82.9556 887.292 -6.42667 589.362 21.6893C515.297 29.6861 441.296 45.6711 373.543 77.2028C246.221 136.167 179.886 242.151 249.952 376.647C278.706 431.869 321.349 478.636 366.601 520.902C474.38 621.018 594.952 670.832 741.256 630.762C929.892 579.832 1102.42 426.665 1308.27 471.815C1357.39 481.893 1403.47 502.897 1446.34 528.419C1489.35 553.622 1530.27 583.216 1564.77 619.358C1608.54 665.19 1638.95 721.312 1642.53 785.404C1649.49 919.7 1541.9 1048.72 1442.82 1128.7Z" fill="#73206F"/>
<path d="M1442.82 1128.7C1515.82 1064.13 1582.16 980.949 1612.04 887.22C1667.66 709.802 1543.94 588.103 1397.21 512.45C1313.87 469.386 1227.46 455.654 1135.23 473.893C984.299 503.01 857.893 601.195 708.818 636.317C694.06 639.731 677.771 642.588 662.694 644.335C544.098 658.608 442.832 608.995 356.107 531.555C314.474 494.302 275.038 452.991 244.688 405.915C129.459 226.08 246.921 98.1604 425.483 45.3466C663.963 -22.3035 930.318 18.0776 1158.22 107.051C1250.91 143.836 1339.46 190.989 1421.67 247.411C1465.39 277.122 1510.72 304.527 1557.63 328.914C1563.54 331.785 1576.79 338.433 1582.71 341.323C1587.36 343.565 1603.39 350.761 1608.15 352.997C1627.59 361.287 1648.88 370.01 1669 376.589C1751.1 404.001 1850.78 420.375 1927.68 371.016L1937.11 364.234C1940.74 361.343 1944.24 358.286 1947.75 355.268L1954.34 348.719C1955.43 347.626 1956.55 346.557 1957.53 345.351L1963.56 338.297C1964.62 337.161 1965.46 335.854 1966.38 334.617L1971.85 327.117L1974.28 323.171C1978.28 316.94 1982.31 309.462 1985.28 302.759L1988.94 294.22C1990.55 289.858 1992.04 285.465 1993.54 281.059C1994.62 276.735 1997.41 267.718 1998.09 263.043L1999.04 258.487C2000.25 252.862 2000.63 247.716 2001.5 242.406C2001.82 238.156 2002.33 232.749 2002.65 228.499C2002.81 225.217 2002.87 217.785 2003.01 214.544L2002.95 212.213L2002.81 207.562C1995.64 52.9332 1883.49 -77.9566 1756.8 -156.944C1883.88 -78.1943 1996.44 52.7061 2003.97 207.532L2004.13 212.202L2004.19 214.534C2004.04 217.625 2003.99 225.451 2003.86 228.546C2003.5 232.818 2003.1 238.255 2002.74 242.527C2002.13 246.959 2001.2 254.387 2000.3 258.711C1999.2 263.242 1998.66 268.003 1997.28 272.411L1994.83 281.437C1993 287.223 1990.81 293.4 1988.39 299.012C1987.1 301.713 1986.03 305.029 1984.6 307.564L1980.31 315.887C1978.28 319.565 1975.28 324.288 1973.07 327.932C1970.34 331.537 1967.58 335.817 1964.73 339.245C1962.13 342.313 1958.13 347.191 1955.44 349.796L1948.8 356.428C1945.25 359.488 1941.71 362.582 1938.05 365.514L1930.45 371.006C1855.72 421.013 1758.41 406.873 1677.16 381.5C1670.52 379.262 1661.56 376.243 1655.01 374C1652.81 373.228 1635.88 366.704 1633.15 365.729C1624.98 362.316 1615.5 358.456 1607.25 354.941C1602.28 352.599 1587.01 345.751 1581.74 343.281C1525.6 316.322 1471.81 284.287 1420.26 249.43C1174.2 82.3175 870.085 -7.27177 572.482 19.9865C498.472 27.7207 424.546 43.4816 356.688 74.4958C188.61 151.963 154.911 287.476 268.554 434.789C297.646 472.79 332.41 507.291 368.484 538.67C455.921 613.088 555.044 657.417 671.573 640.438C685.106 638.669 699.473 635.737 712.709 632.698C859.674 596.44 985.278 500.452 1134.76 471.781C1230.56 452.93 1320.82 468.657 1406.23 515.324C1550.42 591.583 1667.79 713.731 1612.74 887.503C1582.54 981.326 1516.03 1064.25 1442.77 1128.75L1442.82 1128.7Z" fill="#73206F"/>
<path d="M1442.82 1128.7C1523.53 1051.26 1600.86 938.882 1609.04 824.7C1610.43 803.081 1609.45 781.169 1605.47 759.875C1600.95 735.63 1592.72 711.68 1581.26 689.829C1532.91 596.573 1426.97 528.885 1331.42 490.829C1090.33 400.246 912.954 578.407 694.733 634.418C547.523 671.23 426.764 616.328 320.406 515.42C258.126 456.039 197.127 385.607 181.762 298.387C172.967 248.724 186.921 196.404 218.484 157.196C296.282 61.489 437.081 27.8331 554.796 15.2638C803.115 -7.41551 1056 53.0749 1275.53 169.033C1308.47 186.646 1340.68 205.628 1372.01 225.956C1423.63 260.569 1475.48 295.019 1530.76 323.572C1545.93 331.632 1565.27 340.986 1581 348.055C1662.36 384.427 1762.54 415.787 1851.43 393.93C1911.51 379.299 1956.03 338.381 1974.05 278.999C1989.28 228.243 1984.31 173.508 1969.28 123.25C1932.25 3.75136 1842.06 -93.2319 1737.17 -158.454C1842.33 -93.4374 1932.82 3.43268 1970.2 122.975C1985.42 173.382 1990.55 228.387 1975.36 279.399C1957.32 339.377 1912.52 380.71 1851.85 395.591C1762.57 417.701 1661.92 386.429 1580.12 349.988C1564.3 342.895 1544.97 333.59 1529.73 325.514C1474.33 296.993 1422.37 262.595 1370.66 228.022C1339.36 207.783 1307.19 188.877 1274.29 171.357C1055.19 55.7922 802.857 -4.5016 555.106 18.2486C438.099 30.7956 298.264 64.2694 220.946 159.095C189.917 197.712 176.106 249.011 184.784 297.893C197.466 371.793 244.877 434.33 295.902 487.157C308.643 500.287 322.565 513.879 336.127 525.892C499.465 671.964 642.592 670.133 833.948 581.086C994.878 506.904 1151.78 419.597 1332.09 489.068C1428.01 527.436 1534.06 595.382 1582.41 689.242C1593.86 711.218 1602.08 735.313 1606.55 759.676C1610.49 781.057 1611.44 803.076 1609.98 824.754C1601.47 939.095 1523.88 1051.32 1442.84 1128.68L1442.82 1128.7Z" fill="#73206F"/>
<path d="M1442.82 1128.7C1531.51 1035.55 1614.16 894.617 1589.45 761.858C1578.4 700.212 1543.57 645.97 1498.35 603.467C1462.24 569.341 1420.17 542.126 1376.35 518.941C1332.64 495.54 1285.55 477.968 1236.45 470.419C1029.74 437.038 862.774 588.891 671.813 634.732C568.051 659.011 475.044 640.35 386.098 582.105C334.17 547.814 287.975 504.986 247.029 458.282C114.539 306.619 128.459 153.418 320.411 66.7805C561.375 -36.0337 884.103 10.0467 1121.76 105.254C1202.61 137.595 1280.36 177.68 1353.36 225.162C1415.07 266.866 1477.83 307.401 1545.29 339.268C1624.39 376.21 1716.84 408.254 1805.11 397.509L1809.73 396.97L1814.29 396.139L1823.43 394.497C1826.47 393.907 1829.44 393.026 1832.46 392.317C1839.26 390.814 1845.79 388.375 1852.41 386.254L1854.56 385.378L1863.15 381.843C1903.8 364.029 1934.14 331.634 1950.08 290.23C1960.42 262.73 1964.63 233 1963.54 203.691C1957.77 75.1908 1876.45 -38.7643 1778.48 -117C1759.01 -132.437 1738.63 -146.717 1717.56 -159.894C1822.64 -94.9477 1913.02 1.80966 1950.48 121.197C1964.82 168.644 1970.32 219.934 1958.33 268.461C1945.47 319.919 1914.29 359.961 1865.98 382.472C1862.92 383.772 1858.28 385.675 1855.18 386.962L1853.01 387.849L1850.79 388.59C1841.95 391.667 1832.95 394.209 1823.81 396.21C1819.95 396.904 1813.53 398.085 1810.01 398.724C1727.53 409.911 1645.11 384.827 1569.89 352.788C1550.41 344.226 1529.79 334.415 1511 324.57C1466.87 301.548 1424.32 275.639 1383.08 247.845C1219.29 135.349 1030.32 60.0984 834.286 28.1271C687.797 4.981 534.897 3.02016 391.444 44.0829C321.067 65.2448 250.106 97.9056 202.784 155.842C118.329 261.16 181.671 384.074 261.605 470.289C373.095 590.243 502.182 672.301 671.229 632.097C862.48 586.09 1029.39 434.744 1236.79 468.473C1286.08 476.121 1333.4 493.854 1377.22 517.398C1442.83 552.24 1505.75 596.845 1547.89 659.027C1561.83 679.488 1573.37 702.093 1581.19 725.593C1589.21 749.031 1593.65 774.019 1594.65 798.724C1599.46 919.923 1524.29 1043.67 1442.87 1128.71L1442.82 1128.7Z" fill="#73206F"/>
<path d="M1442.82 1128.7C1513.46 1047.09 1573.16 938.712 1578.34 829.155C1580.92 769.565 1565.04 711.664 1531.93 662.004C1488.57 597.23 1423.06 551.003 1354.37 516.066C1266.72 468.944 1163.26 453.595 1066.18 476.258C886.119 513.951 726.881 657.361 538.017 643.286C437.39 635.216 348.56 577.573 277.494 509.073C246.108 479.145 216.255 446.662 191.859 410.75C66.299 225.913 184.994 92.7173 372.603 39.1647C653.634 -37.9163 984.909 32.0695 1238.32 167.245C1282.17 190.668 1324.49 216.89 1365.56 244.879C1432.39 289.83 1502.54 330.602 1577.56 360.338C1651.07 388.737 1735.13 410.366 1813.35 390.718C1877.07 374.652 1921.53 330.146 1937.47 266.263C1943.39 242.288 1945.11 217.222 1943.45 192.602C1933.63 67.7295 1854.47 -42.0939 1758.77 -118.499C1739.32 -133.917 1718.96 -148.189 1697.91 -161.361C1802.85 -96.452 1893.24 0.209976 1930.74 119.445C1945.13 166.809 1950.64 218.1 1938.78 266.598C1925.69 319.965 1891.57 362.498 1840.34 383.491C1823.25 390.731 1804.68 395.34 1786.28 397.729C1727.39 405.405 1667.76 393.275 1611.88 374.929C1570.66 361.323 1530.56 343.424 1492.06 323.474C1447.96 300.49 1405.43 274.635 1364.2 246.88C1180.17 120.43 964.324 40.5402 742.273 16.9694C595.286 2.62318 440.978 8.59862 303.722 67.4111C147.789 136.167 93.496 261.728 194.335 409.066C218.596 444.811 248.286 477.17 279.514 506.957C350.101 575.051 438.277 632.454 538.254 640.513C600.192 645.731 662.084 632.353 720.077 611.231C836.629 569.008 943.539 500.695 1065.73 474.1C1163.22 451.466 1267.32 467.052 1355.18 514.476C1424.07 549.626 1489.72 596.134 1533.04 661.259C1566.14 711.159 1581.97 769.407 1579.21 829.177C1573.78 938.83 1513.77 1047.18 1442.84 1128.68L1442.82 1128.7Z" fill="#73206F"/>
<path d="M1442.82 1128.7C1502.74 1052.57 1550.58 957.13 1561.55 860.113C1569.18 791.491 1555.33 723.048 1517.34 664.944C1473.43 596.841 1404.77 548.871 1332.97 513.545C1266.77 479.816 1192.16 461.909 1117.79 466.581C992.453 473.733 880.97 537.186 768.385 586.536C700.385 616.371 628.618 642.295 553.515 643.689C434.682 646.846 331.616 580.678 249.825 499.996C166.984 419.881 78.1624 295.438 142.093 179.176C186.137 102.038 272.178 61.6487 354.276 37.3187C595.246 -27.3817 855.09 13.1131 1084.42 103.089C1159.35 133.175 1231.6 169.961 1299.85 213.106C1315.63 222.961 1331.05 233.496 1346.53 243.823C1408.23 285.263 1472.67 323.183 1541.26 352.045C1629.84 389.294 1747.53 420.323 1837.16 372.401C1872.75 352.939 1899.48 320.555 1912.56 282.23L1914.85 275.673L1917.93 264.514C1918.37 263.036 1918.65 261.513 1918.96 259.998L1919.9 255.457C1921.35 249.538 1921.93 243.009 1922.86 237.161C1936.56 98.1811 1844.19 -36.9761 1739.09 -119.99C1719.65 -135.404 1699.3 -149.661 1678.26 -162.829C1704.58 -146.468 1729.9 -128.322 1753.65 -108.411C1852.38 -25.426 1936.95 103.795 1924.13 237.29C1923.67 240.934 1922.68 247.693 1922.12 251.129C1921.61 253.454 1920.75 257.951 1920.26 260.265C1919.53 264.309 1917.21 271.985 1916.16 276.054C1905.36 310.931 1883.98 342.94 1853.74 363.835L1849.95 366.57L1845.97 369.008C1843.29 370.604 1840.67 372.282 1837.95 373.821L1829.61 378.04C1825.7 380.123 1820.87 381.893 1816.76 383.645C1811.84 385.734 1804.18 388.066 1799.08 389.667C1796.47 390.352 1788.28 392.381 1785.5 393.086C1707.02 409.109 1626.5 387.762 1553.34 359.342C1526.03 348.224 1499.13 335.914 1472.99 322.291C1428.91 299.346 1386.39 273.51 1345.16 245.805C1140.88 105.501 897.333 21.7749 649.615 10.0407C490.632 2.21155 232.27 30.2038 144.814 180.655C81.6661 295.399 170.144 418.869 251.89 497.892C333.079 578.021 435.455 644.021 553.492 640.912C628.223 639.565 699.626 613.722 767.354 584.108C880.129 534.841 992.094 471.42 1117.71 464.471C1192.38 459.881 1267.42 478.001 1333.78 511.935C1405.76 547.475 1474.59 595.749 1518.45 664.214C1556.41 722.62 1570.18 791.318 1562.34 860.161C1551.1 957.253 1503.01 1052.61 1442.84 1128.67L1442.82 1128.7Z" fill="#73206F"/>
<path d="M1442.82 1128.7C1518.29 1022.42 1574.3 874.434 1537.12 744.428C1502.8 621.745 1391.15 542.419 1278.22 496.365C1081.84 417.32 923.426 507.89 747.288 587.11C701.762 606.845 655.115 624.797 606.327 634.774C446.504 670.162 316.283 590.083 209.723 477.742C42.4006 304.26 64.6963 132.046 300.044 46.962C616.319 -58.5105 1023.59 42.4351 1296.32 221.992C1368.08 270.61 1441.73 317.355 1521.99 350.729C1567.49 369.913 1615.32 385.141 1664.29 392.035C1721.73 399.896 1784.85 395.275 1833.37 360.904C1861.23 341.523 1882.02 312.551 1892.98 280.538L1894.51 276.172L1895.26 273.977L1895.86 271.741L1898.32 262.815C1900.51 254.013 1902.05 244.463 1903.23 235.488C1916.77 96.5318 1824.5 -38.471 1719.41 -121.466C1699.97 -136.88 1679.63 -151.117 1658.6 -164.281C1679.67 -151.17 1700.04 -136.974 1719.53 -121.613C1821.41 -41.0411 1908.48 82.8332 1905.78 217.067C1905.52 227.609 1904.21 239.061 1902.51 249.479C1901.63 254.002 1900.67 258.718 1899.63 263.15C1899.16 265.174 1897.02 272.59 1896.57 274.393C1888 301.813 1873.3 327.574 1852.32 347.417C1850.78 349.09 1843.82 354.983 1841.8 356.66C1839.86 358.277 1836.41 360.693 1834.3 362.23C1829.38 366.015 1823.8 369.017 1818.54 372.239L1810.2 376.458C1808.79 377.125 1807.44 377.92 1805.99 378.51L1801.68 380.288C1798.79 381.454 1795.95 382.73 1793.02 383.788C1787.45 385.572 1780.71 388.053 1775.18 389.276C1691.93 410.756 1598.6 384.851 1521.15 352.655C1452.4 323.898 1387.77 286.024 1325.9 244.638C1081.22 77.3388 778.961 -12.9748 482.27 11.8545C408.476 18.9621 334.748 33.8632 266.579 63.539C55.7791 157.466 63.3351 321.655 211.814 475.727C346.068 615.995 486.273 681.78 677.139 612.05C882.508 536.441 1049.15 403.066 1278.86 494.676C1392.28 541.125 1503.89 620.797 1538.09 744.151C1574.98 874.453 1518.65 1022.42 1442.77 1128.7L1442.82 1128.7Z" fill="#73206F"/>
<path d="M1442.82 1128.7C1528.31 994.361 1577.54 807.441 1484.59 664.661C1439.15 593.881 1367.55 544.245 1292.07 509.498C1202.72 466.059 1099.21 454.479 1002.65 478.144C812.425 519.406 640.805 679.239 437.425 634.231C339.422 611.981 257.798 546.879 189.62 475.763C123.399 406.116 58.5472 308.879 88.8376 209.115C135.772 67.8241 330.488 19.7295 462.939 7.35936C753.919 -16.6855 1050.67 69.5613 1292.49 230.99C1408.34 309.956 1574.66 405.529 1718.9 392.551C1728.07 391.715 1737.34 390.125 1746.36 388.385L1759.83 385.003C1761.32 384.585 1762.76 384.06 1764.24 383.592L1773.03 380.699C1777.88 378.933 1781.24 377.291 1785.89 375.472C1787.31 374.874 1788.66 374.11 1790.05 373.439L1798.31 369.279L1806.23 364.507C1807.55 363.685 1808.9 362.956 1810.17 362.072L1813.92 359.379C1836.73 343.547 1854.69 321.154 1866.55 296.147C1870.04 288.441 1873.1 280.476 1875.72 272.423L1876.31 270.187L1878.77 261.261C1880.94 252.486 1882.49 242.89 1883.66 233.93C1896.84 97.9395 1808.73 -34.0889 1707.05 -117.083C1685.46 -134.703 1662.65 -150.954 1639.02 -165.713C1660.08 -152.621 1680.45 -138.425 1699.94 -123.064C1801.81 -42.5117 1888.84 81.3047 1886.2 215.505C1886.26 220.575 1885.29 228.904 1884.93 234.074C1884.38 237.365 1883.55 244.692 1882.95 247.906C1881.89 252.414 1881.24 257.162 1880.09 261.581L1877.65 270.577C1869.81 297.345 1855.95 322.731 1836.17 342.568C1830 348.982 1822.2 355.613 1814.88 360.694C1810.93 363.858 1803.54 367.99 1799.13 370.722C1795.6 372.514 1789.92 375.442 1786.61 377.001L1782.3 378.78C1779.41 379.945 1776.57 381.221 1773.65 382.298L1764.79 385.221C1763.31 385.689 1761.84 386.225 1760.34 386.654C1675.34 410.109 1581.14 384.2 1501.84 351.327C1478.94 341.851 1456.41 331.102 1434.39 319.742C1390.34 296.836 1347.82 271.05 1306.62 243.368C1029.08 53.2627 648.131 -49.726 317.38 36.9687C146.325 84.9151 15.2745 205.493 123.636 386.162C142.792 417.931 166.298 446.871 191.802 473.772C275.369 562.265 384.886 641.214 511.57 639.704C586.26 639.422 657.927 614.302 725.753 585.056C860.023 526.357 998.466 448.187 1150.34 466.482C1199.81 471.865 1247.96 486.69 1292.87 507.934C1365.8 541.625 1434.92 589.079 1480.6 656.239C1519.6 712.561 1537.78 781.74 1535.64 849.894C1532.36 949.151 1495.86 1045.52 1442.89 1128.73L1442.82 1128.7Z" fill="#73206F"/>
<path d="M1442.82 1128.7C1496.77 1032.79 1530.51 919.199 1518.78 808.599C1512.03 747.146 1488.36 687.465 1449.74 639.006C1403.7 580.324 1339.87 538.198 1272.35 507.88C1182.47 465.59 1078.98 455.171 982.525 478.865C792.473 520.336 620.276 679.639 417.08 633.278C331.734 613.442 258.063 560.513 195.982 500.452C160.265 465.973 126.869 428.563 101.181 385.899C82.0937 353.871 67.2425 318.708 62.8058 281.412C56.1101 231.53 72.8236 180.242 105.611 142.373C186.423 49.7389 325.741 17.7078 443.57 5.87C725.272 -17.4821 1012.24 63.0772 1249.66 214.232C1256.61 218.801 1266.11 224.915 1272.96 229.605C1329.24 267.897 1387.52 303.774 1449.13 332.868C1539.48 374.88 1655.36 413.525 1753.46 379.187C1756.34 378.117 1759.17 376.87 1762.03 375.712L1766.3 373.956C1767.73 373.342 1769.07 372.594 1770.46 371.923L1778.72 367.763L1786.63 362.971C1787.95 362.15 1789.3 361.42 1790.55 360.533L1794.31 357.839C1822.14 338.416 1842.88 309.431 1853.79 277.422C1859.98 260.121 1863.43 241.467 1864.79 223.152C1871.73 110.886 1811.5 3.99973 1735.35 -74.6638C1700.84 -110.027 1661.26 -141.073 1619.36 -167.2C1640.42 -154.108 1660.79 -139.912 1680.26 -124.555C1780.58 -44.9079 1864.19 72.8416 1866.75 204.652C1866.77 248.232 1855.84 292.136 1828.88 327.034C1824.99 331.715 1820.99 336.803 1816.54 341.024C1814.27 343.155 1812.16 345.636 1809.85 347.529L1802.75 353.58C1799.49 356.244 1794.91 359.37 1791.48 361.889C1789.43 363.199 1781.88 367.794 1779.53 369.202C1775.91 371.019 1770.37 373.888 1767.01 375.481C1762.71 377.263 1758.33 379.121 1754.05 380.778L1745.18 383.701C1669.9 406.582 1589.31 388.867 1516.94 363.477C1483.43 351.287 1450.76 336.597 1418.95 320.479C1373.48 296.948 1329.55 270.522 1287.07 241.959C1042.53 74.6511 740.445 -15.7476 443.846 8.86174C326.69 20.6843 188.33 52.5486 107.999 144.366C75.7523 181.678 59.2317 231.942 65.8407 281.052C75.4121 355.292 121.861 418.679 171.853 472.013C255.413 560.471 364.498 639.81 491.13 639.166C565.82 639.374 637.604 614.546 705.495 585.48C818.621 536.976 930.403 474.419 1055.65 465.432C1130.13 459.57 1205.47 474.93 1273.09 506.269C1356.19 543.436 1434.19 600.083 1479.27 680.708C1557.58 820.919 1518.01 995.694 1442.82 1128.7Z" fill="#73206F"/>
<path d="M1442.82 1128.7C1506.92 999.846 1537.55 832.863 1471.62 699.053C1449.9 654.567 1417.87 615.403 1380.07 583.529C1284.89 505.795 1160.51 457.554 1036.67 467.601C911.702 476.955 800.262 539.213 687.209 587.688C618.975 616.874 546.753 641.633 471.659 641.285C344.303 641.588 234.495 561.778 150.364 472.889C124.717 445.853 101.027 416.748 81.7594 384.787C-27.2648 202.995 102.78 79.8331 277.184 31.0885C595.853 -53.9531 974.726 43.5721 1245.47 222.873C1314.45 269.95 1386.08 314.181 1463.31 346.45C1508.8 365.614 1556.64 380.812 1605.59 387.687C1663.02 395.528 1726.14 390.857 1774.61 356.439C1797.41 340.608 1815.37 318.215 1827.25 293.212C1830.73 285.506 1833.8 277.541 1836.41 269.488L1837.01 267.252L1839.47 258.326C1841.64 249.535 1843.18 239.97 1844.36 230.995C1857.85 92.1219 1765.56 -42.9347 1660.52 -125.868C1641.09 -141.262 1620.75 -155.515 1599.72 -168.664C1620.78 -155.556 1641.15 -141.376 1660.64 -126.014C1762.51 -45.4621 1849.54 78.3544 1846.9 212.555C1846.99 217.583 1845.96 225.98 1845.63 231.124C1845.13 234.446 1844.21 241.73 1843.65 244.956C1842.77 249.478 1841.82 254.195 1840.79 258.631L1838.35 267.627C1830.5 294.395 1816.65 319.78 1796.87 339.617C1790.7 346.032 1782.9 352.663 1775.56 357.739C1771.61 360.903 1764.22 365.035 1759.82 367.767C1756.25 369.567 1750.62 372.476 1747.3 374.046L1742.98 375.825C1740.09 376.99 1737.25 378.267 1734.34 379.344L1725.47 382.267C1723.99 382.734 1722.53 383.27 1721.03 383.684C1636.03 407.139 1541.83 381.23 1462.53 348.342C1439.64 338.866 1417.1 328.117 1395.09 316.758C1351.03 293.851 1308.51 268.065 1267.32 240.383C1104.02 127.918 915.679 52.3 720.119 19.9014C562.056 -5.25375 395.544 -6.91701 242.726 45.2802C83.7131 100.855 -14.0199 220.09 84.3404 383.196C103.496 414.965 127.006 443.89 152.521 470.81C236.144 559.22 345.077 638.698 471.694 638.474C546.401 638.865 618.243 614.183 686.191 585.214C799.41 536.849 911.316 474.619 1036.52 465.459C1160.91 455.59 1285.64 504.074 1381.08 582.316C1418.92 614.398 1450.98 653.813 1472.67 698.502C1538.33 832.747 1507.36 999.785 1442.82 1128.7Z" fill="#73206F"/>
<path d="M1442.82 1128.7C1482.1 1038.14 1502.67 937.756 1494.52 839.005C1481.62 679.236 1380.09 565.782 1235.5 505.636C1167.52 475.944 1092.35 461.443 1018.25 467.621C867.563 478.723 738.841 565.937 598.997 614.063C578.433 621.056 557.419 627.048 536.172 631.592C400.555 661.991 286.198 613.173 185.103 523.749C148.277 490.913 112.534 455.01 83.3472 415.108C21.247 331.667 -7.47684 227.288 65.6142 140.377C114.288 82.8188 185.856 50.6955 256.855 29.8308C497.802 -34.5989 757.515 5.95872 986.73 96.0017C1061.62 126.11 1133.84 162.902 1202.05 206.055C1217.84 215.909 1233.23 226.456 1248.7 236.764C1300.09 271.366 1353.46 303.19 1409.44 329.781C1508.13 376.26 1651.53 422.199 1751.07 357.827L1758.59 352.441C1759.83 351.518 1761.13 350.693 1762.27 349.647L1769.33 343.664C1769.91 343.15 1770.52 342.68 1771.07 342.143L1772.7 340.509L1775.98 337.246C1779.97 333.376 1784.68 327.872 1788.26 323.438C1801.05 306.961 1810.45 288.077 1816.77 268.234C1818.32 262.425 1820.82 254.03 1821.79 248.03C1823.24 242.207 1823.82 235.517 1824.74 229.75C1838.33 90.7864 1746.03 -44.2551 1640.94 -127.25C1621.5 -142.664 1601.16 -156.916 1580.13 -170.065C1622.13 -144.028 1661.84 -113.06 1696.45 -77.7526C1777.39 4.9007 1843.02 125.134 1824.04 243.725C1818.88 272.793 1807.64 300.951 1789.49 324.387C1786.55 328 1783.52 331.573 1780.43 335.065C1778.82 336.767 1775.45 339.991 1773.83 341.674L1772.18 343.319C1771.62 343.871 1771.01 344.342 1770.43 344.855C1767.36 347.473 1762.67 351.628 1759.59 353.738L1755.81 356.473C1750.89 360.258 1745.31 363.26 1740.05 366.481C1736.4 368.306 1730.92 371.191 1727.52 372.741C1723.22 374.524 1718.83 376.412 1714.55 378.019C1710.65 379.289 1704.83 381.282 1701.22 382.355C1698.59 383.001 1690.43 385.104 1687.64 385.789C1607.66 402.08 1525.54 379.946 1451.25 350.422C1425.37 339.886 1399.98 328.06 1375.2 315.209C1331.13 292.284 1288.61 266.482 1247.41 238.781C1043.22 98.4714 799.806 14.6824 552.171 2.82359C394.111 -5.34499 134.149 23.1967 47.1449 172.693C-16.6995 287.234 71.4596 410.798 153.096 489.988C177.186 513.64 203.264 536.57 230.339 556.638C325.922 627.273 427.885 655.213 544.723 626.972C635.495 605.358 718.081 560.684 803.595 524.702C894.278 485.572 992.848 456.055 1092.65 466.169C1141.99 470.701 1190.85 484.332 1236.27 504.049C1381.3 564.607 1482.79 678.717 1495.35 838.966C1503.24 937.876 1482.42 1038.17 1442.89 1128.73L1442.82 1128.7Z" fill="#73206F"/>
</g>
</g>
</svg>
