<svg width="96" height="59" viewBox="0 0 96 59" fill="none" xmlns="http://www.w3.org/2000/svg">
<path fill-rule="evenodd" clip-rule="evenodd" d="M41.4888 21.525L41.4888 21.5127C41.4952 19.5142 41.5024 17.2807 41.0992 15.601C38.2496 1.65058 20.9696 -4.10142 9.3296 3.13858C-7.04479 13.3402 -0.446395 36.5986 18.108 38.8522C19.6088 39.037 21.4288 39.0266 23.1656 39.0162L23.2388 39.0157C24.2178 39.0103 25.1675 39.005 26.016 39.037L33.8344 39.061L33.8336 39.0602H35.728C35.7432 35.5706 35.7344 31.8626 35.7256 28.181V28.1786L35.7272 28.1794V28.1746L35.7271 28.1434V28.1414V28.1392V28.1371V28.1349V28.1326V28.1303C35.7207 25.4516 35.7144 22.7885 35.7176 20.2346C35.7032 19.6866 35.7048 19.0714 35.7072 18.4298C35.7128 16.8698 35.7184 15.1506 35.4864 13.8482C33.684 2.23618 20.0176 -3.47822 10.8232 4.19698C3.7512 9.96817 3.3352 21.0426 9.44 27.6906C11.6936 30.1474 14.7944 31.9122 18.1184 32.4122C19.643 32.6424 22.2271 32.6082 24.4621 32.5786L24.4664 32.5786H24.468L24.5012 32.5781H24.5014H24.5017H24.5019H24.5022H24.5024H24.5027C25.5773 32.5639 26.5689 32.5508 27.3208 32.5698L27.324 32.5738V32.5698H27.3208C26.2928 31.365 24.788 30.6746 23.2024 30.6778C21.2152 30.6858 19.5512 30.6586 18.4184 30.4818C13.5192 29.7626 9.4168 26.0794 7.6984 21.4418C4.7824 13.921 8.4992 4.01618 16.5112 1.52418C25.1552 -1.18302 32.9008 5.59618 33.764 14.0826C33.8952 15.2626 33.8728 16.869 33.852 18.3314C33.8424 19.017 33.8336 19.6714 33.8408 20.2354L33.8328 26.5106C33.8328 27.5551 33.8314 28.5997 33.8301 29.6442L33.8288 30.6938V30.6954L33.8283 31.0573V31.0587C33.8244 33.7254 33.8205 36.3928 33.8328 39.0594L31.8944 37.1418L26.028 37.0802C25.271 37.0563 24.3775 37.0609 23.444 37.0657L23.424 37.0658L23.3984 37.0659C21.6264 37.0747 19.7189 37.0841 18.3392 36.9034C15.8776 36.6154 13.4664 35.881 11.2864 34.7042C1.8992 29.7162 -1.3128 18.1114 4.3992 9.09858C8.4896 2.45058 16.7792 -0.987018 24.4176 0.589781C33.3504 2.24338 40.0944 10.6522 39.644 19.6346C39.6232 21.4041 39.62 28.4384 39.6176 33.6708V33.6785L39.6176 33.7066V33.7082C39.6168 36.1442 39.6152 38.185 39.6128 39.1138H41.508L41.5 23.5298C41.4841 22.9181 41.4864 22.2432 41.4887 21.5381V21.5377L41.4888 21.5258V21.525ZM48.94 0.105781H47.0144V39.1106H48.94V0.105781ZM36.9928 10.745C33.0016 1.70178 21.3808 -2.20462 12.5984 2.11298C-2.8432 9.47618 0.196004 31.6778 16.7048 35.3386C18.2908 35.7343 20.3849 35.7226 22.2463 35.7122H22.2463L22.2504 35.7122L22.2691 35.7121H22.2698H22.2701H22.2703H22.2705H22.2707H22.2709H22.2711H22.2713H22.2715C22.8599 35.7089 23.4246 35.7059 23.9424 35.7154L30.3792 35.7002L28.4608 33.7778L23.9424 33.7626C23.4802 33.7547 22.9646 33.7584 22.4216 33.7624H22.4215H22.4214H22.4213H22.4212H22.4211H22.421H22.4209H22.4208H22.4208L22.3928 33.7626C20.6224 33.7762 18.5656 33.7914 17.1104 33.4162C7.8928 31.5666 2.1384 22.081 4.6112 13.045C6.9368 3.63218 17.2096 -1.98222 26.3304 1.72498C32.7784 4.28178 36.9424 11.0722 36.68 17.917C36.6496 22.4506 36.6496 34.3586 36.6496 39.057H38.5408V24.961L38.5136 17.913C38.5096 15.4754 38.0056 12.9762 36.992 10.7458L36.9928 10.745ZM44.0776 0.105781H46.0032V39.1106H44.0776V0.105781ZM50.0088 0.105781H51.9344V39.1106H50.0088V0.105781ZM86.6728 3.13938C75.0328 -4.10062 57.7528 1.65138 54.9024 15.601C54.4992 17.2808 54.5063 19.5143 54.5127 21.5128L54.5128 21.525L54.5128 21.5371V21.5375V21.5376V21.5376C54.5152 22.2426 54.5175 22.9182 54.5016 23.529L54.4936 58.5537L56.3888 56.6697C56.3868 55.8693 56.3859 52.931 56.3847 49.0309L56.384 46.6946V46.6881L56.3839 46.3499C56.3815 35.9528 56.3781 21.3637 56.3576 19.6306C55.9072 10.6482 62.6512 2.23938 71.584 0.585781C79.2224 -0.991018 87.5112 2.44658 91.6023 9.09458C97.3143 18.1074 94.1023 29.7122 84.7151 34.6994C82.5351 35.8762 80.124 36.6106 77.6624 36.8986C76.2776 37.0793 74.3591 37.0698 72.5808 37.061H72.5807L72.5776 37.061L72.5576 37.0609C71.624 37.0561 70.7306 37.0515 69.9736 37.0754L64.1072 37.137L62.1701 39.0709C62.1689 36.9447 62.1673 34.7977 62.1659 32.8626L62.1659 32.7982L62.1656 32.4106L62.1645 30.7531L62.1645 30.7254L62.1645 30.6505C62.1633 28.8529 62.1624 27.3856 62.1624 26.5106L62.1632 26.5098L62.1552 20.2346C62.1624 19.6706 62.1536 19.017 62.144 18.3306L62.1438 18.3182V18.318V18.3179C62.1238 16.8597 62.1019 15.2592 62.232 14.0818C63.0952 5.58818 70.8448 -1.18702 79.488 1.51618C87.5 4.00818 91.2168 13.913 88.3008 21.4338C86.5832 26.0706 82.4808 29.7546 77.5808 30.4738C76.448 30.6506 74.8112 30.6778 72.824 30.6698C71.2368 30.6658 69.7312 31.3578 68.7024 32.5658L68.6984 32.5698C69.4524 32.5508 70.4442 32.5639 71.5182 32.5781L71.5504 32.5786C73.7792 32.6082 76.352 32.6418 77.8776 32.4122C81.2016 31.9122 84.3024 30.1474 86.5559 27.6906C92.6607 21.0426 92.2448 9.96898 85.1728 4.19698C75.9784 -3.47742 62.312 2.23618 60.5096 13.8482C60.2776 15.1506 60.2832 16.8698 60.2888 18.4298C60.2912 19.0714 60.2928 19.6866 60.2784 20.2346C60.2816 22.6506 60.276 27.3274 60.2696 32.4658V32.4794L60.2691 32.9305C60.2604 40.6045 60.2507 49.1791 60.2664 52.749C61.4608 51.8762 62.1696 50.4922 62.1696 49.0154C62.1731 46.6811 62.1722 42.9101 62.1701 39.0714L69.9848 39.037C70.8332 39.005 71.783 39.0103 72.7619 39.0157L72.8352 39.0162C74.5712 39.0266 76.392 39.037 77.8928 38.8522C96.4431 36.5994 103.042 13.3402 86.6712 3.13938H86.6728ZM69.6216 1.72018C78.7424 -1.98302 89.016 3.63138 91.3424 13.0482C93.8151 22.0842 88.0608 31.5698 78.8432 33.4194C77.3887 33.7944 75.3334 33.7786 73.5628 33.765L73.56 33.765L73.531 33.7648C72.988 33.7608 72.4725 33.7571 72.0104 33.765L67.492 33.7802L65.5504 35.6986L72.0064 35.7138C72.5304 35.7034 73.1024 35.7066 73.6984 35.7106L73.7133 35.7106C75.572 35.721 77.661 35.7327 79.244 35.337C95.7567 31.6802 98.796 9.47458 83.3536 2.11138C74.5712 -2.20702 62.9504 1.70018 58.96 10.7434C57.9472 12.9738 57.4424 15.473 57.4384 17.9106L57.4112 24.9586V55.6497L59.3024 53.7385C59.3024 49.0401 59.3024 22.4474 59.272 17.9098C59.0104 11.0658 63.1736 4.27538 69.6216 1.71778V1.72018ZM65.5504 35.6994L65.5464 35.7034L65.5384 35.6994H65.5504Z" fill="white"/>
</svg>
