<svg width="40" height="40" viewBox="0 0 40 40" fill="none" xmlns="http://www.w3.org/2000/svg">
<path d="M40 20C40 8.9543 31.0457 0 20 0C8.95432 0 0 8.9543 0 20C0 31.0457 8.95432 40 20 40C31.0457 40 40 31.0457 40 20Z" fill="#FACDF8" fill-opacity="0.1"/>
<path d="M29.8295 16.7382C29.7067 15.5524 29.4424 14.2417 28.4694 13.5529C27.7159 13.0187 26.7254 12.9989 25.8008 13C23.8461 13 21.8904 13.0033 19.9358 13.0044C18.0558 13.0066 16.1757 13.0077 14.2957 13.0099C13.5104 13.0099 12.7469 12.9496 12.0175 13.2896C11.3912 13.5814 10.9009 14.1364 10.6058 14.7539C10.1967 15.6128 10.1112 16.5857 10.0618 17.5356C9.97076 19.2653 9.98064 20.9995 10.0892 22.7281C10.1693 23.9895 10.3722 25.3837 11.3473 26.1877C12.2117 26.8995 13.4314 26.9346 14.5524 26.9357C18.1106 26.939 21.67 26.9423 25.2293 26.9445C25.6856 26.9456 26.1616 26.9368 26.6267 26.8864C27.5415 26.7877 28.4135 26.5255 29.0014 25.8476C29.5948 25.1643 29.7473 24.2133 29.8372 23.3128C30.0566 21.1278 30.0544 18.922 29.8295 16.7382ZM17.8781 23.0353V16.9093L23.1825 19.9717L17.8781 23.0353Z" fill="white"/>
</svg>
