<svg width="32" height="23" viewBox="0 0 32 23" fill="none" xmlns="http://www.w3.org/2000/svg">
<path d="M30.0528 4.55998C29.8944 3.9272 29.5718 3.34741 29.1177 2.87919C28.6635 2.41097 28.0938 2.0709 27.4661 1.89332C25.1728 1.33332 15.9995 1.33332 15.9995 1.33332C15.9995 1.33332 6.82613 1.33331 4.53279 1.94665C3.90512 2.12423 3.33543 2.4643 2.88126 2.93252C2.42708 3.40074 2.10451 3.98053 1.94613 4.61331C1.52641 6.94072 1.32111 9.30173 1.33279 11.6666C1.31783 14.0494 1.52315 16.4284 1.94612 18.7733C2.12074 19.3864 2.45053 19.9442 2.90365 20.3926C3.35677 20.8411 3.91788 21.1651 4.53279 21.3333C6.82612 21.9466 15.9995 21.9466 15.9995 21.9466C15.9995 21.9466 25.1728 21.9466 27.4661 21.3333C28.0938 21.1557 28.6635 20.8157 29.1177 20.3474C29.5718 19.8792 29.8944 19.2994 30.0528 18.6667C30.4693 16.3568 30.6746 14.0138 30.6661 11.6667C30.6811 9.28392 30.4758 6.90492 30.0528 4.55998Z" stroke="#91298C" stroke-width="1.5" stroke-linecap="round" stroke-linejoin="round"/>
<path d="M12.9995 16.0266L20.6661 11.6666L12.9995 7.30665L12.9995 16.0266Z" stroke="#91298C" stroke-width="1.5" stroke-linecap="round" stroke-linejoin="round"/>
</svg>
