<svg width="191" height="140" viewBox="0 0 191 140" fill="none" xmlns="http://www.w3.org/2000/svg">
<g clip-path="url(#clip0_39_5235)">
<path d="M123.166 69.8898C123.137 93.5138 102.999 111.934 79.8283 111.78C56.6678 111.934 36.529 93.5138 36.5 69.8898C36.529 46.2562 56.6677 27.8359 79.838 28C102.999 27.8359 123.147 46.2562 123.176 69.8898H123.166ZM119.305 69.8898C119.295 46.2562 99.8126 26.8029 75.8218 29.1971C55.2196 31.3211 40.3134 49.529 40.3617 69.8898C40.3134 90.2506 55.2196 108.459 75.8218 110.583C99.8126 112.977 119.295 93.5234 119.305 69.8898Z" fill="#F3C545"/>
<path d="M133.65 69.8899C133.621 93.5138 113.483 111.934 90.3125 111.78C67.1519 111.944 47.0035 93.5235 46.9745 69.8899C47.0131 46.2563 67.1519 27.8359 90.3221 28.0001C113.483 27.8359 133.631 46.2563 133.66 69.8899H133.65ZM129.789 69.8899C129.779 46.2563 110.297 26.8029 86.3059 29.1972C65.7038 31.3211 50.7976 49.529 50.8458 69.8899C50.7976 90.2507 65.7038 108.459 86.3059 110.583C110.297 112.977 129.779 93.5235 129.789 69.8899Z" fill="#F3C545"/>
<path d="M144.135 69.8898C144.106 93.5138 123.968 111.934 100.797 111.78C77.6368 111.944 57.4884 93.5234 57.4594 69.8898C57.498 46.2562 77.6368 27.8359 100.797 28C123.958 27.8359 144.106 46.2562 144.135 69.8898ZM140.274 69.8898C140.264 46.2562 120.782 26.8029 96.7909 29.1971C76.1887 31.3211 61.2825 49.529 61.3308 69.8898C61.2825 90.2506 76.1887 108.459 96.7909 110.583C120.782 112.977 140.264 93.5234 140.274 69.8898Z" fill="#F3C545"/>
<path d="M154.62 69.8899C154.591 93.5138 134.452 111.934 111.282 111.78C88.1216 111.944 67.9732 93.5235 67.9442 69.8899C67.9828 46.2563 88.1216 27.8359 111.282 28.0001C134.443 27.8359 154.591 46.2563 154.62 69.8899ZM150.758 69.8899C150.749 46.2563 131.267 26.8029 107.276 29.1972C86.6735 31.3211 71.7673 49.529 71.8156 69.8899C71.7673 90.2507 86.6735 108.459 107.276 110.583C131.267 112.977 150.749 93.5235 150.758 69.8899Z" fill="#F3C545"/>
</g>
<defs>
<clipPath id="clip0_39_5235">
<rect width="118.12" height="83.77" fill="white" transform="translate(36.5 28)"/>
</clipPath>
</defs>
</svg>
