<svg width="191" height="140" viewBox="0 0 191 140" fill="none" xmlns="http://www.w3.org/2000/svg">
<path d="M50.5017 70.3852C50.2831 46.3817 71.4312 26.8376 95.2865 27.0058C112.623 26.7174 130.116 37.1385 137.097 53.233C141.892 64.0027 141.892 76.7677 137.097 87.5375C130.116 103.632 112.623 114.041 95.2865 113.765C71.4433 113.945 50.2831 94.3887 50.5017 70.3852ZM53.561 70.3852C53.3424 99.9058 83.6684 121.457 111.506 109.173C144.442 94.3286 144.442 46.4418 111.506 31.5974C83.6563 19.3132 53.3303 40.8646 53.561 70.3852Z" fill="#F3C545"/>
<path d="M57.0326 70.3854C57.3118 37.3189 98.1876 21.8014 122.176 43.7615C137.91 57.9329 137.91 82.8499 122.176 97.0092C98.1997 118.957 57.3118 103.452 57.0326 70.3854ZM60.0676 70.3854C59.8613 95.3625 85.4162 113.741 109.041 103.284C136.842 90.7709 136.842 49.9878 109.041 37.4752C85.4162 27.018 59.8613 45.3962 60.0676 70.3733L60.0676 70.3854Z" fill="#F3C545"/>
<path d="M63.5994 70.3858C63.8422 43.0889 97.6888 30.432 117.465 48.4257C130.516 60.0368 130.516 80.7468 117.465 92.3459C97.6766 110.328 63.8422 97.6707 63.5994 70.3858ZM66.5494 70.3858C66.3309 90.7834 87.2361 106.048 106.575 97.3942C129.253 87.0933 129.253 53.6663 106.575 43.3653C87.224 34.7111 66.3188 49.9762 66.5494 70.3738L66.5494 70.3858Z" fill="#F3C545"/>
<path d="M70.1795 70.385C70.3859 48.8816 97.167 39.0614 112.755 53.0885C123.11 62.0312 123.11 78.7508 112.755 87.6935C97.167 101.709 70.3859 91.9004 70.1795 70.397L70.1795 70.385ZM73.0082 70.385C72.8139 86.2631 88.9724 98.331 104.111 91.5037C121.666 83.4745 121.666 57.2834 104.111 49.2542C88.9724 42.439 72.8139 54.4948 73.0082 70.373L73.0082 70.385Z" fill="#F3C545"/>
<path d="M76.7954 70.3852C76.8925 54.7235 96.7537 47.6799 108.056 57.7404C115.729 64.2071 115.729 76.5514 108.056 83.018C96.7658 93.0906 76.8925 86.035 76.7954 70.3732L76.7954 70.3852ZM79.4419 70.3852C79.2113 81.6838 90.8172 90.6506 101.646 85.6143C114.065 79.8929 114.065 60.8776 101.646 55.1441C90.8172 50.1079 79.1991 59.0746 79.4419 70.3732L79.4419 70.3852Z" fill="#F3C545"/>
<path d="M95.2852 82.1168C85.3425 82.1168 81.057 69.3397 87.2242 62.4043C91.1333 57.4642 99.4371 57.4642 103.346 62.4043C109.513 69.3518 105.228 82.1288 95.2852 82.1168ZM95.2852 79.7128C104.172 79.8931 109.465 69.5441 102.278 63.4621C96.22 58.2815 84.9419 61.8875 84.954 70.3855C84.8569 75.8304 90.1742 79.857 95.2852 79.7128Z" fill="#F3C545"/>
</svg>
