<svg width="389" height="500" viewBox="0 0 389 500" fill="none" xmlns="http://www.w3.org/2000/svg">
<mask id="mask0_231_4496" style="mask-type:alpha" maskUnits="userSpaceOnUse" x="0" y="0" width="390" height="500">
<rect width="390" height="500" fill="#D9D9D9"/>
</mask>
<g mask="url(#mask0_231_4496)">
<path d="M-549.341 521.491C-506.235 486.184 -447.923 464.628 -391.039 463.788C-376.269 463.511 -361.44 464.605 -347.213 466.929C-335.284 468.703 -323.522 471.619 -312.195 474.801C-284.84 482.632 -256.776 490.34 -228.772 496.667C-195.965 503.725 -161.014 510.28 -125.923 503.588C-113.462 501.429 -101.43 497.503 -89.3007 494.238C-82.0186 492.591 -74.6488 491.795 -67.2586 491.295C-8.80957 488.05 69.3622 502.983 104.199 445.722C138.084 395.482 208.209 358.811 271.565 346.884C281.363 345.319 291.306 345.706 301.14 346.008C310.991 346.378 320.819 346.974 330.662 347.535C370.01 349.648 410.033 351.781 449.894 344.399C481.779 338.357 508.221 325.935 524.909 299.968C550.266 261.001 563.119 217.969 585.327 177.979C610.008 131.713 646.126 87.6398 705.885 74.1054C717.853 71.3335 730.575 68.5503 742.671 66.5041C767.187 62.1544 792.253 59.8728 816.303 63.2637C825.984 64.5363 835.621 66.3216 845.567 66.7178C860.563 67.3898 875.812 64.7702 890.574 61.1178C893.026 60.4784 895.477 59.8809 897.918 59.2028L905.208 57.1362C931.382 49.6884 948.967 32.397 956.835 9.68304C965.984 -15.6494 965.494 -41.8384 970.665 -67.4313C974.011 -84.0516 981.012 -102.918 1000.06 -111.629L999.916 -111.891C980.538 -103.286 973.175 -84.247 969.575 -67.5143C963.986 -41.9095 964.21 -15.8759 954.888 9.28531C945.331 34.9812 927.115 49.8208 897.323 56.9702C880.555 61.4404 863.128 64.9676 845.992 64.1393C831.229 63.4131 817.113 59.838 802.309 59.1021C772.498 57.3846 742.134 62.9206 712.62 69.4613C624.841 85.9833 587.038 160.697 558.509 225.974C544.924 254.988 530.063 297.536 503.619 319.592C459.62 353.427 383.292 348.033 330.961 345.888C321.112 345.392 311.263 344.854 301.367 344.548C291.478 344.313 281.485 343.972 271.404 345.635C213.72 356.946 153.66 386.902 116.136 428.55C112.199 432.907 108.463 437.719 105.056 442.377C103.329 444.911 100.907 448.472 99.097 450.976C88.5307 466.297 70.907 477.511 51.5388 482.578C12.2938 493.114 -27.6564 486.957 -67.2053 488.987C-77.229 489.561 -87.4999 490.808 -97.2131 493.84C-113.944 498.936 -131.092 502.886 -148.413 503.579C-165.667 504.337 -182.781 502.335 -199.371 499.635C-222.848 495.668 -246.986 489.862 -269.674 483.914C-287.986 479.211 -306.724 473.552 -325.065 468.878C-343.805 464.283 -363.515 461.96 -383.424 461.776C-423.243 461.359 -464.071 471.198 -499.966 489.061C-513.417 495.738 -526.291 503.422 -538.164 512.162C-542.115 515.084 -545.982 518.087 -549.612 521.316L-549.37 521.52L-549.335 521.51L-549.341 521.491Z" fill="#FAECC8"/>
<path d="M-554.513 510.852C-511.408 475.546 -453.096 453.989 -396.212 453.149C-381.442 452.872 -366.613 453.966 -352.386 456.291C-340.457 458.065 -328.695 460.98 -317.367 464.162C-290.013 471.994 -261.949 479.701 -233.945 486.029C-201.138 493.086 -166.187 499.642 -131.096 492.949C-118.635 490.791 -106.603 486.865 -94.4735 483.6C-87.1914 481.952 -79.8217 481.156 -72.4315 480.657C-13.9824 477.411 64.1893 492.344 99.0262 435.083C132.911 384.844 203.037 348.172 266.392 336.245C276.19 334.68 286.134 335.067 295.967 335.369C305.819 335.74 315.646 336.336 325.489 336.896C364.837 339.009 404.86 341.143 444.721 333.761C476.606 327.719 503.048 315.296 519.736 289.33C545.093 250.362 557.947 207.33 580.154 167.34C604.835 121.074 640.953 77.0012 700.712 63.4668C712.68 60.6948 725.402 57.9116 737.498 55.8654C762.014 51.5157 787.081 49.2341 811.13 52.625C820.811 53.8977 830.448 55.6829 840.394 56.0792C855.391 56.7511 870.639 54.1315 885.401 50.4791C887.853 49.8397 890.304 49.2422 892.745 48.5641L900.035 46.4975C926.209 39.0498 943.794 21.7583 951.662 -0.955627C960.811 -26.2881 960.321 -52.4771 965.492 -78.0699C968.838 -94.6903 975.84 -113.556 994.89 -122.268L994.743 -122.529C975.365 -113.925 968.002 -94.8857 964.402 -78.153C958.813 -52.5482 959.037 -26.5145 949.716 -1.35336C940.158 24.3425 921.942 39.1821 892.15 46.3315C875.382 50.8017 857.955 54.3289 840.819 53.5006C826.056 52.7744 811.94 49.1993 797.136 48.4634C767.325 46.7459 736.961 52.2819 707.447 58.8226C619.668 75.3446 581.865 150.058 553.336 215.335C539.751 244.35 524.89 286.897 498.446 308.954C454.447 342.788 378.119 337.394 325.788 335.249C315.939 334.753 306.09 334.215 296.194 333.909C286.305 333.674 276.312 333.333 266.231 334.997C208.547 346.308 148.487 376.263 110.964 417.912C107.026 422.269 103.29 427.081 99.8831 431.739C98.1558 434.272 95.7339 437.833 93.9241 440.337C83.3578 455.658 65.7341 466.872 46.3659 471.939C7.12097 482.476 -32.8292 476.318 -72.3781 478.348C-82.4018 478.922 -92.6727 480.17 -102.386 483.202C-119.117 488.297 -136.265 492.247 -153.586 492.941C-170.839 493.699 -187.954 491.697 -204.543 488.996C-228.021 485.03 -252.159 479.223 -274.847 473.275C-293.159 468.572 -311.897 462.913 -330.238 458.239C-348.978 453.645 -368.688 451.321 -388.596 451.138C-428.416 450.72 -469.244 460.56 -505.139 478.423C-518.59 485.099 -531.464 492.783 -543.337 501.524C-547.288 504.446 -551.155 507.449 -554.785 510.678L-554.543 510.881L-554.508 510.872L-554.513 510.852Z" fill="#FAECC8"/>
<path d="M-559.691 500.206C-516.585 464.899 -458.274 443.343 -401.389 442.502C-386.619 442.226 -371.791 443.32 -357.564 445.644C-345.635 447.418 -333.873 450.334 -322.545 453.516C-295.191 461.347 -267.126 469.055 -239.123 475.382C-206.315 482.439 -171.365 488.995 -136.274 482.302C-123.813 480.144 -111.78 476.218 -99.6512 472.953C-92.3691 471.306 -84.9994 470.51 -77.6092 470.01C-19.1602 466.765 59.0116 481.697 93.8484 424.437C127.733 374.197 197.859 337.526 261.214 325.598C271.013 324.034 280.956 324.42 290.789 324.723C300.641 325.093 310.469 325.689 320.312 326.25C359.659 328.362 399.682 330.496 439.543 323.114C471.429 317.072 497.87 304.65 514.559 278.683C539.915 239.716 552.769 196.683 574.976 156.693C599.657 110.428 635.776 66.3547 695.534 52.8203C707.503 50.0483 720.224 47.2651 732.32 45.2189C756.837 40.8693 781.903 38.5876 805.952 41.9785C815.633 43.2512 825.27 45.0364 835.216 45.4327C850.213 46.1046 865.461 43.485 880.224 39.8326C882.675 39.1932 885.127 38.5958 887.568 37.9177L894.857 35.851C921.031 28.4033 938.616 11.1118 946.484 -11.6021C955.634 -36.9345 955.144 -63.1236 960.314 -88.7165C963.66 -105.337 970.662 -124.203 989.712 -132.914L989.565 -133.176C970.187 -124.571 962.825 -105.532 959.224 -88.7995C953.635 -63.1947 953.859 -37.161 944.538 -11.9998C934.981 13.696 916.764 28.5356 886.972 35.6851C870.204 40.1552 852.777 43.6824 835.641 42.8542C820.878 42.1279 806.762 38.5529 791.959 37.8169C762.147 36.0994 731.784 41.6354 702.269 48.1761C614.49 64.6982 576.687 139.412 548.158 204.689C534.574 233.703 519.713 276.25 493.268 298.307C449.27 332.142 372.941 326.748 320.611 324.603C310.761 324.107 300.912 323.569 291.016 323.263C281.127 323.028 271.134 322.686 261.054 324.35C203.369 335.661 143.31 365.617 105.786 407.265C101.849 411.622 98.1124 416.434 94.7054 421.092C92.9781 423.626 90.5562 427.186 88.7464 429.691C78.1801 445.012 60.5564 456.225 41.1882 461.293C1.94324 471.829 -38.0069 465.672 -77.5558 467.702C-87.5795 468.276 -97.8505 469.523 -107.564 472.555C-124.294 477.651 -141.443 481.601 -158.764 482.294C-176.017 483.052 -193.132 481.05 -209.721 478.35C-233.199 474.383 -257.336 468.577 -280.025 462.629C-298.336 457.926 -317.075 452.267 -335.415 447.593C-354.156 442.998 -373.865 440.674 -393.774 440.491C-433.594 440.073 -474.421 449.913 -510.316 467.776C-523.768 474.453 -536.641 482.137 -548.515 490.877C-552.466 493.799 -556.333 496.802 -559.963 500.031L-559.72 500.235L-559.686 500.225L-559.691 500.206Z" fill="#FAECC8"/>
<path d="M-564.869 489.561C-521.763 454.255 -463.452 432.698 -406.567 431.858C-391.797 431.581 -376.969 432.675 -362.741 435C-350.812 436.774 -339.05 439.689 -327.723 442.871C-300.368 450.703 -272.304 458.41 -244.301 464.738C-211.493 471.795 -176.542 478.351 -141.452 471.658C-128.99 469.5 -116.958 465.574 -104.829 462.309C-97.5469 460.661 -90.1771 459.865 -82.7869 459.366C-24.3379 456.12 53.8339 471.053 88.6707 413.792C122.555 363.553 192.681 326.881 256.037 314.954C265.835 313.389 275.778 313.776 285.611 314.078C295.463 314.449 305.291 315.045 315.131 315.595C354.479 317.708 394.502 319.842 434.363 312.46C466.248 306.418 492.69 293.996 509.378 268.029C534.735 229.061 547.588 186.029 569.796 146.039C594.477 99.7737 630.595 55.7004 690.354 42.166C702.322 39.3941 715.044 36.6109 727.14 34.5647C751.656 30.2151 776.722 27.9334 800.772 31.3243C810.453 32.597 820.09 34.3822 830.036 34.7784C845.032 35.4504 860.281 32.8308 875.043 29.1784C877.495 28.539 879.946 27.9415 882.387 27.2634L889.677 25.1968C915.851 17.7491 933.436 0.457611 941.304 -22.2563C950.453 -47.5887 949.963 -73.7778 955.134 -99.3707C958.48 -115.991 965.481 -134.857 984.532 -143.569L984.385 -143.83C965.007 -135.226 957.644 -116.186 954.044 -99.4537C948.455 -73.8489 948.679 -47.8152 939.357 -22.6541C929.8 3.04181 911.584 17.8814 881.792 25.0309C865.024 29.501 847.597 33.0282 830.461 32.1999C815.698 31.4737 801.582 27.8987 786.778 27.1627C756.967 25.4452 726.603 30.9812 697.089 37.5219C609.31 54.0439 571.507 128.757 542.978 194.035C529.393 223.049 514.529 265.587 488.088 287.653C444.086 321.478 367.761 316.093 315.43 313.948C305.581 313.452 295.732 312.914 285.836 312.609C275.947 312.374 265.954 312.032 255.873 313.696C198.189 325.007 138.129 354.962 100.605 396.611C96.6683 400.968 92.932 405.78 89.525 410.438C87.7977 412.972 85.3758 416.532 83.566 419.037C72.9997 434.358 55.376 445.571 36.0078 450.638C-3.23718 461.175 -43.1874 455.018 -82.7363 457.048C-92.76 457.622 -103.031 458.869 -112.744 461.901C-129.475 466.997 -146.623 470.947 -163.944 471.64C-181.198 472.398 -198.312 470.396 -214.902 467.696C-238.379 463.729 -262.517 457.923 -285.205 451.975C-303.517 447.271 -322.255 441.613 -340.596 436.938C-359.336 432.344 -379.046 430.02 -398.955 429.837C-438.774 429.419 -479.602 439.259 -515.497 457.122C-528.948 463.799 -541.822 471.482 -553.695 480.223C-557.646 483.145 -561.513 486.148 -565.143 489.377L-564.901 489.581L-564.866 489.571L-564.869 489.561Z" fill="#FAECC8"/>
<path d="M-570.045 478.913C-526.939 443.606 -468.627 422.05 -411.743 421.209C-396.973 420.933 -382.144 422.027 -367.917 424.351C-355.988 426.125 -344.226 429.041 -332.899 432.223C-305.544 440.054 -277.48 447.762 -249.477 454.089C-216.669 461.146 -181.718 467.702 -146.627 461.01C-134.166 458.851 -122.134 454.925 -110.005 451.66C-102.723 450.013 -95.3529 449.217 -87.9627 448.717C-29.5137 445.472 48.6581 460.404 83.4949 403.144C117.38 352.904 187.505 316.233 250.861 304.305C260.659 302.741 270.602 303.128 280.435 303.43C290.287 303.8 300.115 304.396 309.955 304.947C349.303 307.06 389.326 309.193 429.187 301.812C461.072 295.77 487.514 283.347 504.202 257.38C529.559 218.413 542.413 175.381 564.62 135.391C589.301 89.1252 625.42 45.052 685.178 31.5176C697.146 28.7457 709.868 25.9625 721.964 23.9163C746.48 19.5666 771.547 17.285 795.596 20.6759C805.277 21.9485 814.914 23.7338 824.86 24.13C839.857 24.802 855.105 22.1824 869.867 18.53C872.319 17.8906 874.77 17.2931 877.212 16.615L884.501 14.5484C910.675 7.10065 928.26 -10.1908 936.128 -32.9048C945.277 -58.2372 944.787 -84.4263 949.958 -110.019C953.304 -126.639 960.306 -145.505 979.356 -154.217L979.209 -154.478C959.831 -145.874 952.468 -126.835 948.868 -110.102C943.279 -84.4973 943.503 -58.4637 934.182 -33.3025C924.624 -7.60663 906.408 7.23294 876.616 14.3824C859.848 18.8526 842.421 22.3798 825.285 21.5515C810.522 20.8253 796.406 17.2502 781.602 16.5143C751.791 14.7968 721.427 20.3328 691.913 26.8735C604.134 43.3955 566.331 118.109 537.802 183.386C524.218 212.401 509.354 254.938 482.912 277.004C438.911 310.829 362.585 305.445 310.254 303.3C300.405 302.804 290.556 302.266 280.66 301.96C270.771 301.725 260.778 301.384 250.697 303.048C193.013 314.359 132.953 344.314 95.4297 385.962C91.4925 390.319 87.7562 395.131 84.3492 399.789C82.6219 402.323 80.2 405.884 78.3902 408.388C67.8239 423.709 50.2002 434.923 30.832 439.99C-8.41296 450.527 -48.3632 444.369 -87.912 446.399C-97.9358 446.973 -108.207 448.221 -117.92 451.252C-134.651 456.348 -151.799 460.298 -169.12 460.992C-186.373 461.749 -203.488 459.748 -220.077 457.047C-243.555 453.08 -267.693 447.274 -290.381 441.326C-308.693 436.623 -327.431 430.964 -345.772 426.29C-364.512 421.695 -384.222 419.372 -404.13 419.189C-443.95 418.771 -484.778 428.611 -520.673 446.474C-534.124 453.15 -546.998 460.834 -558.871 469.574C-562.822 472.497 -566.689 475.499 -570.319 478.729L-570.076 478.932L-570.042 478.923L-570.045 478.913Z" fill="#FAECC8"/>
<path d="M-575.219 468.266C-532.114 432.96 -473.802 411.403 -416.918 410.563C-402.148 410.286 -387.319 411.38 -373.092 413.705C-361.163 415.479 -349.401 418.394 -338.073 421.576C-310.719 429.408 -282.655 437.115 -254.651 443.443C-221.844 450.5 -186.893 457.056 -151.802 450.363C-139.341 448.205 -127.309 444.279 -115.18 441.014C-107.897 439.366 -100.528 438.57 -93.1375 438.071C-34.6885 434.826 43.4833 449.758 78.3201 392.498C112.205 342.258 182.331 305.586 245.686 293.659C255.484 292.094 265.427 292.481 275.261 292.784C285.113 293.154 294.94 293.75 304.783 294.31C344.131 296.423 384.154 298.557 424.015 291.175C455.9 285.133 482.342 272.711 499.03 246.744C524.387 207.776 537.24 164.744 559.448 124.754C584.129 78.4884 620.247 34.4152 680.006 20.8808C691.974 18.1089 704.696 15.3257 716.792 13.2794C741.308 8.92981 766.375 6.64816 790.424 10.0391C800.105 11.3117 809.742 13.097 819.688 13.4932C834.684 14.1651 849.933 11.5456 864.695 7.89316C867.147 7.25378 869.598 6.65628 872.039 5.97818L879.329 3.91159C905.503 -3.53616 923.088 -20.8276 930.956 -43.5416C940.105 -68.874 939.615 -95.063 944.786 -120.656C948.132 -137.276 955.134 -156.142 974.184 -164.854L974.037 -165.115C954.659 -156.511 947.296 -137.472 943.696 -120.739C938.107 -95.1341 938.331 -69.1005 929.01 -43.9393C919.452 -18.2434 901.236 -3.40387 871.444 3.74561C854.676 8.21576 837.249 11.743 820.113 10.9147C805.35 10.1885 791.234 6.6134 776.43 5.87744C746.619 4.15997 716.255 9.69598 686.741 16.2367C598.962 32.7587 561.159 107.472 532.63 172.749C519.045 201.764 504.182 244.301 477.74 266.368C433.739 300.192 357.413 294.808 305.082 292.663C295.233 292.167 285.384 291.629 275.488 291.323C265.599 291.089 255.606 290.747 245.525 292.411C187.841 303.722 127.781 333.677 90.2576 375.326C86.3204 379.683 82.5841 384.495 79.1771 389.153C77.4498 391.686 75.0279 395.247 73.2181 397.751C62.6518 413.072 45.0281 424.286 25.6599 429.353C-13.5851 439.89 -53.5352 433.732 -93.0841 435.762C-103.108 436.336 -113.379 437.584 -123.092 440.616C-139.823 445.711 -156.971 449.661 -174.292 450.355C-191.546 451.113 -208.66 449.111 -225.25 446.41C-248.727 442.444 -272.865 436.637 -295.553 430.689C-313.865 425.986 -332.603 420.328 -350.944 415.653C-369.684 411.059 -389.394 408.735 -409.302 408.552C-449.122 408.134 -489.95 417.974 -525.845 435.837C-539.296 442.513 -552.17 450.197 -564.043 458.938C-567.994 461.86 -571.861 464.863 -575.491 468.092L-575.249 468.295L-575.214 468.286L-575.219 468.266Z" fill="#FAECC8"/>
<path d="M-580.391 457.63C-537.286 422.323 -478.974 400.766 -422.09 399.926C-407.319 399.65 -392.491 400.744 -378.264 403.068C-366.335 404.842 -354.573 407.757 -343.245 410.939C-315.891 418.771 -287.827 426.479 -259.823 432.806C-227.016 439.863 -192.065 446.419 -156.974 439.726C-144.513 437.568 -132.481 433.642 -120.351 430.377C-113.069 428.73 -105.7 427.933 -98.3094 427.434C-39.8604 424.189 38.3114 439.121 73.1483 381.861C107.033 331.621 177.159 294.949 240.514 283.022C250.312 281.458 260.256 281.844 270.089 282.147C279.941 282.517 289.769 283.113 299.611 283.673C338.959 285.786 378.982 287.92 418.843 280.538C450.728 274.496 477.17 262.074 493.858 236.107C519.215 197.14 532.069 154.107 554.276 114.117C578.957 67.8517 615.076 23.7785 674.834 10.2441C686.802 7.47214 699.524 4.68893 711.62 2.64273C736.136 -1.70691 761.203 -3.98856 785.252 -0.597656C794.933 0.675018 804.57 2.46024 814.516 2.85648C829.513 3.52841 844.761 0.908875 859.523 -2.74356C861.975 -3.38293 864.426 -3.98044 866.868 -4.65854L874.157 -6.72513C900.331 -14.1729 917.916 -31.4644 925.784 -54.1783C934.933 -79.5107 934.443 -105.7 939.614 -131.293C942.96 -147.913 949.962 -166.779 969.012 -175.49L968.865 -175.752C949.487 -167.148 942.124 -148.108 938.524 -131.376C932.935 -105.771 933.159 -79.7372 923.838 -54.576C914.28 -28.8801 896.064 -14.0406 866.272 -6.89111C849.504 -2.42096 832.077 1.10623 814.941 0.277985C800.178 -0.448242 786.062 -4.02332 771.258 -4.75928C741.447 -6.47675 711.083 -0.940735 681.569 5.59998C593.79 22.122 555.987 96.8354 527.458 162.113C513.874 191.127 499.012 233.674 472.568 255.731C428.569 289.565 352.241 284.171 299.91 282.026C290.061 281.53 280.212 280.993 270.316 280.687C260.427 280.452 250.434 280.11 240.353 281.774C182.669 293.085 122.609 323.04 85.0857 364.689C81.1485 369.046 77.4122 373.858 74.0052 378.516C72.2779 381.05 69.856 384.61 68.0462 387.115C57.4799 402.436 39.8562 413.649 20.488 418.717C-18.757 429.253 -58.7071 423.096 -98.256 425.126C-108.28 425.7 -118.551 426.947 -128.264 429.979C-144.995 435.075 -162.143 439.025 -179.464 439.718C-196.717 440.476 -213.832 438.474 -230.421 435.774C-253.899 431.807 -278.037 426.001 -300.725 420.053C-319.037 415.349 -337.775 409.691 -356.116 405.016C-374.856 400.422 -394.566 398.098 -414.474 397.915C-454.294 397.497 -495.122 407.337 -531.016 425.2C-544.468 431.877 -557.342 439.561 -569.215 448.301C-573.166 451.223 -577.033 454.226 -580.663 457.455L-580.42 457.659L-580.386 457.649L-580.391 457.63Z" fill="#FAECC8"/>
<path d="M-585.57 446.983C-542.464 411.677 -484.153 390.12 -427.268 389.28C-412.498 389.003 -397.67 390.097 -383.442 392.421C-371.514 394.196 -359.752 397.111 -348.424 400.293C-321.07 408.125 -293.005 415.832 -265.002 422.16C-232.194 429.217 -197.244 435.773 -162.153 429.08C-149.692 426.922 -137.659 422.995 -125.53 419.731C-118.248 418.083 -110.878 417.287 -103.488 416.788C-45.0391 413.542 33.1327 428.475 67.9695 371.214C101.854 320.974 171.98 284.303 235.335 272.376C245.134 270.811 255.077 271.198 264.91 271.5C274.762 271.871 284.59 272.466 294.433 273.027C333.78 275.14 373.803 277.273 413.664 269.892C445.55 263.85 471.991 251.427 488.68 225.46C514.036 186.493 526.89 143.461 549.097 103.471C573.778 57.2052 609.897 13.132 669.655 -0.402374C681.624 -3.17435 694.346 -5.95755 706.441 -8.00375C730.958 -12.3534 756.024 -14.635 780.073 -11.2441C789.754 -9.97147 799.391 -8.18625 809.338 -7.79001C824.334 -7.11807 839.582 -9.73761 854.345 -13.39C856.797 -14.0294 859.248 -14.6269 861.689 -15.305L868.979 -17.3716C895.152 -24.8194 912.737 -42.1108 920.605 -64.8248C929.755 -90.1572 929.265 -116.346 934.435 -141.939C937.781 -158.56 944.783 -177.425 963.833 -186.137L963.686 -186.399C944.308 -177.794 936.946 -158.755 933.345 -142.022C927.757 -116.417 927.98 -90.3837 918.659 -65.2225C909.102 -39.5266 890.885 -24.6871 861.094 -17.5376C844.325 -13.0674 826.898 -9.54028 809.762 -10.3685C794.999 -11.0948 780.883 -14.6698 766.08 -15.4058C736.268 -17.1232 705.905 -11.5872 676.391 -5.04651C588.611 11.4755 550.808 86.189 522.279 151.466C508.695 180.481 493.822 223.031 467.389 245.084C423.391 278.919 347.062 273.525 294.732 271.38C284.882 270.884 275.033 270.346 265.137 270.04C255.248 269.805 245.255 269.464 235.175 271.128C177.49 282.439 117.431 312.394 79.907 354.042C75.9698 358.399 72.2335 363.211 68.8265 367.869C67.0992 370.403 64.6773 373.964 62.8675 376.468C52.3012 391.789 34.6775 403.003 15.3093 408.07C-23.9357 418.607 -63.8859 412.449 -103.435 414.479C-113.458 415.053 -123.729 416.301 -133.443 419.332C-150.173 424.428 -167.322 428.378 -184.643 429.072C-201.896 429.829 -219.011 427.828 -235.6 425.127C-259.078 421.16 -283.215 415.354 -305.904 409.406C-324.215 404.703 -342.954 399.044 -361.294 394.37C-380.035 389.775 -399.744 387.452 -419.653 387.269C-459.473 386.851 -500.3 396.69 -536.195 414.554C-549.646 421.23 -562.52 428.914 -574.394 437.654C-578.345 440.577 -582.212 443.579 -585.842 446.809L-585.599 447.012L-585.565 447.003L-585.57 446.983Z" fill="#FAECC8"/>
<path d="M-590.747 436.337C-547.641 401.03 -489.33 379.473 -432.445 378.633C-417.675 378.357 -402.847 379.451 -388.619 381.775C-376.69 383.549 -364.928 386.464 -353.601 389.646C-326.246 397.478 -298.182 405.186 -270.179 411.513C-237.371 418.57 -202.42 425.126 -167.33 418.433C-154.868 416.275 -142.836 412.349 -130.707 409.084C-123.425 407.437 -116.055 406.641 -108.665 406.141C-50.2158 402.896 27.9559 417.828 62.7928 360.568C96.6774 310.328 166.803 273.656 230.159 261.729C239.957 260.165 249.9 260.551 259.733 260.854C269.585 261.224 279.413 261.82 289.253 262.371C328.601 264.484 368.624 266.617 408.485 259.235C440.37 253.193 466.812 240.771 483.5 214.804C508.857 175.837 521.71 132.805 543.918 92.8146C568.599 46.5491 604.717 2.47583 664.476 -11.0586C676.444 -13.8305 689.166 -16.6137 701.262 -18.6599C725.778 -23.0096 750.844 -25.2912 774.894 -21.9003C784.575 -20.6277 794.212 -18.8424 804.158 -18.4462C819.154 -17.7742 834.403 -20.3938 849.165 -24.0462C851.617 -24.6856 854.068 -25.2831 856.509 -25.9612L863.799 -28.0278C889.973 -35.4756 907.558 -52.767 915.426 -75.4809C924.575 -100.813 924.085 -127.002 929.256 -152.595C932.602 -169.216 939.603 -188.082 958.654 -196.793L958.507 -197.055C939.129 -188.45 931.766 -169.411 928.166 -152.678C922.577 -127.074 922.801 -101.04 913.479 -75.8787C903.922 -50.1828 885.706 -35.3432 855.914 -28.1938C839.146 -23.7236 821.719 -20.1965 804.583 -21.0247C789.82 -21.7509 775.704 -25.326 760.9 -26.0619C731.089 -27.7794 700.725 -22.2434 671.211 -15.7027C583.432 0.819305 545.629 75.5328 517.1 140.81C503.515 169.824 488.651 212.362 462.21 234.428C418.208 268.253 341.883 262.869 289.552 260.724C279.703 260.228 269.854 259.69 259.958 259.384C250.069 259.149 240.076 258.808 229.995 260.471C172.311 271.782 112.251 301.738 74.7275 343.386C70.7903 347.743 67.0541 352.555 63.647 357.213C61.9197 359.747 59.4979 363.308 57.688 365.812C47.1218 381.133 29.498 392.347 10.1298 397.414C-29.1151 407.95 -69.0653 401.793 -108.614 403.823C-118.638 404.397 -128.909 405.644 -138.622 408.676C-155.353 413.772 -172.501 417.722 -189.822 418.415C-207.076 419.173 -224.19 417.171 -240.78 414.471C-264.257 410.504 -288.395 404.698 -311.083 398.75C-329.395 394.047 -348.133 388.388 -366.474 383.714C-385.214 379.119 -404.924 376.796 -424.833 376.612C-464.652 376.195 -505.48 386.034 -541.375 403.898C-554.826 410.574 -567.7 418.258 -579.573 426.998C-583.524 429.92 -587.391 432.923 -591.021 436.152L-590.779 436.356L-590.744 436.346L-590.747 436.337Z" fill="#FAECC8"/>
<path d="M-595.923 425.69C-552.817 390.384 -494.505 368.827 -437.621 367.987C-422.851 367.71 -408.022 368.804 -393.795 371.128C-381.866 372.903 -370.104 375.818 -358.777 379C-331.422 386.832 -303.358 394.539 -275.355 400.867C-242.547 407.924 -207.596 414.48 -172.505 407.787C-160.044 405.629 -148.012 401.703 -135.883 398.438C-128.601 396.79 -121.231 395.994 -113.841 395.495C-55.3916 392.249 22.7802 407.182 57.617 349.921C91.5016 299.681 161.627 263.01 224.983 251.083C234.781 249.518 244.724 249.905 254.557 250.207C264.409 250.578 274.237 251.173 284.077 251.724C323.425 253.837 363.448 255.971 403.309 248.589C435.194 242.547 461.636 230.125 478.324 204.158C503.681 165.19 516.535 122.158 538.742 82.1681C563.423 35.9026 599.542 -8.17062 659.3 -21.705C671.269 -24.477 683.99 -27.2602 696.086 -29.3064C720.602 -33.656 745.669 -35.9377 769.718 -32.5468C779.399 -31.2741 789.036 -29.4889 798.982 -29.0927C813.979 -28.4207 829.227 -31.0403 843.989 -34.6927C846.441 -35.3321 848.892 -35.9295 851.334 -36.6076L858.623 -38.6743C884.797 -46.122 902.382 -63.4135 910.25 -86.1274C919.4 -111.46 918.91 -137.649 924.08 -163.242C927.426 -179.862 934.428 -198.728 953.478 -207.44L953.331 -207.701C933.953 -199.097 926.59 -180.057 922.99 -163.325C917.401 -137.72 917.625 -111.686 908.304 -86.5251C898.746 -60.8293 880.53 -45.9897 850.738 -38.8402C833.97 -34.3701 816.543 -30.8429 799.407 -31.6711C784.644 -32.3974 770.528 -35.9724 755.724 -36.7084C725.913 -38.4259 695.55 -32.8899 666.035 -26.3492C578.256 -9.82718 540.453 64.8863 511.924 130.164C498.34 159.178 483.476 201.716 457.034 223.782C413.033 257.607 336.707 252.222 284.377 250.077C274.527 249.581 264.678 249.043 254.782 248.738C244.893 248.503 234.9 248.161 224.819 249.825C167.135 261.136 107.076 291.091 69.5518 332.74C65.6146 337.097 61.8783 341.909 58.4713 346.567C56.744 349.1 54.3221 352.661 52.5123 355.166C41.946 370.487 24.3223 381.7 4.95404 386.767C-34.2909 397.304 -74.2411 391.146 -113.79 393.176C-123.814 393.751 -134.085 394.998 -143.798 398.03C-160.529 403.125 -177.677 407.076 -194.998 407.769C-212.251 408.527 -229.366 406.525 -245.955 403.825C-269.433 399.858 -293.571 394.052 -316.259 388.104C-334.571 383.4 -353.309 377.742 -371.65 373.067C-390.39 368.473 -410.099 366.149 -430.008 365.966C-469.828 365.548 -510.655 375.388 -546.55 393.251C-560.002 399.928 -572.875 407.611 -584.749 416.352C-588.7 419.274 -592.567 422.277 -596.197 425.506L-595.954 425.71L-595.92 425.7L-595.923 425.69Z" fill="#FAECC8"/>
<path d="M-601.097 415.044C-557.992 379.737 -499.68 358.18 -442.796 357.34C-428.026 357.064 -413.197 358.158 -398.97 360.482C-387.041 362.256 -375.279 365.171 -363.951 368.353C-336.597 376.185 -308.533 383.893 -280.529 390.22C-247.722 397.277 -212.771 403.833 -177.68 397.14C-165.219 394.982 -153.187 391.056 -141.057 387.791C-133.775 386.144 -126.406 385.348 -119.015 384.848C-60.5664 381.603 17.6053 396.535 52.4422 339.275C86.3268 289.035 156.453 252.363 219.808 240.436C229.606 238.872 239.55 239.258 249.383 239.561C259.235 239.931 269.062 240.527 278.903 241.078C318.25 243.191 358.273 245.324 398.134 237.943C430.02 231.9 456.461 219.478 473.15 193.511C498.506 154.544 511.36 111.512 533.567 71.5216C558.248 25.2561 594.367 -18.8171 654.125 -32.3515C666.094 -35.1235 678.816 -37.9067 690.911 -39.9529C715.428 -44.3026 740.494 -46.5842 764.543 -43.1933C774.224 -41.9206 783.861 -40.1354 793.807 -39.7392C808.804 -39.0672 824.052 -41.6868 838.815 -45.3392C841.266 -45.9786 843.718 -46.576 846.159 -47.2542L853.448 -49.3208C879.622 -56.7685 897.207 -74.06 905.075 -96.7739C914.225 -122.106 913.735 -148.295 918.905 -173.888C922.251 -190.509 929.253 -209.375 948.303 -218.086L948.156 -218.348C928.778 -209.743 921.416 -190.704 917.815 -173.971C912.227 -148.367 912.45 -122.333 903.129 -97.1716C893.572 -71.4758 875.355 -56.6362 845.563 -49.4868C828.795 -45.0166 811.368 -41.4894 794.232 -42.3177C779.469 -43.0439 765.353 -46.6189 750.55 -47.3549C720.738 -49.0724 690.375 -43.5364 660.86 -36.9957C573.081 -20.4737 535.278 54.2398 506.749 119.517C493.165 148.531 478.301 191.069 451.859 213.135C407.858 246.96 331.532 241.576 279.202 239.431C269.352 238.935 259.503 238.397 249.607 238.091C239.718 237.856 229.725 237.515 219.645 239.178C161.96 250.49 101.901 280.445 64.377 322.093C60.4398 326.45 56.7035 331.262 53.2964 335.92C51.5692 338.454 49.1473 342.015 47.3375 344.519C36.7712 359.84 19.1475 371.054 -0.220764 376.121C-39.4657 386.657 -79.4159 380.5 -118.965 382.53C-128.989 383.104 -139.259 384.352 -148.973 387.383C-165.703 392.479 -182.852 396.429 -200.173 397.122C-217.426 397.88 -234.541 395.878 -251.13 393.178C-274.608 389.211 -298.745 383.405 -321.434 377.457C-339.745 372.754 -358.484 367.095 -376.824 362.421C-395.565 357.826 -415.274 355.503 -435.183 355.32C-475.003 354.902 -515.83 364.741 -551.725 382.604C-565.176 389.281 -578.05 396.965 -589.924 405.705C-593.875 408.627 -597.742 411.63 -601.372 414.859L-601.129 415.063L-601.095 415.053L-601.097 415.044Z" fill="#FAECC8"/>
<path d="M-606.267 404.405C-563.162 369.098 -504.85 347.542 -447.966 346.702C-433.195 346.425 -418.367 347.519 -404.14 349.843C-392.211 351.617 -380.449 354.533 -369.121 357.715C-341.767 365.546 -313.703 373.254 -285.699 379.581C-252.892 386.639 -217.941 393.194 -182.85 386.502C-170.389 384.343 -158.357 380.417 -146.227 377.152C-138.945 375.505 -131.576 374.709 -124.185 374.209C-65.7363 370.964 12.4354 385.897 47.2723 328.636C81.1569 278.396 151.283 241.725 214.638 229.798C224.436 228.233 234.38 228.62 244.213 228.922C254.065 229.292 263.893 229.888 273.735 230.449C313.083 232.562 353.106 234.695 392.967 227.314C424.852 221.271 451.294 208.849 467.982 182.882C493.339 143.915 506.193 100.883 528.4 60.8926C553.081 14.6271 589.2 -29.4461 648.958 -42.9805C660.927 -45.7525 673.648 -48.5357 685.744 -50.5819C710.26 -54.9315 735.327 -57.2132 759.376 -53.8223C769.057 -52.5496 778.694 -50.7643 788.64 -50.3681C803.637 -49.6962 818.885 -52.3157 833.647 -55.9682C836.099 -56.6075 838.55 -57.205 840.992 -57.8831L848.281 -59.9497C874.455 -67.3975 892.04 -84.689 899.908 -107.403C909.057 -132.735 908.568 -158.924 913.738 -184.517C917.084 -201.138 924.086 -220.004 943.136 -228.715L942.989 -228.977C923.611 -220.372 916.248 -201.333 912.648 -184.6C907.059 -158.995 907.283 -132.962 897.962 -107.801C888.404 -82.1047 870.188 -67.2652 840.396 -60.1157C823.628 -55.6455 806.201 -52.1184 789.065 -52.9466C774.302 -53.6729 760.186 -57.2479 745.382 -57.9839C715.571 -59.7013 685.208 -54.1653 655.693 -47.6246C567.914 -31.1026 530.111 43.6109 501.582 108.888C487.998 137.902 473.134 180.44 446.692 202.506C402.693 236.341 326.365 230.947 274.034 228.802C264.185 228.306 254.336 227.768 244.44 227.462C234.551 227.227 224.558 226.886 214.477 228.549C156.793 239.86 96.7335 269.816 59.2097 311.464C55.2725 315.821 51.5363 320.633 48.1292 325.291C46.4019 327.825 43.98 331.386 42.1702 333.89C31.6039 349.211 13.9802 360.425 -5.388 365.492C-44.6329 376.028 -84.5831 369.871 -124.132 371.901C-134.156 372.475 -144.427 373.723 -154.14 376.754C-170.871 381.85 -188.019 385.8 -205.34 386.493C-222.593 387.251 -239.708 385.249 -256.297 382.549C-279.775 378.582 -303.913 372.776 -326.601 366.828C-344.913 362.125 -363.651 356.466 -381.992 351.792C-400.732 347.197 -420.442 344.874 -440.35 344.691C-480.17 344.273 -520.997 354.112 -556.892 371.976C-570.344 378.652 -583.218 386.336 -595.091 395.076C-599.042 397.998 -602.909 401.001 -606.539 404.23L-606.296 404.434L-606.262 404.424L-606.267 404.405Z" fill="#FAECC8"/>
<path d="M-611.446 393.759C-568.34 358.452 -510.029 336.895 -453.144 336.055C-438.374 335.779 -423.546 336.872 -409.318 339.197C-397.39 340.971 -385.628 343.886 -374.3 347.068C-346.945 354.9 -318.881 362.608 -290.878 368.935C-258.07 375.992 -223.12 382.548 -188.029 375.855C-175.568 373.697 -163.535 369.771 -151.406 366.506C-144.124 364.858 -136.754 364.062 -129.364 363.563C-70.915 360.318 7.25671 375.25 42.0936 317.99C75.9781 267.75 146.104 231.078 209.459 219.151C219.258 217.587 229.201 217.973 239.034 218.276C248.886 218.646 258.714 219.242 268.557 219.802C307.904 221.915 347.927 224.049 387.788 216.667C419.674 210.625 446.115 198.203 462.804 172.236C488.16 133.268 501.014 90.2362 523.221 50.2462C547.902 3.98062 584.021 -40.0926 643.779 -53.627C655.748 -56.399 668.47 -59.1822 680.565 -61.2284C705.082 -65.578 730.148 -67.8596 754.198 -64.4688C763.878 -63.1961 773.516 -61.4109 783.462 -61.0146C798.458 -60.3427 813.706 -62.9622 828.469 -66.6147C830.921 -67.2541 833.372 -67.8515 835.813 -68.5296L843.103 -70.5962C869.276 -78.044 886.861 -95.3354 894.729 -118.049C903.879 -143.382 903.389 -169.571 908.559 -195.164C911.905 -211.784 918.907 -230.65 937.957 -239.362L937.81 -239.623C918.432 -231.019 911.07 -211.979 907.469 -195.247C901.881 -169.642 902.104 -143.608 892.783 -118.447C883.226 -92.7512 865.009 -77.9117 835.218 -70.7622C818.449 -66.2921 801.022 -62.7649 783.886 -63.5931C769.123 -64.3193 755.007 -67.8944 740.204 -68.6303C710.392 -70.3478 680.029 -64.8118 650.515 -58.2711C562.735 -41.7491 524.932 32.9644 496.403 98.2416C482.819 127.256 467.958 169.803 441.513 191.86C397.515 225.694 321.186 220.3 268.856 218.155C259.006 217.659 249.157 217.121 239.261 216.816C229.372 216.581 219.379 216.239 209.299 217.903C151.614 229.214 91.5548 259.169 54.031 300.818C50.0938 305.175 46.3575 309.987 42.9505 314.645C41.2232 317.178 38.8013 320.739 36.9915 323.244C26.4252 338.565 8.80151 349.778 -10.5667 354.845C-49.8116 365.382 -89.7618 359.224 -129.311 361.254C-139.334 361.829 -149.605 363.076 -159.319 366.108C-176.049 371.204 -193.197 375.154 -210.519 375.847C-227.772 376.605 -244.887 374.603 -261.476 371.903C-284.954 367.936 -309.091 362.13 -331.78 356.182C-350.091 351.478 -368.83 345.82 -387.17 341.145C-405.911 336.551 -425.62 334.227 -445.529 334.044C-485.349 333.626 -526.176 343.466 -562.071 361.329C-575.522 368.006 -588.396 375.689 -600.269 384.43C-604.221 387.352 -608.088 390.355 -611.718 393.584L-611.475 393.788L-611.441 393.778L-611.446 393.759Z" fill="#FAECC8"/>
<path d="M-616.623 383.112C-573.517 347.805 -515.206 326.249 -458.321 325.409C-443.551 325.132 -428.723 326.226 -414.495 328.55C-402.566 330.325 -390.804 333.24 -379.477 336.422C-352.122 344.253 -324.058 351.961 -296.055 358.289C-263.247 365.346 -228.296 371.901 -193.206 365.209C-180.744 363.05 -168.712 359.124 -156.583 355.859C-149.301 354.212 -141.931 353.416 -134.541 352.917C-76.0918 349.671 2.07996 364.604 36.9168 307.343C70.8014 257.103 140.927 220.432 204.283 208.505C214.081 206.94 224.024 207.327 233.857 207.629C243.709 207.999 253.537 208.595 263.38 209.156C302.728 211.269 342.751 213.402 382.612 206.021C414.497 199.979 440.938 187.556 457.627 161.589C482.984 122.622 495.837 79.5897 518.044 39.5997C542.726 -6.66586 578.844 -50.7391 638.603 -64.2735C650.571 -67.0454 663.293 -69.8286 675.388 -71.8748C699.905 -76.2245 724.971 -78.5061 749.021 -75.1152C758.702 -73.8426 768.339 -72.0573 778.285 -71.6611C793.281 -70.9891 808.529 -73.6087 823.292 -77.2611C825.744 -77.9005 828.195 -78.498 830.636 -79.1761L837.926 -81.2427C864.1 -88.6905 881.685 -105.982 889.552 -128.696C898.702 -154.028 898.212 -180.217 903.382 -205.81C906.729 -222.431 913.73 -241.297 932.781 -250.008L932.634 -250.27C913.256 -241.665 905.893 -222.626 902.293 -205.893C896.704 -180.288 896.927 -154.255 887.606 -129.094C878.049 -103.398 859.832 -88.5582 830.041 -81.4087C813.273 -76.9385 795.846 -73.4113 778.71 -74.2396C763.946 -74.9658 749.83 -78.5409 735.027 -79.2769C705.216 -80.9943 674.852 -75.4583 645.338 -68.9176C557.559 -52.3956 519.756 22.3179 491.227 87.5951C477.642 116.609 462.769 159.16 436.336 181.213C392.338 215.048 316.01 209.654 263.679 207.509C253.829 207.013 243.98 206.475 234.084 206.169C224.196 205.934 214.203 205.593 204.122 207.256C146.437 218.568 86.3781 248.523 48.8542 290.171C44.9171 294.528 41.1808 299.34 37.7737 303.998C36.0464 306.532 33.6246 310.093 31.8148 312.597C21.2485 327.918 3.62476 339.132 -15.7435 344.199C-54.9884 354.735 -94.9386 348.578 -134.487 350.608C-144.511 351.182 -154.782 352.43 -164.495 355.461C-181.226 360.557 -198.374 364.507 -215.695 365.2C-232.949 365.958 -250.064 363.956 -266.653 361.256C-290.131 357.289 -314.268 351.483 -336.957 345.535C-355.268 340.832 -374.006 335.173 -392.347 330.499C-411.087 325.904 -430.797 323.581 -450.706 323.398C-490.525 322.98 -531.353 332.819 -567.248 350.683C-580.699 357.359 -593.573 365.043 -605.446 373.783C-609.397 376.705 -613.264 379.708 -616.895 382.937L-616.652 383.141L-616.617 383.132L-616.623 383.112Z" fill="#FAECC8"/>
<path d="M-621.801 372.468C-578.696 337.161 -520.384 315.604 -463.5 314.764C-448.73 314.488 -433.901 315.581 -419.674 317.906C-407.745 319.68 -395.983 322.595 -384.655 325.777C-357.301 333.609 -329.237 341.317 -301.233 347.644C-268.426 354.701 -233.475 361.257 -198.384 354.564C-185.923 352.406 -173.891 348.48 -161.762 345.215C-154.479 343.567 -147.11 342.771 -139.72 342.272C-81.2705 339.027 -3.09875 353.959 31.7381 296.699C65.6227 246.459 135.748 209.787 199.104 197.86C208.902 196.296 218.845 196.682 228.679 196.985C238.531 197.355 248.358 197.951 258.198 198.502C297.546 200.614 337.569 202.748 377.43 195.366C409.316 189.324 435.757 176.902 452.446 150.935C477.802 111.968 490.656 68.9355 512.863 28.9455C537.544 -17.3201 573.663 -61.3933 633.421 -74.9277C645.39 -77.6996 658.111 -80.4828 670.207 -82.5291C694.724 -86.8787 719.79 -89.1603 743.839 -85.7694C753.52 -84.4968 763.157 -82.7115 773.103 -82.3153C788.1 -81.6434 803.348 -84.2629 818.11 -87.9154C820.562 -88.5547 823.014 -89.1522 825.455 -89.8303L832.744 -91.8969C858.918 -99.3447 876.503 -116.636 884.371 -139.35C893.521 -164.682 893.031 -190.872 898.201 -216.464C901.547 -233.085 908.549 -251.951 927.599 -260.662L927.452 -260.924C908.074 -252.319 900.712 -233.28 897.111 -216.547C891.522 -190.943 891.746 -164.909 882.425 -139.748C872.868 -114.052 854.651 -99.2124 824.859 -92.0629C808.091 -87.5927 790.664 -84.0656 773.528 -84.8938C758.765 -85.62 744.649 -89.1951 729.846 -89.9311C700.034 -91.6485 669.671 -86.1125 640.156 -79.5718C552.377 -63.0498 514.574 11.6637 486.045 76.9409C472.461 105.955 457.597 148.493 431.155 170.559C387.154 204.384 310.828 199 258.498 196.855C248.648 196.359 238.799 195.821 228.903 195.515C219.014 195.28 209.021 194.938 198.94 196.602C141.256 207.913 81.1967 237.869 43.6729 279.517C39.7357 283.874 35.9994 288.686 32.5923 293.344C30.8651 295.878 28.4432 299.439 26.6334 301.943C16.0671 317.264 -1.55664 328.477 -20.9249 333.545C-60.1698 344.081 -100.12 337.924 -139.669 339.954C-149.693 340.528 -159.964 341.775 -169.677 344.807C-186.407 349.903 -203.556 353.853 -220.877 354.546C-238.13 355.304 -255.245 353.302 -271.834 350.602C-295.312 346.635 -319.449 340.829 -342.138 334.881C-360.45 330.178 -379.188 324.519 -397.529 319.845C-416.269 315.25 -435.978 312.926 -455.887 312.743C-495.707 312.326 -536.534 322.165 -572.429 340.028C-585.881 346.705 -598.754 354.389 -610.628 363.129C-614.579 366.051 -618.446 369.054 -622.076 372.283L-621.833 372.487L-621.799 372.477L-621.801 372.468Z" fill="#FAECC8"/>
<path d="M-626.976 361.821C-583.871 326.514 -525.559 304.958 -468.675 304.118C-453.904 303.841 -439.076 304.935 -424.849 307.259C-412.92 309.034 -401.158 311.949 -389.83 315.131C-362.476 322.962 -334.412 330.67 -306.408 336.997C-273.601 344.055 -238.65 350.61 -203.559 343.918C-191.098 341.759 -179.065 337.833 -166.936 334.568C-159.654 332.921 -152.285 332.125 -144.894 331.625C-86.4453 328.38 -8.27356 343.313 26.5633 286.052C60.4479 235.812 130.574 199.141 193.929 187.214C203.727 185.649 213.671 186.036 223.504 186.338C233.356 186.708 243.184 187.304 253.024 187.855C292.371 189.968 332.395 192.102 372.255 184.72C404.141 178.678 430.582 166.255 447.271 140.289C472.627 101.321 485.481 58.289 507.688 18.299C532.37 -27.9666 568.488 -72.0398 628.246 -85.5742C640.215 -88.3461 652.937 -91.1293 665.032 -93.1755C689.549 -97.5252 714.615 -99.8068 738.665 -96.4159C748.345 -95.1432 757.983 -93.358 767.929 -92.9618C782.925 -92.2899 798.173 -94.9094 812.936 -98.5619C815.388 -99.2012 817.839 -99.7987 820.28 -100.477L827.57 -102.543C853.743 -109.991 871.328 -127.283 879.196 -149.997C888.346 -175.329 887.856 -201.518 893.026 -227.111C896.372 -243.731 903.374 -262.597 922.424 -271.309L922.277 -271.57C902.9 -262.966 895.537 -243.927 891.936 -227.194C886.348 -201.589 886.571 -175.555 877.25 -150.394C867.693 -124.698 849.476 -109.859 819.685 -102.709C802.917 -98.2392 785.49 -94.712 768.354 -95.5403C753.59 -96.2665 739.474 -99.8416 724.671 -100.578C694.859 -102.295 664.496 -96.759 634.982 -90.2183C547.203 -73.6963 509.4 1.01721 480.87 66.2944C467.286 95.3088 452.422 137.846 425.98 159.913C381.979 193.737 305.653 188.353 253.323 186.208C243.473 185.712 233.624 185.174 223.728 184.868C213.839 184.633 203.846 184.292 193.766 185.956C136.081 197.267 76.0219 227.222 38.498 268.871C34.5609 273.228 30.8246 278.04 27.4175 282.698C25.6902 285.231 23.2684 288.792 21.4586 291.297C10.8923 306.617 -6.73145 317.831 -26.0997 322.898C-65.3446 333.435 -105.295 327.277 -144.844 329.307C-154.867 329.881 -165.138 331.129 -174.851 334.161C-191.582 339.256 -208.73 343.206 -226.052 343.9C-243.305 344.658 -260.42 342.656 -277.009 339.955C-300.487 335.989 -324.624 330.182 -347.313 324.234C-365.624 319.531 -384.363 313.873 -402.703 309.198C-421.444 304.604 -441.153 302.28 -461.062 302.097C-500.882 301.679 -541.709 311.519 -577.604 329.382C-591.055 336.058 -603.929 343.742 -615.802 352.483C-619.754 355.405 -623.62 358.408 -627.251 361.637L-627.008 361.84L-626.974 361.831L-626.976 361.821Z" fill="#FAECC8"/>
<path d="M-632.146 351.18C-589.041 315.874 -530.729 294.317 -473.844 293.477C-459.074 293.2 -444.246 294.294 -430.019 296.619C-418.09 298.393 -406.328 301.308 -395 304.49C-367.646 312.322 -339.582 320.029 -311.578 326.357C-278.77 333.414 -243.82 339.97 -208.729 333.277C-196.268 331.119 -184.235 327.193 -172.106 323.928C-164.824 322.28 -157.454 321.484 -150.064 320.985C-91.6152 317.74 -13.4435 332.672 21.3934 275.412C55.278 225.172 125.404 188.5 188.759 176.573C198.557 175.009 208.501 175.395 218.334 175.698C228.186 176.068 238.014 176.664 247.854 177.214C287.201 179.327 327.225 181.461 367.085 174.079C398.971 168.037 425.412 155.615 442.101 129.648C467.457 90.6806 480.311 47.6484 502.518 7.65836C527.2 -38.6072 563.318 -82.6804 623.077 -96.2148C635.045 -98.9868 647.767 -101.77 659.862 -103.816C684.379 -108.166 709.445 -110.447 733.495 -107.057C743.176 -105.784 752.813 -103.999 762.759 -103.602C777.755 -102.93 793.003 -105.55 807.766 -109.202C810.218 -109.842 812.669 -110.439 815.11 -111.117L822.4 -113.184C848.573 -120.632 866.159 -137.923 874.026 -160.637C883.176 -185.97 882.686 -212.159 887.856 -237.752C891.202 -254.372 898.204 -273.238 917.255 -281.949L917.108 -282.211C897.73 -273.607 890.367 -254.567 886.766 -237.835C881.178 -212.23 881.401 -186.196 872.08 -161.035C862.523 -135.339 844.306 -120.499 814.515 -113.35C797.747 -108.88 780.32 -105.353 763.184 -106.181C748.42 -106.907 734.304 -110.482 719.501 -111.218C689.69 -112.936 659.326 -107.4 629.812 -100.859C542.033 -84.3369 504.23 -9.62341 475.7 55.6538C462.116 84.6682 447.252 127.206 420.81 149.272C376.809 183.097 300.484 177.713 248.153 175.568C238.303 175.072 228.454 174.534 218.558 174.228C208.669 173.993 198.677 173.651 188.596 175.315C130.911 186.626 70.8519 216.581 33.3281 258.23C29.3909 262.587 25.6547 267.399 22.2476 272.057C20.5203 274.591 18.0984 278.151 16.2886 280.656C5.72235 295.977 -11.9014 307.19 -31.2696 312.258C-70.5145 322.794 -110.465 316.637 -150.014 318.667C-160.037 319.241 -170.308 320.488 -180.021 323.52C-196.752 328.616 -213.9 332.566 -231.221 333.259C-248.475 334.017 -265.59 332.015 -282.179 329.315C-305.657 325.348 -329.794 319.542 -352.483 313.594C-370.794 308.891 -389.532 303.232 -407.873 298.558C-426.614 293.963 -446.323 291.639 -466.232 291.456C-506.051 291.038 -546.879 300.878 -582.774 318.741C-596.225 325.418 -609.099 333.102 -620.972 341.842C-624.924 344.764 -628.79 347.767 -632.421 350.996L-632.178 351.2L-632.143 351.19L-632.146 351.18Z" fill="#FAECC8"/>
<path d="M-637.322 340.534C-594.216 305.227 -535.905 283.671 -479.02 282.831C-464.25 282.554 -449.422 283.648 -435.194 285.972C-423.266 287.746 -411.504 290.662 -400.176 293.844C-372.821 301.675 -344.757 309.383 -316.754 315.71C-283.946 322.768 -248.996 329.323 -213.905 322.631C-201.443 320.472 -189.411 316.546 -177.282 313.281C-170 311.634 -162.63 310.838 -155.24 310.338C-96.791 307.093 -18.6193 322.026 16.2176 264.765C50.1022 214.525 120.228 177.854 183.583 165.927C193.382 164.362 203.325 164.749 213.158 165.051C223.01 165.421 232.838 166.017 242.681 166.578C282.028 168.69 322.052 170.824 361.912 163.442C393.798 157.4 420.239 144.978 436.928 119.011C462.284 80.0438 475.138 37.0116 497.345 -2.97845C522.026 -49.244 558.145 -93.3172 617.903 -106.852C629.872 -109.624 642.594 -112.407 654.689 -114.453C679.206 -118.803 704.272 -121.084 728.322 -117.693C738.002 -116.421 747.64 -114.635 757.586 -114.239C772.582 -113.567 787.83 -116.187 802.593 -119.839C805.045 -120.479 807.496 -121.076 809.937 -121.754L817.227 -123.821C843.4 -131.269 860.985 -148.56 868.853 -171.274C878.003 -196.606 877.513 -222.796 882.683 -248.388C886.029 -265.009 893.031 -283.875 912.081 -292.586L911.934 -292.848C892.557 -284.243 885.194 -265.204 881.593 -248.471C876.005 -222.867 876.228 -196.833 866.907 -171.672C857.35 -145.976 839.133 -131.136 809.342 -123.987C792.573 -119.517 775.146 -115.989 758.01 -116.818C743.247 -117.544 729.131 -121.119 714.328 -121.855C684.516 -123.572 654.153 -118.036 624.639 -111.496C536.859 -94.9737 499.057 -20.2602 470.527 45.017C456.943 74.0314 442.082 116.579 415.637 138.635C371.639 172.47 295.31 167.076 242.98 164.931C233.13 164.435 223.281 163.897 213.385 163.591C203.496 163.356 193.503 163.015 183.423 164.678C125.738 175.989 65.6788 205.945 28.155 247.593C24.2178 251.95 20.4816 256.762 17.0745 261.42C15.3472 263.954 12.9254 267.515 11.1155 270.019C0.549255 285.34 -17.0745 296.554 -36.4427 301.621C-75.6876 312.157 -115.638 306 -155.187 308.03C-165.21 308.604 -175.481 309.851 -185.194 312.883C-201.925 317.979 -219.073 321.929 -236.395 322.622C-253.648 323.38 -270.763 321.378 -287.352 318.678C-310.83 314.711 -334.967 308.905 -357.656 302.957C-375.967 298.254 -394.706 292.595 -413.046 287.921C-431.787 283.326 -451.496 281.003 -471.405 280.819C-511.225 280.402 -552.052 290.241 -587.947 308.104C-601.398 314.781 -614.272 322.465 -626.145 331.205C-630.097 334.127 -633.963 337.13 -637.594 340.359L-637.351 340.563L-637.317 340.553L-637.322 340.534Z" fill="#FAECC8"/>
<path d="M-642.499 329.888C-599.393 294.581 -541.081 273.024 -484.197 272.184C-469.427 271.907 -454.599 273.001 -440.371 275.326C-428.442 277.1 -416.68 280.015 -405.353 283.197C-377.998 291.029 -349.934 298.736 -321.931 305.064C-289.123 312.121 -254.172 318.677 -219.082 311.984C-206.62 309.826 -194.588 305.9 -182.459 302.635C-175.177 300.987 -167.807 300.191 -160.417 299.692C-101.968 296.447 -23.796 311.379 11.0408 254.119C44.9254 203.879 115.051 167.207 178.407 155.28C188.205 153.716 198.148 154.102 207.981 154.405C217.833 154.775 227.661 155.371 237.504 155.931C276.852 158.044 316.875 160.178 356.736 152.796C388.621 146.754 415.062 134.332 431.751 108.365C457.108 69.3973 469.961 26.3651 492.168 -13.6249C516.85 -59.8905 552.968 -103.964 612.727 -117.498C624.695 -120.27 637.417 -123.053 649.512 -125.099C674.029 -129.449 699.095 -131.731 723.145 -128.34C732.826 -127.067 742.463 -125.282 752.409 -124.886C767.405 -124.214 782.653 -126.833 797.416 -130.486C799.868 -131.125 802.319 -131.723 804.76 -132.401L812.05 -134.467C838.224 -141.915 855.809 -159.207 863.676 -181.92C872.826 -207.253 872.336 -233.442 877.506 -259.035C880.853 -275.655 887.854 -294.521 906.905 -303.233L906.758 -303.494C887.38 -294.89 880.017 -275.851 876.417 -259.118C870.828 -233.513 871.052 -207.479 861.73 -182.318C852.173 -156.622 833.956 -141.783 804.165 -134.633C787.397 -130.163 769.97 -126.636 752.834 -127.464C738.07 -128.19 723.954 -131.765 709.151 -132.501C679.34 -134.219 648.976 -128.683 619.462 -122.142C531.683 -105.62 493.88 -30.9067 465.351 34.3705C451.766 63.3849 436.905 105.932 410.46 127.989C366.462 161.823 290.134 156.429 237.803 154.284C227.953 153.788 218.104 153.25 208.208 152.945C198.32 152.71 188.327 152.368 178.246 154.032C120.561 165.343 60.5021 195.298 22.9783 236.947C19.0411 241.304 15.3048 246.116 11.8978 250.774C10.1705 253.307 7.7486 256.868 5.93878 259.373C-4.6275 274.694 -22.2512 285.907 -41.6194 290.974C-80.8644 301.511 -120.815 295.353 -160.363 297.383C-170.387 297.958 -180.658 299.205 -190.371 302.237C-207.102 307.332 -224.25 311.283 -241.571 311.976C-258.825 312.734 -275.94 310.732 -292.529 308.031C-316.007 304.065 -340.144 298.259 -362.832 292.311C-381.144 287.607 -399.882 281.949 -418.223 277.274C-436.963 272.68 -456.673 270.356 -476.582 270.173C-516.401 269.755 -557.229 279.595 -593.124 297.458C-606.575 304.135 -619.449 311.818 -631.322 320.559C-635.273 323.481 -639.14 326.484 -642.771 329.713L-642.528 329.917L-642.493 329.907L-642.499 329.888Z" fill="#FAECC8"/>
<path d="M-647.676 319.243C-604.571 283.936 -546.259 262.38 -489.375 261.539C-474.605 261.263 -459.776 262.357 -445.549 264.681C-433.62 266.455 -421.858 269.371 -410.53 272.553C-383.176 280.384 -355.112 288.092 -327.108 294.419C-294.301 301.477 -259.35 308.032 -224.259 301.34C-211.798 299.181 -199.766 295.255 -187.637 291.99C-180.355 290.343 -172.985 289.547 -165.595 289.047C-107.146 285.802 -28.9738 300.734 5.8631 243.474C39.7477 193.234 109.873 156.563 173.229 144.635C183.027 143.071 192.97 143.458 202.804 143.76C212.656 144.13 222.483 144.726 232.326 145.287C271.674 147.399 311.697 149.533 351.558 142.151C383.443 136.109 409.885 123.687 426.573 97.7201C451.93 58.7527 464.783 15.7206 486.991 -24.2695C511.672 -70.535 547.79 -114.608 607.549 -128.143C619.517 -130.915 632.239 -133.698 644.335 -135.744C668.851 -140.094 693.917 -142.375 717.967 -138.984C727.648 -137.712 737.285 -135.926 747.231 -135.53C762.227 -134.858 777.476 -137.478 792.238 -141.13C794.69 -141.77 797.141 -142.367 799.582 -143.045L806.872 -145.112C833.046 -152.56 850.631 -169.851 858.499 -192.565C867.648 -217.897 867.158 -244.087 872.329 -269.679C875.675 -286.3 882.677 -305.166 901.727 -313.877L901.58 -314.139C882.202 -305.534 874.839 -286.495 871.239 -269.762C865.65 -244.158 865.874 -218.124 856.552 -192.963C846.995 -167.267 828.779 -152.427 798.987 -145.278C782.219 -140.808 764.792 -137.281 747.656 -138.109C732.893 -138.835 718.777 -142.41 703.973 -143.146C674.162 -144.863 643.798 -139.327 614.284 -132.787C526.505 -116.265 488.702 -41.5512 460.173 23.726C446.588 52.7404 431.727 95.2876 405.283 117.344C361.284 151.179 284.956 145.785 232.625 143.64C222.776 143.144 212.927 142.606 203.031 142.3C193.142 142.065 183.149 141.724 173.068 143.387C115.384 154.698 55.3243 184.654 17.8005 226.302C13.8633 230.659 10.1271 235.471 6.72003 240.129C4.99274 242.663 2.57086 246.224 0.761047 248.728C-9.80524 264.049 -27.429 275.263 -46.7972 280.33C-86.0421 290.866 -125.992 284.709 -165.541 286.739C-175.565 287.313 -185.836 288.56 -195.549 291.592C-212.28 296.688 -229.428 300.638 -246.749 301.331C-264.003 302.089 -281.117 300.087 -297.707 297.387C-321.184 293.42 -345.322 287.614 -368.01 281.666C-386.322 276.963 -405.06 271.304 -423.401 266.63C-442.141 262.035 -461.851 259.711 -481.76 259.528C-521.579 259.111 -562.407 268.95 -598.302 286.813C-611.753 293.49 -624.627 301.174 -636.5 309.914C-640.451 312.836 -644.318 315.839 -647.948 319.068L-647.706 319.272L-647.671 319.262L-647.676 319.243Z" fill="#FAECC8"/>
<path d="M-652.85 308.604C-609.745 273.297 -551.433 251.741 -494.549 250.901C-479.778 250.624 -464.95 251.718 -450.723 254.042C-438.794 255.817 -427.032 258.732 -415.704 261.914C-388.35 269.746 -360.286 277.453 -332.282 283.781C-299.475 290.838 -264.524 297.394 -229.433 290.701C-216.972 288.543 -204.94 284.617 -192.81 281.352C-185.528 279.704 -178.159 278.908 -170.768 278.409C-112.319 275.163 -34.1476 290.096 0.68927 232.835C34.5739 182.596 104.7 145.924 168.055 133.997C177.853 132.432 187.797 132.819 197.63 133.121C207.482 133.492 217.31 134.088 227.15 134.638C266.497 136.751 306.521 138.885 346.381 131.503C378.267 125.461 404.708 113.039 421.397 87.0718C446.753 48.1044 459.607 5.07224 481.814 -34.9178C506.495 -81.1834 542.614 -125.257 602.372 -138.791C614.341 -141.563 627.063 -144.346 639.158 -146.392C663.675 -150.742 688.741 -153.024 712.79 -149.633C722.471 -148.36 732.109 -146.575 742.055 -146.179C757.051 -145.507 772.299 -148.126 787.062 -151.779C789.514 -152.418 791.965 -153.016 794.406 -153.694L801.696 -155.76C827.869 -163.208 845.454 -180.499 853.322 -203.213C862.472 -228.546 861.982 -254.735 867.152 -280.328C870.498 -296.948 877.5 -315.814 896.55 -324.526L896.403 -324.787C877.026 -316.183 869.663 -297.143 866.062 -280.411C860.474 -254.806 860.697 -228.772 851.376 -203.611C841.819 -177.915 823.602 -163.076 793.811 -155.926C777.042 -151.456 759.615 -147.929 742.479 -148.757C727.716 -149.483 713.6 -153.058 698.797 -153.794C668.985 -155.512 638.622 -149.976 609.108 -143.435C521.328 -126.913 483.526 -52.1996 454.996 13.0776C441.412 42.0919 426.548 84.6296 400.106 106.696C356.105 140.521 279.779 135.136 227.449 132.991C217.599 132.495 207.75 131.957 197.854 131.652C187.965 131.417 177.972 131.075 167.892 132.739C110.207 144.05 50.1478 174.005 12.624 215.654C8.68683 220.011 4.95056 224.823 1.54352 229.481C-0.183777 232.014 -2.60565 235.575 -4.41547 238.08C-14.9818 253.401 -32.6055 264.614 -51.9737 269.681C-91.2186 280.218 -131.169 274.06 -170.718 276.09C-180.741 276.665 -191.012 277.912 -200.726 280.944C-217.456 286.04 -234.604 289.99 -251.926 290.683C-269.179 291.441 -286.294 289.439 -302.883 286.739C-326.361 282.772 -350.498 276.966 -373.187 271.018C-391.498 266.314 -410.237 260.656 -428.577 255.981C-447.318 251.387 -467.027 249.063 -486.936 248.88C-526.756 248.462 -567.583 258.302 -603.478 276.165C-616.929 282.842 -629.803 290.525 -641.676 299.266C-645.628 302.188 -649.494 305.191 -653.125 308.42L-652.882 308.624L-652.848 308.614L-652.85 308.604Z" fill="#FAECC8"/>
<path d="M-658.025 297.958C-614.919 262.651 -556.608 241.094 -499.723 240.254C-484.953 239.978 -470.125 241.072 -455.898 243.396C-443.969 245.17 -432.207 248.085 -420.879 251.267C-393.525 259.099 -365.46 266.807 -337.457 273.134C-304.649 280.191 -269.699 286.747 -234.608 280.054C-222.147 277.896 -210.114 273.97 -197.985 270.705C-190.703 269.058 -183.333 268.262 -175.943 267.762C-117.494 264.517 -39.3224 279.449 -4.48553 222.189C29.399 171.949 99.5248 135.277 162.88 123.35C172.679 121.786 182.622 122.172 192.455 122.475C202.307 122.845 212.135 123.441 221.975 123.992C261.323 126.105 301.346 128.238 341.206 120.857C373.092 114.814 399.533 102.392 416.222 76.4253C441.578 37.4579 454.432 -5.57428 476.639 -45.5644C501.321 -91.8299 537.439 -135.903 597.198 -149.438C609.166 -152.209 621.888 -154.993 633.983 -157.039C658.5 -161.389 683.566 -163.67 707.616 -160.279C717.297 -159.007 726.934 -157.221 736.88 -156.825C751.876 -156.153 767.124 -158.773 781.887 -162.425C784.339 -163.065 786.79 -163.662 789.231 -164.34L796.521 -166.407C822.695 -173.854 840.28 -191.146 848.147 -213.86C857.297 -239.192 856.807 -265.381 861.977 -290.974C865.323 -307.595 872.325 -326.461 891.376 -335.172L891.229 -335.434C871.851 -326.829 864.488 -307.79 860.888 -291.057C855.299 -265.452 855.522 -239.419 846.201 -214.258C836.644 -188.562 818.427 -173.722 788.636 -166.573C771.868 -162.103 754.441 -158.575 737.305 -159.404C722.541 -160.13 708.425 -163.705 693.622 -164.441C663.811 -166.158 633.447 -160.622 603.933 -154.082C516.154 -137.56 478.351 -62.8461 449.822 2.43109C436.237 31.4455 421.373 73.9831 394.931 96.0493C350.93 129.874 274.605 124.49 222.274 122.345C212.424 121.849 202.575 121.311 192.679 121.005C182.79 120.77 172.798 120.429 162.717 122.092C105.032 133.404 44.973 163.359 7.44922 205.007C3.51202 209.364 -0.224243 214.176 -3.63129 218.834C-5.35858 221.368 -7.78046 224.929 -9.59027 227.433C-20.1566 242.754 -37.7803 253.968 -57.1485 259.035C-96.3934 269.571 -136.344 263.414 -175.892 265.444C-185.916 266.018 -196.187 267.266 -205.9 270.297C-222.631 275.393 -239.779 279.343 -257.1 280.036C-274.354 280.794 -291.469 278.792 -308.058 276.092C-331.536 272.125 -355.673 266.319 -378.362 260.371C-396.673 255.668 -415.411 250.009 -433.752 245.335C-452.492 240.74 -472.202 238.417 -492.111 238.234C-531.93 237.816 -572.758 247.655 -608.653 265.519C-622.104 272.195 -634.978 279.879 -646.851 288.619C-650.803 291.541 -654.669 294.544 -658.3 297.773L-658.057 297.977L-658.022 297.968L-658.025 297.958Z" fill="#FAECC8"/>
<path d="M-663.2 287.311C-620.094 252.005 -561.783 230.448 -504.898 229.608C-490.128 229.331 -475.3 230.425 -461.072 232.75C-449.144 234.524 -437.381 237.439 -426.054 240.621C-398.699 248.453 -370.635 256.16 -342.632 262.488C-309.824 269.545 -274.874 276.101 -239.783 269.408C-227.321 267.25 -215.289 263.324 -203.16 260.059C-195.878 258.411 -188.508 257.615 -181.118 257.116C-122.669 253.87 -44.4972 268.803 -9.66034 211.542C24.2242 161.303 94.35 124.631 157.706 112.704C167.504 111.139 177.447 111.526 187.28 111.828C197.132 112.199 206.96 112.795 216.803 113.355C256.15 115.468 296.174 117.602 336.034 110.22C367.92 104.178 394.361 91.7554 411.05 65.7885C436.406 26.8211 449.26 -16.2111 471.467 -56.2011C496.149 -102.467 532.267 -146.54 592.026 -160.074C603.994 -162.846 616.716 -165.629 628.811 -167.676C653.328 -172.025 678.394 -174.307 702.444 -170.916C712.125 -169.643 721.762 -167.858 731.708 -167.462C746.704 -166.79 761.952 -169.41 776.715 -173.062C779.167 -173.701 781.618 -174.299 784.059 -174.977L791.349 -177.043C817.522 -184.491 835.108 -201.783 842.975 -224.497C852.125 -249.829 851.635 -276.018 856.805 -301.611C860.151 -318.231 867.153 -337.097 886.204 -345.809L886.057 -346.07C866.679 -337.466 859.316 -318.427 855.715 -301.694C850.127 -276.089 850.35 -250.056 841.029 -224.894C831.472 -199.198 813.255 -184.359 783.464 -177.209C766.696 -172.739 749.269 -169.212 732.133 -170.04C717.369 -170.767 703.253 -174.342 688.45 -175.078C658.639 -176.795 628.275 -171.259 598.761 -164.718C510.982 -148.196 473.179 -73.4829 444.649 -8.20569C431.065 20.8087 416.201 63.3463 389.759 85.4125C345.758 119.237 269.432 113.853 217.102 111.708C207.252 111.212 197.403 110.674 187.507 110.368C177.618 110.133 167.625 109.792 157.545 111.456C99.8602 122.767 39.8009 152.722 2.2771 194.371C-1.6601 198.727 -5.39636 203.54 -8.80341 208.198C-10.5307 210.731 -12.9526 214.292 -14.7624 216.796C-25.3287 232.117 -42.9524 243.331 -62.3206 248.398C-101.566 258.935 -141.516 252.777 -181.065 254.807C-191.088 255.381 -201.359 256.629 -211.072 259.66C-227.803 264.756 -244.951 268.706 -262.272 269.4C-279.526 270.158 -296.641 268.156 -313.23 265.455C-336.708 261.488 -360.845 255.682 -383.534 249.734C-401.845 245.031 -420.583 239.372 -438.924 234.698C-457.665 230.104 -477.374 227.78 -497.283 227.597C-537.102 227.179 -577.93 237.019 -613.825 254.882C-627.276 261.558 -640.15 269.242 -652.023 277.983C-655.975 280.905 -659.841 283.908 -663.472 287.137L-663.229 287.34L-663.195 287.331L-663.2 287.311Z" fill="#FAECC8"/>
<path d="M-668.378 276.665C-625.272 241.358 -566.96 219.802 -510.076 218.961C-495.306 218.685 -480.477 219.779 -466.25 222.103C-454.321 223.877 -442.559 226.793 -431.232 229.974C-403.877 237.806 -375.813 245.514 -347.81 251.841C-315.002 258.898 -280.051 265.454 -244.96 258.761C-232.499 256.603 -220.467 252.677 -208.338 249.412C-201.056 247.765 -193.686 246.969 -186.296 246.469C-127.847 243.224 -49.6749 258.156 -14.8381 200.896C19.0465 150.656 89.1723 113.984 152.528 102.057C162.326 100.493 172.269 100.879 182.102 101.182C191.954 101.552 201.782 102.148 211.625 102.709C250.973 104.821 290.996 106.955 330.857 99.5733C362.742 93.5312 389.184 81.1089 405.872 55.142C431.229 16.1747 444.082 -26.8575 466.29 -66.8476C490.971 -113.113 527.089 -157.186 586.848 -170.721C598.816 -173.493 611.538 -176.276 623.634 -178.322C648.15 -182.672 673.216 -184.953 697.266 -181.562C706.947 -180.29 716.584 -178.505 726.53 -178.108C741.526 -177.436 756.774 -180.056 771.537 -183.708C773.989 -184.348 776.44 -184.945 778.881 -185.623L786.171 -187.69C812.345 -195.138 829.93 -212.429 837.797 -235.143C846.947 -260.476 846.457 -286.665 851.627 -312.257C854.974 -328.878 861.975 -347.744 881.026 -356.455L880.879 -356.717C861.501 -348.112 854.138 -329.073 850.538 -312.34C844.949 -286.736 845.173 -260.702 835.851 -235.541C826.294 -209.845 808.078 -195.005 778.286 -187.856C761.518 -183.386 744.091 -179.859 726.955 -180.687C712.191 -181.413 698.075 -184.988 683.272 -185.724C653.461 -187.442 623.097 -181.906 593.583 -175.365C505.804 -158.843 468.001 -84.1294 439.472 -18.8521C425.887 10.1622 411.026 52.7095 384.581 74.7661C340.583 108.601 264.255 103.207 211.924 101.062C202.074 100.566 192.226 100.028 182.329 99.7219C172.441 99.487 162.448 99.1454 152.367 100.809C94.6825 112.12 34.6232 142.076 -2.90063 183.724C-6.83783 188.081 -10.5741 192.893 -13.9811 197.551C-15.7084 200.085 -18.1303 203.646 -19.9401 206.15C-30.5064 221.471 -48.1301 232.684 -67.4984 237.752C-106.743 248.288 -146.693 242.131 -186.242 244.161C-196.266 244.735 -206.537 245.982 -216.25 249.014C-232.981 254.11 -250.129 258.06 -267.45 258.753C-284.704 259.511 -301.818 257.509 -318.408 254.809C-341.885 250.842 -366.023 245.036 -388.711 239.088C-407.023 234.385 -425.761 228.726 -444.102 224.052C-462.842 219.457 -482.552 217.133 -502.461 216.95C-542.28 216.532 -583.108 226.372 -619.003 244.235C-632.454 250.912 -645.328 258.596 -657.201 267.336C-661.152 270.258 -665.019 273.261 -668.649 276.49L-668.407 276.694L-668.372 276.684L-668.378 276.665Z" fill="#FAECC8"/>
<path d="M-673.555 266.018C-630.45 230.712 -572.138 209.155 -515.254 208.315C-500.484 208.038 -485.655 209.132 -471.428 211.457C-459.499 213.231 -447.737 216.146 -436.409 219.328C-409.055 227.16 -380.991 234.867 -352.987 241.195C-320.18 248.252 -285.229 254.808 -250.138 248.115C-237.677 245.957 -225.645 242.031 -213.516 238.766C-206.233 237.118 -198.864 236.322 -191.473 235.823C-133.024 232.577 -54.8527 247.51 -20.0158 190.25C13.8688 140.01 83.9945 103.338 147.35 91.4109C157.148 89.8464 167.092 90.233 176.925 90.5355C186.777 90.9057 196.604 91.5016 206.447 92.062C245.795 94.1748 285.818 96.3085 325.679 88.9268C357.564 82.8847 384.006 70.4624 400.694 44.4955C426.051 5.52814 438.905 -37.504 461.112 -77.4941C485.793 -123.76 521.911 -167.833 581.67 -181.367C593.638 -184.139 606.36 -186.922 618.456 -188.969C642.972 -193.318 668.039 -195.6 692.088 -192.209C701.769 -190.936 711.406 -189.151 721.352 -188.755C736.349 -188.083 751.597 -190.702 766.359 -194.355C768.811 -194.994 771.262 -195.592 773.703 -196.27L780.993 -198.336C807.167 -205.784 824.752 -223.076 832.62 -245.79C841.769 -271.122 841.279 -297.311 846.45 -322.904C849.796 -339.524 856.797 -358.39 875.848 -367.102L875.701 -367.363C856.323 -358.759 848.96 -339.72 845.36 -322.987C839.771 -297.382 839.995 -271.348 830.674 -246.187C821.116 -220.491 802.9 -205.652 773.108 -198.502C756.34 -194.032 738.913 -190.505 721.777 -191.333C707.014 -192.06 692.898 -195.635 678.094 -196.371C648.283 -198.088 617.919 -192.552 588.405 -186.011C500.626 -169.489 462.823 -94.7758 434.294 -29.4986C420.709 -0.484253 405.848 42.063 379.404 64.1195C335.405 97.954 259.077 92.5601 206.746 90.4151C196.897 89.9191 187.048 89.3812 177.152 89.0754C167.263 88.8405 157.27 88.499 147.189 90.1628C89.5048 101.474 29.4454 131.429 -8.07837 173.078C-12.0156 177.435 -15.7518 182.247 -19.1589 186.905C-20.8862 189.438 -23.308 192.999 -25.1179 195.503C-35.6841 210.824 -53.3079 222.038 -72.6761 227.105C-111.921 237.642 -151.871 231.484 -191.42 233.514C-201.444 234.088 -211.715 235.336 -221.428 238.368C-238.159 243.463 -255.307 247.413 -272.628 248.107C-289.882 248.865 -306.996 246.863 -323.585 244.162C-347.063 240.196 -371.201 234.389 -393.889 228.441C-412.201 223.738 -430.939 218.079 -449.28 213.405C-468.02 208.811 -487.73 206.487 -507.638 206.304C-547.458 205.886 -588.286 215.726 -624.181 233.589C-637.632 240.265 -650.506 247.949 -662.379 256.69C-666.33 259.612 -670.197 262.615 -673.827 265.844L-673.585 266.047L-673.55 266.038L-673.555 266.018Z" fill="#FAECC8"/>
<path d="M-678.728 255.382C-635.623 220.075 -577.311 198.518 -520.426 197.678C-505.656 197.402 -490.828 198.496 -476.601 200.82C-464.672 202.594 -452.91 205.509 -441.582 208.691C-414.228 216.523 -386.164 224.231 -358.16 230.558C-325.352 237.615 -290.402 244.171 -255.311 237.478C-242.85 235.32 -230.817 231.394 -218.688 228.129C-211.406 226.482 -204.036 225.685 -196.646 225.186C-138.197 221.941 -60.0255 236.873 -25.1887 179.613C8.69592 129.373 78.8217 92.7013 142.177 80.7742C151.975 79.2097 161.919 79.5963 171.752 79.8988C181.604 80.269 191.432 80.8649 201.274 81.4254C240.622 83.5381 280.645 85.6718 320.506 78.2901C352.391 72.248 378.833 59.8257 395.521 33.8588C420.878 -5.10855 433.732 -48.1407 455.939 -88.1308C480.62 -134.396 516.739 -178.469 576.497 -192.004C588.466 -194.776 601.187 -197.559 613.283 -199.605C637.799 -203.955 662.866 -206.237 686.915 -202.846C696.596 -201.573 706.233 -199.788 716.179 -199.392C731.176 -198.72 746.424 -201.339 761.186 -204.992C763.638 -205.631 766.089 -206.228 768.531 -206.907L775.82 -208.973C801.994 -216.421 819.579 -233.712 827.447 -256.426C836.597 -281.759 836.107 -307.948 841.277 -333.541C844.623 -350.161 851.625 -369.027 870.675 -377.739L870.528 -378C851.15 -369.396 843.787 -350.356 840.187 -333.624C834.598 -308.019 834.822 -281.985 825.501 -256.824C815.943 -231.128 797.727 -216.289 767.935 -209.139C751.167 -204.669 733.74 -201.142 716.604 -201.97C701.841 -202.696 687.725 -206.271 672.922 -207.007C643.11 -208.725 612.747 -203.189 583.232 -196.648C495.453 -180.126 457.65 -105.413 429.121 -40.1353C415.537 -11.1209 400.673 31.4166 374.231 53.4829C330.23 87.3077 253.904 81.9234 201.574 79.7784C191.724 79.2824 181.875 78.7445 171.979 78.4387C162.09 78.2038 152.097 77.8623 142.016 79.5261C84.3319 90.8371 24.2726 120.792 -13.2512 162.441C-17.1884 166.798 -20.9247 171.61 -24.3317 176.268C-26.059 178.802 -28.4809 182.362 -30.2907 184.867C-40.857 200.188 -58.4807 211.401 -77.8489 216.469C-117.094 227.005 -157.044 220.848 -196.593 222.878C-206.617 223.452 -216.888 224.699 -226.601 227.731C-243.332 232.827 -260.48 236.777 -277.801 237.47C-295.054 238.228 -312.169 236.226 -328.758 233.526C-352.236 229.559 -376.374 223.753 -399.062 217.805C-417.374 213.101 -436.112 207.443 -454.453 202.768C-473.193 198.174 -492.902 195.85 -512.811 195.667C-552.631 195.249 -593.458 205.089 -629.353 222.952C-642.805 229.629 -655.678 237.312 -667.552 246.053C-671.503 248.975 -675.37 251.978 -679 255.207L-678.757 255.411L-678.723 255.401L-678.728 255.382Z" fill="#FAECC8"/>
</g>
</svg>
