<svg width="190" height="140" viewBox="0 0 190 140" fill="none" xmlns="http://www.w3.org/2000/svg">
<path d="M61.0977 35.3682C62.1263 43.5045 66.6401 50.9223 72.774 56.2954C77.9221 60.7545 84.2052 63.8505 90.7175 65.8212C94.6025 67.0257 98.706 67.7073 102.692 68.4787C127.766 73.7514 142.986 97.9014 139.816 122.606L141.574 122.817C144.404 100.775 132.115 77.8829 110.734 70.0689C106.279 68.3149 101.509 67.4854 96.7982 66.7299C92.8226 65.948 88.8683 64.8437 85.1005 63.3433C74.3781 59.1166 65.1586 50.6158 62.2968 39.2779C61.9664 37.9834 61.7053 36.6468 61.6253 35.3418L61.0924 35.3682H61.0977Z" fill="#F3C545" stroke="#F3C545" stroke-width="0.8"/>
<path d="M61.0496 35.3516C61.4865 43.2078 65.2703 50.6467 70.818 56.1783C77.357 62.6292 86.0276 66.5864 94.9221 68.6945C120.572 73.777 136.607 97.182 133.532 122.653L135.27 122.859C137.129 107.183 131.406 90.6783 119.591 79.9955C112.818 73.7295 104.115 69.7934 95.0819 68.0393C94.128 67.8439 92.2361 67.3631 91.3035 67.0831C86.31 65.6777 81.4391 63.6753 77.1012 60.8276C68.4465 55.2696 62.0088 45.7121 61.5878 35.3621L61.0549 35.3568L61.0496 35.3516Z" fill="#F3C545" stroke="#F3C545" stroke-width="0.8"/>
<path d="M61.0005 35.3359C60.9579 50.5624 72.0906 62.2649 85.7334 67.6962C87.3908 68.3936 89.3413 69.0857 91.0626 69.6087C115.049 75.7532 130.174 98.4767 127.243 122.695L128.959 122.901C131.741 97.9589 115.95 74.8762 91.2545 68.9747C89.5438 68.4887 87.5986 67.8388 85.9413 67.1731C81.9017 65.5934 77.9528 63.5382 74.5261 60.8807C66.6495 54.9159 61.2776 45.3002 61.5281 35.3729L60.9952 35.3359H61.0005Z" fill="#F3C545" stroke="#F3C545" stroke-width="0.8"/>
<path d="M60.954 35.3145C59.9841 47.6457 67.1092 59.0787 77.4159 65.5508C81.4288 68.2294 85.9906 70.0733 90.4832 71.7481C101.616 76.0751 110.974 84.6446 116.149 95.2958C120.332 103.754 122.123 113.412 120.961 122.732L122.656 122.938C124.937 103.601 114.704 83.3608 97.3525 74.1256C93.1584 71.7005 88.4208 70.4167 84.0135 68.5147C81.8285 67.5373 79.6808 66.4648 77.6611 65.1757C67.4183 59.0999 60.3464 47.3551 61.4816 35.3884L60.9486 35.3145H60.954Z" fill="#F3C545" stroke="#F3C545" stroke-width="0.8"/>
<path d="M60.9108 35.2988C58.8857 49.9917 67.3431 62.6241 79.9787 69.6086C81.7107 70.586 84.4126 71.8434 86.2405 72.6835C105.218 81.1262 117.267 102.333 114.677 122.774L116.356 122.975C117.406 113.624 115.509 104.109 111.405 95.7239C105.543 83.8048 95.6626 75.5312 83.3628 70.6441C78.1348 68.2561 73.2106 65.0227 69.3256 60.7802C63.1544 54.0228 59.9835 44.4389 61.4437 35.4098L60.9214 35.3041L60.9108 35.2988Z" fill="#F3C545" stroke="#F3C545" stroke-width="0.8"/>
<path d="M60.8677 35.2832C57.6489 50.4357 65.8506 64.3783 78.9658 71.8542C94.5164 79.6154 105.1 92.607 108.047 109.762C108.767 114.078 108.932 118.495 108.394 122.817L110.051 123.018C112.321 102.677 100.581 82.0246 82.2326 72.9003C80.4953 71.9916 78.0385 70.676 76.4397 69.5771C64.7687 62.1277 58.3577 49.0832 61.3847 35.4259L60.8677 35.2832Z" fill="#F3C545" stroke="#F3C545" stroke-width="0.8"/>
<path d="M60.8257 35.267C57.026 48.0367 61.9076 62.0111 72.2356 70.3006C75.0441 72.715 78.4868 74.728 81.4924 76.8941C85.3242 79.8264 88.8468 83.1918 91.7565 87.0222C97.0111 93.7479 100.422 101.837 101.786 110.216C102.458 114.4 102.612 118.674 102.111 122.859L103.747 123.054C105.533 105.619 97.3149 87.7672 83.2404 77.2851C79.915 74.6276 75.8435 72.6147 72.582 69.8832C62.1261 61.8579 57.527 47.9892 61.332 35.4361L60.8257 35.2617V35.267Z" fill="#F3C545" stroke="#F3C545" stroke-width="0.8"/>
<path d="M60.783 35.252C55.6723 49.3267 60.2394 64.2467 71.8145 73.6404C75.044 76.1817 78.4973 78.8286 81.3058 81.8454C91.7085 92.6075 97.496 108.04 95.8226 122.902L97.4374 123.097C99.2653 105.023 90.4827 86.854 75.9659 76.0285C75.1559 75.405 73.0082 73.7567 72.2088 73.1649C60.4366 64.0459 56.1626 49.3689 61.2733 35.4633L60.7777 35.2572L60.783 35.252Z" fill="#F3C545" stroke="#F3C545" stroke-width="0.8"/>
<path d="M60.7458 35.2358C55.6777 46.5209 56.7915 60.4265 64.5136 70.2693C66.5813 73.1963 70.477 76.5987 73.0989 79.0872C84.5994 90.3987 91.4155 106.83 89.5396 122.944L91.1383 123.134C92.0017 114.839 90.5788 106.476 87.5571 98.7939C85.2389 93.109 81.9028 87.6936 77.8846 83.0285C76.9626 81.8609 75.7582 80.7197 74.735 79.626C74.0635 78.8388 69.8961 75.1986 69.0647 74.4167C61.3374 67.4956 57.1646 57.5049 58.2038 47.176C58.5715 43.1501 59.5414 39.1295 61.2255 35.4682L60.7458 35.2305V35.2358Z" fill="#F3C545" stroke="#F3C545" stroke-width="0.8"/>
<path d="M60.7028 35.2188C53.4444 49.3727 54.9952 65.5872 66.2612 77.1734C75.2782 86.5143 81.6626 98.2697 83.2028 111.203C83.6771 115.118 83.7357 119.091 83.2561 122.98L84.8335 123.17C86.2031 110.051 82.2116 96.6318 74.5641 85.9332C72.0381 82.2296 68.8459 78.8483 65.7336 75.6149C56.5993 66.0204 54.5636 53.2665 58.811 40.9458C59.4558 39.0703 60.2232 37.2106 61.1718 35.4882L60.7082 35.224L60.7028 35.2188Z" fill="#F3C545" stroke="#F3C545" stroke-width="0.8"/>
<path d="M60.6653 35.209C53.4336 47.0647 52.1866 62.8142 60.0045 74.6911C61.566 77.1056 63.6017 79.5253 65.3231 81.8235C67.0444 84.2116 68.6059 86.7053 70.0554 89.2624C74.7132 97.8267 77.511 107.463 77.3724 117.222C77.3671 119.161 77.2125 121.094 76.9674 123.023L78.5235 123.208C80.1703 109.302 75.7523 95.1269 67.6999 83.7731C65.5576 80.5344 62.6958 77.5494 60.5214 74.353C58.8907 71.9068 57.5691 69.2651 56.6205 66.4914C53.78 58.0751 54.9418 48.7607 58.4164 40.7036C59.1891 38.9073 60.0738 37.1374 61.113 35.4996L60.6653 35.209Z" fill="#F3C545" stroke="#F3C545" stroke-width="0.8"/>
<path d="M60.6288 35.1934C51.5958 48.2695 49.3948 65.9475 58.9182 79.367C60.421 81.6336 62.1903 84.4284 63.4746 86.8218C64.1408 87.9788 64.8283 89.5268 65.4305 90.7156C65.8834 91.5979 66.7414 93.7905 67.1465 94.7203C70.6211 103.702 72.1772 113.518 70.6851 123.065L72.2199 123.25C72.465 121.322 72.6356 119.33 72.6782 117.359C72.9074 107.004 69.9017 96.7491 64.9828 87.6777C64.8229 87.3448 64.4659 86.7003 64.2687 86.3885C63.384 84.8934 62.1637 82.7801 61.1618 81.3905C58.3906 77.4545 55.6727 73.286 54.3777 68.605C51.0149 57.3515 54.5429 44.9833 61.0605 35.5104L60.6288 35.1934Z" fill="#F3C545" stroke="#F3C545" stroke-width="0.8"/>
<path d="M60.5908 35.1816C51.0621 47.3438 46.7774 64.9583 54.4622 79.0436C54.9684 80.0105 57.4892 84.5594 57.8835 85.4575C60.2124 90.1861 62.1416 95.2052 63.4419 100.314C65.2805 107.774 65.9253 115.52 64.4065 123.112L65.92 123.291C66.0745 122.404 66.2344 121.294 66.341 120.422C67.3376 111.657 65.8294 102.686 62.7864 94.4444C61.582 90.9944 59.9672 87.6871 58.3205 84.422C58.2779 84.348 55.2562 79.0172 55.0857 78.716C49.117 68.1072 49.895 56.1775 54.9738 45.389C56.6045 41.8967 58.5976 38.5313 61.0011 35.5251L60.5908 35.1869V35.1816Z" fill="#F3C545" stroke="#F3C545" stroke-width="0.8"/>
<path d="M60.5535 35.1719C53.0713 44.0531 47.758 55.3752 48.0085 67.1094C48.0884 71.9859 49.3408 76.8307 51.4085 81.2528L52.5863 83.905C53.5402 85.9233 54.4942 88.5226 55.2935 90.6148C55.9863 92.7387 56.8443 95.3698 57.356 97.536C57.5478 98.2228 57.8782 99.644 58.0061 100.347C58.3898 101.969 58.7522 104.362 58.992 106.021C59.5996 111.605 59.7328 117.591 58.15 123.001L59.5729 123.488C60.1645 121.496 60.4309 119.573 60.6014 117.602C61.0598 112.298 60.5482 106.739 59.461 101.53C59.3011 100.812 58.9814 99.3851 58.8162 98.6719C58.2193 96.4952 57.4359 93.8218 56.6472 91.6873C56.1462 90.1341 55.123 87.7777 54.5048 86.2455C53.828 84.6923 52.7515 82.5155 52.0321 80.957C46.1273 69.3496 47.9339 56.0409 54.2277 44.9777C56.1089 41.6122 58.3419 38.3947 60.9319 35.5417L60.5428 35.1824L60.5535 35.1719Z" fill="#F3C545" stroke="#F3C545" stroke-width="0.8"/>
<path d="M60.5539 35.7685C60.5539 35.7685 63.9006 18.7352 80.3572 17.092C95.9026 15.544 106.124 33.8454 99.3825 47.619" stroke="#F3C545" stroke-width="0.8" stroke-miterlimit="10"/>
<path d="M99.383 47.6234C105.16 35.8152 95.7112 18.4754 80.8107 19.2309C65.1268 20.0604 60.6396 35.7888 60.6396 35.7888" stroke="#F3C545" stroke-width="0.8" stroke-miterlimit="10"/>
<path d="M99.3827 47.6234C104.2 37.7859 95.5244 21.3125 81.2634 21.3654C66.3522 21.4235 60.7192 35.8046 60.7192 35.8046" stroke="#F3C545" stroke-width="0.8" stroke-miterlimit="10"/>
<path d="M99.3823 47.6241C103.235 39.752 95.3374 24.2983 81.7159 23.5005C67.5829 22.6711 60.7988 35.8212 60.7988 35.8212" stroke="#F3C545" stroke-width="0.8" stroke-miterlimit="10"/>
<path d="M99.3822 47.6235C102.271 41.7221 95.1508 27.23 82.1689 25.6397C69.1869 24.0494 60.8786 35.8418 60.8786 35.8418" stroke="#F3C545" stroke-width="0.8" stroke-miterlimit="10"/>
<path d="M99.3822 47.6247C101.306 43.6887 94.9643 30.1687 82.6218 27.7754C70.2793 25.382 60.9639 35.8588 60.9639 35.8588" stroke="#F3C545" stroke-width="0.8" stroke-miterlimit="10"/>
<path d="M99.3834 47.6232C100.348 45.6578 94.7683 33.1364 83.076 29.9083C71.2558 26.696 61.045 35.8784 61.045 35.8784" stroke="#F3C545" stroke-width="0.8" stroke-miterlimit="10"/>
<path d="M99.3828 47.6245C99.3828 47.6245 94.5759 36.0646 83.5284 32.044C72.4809 28.0234 61.1244 35.8955 61.1244 35.8955" stroke="#F3C545" stroke-width="0.8" stroke-miterlimit="10"/>
</svg>
