<svg width="190" height="140" viewBox="0 0 190 140" fill="none" xmlns="http://www.w3.org/2000/svg">
<path d="M33.0985 62.4191C45.6851 47.1689 65.6284 38.0142 85.0186 35.676C97.884 34.1172 110.466 35.1804 122.684 39.6361C130.18 42.3258 137.294 46.1372 143.774 50.7596C148.464 54.1565 152.884 57.8823 156.711 62.2479L155.51 63.3562C151.409 59.5673 146.832 56.2199 142.11 53.2464C130.355 45.8173 117.009 40.8255 103.15 39.5731C83.755 38.0683 63.8432 42.569 47.2859 52.904C43.7155 55.1116 40.2889 57.5895 37.1052 60.3377C36.0439 61.2477 34.9917 62.2074 34.0428 63.194L33.103 62.4146H33.0985V62.4191Z" fill="#F3C545"/>
<path d="M156.887 79.0151C153.168 83.5248 148.703 87.2551 143.954 90.6115C130.27 100.194 113.691 105.285 97.057 105.88C84.7267 106.411 72.2751 103.961 61.0331 98.8471C50.533 94.0671 40.8199 87.4263 33 78.8889L34.1422 77.8347C36.1433 79.7584 38.3512 81.5605 40.5636 83.259C52.2238 92.1298 65.8671 98.5948 80.3244 101.055C105.709 105.055 132.995 97.6848 152.359 80.6099C153.393 79.6863 154.427 78.7042 155.331 77.7266L156.887 79.0151Z" fill="#F3C545"/>
<path d="M123.62 71.0209C123.615 88.7941 104.553 99.886 88.6706 93.6057C79.2992 90.0826 72.7564 81.1487 72.7204 71.0209C72.617 57.2709 84.574 46.4764 98.0059 46.5395C111.541 46.3547 123.728 57.1177 123.62 71.0209ZM119.86 71.0209C119.901 58.8613 110.525 48.0262 98.0059 47.9451C85.4913 47.8234 75.7377 58.7757 75.8232 71.0209C75.7153 82.4777 84.1108 92.9659 95.7305 94.1283C109.207 95.5384 119.977 84.0861 119.86 71.0209Z" fill="#F3C545"/>
<path d="M111.182 71.0209C111.178 88.7941 92.1158 99.886 76.2331 93.6057C66.8617 90.0826 60.3189 81.1487 60.2829 71.0209C60.1795 57.2709 72.1365 46.4764 85.5684 46.5395C99.1038 46.3547 111.29 57.1177 111.182 71.0209ZM107.423 71.0209C107.463 58.8613 98.0875 48.0262 85.5684 47.9451C73.0538 47.8234 63.3002 58.7757 63.3857 71.0209C63.2778 82.4777 71.6733 92.9659 83.293 94.1283C96.77 95.5384 107.54 84.0861 107.423 71.0209Z" fill="#F3C545"/>
<path d="M117.504 71.0209C117.5 88.7941 98.438 99.886 82.5553 93.6057C73.184 90.0826 66.6411 81.1487 66.6052 71.0209C66.5017 57.2709 78.4587 46.4764 91.8907 46.5395C105.426 46.3547 117.612 57.1177 117.504 71.0209ZM113.745 71.0209C113.786 58.8613 104.41 48.0262 91.8907 47.9451C79.3761 47.8234 69.6225 58.7757 69.7079 71.0209C69.6 82.4777 77.9956 92.9659 89.6153 94.1283C103.092 95.5384 113.862 84.0861 113.745 71.0209Z" fill="#F3C545"/>
<path d="M129.726 71.0209C129.722 88.7941 110.66 99.886 94.777 93.6057C85.4057 90.0826 78.8583 81.1487 78.8268 71.0209C78.7234 57.2709 90.6804 46.4764 104.112 46.5395C117.648 46.3547 129.834 57.1177 129.726 71.0209ZM125.967 71.0209C126.007 58.8613 116.631 48.0217 104.112 47.9451C91.5978 47.8234 81.8442 58.7757 81.9296 71.0209C81.8217 82.4777 90.2172 92.9659 101.841 94.1283C115.318 95.5384 126.088 84.0861 125.971 71.0209H125.967Z" fill="#F3C545"/>
</svg>
