<svg width="313" height="894" viewBox="0 0 313 894" fill="none" xmlns="http://www.w3.org/2000/svg">
<g opacity="0.3">
<mask id="mask0_578_10545" style="mask-type:alpha" maskUnits="userSpaceOnUse" x="0" y="0" width="313" height="894">
<rect y="0.5" width="312.55" height="893" fill="#D9D9D9"/>
</mask>
<g mask="url(#mask0_578_10545)">
<path d="M14.9385 -97.3452C-3.0374 -57.0205 -4.42901 -8.52115 11.8755 34.13C16.058 45.2179 21.4568 56.0328 27.752 66.1151C32.8774 74.6088 38.9511 82.7147 45.128 90.4346C60.1735 109.043 75.323 128.21 89.2469 147.65C105.248 170.507 121.453 195.08 126.109 222.816C127.954 232.615 128.123 242.502 128.9 252.309C129.64 258.125 131.151 263.809 132.928 269.44C147.597 313.814 184.077 368.712 144.418 407.934C110.616 444.824 99.5401 505.631 108.084 555.672C109.65 563.346 112.967 570.678 116.177 577.948C119.452 585.216 122.917 592.413 126.356 599.63C139.991 628.51 153.846 657.89 159.328 689.346C163.594 714.539 160.647 737.142 142.929 755.594C116.434 783.516 82.6371 803.045 54.3041 828.853C21.222 857.957 -6.51612 895.09 -0.456149 942.817C0.703852 952.39 2.07981 962.528 3.91287 972.028C7.45144 991.331 12.9639 1010.57 23.1344 1027.73C27.1477 1034.67 31.5963 1041.45 34.9223 1048.78C40.0022 1059.82 42.278 1071.8 43.5048 1083.66C43.6799 1085.64 43.8914 1087.61 44.0294 1089.59L44.4051 1095.51C45.7297 1116.76 35.8698 1133.88 18.3554 1144.99C-1.06584 1157.67 -24.1241 1163.35 -44.9651 1173.12C-58.5031 1179.46 -72.9106 1189.04 -74.8253 1205.27L-75.0982 1205.22C-73.3753 1188.77 -58.9243 1178.88 -45.3642 1172.33C-24.638 1162.24 -1.7955 1156.4 17.4245 1143.63C37.0416 1130.57 44.5672 1113.54 41.8979 1089.66C40.7858 1076.11 38.6513 1062.29 32.7937 1049.69C27.7361 1038.84 20.38 1029.13 15.3018 1018.25C4.86943 996.396 0.617201 972.455 -2.50161 948.917C-14.3413 879.586 39.6978 834.121 88.2596 797.756C109.574 780.918 142.344 760.002 153.719 735.172C170.139 694.521 142.557 638.797 125.005 600.234C121.62 592.997 118.199 585.77 114.967 578.454C111.8 571.128 108.508 563.748 106.944 555.84C99.5597 510.174 107.775 458.431 132.971 420.808C135.604 416.864 138.694 412.964 141.749 409.346C143.448 407.472 145.837 404.842 147.486 402.913C157.725 391.489 162.256 375.746 160.887 360.12C158.349 328.396 140.995 300 130.925 270.013C128.424 262.399 126.439 254.445 126.182 246.495C125.628 232.831 123.947 219.12 119.365 206.032C114.86 192.98 107.982 180.668 100.65 168.91C90.1473 152.302 77.8375 135.627 65.8377 120.066C56.2378 107.485 45.6744 94.8058 36.0911 82.196C26.4579 69.2695 18.5211 55.0953 12.3973 40.2781C0.103894 10.6543 -3.51767 -22.0902 1.35763 -53.0056C3.16931 -64.5868 6.03517 -75.9696 10.1251 -86.8495C11.4979 -90.4733 12.9667 -94.0526 14.7042 -97.5078L14.9551 -97.3737L14.957 -97.3457L14.9385 -97.3452Z" fill="#73206F"/>
<path d="M4.08261 -98.7498C-13.8933 -58.425 -15.2849 -9.92571 1.01968 32.7254C5.2021 43.8133 10.6009 54.6282 16.8961 64.7106C22.0215 73.2043 28.0953 81.3101 34.2721 89.03C49.3176 107.639 64.4672 126.805 78.391 146.245C94.3924 169.103 110.597 193.676 115.253 221.412C117.098 231.211 117.267 241.098 118.044 250.904C118.784 256.72 120.296 262.404 122.072 268.036C136.742 312.41 173.221 367.308 133.562 406.529C99.7602 443.42 88.6842 504.227 97.2278 554.267C98.7941 561.942 102.111 569.274 105.321 576.543C108.596 583.811 112.061 591.009 115.5 598.226C129.135 627.106 142.99 656.486 148.473 687.941C152.738 713.134 149.791 735.738 132.073 754.189C105.578 782.112 71.7813 801.641 43.4482 827.449C10.3662 856.552 -17.372 893.686 -11.312 941.413C-10.152 950.986 -8.77608 961.124 -6.94303 970.624C-3.40446 989.927 2.10799 1009.16 12.2785 1026.33C16.2918 1033.26 20.7404 1040.04 24.0664 1047.37C29.1463 1058.41 31.4221 1070.4 32.6489 1082.26C32.824 1084.24 33.0355 1086.2 33.1735 1088.18L33.5492 1094.1C34.8738 1115.36 25.014 1132.47 7.4995 1143.59C-11.9217 1156.27 -34.98 1161.95 -55.821 1171.72C-69.359 1178.05 -83.7665 1187.63 -85.6812 1203.86L-85.954 1203.81C-84.2312 1187.36 -69.7801 1177.47 -56.2201 1170.92C-35.4939 1160.84 -12.6514 1155 6.56861 1142.23C26.1857 1129.16 33.7114 1112.14 31.042 1088.25C29.9299 1074.71 27.7954 1060.88 21.9378 1048.29C16.8802 1037.43 9.52409 1027.72 4.44596 1016.85C-5.98643 994.992 -10.2387 971.051 -13.3575 947.512C-25.1972 878.181 28.8419 832.716 77.4037 796.351C98.7177 779.513 131.488 758.597 142.863 733.767C159.284 693.116 131.701 637.392 114.149 598.829C110.764 591.592 107.343 584.365 104.112 577.05C100.944 569.723 97.6518 562.344 96.0877 554.436C88.7038 508.77 96.9195 457.027 122.116 419.404C124.748 415.459 127.838 411.56 130.893 407.941C132.592 406.067 134.982 403.437 136.631 401.508C146.869 390.085 151.4 374.342 150.031 358.716C147.493 326.992 130.14 298.595 120.069 268.608C117.568 260.994 115.583 253.04 115.326 245.091C114.772 231.427 113.091 217.716 108.509 204.628C104.004 191.575 97.1261 179.263 89.7944 167.505C79.2914 150.898 66.9816 134.223 54.9818 118.662C45.3819 106.081 34.8185 93.4013 25.2353 80.7914C15.602 67.8649 7.66523 53.6907 1.54141 38.8736C-10.752 9.24977 -14.3735 -23.4948 -9.49824 -54.4102C-7.68656 -65.9914 -4.8207 -77.3741 -0.730804 -88.2541C0.641996 -91.8778 2.11079 -95.4572 3.84833 -98.9123L4.09921 -98.7783L4.10114 -98.7503L4.08261 -98.7498Z" fill="#73206F"/>
<path d="M-6.78201 -100.157C-24.7579 -59.8323 -26.1495 -11.333 -9.84493 31.3181C-5.66248 42.406 -0.263684 53.2209 6.03152 63.3033C11.1569 71.797 17.2306 79.9028 23.4075 87.6228C38.453 106.231 53.6026 125.398 67.5264 144.838C83.5278 167.696 99.7325 192.268 104.389 220.004C106.233 229.804 106.403 239.691 107.18 249.497C107.92 255.313 109.431 260.997 111.208 266.628C125.877 311.002 162.357 365.9 122.698 405.122C88.8956 442.012 77.8196 502.819 86.3632 552.86C87.9296 560.534 91.2462 567.867 94.4563 575.136C97.7314 582.404 101.197 589.601 104.635 596.818C118.27 625.699 132.126 655.078 137.608 686.534C141.873 711.727 138.926 734.331 121.208 752.782C94.713 780.704 60.9167 800.233 32.5836 826.041C-0.498429 855.145 -28.2366 892.279 -22.1766 940.006C-21.0166 949.579 -19.6407 959.716 -17.8076 969.217C-14.269 988.519 -8.75662 1007.75 1.41389 1024.92C5.42718 1031.85 9.87578 1038.63 13.2017 1045.97C18.2817 1057 20.5575 1068.99 21.7843 1080.85C21.9594 1082.83 22.1709 1084.8 22.3089 1086.78L22.6846 1092.69C24.0092 1113.95 14.1494 1131.07 -3.36508 1142.18C-22.7863 1154.86 -45.8446 1160.54 -66.6856 1170.31C-80.2236 1176.64 -94.6311 1186.23 -96.5458 1202.46L-96.8186 1202.41C-95.0957 1185.96 -80.6448 1176.07 -67.0847 1169.51C-46.3585 1159.43 -23.516 1153.59 -4.29601 1140.82C15.3211 1127.76 22.8468 1110.73 20.1775 1086.85C19.0653 1073.3 16.9308 1059.48 11.0732 1046.88C6.01556 1036.03 -1.34049 1026.32 -6.41862 1015.44C-16.851 993.584 -21.1032 969.644 -24.2221 946.105C-36.0618 876.774 17.9773 831.309 66.5391 794.944C87.853 778.106 120.624 757.19 131.998 732.36C148.419 691.709 120.836 635.985 103.284 597.422C99.8997 590.185 96.4789 582.958 93.2469 575.642C90.0793 568.316 86.7872 560.936 85.2231 553.028C77.8392 507.362 86.0549 455.619 111.251 417.997C113.883 414.052 116.974 410.152 120.028 406.534C121.727 404.66 124.117 402.03 125.766 400.101C136.004 388.677 140.535 372.934 139.167 357.308C136.629 325.584 119.275 297.188 109.204 267.201C106.704 259.587 104.719 251.633 104.461 243.684C103.908 230.02 102.227 216.309 97.6447 203.22C93.1395 190.168 86.2615 177.856 78.9298 166.098C68.4268 149.491 56.1171 132.815 44.1172 117.255C34.5173 104.673 23.9539 91.994 14.3706 79.3841C4.73742 66.4576 -3.19935 52.2834 -9.32317 37.4663C-21.6166 7.84248 -25.2381 -24.9021 -20.3628 -55.8175C-18.5512 -67.3987 -15.6853 -78.7814 -11.5954 -89.6614C-10.2226 -93.2851 -8.75382 -96.8645 -7.01629 -100.32L-6.7654 -100.186L-6.76344 -100.158L-6.78201 -100.157Z" fill="#73206F"/>
<path d="M-17.6467 -101.564C-35.6225 -61.2388 -37.0141 -12.7395 -20.7096 29.9117C-16.5271 40.9996 -11.1283 51.8145 -4.83313 61.8968C0.292276 70.3905 6.36602 78.4963 12.5429 86.2163C27.5884 104.825 42.7379 123.992 56.6618 143.432C72.6632 166.289 88.8679 190.862 93.5241 218.598C95.3688 228.397 95.5382 238.284 96.3151 248.091C97.0552 253.906 98.5663 259.591 100.343 265.222C115.012 309.596 151.492 364.494 111.833 403.716C78.031 440.606 66.9549 501.413 75.4985 551.454C77.0649 559.128 80.3816 566.46 83.5917 573.729C86.8667 580.997 90.3319 588.195 93.7613 595.412C107.396 624.292 121.252 653.672 126.734 685.127C130.999 710.321 128.052 732.924 110.334 751.376C83.8391 779.298 50.0428 798.827 21.7097 824.635C-11.3724 853.739 -39.1105 890.872 -33.0506 938.599C-31.8905 948.172 -30.5146 958.31 -28.6815 967.81C-25.1429 987.113 -19.6305 1006.35 -9.46002 1023.52C-5.44676 1030.45 -0.998117 1037.23 2.32784 1044.56C7.4078 1055.6 9.68355 1067.58 10.9104 1079.45C11.0855 1081.42 11.297 1083.39 11.435 1085.37L11.8106 1091.29C13.1353 1112.54 3.27546 1129.66 -14.239 1140.78C-33.6602 1153.45 -56.7185 1159.13 -77.5595 1168.9C-91.0975 1175.24 -105.505 1184.82 -107.42 1201.05L-107.693 1201C-105.97 1184.55 -91.5187 1174.66 -77.9586 1168.11C-57.2324 1158.03 -34.3899 1152.18 -15.1699 1139.42C4.44719 1126.35 11.9728 1109.33 9.30352 1085.44C8.19137 1071.89 6.05692 1058.07 0.199286 1045.47C-4.85838 1034.62 -12.2144 1024.91 -17.2926 1014.03C-27.7249 992.178 -31.9772 968.237 -35.096 944.699C-46.9357 875.368 7.10339 829.902 55.6651 793.538C76.9791 776.699 109.741 755.784 121.125 730.954C137.536 690.303 109.962 634.579 92.4101 596.016C89.0257 588.779 85.605 581.552 82.373 574.236C79.2054 566.91 75.9132 559.53 74.3492 551.622C66.9653 505.956 75.1809 454.213 100.377 416.59C103.009 412.646 106.1 408.746 109.154 405.128C110.853 403.254 113.243 400.624 114.892 398.695C125.13 387.271 129.661 371.528 128.293 355.902C125.755 324.178 108.401 295.782 98.3303 265.795C95.8299 258.181 93.8447 250.227 93.5874 242.277C93.0338 228.613 91.3529 214.902 86.7708 201.814C82.2656 188.762 75.3876 176.45 68.0559 164.692C57.5529 148.084 45.2431 131.409 33.2433 115.848C23.6434 103.267 13.08 90.5878 3.49671 77.9779C-6.13648 65.0514 -14.0733 50.8772 -20.1971 36.06C-32.4905 6.43625 -36.1121 -26.3083 -31.2368 -57.2237C-29.4251 -68.8049 -26.5592 -80.1877 -22.4693 -91.0676C-21.0965 -94.6914 -19.6277 -98.2707 -17.8902 -101.726L-17.6393 -101.592L-17.6373 -101.564L-17.6467 -101.564Z" fill="#73206F"/>
<path d="M-28.5114 -102.968C-46.4873 -62.6436 -47.8789 -14.1443 -31.5743 28.5069C-27.3919 39.5948 -21.9931 50.4097 -15.6979 60.492C-10.5725 68.9858 -4.49878 77.0915 1.67807 84.8115C16.7236 103.42 31.8732 122.587 45.797 142.027C61.7984 164.884 78.0031 189.457 82.6594 217.193C84.504 226.992 84.6735 236.879 85.4504 246.686C86.1904 252.502 87.7016 258.186 89.4784 263.817C104.148 308.191 140.627 363.089 100.968 402.311C67.1662 439.201 56.0902 500.008 64.6338 550.049C66.2001 557.723 69.5168 565.055 72.7269 572.325C76.002 579.592 79.4671 586.79 82.8966 594.007C96.5314 622.888 110.387 652.267 115.869 683.723C120.135 708.916 117.187 731.52 99.4693 749.971C72.9743 777.893 39.178 797.422 10.845 823.23C-22.2371 852.334 -49.9753 889.468 -43.9153 937.195C-42.7553 946.767 -41.3793 956.905 -39.5463 966.406C-36.0077 985.708 -30.4953 1004.94 -20.3248 1022.11C-16.3115 1029.04 -11.8629 1035.82 -8.53692 1043.16C-3.45697 1054.19 -1.18118 1066.18 0.0456482 1078.04C0.22075 1080.02 0.432242 1081.99 0.570264 1083.96L0.945886 1089.88C2.27057 1111.14 -7.58931 1128.25 -25.1037 1139.37C-44.525 1152.05 -67.5832 1157.73 -88.4243 1167.5C-101.962 1173.83 -116.37 1183.41 -118.284 1199.64L-118.557 1199.6C-116.834 1183.15 -102.383 1173.25 -88.8234 1166.7C-68.0972 1156.62 -45.2546 1150.78 -26.0346 1138.01C-6.41754 1124.94 1.10808 1107.92 -1.56122 1084.04C-2.67336 1070.49 -4.80782 1056.67 -10.6655 1044.07C-15.7231 1033.22 -23.0791 1023.51 -28.1573 1012.63C-38.5897 990.773 -42.8419 966.833 -45.9607 943.294C-57.8005 873.963 -3.76138 828.498 44.8004 792.133C66.1143 775.295 98.8758 754.379 110.26 729.549C126.671 688.898 99.0974 633.174 81.5453 594.611C78.161 587.374 74.7402 580.147 71.5083 572.831C68.3406 565.505 65.0485 558.125 63.4844 550.217C56.1006 504.551 64.3162 452.808 89.5122 415.186C92.1445 411.241 95.2351 407.341 98.2896 403.723C99.9888 401.849 102.378 399.219 104.027 397.29C114.266 385.866 118.797 370.123 117.428 354.497C114.89 322.773 97.5363 294.377 87.4655 264.39C84.9652 256.776 82.9799 248.822 82.7227 240.873C82.169 227.209 80.4881 213.498 75.9061 200.409C71.4008 187.357 64.5229 175.045 57.1912 163.287C46.6882 146.679 34.3783 130.004 22.3785 114.444C12.7786 101.862 2.21521 89.183 -7.36805 76.5731C-17.0012 63.6466 -24.938 49.4724 -31.0619 34.6553C-43.3553 5.03146 -46.9768 -27.7131 -42.1015 -58.6285C-40.2899 -70.2097 -37.424 -81.5924 -33.3341 -92.4724C-31.9613 -96.0961 -30.4925 -99.6755 -28.7549 -103.131L-28.5041 -102.997L-28.5021 -102.969L-28.5114 -102.968Z" fill="#73206F"/>
<path d="M-39.3761 -104.372C-57.3519 -64.0475 -58.7435 -15.5482 -42.439 27.1029C-38.2566 38.1908 -32.8578 49.0058 -26.5626 59.0881C-21.4371 67.5818 -15.3634 75.6876 -9.18658 83.4076C5.85896 102.016 21.0085 121.183 34.9324 140.623C50.9338 163.48 67.1385 188.053 71.7947 215.789C73.6394 225.588 73.8088 235.475 74.5857 245.282C75.3258 251.098 76.8369 256.782 78.6138 262.413C93.2829 306.787 129.763 361.685 90.1038 400.907C56.3016 437.797 45.2255 498.604 53.7691 548.645C55.3355 556.319 58.6522 563.651 61.8623 570.921C65.1373 578.188 68.6025 585.386 72.0412 592.603C85.6761 621.483 99.5315 650.863 105.014 682.319C109.279 707.512 106.332 730.115 88.6139 748.567C62.119 776.489 28.3226 796.018 -0.0104663 821.826C-33.0925 850.93 -60.8307 888.063 -54.7707 935.79C-53.6107 945.363 -52.2347 955.501 -50.4017 965.001C-46.8631 984.304 -41.3507 1003.54 -31.1802 1020.71C-27.1669 1027.64 -22.7183 1034.42 -19.3923 1041.75C-14.3124 1052.79 -12.0366 1064.77 -10.8098 1076.64C-10.6347 1078.61 -10.4232 1080.58 -10.2851 1082.56L-9.90952 1088.48C-8.58483 1109.73 -18.4447 1126.85 -35.9591 1137.97C-55.3804 1150.64 -78.4386 1156.33 -99.2797 1166.09C-112.818 1172.43 -127.225 1182.01 -129.14 1198.24L-129.413 1198.19C-127.69 1181.74 -113.239 1171.85 -99.6788 1165.3C-78.9526 1155.22 -56.1101 1149.37 -36.8901 1136.61C-17.273 1123.54 -9.74732 1106.52 -12.4166 1082.63C-13.5288 1069.08 -15.6632 1055.26 -21.5208 1042.66C-26.5785 1031.81 -33.9345 1022.1 -39.0127 1011.22C-49.4451 989.369 -53.6973 965.428 -56.8161 941.89C-68.6559 872.559 -14.6167 827.094 33.945 790.729C55.259 773.89 88.0204 752.975 99.4044 728.145C115.816 687.494 88.242 631.77 70.6899 593.207C67.3056 585.97 63.8848 578.743 60.6529 571.427C57.4852 564.101 54.1931 556.721 52.629 548.813C45.2452 503.147 53.4608 451.404 78.6569 413.781C81.2891 409.837 84.3797 405.937 87.4342 402.319C89.1334 400.445 91.523 397.815 93.1719 395.886C103.41 384.462 107.941 368.719 106.573 353.093C104.035 321.369 86.6809 292.973 76.6102 262.986C74.1098 255.372 72.1245 247.418 71.8673 239.468C71.3136 225.804 69.6327 212.093 65.0507 199.005C60.5454 185.953 53.6675 173.641 46.3358 161.883C35.8328 145.275 23.523 128.6 11.5231 113.039C1.92324 100.458 -8.64016 87.7788 -18.2234 75.169C-27.8566 62.2425 -35.7934 48.0682 -41.9172 33.2511C-54.2106 3.62729 -57.8322 -29.1173 -52.9569 -60.0327C-51.1452 -71.6139 -48.2794 -82.9966 -44.1895 -93.8765C-42.8167 -97.5003 -41.3479 -101.08 -39.6103 -104.535L-39.3595 -104.401L-39.3575 -104.373L-39.3761 -104.372Z" fill="#73206F"/>
<path d="M-50.2321 -105.777C-68.208 -65.4521 -69.5996 -16.9528 -53.295 25.6984C-49.1126 36.7862 -43.7138 47.6012 -37.4186 57.6835C-32.2932 66.1772 -26.2194 74.283 -20.0426 82.003C-4.99706 100.611 10.1524 119.778 24.0763 139.218C40.0777 162.076 56.2824 186.648 60.9387 214.385C62.7833 224.184 62.9527 234.071 63.7296 243.877C64.4697 249.693 65.9809 255.377 67.7577 261.009C82.4269 305.383 118.907 360.28 79.2477 399.502C45.4455 436.393 34.3695 497.199 42.9131 547.24C44.4794 554.915 47.7961 562.247 51.0062 569.516C54.2813 576.784 57.7464 583.982 61.1852 591.199C74.82 620.079 88.6755 649.459 94.1578 680.914C98.4231 706.107 95.476 728.711 77.7579 747.162C51.2629 775.085 17.4666 794.613 -10.8665 820.422C-43.9485 849.525 -71.6867 886.659 -65.6268 934.386C-64.4667 943.959 -63.0908 954.097 -61.2577 963.597C-57.7192 982.9 -52.2067 1002.14 -42.0362 1019.3C-38.0229 1026.23 -33.5743 1033.01 -30.2484 1040.35C-25.1684 1051.38 -22.8926 1063.37 -21.6658 1075.23C-21.4907 1077.21 -21.2792 1079.18 -21.1412 1081.16L-20.7655 1087.07C-19.4409 1108.33 -29.3007 1125.45 -46.8152 1136.56C-66.2364 1149.24 -89.2947 1154.92 -110.136 1164.69C-123.674 1171.02 -138.081 1180.61 -139.996 1196.84L-140.269 1196.79C-138.546 1180.34 -124.095 1170.45 -110.535 1163.9C-89.8086 1153.81 -66.9661 1147.97 -47.7461 1135.2C-28.129 1122.14 -20.6034 1105.11 -23.2727 1081.23C-24.3848 1067.68 -26.5193 1053.86 -32.3769 1041.26C-37.4346 1030.41 -44.7906 1020.7 -49.8688 1009.82C-60.3012 987.965 -64.5534 964.024 -67.6722 940.485C-79.5119 871.154 -25.4728 825.689 23.089 789.324C44.4029 772.486 77.1737 751.57 88.5484 726.74C104.969 686.089 77.386 630.365 59.8339 591.802C56.4495 584.565 53.0287 577.338 49.7968 570.023C46.6292 562.696 43.3371 555.317 41.773 547.408C34.3891 501.743 42.6048 450 67.8008 412.377C70.4331 408.432 73.5237 404.533 76.5781 400.914C78.2773 399.04 80.6669 396.41 82.3158 394.481C92.5542 383.057 97.0852 367.315 95.7166 351.689C93.1787 319.965 75.8249 291.568 65.7541 261.581C63.2538 253.967 61.2685 246.013 61.0112 238.064C60.4576 224.4 58.7767 210.689 54.1946 197.601C49.6894 184.548 42.8114 172.236 35.4797 160.478C24.9767 143.871 12.6669 127.196 0.667059 111.635C-8.93278 99.0535 -19.4962 86.3742 -29.0795 73.7644C-38.7127 60.8379 -46.6495 46.6636 -52.7733 31.8465C-65.0667 2.22272 -68.6883 -30.5219 -63.813 -61.4373C-62.0013 -73.0185 -59.1354 -84.4012 -55.0455 -95.2811C-53.6727 -98.9049 -52.2039 -102.484 -50.4664 -105.939L-50.2155 -105.805L-50.2136 -105.777L-50.2321 -105.777Z" fill="#73206F"/>
<path d="M-61.0959 -107.183C-79.0718 -66.8587 -80.4634 -18.3593 -64.1589 24.2918C-59.9765 35.3797 -54.5776 46.1946 -48.2824 56.2769C-43.157 64.7706 -37.0833 72.8765 -30.9065 80.5964C-15.8609 99.2049 -0.711398 118.372 13.2125 137.812C29.2139 160.669 45.4186 185.242 50.0748 212.978C51.9195 222.777 52.0889 232.664 52.8658 242.471C53.6059 248.286 55.117 253.971 56.8939 259.602C71.563 303.976 108.043 358.874 68.3839 398.096C34.5817 434.986 23.5057 495.793 32.0492 545.834C33.6156 553.508 36.9323 560.84 40.1424 568.11C43.4174 575.377 46.8826 582.575 50.3213 589.792C63.9562 618.672 77.8116 648.052 83.294 679.507C87.5592 704.701 84.6122 727.304 66.894 745.755C40.3991 773.678 6.60273 793.207 -21.7303 819.015C-54.8124 848.118 -82.5505 885.252 -76.4906 932.979C-75.3305 942.552 -73.9546 952.69 -72.1216 962.19C-68.583 981.493 -63.0706 1000.73 -52.9001 1017.9C-48.8868 1024.83 -44.4382 1031.61 -41.1122 1038.94C-36.0322 1049.98 -33.7564 1061.96 -32.5297 1073.83C-32.3546 1075.8 -32.143 1077.77 -32.005 1079.75L-31.6294 1085.67C-30.3047 1106.92 -40.1646 1124.04 -57.679 1135.16C-77.1003 1147.83 -100.159 1153.51 -121 1163.28C-134.538 1169.62 -148.945 1179.2 -150.86 1195.43L-151.133 1195.38C-149.41 1178.93 -134.959 1169.04 -121.399 1162.49C-100.672 1152.41 -77.8299 1146.56 -58.6099 1133.8C-38.9928 1120.73 -31.4672 1103.71 -34.1365 1079.82C-35.2487 1066.27 -37.3831 1052.45 -43.2407 1039.85C-48.2984 1029 -55.6545 1019.29 -60.7326 1008.41C-71.165 986.558 -75.4172 962.617 -78.536 939.078C-90.3757 869.748 -36.3366 824.282 12.2251 787.917C33.5391 771.079 66.3092 750.155 77.6846 725.334C94.105 684.683 66.5222 628.959 48.9701 590.396C45.5857 583.158 42.1649 575.932 38.933 568.616C35.7653 561.29 32.4732 553.91 30.9091 546.002C23.5253 500.336 31.7409 448.593 56.937 410.97C59.5693 407.026 62.6598 403.126 65.7143 399.508C67.4135 397.633 69.8031 395.004 71.452 393.075C81.6904 381.651 86.2214 365.908 84.8528 350.282C82.3149 318.558 64.961 290.162 54.8903 260.175C52.3899 252.561 50.4046 244.607 50.1474 236.657C49.5937 222.993 47.9128 209.282 43.3308 196.194C38.8256 183.142 31.9476 170.83 24.6159 159.071C14.1129 142.464 1.80309 125.789 -10.1968 110.228C-19.7966 97.6469 -30.36 84.9676 -39.9433 72.3578C-49.5765 59.4313 -57.5133 45.2571 -63.6371 30.4399C-75.9305 0.816147 -79.5521 -31.9284 -74.6768 -62.8438C-72.8651 -74.425 -69.9993 -85.8078 -65.9093 -96.6877C-64.5365 -100.311 -63.0678 -103.891 -61.3302 -107.346L-61.0794 -107.212L-61.0774 -107.184L-61.0959 -107.183Z" fill="#73206F"/>
<path d="M-71.9606 -108.591C-89.9364 -68.2658 -91.328 -19.7664 -75.0235 22.8847C-70.8411 33.9726 -65.4422 44.7875 -59.1471 54.8698C-54.0216 63.3636 -47.9479 71.4694 -41.7711 79.1893C-26.7255 97.7978 -11.576 116.965 2.34786 136.405C18.3493 159.262 34.5539 183.835 39.2102 211.571C41.0549 221.37 41.2243 231.257 42.0012 241.064C42.7413 246.879 44.2524 252.564 46.0292 258.195C60.6984 302.569 97.1781 357.467 57.5193 396.689C23.7171 433.579 12.641 494.386 21.1846 544.427C22.751 552.101 26.0676 559.433 29.2778 566.702C32.5528 573.97 36.018 581.168 39.4474 588.385C53.0823 617.265 66.9378 646.645 72.4201 678.101C76.6854 703.294 73.7383 725.897 56.0202 744.349C29.5252 772.271 -4.27115 791.8 -32.6042 817.608C-65.6862 846.712 -93.4244 883.845 -87.3645 931.572C-86.2044 941.145 -84.8285 951.283 -82.9954 960.783C-79.4569 980.086 -73.9444 999.322 -63.7739 1016.49C-59.7606 1023.42 -55.312 1030.2 -51.9861 1037.53C-46.9061 1048.57 -44.6303 1060.56 -43.4035 1072.42C-43.2284 1074.4 -43.0169 1076.36 -42.8789 1078.34L-42.5033 1084.26C-41.1786 1105.52 -51.0384 1122.63 -68.5529 1133.75C-87.9741 1146.43 -111.032 1152.11 -131.873 1161.88C-145.411 1168.21 -159.819 1177.79 -161.734 1194.02L-162.006 1193.97C-160.284 1177.52 -145.833 1167.63 -132.273 1161.08C-111.546 1151 -88.7038 1145.15 -69.4838 1132.39C-49.8667 1119.32 -42.3411 1102.3 -45.0104 1078.41C-46.1225 1064.87 -48.257 1051.04 -54.1146 1038.45C-59.1723 1027.59 -66.5283 1017.88 -71.6064 1007.01C-82.0388 985.151 -86.2911 961.21 -89.4099 937.672C-101.25 868.341 -47.2105 822.876 1.35123 786.511C22.6652 769.673 55.4267 748.757 66.8106 723.927C83.2218 683.276 55.6483 627.552 38.0962 588.989C34.7118 581.752 31.291 574.525 28.0591 567.209C24.8915 559.883 21.5994 552.503 20.0353 544.595C12.6514 498.929 20.867 447.186 46.0631 409.563C48.6953 405.619 51.7859 401.719 54.8404 398.101C56.5396 396.227 58.9292 393.597 60.5781 391.668C70.8165 380.244 75.3475 364.501 73.9789 348.875C71.441 317.151 54.0872 288.755 44.0164 258.768C41.516 251.154 39.5307 243.2 39.2735 235.25C38.7198 221.586 37.039 207.875 32.4569 194.787C27.9517 181.735 21.0737 169.423 13.742 157.665C3.23902 141.057 -9.07079 124.382 -21.0706 108.821C-30.6705 96.24 -41.2339 83.5608 -50.8172 70.9509C-60.4504 58.0244 -68.3872 43.8502 -74.511 29.0331C-86.8044 -0.590714 -90.426 -33.3353 -85.5507 -64.2507C-83.739 -75.8319 -80.8731 -87.2146 -76.7832 -98.0946C-75.4104 -101.718 -73.9416 -105.298 -72.2041 -108.753L-71.9532 -108.619L-71.9513 -108.591L-71.9606 -108.591Z" fill="#73206F"/>
<path d="M-82.8253 -109.995C-100.801 -69.6699 -102.193 -21.1706 -85.8883 21.4806C-81.7059 32.5684 -76.307 43.3834 -70.0119 53.4657C-64.8864 61.9594 -58.8127 70.0652 -52.6359 77.7852C-37.5903 96.3937 -22.4408 115.561 -8.51697 135.001C7.48448 157.858 23.6892 182.431 28.3454 210.167C30.19 219.966 30.3595 229.853 31.1364 239.66C31.8765 245.475 33.3876 251.16 35.1644 256.791C49.8336 301.165 86.3133 356.063 46.6545 395.285C12.8523 432.175 1.77624 492.982 10.3198 543.022C11.8862 550.697 15.2029 558.029 18.413 565.298C21.688 572.566 25.1532 579.764 28.5826 586.981C42.2175 615.861 56.073 645.241 61.5553 676.696C65.8206 701.89 62.8735 724.493 45.1554 742.944C18.6604 770.867 -15.1359 790.396 -43.469 816.204C-76.5511 845.307 -104.289 882.441 -98.2293 930.168C-97.0692 939.741 -95.6933 949.879 -93.8602 959.379C-90.3217 978.682 -84.8092 997.918 -74.6387 1015.08C-70.6254 1022.02 -66.1768 1028.8 -62.8509 1036.13C-57.7709 1047.17 -55.4951 1059.15 -54.2683 1071.01C-54.0932 1072.99 -53.8817 1074.96 -53.7437 1076.94L-53.368 1082.86C-52.0434 1104.11 -61.9032 1121.23 -79.4177 1132.34C-98.8389 1145.02 -121.897 1150.7 -142.738 1160.47C-156.276 1166.81 -170.684 1176.39 -172.598 1192.62L-172.871 1192.57C-171.148 1176.12 -156.697 1166.23 -143.137 1159.68C-122.411 1149.59 -99.5686 1143.75 -80.3486 1130.98C-60.7315 1117.92 -53.2059 1100.9 -55.8752 1077.01C-56.9873 1063.46 -59.1218 1049.64 -64.9794 1037.04C-70.0371 1026.19 -77.3931 1016.48 -82.4713 1005.6C-92.9036 983.747 -97.1559 959.806 -100.275 936.267C-112.114 866.937 -58.0753 821.471 -9.51353 785.106C11.8004 768.268 44.5619 747.353 55.9459 722.523C72.357 681.872 44.7834 626.148 27.2314 587.585C23.847 580.347 20.4262 573.121 17.1943 565.805C14.0266 558.479 10.7345 551.099 9.17044 543.191C1.78662 497.525 10.0022 445.782 35.1983 408.159C37.8306 404.215 40.9211 400.315 43.9756 396.697C45.6748 394.823 48.0644 392.193 49.7133 390.264C59.9517 378.84 64.4827 363.097 63.1141 347.471C60.5762 315.747 43.2224 287.351 33.1516 257.364C30.6512 249.75 28.666 241.796 28.4087 233.846C27.8551 220.182 26.1741 206.471 21.5921 193.383C17.0869 180.331 10.2089 168.019 2.87721 156.26C-7.62581 139.653 -19.9356 122.978 -31.9354 107.417C-41.5353 94.8359 -52.0987 82.1566 -61.682 69.5468C-71.3152 56.6203 -79.252 42.4461 -85.3758 27.6289C-97.6692 -1.99487 -101.291 -34.7394 -96.4155 -65.6548C-94.6038 -77.236 -91.7379 -88.6188 -87.648 -99.4987C-86.2752 -103.122 -84.8064 -106.702 -83.0689 -110.157L-82.818 -110.023L-82.8161 -109.995L-82.8253 -109.995Z" fill="#73206F"/>
<path d="M-93.6902 -111.399C-111.666 -71.0744 -113.058 -22.575 -96.7531 20.0761C-92.5707 31.164 -87.1719 41.9789 -80.8767 52.0612C-75.7513 60.555 -69.6776 68.6608 -63.5007 76.3807C-48.4552 94.9892 -33.3057 114.156 -19.3818 133.596C-3.38036 156.454 12.8243 181.026 17.4806 208.762C19.3252 218.561 19.4947 228.449 20.2716 238.255C21.0116 244.071 22.5228 249.755 24.2996 255.386C38.9687 299.76 75.4484 354.658 35.7897 393.88C1.98745 430.77 -9.0886 491.577 -0.545031 541.618C1.02133 549.292 4.33798 556.625 7.54813 563.894C10.8231 571.162 14.2884 578.359 17.7178 585.577C31.3527 614.457 45.2081 643.837 50.6904 675.292C54.9557 700.485 52.0086 723.089 34.2905 741.54C7.79552 769.462 -26.0008 788.991 -54.3338 814.8C-87.4159 843.903 -115.154 881.037 -109.094 928.764C-107.934 938.337 -106.558 948.475 -104.725 957.975C-101.187 977.278 -95.6741 996.513 -85.5036 1013.68C-81.4903 1020.61 -77.0417 1027.39 -73.7157 1034.72C-68.6358 1045.76 -66.36 1057.75 -65.1332 1069.61C-64.9581 1071.59 -64.7465 1073.55 -64.6085 1075.53L-64.2329 1081.45C-62.9082 1102.71 -72.7681 1119.82 -90.2826 1130.94C-109.704 1143.62 -132.762 1149.3 -153.603 1159.07C-167.141 1165.4 -181.549 1174.98 -183.463 1191.21L-183.736 1191.16C-182.013 1174.71 -167.562 1164.82 -154.002 1158.27C-133.276 1148.19 -110.433 1142.35 -91.2135 1129.58C-71.5963 1116.51 -64.0707 1099.49 -66.74 1075.6C-67.8522 1062.06 -69.9866 1048.24 -75.8443 1035.64C-80.9019 1024.79 -88.258 1015.08 -93.3361 1004.2C-103.769 982.343 -108.021 958.402 -111.14 934.863C-122.979 865.532 -68.9402 820.067 -20.3784 783.702C0.935559 766.864 33.697 745.949 45.081 721.118C61.4922 680.467 33.9186 624.743 16.3665 586.18C12.9822 578.943 9.56141 571.716 6.32948 564.401C3.16183 557.074 -0.130295 549.695 -1.6944 541.786C-9.07825 496.121 -0.862593 444.378 24.3334 406.755C26.9657 402.81 30.0563 398.911 33.1107 395.292C34.81 393.418 37.1995 390.788 38.8485 388.859C49.0869 377.435 53.6179 361.693 52.2493 346.067C49.7114 314.343 32.3575 285.946 22.2867 255.959C19.7864 248.345 17.8011 240.391 17.5439 232.442C16.9902 218.778 15.3093 205.067 10.7273 191.979C6.22206 178.926 -0.655953 166.614 -7.98763 154.856C-18.4906 138.249 -30.8005 121.574 -42.8003 106.013C-52.4002 93.4314 -62.9636 80.7522 -72.5468 68.1423C-82.1801 55.2158 -90.1168 41.0416 -96.2407 26.2245C-108.534 -3.39931 -112.156 -36.1439 -107.28 -67.0593C-105.469 -78.6405 -102.603 -90.0232 -98.5129 -100.903C-97.1401 -104.527 -95.6713 -108.106 -93.9337 -111.561L-93.6829 -111.427L-93.6809 -111.399L-93.6902 -111.399Z" fill="#73206F"/>
<path d="M-104.546 -112.801C-122.522 -72.4766 -123.914 -23.9772 -107.609 18.6739C-103.427 29.7618 -98.0279 40.5767 -91.7327 50.659C-86.6072 59.1528 -80.5335 67.2586 -74.3567 74.9785C-59.3111 93.587 -44.1616 112.754 -30.2378 132.194C-14.2363 155.051 1.96834 179.624 6.62462 207.36C8.46926 217.159 8.63868 227.046 9.41559 236.853C10.1556 242.669 11.6668 248.353 13.4436 253.984C28.1128 298.358 64.5925 353.256 24.9337 392.478C-8.86852 429.368 -19.9446 490.175 -11.401 540.216C-9.83462 547.89 -6.51797 555.222 -3.30785 562.492C-0.0328054 569.759 3.43239 576.957 6.87107 584.174C20.5059 613.054 34.3614 642.434 39.8437 673.889C44.109 699.083 41.1619 721.686 23.4438 740.138C-3.05114 768.06 -36.8475 787.589 -65.1805 813.397C-98.2626 842.501 -126.001 879.634 -119.941 927.361C-118.781 936.934 -117.405 947.072 -115.572 956.572C-112.033 975.875 -106.521 995.111 -96.3503 1012.28C-92.337 1019.21 -87.8884 1025.99 -84.5624 1033.32C-79.4825 1044.36 -77.2067 1056.35 -75.9799 1068.21C-75.8048 1070.19 -75.5933 1072.15 -75.4553 1074.13L-75.0796 1080.05C-73.7549 1101.3 -83.6148 1118.42 -101.129 1129.54C-120.55 1142.22 -143.609 1147.9 -164.45 1157.66C-177.988 1164 -192.395 1173.58 -194.31 1189.81L-194.583 1189.76C-192.86 1173.31 -178.409 1163.42 -164.849 1156.87C-144.123 1146.79 -121.28 1140.94 -102.06 1128.18C-82.443 1115.11 -74.9174 1098.09 -77.5867 1074.2C-78.6989 1060.65 -80.8333 1046.83 -86.6909 1034.23C-91.7486 1023.38 -99.1046 1013.67 -104.183 1002.79C-114.615 980.94 -118.867 956.999 -121.986 933.461C-133.826 864.13 -79.7869 818.664 -31.2251 782.3C-9.91113 765.461 22.8504 744.546 34.2343 719.716C50.6548 679.065 23.0719 623.341 5.51986 584.778C2.13548 577.541 -1.28531 570.314 -4.51721 562.998C-7.68489 555.672 -10.977 548.292 -12.5411 540.384C-19.9249 494.718 -11.7093 442.975 13.4868 405.352C16.119 401.408 19.2096 397.508 22.2641 393.89C23.9633 392.016 26.3529 389.386 28.0018 387.457C38.2402 376.033 42.7712 360.29 41.4026 344.664C38.8647 312.94 21.5108 284.544 11.4401 254.557C8.9397 246.943 6.95442 238.989 6.69716 231.039C6.14353 217.375 4.4626 203.664 -0.119435 190.576C-4.62467 177.524 -11.5026 165.212 -18.8343 153.454C-29.3373 136.846 -41.6471 120.171 -53.647 104.61C-63.2468 92.029 -73.8103 79.3497 -83.3935 66.7399C-93.0268 53.8134 -100.964 39.6392 -107.087 24.822C-119.381 -4.80175 -123.002 -37.5463 -118.127 -68.4617C-116.315 -80.0429 -113.449 -91.4257 -109.36 -102.306C-107.987 -105.929 -106.518 -109.509 -104.78 -112.964L-104.53 -112.83L-104.528 -112.802L-104.546 -112.801Z" fill="#73206F"/>
<path d="M-115.411 -114.208C-133.387 -73.8831 -134.778 -25.3838 -118.474 17.2673C-114.291 28.3552 -108.892 39.1701 -102.597 49.2525C-97.4719 57.7462 -91.3981 65.852 -85.2213 73.5719C-70.1757 92.1804 -55.0262 111.347 -41.1024 130.787C-25.1009 153.645 -8.89628 178.217 -4.23999 205.954C-2.39539 215.753 -2.22594 225.64 -1.44899 235.446C-0.708965 241.262 0.802219 246.946 2.57904 252.578C17.2482 296.952 53.7278 351.849 14.0691 391.071C-19.7332 427.961 -30.8092 488.768 -22.2656 538.809C-20.6992 546.484 -17.3826 553.816 -14.1725 561.085C-10.8974 568.353 -7.4322 575.551 -3.99352 582.768C9.64134 611.648 23.4968 641.027 28.9792 672.483C33.2444 697.676 30.2973 720.28 12.5792 738.731C-13.9158 766.653 -47.7121 786.182 -76.0452 811.991C-109.127 841.094 -136.865 878.228 -130.805 925.955C-129.645 935.528 -128.269 945.666 -126.436 955.166C-122.898 974.469 -117.385 993.704 -107.215 1010.87C-103.202 1017.8 -98.753 1024.58 -95.4271 1031.92C-90.3471 1042.95 -88.0713 1054.94 -86.8445 1066.8C-86.6694 1068.78 -86.4578 1070.75 -86.3198 1072.72L-85.9442 1078.64C-84.6196 1099.9 -94.4794 1117.01 -111.994 1128.13C-131.415 1140.81 -154.473 1146.49 -175.314 1156.26C-188.852 1162.59 -203.26 1172.17 -205.175 1188.41L-205.447 1188.36C-203.725 1171.91 -189.274 1162.01 -175.714 1155.46C-154.987 1145.38 -132.145 1139.54 -112.925 1126.77C-93.3077 1113.7 -85.782 1096.68 -88.4513 1072.8C-89.5635 1059.25 -91.6979 1045.43 -97.5556 1032.83C-102.613 1021.98 -109.969 1012.27 -115.047 1001.39C-125.48 979.534 -129.732 955.593 -132.851 932.054C-144.691 862.723 -90.6515 817.258 -42.0897 780.893C-20.7757 764.055 11.995 743.139 23.3697 718.309C39.7901 677.658 12.2073 621.934 -5.34475 583.371C-8.72913 576.134 -12.1499 568.907 -15.3819 561.592C-18.5495 554.265 -21.8416 546.886 -23.4057 538.977C-30.7896 493.312 -22.5739 441.569 2.62211 403.946C5.25441 400.001 8.345 396.102 11.3995 392.483C13.0986 390.609 15.4883 387.979 17.1372 386.05C27.3756 374.626 31.9065 358.884 30.5379 343.258C28 311.533 10.6462 283.137 0.575436 253.15C-1.92491 245.536 -3.9102 237.582 -4.16745 229.633C-4.72112 215.969 -6.40201 202.258 -10.9841 189.17C-15.4893 176.117 -22.3673 163.805 -29.6989 152.047C-40.202 135.44 -52.5117 118.765 -64.5116 103.204C-74.1114 90.6224 -84.6749 77.9432 -94.2582 65.3333C-103.891 52.4068 -111.828 38.2326 -117.952 23.4155C-130.245 -6.20833 -133.867 -38.9529 -128.992 -69.8683C-127.18 -81.4495 -124.314 -92.8322 -120.224 -103.712C-118.851 -107.336 -117.383 -110.915 -115.645 -114.37L-115.394 -114.236L-115.392 -114.208L-115.411 -114.208Z" fill="#73206F"/>
<path d="M-126.275 -115.614C-144.251 -75.2895 -145.643 -26.7902 -129.338 15.861C-125.156 26.9489 -119.757 37.7638 -113.462 47.8461C-108.337 56.3398 -102.263 64.4457 -96.086 72.1656C-81.0405 90.7741 -65.8909 109.941 -51.9671 129.381C-35.9656 152.238 -19.761 176.811 -15.1047 204.547C-13.2601 214.346 -13.0906 224.233 -12.3137 234.04C-11.5737 239.856 -10.0625 245.54 -8.28568 251.171C6.38347 295.545 42.8632 350.443 3.20437 389.665C-30.5978 426.555 -41.6739 487.362 -33.1303 537.403C-31.564 545.077 -28.2473 552.409 -25.0372 559.679C-21.7621 566.947 -18.2969 574.144 -14.8582 581.361C-1.22338 610.242 12.6321 639.621 18.1144 671.077C22.3797 696.27 19.4327 718.873 1.71454 737.325C-24.7805 765.247 -58.5768 784.776 -86.9099 810.584C-119.992 839.688 -147.73 876.821 -141.67 924.549C-140.51 934.121 -139.134 944.259 -137.301 953.759C-133.763 973.062 -128.25 992.298 -118.08 1009.46C-114.066 1016.4 -109.618 1023.18 -106.292 1030.51C-101.212 1041.55 -98.936 1053.53 -97.7092 1065.39C-97.5341 1067.37 -97.3225 1069.34 -97.1845 1071.32L-96.8089 1077.24C-95.4843 1098.49 -105.344 1115.61 -122.859 1126.73C-142.28 1139.4 -165.338 1145.08 -186.179 1154.85C-199.717 1161.19 -214.125 1170.77 -216.039 1187L-216.312 1186.95C-214.589 1170.5 -200.138 1160.61 -186.578 1154.06C-165.852 1143.97 -143.009 1138.13 -123.789 1125.36C-104.172 1112.3 -96.6467 1095.28 -99.316 1071.39C-100.428 1057.84 -102.563 1044.02 -108.42 1031.42C-113.478 1020.57 -120.834 1010.86 -125.912 999.981C-136.345 978.127 -140.597 954.186 -143.716 930.648C-155.555 861.317 -101.516 815.852 -52.9544 779.487C-31.6404 762.649 1.12962 741.724 12.505 716.903C28.9254 676.252 1.34263 620.528 -16.2094 581.965C-19.5938 574.728 -23.0146 567.501 -26.2465 560.185C-29.4142 552.859 -32.7063 545.479 -34.2704 537.571C-41.6542 491.905 -33.4386 440.162 -8.24255 402.539C-5.61028 398.595 -2.51969 394.695 0.534775 391.077C2.23396 389.203 4.62357 386.573 6.27246 384.644C16.5109 373.22 21.0419 357.477 19.6733 341.851C17.1354 310.127 -0.218491 281.731 -10.2893 251.744C-12.7896 244.13 -14.7749 236.176 -15.0321 228.226C-15.5858 214.562 -17.2667 200.851 -21.8487 187.763C-26.354 174.711 -33.2319 162.399 -40.5636 150.641C-51.0666 134.033 -63.3765 117.358 -75.3763 101.797C-84.9762 89.2161 -95.5396 76.5368 -105.123 63.927C-114.756 51.0005 -122.693 36.8263 -128.817 22.0091C-141.11 -7.61468 -144.732 -40.3592 -139.856 -71.2746C-138.045 -82.8558 -135.179 -94.2386 -131.089 -105.119C-129.716 -108.742 -128.247 -112.322 -126.51 -115.777L-126.259 -115.643L-126.257 -115.615L-126.275 -115.614Z" fill="#73206F"/>
<path d="M-137.139 -117.021C-155.115 -76.6965 -156.507 -28.1971 -140.202 14.454C-136.02 25.5419 -130.621 36.3568 -124.326 46.4391C-119.2 54.9329 -113.127 63.0387 -106.95 70.7586C-91.9043 89.3671 -76.7548 108.534 -62.8309 127.974C-46.8295 150.831 -30.6248 175.404 -25.9685 203.14C-24.1239 212.939 -23.9544 222.826 -23.1775 232.633C-22.4375 238.449 -20.9263 244.133 -19.1495 249.764C-4.48037 294.138 31.9994 349.036 -7.65943 388.258C-41.4617 425.148 -52.5377 485.955 -43.9941 535.996C-42.4278 543.67 -39.1111 551.002 -35.901 558.272C-32.6259 565.54 -29.1607 572.737 -25.7313 579.954C-12.0965 608.835 1.75902 638.214 7.24136 669.67C11.5066 694.863 8.55958 717.467 -9.15855 735.918C-35.6535 763.84 -69.4499 783.369 -97.7829 809.177C-130.865 838.281 -158.603 875.415 -152.543 923.142C-151.383 932.715 -150.007 942.852 -148.174 952.353C-144.636 971.655 -139.123 990.891 -128.953 1008.06C-124.939 1014.99 -120.491 1021.77 -117.165 1029.1C-112.085 1040.14 -109.809 1052.13 -108.582 1063.99C-108.407 1065.97 -108.196 1067.93 -108.058 1069.91L-107.682 1075.83C-106.357 1097.08 -116.217 1114.2 -133.732 1125.32C-153.153 1138 -176.211 1143.68 -197.052 1153.45C-210.59 1159.78 -224.998 1169.36 -226.912 1185.59L-227.185 1185.54C-225.462 1169.09 -211.011 1159.2 -197.451 1152.65C-176.725 1142.57 -153.883 1136.72 -134.663 1123.96C-115.045 1110.89 -107.52 1093.87 -110.189 1069.98C-111.301 1056.44 -113.436 1042.61 -119.293 1030.02C-124.351 1019.16 -131.707 1009.45 -136.785 998.574C-147.218 976.721 -151.47 952.78 -154.589 929.241C-166.428 859.91 -112.389 814.445 -63.8275 778.08C-42.5136 761.242 -9.75207 740.327 1.63192 715.496C18.0431 674.845 -9.53049 619.121 -27.0826 580.558C-30.4669 573.321 -33.8877 566.094 -37.1196 558.779C-40.2873 551.452 -43.5794 544.073 -45.1435 536.164C-52.5273 490.498 -44.3117 438.756 -19.1156 401.133C-16.4834 397.188 -13.3928 393.288 -10.3383 389.67C-8.63916 387.796 -6.24955 385.166 -4.60063 383.237C5.63774 371.813 10.1687 356.07 8.80016 340.445C6.26224 308.72 -11.0916 280.324 -21.1624 250.337C-23.6627 242.723 -25.648 234.769 -25.9053 226.82C-26.4589 213.156 -28.1398 199.445 -32.7218 186.357C-37.2271 173.304 -44.105 160.992 -51.4367 149.234C-61.9397 132.627 -74.2495 115.952 -86.2494 100.391C-95.8492 87.8093 -106.413 75.1301 -115.996 62.5202C-125.629 49.5937 -133.566 35.4195 -139.69 20.6024C-151.983 -9.02143 -155.605 -41.766 -150.729 -72.6814C-148.918 -84.2626 -146.052 -95.6453 -141.962 -106.525C-140.589 -110.149 -139.12 -113.728 -137.383 -117.184L-137.132 -117.049L-137.13 -117.021L-137.139 -117.021Z" fill="#73206F"/>
<path d="M-148.004 -118.425C-165.98 -78.1006 -167.372 -29.6013 -151.067 13.0498C-146.885 24.1377 -141.486 34.9526 -135.191 45.035C-130.065 53.5287 -123.991 61.6345 -117.815 69.3544C-102.769 87.9629 -87.6195 107.13 -73.6957 126.57C-57.6943 149.427 -41.4896 174 -36.8333 201.736C-34.9887 211.535 -34.8192 221.422 -34.0423 231.229C-33.3023 237.044 -31.7911 242.729 -30.0143 248.36C-15.3451 292.734 21.1346 347.632 -18.5242 386.854C-52.3265 423.744 -63.4025 484.551 -54.8589 534.592C-53.2925 542.266 -49.9759 549.598 -46.7658 556.868C-43.4907 564.135 -40.0255 571.333 -36.5961 578.55C-22.9612 607.431 -9.10577 636.81 -3.62344 668.266C0.64186 693.459 -2.30522 716.063 -20.0233 734.514C-46.5183 762.436 -80.3147 781.965 -108.648 807.773C-141.73 836.877 -169.468 874.01 -163.408 921.738C-162.248 931.31 -160.872 941.448 -159.039 950.949C-155.5 970.251 -149.988 989.487 -139.817 1006.65C-135.804 1013.59 -131.356 1020.37 -128.03 1027.7C-122.95 1038.74 -120.674 1050.72 -119.447 1062.58C-119.272 1064.56 -119.06 1066.53 -118.922 1068.51L-118.547 1074.43C-117.222 1095.68 -127.082 1112.8 -144.596 1123.91C-164.018 1136.59 -187.076 1142.27 -207.917 1152.04C-221.455 1158.38 -235.862 1167.96 -237.777 1184.19L-238.05 1184.14C-236.327 1167.69 -221.876 1157.8 -208.316 1151.25C-187.59 1141.16 -164.747 1135.32 -145.527 1122.55C-125.91 1109.49 -118.385 1092.46 -121.054 1068.58C-122.166 1055.03 -124.3 1041.21 -130.158 1028.61C-135.216 1017.76 -142.572 1008.05 -147.65 997.17C-158.082 975.316 -162.335 951.376 -165.453 927.837C-177.293 858.506 -123.254 813.041 -74.6923 776.676C-53.3783 759.838 -20.6169 738.922 -9.23287 714.092C7.17828 673.441 -20.3953 617.717 -37.9474 579.154C-41.3317 571.917 -44.7525 564.69 -47.9844 557.374C-51.152 550.048 -54.4442 542.668 -56.0083 534.76C-63.3921 489.094 -55.1765 437.351 -29.9805 399.729C-27.3482 395.784 -24.2576 391.884 -21.2031 388.266C-19.504 386.392 -17.1143 383.762 -15.4654 381.833C-5.22701 370.409 -0.696023 354.666 -2.06463 339.04C-4.60255 307.316 -21.9563 278.92 -32.0272 248.933C-34.5275 241.319 -36.5128 233.365 -36.77 225.415C-37.3237 211.752 -39.0046 198.041 -43.5866 184.952C-48.0919 171.9 -54.9698 159.588 -62.3015 147.83C-72.8045 131.222 -85.1143 114.547 -97.1142 98.9866C-106.714 86.4052 -117.277 73.7259 -126.861 61.1161C-136.494 48.1896 -144.431 34.0153 -150.555 19.1982C-162.848 -10.4256 -166.47 -43.1702 -161.594 -74.0856C-159.783 -85.6668 -156.917 -97.0495 -152.827 -107.929C-151.454 -111.553 -149.985 -115.133 -148.248 -118.588L-147.997 -118.454L-147.995 -118.426L-148.004 -118.425Z" fill="#73206F"/>
<path d="M-158.861 -119.828C-176.837 -79.5034 -178.228 -31.0041 -161.924 11.647C-157.741 22.7349 -152.343 33.5498 -146.047 43.6322C-140.922 52.1259 -134.848 60.2317 -128.671 67.9517C-113.626 86.5601 -98.4764 105.727 -84.5525 125.167C-68.5511 148.025 -52.3464 172.597 -47.6901 200.333C-45.8455 210.132 -45.676 220.019 -44.8991 229.826C-44.1591 235.642 -42.6479 241.326 -40.8711 246.957C-26.2019 291.331 10.2778 346.229 -29.381 385.451C-63.1832 422.341 -74.2593 483.148 -65.7157 533.189C-64.1493 540.863 -60.8327 548.195 -57.6226 555.465C-54.3475 562.733 -50.8823 569.93 -47.4529 577.147C-33.8181 606.028 -19.9626 635.407 -14.4802 666.863C-10.2149 692.056 -13.162 714.66 -30.8801 733.111C-57.3751 761.033 -91.1715 780.562 -119.505 806.37C-152.587 835.474 -180.325 872.608 -174.265 920.335C-173.105 929.908 -171.729 940.046 -169.896 949.546C-166.357 968.849 -160.845 988.084 -150.674 1005.25C-146.661 1012.18 -142.212 1018.96 -138.886 1026.3C-133.806 1037.33 -131.531 1049.32 -130.304 1061.18C-130.129 1063.16 -129.917 1065.13 -129.779 1067.1L-129.404 1073.02C-128.079 1094.28 -137.939 1111.39 -155.453 1122.51C-174.874 1135.19 -197.933 1140.87 -218.774 1150.64C-232.312 1156.97 -246.719 1166.55 -248.634 1182.78L-248.907 1182.74C-247.184 1166.29 -232.733 1156.39 -219.173 1149.84C-198.447 1139.76 -175.604 1133.92 -156.384 1121.15C-136.767 1108.08 -129.241 1091.06 -131.911 1067.18C-133.023 1053.63 -135.157 1039.81 -141.015 1027.21C-146.073 1016.36 -153.429 1006.65 -158.507 995.768C-168.939 973.914 -173.191 949.973 -176.31 926.434C-188.15 857.103 -134.111 811.638 -85.5491 775.273C-64.2351 758.435 -31.4737 737.52 -20.0897 712.689C-3.67852 672.038 -31.2521 616.314 -48.8042 577.751C-52.1885 570.514 -55.6093 563.287 -58.8412 555.972C-62.0089 548.645 -65.301 541.266 -66.8651 533.357C-74.2489 487.692 -66.0333 435.949 -40.8373 398.326C-38.205 394.381 -35.1144 390.482 -32.0599 386.863C-30.3608 384.989 -27.9711 382.359 -26.3222 380.43C-16.0838 369.006 -11.5528 353.263 -12.9214 337.638C-15.4594 305.913 -32.8131 277.517 -42.884 247.53C-45.3843 239.916 -47.3696 231.962 -47.6268 224.013C-48.1805 210.349 -49.8614 196.638 -54.4434 183.55C-58.9487 170.497 -65.8266 158.185 -73.1583 146.427C-83.6613 129.82 -95.9711 113.145 -107.971 97.5838C-117.571 85.0024 -128.134 72.3231 -137.718 59.7133C-147.351 46.7868 -155.287 32.6126 -161.411 17.7954C-173.705 -11.8284 -177.326 -44.5729 -172.451 -75.4884C-170.639 -87.0695 -167.773 -98.4523 -163.684 -109.332C-162.311 -112.956 -160.842 -116.535 -159.104 -119.99L-158.854 -119.856L-158.852 -119.828L-158.861 -119.828Z" fill="#73206F"/>
<path d="M-169.726 -121.232C-187.702 -80.9077 -189.093 -32.4084 -172.789 10.2428C-168.606 21.3307 -163.207 32.1456 -156.912 42.2279C-151.787 50.7216 -145.713 58.8274 -139.536 66.5474C-124.491 85.1559 -109.341 104.323 -95.4173 123.763C-79.4159 146.62 -63.2112 171.193 -58.5549 198.929C-56.7103 208.728 -56.5408 218.615 -55.7639 228.422C-55.0239 234.237 -53.5127 239.922 -51.7359 245.553C-37.0668 289.927 -0.58706 344.825 -40.2458 384.047C-74.0481 420.937 -85.1241 481.744 -76.5805 531.785C-75.0142 539.459 -71.6975 546.791 -68.4873 554.061C-65.2123 561.328 -61.7471 568.526 -58.3084 575.743C-44.6736 604.623 -30.8181 634.003 -25.3358 665.458C-21.0705 690.652 -24.0176 713.255 -41.7357 731.706C-68.2307 759.629 -102.027 779.158 -130.36 804.966C-163.442 834.069 -191.18 871.203 -185.12 918.93C-183.96 928.503 -182.584 938.641 -180.751 948.141C-177.213 967.444 -171.7 986.68 -161.53 1003.85C-157.516 1010.78 -153.068 1017.56 -149.742 1024.89C-144.662 1035.93 -142.386 1047.91 -141.159 1059.78C-140.984 1061.75 -140.773 1063.72 -140.635 1065.7L-140.259 1071.62C-138.934 1092.87 -148.794 1109.99 -166.309 1121.11C-185.73 1133.78 -208.788 1139.47 -229.629 1149.23C-243.167 1155.57 -257.575 1165.15 -259.49 1181.38L-259.762 1181.33C-258.039 1164.88 -243.588 1154.99 -230.028 1148.44C-209.302 1138.36 -186.46 1132.51 -167.24 1119.75C-147.623 1106.68 -140.097 1089.66 -142.766 1065.77C-143.878 1052.22 -146.013 1038.4 -151.87 1025.8C-156.928 1014.95 -164.284 1005.24 -169.362 994.363C-179.795 972.509 -184.047 948.568 -187.166 925.029C-199.005 855.699 -144.966 810.233 -96.4046 773.868C-75.0906 757.03 -42.3199 736.115 -30.9452 711.285C-14.5248 670.634 -42.1076 614.909 -59.6597 576.347C-63.044 569.109 -66.4648 561.883 -69.6967 554.567C-72.8644 547.241 -76.1565 539.861 -77.7206 531.953C-85.1044 486.287 -76.8888 434.544 -51.6928 396.921C-49.0605 392.977 -45.9699 389.077 -42.9154 385.459C-41.2163 383.584 -38.8267 380.955 -37.1778 379.026C-26.9394 367.602 -22.4084 351.859 -23.777 336.233C-26.3149 304.509 -43.6687 276.113 -53.7395 246.126C-56.2398 238.512 -58.2251 230.558 -58.4823 222.608C-59.036 208.944 -60.7169 195.233 -65.2989 182.145C-69.8042 169.093 -76.6822 156.781 -84.0138 145.022C-94.5169 128.415 -106.827 111.74 -118.826 96.1793C-128.426 83.5979 -138.99 70.9186 -148.573 58.3088C-158.206 45.3823 -166.143 31.208 -172.267 16.3909C-184.56 -13.2329 -188.182 -45.9774 -183.307 -76.8929C-181.495 -88.474 -178.629 -99.8568 -174.539 -110.737C-173.166 -114.36 -171.697 -117.94 -169.96 -121.395L-169.709 -121.261L-169.707 -121.233L-169.726 -121.232Z" fill="#73206F"/>
<path d="M-180.59 -122.639C-198.565 -82.3139 -199.957 -33.8146 -183.652 8.83651C-179.47 19.9244 -174.071 30.7393 -167.776 40.8216C-162.651 49.3154 -156.577 57.4212 -150.4 65.1412C-135.355 83.7496 -120.205 102.916 -106.281 122.357C-90.2797 145.214 -74.075 169.787 -69.4188 197.523C-67.5741 207.322 -67.4047 217.209 -66.6278 227.016C-65.8877 232.831 -64.3766 238.516 -62.5997 244.147C-47.9306 288.521 -11.4509 343.419 -51.1097 382.64C-84.9119 419.531 -95.988 480.338 -87.4444 530.378C-85.878 538.053 -82.5613 545.385 -79.3512 552.654C-76.0762 559.922 -72.611 567.12 -69.1723 574.337C-55.5374 603.217 -41.6819 632.597 -36.1996 664.052C-31.9343 689.246 -34.8814 711.849 -52.5995 730.3C-79.0945 758.223 -112.891 777.752 -141.224 803.56C-174.306 832.663 -202.044 869.797 -195.984 917.524C-194.824 927.097 -193.448 937.235 -191.615 946.735C-188.077 966.038 -182.564 985.273 -172.394 1002.44C-168.38 1009.37 -163.932 1016.15 -160.606 1023.48C-155.526 1034.52 -153.25 1046.51 -152.023 1058.37C-151.848 1060.35 -151.637 1062.32 -151.499 1064.29L-151.123 1070.21C-149.798 1091.47 -159.658 1108.58 -177.173 1119.7C-196.594 1132.38 -219.652 1138.06 -240.493 1147.83C-254.031 1154.16 -268.439 1163.74 -270.353 1179.97L-270.626 1179.92C-268.903 1163.48 -254.452 1153.58 -240.892 1147.03C-220.166 1136.95 -197.324 1131.11 -178.104 1118.34C-158.486 1105.27 -150.961 1088.25 -153.63 1064.36C-154.742 1050.82 -156.877 1037 -162.734 1024.4C-167.792 1013.55 -175.148 1003.84 -180.226 992.957C-190.659 971.103 -194.911 947.162 -198.03 923.623C-209.869 854.292 -155.83 808.827 -107.268 772.462C-85.9545 755.624 -53.1838 734.709 -41.809 709.879C-25.3886 669.227 -52.9715 613.503 -70.5235 574.94C-73.9079 567.703 -77.3287 560.476 -80.5606 553.161C-83.7283 545.834 -87.0204 538.455 -88.5845 530.547C-95.9683 484.881 -87.7527 433.138 -62.5566 395.515C-59.9244 391.57 -56.8338 387.671 -53.7793 384.052C-52.0801 382.178 -49.6905 379.548 -48.0416 377.619C-37.8032 366.196 -33.2722 350.453 -34.6408 334.827C-37.1787 303.103 -54.5325 274.707 -64.6033 244.72C-67.1037 237.106 -69.089 229.152 -69.3462 221.202C-69.8999 207.538 -71.5808 193.827 -76.1628 180.739C-80.668 167.686 -87.546 155.375 -94.8777 143.616C-105.381 127.009 -117.691 110.334 -129.69 94.773C-139.29 82.1916 -149.854 69.5124 -159.437 56.9025C-169.07 43.976 -177.007 29.8018 -183.131 14.9847C-195.424 -14.6391 -199.046 -47.3837 -194.17 -78.2991C-192.359 -89.8803 -189.493 -101.263 -185.403 -112.143C-184.03 -115.767 -182.561 -119.346 -180.824 -122.801L-180.573 -122.667L-180.571 -122.639L-180.59 -122.639Z" fill="#73206F"/>
<path d="M-191.454 -124.046C-209.43 -83.7212 -210.822 -35.2219 -194.517 7.42922C-190.335 18.5171 -184.936 29.332 -178.641 39.4144C-173.515 47.9081 -167.442 56.0139 -161.265 63.7339C-146.219 82.3423 -131.07 101.509 -117.146 120.949C-101.144 143.807 -84.9396 168.379 -80.2833 196.115C-78.4387 205.915 -78.2693 215.802 -77.4924 225.608C-76.7523 231.424 -75.2412 237.108 -73.4643 242.739C-58.7952 287.114 -22.3155 342.011 -61.9743 381.233C-95.7765 418.123 -106.853 478.93 -98.309 528.971C-96.7426 536.645 -93.4259 543.978 -90.2158 551.247C-86.9408 558.515 -83.4756 565.712 -80.0369 572.929C-66.402 601.81 -52.5466 631.189 -47.0643 662.645C-42.799 687.838 -45.746 710.442 -63.4641 728.893C-89.9592 756.815 -123.755 776.344 -152.089 802.152C-185.171 831.256 -212.909 868.39 -206.849 916.117C-205.689 925.69 -204.313 935.827 -202.48 945.328C-198.941 964.63 -193.429 983.866 -183.258 1001.03C-179.245 1007.96 -174.796 1014.75 -171.47 1022.08C-166.39 1033.12 -164.115 1045.1 -162.888 1056.96C-162.713 1058.94 -162.501 1060.91 -162.363 1062.89L-161.988 1068.8C-160.663 1090.06 -170.523 1107.18 -188.037 1118.29C-207.458 1130.97 -230.517 1136.65 -251.358 1146.42C-264.896 1152.76 -279.303 1162.34 -281.218 1178.57L-281.491 1178.52C-279.768 1162.07 -265.317 1152.18 -251.757 1145.63C-231.031 1135.54 -208.188 1129.7 -188.968 1116.93C-169.351 1103.87 -161.825 1086.84 -164.495 1062.96C-165.607 1049.41 -167.741 1035.59 -173.599 1022.99C-178.657 1012.14 -186.013 1002.43 -191.091 991.549C-201.523 969.696 -205.775 945.755 -208.894 922.216C-220.734 852.885 -166.695 807.42 -118.133 771.055C-96.8191 754.217 -64.0484 733.301 -52.6737 708.471C-36.2532 667.82 -63.836 612.096 -81.3881 573.533C-84.7725 566.296 -88.1933 559.069 -91.4252 551.754C-94.5929 544.427 -97.885 537.047 -99.4491 529.139C-106.833 483.473 -98.6173 431.731 -73.4212 394.108C-70.7889 390.163 -67.6984 386.263 -64.6439 382.645C-62.9447 380.771 -60.5551 378.141 -58.9062 376.212C-48.6678 364.788 -44.1368 349.045 -45.5054 333.42C-48.0433 301.695 -65.3971 273.299 -75.4679 243.312C-77.9683 235.698 -79.9536 227.744 -80.2108 219.795C-80.7645 206.131 -82.4454 192.42 -87.0274 179.332C-91.5326 166.279 -98.4106 153.967 -105.742 142.209C-116.245 125.602 -128.555 108.927 -140.555 93.3657C-150.155 80.7843 -160.718 68.1051 -170.302 55.4952C-179.935 42.5687 -187.872 28.3945 -193.995 13.5774C-206.289 -16.0464 -209.91 -48.791 -205.035 -79.7064C-203.223 -91.2876 -200.357 -102.67 -196.268 -113.55C-194.895 -117.174 -193.426 -120.753 -191.688 -124.209L-191.438 -124.074L-191.436 -124.046L-191.454 -124.046Z" fill="#73206F"/>
<path d="M-202.31 -125.451C-220.286 -85.1258 -221.678 -36.6265 -205.373 6.02467C-201.191 17.1126 -195.792 27.9275 -189.497 38.0098C-184.371 46.5035 -178.297 54.6093 -172.121 62.3293C-157.075 80.9378 -141.925 100.105 -128.002 119.545C-112 142.402 -95.7956 166.975 -91.1393 194.711C-89.2947 204.51 -89.1252 214.397 -88.3483 224.204C-87.6082 230.019 -86.097 235.704 -84.3202 241.335C-69.6511 285.709 -33.1714 340.607 -72.8302 379.829C-106.632 416.719 -117.708 477.526 -109.165 527.567C-107.599 535.241 -104.282 542.573 -101.072 549.842C-97.7967 557.11 -94.3315 564.308 -90.9021 571.525C-77.2672 600.405 -63.4117 629.785 -57.9294 661.24C-53.6641 686.434 -56.6112 709.037 -74.3293 727.489C-100.824 755.411 -134.621 774.94 -162.954 800.748C-196.036 829.852 -223.774 866.985 -217.714 914.712C-216.554 924.285 -215.178 934.423 -213.345 943.923C-209.806 963.226 -204.294 982.462 -194.123 999.629C-190.11 1006.56 -185.662 1013.34 -182.336 1020.67C-177.256 1031.71 -174.98 1043.7 -173.753 1055.56C-173.578 1057.54 -173.366 1059.5 -173.228 1061.48L-172.853 1067.4C-171.528 1088.66 -181.388 1105.77 -198.902 1116.89C-218.324 1129.57 -241.382 1135.25 -262.223 1145.02C-275.761 1151.35 -290.168 1160.93 -292.083 1177.16L-292.356 1177.11C-290.633 1160.66 -276.182 1150.77 -262.622 1144.22C-241.896 1134.14 -219.053 1128.29 -199.833 1115.53C-180.216 1102.46 -172.691 1085.44 -175.36 1061.55C-176.472 1048.01 -178.606 1034.18 -184.464 1021.59C-189.522 1010.73 -196.878 1001.02 -201.956 990.145C-212.388 968.291 -216.641 944.35 -219.759 920.812C-231.599 851.481 -177.56 806.015 -128.998 769.651C-107.684 752.812 -74.9228 731.897 -63.5388 707.067C-47.1277 666.416 -74.7012 610.692 -92.2533 572.129C-95.6376 564.892 -99.0585 557.665 -102.29 550.349C-105.458 543.023 -108.75 535.643 -110.314 527.735C-117.698 482.069 -109.482 430.326 -84.2864 392.703C-81.6541 388.759 -78.5636 384.859 -75.5091 381.241C-73.8099 379.367 -71.4203 376.737 -69.7714 374.808C-59.533 363.384 -55.002 347.641 -56.3706 332.015C-58.9085 300.291 -76.2623 271.895 -86.3331 241.908C-88.8335 234.294 -90.8188 226.34 -91.076 218.39C-91.6297 204.726 -93.3105 191.015 -97.8926 177.927C-102.398 164.875 -109.276 152.563 -116.607 140.805C-127.111 124.197 -139.42 107.522 -151.42 91.9614C-161.02 79.38 -171.583 66.7007 -181.167 54.0909C-190.8 41.1644 -198.737 26.9902 -204.86 12.173C-217.154 -17.4508 -220.775 -50.1953 -215.9 -81.1107C-214.088 -92.6919 -211.223 -104.075 -207.133 -114.955C-205.76 -118.578 -204.291 -122.158 -202.554 -125.613L-202.303 -125.479L-202.301 -125.451L-202.31 -125.451Z" fill="#73206F"/>
<path d="M-213.175 -126.855C-231.151 -86.5298 -232.542 -38.0304 -216.238 4.62071C-212.055 15.7086 -206.657 26.5235 -200.361 36.6058C-195.236 45.0996 -189.162 53.2054 -182.985 60.9253C-167.94 79.5338 -152.79 98.7007 -138.866 118.141C-122.865 140.998 -106.66 165.571 -102.004 193.307C-100.159 203.106 -99.99 212.993 -99.2131 222.8C-98.473 228.615 -96.9619 234.3 -95.185 239.931C-80.5159 284.305 -44.0362 339.203 -83.695 378.425C-117.497 415.315 -128.573 476.122 -120.03 526.163C-118.463 533.837 -115.147 541.169 -111.937 548.439C-108.661 555.706 -105.196 562.904 -101.767 570.121C-88.132 599.001 -74.2765 628.381 -68.7942 659.836C-64.5289 685.03 -67.476 707.633 -85.1941 726.085C-111.689 754.007 -145.485 773.536 -173.819 799.344C-206.901 828.448 -234.639 865.581 -228.579 913.308C-227.419 922.881 -226.043 933.019 -224.21 942.519C-220.671 961.822 -215.159 981.058 -204.988 998.225C-200.975 1005.16 -196.526 1011.94 -193.2 1019.27C-188.12 1030.31 -185.845 1042.29 -184.618 1054.15C-184.443 1056.13 -184.231 1058.1 -184.093 1060.08L-183.718 1066C-182.393 1087.25 -192.253 1104.37 -209.767 1115.48C-229.188 1128.16 -252.247 1133.84 -273.088 1143.61C-286.626 1149.95 -301.033 1159.53 -302.948 1175.76L-303.221 1175.71C-301.498 1159.26 -287.047 1149.37 -273.487 1142.82C-252.761 1132.73 -229.918 1126.89 -210.698 1114.12C-191.081 1101.06 -183.555 1084.04 -186.225 1060.15C-187.337 1046.6 -189.471 1032.78 -195.329 1020.18C-200.387 1009.33 -207.743 999.62 -212.821 988.741C-223.253 966.887 -227.505 942.946 -230.624 919.408C-242.464 850.077 -188.425 804.612 -139.863 768.247C-118.549 751.409 -85.7876 730.493 -74.4036 705.663C-57.9925 665.012 -85.566 609.288 -103.118 570.725C-106.502 563.488 -109.923 556.261 -113.155 548.945C-116.323 541.619 -119.615 534.239 -121.179 526.331C-128.563 480.665 -120.347 428.922 -95.1512 391.299C-92.5189 387.355 -89.4284 383.455 -86.3739 379.837C-84.6747 377.963 -82.2851 375.333 -80.6362 373.404C-70.3978 361.98 -65.8668 346.237 -67.2354 330.611C-69.7733 298.887 -87.1271 270.491 -97.1979 240.504C-99.6982 232.89 -101.684 224.936 -101.941 216.986C-102.494 203.322 -104.175 189.611 -108.757 176.523C-113.263 163.471 -120.141 151.159 -127.472 139.401C-137.975 122.793 -150.285 106.118 -162.285 90.5574C-171.885 77.976 -182.448 65.2968 -192.031 52.6869C-201.665 39.7604 -209.601 25.5862 -215.725 10.7691C-228.019 -18.8547 -231.64 -51.5993 -226.765 -82.5147C-224.953 -94.0959 -222.087 -105.479 -217.997 -116.359C-216.625 -119.982 -215.156 -123.562 -213.418 -127.017L-213.168 -126.883L-213.166 -126.855L-213.175 -126.855Z" fill="#73206F"/>
<path d="M-224.04 -128.259C-242.015 -87.9345 -243.407 -39.4352 -227.103 3.21592C-222.92 14.3038 -217.521 25.1187 -211.226 35.2011C-206.101 43.6948 -200.027 51.8006 -193.85 59.5205C-178.805 78.129 -163.655 97.2959 -149.731 116.736C-133.73 139.593 -117.525 164.166 -112.869 191.902C-111.024 201.701 -110.855 211.588 -110.078 221.395C-109.338 227.211 -107.827 232.895 -106.05 238.526C-91.3806 282.9 -54.901 337.798 -94.5597 377.02C-128.362 413.91 -139.438 474.717 -130.894 524.758C-129.328 532.432 -126.011 539.764 -122.801 547.034C-119.526 554.301 -116.061 561.499 -112.622 568.716C-98.9875 597.596 -85.132 626.976 -79.6497 658.431C-75.3844 683.625 -78.3314 706.228 -96.0496 724.68C-122.545 752.602 -156.341 772.131 -184.674 797.939C-217.756 827.043 -245.494 864.176 -239.434 911.903C-238.274 921.476 -236.898 931.614 -235.065 941.114C-231.527 960.417 -226.014 979.653 -215.844 996.82C-211.83 1003.75 -207.382 1010.53 -204.056 1017.86C-198.976 1028.9 -196.7 1040.89 -195.473 1052.75C-195.298 1054.73 -195.087 1056.69 -194.949 1058.67L-194.573 1064.59C-193.248 1085.85 -203.108 1102.96 -220.623 1114.08C-240.044 1126.76 -263.102 1132.44 -283.943 1142.21C-297.481 1148.54 -311.889 1158.12 -313.803 1174.35L-314.076 1174.3C-312.353 1157.85 -297.902 1147.96 -284.342 1141.41C-263.616 1131.33 -240.774 1125.49 -221.554 1112.72C-201.936 1099.65 -194.411 1082.63 -197.08 1058.74C-198.192 1045.2 -200.327 1031.38 -206.184 1018.78C-211.242 1007.93 -218.598 998.215 -223.676 987.336C-234.109 965.482 -238.361 941.541 -241.48 918.003C-253.319 848.672 -199.28 803.206 -150.719 766.842C-129.405 750.004 -96.6431 729.088 -85.2591 704.258C-68.848 663.607 -96.4215 607.883 -113.974 569.32C-117.358 562.083 -120.779 554.856 -124.011 547.54C-127.178 540.214 -130.47 532.834 -132.035 524.926C-139.418 479.26 -131.203 427.517 -106.007 389.894C-103.374 385.95 -100.284 382.05 -97.2294 378.432C-95.5302 376.558 -93.1406 373.928 -91.4917 371.999C-81.2533 360.575 -76.7223 344.832 -78.0909 329.206C-80.6288 297.482 -97.9826 269.086 -108.053 239.099C-110.554 231.485 -112.539 223.531 -112.796 215.581C-113.35 201.917 -115.031 188.206 -119.613 175.118C-124.118 162.066 -130.996 149.754 -138.328 137.996C-148.831 121.388 -161.141 104.713 -173.14 89.1524C-182.74 76.571 -193.304 63.8918 -202.887 51.2819C-212.52 38.3554 -220.457 24.1812 -226.581 9.36406C-238.874 -20.2597 -242.496 -53.0043 -237.62 -83.9197C-235.809 -95.5009 -232.943 -106.884 -228.853 -117.764C-227.48 -121.387 -226.011 -124.967 -224.274 -128.422L-224.023 -128.288L-224.021 -128.26L-224.04 -128.259Z" fill="#73206F"/>
<path d="M-234.904 -129.666C-252.88 -89.3409 -254.272 -40.8416 -237.967 1.80957C-233.785 12.8975 -228.386 23.7124 -222.091 33.7947C-216.965 42.2884 -210.892 50.3942 -204.715 58.1142C-189.669 76.7227 -174.52 95.8895 -160.596 115.33C-144.594 138.187 -128.39 162.76 -123.733 190.496C-121.889 200.295 -121.719 210.182 -120.942 219.989C-120.202 225.804 -118.691 231.489 -116.914 237.12C-102.245 281.494 -65.7656 336.392 -105.424 375.614C-139.227 412.504 -150.303 473.311 -141.759 523.351C-140.193 531.026 -136.876 538.358 -133.666 545.627C-130.391 552.895 -126.926 560.093 -123.487 567.31C-109.852 596.19 -95.9966 625.57 -90.5143 657.025C-86.249 682.219 -89.1961 704.822 -106.914 723.273C-133.409 751.196 -167.206 770.725 -195.539 796.533C-228.621 825.636 -256.359 862.77 -250.299 910.497C-249.139 920.07 -247.763 930.208 -245.93 939.708C-242.391 959.011 -236.879 978.246 -226.708 995.413C-222.695 1002.35 -218.246 1009.13 -214.921 1016.46C-209.841 1027.5 -207.565 1039.48 -206.338 1051.34C-206.163 1053.32 -205.951 1055.29 -205.813 1057.27L-205.438 1063.18C-204.113 1084.44 -213.973 1101.56 -231.487 1112.67C-250.909 1125.35 -273.967 1131.03 -294.808 1140.8C-308.346 1147.14 -322.753 1156.72 -324.668 1172.95L-324.941 1172.9C-323.218 1156.45 -308.767 1146.56 -295.207 1140.01C-274.481 1129.92 -251.638 1124.08 -232.418 1111.31C-212.801 1098.25 -205.275 1081.22 -207.945 1057.34C-209.057 1043.79 -211.191 1029.97 -217.049 1017.37C-222.107 1006.52 -229.463 996.809 -234.541 985.93C-244.973 964.076 -249.225 940.135 -252.344 916.596C-264.184 847.265 -210.145 801.8 -161.583 765.435C-140.269 748.597 -107.498 727.682 -96.1238 702.852C-79.7033 662.2 -107.286 606.476 -124.838 567.913C-128.223 560.676 -131.643 553.449 -134.875 546.134C-138.043 538.807 -141.335 531.428 -142.899 523.52C-150.283 477.854 -142.067 426.111 -116.871 388.488C-114.239 384.543 -111.148 380.644 -108.094 377.025C-106.395 375.151 -104.005 372.522 -102.356 370.592C-92.1179 359.169 -87.5869 343.426 -88.9555 327.8C-91.4934 296.076 -108.847 267.68 -118.918 237.693C-121.418 230.079 -123.404 222.125 -123.661 214.175C-124.215 200.511 -125.895 186.8 -130.478 173.712C-134.983 160.659 -141.861 148.348 -149.192 136.589C-159.695 119.982 -172.005 103.307 -184.005 87.7461C-193.605 75.1646 -204.168 62.4854 -213.752 49.8756C-223.385 36.9491 -231.322 22.7748 -237.445 7.95771C-249.739 -21.6661 -253.36 -54.4107 -248.485 -85.3261C-246.673 -96.9073 -243.808 -108.29 -239.718 -119.17C-238.345 -122.794 -236.876 -126.373 -235.139 -129.828L-234.888 -129.694L-234.886 -129.666L-234.904 -129.666Z" fill="#73206F"/>
<path d="M-245.768 -131.072C-263.744 -90.7475 -265.136 -42.2481 -248.831 0.403006C-244.649 11.4909 -239.25 22.3058 -232.955 32.3881C-227.829 40.8819 -221.755 48.9877 -215.579 56.7076C-200.533 75.3161 -185.384 94.483 -171.46 113.923C-155.458 136.78 -139.254 161.353 -134.597 189.089C-132.753 198.888 -132.583 208.775 -131.806 218.582C-131.066 224.398 -129.555 230.082 -127.778 235.713C-113.109 280.087 -76.6295 334.985 -116.288 374.207C-150.09 411.097 -161.167 471.904 -152.623 521.945C-151.057 529.619 -147.74 536.951 -144.53 544.221C-141.255 551.489 -137.79 558.686 -134.351 565.903C-120.716 594.783 -106.861 624.163 -101.378 655.619C-97.1129 680.812 -100.06 703.415 -117.778 721.867C-144.273 749.789 -178.069 769.318 -206.403 795.126C-239.485 824.23 -267.223 861.363 -261.163 909.091C-260.003 918.663 -258.627 928.801 -256.794 938.301C-253.255 957.604 -247.743 976.84 -237.572 994.007C-233.559 1000.94 -229.11 1007.72 -225.784 1015.05C-220.704 1026.09 -218.429 1038.07 -217.202 1049.94C-217.027 1051.91 -216.815 1053.88 -216.677 1055.86L-216.302 1061.78C-214.977 1083.03 -224.837 1100.15 -242.351 1111.27C-261.772 1123.95 -284.831 1129.63 -305.672 1139.39C-319.21 1145.73 -333.617 1155.31 -335.532 1171.54L-335.805 1171.49C-334.082 1155.04 -319.631 1145.15 -306.071 1138.6C-285.345 1128.52 -262.502 1122.67 -243.282 1109.91C-223.665 1096.84 -216.139 1079.82 -218.809 1055.93C-219.921 1042.38 -222.055 1028.56 -227.913 1015.96C-232.971 1005.11 -240.327 995.402 -245.405 984.523C-255.837 962.669 -260.089 938.728 -263.208 915.19C-275.048 845.859 -221.009 800.394 -172.447 764.029C-151.133 747.191 -118.362 726.275 -106.988 701.445C-90.5672 660.794 -118.15 605.07 -135.702 566.507C-139.086 559.27 -142.507 552.043 -145.739 544.727C-148.907 537.401 -152.199 530.021 -153.763 522.113C-161.147 476.447 -152.931 424.704 -127.735 387.081C-125.103 383.137 -122.012 379.237 -118.958 375.619C-117.259 373.745 -114.869 371.115 -113.22 369.186C-102.982 357.762 -98.4508 342.019 -99.8194 326.393C-102.357 294.669 -119.711 266.273 -129.782 236.286C-132.282 228.672 -134.268 220.718 -134.525 212.768C-135.078 199.104 -136.759 185.393 -141.341 172.305C-145.847 159.253 -152.725 146.941 -160.056 135.183C-170.559 118.575 -182.869 101.9 -194.869 86.3395C-204.469 73.7581 -215.032 61.0789 -224.615 48.469C-234.249 35.5425 -242.185 21.3683 -248.309 6.55114C-260.603 -23.0727 -264.224 -55.8172 -259.349 -86.7326C-257.537 -98.3138 -254.671 -109.697 -250.582 -120.577C-249.209 -124.2 -247.74 -127.78 -246.002 -131.235L-245.752 -131.101L-245.75 -131.073L-245.768 -131.072Z" fill="#73206F"/>
<path d="M-256.624 -132.477C-274.6 -92.152 -275.992 -43.6527 -259.687 -1.00155C-255.505 10.0864 -250.106 20.9012 -243.811 30.9836C-238.685 39.4773 -232.611 47.5831 -226.435 55.3031C-211.389 73.9116 -196.24 93.0784 -182.316 112.518C-166.314 135.376 -150.11 159.949 -145.453 187.685C-143.609 197.484 -143.439 207.371 -142.662 217.178C-141.922 222.993 -140.411 228.678 -138.634 234.309C-123.965 278.683 -87.4854 333.581 -127.144 372.802C-160.946 409.693 -172.022 470.5 -163.479 520.54C-161.913 528.215 -158.596 535.547 -155.386 542.816C-152.111 550.084 -148.646 557.282 -145.207 564.499C-131.572 593.379 -117.716 622.759 -112.234 654.214C-107.969 679.407 -110.916 702.011 -128.634 720.462C-155.129 748.385 -188.925 767.914 -217.258 793.722C-250.341 822.825 -278.079 859.959 -272.019 907.686C-270.859 917.259 -269.483 927.397 -267.65 936.897C-264.111 956.2 -258.599 975.435 -248.428 992.602C-244.415 999.534 -239.966 1006.31 -236.64 1013.65C-231.56 1024.68 -229.285 1036.67 -228.058 1048.53C-227.883 1050.51 -227.671 1052.48 -227.533 1054.46L-227.157 1060.37C-225.833 1081.63 -235.693 1098.75 -253.207 1109.86C-272.628 1122.54 -295.687 1128.22 -316.528 1137.99C-330.066 1144.32 -344.473 1153.91 -346.388 1170.14L-346.661 1170.09C-344.938 1153.64 -330.487 1143.75 -316.927 1137.2C-296.201 1127.11 -273.358 1121.27 -254.138 1108.5C-234.521 1095.44 -226.995 1078.41 -229.665 1054.53C-230.777 1040.98 -232.911 1027.16 -238.769 1014.56C-243.827 1003.71 -251.183 993.998 -256.261 983.119C-266.693 961.265 -270.945 937.324 -274.064 913.785C-285.904 844.454 -231.865 798.989 -183.303 762.624C-161.989 745.786 -129.228 724.871 -117.844 700.04C-101.432 659.39 -129.006 603.665 -146.558 565.102C-149.942 557.865 -153.363 550.638 -156.595 543.323C-159.763 535.996 -163.055 528.617 -164.619 520.709C-172.003 475.043 -163.787 423.3 -138.591 385.677C-135.959 381.732 -132.868 377.833 -129.814 374.214C-128.115 372.34 -125.725 369.71 -124.076 367.781C-113.838 356.358 -109.307 340.615 -110.675 324.989C-113.213 293.265 -130.567 264.868 -140.638 234.881C-143.138 227.267 -145.123 219.314 -145.381 211.364C-145.934 197.7 -147.615 183.989 -152.197 170.901C-156.703 157.848 -163.581 145.536 -170.912 133.778C-181.415 117.171 -193.725 100.496 -205.725 84.9349C-215.325 72.3535 -225.888 59.6743 -235.471 47.0645C-245.105 34.138 -253.041 19.9637 -259.165 5.14661C-271.459 -24.4772 -275.08 -57.2218 -270.205 -88.1372C-268.393 -99.7184 -265.527 -111.101 -261.437 -121.981C-260.065 -125.605 -258.596 -129.184 -256.858 -132.639L-256.607 -132.505L-256.606 -132.477L-256.624 -132.477Z" fill="#73206F"/>
</g>
</g>
</svg>
