<svg width="315" height="741" viewBox="0 0 315 741" fill="none" xmlns="http://www.w3.org/2000/svg">
<mask id="mask0_578_10548" style="mask-type:alpha" maskUnits="userSpaceOnUse" x="0" y="0" width="315" height="741">
<rect width="315" height="740" transform="matrix(1 0 0 -1 0 740.5)" fill="#D9D9D9"/>
</mask>
<g mask="url(#mask0_578_10548)">
<path d="M373.788 -535.183C525.918 -568.18 726.992 -556.631 751.115 -379.81C756.259 -343.573 753.813 -306.734 747.874 -270.688C739.644 -216.613 720.069 -162.971 682.305 -120.276C580.407 -2.90988 399.451 10.2615 284.723 112.43C194.599 192.432 189.993 314.633 211.931 421.565C233.733 522.326 300.013 593.921 419.041 568.742C549.145 538.771 660.067 428.873 734.38 329.931C834.837 193.92 897.912 34.2687 915.391 -129.663C919.34 -166.019 925.034 -202.234 933.341 -237.96C1029.97 -657.91 1382.28 -467.915 1331.4 -129.837C1348.18 -236.611 1326.87 -358.023 1240.87 -436.029C1197.37 -475.083 1134.11 -493.971 1077.36 -467.981C1023.15 -443.328 989.535 -392.96 966.462 -343.156C935.886 -275.431 921.719 -202.478 913.479 -129.825C895.699 33.748 832.859 193.042 732.482 328.731C655.954 432.641 506.313 578.644 360.048 570.991C272.495 564.839 229.921 493.489 214.227 421.128C192.403 314.844 196.725 193.425 286.238 113.873C401.014 11.8524 581.876 -1.67792 683.571 -119.323C721.445 -162.263 741.052 -216.159 749.23 -270.486C755.115 -306.644 757.552 -343.601 752.283 -379.944C727.544 -557.208 526.5 -568.654 373.788 -535.183Z" fill="#FAECC8"/>
<path d="M373.788 -535.183C472.464 -552.882 605.461 -552.272 683.01 -485.169C719.795 -453.086 738.151 -409.777 743.521 -363.864C747.789 -327.608 744.894 -290.862 738.254 -254.978C731.888 -219.04 721.183 -183.494 702.348 -151.351C624.83 -14.9672 444.365 9.12768 317.659 91.027C218.288 154.612 186.749 246.352 192.636 354.633C195.261 400.153 201.938 446.337 220.896 488.695C279.324 617.954 412.24 600.659 520.406 534.764C713.518 414.097 839.55 196.41 888.313 -10.9202C905.918 -82.2632 906.944 -155.989 924.543 -227.321C932.821 -262.716 943.941 -298.375 959.254 -331.743C983.021 -383.006 1018.62 -435.713 1076.26 -458.173C1077.4 -458.6 1078.5 -459.12 1079.67 -459.47L1086.63 -461.665C1087.79 -462.031 1088.95 -462.423 1090.14 -462.66L1097.27 -464.338C1098.45 -464.658 1099.66 -464.824 1100.87 -465.015L1108.13 -466.165C1111.79 -466.498 1115.46 -466.841 1119.12 -467.045L1126.48 -467.108L1128.32 -467.119L1130.16 -467.002L1137.49 -466.542C1141.13 -466.131 1144.78 -465.617 1148.4 -465.061L1155.58 -463.57L1157.38 -463.203C1161.24 -462.023 1165.87 -461.06 1169.66 -459.615L1176.54 -457.197C1179.46 -455.889 1186.83 -453.019 1189.83 -451.305C1222.54 -435.283 1248.76 -409.74 1269.09 -381.401C1323.09 -304.374 1336.06 -207.839 1322.26 -118.12C1336.34 -207.898 1323.59 -304.542 1269.72 -381.789C1250.77 -408.44 1226.6 -432.451 1196.81 -448.843C1193.71 -450.384 1190.22 -452.281 1187.07 -453.794C1185.98 -454.329 1184.83 -454.758 1183.72 -455.251L1176.98 -458.117C1172.58 -459.593 1167.42 -461.663 1163.01 -462.725C1160.77 -463.323 1158.1 -464.193 1155.87 -464.594C1149.96 -465.979 1143.54 -466.964 1137.61 -467.625C1135.76 -467.799 1132.05 -467.955 1130.2 -468.118C1128.87 -468.321 1120.8 -468.183 1119.05 -468.184C1114.22 -467.836 1109.08 -467.604 1104.29 -466.741L1100.63 -466.166C1099.41 -465.979 1098.18 -465.808 1096.99 -465.493L1089.79 -463.808C1086.58 -463.063 1082.4 -461.529 1079.19 -460.593C1021.66 -439.856 985.054 -388.842 960.739 -338.593C947.742 -311.678 937.678 -282.835 929.629 -254.335C917.438 -210.081 909.566 -164.768 904.507 -119.388C880.389 97.5081 779.577 310.526 610.974 464.443C568.449 502.232 521.112 536.227 467.525 559.403C367.001 603.092 268.986 590.444 223.064 487.859C204.202 445.746 197.533 399.82 194.92 354.547C189.032 246.98 220.155 155.901 318.878 92.6734C445.719 10.8066 626.367 -13.9229 703.701 -150.653C722.571 -182.947 733.276 -218.683 739.605 -254.74C746.203 -290.731 749.067 -327.606 744.7 -363.967C739.174 -410.088 720.607 -453.551 683.558 -485.71C605.658 -552.799 472.691 -553.141 373.788 -535.183Z" fill="#FAECC8"/>
<path d="M373.788 -535.183C450.078 -545.757 534.267 -543.845 606.308 -516.511C742.192 -464.244 753.06 -337.577 724.296 -219.663C708.021 -152.65 672.393 -97.7121 614.414 -54.5479C519.983 16.4265 396.139 41.1481 299.008 108.258C289.431 114.931 279.412 122.725 270.683 130.362C201.7 190.182 180.275 270.335 183.122 355.423C184.535 396.307 189.527 437.867 202.637 477.041C253.08 626.295 390.405 620.58 513.265 545.251C675.601 443.288 786.603 274.86 848.576 105.142C873.417 35.8361 889.869 -36.0294 897.468 -108.692C901.69 -147.198 908.131 -185.524 917.203 -223.314C918.467 -227.979 921.177 -238.542 922.435 -243.222C923.443 -246.888 927.232 -259.266 928.295 -262.985C933.157 -277.792 938.702 -293.845 944.942 -308.223C970.085 -367.184 1010.86 -430.807 1079.91 -450.729L1088.82 -452.825C1092.42 -453.503 1096.05 -454.026 1099.67 -454.58L1106.99 -455.194C1108.21 -455.293 1109.43 -455.417 1110.66 -455.398L1118.01 -455.465C1119.23 -455.523 1120.45 -455.379 1121.67 -455.313L1129 -454.853L1132.63 -454.359C1138.44 -453.674 1145.03 -452.415 1150.6 -450.929L1157.64 -448.964C1161.11 -447.815 1164.53 -446.582 1167.97 -445.355C1171.14 -443.925 1178.02 -441.249 1181.21 -439.432L1184.45 -437.817C1188.48 -435.852 1191.79 -433.645 1195.45 -431.634C1198.2 -429.816 1201.73 -427.553 1204.47 -425.735C1206.54 -424.281 1211.08 -420.821 1213.12 -419.371L1214.5 -418.241L1217.25 -415.973C1307.38 -339.206 1329.7 -214.707 1313.16 -106.467C1330.05 -214.814 1307.92 -339.545 1217.86 -416.614L1215.11 -418.896L1213.72 -420.027C1211.78 -421.402 1207 -425.052 1205.06 -426.437C1202.29 -428.244 1198.79 -430.58 1196.01 -432.387C1193.01 -434.126 1188.03 -437.1 1184.96 -438.631C1181.65 -440.145 1178.49 -442.082 1175.11 -443.383L1168.39 -446.255C1163.95 -447.951 1159.09 -449.627 1154.46 -450.91C1152.16 -451.455 1149.61 -452.416 1147.34 -452.806L1140.11 -454.317C1136.85 -454.908 1132.46 -455.449 1129.12 -455.92C1125.55 -456.085 1121.55 -456.549 1118.02 -456.566C1114.84 -456.55 1109.85 -456.6 1106.9 -456.317L1099.5 -455.711C1095.84 -455.162 1092.16 -454.632 1088.52 -453.959L1081.32 -452.274C1012.98 -433.878 972.062 -372.636 946.119 -315.115C944.094 -310.333 941.371 -303.89 939.4 -299.161C938.744 -297.559 934.09 -284.993 933.295 -283.005C931.205 -276.811 928.725 -269.678 926.66 -263.397C925.552 -259.506 921.936 -247.716 920.756 -243.601C908.546 -199.419 900.611 -154.171 895.528 -108.853C871.704 107.813 771.336 320.577 603.42 474.713C561.082 512.596 513.92 546.654 460.593 570.133C328.116 627.981 228.795 583.131 197.267 450.068C189.02 415.868 185.782 380.133 185.103 345.132C184.45 261.066 207.99 184.601 277.563 127.214C285.52 120.455 294.606 113.774 303.183 107.778C399.929 42.3867 522.032 17.0805 615.46 -53.2944C675.62 -98.1678 712 -156.208 727.143 -226.078C754.245 -342.849 739.872 -466.161 606.488 -517.032C534.228 -544.231 450.112 -545.933 373.732 -535.181L373.788 -535.183Z" fill="#FAECC8"/>
<path d="M373.788 -535.183C461.802 -544.028 569.29 -534.544 642.696 -485.414C656.511 -476.021 669.298 -465.159 680.191 -452.911C692.593 -438.967 702.933 -423.085 710.353 -406.373C742.309 -335.371 729.469 -244.092 703.944 -172.584C636.24 5.28624 437.967 20.9794 292.995 117.053C195.788 182.322 167.654 275.9 174.746 383.043C179.076 445.92 190.759 513.278 235.836 562.934C261.479 591.233 300.307 608.02 340.139 608.759C437.754 610.14 529.786 546.984 597.288 486.858C737.357 358.216 829.312 187.883 870.662 10.1679C876.737 -16.5979 881.611 -43.6009 885.221 -70.7413C890.485 -115.982 895.97 -161.279 906.773 -205.724C909.604 -218.03 913.767 -233.278 917.485 -245.432C936.811 -308.186 968.755 -379.144 1027.23 -418.732C1066.66 -445.551 1114.12 -451.28 1159.3 -433.45C1197.83 -418.116 1228.49 -389.576 1251.32 -357.496C1304.95 -280.5 1317.89 -184.275 1304.09 -94.7469C1318.15 -184.328 1305.44 -280.673 1251.96 -357.884C1229.13 -390.14 1198.39 -418.895 1159.72 -434.375C1114.17 -452.469 1066.32 -446.781 1026.44 -419.75C967.608 -380.059 935.375 -308.882 915.866 -245.849C912.117 -233.633 907.926 -218.41 905.073 -206.062C894.188 -161.563 888.615 -116.227 883.28 -70.9542C879.629 -43.8694 874.731 -16.9277 868.62 9.77181C827.253 187.059 735.458 356.99 595.635 485.279C528.507 545.019 437.075 607.721 340.24 606.484C301.037 605.724 262.902 589.337 237.673 561.471C199.309 519.587 185.502 463.567 179.421 410.087C177.94 396.762 176.779 382.557 176.392 369.297C170.896 208.937 244.813 129.503 396.154 64.0427C523.002 8.65934 655.763 -38.291 705.351 -172.13C730.877 -243.994 743.618 -335.457 711.296 -406.744C703.791 -423.505 693.36 -439.452 680.862 -453.424C669.896 -465.691 657.03 -476.587 643.137 -485.963C569.472 -534.987 461.946 -544.259 373.804 -535.188L373.788 -535.183Z" fill="#FAECC8"/>
<path d="M373.788 -535.183C475.389 -541.113 602.898 -521.178 670.838 -444.855C702.6 -409.651 717.777 -364.593 720.549 -319.226C722.878 -282.915 717.982 -246.509 709.751 -211.017C701.706 -175.484 688.411 -140.8 668.011 -109.701C583.106 21.9698 406.083 44.1988 281.146 129.765C213.64 176.554 177.646 237.512 167.722 314.815C162.103 360.08 164.577 406.147 172.071 451.091C196.649 596.774 296.636 661.042 446.818 594.114C631.743 507.301 767.964 304.565 831.12 126.442C852.635 65.8663 867.877 3.38846 876.212 -59.9008C882.312 -114.142 889.655 -168.421 904.647 -221.263C922.48 -283.018 950.079 -349.964 1001.49 -394.429L1004.17 -396.765L1007 -398.935L1012.64 -403.291C1014.54 -404.714 1016.59 -405.97 1018.55 -407.327C1022.93 -410.436 1027.73 -412.952 1032.38 -415.67L1034 -416.461L1040.52 -419.616C1072 -434.041 1107.08 -435.823 1140.3 -425.287C1162.23 -418.149 1182.4 -406.525 1199.62 -392.123C1274.61 -328.428 1302.36 -229.195 1299.96 -137.424C1299.42 -119.24 1297.72 -101.087 1294.99 -83.0675C1309.05 -172.571 1296.35 -268.798 1243.01 -345.987C1221.53 -376.351 1193.22 -403.569 1157.69 -419.673C1119.95 -436.669 1079.8 -438.014 1041.58 -421.502C1039.23 -420.398 1035.72 -418.69 1033.36 -417.555L1031.72 -416.758L1030.14 -415.86C1023.78 -412.348 1017.66 -408.492 1011.79 -404.306C1009.41 -402.468 1005.43 -399.421 1003.25 -397.748C954.511 -356.74 927.796 -298.698 908.962 -241.425C904.244 -226.467 899.707 -210.285 896.117 -195.109C887.633 -159.523 881.7 -123.462 877.574 -87.246C862.483 57.565 811.989 198.987 731.659 324.007C671.179 417.079 594.59 503.782 496.717 564.942C448.084 594.469 392.181 618.913 332.974 618.204C226.145 616.035 183.827 522.671 172.203 437.264C156.172 318.281 172.074 207.255 282.446 131.331C407.633 45.6817 584.32 23.2446 669.365 -108.977C689.8 -140.227 703.117 -175.118 711.13 -210.779C723.373 -263.978 728.332 -320.265 712.056 -373.159C706.74 -390.608 698.902 -407.717 688.631 -423.162C678.497 -438.688 665.6 -452.934 651.129 -465.12C580.075 -524.838 466.79 -540.884 373.803 -535.214L373.788 -535.183Z" fill="#FAECC8"/>
<path d="M373.788 -535.183C459.207 -536.421 555.3 -518.921 624.375 -470.283C661.825 -443.696 688.863 -407.548 702.131 -365.605C719.36 -310.809 714.07 -252.309 700.312 -197.331C684.302 -125.988 640.983 -60.7236 577.857 -16.9244C463.405 66.3597 295.435 88.2238 207.899 200.802C161.606 261.052 151.376 338.007 156.766 410.104C158.95 441.792 163.463 473.823 172.832 504.405C221.053 661.807 362.206 657.883 490.115 577.826C679.815 456.427 805.887 237.65 852.817 31.8857C860.921 -3.73669 866.546 -39.816 870.461 -76.0212C877.197 -134.663 888.158 -193.203 908.287 -249.282C928.454 -303.879 958.1 -361.218 1009.8 -395.853C1051.96 -424.044 1101.57 -428.047 1148.42 -406.936C1165.96 -398.976 1182.04 -388.149 1196.13 -375.633C1266.86 -311.377 1293.2 -215.299 1290.85 -125.662C1290.3 -107.493 1288.6 -89.3607 1285.88 -71.3518C1299.9 -160.761 1287.26 -256.948 1234.03 -334.088C1212.63 -364.445 1184.32 -391.663 1148.88 -407.831C1109.86 -425.594 1066.71 -426.463 1027.92 -407.597C1014.83 -401.416 1002.59 -393.166 991.783 -383.968C957.168 -354.538 934.193 -315.378 916.896 -275.401C904.176 -245.87 894.635 -214.955 887.149 -183.97C878.653 -148.415 872.698 -112.389 868.559 -76.204C851.626 86.5363 790.279 245.213 691.619 380.877C625.55 470.089 543.432 553.847 437.947 603.18C316.93 658.313 213.168 629.7 175.112 503.808C165.776 473.38 161.256 441.5 159.077 409.966C153.689 338.329 163.731 261.854 209.701 201.973C238.043 164.77 277.64 136.341 319.949 113.744C404.842 68.2209 500.652 40.3826 578.937 -15.6565C642.256 -59.7034 685.757 -125.437 701.692 -197.041C715.417 -252.225 720.606 -310.935 703.149 -365.879C689.727 -407.927 662.457 -444.213 624.806 -470.785C555.545 -519.325 459.312 -536.631 373.804 -535.188L373.788 -535.183Z" fill="#FAECC8"/>
<path d="M373.788 -535.183C450.433 -532.981 532.645 -514.918 597.063 -475.432C642.559 -447.428 677.019 -407.457 692.932 -358.808C711.894 -302.131 706.055 -241.04 690.958 -184.142C677.739 -131.135 650.642 -80.8495 609.98 -41.3274C541.885 25.6253 446.696 58.3165 359.498 98.2608C306.815 122.373 254.586 150.439 215.538 191.918C153.175 257.1 140.874 346.052 148.196 429.897C154.641 514.064 184.925 622.442 287.951 641.275C357.134 652.857 425.396 623.588 481.912 588.976C643.726 484.228 751.346 319.399 813.439 148.409C833.308 92.2182 847.753 34.3773 856.303 -24.2085C858.359 -37.7026 859.809 -51.3049 861.422 -64.8494C867.676 -118.961 877.459 -172.952 894.85 -225.014C917.321 -292.235 958.369 -372.858 1033.02 -400.594C1062.93 -411.406 1096.17 -411.167 1126.06 -400.472L1131.2 -398.675L1139.53 -395.148C1140.66 -394.703 1141.72 -394.142 1142.8 -393.602L1146.03 -391.992C1150.36 -390.024 1154.61 -387.274 1158.63 -385.045C1249.88 -327.345 1284.86 -211.938 1281.74 -113.92C1281.2 -95.7616 1279.49 -77.6345 1276.77 -59.6361C1280.24 -82.0999 1282.12 -104.842 1282.13 -127.536C1282.02 -221.963 1246.67 -330.204 1159.2 -385.819C1156.76 -387.279 1152.15 -389.9 1149.78 -391.202C1148.11 -392.01 1144.95 -393.642 1143.3 -394.456C1140.48 -395.953 1134.64 -398.264 1131.64 -399.585C1104.99 -409.935 1074.71 -413.004 1046.65 -405.865L1043.07 -405.028L1039.56 -403.94C1037.23 -403.187 1034.88 -402.507 1032.57 -401.708L1025.76 -399.011C1022.51 -397.801 1018.98 -395.922 1015.83 -394.441C1012.06 -392.664 1006.75 -389.464 1003.18 -387.357C1001.44 -386.212 996.045 -382.576 994.202 -381.345C944.561 -344.853 916.548 -289.638 896.571 -235.226C889.418 -214.67 883.199 -193.786 878.163 -172.712C869.655 -137.188 863.693 -101.177 859.526 -65.0169C840.693 115.602 767.581 291.625 648.688 436.12C572.564 528.996 424.164 660.772 288.438 639.052C186.731 620.495 156.862 512.767 150.523 429.728C143.229 346.481 155.281 257.995 217.21 193.237C256.041 151.945 308.035 124.045 360.446 99.9813C447.69 59.8913 543.105 26.9154 611.215 -40.2855C651.982 -80.0169 679.169 -130.646 692.344 -183.837C707.407 -240.941 713.145 -302.267 693.938 -359.087C677.827 -407.86 643.169 -447.904 597.435 -475.896C532.835 -515.269 450.546 -533.149 373.815 -535.183L373.788 -535.183Z" fill="#FAECC8"/>
<path d="M373.788 -535.183C476.627 -527.524 594.863 -489.322 654.787 -407.296C711.731 -330.325 703.042 -230.366 673.527 -145.344C621.566 2.01785 486.058 48.2808 348.418 109.826C313.292 126.082 278.677 143.807 247.809 166.483C145.049 239.497 127.37 350.229 141.292 462.865C161.384 638.355 277.162 706.869 448.477 614.865C673.323 487.051 819.279 211.07 849.122 -26.4121C856.14 -89.5432 865.256 -152.853 885.846 -213.585C897.356 -248.135 912.45 -282.132 933.179 -312.847C957.632 -348.772 992.542 -382.01 1038.07 -393.058C1063.99 -399.573 1092.14 -397.606 1117.13 -388.694L1120.55 -387.497L1122.27 -386.886L1123.93 -386.17L1130.59 -383.349C1137.05 -380.44 1143.62 -376.806 1149.66 -373.245C1240.82 -315.47 1275.75 -200.186 1272.62 -102.184C1272.08 -84.0251 1270.37 -65.9132 1267.66 -47.9253C1270.42 -65.9148 1272.18 -84.0224 1272.77 -102.182C1275.74 -197.248 1244.91 -304.372 1162.13 -366.011C1155.6 -370.823 1147.99 -375.479 1140.81 -379.428C1137.62 -381.059 1134.27 -382.743 1131.06 -384.244C1129.59 -384.929 1124 -387.221 1122.68 -387.816C1101.69 -395.908 1078.59 -399.778 1055.89 -397.348C1054.09 -397.27 1046.97 -396.135 1044.93 -395.792C1042.97 -395.468 1039.74 -394.666 1037.74 -394.206C1032.94 -393.229 1028.28 -391.507 1023.65 -390.075L1016.85 -387.378C1015.73 -386.905 1014.56 -386.518 1013.46 -385.983L1010.19 -384.4C1008.01 -383.327 1005.8 -382.334 1003.67 -381.189C999.75 -378.903 994.817 -376.291 991.26 -373.761C935.889 -337.166 904.122 -272.615 884.25 -214.019C866.715 -161.917 856.807 -107.839 850.437 -53.6631C827.424 162.321 728.441 374.383 562.462 529.15C520.614 567.206 474.074 601.558 421.401 625.84C257.21 699.912 161.484 618.426 143.578 462.64C126.808 321.328 158.233 211.72 297.611 137.448C447.93 57.8041 613.578 27.0676 674.872 -144.904C704.402 -230.391 712.858 -330.489 655.45 -407.711C595.197 -489.713 476.811 -527.725 373.761 -535.156L373.788 -535.183Z" fill="#FAECC8"/>
<path d="M373.788 -535.183C498.739 -519.942 637.139 -459.623 676.443 -340.301C696.248 -281.504 689.928 -217.983 672.607 -159.292C653.497 -88.7259 607.867 -25.2086 544.396 17.8301C422.61 105.137 238.382 126.221 162.221 261.496C125.861 326.945 123.82 403.367 132.267 475.074C140.818 544.992 166.796 627.123 242.705 657.066C352.263 697.209 480.478 610.597 555.355 542.11C717.953 390.178 816.602 183.118 841.716 -28.4963C852.757 -130.639 879.405 -268.915 960.646 -343.728C965.817 -348.479 971.499 -352.933 977.142 -357.175L986.048 -363.143C987.056 -363.779 988.11 -364.343 989.146 -364.954L995.373 -368.524C998.909 -370.413 1001.62 -371.527 1005.08 -373.28C1006.17 -373.793 1007.32 -374.19 1008.43 -374.652L1015.16 -377.332L1022.08 -379.531C1023.25 -379.882 1024.38 -380.298 1025.56 -380.593L1029.1 -381.433C1050.3 -386.777 1073.02 -386.321 1094.22 -381.209C1100.66 -379.539 1107.05 -377.511 1113.27 -375.189L1114.93 -374.473L1121.59 -371.652C1128.02 -368.742 1134.62 -365.093 1140.65 -361.537C1229.82 -304.95 1265.07 -193.402 1263.68 -97.3139C1263.38 -76.9103 1261.64 -56.469 1258.57 -36.2668C1261.34 -54.2409 1263.09 -72.3486 1263.69 -90.5087C1266.66 -185.558 1235.84 -292.637 1153.12 -354.292C1150.07 -356.712 1144.53 -360.084 1141.21 -362.316C1138.93 -363.553 1134.07 -366.54 1131.82 -367.715C1128.54 -369.241 1125.33 -371.109 1122.07 -372.542L1115.37 -375.404C1095.15 -383.598 1072.7 -387.769 1050.61 -386.006C1043.58 -385.559 1035.59 -384.303 1028.79 -382.587C1024.86 -381.86 1018.6 -379.657 1014.7 -378.471C1011.81 -377.333 1007.15 -375.523 1004.52 -374.401L1001.25 -372.818C999.071 -371.744 996.853 -370.752 994.716 -369.622L988.435 -366.025C987.398 -365.414 986.327 -364.844 985.303 -364.203C927.842 -327.553 895.637 -262.517 875.23 -202.558C869.332 -185.257 864.387 -167.556 860.078 -149.863C851.558 -114.369 845.567 -78.3831 841.399 -42.2488C815.505 202.897 684.177 465.071 463.356 609.84C347.266 683.248 207.481 700.041 153.039 554.247C143.518 528.554 137.924 501.751 134.584 474.787C123.428 386.27 131.26 287.686 196.618 217.324C234.782 175.554 286.471 147.166 338.709 122.875C442.607 75.163 560.436 34.2711 626.594 -59.5381C648.495 -89.8245 663.998 -123.812 673.96 -159.002C690.628 -215.77 697.008 -276.871 679.518 -334.097C665.203 -382.478 632.497 -425.221 590.081 -456.089C528.216 -500.944 451.206 -525.808 373.803 -535.24L373.788 -535.183Z" fill="#FAECC8"/>
<path d="M373.788 -535.183C459.391 -520.332 545.439 -485.814 606.544 -427.199C640.38 -394.502 664.53 -353.142 674.274 -308.68C686.439 -255.239 679.514 -199.608 663.554 -147.464C643.482 -77.1466 597.156 -14.1845 533.722 28.781C411.897 115.892 227.697 137.549 152.449 273.358C121.064 330.571 115.687 396.804 120.531 459.889C123.271 496.148 128.97 532.485 141.776 566.969C151.489 592.745 165.259 617.621 185.62 637.656C212.464 664.881 252.069 679.635 291.712 679.056C388.996 677.302 479.289 614.212 546.406 553.677C703.864 406.624 800.983 207.731 830.091 3.41745C830.858 -2.6335 831.98 -10.8365 832.623 -16.8894C838.028 -66.4759 845.915 -116.05 859.613 -164.303C880.098 -234.761 915.607 -317.951 986.332 -356.831C988.447 -357.944 990.643 -358.946 992.799 -360.004L996.038 -361.576C997.133 -362.085 998.27 -362.486 999.383 -362.949L1006.11 -365.628L1013.04 -367.812C1014.21 -368.163 1015.34 -368.579 1016.51 -368.863L1020.06 -369.704C1045.99 -376.178 1074.12 -374.179 1099.08 -365.241C1112.72 -360.572 1125.79 -353.73 1137.59 -345.879C1209.2 -296.951 1243.38 -212.876 1252.35 -133.148C1256.24 -97.1459 1254.94 -60.3375 1249.46 -24.5358C1252.24 -42.5099 1253.99 -60.6176 1254.58 -78.7672C1257.31 -172.52 1228.44 -274.826 1149.8 -338.271C1123.39 -358.79 1091.2 -373.313 1056.32 -374.604C1051.51 -374.628 1046.38 -374.774 1041.56 -374.266C1039.12 -373.996 1036.54 -373.975 1034.22 -373.574L1026.93 -372.434C1023.66 -371.858 1019.43 -370.762 1016.16 -370.021C1014.32 -369.488 1007.7 -367.415 1005.65 -366.757C1002.7 -365.581 998.147 -363.825 995.47 -362.687C992.203 -361.114 988.847 -359.53 985.665 -357.908L979.384 -354.311C927.216 -322.843 896.962 -269.295 875.548 -216.751C865.894 -192.215 858.18 -166.971 851.776 -141.545C842.914 -104.963 836.593 -67.8843 832.307 -30.6162C809.376 185.289 710.53 397.295 544.732 552.115C477.967 612.279 388.262 674.91 291.718 676.779C252.687 677.315 213.802 662.936 187.382 636.123C147.229 595.825 132.416 539.944 125.503 486.806C114.365 398.31 121.74 299.784 186.546 229.044C224.414 187.044 275.986 158.453 328.147 134.039C415.107 93.3939 509.905 60.114 579.065 -5.92143C620.51 -44.9527 649.515 -94.4414 664.908 -147.123C684.642 -211.231 689.964 -281.639 664.001 -344.861C618.809 -454.761 492.693 -514.791 373.788 -535.183Z" fill="#FAECC8"/>
<path d="M373.788 -535.183C484.534 -510.525 601.376 -449.144 648.989 -349.205C664.917 -316.088 672.374 -279.694 672.475 -243.49C671.197 -153.519 637.186 -61.0481 568.096 3.70505C498.854 69.4122 404.411 102.642 317.507 143.26C265.098 167.809 213.345 196.679 175.357 238.971C110.389 310.278 102.932 409.43 114.041 498.449C117.39 525.558 122.989 552.541 132.571 578.388C187.357 725.081 328.198 710.068 446.475 635.158C660.148 496.389 793.732 237.951 822.718 1.7042C829.262 -59.1477 838.874 -120.142 858.593 -178.652C870.108 -213.186 885.225 -247.173 905.96 -277.873C930.419 -313.782 965.358 -346.995 1010.88 -357.992C1032.08 -363.336 1054.8 -362.879 1076 -357.778C1082.45 -356.107 1088.84 -354.079 1095.05 -351.757L1096.71 -351.042L1103.38 -348.22C1109.81 -345.305 1116.4 -341.666 1122.44 -338.106C1213.52 -280.339 1248.47 -165.019 1245.34 -67.0737C1244.79 -48.9303 1243.09 -30.8137 1240.36 -12.8306C1243.12 -30.8095 1244.89 -48.9123 1245.49 -67.0724C1248.46 -162.122 1217.64 -269.2 1134.91 -330.856C1131.91 -333.272 1126.3 -336.647 1123.01 -338.88C1120.74 -340.163 1115.85 -343.072 1113.61 -344.279C1110.42 -345.91 1107.08 -347.594 1103.86 -349.106L1097.17 -351.967C1076.94 -360.162 1054.5 -364.333 1032.41 -362.57C1025.38 -362.123 1017.39 -360.867 1010.58 -359.141C1006.65 -358.413 1000.39 -356.211 996.491 -355.025C993.585 -353.87 988.958 -352.082 986.314 -350.954L983.041 -349.372C980.864 -348.298 978.645 -347.305 976.508 -346.176L970.227 -342.578C969.191 -341.968 968.12 -341.398 967.107 -340.752C909.646 -304.102 877.441 -239.065 857.046 -179.102C851.147 -161.8 846.202 -144.1 841.893 -126.406C833.373 -90.9122 827.383 -54.9266 823.215 -18.7923C808.35 125.734 758.403 266.971 678.572 391.926C613.423 492.437 529.73 586.636 420.34 647.813C305.751 710.875 183.727 709.608 134.849 577.688C125.327 551.995 119.745 525.197 116.399 498.217C105.321 409.709 112.536 311.203 177.08 240.274C214.844 198.178 266.357 169.485 318.489 144.995C405.411 104.232 500.075 70.7281 569.321 4.7936C638.579 -60.346 672.625 -153.133 673.725 -243.487C673.52 -279.812 665.925 -316.342 649.855 -349.532C601.845 -449.528 484.796 -510.744 373.788 -535.183Z" fill="#FAECC8"/>
<path d="M373.788 -535.183C448.687 -514.615 520.023 -478.925 575.765 -427.895C666.091 -345.489 683.248 -235.153 646.172 -125.738C629.597 -73.63 600.154 -24.636 558.714 14.0286C475.329 93.3434 356.961 124.526 256.64 180.339C241.938 188.586 227.615 197.557 214.051 207.338C126.631 269.12 98.0639 356.244 100.869 455.032C102.049 491.14 105.64 528.084 114.991 563.231C134.003 637.328 182.691 702.55 272.576 702.434C332.241 702.207 388.127 677.17 436.896 647.154C598.534 542.292 706.05 377.507 768.043 206.55C787.879 150.37 802.302 92.5456 810.831 33.9759C812.886 20.4818 814.319 6.88507 815.939 -6.64414C821.095 -51.7525 828.944 -96.6678 841.296 -140.585C863.313 -217.821 908.4 -319.885 998.069 -345.441L1005.16 -347.123C1006.35 -347.387 1007.51 -347.727 1008.73 -347.877L1015.95 -349.02C1016.55 -349.103 1017.15 -349.227 1017.76 -349.284L1019.58 -349.43L1023.22 -349.731C1027.6 -350.15 1033.33 -350.201 1037.84 -350.128C1054.34 -349.551 1070.58 -345.941 1085.82 -340.147C1090.14 -338.287 1096.5 -335.736 1100.63 -333.459C1104.89 -331.53 1109.25 -328.711 1113.22 -326.516C1204.4 -268.757 1239.34 -153.442 1236.22 -55.4402C1235.67 -37.2816 1233.97 -19.1649 1231.25 -1.18187C1236.82 -36.9913 1238.24 -73.839 1234.44 -109.869C1225.48 -194.162 1185.95 -287.547 1104.38 -332.694C1084.13 -343.475 1061.34 -350.42 1037.89 -351.265C1034.21 -351.314 1030.5 -351.294 1026.81 -351.203C1024.95 -351.098 1021.29 -350.729 1019.44 -350.609L1017.61 -350.458C1016.99 -350.406 1016.39 -350.281 1015.78 -350.199C1012.64 -349.709 1007.73 -349.034 1004.89 -348.299L1001.3 -347.462C996.505 -346.485 991.843 -344.763 987.216 -343.33C984.25 -342.138 979.716 -340.424 977.045 -339.245C973.778 -337.672 970.399 -336.097 967.246 -334.451C964.492 -332.861 960.322 -330.532 957.839 -329.016C956.105 -327.84 950.683 -324.255 948.845 -323.009C898.283 -285.806 869.933 -229.322 850.046 -173.751C843.273 -154.278 837.526 -134.466 832.713 -114.518C824.199 -79.0089 818.22 -43.0185 814.058 -6.86888C795.279 173.697 722.272 349.676 603.496 494.183C528.048 586.701 378.501 719.116 243.584 697.592C141.646 679.521 111.557 571.928 105.061 488.872C102.972 464.23 102.332 438.811 103.934 414.181C109.72 327.324 144.643 256.976 221.203 204.715C280.485 163.959 349.587 138.645 414.907 107.599C484.765 75.1338 552.807 33.7211 597.44 -27.0283C619.79 -56.8411 636.379 -90.6656 647.525 -125.422C684.577 -235.28 666.999 -345.9 576.209 -428.34C520.241 -479.302 448.827 -514.81 373.803 -535.24L373.788 -535.183Z" fill="#FAECC8"/>
</g>
</svg>
