<svg width="525" height="841" viewBox="0 0 525 841" fill="none" xmlns="http://www.w3.org/2000/svg">
<mask id="mask0_2524_9352" style="mask-type:alpha" maskUnits="userSpaceOnUse" x="-32" y="0" width="557" height="841">
<rect x="-31.3115" y="0.973877" width="556.312" height="839.468" fill="#D9D9D9"/>
</mask>
<g mask="url(#mask0_2524_9352)">
<g clip-path="url(#clip0_2524_9352)">
<path d="M-306.138 1519.5C-218.622 1560.87 -63.2661 1608.65 5.91887 1516.2C37.0438 1473.16 45.2831 1406.49 34.2858 1355.19C-25.4082 1092.05 -620.569 1125.54 -804.555 938.573C-834.884 908.885 -856.152 869.651 -861.311 827.298C-868.242 769.236 -852.035 710.47 -826.435 658.684C-779.623 570 -700.059 562.181 -611.245 586.463C-415.544 637.53 -128.904 866.77 67.3768 799.017C144.687 770.907 166.862 695.835 160.209 619.945C158.293 599.208 154.53 578.262 149.354 558.136C74.7775 293.251 -179.672 78.7479 -442.35 12.9129C-496.502 -1.01625 -552.483 -9.09868 -608.244 -12.239C-614.961 -12.5548 -633.122 -14.0397 -639.77 -14.7754C-644.868 -15.2783 -655.594 -16.5764 -660.73 -17.0963C-670.753 -18.6317 -682.009 -20.1021 -691.988 -21.9399C-813.839 -43.0272 -936.838 -104.005 -996.85 -216.88C-1002.14 -227.109 -1007.94 -239.656 -1012.04 -250.541L-1015.54 -260.514C-1016.11 -262.183 -1016.75 -263.82 -1017.26 -265.511L-1018.7 -270.587L-1021.6 -280.74L-1023.9 -291.035L-1025.05 -296.188C-1025.45 -297.895 -1025.64 -299.66 -1025.95 -301.398L-1027.61 -311.829C-1028.18 -315.299 -1028.38 -318.825 -1028.77 -322.317L-1029.29 -327.569L-1029.55 -330.195L-1029.65 -332.832L-1030.08 -343.382C-1030.32 -346.899 -1030.08 -350.422 -1030.05 -353.94C-1029.94 -357.45 -1030 -360.975 -1029.76 -364.498L-1028.92 -375.017C-1028.76 -376.774 -1028.69 -378.528 -1028.45 -380.278L-1027.72 -385.513L-1026.25 -395.969L-1024.18 -406.312L-1023.14 -411.49C-1022.75 -413.212 -1022.27 -414.898 -1021.82 -416.6L-1019.13 -426.816C-975.392 -575.781 -827.277 -655.285 -681.111 -672.136C-611.553 -680.583 -540.513 -677.815 -471.334 -667.404L-450.539 -664.219L-471.354 -667.339C-477.42 -668.431 -486.135 -669.438 -492.211 -670.157C-616.384 -685.406 -749.217 -676.801 -860.466 -615.115C-964.704 -557.459 -1035.89 -451.978 -1027.56 -330.346C-1019.23 -218.594 -946.693 -129.299 -850.073 -77.7509C-794.612 -48.0245 -732.909 -30.2168 -670.76 -21.3927C-622.331 -14.0818 -572.586 -14.6954 -524.224 -6.69784C-440.873 5.6313 -359.286 30.9876 -283.312 67.4311C-95.2678 159.253 67.3134 318.65 140.515 516.861C148.672 540.027 155.213 564.034 159.631 588.206C160.169 592.352 162.374 604.478 162.675 609.134C163.795 618.459 164.861 631.325 164.861 640.793C166.582 721.676 131.471 789.325 48.3024 808.55C-17.4099 824.11 -86.096 810.454 -149.28 790.22C-296.493 742.215 -426.957 655.246 -572.101 602.339C-598.423 593.008 -625.415 585.199 -653.052 580.952C-731.123 568.757 -789.73 592.592 -825.898 664.871C-877.925 776.695 -877.964 885.848 -770.515 963.492C-725.208 996.524 -672.876 1018.5 -620.287 1037.18C-540.816 1064.93 -458.871 1084.63 -377.484 1105.92C-234.856 1145.8 20.6854 1198.41 39.051 1375.7C43.2809 1423.01 34.9417 1477.85 6.65248 1516.74C-63.1553 1609.56 -218.737 1561.09 -306.138 1519.5Z" fill="#FAECC8"/>
<path d="M-306.137 1519.5C-207.454 1563.92 -24.6627 1617.45 38.0537 1495.93C56.4612 1458.13 61.6704 1414.21 56.6658 1372.73C53.0206 1344.91 42.8182 1318.01 27.0778 1294.81C-98.107 1111.67 -546.011 1110.2 -742.031 975.25C-820.253 923.196 -856.685 850.717 -839.267 756.947C-833.163 723.973 -822.614 691.624 -807.486 661.66C-806.115 659.248 -803.646 654.771 -802.29 652.372C-800.921 649.573 -795.522 641.745 -793.722 638.909C-767.717 601.817 -731.823 580.596 -686.593 577.084C-605.114 571.48 -517.445 612.651 -444.586 645.92C-333.269 697.984 -225.714 760.078 -107.337 795.038C-98.2955 797.596 -86.0217 800.78 -76.7798 802.932L-66.4999 805.106L-61.366 806.186C19.2348 822.204 124.496 816.533 163.701 731.833C187.502 680.576 183.404 621.233 170.773 567.436C114.868 352.704 -64.5495 171.071 -260.19 74.6057C-335.879 37.4436 -417.155 11.9047 -500.423 -1.26964C-556.043 -10.4498 -612.743 -9.61575 -668.293 -19.3625C-696.079 -24.2636 -723.583 -30.8037 -750.456 -39.4151C-877.885 -79.1342 -990.417 -174.602 -1008.38 -312.679C-1015.72 -370.501 -1004.18 -430.488 -976.225 -481.562C-975.161 -483.43 -972.443 -488.816 -971.087 -490.802C-966.187 -499.12 -959.342 -509.446 -953.671 -517.327C-950.326 -521.237 -944.199 -529.954 -940.517 -533.898L-933.546 -541.851C-932.363 -543.161 -931.255 -544.532 -930.024 -545.784C-924.419 -551.378 -917.229 -559.123 -911.158 -564.298C-821.633 -645.981 -696.606 -675.372 -578.046 -675.277C-550.304 -675.341 -521.262 -673.583 -493.735 -670.921C-486.098 -670.074 -469.682 -668.055 -462.291 -667.152C-455.906 -666.176 -437.699 -663.393 -430.986 -662.371C-438.011 -663.477 -455.494 -666.028 -462.299 -667.073C-563.028 -680.316 -667.864 -678.683 -764.993 -646.474C-857.897 -616.275 -943.958 -552.825 -984.074 -461.868C-1016.16 -391.067 -1016.74 -308.276 -985.412 -237.14C-930.731 -110.763 -798.055 -43.5237 -667.854 -22.0528C-640.131 -17.4646 -612.137 -14.6765 -584.104 -12.9645C-527.785 -9.7959 -471.789 -1.19195 -417.172 12.8897C-253.18 55.5755 -103.645 148.746 9.7411 274.368C104.618 380.388 204.994 545.743 180.252 692.982C167.265 758.307 124.582 799.833 59.2507 812.337C38.527 816.28 16.8295 817.793 -4.22195 816.81C-24.9839 816.002 -46.9691 812.993 -67.2725 808.75C-91.2687 803.823 -115.521 796.897 -138.686 789.078C-245.5 752.619 -344.285 696.924 -446.111 649.09C-525.025 613.116 -640.845 557.634 -727.001 589.312C-733.585 591.85 -739.808 594.916 -745.838 598.188L-754.606 603.804C-755.356 604.25 -756.059 604.754 -756.727 605.302C-772.824 617.102 -786.244 632.579 -796.782 649.528C-797.791 650.962 -798.622 652.493 -799.465 654.01L-802.022 658.585L-804.58 663.16C-805.449 664.674 -806.115 666.289 -806.896 667.852C-831.801 721.107 -847.713 782.156 -836.51 840.839C-826.206 896.74 -786.667 942.031 -740.356 972.735C-543.974 1108.06 -97.0021 1109.52 28.3824 1293.88C60.853 1340.94 66.2931 1401.95 53.2385 1456.6C49.9792 1470.32 45.3979 1483.79 38.9588 1496.35C-24.3405 1618.37 -207.53 1564.15 -306.146 1519.46L-306.137 1519.5Z" fill="#FAECC8"/>
<path d="M-306.137 1519.5C-224.132 1554.69 -105.424 1589.4 -18.4523 1560.67C56.2868 1536.05 80.8787 1463.25 77.7645 1390.55C72.142 1267.54 -46.5026 1205.54 -148.932 1168.15C-308.249 1110.1 -478.743 1087.51 -635.83 1022.8C-746.601 976.426 -840.353 903.492 -821.602 770.904C-817.346 739.227 -807.724 708.441 -795.402 679.08C-785.267 656.345 -772.196 634.672 -754.21 617.244C-751.506 614.831 -748.989 612.159 -746.274 610.053L-737.8 603.489L-728.774 597.685C-725.677 595.897 -722.455 594.321 -719.316 592.644C-536.569 504.729 -175.769 853.199 69.5188 811.923C152.918 799.548 196.641 743.283 200.166 660.45C201.393 637.863 198.977 614.622 195.227 592.331C184.111 531.682 160.021 474.008 129.844 420.453C24.4891 237.166 -152.028 96.0495 -352.985 31.0625C-386.131 20.3389 -421.15 11.444 -455.357 4.9895C-482.541 -0.0655491 -511.643 -4.05641 -539.131 -6.43459C-602.547 -9.96995 -666.421 -16.8441 -727.184 -36.3458C-817.92 -64.3913 -904.041 -119.771 -952.184 -203.446L-957.405 -212.709C-959.111 -215.824 -960.567 -219.048 -962.148 -222.218L-964.49 -226.996L-965.654 -229.391C-968.65 -236.74 -972.064 -244.037 -974.52 -251.587C-975.684 -254.929 -976.889 -258.261 -978.024 -261.627L-980.95 -271.85L-982.406 -276.967C-982.837 -278.676 -983.185 -280.431 -983.575 -282.15L-985.873 -292.524C-993.315 -330.794 -992.5 -370.571 -983.82 -408.571C-970.06 -467.272 -937.195 -520.795 -892.806 -561.367C-806.069 -641.272 -685.054 -671.765 -569.525 -673.383C-563.201 -673.693 -544.563 -673.254 -537.736 -673.248C-524.123 -672.691 -509.051 -672.191 -495.427 -670.941C-468.481 -669.016 -437.996 -664.849 -411.364 -660.555C-437.98 -664.741 -468.535 -668.875 -495.45 -670.703C-509.047 -671.831 -524.12 -672.451 -537.743 -672.902C-545.377 -672.975 -562.14 -673.228 -569.514 -672.955C-684.834 -671.023 -805.509 -640.323 -891.867 -560.341C-935.911 -519.882 -968.477 -466.556 -982.01 -408.139C-997.894 -338.447 -986.338 -266.167 -950.289 -204.54C-902.303 -121.44 -816.637 -66.585 -726.406 -38.8293C-665.815 -19.478 -602.177 -12.7737 -538.9 -9.31866C-511.322 -7.03841 -482.122 -2.95776 -454.825 2.02842C-413.417 9.83332 -371.654 20.7936 -331.917 34.8477C-112.925 112.348 78.8405 279.77 170.008 495.115C183.258 527.891 193.934 562.027 199.568 596.999C204.19 624.911 205.606 653.826 201.983 681.925C194.827 735.45 167.396 781.188 116.329 802.793C113.779 803.768 108.913 805.795 106.389 806.773C101.288 808.337 96.1858 810.047 91.0262 811.391C86.7891 812.44 79.421 814.14 75.3841 814.782C72.7347 815.281 67.4858 816.043 64.851 816.53C-181.689 852.109 -538.128 509.722 -717.857 595.695C-724.627 599.041 -729.866 602.271 -735.872 606.252L-744.143 612.65C-745.564 613.67 -746.77 614.951 -748.057 616.105L-751.888 619.66C-769.504 636.711 -782.416 658.133 -792.375 680.432C-804.589 709.51 -814.164 740.088 -818.369 771.383C-837.048 902.165 -743.949 974.274 -634.692 1020.19C-530.308 1063.71 -419.267 1087.6 -310.372 1116.89C-169.547 1156.52 70.6987 1212.11 79.1417 1390.51C82.0989 1463.31 57.215 1536.92 -18.1844 1561.47C-105.492 1590.09 -224.249 1554.93 -306.131 1519.57L-306.137 1519.5Z" fill="#FAECC8"/>
<path d="M-306.137 1519.5C-220.193 1554.49 -108.822 1586.27 -16.6704 1565.86C43.3399 1551.87 81.7501 1511.08 93.167 1450.59C107.966 1377.98 87.4152 1307.93 31.4764 1258.57C-154.441 1090.26 -642.777 1107.88 -775.096 907.969C-815.875 846.048 -808.739 768.652 -784.129 702.02C-778.277 685.396 -770.721 668.807 -761.777 653.554C-740.785 618.755 -710.489 593.048 -670.264 584.175C-591.144 566.791 -496.342 608.638 -424.683 640.563C-282.632 703.873 -101.58 818.741 54.1192 816.911C63.1926 816.58 71.6094 816.01 80.419 814.972L83.0331 814.696L85.6337 814.286L90.8257 813.425C111.53 810.08 132.017 803.807 150.184 793.198C248.161 734.537 224.901 595.124 189.097 505.185C104.195 296.353 -79.9775 129.812 -288.576 48.7369C-367.657 18.1207 -451.581 -0.438854 -536.213 -5.86698C-548.233 -6.75931 -566.733 -7.9176 -578.633 -9.07813C-620.84 -13.2415 -663.285 -21.0687 -703.877 -33.3536C-805.924 -64.4751 -900.592 -128.111 -945.98 -227.423C-981.32 -305.703 -979.731 -392.7 -941.527 -469.685C-871.296 -609.263 -709.536 -668.113 -561.102 -671.312C-549.107 -671.929 -530.761 -671.64 -518.601 -671.494C-504.93 -670.985 -489.851 -670.418 -476.157 -669.2C-449.132 -667.268 -418.527 -663.102 -391.803 -658.786C-418.511 -662.994 -449.171 -667.138 -476.166 -668.974C-489.841 -670.11 -504.915 -670.73 -518.608 -671.147C-530.765 -671.32 -549.048 -671.443 -561.093 -670.858C-676.689 -667.34 -797.469 -633.423 -881.156 -550.097C-882.561 -548.556 -889.11 -542.041 -890.411 -540.609C-894.473 -536.063 -898.622 -531.178 -902.592 -526.61C-918.08 -507.469 -931.819 -486.462 -942.234 -464.128C-979.436 -386.364 -978.335 -295.674 -939.349 -218.809C-879.557 -99.1007 -747.818 -36.288 -620.42 -17.2271C-600.44 -14.0295 -577.382 -11.4883 -557.195 -10.257C-472.221 -6.00842 -387.46 9.33999 -307.35 38.3109C-89.3658 116.565 104.423 287.814 192.425 503.886C199.538 521.816 205.734 540.936 210.807 559.544C223.645 609.215 229.753 662.635 215.405 712.691C204.862 750.788 178.593 784.479 142.56 801.42C124.129 810.643 103.805 815.399 83.5216 818.398C43.717 823.553 3.17578 819.407 -35.8243 810.719C-202.448 771.187 -345.407 670.558 -504.423 610.948C-606.901 573.237 -713.95 558.09 -768.888 673.881C-809.918 763.429 -820.832 863.734 -746.154 939.16C-565.184 1123.84 -23.5421 1094.77 83.0244 1325.42C99.2142 1361.25 102.053 1401.84 96.2556 1440.36C91.5346 1471.88 79.6791 1503.14 57.3282 1526.44C-27.0218 1613.24 -208.444 1560.02 -306.164 1519.5L-306.137 1519.5Z" fill="#FAECC8"/>
<path d="M-306.137 1519.5C-199.866 1561.75 15.143 1622.3 91.2357 1506.84C120.204 1461.47 124.334 1393.19 107.028 1342.72C22.4126 1103.12 -532.236 1128.05 -719.483 952.258C-790.6 887.651 -797.698 802.611 -768.479 715.325C-744.928 641.575 -702.408 584.938 -619.546 581.937C-549.26 580.176 -478.209 610.147 -414.813 637.976C-263.44 703.299 -42.7062 849.017 122.589 812.878C191.374 798.341 230.656 749.118 238.122 680.142C246.382 595.003 215.4 511.06 176.065 436.787C66.7778 237.79 -126.304 86.6927 -344.608 25.3549C-385.527 13.6778 -427.492 5.5778 -469.701 0.227361C-494.325 -2.80163 -529.604 -5.00151 -554.652 -6.83239C-597.147 -11.0508 -639.511 -18.0701 -680.451 -30.4826C-755.35 -52.8056 -826.763 -92.0929 -878.524 -151.51C-920.603 -200.251 -947.785 -261.458 -951.306 -326.104C-954.703 -383.084 -939.753 -440.867 -909.872 -489.418C-846.225 -594.949 -724.463 -649.65 -605.822 -664.576L-584.621 -666.872L-579.326 -667.429C-571.714 -667.945 -560.372 -668.707 -552.722 -669.205C-547.388 -669.479 -536.726 -669.561 -531.409 -669.796C-524.434 -670.349 -506.735 -669.576 -499.415 -669.707C-489.605 -669.527 -477.314 -668.687 -467.458 -668.302C-460.593 -667.865 -442.81 -666.191 -435.584 -665.638C-427.885 -664.745 -411.265 -662.772 -403.823 -661.838C-397.348 -660.839 -378.982 -658.041 -372.204 -656.999C-379.233 -658.199 -397.023 -660.621 -403.831 -661.759C-411.673 -662.826 -427.659 -664.469 -435.6 -665.479C-443.172 -666.306 -460.109 -667.364 -467.469 -668.05C-477.328 -668.409 -489.596 -669.219 -499.422 -669.361C-507.055 -669.581 -523.976 -669.583 -531.398 -669.369C-536.692 -669.224 -547.407 -668.881 -552.716 -668.725C-560.366 -668.226 -571.663 -667.38 -579.301 -666.867L-584.611 -666.297L-605.791 -663.946C-730.861 -648.188 -859.941 -586.608 -918.917 -470.028C-944.833 -419.633 -955.098 -361.227 -947.338 -305.084C-927.127 -163.825 -810.453 -71.1489 -679.761 -33.0148C-638.999 -20.6998 -596.785 -13.7754 -554.468 -9.65444C-529.188 -7.86749 -494.2 -5.69616 -469.424 -2.71887C-427.051 2.59442 -384.937 10.669 -343.855 22.3089C-124.626 83.738 69.2186 235.351 179.057 435.109C220.171 512.851 253.001 601.977 240.182 691.173C227.62 767.874 178.392 810.595 102.19 820.293C-63.2157 839.967 -265.913 706.469 -416.325 641.134C-479.116 613.538 -549.889 583.581 -619.49 585.29C-700.941 588.176 -742.294 644.075 -765.43 716.319C-808.043 844.381 -765.288 935.366 -648.036 998.51C-521.696 1064.68 -379.251 1089.51 -243.074 1128C-122.562 1162.66 63.1992 1211.23 108.469 1342.17C125.852 1393.36 121.349 1461.89 92.1107 1507.44C15.3044 1623.5 -200.057 1561.93 -306.137 1519.5Z" fill="#FAECC8"/>
<path d="M-306.137 1519.5C-190.944 1563.63 58.6238 1632.33 122.527 1485.52C138.585 1446.12 140.753 1401.13 131.138 1359.89C124.37 1332.23 110.695 1306.6 92.4258 1284.84C-68.4684 1097.91 -560.084 1119.05 -720.618 932.384C-748.858 899.356 -764.63 856.997 -765.057 813.578C-765.639 766.863 -752.904 720.728 -733.816 678.461C-707.64 621.638 -664.539 586.299 -600.724 583.754C-546.701 582.082 -494.263 599.456 -444.567 618.813C-295.851 678.086 -159.842 769.683 -3.48686 808.948C7.99152 811.814 21.4289 814.286 33.0751 816.262C135.639 832.127 239.157 807.615 256.643 690.023C260.863 662.09 259.631 633.193 255.189 605.352C221.88 414.757 70.2612 238.84 -88.1971 135.149C-111.043 119.907 -137.487 104.777 -161.837 91.9346C-262.726 39.0588 -374.428 6.9983 -488.017 -1.59302C-573.298 -5.7117 -659.797 -20.1916 -737.083 -58.2047C-844.698 -109.544 -928.978 -209.572 -932.055 -332.433C-935.752 -446.967 -866.792 -548.094 -769.121 -603.518C-701.034 -642.899 -622.474 -661.765 -544.392 -666.597C-539.042 -667.03 -528.388 -667.566 -523.022 -667.623C-502.64 -668.373 -479.224 -668.116 -458.856 -666.96C-446.794 -666.637 -428.378 -664.754 -416.19 -663.805C-403.966 -662.279 -385.723 -660.4 -373.748 -658.378L-352.599 -655.145C-359.736 -656.329 -377.414 -658.793 -384.331 -659.916C-486.292 -673.24 -592.814 -671.414 -690.855 -637.802C-805.694 -599.899 -906.8 -508.81 -926.602 -385.579C-927.249 -381.456 -928.204 -373.656 -928.751 -369.737C-928.851 -368.173 -929.823 -356.015 -929.989 -353.791C-930.001 -349.338 -930.243 -341.881 -930.272 -337.804C-929.726 -309.388 -925.23 -281.008 -916.26 -254.041C-872.877 -122.498 -744.629 -46.4546 -614.913 -19.6577C-598.325 -16.2746 -578.86 -12.9944 -562.29 -10.7865C-554.525 -10.0205 -543.458 -8.66215 -535.748 -7.87491C-524.29 -7.10464 -488.228 -4.45405 -477.06 -3.71252C-467.073 -2.63389 -454.98 -1.53446 -445.092 -0.252382C-338.729 13.0533 -235.165 47.3245 -141.373 99.1535C25.3537 192.687 169.441 341.112 237.021 521.82C303.374 706.18 245.462 854.441 27.2704 819.01C17.3162 817.321 5.41585 814.947 -4.29519 812.549C-171.413 770.728 -314.811 668.735 -475.768 610.814C-519.11 595.858 -564.948 583.629 -611.083 587.932C-673.231 593.989 -711.953 634.013 -735.085 689.577C-753.864 735.208 -766.141 785.215 -760.284 834.69C-756.044 869.858 -741.043 903.407 -718.11 930.352C-558.328 1116.25 -66.5734 1096.14 93.9004 1283.67C112.255 1305.66 126.004 1331.62 132.748 1359.51C142.345 1401.21 140.006 1446.32 123.744 1486.02C59.0296 1633.63 -191.052 1563.91 -306.137 1519.5Z" fill="#FAECC8"/>
<path d="M-306.138 1519.5C-192.536 1561.51 50.9056 1627.84 131.376 1506.39C155.463 1468.74 159.971 1420.98 153.927 1377.46C130.513 1231.5 -53.5147 1178.06 -176.094 1141.77C-286.206 1110.49 -398.663 1087.3 -506.919 1049.5C-560.83 1030.3 -614.327 1007.44 -660.266 972.688C-754.105 901.719 -762.76 805.964 -723.158 701.274C-686.221 603.069 -618.533 570.303 -517.468 591.5C-309.86 634.741 -24.6723 877.358 183.267 810.503C251.278 786.236 278.563 726.415 278.826 657.475C278.923 614.694 269.522 572.35 255.808 531.967C166.965 290.343 -51.355 104.58 -295.67 31.6889C-348.657 16.1011 -403.577 5.90987 -458.565 0.872413C-475.954 -0.469608 -511.061 -2.51918 -528.123 -4.61556C-530.98 -4.84406 -541.214 -6.13368 -544.149 -6.3965C-550.357 -7.39562 -564.86 -9.47957 -570.728 -10.4184C-695.346 -31.5655 -820.921 -92.9301 -880.956 -209.355L-883.32 -214.189C-884.867 -217.435 -886.568 -220.603 -887.963 -223.901L-892.117 -233.845C-892.794 -235.498 -893.553 -237.133 -894.145 -238.832L-895.937 -243.916L-899.496 -254.081L-902.461 -264.441L-903.938 -269.614C-904.394 -271.352 -904.741 -273.106 -905.141 -274.866L-907.478 -285.377C-908.184 -288.901 -908.647 -292.453 -909.245 -295.993C-912.438 -315.416 -913.175 -335.397 -912.079 -355.037L-911.656 -360.41L-911.233 -365.782L-911.023 -368.454C-909.66 -378.894 -907.601 -392.479 -905.013 -402.905C-885.158 -487.313 -825.19 -558.365 -750.739 -601.025C-676.227 -644.439 -589.569 -663.08 -503.984 -665.838C-446.734 -667.925 -389.439 -662.62 -332.986 -653.371C-522.853 -686.528 -762.612 -661.708 -871.361 -481.592C-877.603 -471.3 -883.274 -459.219 -888.267 -448.203L-890.225 -443.223L-894.114 -433.259C-901.817 -411.523 -907.131 -388.592 -909.343 -365.608C-909.708 -361.644 -910.044 -356.197 -910.377 -352.283C-910.954 -333.578 -910.41 -314.749 -907.265 -296.331C-906.441 -290.623 -904.6 -281.16 -903.16 -275.351C-902.559 -272.518 -901.378 -267.854 -900.487 -264.993L-897.54 -254.715L-893.988 -244.617C-863.835 -159.849 -793.312 -94.7538 -713.09 -57.0378C-658.43 -31.0975 -598.437 -15.8188 -538.471 -8.53007C-533.109 -8.00114 -522.513 -6.74238 -517.18 -6.18973C-502.679 -4.90594 -467.461 -2.89873 -452.963 -1.44196C-399.573 3.5713 -346.26 13.6974 -294.775 28.6969C-75.0957 93.544 118.669 248.403 225.147 451.816C254.374 509.184 276.946 571.309 281.68 635.955C285.318 685.624 276.437 740.273 241.119 777.699C226.449 793.547 207.209 805.57 187.004 813.045L184.478 814.049L181.879 814.846C179.287 815.71 174.103 817.173 171.499 818.023C127.758 829.562 81.7213 827.595 37.6486 819.234C-32.8625 805.424 -99.5986 777.399 -164.542 747.418C-268.437 699.872 -367.848 641.195 -476.845 605.775C-563.452 578.59 -651.542 575.367 -701.983 663.946C-734.584 724.389 -754.509 802.204 -733.586 869.42C-720.797 910.392 -692.159 944.526 -658.388 970.273C-612.818 1004.84 -559.573 1027.69 -505.978 1046.86C-397.918 1084.75 -285.479 1108.12 -175.476 1139.56C-52.0885 1176.31 132.291 1230.23 155.478 1377.28C161.478 1421.25 156.755 1469.16 132.397 1507.13C51.2903 1629.08 -192.838 1561.74 -306.138 1519.5Z" fill="#FAECC8"/>
<path d="M-306.138 1519.5C-190.731 1560.78 53.7168 1625.97 143.685 1516.93C178.889 1474.03 183.007 1404.94 167.433 1353.27C135.413 1253.89 30.5455 1207.14 -60.2997 1173.84C-141.542 1145.12 -225.445 1125.14 -308.769 1103.46C-418.969 1073.62 -534.161 1047.07 -630.063 982.281C-709.548 927.356 -740.879 850.739 -719.432 756.14C-673.771 556.44 -548.023 561.537 -385.72 630.418C-240.565 691.181 -105.915 780.47 48.954 815.469C104.154 827.008 164.45 829.875 216.986 806.482C265.281 783.923 289.997 740.291 296.57 688.628C299.045 667.444 299.022 645.76 296.494 624.602C271.082 431.945 117.866 251.271 -39.0272 145.226C-110.363 97.3061 -188.824 59.7236 -271.149 34.9482C-326.091 18.4875 -382.647 7.72145 -439.761 2.60752C-468.298 0.459265 -497.114 -1.02318 -525.627 -4.76918C-652.438 -21.1319 -784.091 -77.2424 -852.09 -190.799L-857.403 -200.204L-860.058 -204.92L-862.434 -209.768C-870.364 -225.498 -877.377 -242.951 -882.097 -260.005C-893.145 -297.938 -895.816 -338.618 -889.899 -377.678C-876.544 -471.222 -813.144 -552.055 -732.357 -598.531C-606.691 -671.729 -453.515 -674.887 -313.373 -651.595C-453.431 -674.519 -606.442 -671.011 -731.773 -597.553C-812.042 -551.067 -874.984 -470.535 -888.019 -377.399C-893.819 -338.581 -891.144 -298.22 -880.108 -260.569C-875.345 -243.551 -868.515 -226.529 -860.511 -210.738C-858.129 -205.556 -853.063 -197.016 -850.219 -191.921C-782.39 -79.0748 -651.393 -23.6157 -525.263 -7.52013C-496.812 -3.82024 -468.231 -2.38765 -439.504 -0.273948C-382.183 4.76709 -325.395 15.4892 -270.237 31.9179C-187.595 56.7248 -108.813 94.4321 -37.197 142.487C120.643 249.065 274.422 430.395 300.068 624.194C302.623 645.621 302.72 667.633 300.166 689.076C293.461 741.939 268.052 786.65 218.564 809.824C165.241 833.62 104.202 830.853 48.1959 819.101C-106.918 784.011 -241.839 694.509 -387.061 633.606C-547.645 565.548 -670.938 559.36 -716.217 756.804C-737.408 850.028 -706.724 925.355 -628.26 979.685C-532.775 1044.38 -417.985 1070.94 -308.115 1100.89C-224.804 1122.69 -140.823 1142.83 -59.5553 1171.7C31.7485 1205.35 137.164 1252.62 169.073 1352.72C184.697 1405.11 180.229 1474.51 144.65 1517.69C53.873 1627.22 -190.836 1561.04 -306.138 1519.5Z" fill="#FAECC8"/>
<path d="M-306.138 1519.5C-184.695 1561.78 101.154 1637.13 177.257 1496.54C203.995 1444.84 201.047 1370.86 172.1 1320.52C64.1857 1127.49 -403.184 1123.56 -599.553 991.478C-680.53 939.499 -719.973 866.723 -702.254 770.035C-697.505 743.368 -689.324 717.186 -678.85 692.231C-661.008 649.893 -631.656 612.385 -586.828 597.259C-518.952 574.632 -439.875 602.728 -376.174 628C-243.097 682.917 -119.885 760.81 17.904 804.045C46.8892 813.011 76.9992 820.035 107.138 823.661C135.561 826.825 164.481 826.984 192.678 821.765L195.322 821.319L197.941 820.724L208.378 818.327C211.816 817.399 215.208 816.267 218.616 815.243C224.491 813.676 228.123 811.594 233.612 809.615C235.284 809.02 236.805 808.063 238.426 807.316L243.182 804.919C244.77 804.102 246.388 803.381 247.861 802.367C321.318 759.648 326.636 666.872 310.543 591.785C301.793 549.611 286.519 508.954 267.845 470.189C162.239 257.661 -39.5191 96.1068 -267.372 32.2136C-315.661 18.5962 -365.692 9.54045 -415.631 4.82761C-437.02 2.93109 -458.842 1.92527 -480.273 -0.0820628C-607.909 -12.1259 -742.098 -60.4993 -818.949 -168.395C-866.56 -234.47 -884.738 -317.897 -866.313 -397.54C-852.538 -456.52 -819.454 -510.368 -774.776 -551.031C-646.139 -667.5 -457.365 -677.361 -293.813 -649.826C-457.195 -676.917 -645.727 -666.672 -773.858 -550.061C-818.802 -508.863 -852.091 -454.289 -865.05 -394.522C-882.404 -316.414 -863.858 -234.284 -817.139 -169.711C-740.528 -62.4914 -606.976 -14.6875 -479.997 -2.88177C-458.575 -0.915429 -436.829 0.0563464 -415.359 1.93422C-358.012 7.24451 -300.792 18.316 -245.736 35.2413C-1.41911 110.679 220.991 303.647 303.152 549.078C307.444 562.623 311.147 577.136 314.054 591.064C330.534 667.776 324.696 761.902 249.733 805.565C247.563 807.151 242.544 809.229 240.044 810.65C238.395 811.42 236.844 812.401 235.117 813.017C230.115 815.057 224.908 817.291 219.786 818.799C214.185 820.7 204.715 823.153 198.713 824.387C197.37 824.762 194.723 825.234 193.368 825.447C163.045 831.003 131.841 830.752 101.345 826.69C72.8124 823.009 44.3068 816.077 16.8317 807.619C-121.096 764.304 -244.466 686.249 -377.482 631.257C-440.217 606.334 -518.893 578.225 -585.718 600.475C-629.604 615.241 -658.32 652.105 -675.794 693.559C-686.162 718.258 -694.311 744.243 -699.017 770.608C-716.55 865.953 -677.789 937.396 -597.842 988.859C-400.943 1121.39 65.1093 1125.16 173.71 1319.62C189.711 1348.02 197.357 1380.83 197.089 1413.32C197.317 1456.32 185.047 1501.92 151.924 1531.29C49.577 1623.05 -188.351 1560.58 -306.138 1519.5Z" fill="#FAECC8"/>
<path d="M-306.137 1519.5C-177.689 1562.95 150.072 1648.29 206.931 1473.77C221.058 1425.7 217.455 1371.48 194.174 1326.84C83.2962 1119.63 -411.755 1129.89 -604.62 975.656C-666.252 928.587 -695.803 861.24 -684.569 784.074C-677.626 736.502 -659.762 681.352 -629.555 643.435C-573.039 572.91 -483.93 585.541 -407.517 610.893C-338.824 633.817 -274.023 666.732 -209.169 698.558C-90.8781 755.897 75.9876 846.671 208.911 824.153C344.845 802.346 354.75 669.538 321.555 559.348C296.925 476.311 252.286 400.248 198.897 332.457C46.8597 139.55 -188.625 14.5526 -434.661 3.7638C-477.868 1.10175 -521.357 -5.335 -563.276 -16.0706C-633.2 -34.3425 -700.647 -66.2513 -754.233 -115.408C-819.471 -175.808 -858.025 -258.004 -853.472 -347.749L-852.616 -358.599C-852.451 -360.41 -852.379 -362.216 -852.135 -364.019L-851.378 -369.398C-850.449 -378.414 -848.322 -387.418 -846.607 -396.156L-845.221 -401.42L-842.438 -411.933L-839.046 -422.266L-837.363 -427.434C-829.235 -449.421 -818.629 -470.843 -805.649 -490.378L-799.449 -499.301C-798.398 -500.77 -797.42 -502.301 -796.318 -503.739L-792.963 -508.021L-786.265 -516.575C-782.389 -521.406 -779.371 -524.296 -775.561 -528.854C-649.769 -663.938 -446.189 -677.232 -274.204 -647.999C-428.456 -673.429 -601.952 -666.101 -730.828 -568.178C-736.423 -563.636 -742.08 -559.14 -747.52 -554.41C-750.267 -551.841 -756.823 -545.927 -759.481 -543.455C-760.79 -542.211 -762.013 -540.892 -763.287 -539.604L-770.85 -531.869C-775.593 -526.91 -780.641 -520.874 -785.143 -515.651C-787.545 -512.661 -792.814 -505.74 -795.112 -502.86C-796.187 -501.419 -797.176 -499.903 -798.213 -498.445L-804.358 -489.544C-817.198 -470.075 -827.724 -448.792 -835.726 -426.859C-836.381 -425.084 -839.922 -413.779 -840.726 -411.444C-841.723 -407.276 -843.865 -399.62 -844.82 -395.753C-851.423 -365.962 -853.74 -334.881 -850.266 -304.523C-844.334 -245.253 -817.792 -189.056 -779.009 -144.214C-774.785 -139.717 -768.677 -132.687 -764.272 -128.412C-761.948 -126.143 -755.095 -119.506 -752.651 -117.118L-744.511 -110.008C-741.856 -107.719 -738.947 -105.032 -736.293 -103.01C-645.362 -29.195 -527.544 -2.90494 -412.835 2.43651C-384.882 4.28722 -354.238 8.05677 -326.656 13.0044C-119.342 48.6694 71.1395 165.948 201.588 330.322C282.025 431.318 371.856 599.086 330.88 730.149C312.066 786.685 267.36 818.705 209.54 827.789C75.621 850.662 -91.8567 759.468 -210.75 701.749C-275.475 669.962 -340.094 637.092 -408.613 614.172C-483.644 589.263 -571.438 576.282 -626.962 645.531L-633.507 654.033L-639.419 663.011C-661.69 699.83 -675.042 742.077 -681.343 784.486C-692.417 860.573 -663.498 926.618 -602.679 973.141C-409.354 1127.58 84.3876 1117.35 195.81 1325.93C219.188 1371.08 222.673 1425.68 208.317 1474.19C150.407 1650.03 -177.686 1563.19 -306.137 1519.5Z" fill="#FAECC8"/>
<path d="M-306.137 1519.5C-177.972 1561.63 146.977 1645.05 220.294 1490.8C232.513 1464.51 235.567 1434.89 234.381 1406.2C232.732 1362.74 214.979 1320.71 185.742 1288.6C15.4457 1101.96 -496.02 1127.1 -636.018 923.662C-683.573 853.778 -669.941 766.489 -638.496 693.011C-590.298 583.915 -501.556 577.401 -398.494 609.316C-273.973 649.722 -161.825 719.456 -41.8066 770.499C17.8646 796.067 79.6736 818.885 144.367 827.054C176.351 830.889 209.548 830.816 241.045 823.496C249.549 821.908 254.067 819.9 261.778 817.7L271.759 813.711C272.593 813.367 273.436 813.063 274.246 812.69L276.647 811.473L281.432 809.052C345.466 776.298 362.179 704.42 356.143 637.686C355.799 635.225 354.704 624.423 354.331 621.573C353.73 617.26 352.418 609.596 351.779 605.533C351.35 603.117 349.096 592.44 348.574 589.615L346.011 579.095L344.729 573.835C292.003 385.965 144.722 224.89 -20.0206 125.432C-137.932 54.5027 -273.208 13.2362 -410.605 5.92337C-417.552 5.38469 -436.358 4.2096 -443.18 3.34996C-448.475 2.8144 -459.518 1.48499 -464.839 0.946909C-471.631 -0.0831876 -479.679 -1.22382 -486.39 -2.27247C-494.809 -3.5697 -510.258 -6.60045 -518.538 -8.2306C-644.41 -34.9283 -767.388 -106.264 -815.619 -231.112C-851.095 -324.113 -834.771 -425.725 -774.531 -504.67L-767.817 -513.262L-766.138 -515.416L-764.349 -517.466L-760.745 -521.565C-751.563 -532.327 -740.573 -543.044 -730.02 -552.43C-600.981 -664.179 -415.965 -673.264 -254.61 -646.159C-419 -673.443 -609.183 -662.814 -737.148 -544.106C-738.457 -542.862 -739.853 -541.693 -741.1 -540.402L-744.883 -536.521C-749.513 -531.751 -755.511 -525.689 -759.651 -520.617L-763.215 -516.528C-764.068 -515.585 -765.911 -513.394 -766.668 -512.335C-770.65 -506.981 -776.18 -500.525 -779.699 -494.992C-834.245 -417.806 -847.58 -320.272 -813.664 -231.866C-765.528 -107.814 -643.146 -37.2038 -517.987 -10.8432C-509.921 -9.2074 -493.68 -6.09852 -485.966 -4.9509C-479.311 -3.88103 -470.969 -2.73818 -464.491 -1.76579C-459.05 -1.22909 -448.322 0.0424754 -442.91 0.603029C-436.214 1.39682 -417.546 2.61172 -410.449 3.125C-272.565 10.2325 -136.727 51.4746 -18.3608 122.662C145.799 221.676 292.261 381.19 346.679 567.72C370.661 652.599 372.406 765.701 283.132 812.366C281.656 813.141 277.254 815.32 275.751 816.092C274.926 816.477 274.057 816.778 273.208 817.134L262.991 821.22C256.344 823.178 248.488 825.91 241.859 827.15C213.567 833.733 183.637 834.621 154.78 831.935C114.891 828.346 75.8156 818.118 37.9389 805.474C-113.575 754.565 -247.706 662.447 -399.533 612.694C-501.057 581.264 -588.037 587.085 -635.462 694.43C-666.467 766.818 -680.213 853.11 -633.342 921.952C-493.914 1124.14 17.2879 1100.18 187.213 1287.35C216.661 1319.75 234.559 1362.33 236.078 1406.16C237.208 1435.14 234.028 1464.97 221.627 1491.48C147.28 1646.72 -177.969 1561.87 -306.137 1519.5Z" fill="#FAECC8"/>
<path d="M-306.138 1519.5C-177.049 1560.24 36.3699 1610.54 164.323 1559.71C219.158 1537.49 250.556 1494.25 253.685 1435.05C258.795 1370.36 234.291 1313.37 185.744 1270.85C130.783 1222.8 61.4045 1195.61 -6.95022 1172.51C-172.096 1116.9 -349.462 1095.58 -506.434 1016.99C-588.268 974.256 -651.305 910.593 -647.409 812.502C-646.007 772.17 -634.808 732.832 -619.321 695.849C-606.129 665.775 -587.078 637.131 -559.55 618.405C-460.052 549.32 -285.062 647.629 -188.551 692.979C-84.381 743.551 19.2653 800.112 133.524 823.958C175.889 832.19 220.391 834.98 262.651 824.801C342.151 807.081 377.935 741.525 376.783 663.671C371.7 494.876 250.386 328.202 127.411 220.183C34.5374 138.882 -75.6113 77.2655 -193.869 41.7714C-246.05 26.2499 -299.775 15.7098 -353.961 10.5247C-381.921 7.92659 -413.111 6.71674 -440.962 3.15599C-523.781 -7.13385 -606.681 -32.2863 -675.642 -80.3589C-795.459 -162.518 -850.772 -308.866 -789.433 -445.081C-750.405 -532.452 -669 -594.655 -580.055 -625.684C-469.736 -664.806 -349.248 -663.308 -234.997 -644.384C-349.238 -663 -469.623 -664.195 -579.754 -624.814C-668.273 -593.65 -749.268 -531.54 -787.915 -444.384C-848.46 -308.918 -793.485 -163.75 -674.291 -82.2926C-599.543 -30.3019 -508.805 -5.65657 -418.995 2.82929C-398.893 4.51889 -373.785 5.74219 -353.709 7.69585C-313.863 11.5865 -274.095 17.8963 -235.227 27.5175C11.8834 87.6031 232.936 262.288 339.216 494.485C412.992 657.922 403.217 851.775 176.167 833.831C161.852 832.686 146.79 830.333 132.787 827.645C18.2048 803.701 -85.7957 746.945 -190.149 696.208C-279.743 653.727 -419.451 577.207 -518.708 603.272C-569.889 616.838 -602.145 659.714 -620.364 707.241C-644.633 768.519 -656.338 840.584 -626.217 901.88C-587.487 979.587 -502.746 1019.62 -425.371 1049.42C-343.554 1079.88 -258.573 1100.44 -174.178 1122.47C-49.9933 1156.4 135.31 1196.9 216.983 1301.32C253.502 1347.76 263.974 1410.75 250.313 1467.63C235.168 1529.02 181.865 1561.54 122.979 1573.58C-7.81592 1599.67 -179.888 1559.41 -306.138 1519.5Z" fill="#FAECC8"/>
<path d="M-306.138 1519.5C-165.742 1563.49 252.427 1668.16 272.805 1442.23C275.483 1413.3 272.945 1383.73 263.321 1356.23C172.332 1107.97 -406.672 1147.45 -581.101 947.814C-633.249 889.345 -637.36 812.146 -614.969 740.029C-606.578 712.121 -595.646 684.143 -579.062 659.977C-512.157 560.754 -389.814 597.825 -297.708 635.233C-203.235 674.341 -113.853 724.642 -20.5545 766.195C58.8963 801.048 142.603 833.987 230.548 833.128C292.293 831.432 350.573 811.458 378.913 752.302C392.277 724.684 396.897 693.097 396.341 662.627C393.461 552.106 335.334 441.35 270.356 354.227C147.552 191.447 -33.3291 72.4085 -232.766 28.3865C-267.865 20.5771 -304.89 14.978 -340.687 11.6735C-351.494 10.9274 -373.509 9.3026 -384.34 8.52747C-420.821 6.07564 -457.102 0.643159 -492.668 -7.85221C-628.368 -39.1333 -757.727 -126.5 -788.755 -269.493C-816.3 -398.301 -750.437 -519.001 -640.595 -585.893C-514.079 -662.58 -357.732 -666.253 -215.401 -642.572C-383.902 -670.634 -581.581 -658.492 -708.103 -530.48C-775.58 -461.983 -807.651 -364.565 -786.778 -269.924C-755.718 -127.809 -626.941 -41.2992 -492.043 -10.4041C-456.628 -2.00351 -420.462 3.37747 -384.12 5.74902C-373.18 6.50805 -351.348 8.08836 -340.42 8.83295C-304.479 12.1649 -267.336 17.6424 -232.09 25.4529C-31.8018 69.3589 149.753 188.864 273.118 352.179C338.61 439.9 397.014 551.23 399.972 662.585C400.541 693.603 395.834 725.795 382.236 753.897C353.325 814.25 293.942 835.128 230.688 836.849C142.211 837.829 57.697 804.556 -22.0049 769.545C-115.375 727.906 -204.56 677.638 -299.001 638.479C-389.39 601.774 -510.545 564.287 -576.249 661.868C-592.63 685.747 -603.432 713.351 -611.742 740.974C-633.826 812.015 -630.017 888.077 -578.625 945.685C-404.097 1144.73 174.339 1106.01 265.172 1355.59C278.945 1396.04 279.801 1445.25 264.711 1485.11C195.89 1655.17 -172.393 1561.57 -306.138 1519.5Z" fill="#FAECC8"/>
<path d="M-306.137 1519.5C-170.212 1560.82 189.348 1649.03 275.502 1501.05C290.199 1475.59 293.957 1445.58 293.334 1416.6C292.592 1387.47 285.642 1358.41 271.762 1332.7C161.53 1129.63 -325.192 1135.75 -519.389 988.118C-568.38 952.282 -602.978 902.866 -607.656 841.159C-611.154 796.837 -600.747 752.806 -585.089 711.654C-574.488 684.19 -559.958 657.728 -538.675 637.012C-494.377 592.631 -429.359 592.231 -372.003 605.983C-173.172 652.492 87.9847 866.056 290.077 830.92C369.333 817.429 411.325 762.22 415.606 683.355C416.698 665.515 415.602 646.605 413.375 628.891C390.505 475.368 288.88 334.732 176.195 232.156C35.0265 104.98 -148.286 24.1325 -338.408 12.2321C-345.165 11.9255 -364.637 10.2048 -371.283 9.85581C-396.273 7.97741 -423.03 4.27127 -447.57 -0.549703C-582.012 -25.3859 -716.243 -102.686 -761.257 -238.524C-792.862 -333.73 -770.096 -436.04 -705.485 -512.113C-581.719 -655.731 -371.452 -670.846 -195.775 -640.782C-371.182 -670.339 -581.231 -654.869 -704.377 -511.177C-768.319 -435.531 -790.818 -333.635 -759.275 -239.155C-736.986 -171.191 -688.434 -114.117 -629.38 -74.7157C-562.434 -29.7485 -483.184 -6.38302 -403.755 3.79906C-383.545 6.41939 -358.485 7.99804 -338.184 9.42711C-235.74 16.0924 -134.44 41.8064 -41.286 84.9584C165.682 178.781 373.705 388.384 415.294 617.532C431.626 715.365 404.698 811.864 296.209 833.511C106.893 872.001 -147.438 679.832 -330.641 621.277C-384.818 603.825 -446.831 590.107 -500.879 614.765C-527.365 626.98 -548.059 648.887 -563.068 673.583C-591.077 723.971 -608.108 782.976 -604.35 840.898C-599.752 901.65 -565.712 950.239 -517.444 985.576C-470.331 1020.31 -415.547 1042.96 -360.573 1062.22C-277.463 1090.79 -191.857 1110.95 -106.939 1133.36C25.441 1170.33 251.298 1220.93 289.415 1372.89C353.985 1689.36 -138.488 1571.08 -306.137 1519.5Z" fill="#FAECC8"/>
<path d="M-306.137 1519.5C-164.221 1561.32 137.101 1631.47 262.099 1539.21C282.501 1523.78 298.235 1502.28 305.722 1477.73C314.143 1449.8 314.656 1419.57 310.314 1390.84C298.598 1314.91 239.473 1262.97 174.691 1228.77C43.4744 1161.48 -103.939 1137.02 -244.63 1096.69C-348.981 1066.49 -486.204 1027.53 -553.393 936.999C-579.972 901.055 -591.578 855.519 -588.364 811.153C-585.181 766.956 -572.186 723.594 -552.304 684.098C-521.579 625.631 -473.53 597.034 -407.388 599.985C-377.736 601.097 -348.734 607.865 -320.572 616.39C-264.298 633.942 -210.837 659.071 -157.887 684.642C-45.7502 738.267 64.3262 801.157 186.67 828.2C236.335 838.673 289.381 841.492 338.173 825.517C450.419 786.732 447.618 658.911 418.127 563.501C322.384 273.232 29.5112 54.7389 -270.58 18.6294C-328.874 11.959 -388.195 11.5211 -445.591 -2.36796C-465.866 -6.90151 -489.67 -13.6367 -509.288 -20.5057C-659.43 -71.1326 -779.218 -204.319 -751.989 -370.421C-731.305 -490.978 -636.675 -579.132 -524.603 -619.134C-420.579 -656.757 -306.508 -658.199 -198.04 -642.299L-176.247 -638.962C-262.895 -653.15 -352.652 -657.044 -439.341 -641.193C-580.467 -616.898 -717.089 -528.326 -748.051 -380.887C-774.844 -258.159 -710.209 -136.72 -606.988 -70.9733C-570.412 -46.8969 -529.374 -28.9809 -487.583 -16.0045C-445.506 -3.35974 -401.799 4.37867 -358.131 8.45959C-299.52 11.9077 -240.61 17.4656 -183.341 31.2888C-169.917 34.3064 -148.451 40.1443 -135.302 43.9215C-123.904 47.4595 -109.81 51.7965 -98.5544 55.8405C122.524 133.547 316.238 302.842 406.735 520.8C422.444 560.153 433.894 601.446 437.941 643.715C452.582 818.894 325.501 864.657 175.083 829.551C-0.984756 786.674 -150.324 675.427 -321.597 619.756C-376.212 603.221 -439.574 591.97 -491.505 621.93C-542.796 652.434 -565.38 712.718 -578.745 768.084C-600.956 864.088 -568.675 940.119 -487.355 994.972C-291.04 1130.72 143.538 1131.69 277.984 1309.75C304.833 1345.26 317.109 1390.49 314.51 1434.71C313.848 1449.41 311.856 1464.2 307.347 1478.29C246.985 1663.98 -167.606 1561.16 -306.137 1519.5Z" fill="#FAECC8"/>
<path d="M-306.137 1519.5C-164.897 1560.47 238.931 1657.63 319.254 1494.67C331.982 1468.08 333.838 1437.62 331.819 1408.59C328.774 1364.41 308.607 1322.67 277.692 1291.2C105.429 1116.4 -370.646 1133.01 -525.88 948.994C-565.722 901.914 -576.423 840.706 -564.819 781.152C-559.377 752.193 -550.34 723.416 -537.982 696.672C-511.052 637.75 -465.253 601.944 -399.205 601.646C-315.315 601.347 -222.821 646.594 -147.694 681.887C-31.7385 736.942 81.581 802.779 208.056 830.389C249.15 838.937 292.177 841.941 333.56 833.769C423.3 816.459 459.113 745.612 454.894 659.228C445.155 503.721 336.281 347.742 224.722 244.436C127.616 154.397 9.98471 86.4422 -116.97 48.5433C-120.88 47.3574 -140.034 42.1478 -143.547 41.1213C-151.241 39.2289 -162.622 36.4528 -170.345 34.5842C-178.106 32.9652 -189.599 30.5246 -197.348 28.9201C-201.406 28.1465 -220.175 24.9749 -224.535 24.1582C-241.499 21.618 -262.304 18.9522 -279.295 17.3563C-325.844 14.2313 -376.529 10.5916 -422.032 0.369149C-522.344 -21.3004 -621.575 -70.7058 -682.005 -156.074C-755.376 -258.426 -753.985 -391.433 -678.964 -492.629C-567.248 -640.756 -361.91 -666.198 -189.453 -642.159C-182.842 -641.32 -163.624 -638.104 -156.663 -637.164C-199.903 -644.096 -244.833 -649.035 -288.624 -649.568C-436.67 -653.144 -601.733 -607.728 -687.206 -478.148C-743.165 -393.66 -750.019 -285.033 -703.151 -194.923C-697.656 -183.846 -690.312 -172.174 -683.483 -161.78C-681.345 -158.849 -675.933 -151.394 -673.745 -148.431C-669.308 -142.847 -664.476 -136.81 -659.726 -131.434C-656.232 -127.649 -651.709 -122.669 -648.522 -119.288L-644.567 -115.444L-636.672 -107.745C-623.448 -95.5326 -608.56 -83.5696 -593.611 -73.4277C-541.985 -38.0791 -482.426 -15.4292 -421.474 -2.17601C-376.134 7.93698 -325.448 11.43 -279.046 14.5539C-150.342 26.1829 -24.4634 67.8294 85.7359 135.425C256.54 239.401 420.919 424.124 455.137 625.916C458.951 651.481 460.048 677.818 456.873 703.534C447.882 775 405.781 823.598 334.255 837.398C292.406 845.711 248.845 842.707 207.278 834.086C80.5245 806.462 -33.1915 740.319 -149.269 685.145C-202.314 659.724 -255.945 634.832 -312.559 618.433C-367.476 602.802 -432.399 594.798 -481.548 629.953C-514.556 653.539 -534.3 691.101 -547.314 728.701C-567.871 786.692 -575.815 853.607 -547.281 910.307C-491.31 1022.1 -323.201 1067.26 -210.835 1099.48C-69.6734 1139.76 79.0464 1164.36 208.804 1236.18C291.37 1282.99 345.175 1353.87 332.781 1452.81C325.993 1517.88 276.824 1555.67 216.685 1572.05C66.3507 1611.84 -157.362 1562.08 -306.137 1519.5Z" fill="#FAECC8"/>
<path d="M-306.137 1519.5C-154.268 1562.21 113.142 1620.08 260.935 1562.79C302.603 1546.71 338.039 1515.26 347.764 1470.3C353.884 1441.64 353.581 1411.3 347.147 1382.69C319.055 1263.22 183.123 1212.1 78.3532 1177.48C-62.4586 1132.31 -209.686 1107.98 -347.683 1053.87C-487.107 998.676 -584.663 912.793 -537.883 751.527C-487.803 572.064 -365.322 582.706 -218.63 642.767C-59.1764 706.193 158.023 854.496 328.16 839.17C430.493 830.196 478.095 763.393 474.611 663.467C471.133 591.478 445.294 522.323 411.605 459.221C304.357 263.213 115.872 114.049 -97.8267 50.2182C-134.713 39.4323 -173.189 30.7032 -211.249 25.0553C-216.683 24.3192 -227.741 22.7349 -233.173 21.9725C-238.612 21.4093 -249.732 20.1923 -255.197 19.6266C-263.313 18.4927 -301.756 16.194 -310.48 15.4134C-455.494 5.02896 -613.082 -54.4666 -684.147 -189.541L-689.042 -199.532L-691.47 -204.531L-693.617 -209.664L-697.913 -219.928L-701.598 -230.426L-703.44 -235.688C-703.998 -237.463 -704.475 -239.257 -704.992 -241.042L-708.044 -251.743L-710.48 -262.611L-711.69 -268.051C-712.03 -269.885 -712.29 -271.711 -712.602 -273.542C-728.289 -363.577 -697.775 -453.041 -635.645 -519.239C-509.129 -651.518 -307.924 -664.393 -137.064 -635.377C-307.702 -663.944 -508.705 -650.676 -634.63 -518.298C-696.221 -452.301 -726.315 -363.449 -710.634 -273.894C-709.818 -268.106 -707.397 -258.174 -706.087 -252.257C-704.706 -247.321 -702.791 -240.784 -701.496 -236.336C-700.399 -233.255 -697.142 -223.959 -695.97 -220.696C-694.184 -216.36 -691.181 -209.357 -689.543 -205.408C-688.027 -202.258 -683.838 -193.751 -682.251 -190.514C-611.319 -56.2529 -454.488 2.52793 -310.223 12.6784C-301.365 13.4456 -262.816 15.7547 -254.88 16.8175C-249.334 17.3647 -238.318 18.5714 -232.775 19.1449C-227.261 19.8888 -216.267 21.4532 -210.768 22.2091C-172.574 27.8435 -133.946 36.521 -96.9105 47.2817C117.708 111.11 306.905 260.904 414.686 457.592C448.668 521.109 474.695 590.789 478.211 663.329C481.831 764.721 433.127 833.643 328.546 842.835C157.104 858.406 -59.7906 709.853 -219.938 646.025C-365.105 586.728 -485.097 575.185 -534.639 752.433C-581.006 911.954 -484.439 996.099 -346.489 1050.95C-208.653 1105.22 -61.5643 1129.73 79.1474 1175.1C184.728 1210.15 320.978 1261.83 349.111 1382.24C355.549 1411.21 355.854 1441.67 349.563 1470.72C339.602 1516.04 303.789 1548.07 261.506 1564.16C113.239 1621.26 -154.292 1562.59 -306.137 1519.5Z" fill="#FAECC8"/>
</g>
</g>
<defs>
<clipPath id="clip0_2524_9352">
<rect width="2425.41" height="1529.61" fill="white" transform="translate(-55.9766 1852.86) rotate(-129.368)"/>
</clipPath>
</defs>
</svg>
