<svg width="390" height="350" viewBox="0 0 390 350" fill="none" xmlns="http://www.w3.org/2000/svg">
<mask id="mask0_228_4182" style="mask-type:alpha" maskUnits="userSpaceOnUse" x="0" y="0" width="390" height="350">
<rect width="390" height="350" fill="#D9D9D9"/>
</mask>
<g mask="url(#mask0_228_4182)">
<g opacity="0.5" clip-path="url(#clip0_228_4182)">
<path d="M-136.914 402.79C-138.294 347.144 -122.254 287.969 -82.132 247.834C-47.0245 212.337 3.92131 198.575 52.7057 198.202C178.217 195.704 234.223 277.197 334.965 328.362C360.255 340.985 387.187 350.336 414.912 355.887C447.835 362.483 481.631 363.843 515.077 361.724C690.259 351.523 764.481 208.574 776.889 49.5015C779.08 21.4098 779.725 -6.87511 777.702 -34.9899C779.566 -6.86877 778.761 21.4012 776.411 49.4675C767.814 145.787 737.098 249.635 657.073 310.394C614.954 342.477 562.151 357.83 509.686 360.091C464.158 362.575 417.889 357.902 374.696 342.819C253.643 301.201 193.969 192.645 52.6737 196.6C3.56726 197.146 -47.6952 211.217 -82.9048 247.079C-122.917 287.571 -138.64 346.988 -136.914 402.79Z" fill="#B861B3"/>
<path d="M-136.913 402.79C-140.403 347.451 -127.888 287.971 -90.9584 245.203C-63.4133 212.98 -22.5846 195.099 18.8732 189.54C94.3213 179.016 154.862 199.129 217.269 240.506C264.119 271.176 309.22 306.161 362.066 326.231C438.521 355.614 533.961 356.3 609.717 324.49C689.474 291.087 739.462 213.362 760.699 132.037C775.141 77.7562 780.765 21.0667 777.724 -34.9907C780.424 21.0272 774.447 77.6564 759.701 131.769C728.709 247.612 650.878 331.437 528.002 343.629C472.431 349.708 415.078 344.882 362.825 324.258C310.056 304.26 265.197 269.487 218.319 238.882C155.372 197.273 94.6101 177.211 18.6661 188.073C-23.0286 193.811 -64.1437 211.958 -91.7283 244.523C-128.526 287.656 -140.749 347.305 -136.913 402.79Z" fill="#B861B3"/>
<path d="M-136.914 402.789C-139.995 374.992 -138.429 346.681 -132.782 319.312C-120.54 258.813 -83.7403 209.341 -24.4732 188.72C24.8899 171.72 79.921 171.002 129.835 186.177C183.68 202.566 229.139 236.943 276.115 266.801C311.438 289.427 348.958 309.64 389.583 320.993C403.075 324.85 416.838 327.794 430.723 329.81C513.219 340.916 604.206 327.31 669.01 271.765C750.204 202.031 777.21 89.2125 778.274 -13.9939C778.271 -20.9896 778.162 -27.9917 777.724 -34.9806C781.125 72.1668 753.02 198.659 667.952 270.522C625.252 306.938 569.975 325.713 514.502 329.973C458.92 334.97 402.061 327.364 350.766 304.972C260.875 267.536 189.534 187.046 89.2313 175.641C34.3311 169.528 -26.2627 178.165 -70.9864 212.527C-127.824 256.29 -144.358 334.497 -136.914 402.789Z" fill="#B861B3"/>
<path d="M-136.913 402.789C-146.146 335.142 -133.766 257.344 -80.8559 209.821C-62.7561 193.526 -40.6893 181.988 -17.5296 174.706C25.6877 161.646 72.5264 160.107 116.372 171.056C198.563 191.814 261.684 252.949 337.758 287.401C413.78 323.479 503.282 328.255 583.405 303.256C697.963 267.394 756.71 161.867 772.776 48.5186C776.779 20.9067 778.836 -7.08418 777.724 -34.9805C778.28 -21.0324 777.808 -7.0644 776.888 6.85771C763.262 196.054 658.549 326.354 459.185 316.319C350.917 310.857 282.947 252.112 194.263 201.061C169.797 187.536 144.001 176.08 116.811 169.287C72.666 158.287 25.4968 160.05 -17.9663 173.333C-55.3055 185.055 -87.5858 207.626 -108.712 240.91C-138.543 288.448 -144.654 348.087 -136.913 402.789Z" fill="#B861B3"/>
<path d="M-136.914 402.789C-146.081 348.77 -142.307 289.044 -115.763 240.246C-95.6721 203.086 -60.8543 176.56 -20.8445 163.957C18.7585 151.263 61.6466 148.577 102.494 156.46C185.686 172.772 250.779 231.462 325.488 267.624C388.33 299.408 459.228 311.306 528.891 300.461C614.796 289 688.045 242.736 730.262 166.243C764.077 105.256 778.612 34.4107 777.713 -34.9912C778.337 20.5894 768.229 76.5977 747.408 128.16C708.919 224.165 631.092 284.932 528.626 298.603C459.287 309.308 388.918 297.399 326.42 265.719C251.606 229.582 186.258 170.881 102.847 154.663C61.701 146.749 18.5349 149.648 -21.3037 162.552C-77.4271 180.586 -116.534 221.689 -132.362 278.477C-143.552 318.775 -144.311 361.746 -136.914 402.789Z" fill="#B861B3"/>
<path d="M-136.913 402.79C-147.73 349.176 -146.485 289.657 -123.298 239.39C-105.486 200.708 -73.7227 172.095 -34.2274 156.699C17.3976 136.552 75.9409 134.77 128.733 151.604C195.4 172.609 251.311 216.325 313.137 247.65C389.49 288.036 471.808 300.795 556.141 280.256C641.055 260.693 707.173 206.454 743.259 127.095C766.25 76.4546 777.807 20.5902 777.703 -34.9792C777.399 23.9292 764.156 83.2791 737.747 136.02C700.733 210.203 636.315 259.979 555.71 278.479C471.782 298.81 389.982 286.01 314.091 245.765C252.214 214.484 196.1 170.755 129.287 149.809C76.0993 132.885 17.1482 134.821 -34.7807 155.33C-74.4684 170.957 -106.493 199.952 -124.228 238.96C-147.191 289.515 -148.084 349.095 -136.913 402.79Z" fill="#B861B3"/>
<path d="M-136.913 402.789C-150.676 343.157 -150.733 275.197 -121.748 219.996C-102.753 184.112 -71.0202 158.176 -33.2489 143.984C28.256 120.672 93.6256 123.767 153.93 149.134C205.394 170.182 251.519 201.857 300.686 227.572C377.238 268.958 456.097 286.781 542.305 268.28C659.115 245.81 739.563 162.136 766.856 47.4591C773.431 20.4877 777.558 -7.21408 777.713 -35.0017C777.651 -21.1138 776.304 -7.24905 774.401 6.48932C761.545 102.427 709.56 196.326 620.337 239.808C558.363 270.23 486.163 280.805 418.149 268.601C349.273 256.336 288.893 219.221 229.109 184.831C181.145 157.337 129.875 131.568 73.8844 127.102C35.7197 123.973 -3.21423 130.026 -38.6731 144.466C-74.5951 159.263 -104.59 184.864 -122.746 219.452C-151.497 274.399 -151.061 343.618 -136.913 402.789Z" fill="#B861B3"/>
<path d="M-136.914 402.789C-152.312 343.923 -154.852 275.69 -129.706 219.21C-109.446 173.519 -69.8844 142.494 -22.7412 127.833C132.028 78.5735 230.395 194.207 363.977 241.907C416.317 260.968 473.556 266.403 528.376 256.139C583.03 246.477 636.313 224.289 678.073 187.178C740.953 131.805 774.424 47.8053 777.702 -34.9904C776.834 -7.25923 771.597 20.2745 763.807 46.8591C744.469 113.267 703.115 174.141 643.965 211.001C585.259 247.301 514.114 263.821 445.395 258.163C403.955 254.571 363.842 241.711 326.241 224.229C209.469 169.425 115.352 81.6163 -23.2589 126.293C-78.7958 143.868 -120.576 182.052 -138.2 238.243C-154.616 291.18 -151.126 349.725 -136.914 402.789Z" fill="#B861B3"/>
<path d="M-136.914 402.789C-152.161 350.085 -157.245 292.028 -143.549 238.478C-129.065 182.051 -91.1629 140.794 -36.8931 120.181C174.394 40.6959 292.072 278.469 514.409 243.809C596.692 231.983 676.884 190.601 724.203 120.732C755.537 74.9494 774.392 20.3864 777.702 -35.0006C776.196 -7.29711 769.901 20.0559 760.907 46.2426C728.6 141.607 651.862 209.21 554.769 233.591C470.005 257.172 391.172 242.936 313.391 204.529C197.603 147.765 98.3676 66.2533 -37.4951 118.655C-92.0077 139.565 -130.239 181.333 -144.557 238.199C-157.948 291.982 -152.512 350.067 -136.914 402.789Z" fill="#B861B3"/>
<path d="M-136.914 402.79C-159.13 332.316 -165.939 243.765 -126.23 178.371C-93.897 124.916 -31.4432 97.7235 28.9286 92.3019C84.584 87.2807 139.142 105.308 188.646 129.364C263.265 165.402 334.309 213.409 417.249 228.181C458.334 235.63 501.029 234.236 541.477 223.845C546.854 222.441 556.285 220.261 561.613 218.413C604.839 205.586 646.209 184.775 680.383 155.154C684.126 152.149 684.955 151.118 688.138 148.189C693.222 143.687 698.3 138.261 702.883 133.439C705.342 130.974 707.526 128.265 709.798 125.637L713.184 121.67C713.741 121.011 714.32 120.361 714.866 119.681L716.46 117.612C742.345 84.9977 760.819 46.4267 770.914 6.06647C774.175 -7.41816 776.78 -21.1208 777.713 -34.9797C774.026 6.42012 759.945 46.8649 739.167 82.7359C701.51 147.454 641.734 190.973 571.039 213.728C520.689 230.194 469.947 236.017 417.576 226.279C306.776 206.821 219.204 126.67 111.592 98.0088C27.7297 75.0036 -80.0609 100.15 -127.328 177.703C-167.024 243.448 -159.611 332.24 -136.914 402.79Z" fill="#B861B3"/>
<path d="M-136.914 402.789C-163.492 324.061 -173.015 223.038 -120.018 153.197C-96.7617 122.79 -62.7213 102.314 -26.5615 90.8193C41.0295 67.6576 111.617 81.8607 174.949 111.045C304.722 170.978 406.613 252.044 558.122 204.582C601.236 191.324 642.941 171.466 677.789 142.507C682.886 138.599 688.741 132.973 693.497 128.76L700.885 121.385C702.098 120.137 703.377 118.961 704.535 117.662C706.667 115.241 711.051 110.502 713.274 107.972L714.923 105.953L721.53 97.876L727.765 89.5063C753.935 52.879 772.468 9.92131 777.724 -34.9806C772.209 9.81487 753.436 52.6017 727.087 89.0026L720.829 97.3094L714.187 105.324L712.527 107.322L710.779 109.249L707.271 113.084C703.571 117.435 696.832 123.797 692.732 127.941C689.691 130.717 684.015 135.784 681.091 138.31C677.028 141.508 672.985 144.971 668.917 148.052C663.756 151.687 657.168 156.78 651.894 159.973C623.045 179.18 590.695 192.806 557.665 202.965C441.938 239.033 351.932 199.797 250.539 146.121C177.748 108.046 98.3345 66.7532 13.5656 79.5593C-40.2608 87.6075 -94.2396 112.859 -125.709 158.689C-173.584 229.261 -163.29 325.91 -136.914 402.789Z" fill="#B861B3"/>
<path d="M-136.914 402.789C-162.523 332.387 -174.902 244.111 -142.947 173.994C-129.287 144.001 -106.31 118.563 -78.3176 101.29C-31.1151 72.147 26.6187 60.7052 81.3511 69.7973C136.484 78.5549 187.05 103.705 236.45 128.615C334.568 179.183 432.091 227.323 544.727 193.576C603.276 177.293 659.459 148.769 702.77 105.577C740.238 67.8198 769.393 17.963 777.713 -34.9911C771.059 6.24047 751.661 44.7953 726.295 77.6644L719.742 85.7601C717.943 87.732 712.648 93.8561 711.123 95.5199C710.533 96.1591 709.92 96.7674 709.319 97.3965C707.432 99.2976 703.929 102.983 702.062 104.873C658.706 147.705 602.692 175.957 544.271 191.981C317.745 258.92 170.28 -1.00937 -41.789 81.2137C-85.9301 98.2495 -122.527 127.798 -143.031 171.078C-176.299 242.086 -163.314 331.452 -136.914 402.789Z" fill="#B861B3"/>
<path d="M-136.914 402.789C-182.106 285.928 -188.216 134.535 -55.5686 75.4681C71.9426 16.6584 185.075 93.2954 298.457 146.132C374.588 182.28 458.452 205.614 541.684 180.056C581.856 168.328 620.781 151.68 655.926 128.835C708.397 94.7794 752.449 45.1462 772.46 -14.7601C774.615 -21.3853 776.533 -28.1073 777.712 -34.9909C775.128 -21.289 770.285 -8.09164 764.67 4.62697C736.034 68.582 681.018 117.591 618.938 148.304C537.012 187.971 465.484 202.065 376.98 174.669C270.266 142.989 178.89 66.9919 66.4387 53.7358C-15.6864 44.7591 -108.701 81.4822 -146.168 158.422C-182.198 233.585 -166.205 327.863 -136.914 402.789Z" fill="#B861B3"/>
</g>
</g>
<defs>
<clipPath id="clip0_228_4182">
<rect width="956" height="401" fill="white" transform="matrix(0.999206 -0.0398332 -0.0398332 -0.999206 -161.322 403.762)"/>
</clipPath>
</defs>
</svg>
