<svg width="190" height="140" viewBox="0 0 190 140" fill="none" xmlns="http://www.w3.org/2000/svg">
<g clip-path="url(#clip0_64_2736)">
<path d="M121.157 128.85C130.018 97.9092 144.321 48.3296 153.049 17.8761L154.111 14.1814C154.265 13.5951 154.509 13.042 154.409 12.4336C154.265 11.2942 153.093 10.4092 151.954 10.6415C151.389 10.7632 150.737 10.9734 150.128 11.1283C134.951 15.2876 109.863 22.2455 94.4757 26.4712L35.1062 42.8318L34 38.5508L93.8562 24.0597C110.338 20.1106 135.604 13.8827 151.865 10.0221C153.314 9.8119 154.774 10.8849 155.018 12.323C155.15 13.0088 154.929 13.6946 154.763 14.3473L153.812 18.0752C146.091 48.6172 133.259 99.0154 125.427 130L121.157 128.85Z" fill="#F3C545"/>
<path d="M113.093 112.743C122.739 87.3451 138.292 46.626 147.794 21.626L148.956 18.584C149.166 18.053 149.343 17.6437 149.232 17.1791C149.077 16.2389 148.004 15.6305 147.119 15.9845L145.593 16.5486L142.54 17.6659C117.562 26.803 76.323 41.9468 50.9911 51.2168L49.542 47.0353L99 30.9734C107.23 28.2964 128.148 21.5044 136.091 18.9269C138.104 18.2743 143.414 16.5486 145.361 15.9181L146.909 15.4203C148.978 14.8008 150.515 17.0132 149.553 18.8163C145.316 31.4048 138.226 52.2234 133.923 64.9999L117.252 114.259L113.093 112.765V112.743Z" fill="#F3C545"/>
<path d="M105.084 96.5708C116.168 75.4204 133.192 43.3518 144.055 22.489C144.287 21.5045 143.137 20.7633 142.285 21.4049L141.091 22.0133C139.597 22.7655 135.46 24.8562 133.911 25.6416C127.827 28.7169 111.489 36.9912 105.206 40.177L66.9313 59.5576L65.0176 55.5642L104.133 37.9315C110.637 35.0001 127.175 27.5443 133.469 24.7124C135.051 24.0045 139.254 22.1018 140.803 21.4049C141.245 21.2501 142.241 20.6748 142.739 20.6085C144.221 20.4093 145.195 22.135 144.387 23.3186C139.741 33.2412 131.998 49.6571 127.285 59.7235L109.044 98.5509L105.084 96.5819V96.5708Z" fill="#F3C545"/>
<path d="M97.1747 80.2987C108.369 66.073 126.345 43.2522 137.363 29.2478L138.701 27.5443C138.934 27.2788 139 27.0797 138.9 26.8253C138.757 26.4602 138.292 26.2943 137.982 26.5376L137.562 26.8474L136.699 27.5C129.619 32.7987 117.894 41.604 110.715 46.9801L82.9933 67.7655L80.438 64.1483L109.276 44.9337C114.077 41.7368 126.268 33.6062 130.903 30.5199C132.075 29.7456 135.172 27.677 136.312 26.9138C136.566 26.7478 137.418 26.1726 137.673 26.0067C138.524 25.4204 139.752 26.3053 139.498 27.2899C139.409 27.7213 138.203 29.2478 137.96 29.6461C133.491 36.062 125.15 47.9757 120.593 54.5022L100.748 82.9093L97.1968 80.2766L97.1747 80.2987Z" fill="#F3C545"/>
</g>
<defs>
<clipPath id="clip0_64_2736">
<rect width="121.062" height="120" fill="white" transform="translate(34 10)"/>
</clipPath>
</defs>
</svg>
