<svg width="191" height="140" viewBox="0 0 191 140" fill="none" xmlns="http://www.w3.org/2000/svg">
<g clip-path="url(#clip0_64_2731)">
<path d="M116.763 25.7057C113.688 40.4433 107.235 74.0356 103.807 88.1682C97.7572 114.014 94.4467 115.173 88.6492 88.3362C85.4563 74.3212 79.5579 40.2081 76.7852 25.6553L81.7929 25.0336C82.7003 39.1326 84.2296 53.2148 86.2125 67.2129C88.0778 79.3794 89.7246 91.7475 93.6569 103.443C94.161 104.637 94.9004 107.023 96.144 107.258C96.6481 107.14 97.2027 106.283 97.5724 105.578C102.664 93.3944 104.277 80.0012 106.613 67.0785C108.831 53.1139 110.629 39.0653 111.789 24.9832L116.78 25.6889L116.763 25.7057Z" fill="#F3C545"/>
<path d="M130.593 42.1743C123.3 59.8862 116.629 77.7158 108.058 94.8228C98.194 114.215 94.0601 114.148 84.1118 94.8228C75.6592 77.6486 69.4079 59.6342 62.6021 41.7205L67.4417 40.309C70.2145 52.6267 73.7603 64.8436 77.9614 76.758C81.1711 85.6476 84.5656 94.6044 89.6237 102.62C92.1444 106.25 95.707 111.543 99.7737 106.368C106.664 97.73 110.411 87.0087 114.461 76.8252C118.88 64.9612 122.712 52.8451 125.821 40.5946L130.627 42.1407L130.593 42.1743Z" fill="#F3C545"/>
<path d="M144.272 58.7603C137.231 68.5741 130.24 78.2703 122.796 87.6809C116.091 95.6294 109.705 104.553 100.479 109.762C89.7245 115.392 75.2726 94.7388 69.1893 87.496C61.8962 77.951 55.1912 68.0532 48.5198 57.9537L52.9394 55.5338C57.9639 66.2551 63.8959 76.6571 70.6177 86.4541C75.6927 93.7137 81.1374 100.973 88.1785 106.418C90.5143 108.166 93.1526 109.712 96.0094 109.947C101.874 109.779 106.311 104.385 110.243 100.553C122.14 87.2944 131.669 71.9014 139.936 56.1892L144.255 58.7939L144.272 58.7603Z" fill="#F3C545"/>
<path d="M157.749 75.3799C140.76 88.0506 124.409 101.982 104.849 110.401C99.1687 112.921 92.6317 112.417 86.9518 110.132C78.4151 106.922 70.7354 101.897 63.2742 96.7385C53.3764 89.731 44.0162 82.1186 34.7065 74.17L38.2859 70.6243C46.1504 79.5811 54.9392 87.8993 64.3329 95.3101C71.4076 100.805 78.8856 106.015 87.2711 109.241C92.8334 111.526 98.9166 112.081 104.496 109.51C112.831 106.149 120.292 100.923 127.468 95.5454C136.996 88.269 146.037 80.2365 154.338 71.6325L157.732 75.3631L157.749 75.3799Z" fill="#F3C545"/>
<path d="M171.008 91.8653C158.657 96.4025 146.406 100.872 133.988 104.956C121.536 108.72 108.999 113.409 95.8078 113.442C82.6667 112.938 70.0633 108.687 57.6951 104.603C45.327 100.318 33.2278 95.4446 21.0613 90.3361L23.3635 85.8492C40.1176 95.5791 58.048 103.881 76.7179 109.275C83.7254 111.19 90.9681 112.821 98.2277 112.585C110.377 111.711 122.023 107.493 133.383 103.292C145.516 98.6543 157.447 93.3273 168.908 87.2776L170.991 91.8653H171.008Z" fill="#F3C545"/>
<path d="M184.25 108.115C154.724 110.199 125.401 114.383 95.8078 114.82C66.1814 114.131 36.9415 109.527 7.5 106.233L8.40744 101.276C37.076 107.846 66.3494 113.089 95.8078 113.963C110.529 113.896 125.233 112.131 139.852 110.266C154.472 108.334 169.076 106.015 183.527 103.107L184.233 108.098L184.25 108.115Z" fill="#F3C545"/>
</g>
<defs>
<clipPath id="clip0_64_2731">
<rect width="176.75" height="89.837" fill="white" transform="translate(7.5 25)"/>
</clipPath>
</defs>
</svg>
