<svg width="298" height="295" viewBox="0 0 298 295" fill="none" xmlns="http://www.w3.org/2000/svg">
<g clip-path="url(#clip0_536_3995)">
<path d="M298 147.493C297.12 279.029 137.955 343.613 44.0157 252.326C-14.6775 195.883 -14.6924 99.0875 44.0157 42.6447C137.955 -48.6284 297.12 15.9564 297.985 147.478L298 147.493ZM294.271 147.493C294.703 44.3564 188.921 -27.5665 93.1777 12.8157C-24.9991 63.4981 -24.9991 231.502 93.1777 282.169C188.921 322.537 294.703 250.629 294.271 147.493Z" fill="#FAECC8"/>
<path d="M149.082 284.551C27.5943 283.717 -31.9788 137.267 52.2499 50.8611C104.365 -3.1853 193.814 -3.1853 245.93 50.8611C330.159 137.282 270.57 283.717 149.097 284.551H149.082ZM149.082 280.874C244.259 281.291 310.708 184.124 273.404 96.1106C226.599 -12.4436 71.5508 -12.4287 24.7604 96.1106C-12.5437 184.124 53.9205 281.291 149.082 280.874Z" fill="#FAECC8"/>
<path d="M149.082 272.986C37.9011 272.197 -16.5112 138.145 60.4685 59.0626C108.139 9.54115 190.041 9.54115 237.711 59.0626C314.691 138.145 260.264 272.197 149.097 272.971L149.082 272.986ZM149.082 269.369C236.071 269.756 296.912 180.998 262.77 100.502C219.947 1.33967 78.2181 1.35456 35.3953 100.502C1.25331 180.998 62.0943 269.77 149.082 269.369Z" fill="#FAECC8"/>
<path d="M149.082 261.405C48.2223 260.676 -1.05903 139.023 68.6866 67.264C111.912 22.2824 186.252 22.2675 229.492 67.264C299.223 139.023 249.942 260.676 149.097 261.405H149.082ZM149.082 257.863C227.896 258.235 283.114 177.872 252.134 104.907C213.294 15.1377 84.8701 15.1377 46.0297 104.907C15.0499 177.872 70.2677 258.235 149.082 257.863Z" fill="#FAECC8"/>
<path d="M149.082 249.84C58.5291 249.155 14.4085 139.901 76.9051 75.4655C115.701 35.0089 182.478 35.0089 221.274 75.4655C283.77 139.901 239.635 249.155 149.097 249.84H149.082ZM149.082 246.357C219.723 246.699 269.317 174.732 241.499 109.298C206.642 28.921 91.5374 28.921 56.6795 109.298C28.8618 174.732 78.4564 246.699 149.097 246.357H149.082Z" fill="#FAECC8"/>
<path d="M149.082 238.259C68.8503 237.619 29.8607 140.765 85.1233 83.6669C119.474 47.7352 178.704 47.7352 213.055 83.6669C268.317 140.78 229.313 237.634 149.082 238.259ZM149.082 234.851C211.548 235.178 255.52 171.606 230.849 113.689C199.974 42.6893 98.1745 42.7042 67.314 113.689C42.6435 171.591 86.6148 235.178 149.082 234.851Z" fill="#FAECC8"/>
<path d="M149.082 226.694C79.1723 226.173 45.3883 141.613 93.3273 91.8684C123.412 60.4319 174.737 60.4319 204.822 91.8684C252.776 141.613 218.977 226.173 149.067 226.694H149.082ZM149.082 223.36C203.36 223.553 241.783 168.525 220.2 118.11C193.367 56.547 104.783 56.547 77.9492 118.11C56.3812 168.525 94.789 223.568 149.067 223.36H149.082Z" fill="#FAECC8"/>
<path d="M149.082 215.114C89.4943 214.652 60.8264 142.476 101.546 100.07C127.171 73.1733 170.979 73.1584 196.619 100.07C237.338 142.491 208.67 214.652 149.082 215.114ZM149.082 211.854C195.187 212.033 227.971 165.369 209.565 122.501C186.715 70.3154 111.45 70.3303 88.5994 122.501C70.1935 165.384 102.978 212.048 149.082 211.854Z" fill="#FAECC8"/>
<path d="M149.082 203.534C99.8156 203.132 76.2786 143.355 109.764 108.271C130.855 85.9146 167.309 85.9146 188.4 108.271C221.9 143.355 198.348 203.132 149.082 203.534ZM149.082 200.363C186.953 200.586 214.204 162.169 198.93 126.892C180.166 84.1284 118.013 84.1284 99.2488 126.892C83.9602 162.154 111.226 200.586 149.097 200.363H149.082Z" fill="#FAECC8"/>
<path d="M149.081 191.953C110.181 191.685 91.7009 144.129 117.982 116.473C134.554 98.6559 163.609 98.6559 180.181 116.473C206.462 144.144 187.967 191.685 149.081 191.953ZM149.081 188.872C178.793 189.066 200.391 159.043 188.28 131.298C173.469 97.9116 124.694 97.9116 109.883 131.298C97.7716 159.043 119.369 189.066 149.081 188.872Z" fill="#FAECC8"/>
<path d="M182.016 147.493C181.778 176.041 146.606 189.348 126.202 170.341C112.912 158.358 112.912 136.642 126.202 124.659C146.606 105.652 181.792 118.959 182.016 147.507V147.493ZM179.033 147.493C179.257 126.029 157.48 110.043 137.254 119.003C113.21 129.765 113.21 165.235 137.254 175.997C157.465 184.942 179.242 168.956 179.033 147.507V147.493Z" fill="#FAECC8"/>
</g>
<defs>
<clipPath id="clip0_536_3995">
<rect width="298" height="295" fill="white"/>
</clipPath>
</defs>
</svg>
