<svg width="1280" height="1020" viewBox="0 0 1280 1020" fill="none" xmlns="http://www.w3.org/2000/svg">
<g clip-path="url(#clip0_83_3489)">
<path d="M-173.444 381.506C-123.009 376.936 -68.1501 390.465 -24.9318 418.849C-13.6803 426.176 -3.0842 434.562 6.43236 443.568C14.5004 450.987 21.861 459.18 28.7588 467.352C45.3405 487.196 62.5194 507.31 80.3564 526.354C101.435 548.397 124.382 571.157 154.192 584.022C164.666 588.755 175.72 591.939 186.509 595.67C192.827 598.145 198.777 601.306 204.591 604.7C250.213 632.073 301.398 683.181 356.811 657.878C407.927 637.371 479.383 645.557 533.124 668.902C541.293 672.724 548.575 678.086 555.818 683.33C563.04 688.634 570.128 694.095 577.246 699.537C605.767 721.198 634.785 743.218 668.534 757.998C695.601 769.718 721.828 773.861 747.627 762.841C786.577 746.463 818.196 720.65 855.3 701.897C897.466 679.685 947.116 664.956 998.972 685.257C1009.39 689.277 1020.38 693.673 1030.52 698.303C1051.18 707.537 1071.2 718.607 1087.56 733.425C1094.19 739.321 1100.53 745.58 1107.81 750.951C1118.75 759.106 1131.56 764.914 1144.52 769.696C1146.69 770.466 1148.84 771.267 1151.02 772.002L1157.56 774.166C1181.05 781.915 1203.1 777.878 1220.6 764.805C1240.41 750.417 1253.4 730.467 1270.34 713.853C1281.34 703.058 1296.23 692.438 1315 695.602L1315.02 695.331C1296.06 691.918 1280.81 702.484 1269.56 713.235C1252.3 729.644 1239.19 749.341 1219.34 763.513C1199.04 777.967 1177.77 779.838 1151.72 770.019C1136.82 764.828 1121.91 758.592 1109.45 749.228C1098.71 741.151 1089.92 731.262 1079.16 723.157C1057.61 706.658 1031.94 695.334 1006.41 685.199C931.95 652.852 865.403 689.77 810.645 724.32C785.626 739.216 752.747 763.632 721.601 766.742C671.249 769.741 616.582 726.758 578.312 698.451C571.155 693.054 564.021 687.625 556.733 682.347C549.414 677.126 542.072 671.772 533.64 667.881C484.479 646.965 424.021 638.862 374.55 651.051C369.366 652.32 364.101 654.033 359.162 655.799C356.571 656.824 352.932 658.267 350.294 659.228C334.53 665.363 315.553 664.808 298.399 658.74C263.504 646.647 236.593 621.637 205.808 602.991C197.976 598.309 189.613 594.009 180.76 591.335C165.576 586.633 150.662 580.858 137.279 572.544C123.914 564.313 112.061 554.077 100.959 543.584C85.3224 528.624 70.1274 511.944 56.0946 495.896C44.7194 483.018 33.5106 469.203 22.0986 456.331C10.3454 443.316 -3.29522 431.514 -18.1776 421.221C-47.9175 400.595 -83.6481 387.171 -119.761 382.298C-133.285 380.459 -146.888 379.672 -160.278 380.19C-164.741 380.373 -169.181 380.659 -173.559 381.236L-173.481 381.513L-173.45 381.524L-173.444 381.506Z" fill="#FAECC8"/>
<path d="M-171.909 370.866C-121.474 366.295 -66.6149 379.824 -23.3966 408.209C-12.1452 415.535 -1.54904 423.922 7.96751 432.927C16.0356 440.347 23.3962 448.54 30.2939 456.711C46.8756 476.556 64.0545 496.669 81.8916 515.713C102.97 537.756 125.917 560.516 155.727 573.381C166.201 578.114 177.255 581.298 188.044 585.029C194.362 587.505 200.312 590.665 206.126 594.059C251.748 621.433 302.933 672.54 358.347 647.238C409.462 626.731 480.918 634.916 534.66 658.262C542.828 662.083 550.11 667.446 557.353 672.689C564.575 677.993 571.664 683.454 578.782 688.897C607.302 710.557 636.32 732.578 670.069 747.358C697.136 759.077 723.363 763.221 749.162 752.2C788.113 735.823 819.732 710.009 856.835 691.256C899.001 669.044 948.651 654.315 1000.51 674.617C1010.92 678.636 1021.91 683.032 1032.06 687.663C1052.72 696.897 1072.73 707.967 1089.1 722.785C1095.73 728.68 1102.07 734.939 1109.35 740.31C1120.28 748.465 1133.09 754.273 1146.06 759.056C1148.23 759.826 1150.38 760.626 1152.56 761.362L1159.1 763.525C1182.59 771.274 1204.63 767.237 1222.14 754.165C1241.94 739.776 1254.93 719.826 1271.88 703.212C1282.87 692.417 1297.76 681.797 1316.54 684.962L1316.56 684.69C1297.59 681.278 1282.34 691.844 1271.1 702.594C1253.83 719.004 1240.72 738.701 1220.88 752.873C1200.58 767.327 1179.31 769.197 1153.25 759.379C1138.36 754.188 1123.45 747.952 1110.98 738.588C1100.25 730.511 1091.45 720.621 1080.69 712.516C1059.14 696.018 1033.48 684.694 1007.94 674.559C933.485 642.211 866.938 679.129 812.18 713.68C787.161 728.575 754.279 753 723.136 756.102C672.781 759.109 618.117 716.117 579.847 687.81C572.691 682.413 565.556 676.985 558.268 671.706C550.95 666.486 543.607 661.131 535.175 657.241C486.014 636.325 425.556 628.222 376.085 640.41C370.901 641.679 365.636 643.393 360.697 645.159C358.106 646.184 354.468 647.627 351.829 648.587C336.065 654.722 317.088 654.168 299.935 648.1C265.039 636.007 238.129 610.997 207.344 592.35C199.511 587.669 191.148 583.368 182.295 580.694C167.111 575.993 152.197 570.217 138.814 561.903C125.449 553.672 113.596 543.436 102.495 532.943C86.8576 517.983 71.6625 501.303 57.6298 485.256C46.2546 472.377 35.0457 458.562 23.6338 445.691C11.8806 432.675 -1.76007 420.874 -16.6425 410.581C-46.3824 389.955 -82.1129 376.53 -118.226 371.657C-131.75 369.818 -145.353 369.031 -158.743 369.55C-163.206 369.732 -167.646 370.019 -172.024 370.596L-171.945 370.873L-171.915 370.883L-171.909 370.866Z" fill="#FAECC8"/>
<path d="M-170.374 360.217C-119.939 355.647 -65.0798 369.176 -21.8615 397.56C-10.61 404.886 -0.0138808 413.273 9.50267 422.279C17.5708 429.698 24.9313 437.891 31.8291 446.063C48.4108 465.907 65.5897 486.02 83.4267 505.064C104.506 527.108 127.452 549.867 157.262 562.733C167.737 567.466 178.79 570.65 189.579 574.381C195.898 576.856 201.847 580.017 207.661 583.411C253.283 610.784 304.469 661.891 359.882 636.589C410.997 616.082 482.454 624.268 536.195 647.613C544.363 651.434 551.646 656.797 558.888 662.04C566.11 667.344 573.199 672.806 580.317 678.248C608.837 699.908 637.855 721.929 671.605 736.709C698.671 748.429 724.898 752.572 750.697 741.552C789.648 725.174 821.267 699.361 858.37 680.607C900.536 658.395 950.186 643.666 1002.04 663.968C1012.46 667.988 1023.45 672.384 1033.59 677.014C1054.25 686.248 1074.27 697.318 1090.63 712.136C1097.26 718.032 1103.6 724.29 1110.88 729.662C1121.82 737.817 1134.63 743.624 1147.59 748.407C1149.76 749.177 1151.91 749.978 1154.1 750.713L1160.63 752.877C1184.12 760.626 1206.17 756.589 1223.67 743.516C1243.48 729.128 1256.47 709.178 1273.41 692.564C1284.41 681.768 1299.3 671.149 1318.07 674.313L1318.09 674.041C1299.13 670.629 1283.88 681.195 1272.63 691.945C1255.37 708.355 1242.26 728.052 1222.41 742.224C1202.12 756.678 1180.84 758.549 1154.79 748.73C1139.89 743.539 1124.98 737.303 1112.52 727.939C1101.78 719.862 1092.99 709.972 1082.23 701.868C1060.68 685.369 1035.01 674.045 1009.48 663.91C935.02 631.563 868.473 668.481 813.715 703.031C788.697 717.927 755.804 742.348 724.671 745.453C674.316 748.461 619.652 705.469 581.382 677.162C574.226 671.764 567.092 666.336 559.804 661.058C552.485 655.837 545.142 650.483 536.711 646.592C487.549 625.676 427.091 617.573 377.621 629.761C372.437 631.03 367.171 632.744 362.233 634.51C359.641 635.535 356.003 636.978 353.364 637.939C337.601 644.074 318.624 643.519 301.47 637.451C266.574 625.358 239.664 600.348 208.879 581.701C201.046 577.02 192.684 572.719 183.831 570.045C168.646 565.344 153.732 559.568 140.349 551.254C126.984 543.024 115.131 532.788 104.03 522.294C88.3927 507.335 73.1977 490.655 59.165 474.607C47.7897 461.729 36.5809 447.914 25.1689 435.042C13.4158 422.027 -0.224911 410.225 -15.1073 399.932C-44.8472 379.306 -80.5778 365.882 -116.691 361.009C-130.215 359.17 -143.818 358.383 -157.208 358.901C-161.671 359.084 -166.111 359.37 -170.489 359.947L-170.41 360.224L-170.379 360.235L-170.374 360.217Z" fill="#FAECC8"/>
<path d="M-168.838 349.568C-118.404 344.997 -63.5446 358.526 -20.3263 386.911C-9.07487 394.237 1.52128 402.624 11.0378 411.629C19.1059 419.049 26.4665 427.242 33.3643 435.413C49.9459 455.258 67.1248 475.371 84.9619 494.415C106.041 516.459 128.987 539.218 158.797 552.083C169.272 556.816 180.325 560.001 191.115 563.732C197.433 566.207 203.382 569.367 209.196 572.761C254.818 600.135 306.004 651.242 361.417 625.94C412.533 605.433 483.989 613.618 537.73 636.964C545.898 640.785 553.181 646.148 560.423 651.391C567.645 656.695 574.734 662.156 581.855 667.59C610.375 689.25 639.393 711.271 673.143 726.051C700.21 737.771 726.436 741.914 752.235 730.894C791.186 714.516 822.805 688.703 859.908 669.949C902.074 647.737 951.724 633.008 1003.58 653.31C1014 657.33 1024.99 661.726 1035.13 666.356C1055.79 675.59 1075.81 686.66 1092.17 701.478C1098.8 707.374 1105.14 713.632 1112.42 719.004C1123.36 727.159 1136.16 732.966 1149.13 737.749C1151.3 738.519 1153.45 739.32 1155.63 740.055L1162.17 742.219C1185.66 749.968 1207.71 745.931 1225.21 732.858C1245.02 718.47 1258.01 698.52 1274.95 681.906C1285.94 671.11 1300.83 660.491 1319.61 663.655L1319.63 663.383C1300.67 659.971 1285.42 670.537 1274.17 681.287C1256.91 697.697 1243.8 717.394 1223.95 731.566C1203.65 746.02 1182.38 747.891 1156.32 738.072C1141.43 732.881 1126.52 726.645 1114.05 717.281C1103.32 709.204 1094.53 699.314 1083.77 691.21C1062.22 674.711 1036.55 663.387 1011.02 653.252C936.558 620.905 870.011 657.823 815.253 692.373C790.235 707.269 757.356 731.684 726.21 734.795C675.857 737.794 621.19 694.811 582.92 666.504C575.764 661.106 568.63 655.678 561.342 650.4C554.023 645.179 546.68 639.825 538.249 635.934C489.087 615.018 428.63 606.915 379.159 619.103C373.975 620.372 368.709 622.086 363.771 623.852C361.179 624.877 357.541 626.32 354.902 627.281C339.139 633.416 320.162 632.861 303.008 626.793C268.112 614.7 241.202 589.69 210.417 571.043C202.584 566.362 194.222 562.061 185.369 559.387C170.184 554.686 155.27 548.91 141.887 540.596C128.522 532.366 116.669 522.13 105.568 511.636C89.9308 496.677 74.7357 479.997 60.703 463.949C49.3278 451.071 38.119 437.256 26.707 424.384C14.9538 411.369 1.31317 399.567 -13.5692 389.274C-43.3091 368.648 -79.0397 355.224 -115.153 350.351C-128.677 348.512 -142.28 347.725 -155.67 348.243C-160.132 348.426 -164.573 348.712 -168.951 349.289L-168.872 349.566L-168.841 349.577L-168.838 349.568Z" fill="#FAECC8"/>
<path d="M-167.3 338.919C-116.866 334.349 -62.0065 347.878 -18.7882 376.262C-7.53678 383.588 3.05936 391.975 12.5759 400.981C20.644 408.4 28.0046 416.593 34.9023 424.764C51.484 444.609 68.6629 464.722 86.5 483.766C107.579 505.81 130.525 528.569 160.335 541.434C170.81 546.167 181.863 549.352 192.653 553.083C198.971 555.558 204.921 558.718 210.734 562.113C256.356 589.486 307.542 640.593 362.955 615.291C414.071 594.784 485.527 602.969 539.268 626.315C547.436 630.136 554.719 635.499 561.961 640.742C569.183 646.046 576.272 651.508 583.393 656.941C611.913 678.602 640.931 700.622 674.681 715.402C701.748 727.122 727.974 731.265 753.773 720.245C792.724 703.867 824.343 678.054 861.447 659.301C903.612 637.088 953.263 622.359 1005.12 642.661C1015.53 646.681 1026.52 651.077 1036.67 655.707C1057.33 664.941 1077.35 676.011 1093.71 690.829C1100.34 696.725 1106.68 702.984 1113.96 708.355C1124.9 716.51 1137.7 722.318 1150.67 727.1C1152.84 727.87 1154.99 728.671 1157.17 729.406L1163.71 731.57C1187.2 739.319 1209.24 735.282 1226.75 722.209C1246.55 707.821 1259.54 687.871 1276.49 671.257C1287.48 660.462 1302.37 649.842 1321.15 653.006L1321.17 652.735C1302.2 649.322 1286.95 659.888 1275.71 670.639C1258.45 687.048 1245.33 706.745 1225.49 720.917C1205.19 735.371 1183.92 737.242 1157.86 727.423C1142.97 722.232 1128.06 715.996 1115.59 706.632C1104.86 698.555 1096.06 688.665 1085.3 680.561C1063.75 664.062 1038.09 652.738 1012.55 642.603C938.096 610.256 871.549 647.174 816.791 681.724C791.773 696.62 758.894 721.036 727.748 724.146C677.395 727.145 622.728 684.162 584.458 655.855C577.302 650.458 570.168 645.029 562.88 639.751C555.561 634.53 548.218 629.176 539.787 625.285C490.625 604.369 430.168 596.266 380.697 608.454C375.513 609.724 370.248 611.437 365.309 613.203C362.717 614.228 359.079 615.671 356.44 616.632C340.677 622.767 321.7 622.212 304.546 616.144C269.65 604.051 242.74 579.041 211.955 560.395C204.122 555.713 195.76 551.413 186.907 548.739C171.722 544.037 156.808 538.262 143.425 529.948C130.06 521.717 118.207 511.481 107.106 500.987C91.4689 486.028 76.2738 469.348 62.2411 453.3C50.8659 440.422 39.657 426.607 28.2451 413.735C16.4919 400.72 2.85125 388.918 -12.0311 378.625C-41.7711 357.999 -77.5016 344.575 -113.614 339.702C-127.138 337.863 -140.742 337.076 -154.132 337.594C-158.594 337.777 -163.035 338.063 -167.413 338.64L-167.334 338.917L-167.303 338.928L-167.3 338.919Z" fill="#FAECC8"/>
<path d="M-165.762 328.27C-115.327 323.7 -60.4684 337.229 -17.2502 365.613C-5.9987 372.939 4.59745 381.326 14.114 390.332C22.1821 397.751 29.5427 405.944 36.4404 414.116C53.0221 433.96 70.201 454.073 88.0381 473.117C109.117 495.161 132.063 517.92 161.873 530.786C172.348 535.519 183.402 538.703 194.191 542.434C200.509 544.909 206.459 548.07 212.272 551.464C257.894 578.837 309.08 629.944 364.493 604.642C415.609 584.135 487.065 592.321 540.806 615.666C548.975 619.487 556.257 624.85 563.499 630.093C570.721 635.397 577.81 640.859 584.931 646.292C613.451 667.953 642.469 689.973 676.219 704.753C703.286 716.473 729.512 720.616 755.311 709.596C794.262 693.218 825.881 667.405 862.985 648.652C905.15 626.44 954.801 611.711 1006.66 632.012C1017.07 636.032 1028.06 640.428 1038.2 645.059C1058.87 654.292 1078.88 665.362 1095.25 680.18C1101.88 686.076 1108.22 692.335 1115.5 697.706C1126.43 705.861 1139.24 711.669 1152.21 716.452C1154.38 717.221 1156.53 718.022 1158.71 718.757L1165.25 720.921C1188.73 728.67 1210.78 724.633 1228.29 711.56C1248.09 697.172 1261.08 677.222 1278.03 660.608C1289.02 649.813 1303.91 639.193 1322.69 642.357L1322.71 642.086C1303.74 638.673 1288.49 649.24 1277.25 659.99C1259.98 676.399 1246.87 696.096 1227.03 710.269C1206.73 724.722 1185.46 726.593 1159.4 716.774C1144.51 711.583 1129.6 705.347 1117.13 695.983C1106.4 687.906 1097.6 678.017 1086.84 669.912C1065.29 653.413 1039.63 642.089 1014.09 631.954C939.634 599.607 873.087 636.525 818.329 671.075C793.311 685.971 760.432 710.387 729.286 713.498C678.933 716.497 624.266 673.513 585.996 645.206C578.84 639.809 571.706 634.38 564.418 629.102C557.099 623.881 549.756 618.527 541.325 614.637C492.164 593.72 431.706 585.617 382.235 597.806C377.051 599.075 371.786 600.789 366.847 602.554C364.255 603.579 360.617 605.022 357.978 605.983C342.215 612.118 323.238 611.563 306.084 605.495C271.188 593.403 244.278 568.392 213.493 549.746C205.66 545.065 197.298 540.764 188.445 538.09C173.26 533.389 158.346 527.613 144.963 519.299C131.598 511.068 119.745 500.832 108.644 490.339C93.007 475.379 77.8119 458.699 63.7792 442.652C52.404 429.773 41.1951 415.958 29.7832 403.087C18.03 390.071 4.38934 378.269 -10.4931 367.976C-40.233 347.35 -75.9635 333.926 -112.076 329.053C-125.6 327.214 -139.204 326.427 -152.594 326.945C-157.056 327.128 -161.497 327.414 -165.875 327.991L-165.796 328.268L-165.765 328.279L-165.762 328.27Z" fill="#FAECC8"/>
<path d="M-164.224 317.63C-113.789 313.06 -58.9303 326.589 -15.7121 354.973C-4.46062 362.299 6.13553 370.686 15.6521 379.692C23.7202 387.111 31.0808 395.304 37.9785 403.476C54.5602 423.32 71.7391 443.433 89.5762 462.477C110.655 484.521 133.602 507.28 163.411 520.146C173.886 524.879 184.94 528.063 195.729 531.794C202.047 534.269 207.997 537.43 213.81 540.824C259.432 568.197 310.618 619.304 366.031 594.002C417.147 573.495 488.603 581.681 542.344 605.026C550.513 608.847 557.795 614.21 565.037 619.453C572.259 624.757 579.348 630.219 586.466 635.661C614.987 657.321 644.004 679.342 677.754 694.122C704.821 705.842 731.047 709.985 756.846 698.965C795.797 682.587 827.416 656.774 864.52 638.02C906.685 615.808 956.336 601.079 1008.19 621.381C1018.61 625.401 1029.6 629.797 1039.74 634.427C1060.4 643.661 1080.42 654.731 1096.78 669.549C1103.41 675.445 1109.75 681.703 1117.03 687.075C1127.97 695.23 1140.78 701.037 1153.74 705.82C1155.91 706.59 1158.06 707.391 1160.24 708.126L1166.78 710.29C1190.27 718.039 1212.32 714.002 1229.82 700.929C1249.63 686.541 1262.62 666.591 1279.56 649.977C1290.56 639.181 1305.45 628.561 1324.22 631.726L1324.24 631.454C1305.28 628.042 1290.03 638.608 1278.78 649.358C1261.52 665.768 1248.41 685.465 1228.56 699.637C1208.26 714.091 1186.99 715.962 1160.94 706.143C1146.04 700.952 1131.13 694.716 1118.67 685.352C1107.93 677.275 1099.14 667.385 1088.38 659.281C1066.83 642.782 1041.16 631.458 1015.63 621.323C941.169 588.976 874.622 625.894 819.865 660.444C794.846 675.34 761.967 699.755 730.821 702.866C680.466 705.874 625.801 662.882 587.531 634.575C580.375 629.177 573.241 623.749 565.953 618.471C558.634 613.25 551.292 607.896 542.86 604.005C493.699 583.089 433.241 574.986 383.77 587.174C378.586 588.443 373.321 590.157 368.382 591.923C365.79 592.948 362.152 594.391 359.513 595.352C343.75 601.487 324.773 600.932 307.619 594.864C272.724 582.771 245.813 557.761 215.028 539.114C207.195 534.433 198.833 530.132 189.98 527.458C174.795 522.757 159.881 516.981 146.498 508.667C133.133 500.437 121.28 490.201 110.179 479.707C94.5421 464.748 79.3471 448.068 65.3144 432.02C53.9391 419.142 42.7303 405.327 31.3184 392.455C19.5652 379.44 5.9245 367.638 -8.95789 357.345C-38.6978 336.719 -74.4284 323.295 -110.541 318.422C-124.065 316.583 -137.669 315.796 -151.058 316.314C-155.521 316.496 -159.962 316.783 -164.339 317.36L-164.261 317.637L-164.23 317.648L-164.224 317.63Z" fill="#FAECC8"/>
<path d="M-162.688 306.981C-112.253 302.411 -57.3942 315.94 -14.1759 344.324C-2.92448 351.65 7.67167 360.037 17.1882 369.043C25.2563 376.462 32.6169 384.655 39.5146 392.826C56.0963 412.671 73.2752 432.784 91.1123 451.828C112.191 473.872 135.138 496.631 164.948 509.496C175.422 514.229 186.476 517.414 197.265 521.145C203.583 523.62 209.533 526.781 215.347 530.175C260.969 557.548 312.154 608.655 367.567 583.353C418.683 562.846 490.139 571.031 543.88 594.377C552.049 598.198 559.331 603.561 566.574 608.804C573.796 614.108 580.884 619.57 588.002 625.012C616.523 646.672 645.541 668.693 679.29 683.473C706.357 695.192 732.583 699.336 758.382 688.316C797.333 671.938 828.952 646.125 866.056 627.371C908.221 605.159 957.872 590.43 1009.73 610.732C1020.14 614.752 1031.13 619.147 1041.28 623.778C1061.94 633.012 1081.96 644.082 1098.32 658.9C1104.95 664.796 1111.29 671.054 1118.57 676.426C1129.51 684.581 1142.31 690.388 1155.28 695.171C1157.45 695.941 1159.6 696.742 1161.78 697.477L1168.32 699.641C1191.81 707.39 1213.85 703.353 1231.36 690.28C1251.16 675.892 1264.15 655.942 1281.1 639.328C1292.09 628.532 1306.98 617.912 1325.76 621.077L1325.78 620.805C1306.81 617.393 1291.56 627.959 1280.32 638.709C1263.06 655.119 1249.94 674.816 1230.1 688.988C1209.8 703.442 1188.53 705.312 1162.47 695.494C1147.58 690.303 1132.67 684.067 1120.2 674.703C1109.47 666.626 1100.67 656.736 1089.91 648.631C1068.36 632.133 1042.7 620.809 1017.16 610.674C942.706 578.327 876.159 615.244 821.401 649.795C796.382 664.691 763.5 689.115 732.357 692.217C682.002 695.225 627.337 652.233 589.067 623.926C581.911 618.528 574.777 613.1 567.489 607.822C560.17 602.601 552.828 597.247 544.396 593.356C495.235 572.44 434.777 564.337 385.306 576.525C380.122 577.794 374.857 579.508 369.918 581.274C367.326 582.299 363.688 583.742 361.049 584.703C345.286 590.838 326.309 590.283 309.155 584.215C274.26 572.122 247.349 547.112 216.564 528.465C208.731 523.784 200.369 519.483 191.516 516.809C176.332 512.108 161.417 506.332 148.035 498.018C134.67 489.787 122.817 479.552 111.715 469.058C96.0783 454.098 80.8832 437.419 66.8505 421.371C55.4753 408.493 44.2664 394.678 32.8545 381.806C21.1013 368.791 7.46064 356.989 -7.42175 346.696C-37.1617 326.07 -72.8922 312.645 -109.005 307.773C-122.529 305.934 -136.132 305.147 -149.522 305.665C-153.985 305.847 -158.425 306.134 -162.803 306.711L-162.725 306.988L-162.694 306.998L-162.688 306.981Z" fill="#FAECC8"/>
<path d="M-161.153 296.332C-110.718 291.761 -55.8591 305.29 -12.6408 333.675C-1.38932 341.001 9.20682 349.388 18.7234 358.393C26.7915 365.813 34.152 374.005 41.0498 382.177C57.6315 402.022 74.8104 422.135 92.6474 441.179C113.726 463.222 136.673 485.982 166.483 498.847C176.957 503.58 188.011 506.764 198.8 510.495C205.118 512.971 211.068 516.131 216.882 519.525C262.504 546.899 313.689 598.006 369.102 572.704C420.218 552.196 491.674 560.382 545.415 583.728C553.584 587.549 560.866 592.912 568.109 598.155C575.331 603.459 582.419 608.92 589.537 614.363C618.058 636.023 647.076 658.043 680.825 672.824C707.892 684.543 734.119 688.687 759.918 677.666C798.868 661.289 830.487 635.475 867.591 616.722C909.757 594.51 959.407 579.781 1011.26 600.082C1021.68 604.102 1032.67 608.498 1042.81 613.129C1063.47 622.363 1083.49 633.432 1099.85 648.251C1106.48 654.146 1112.82 660.405 1120.1 665.776C1131.04 673.931 1143.85 679.739 1156.81 684.522C1158.98 685.291 1161.13 686.092 1163.32 686.828L1169.85 688.991C1193.34 696.74 1215.39 692.703 1232.89 679.631C1252.7 665.242 1265.69 645.292 1282.63 628.678C1293.63 617.883 1308.52 607.263 1327.29 610.428L1327.31 610.156C1308.35 606.744 1293.1 617.31 1281.85 628.06C1264.59 644.47 1251.48 664.167 1231.63 678.339C1211.34 692.793 1190.06 694.663 1164.01 684.844C1149.11 679.654 1134.21 673.418 1121.74 664.053C1111 655.977 1102.21 646.087 1091.45 637.982C1069.9 621.484 1044.24 610.16 1018.7 600.025C944.241 567.677 877.694 604.595 822.936 639.145C797.917 654.041 765.025 678.462 733.892 681.568C683.537 684.575 628.873 641.583 590.603 613.276C583.446 607.879 576.312 602.45 569.024 597.172C561.705 591.951 554.363 586.597 545.931 582.707C496.77 561.79 436.312 553.688 386.841 565.876C381.657 567.145 376.392 568.859 371.453 570.625C368.862 571.649 365.223 573.092 362.585 574.053C346.821 580.188 327.844 579.633 310.69 573.566C275.795 561.473 248.884 536.463 218.099 517.816C210.267 513.135 201.904 508.834 193.051 506.16C177.867 501.459 162.953 495.683 149.57 487.369C136.205 479.138 124.352 468.902 113.25 458.409C97.6134 443.449 82.4184 426.769 68.3857 410.722C57.0104 397.843 45.8016 384.028 34.3896 371.157C22.6365 358.141 8.99579 346.34 -5.88659 336.046C-35.6265 315.42 -71.3571 301.996 -107.47 297.123C-120.994 295.284 -134.597 294.497 -147.987 295.015C-152.45 295.198 -156.89 295.484 -161.268 296.062L-161.19 296.339L-161.159 296.349L-161.153 296.332Z" fill="#FAECC8"/>
<path d="M-159.618 285.683C-109.183 281.113 -54.3239 294.642 -11.1056 323.026C0.14583 330.352 10.742 338.739 20.2585 347.745C28.3266 355.164 35.6872 363.357 42.585 371.528C59.1667 391.373 76.3455 411.486 94.1826 430.53C115.261 452.574 138.208 475.333 168.018 488.199C178.492 492.931 189.546 496.116 200.335 499.847C206.653 502.322 212.603 505.483 218.417 508.877C264.039 536.25 315.224 587.357 370.638 562.055C421.753 541.548 493.209 549.733 546.951 573.079C555.119 576.9 562.401 582.263 569.644 587.506C576.866 592.81 583.955 598.272 591.076 603.705C619.596 625.366 648.614 647.386 682.363 662.166C709.43 673.886 735.657 678.029 761.456 667.009C800.406 650.631 832.026 624.818 869.129 606.065C911.295 583.853 960.945 569.124 1012.8 589.425C1023.22 593.445 1034.21 597.841 1044.35 602.471C1065.01 611.705 1085.03 622.775 1101.39 637.593C1108.02 643.489 1114.36 649.748 1121.64 655.119C1132.58 663.274 1145.38 669.082 1158.35 673.864C1160.52 674.634 1162.67 675.435 1164.85 676.17L1171.39 678.334C1194.88 686.083 1216.93 682.046 1234.43 668.973C1254.24 654.585 1267.23 634.635 1284.17 618.021C1295.17 607.226 1310.06 596.606 1328.83 599.77L1328.85 599.499C1309.89 596.086 1294.64 606.652 1283.39 617.403C1266.13 633.812 1253.02 653.509 1233.17 667.681C1212.87 682.135 1191.6 684.006 1165.54 674.187C1150.65 668.996 1135.74 662.76 1123.28 653.396C1112.54 645.319 1103.75 635.43 1092.99 627.325C1071.44 610.826 1045.77 599.502 1020.24 589.367C945.779 557.02 879.232 593.938 824.474 628.488C799.455 643.384 766.576 667.8 735.43 670.91C685.078 673.909 630.411 630.926 592.141 602.619C584.985 597.222 577.85 591.793 570.562 586.515C563.244 581.294 555.901 575.94 547.469 572.049C498.308 551.133 437.85 543.03 388.379 555.219C383.195 556.488 377.93 558.201 372.991 559.967C370.4 560.992 366.762 562.435 364.123 563.396C348.359 569.531 329.382 568.976 312.228 562.908C277.333 550.815 250.423 525.805 219.638 507.159C211.805 502.477 203.442 498.177 194.589 495.503C179.405 490.801 164.491 485.026 151.108 476.712C137.743 468.481 125.89 458.245 114.788 447.752C99.1515 432.792 83.9564 416.112 69.9237 400.064C58.5485 387.186 47.3397 373.371 35.9277 360.499C24.1745 347.484 10.5339 335.682 -4.34852 325.389C-34.0884 304.763 -69.819 291.339 -105.932 286.466C-119.456 284.627 -133.059 283.84 -146.449 284.358C-150.912 284.541 -155.352 284.827 -159.73 285.404L-159.651 285.681L-159.621 285.692L-159.618 285.683Z" fill="#FAECC8"/>
<path d="M-158.08 275.034C-107.645 270.464 -52.7858 283.993 -9.56754 312.377C1.68392 319.703 12.2801 328.09 21.7966 337.096C29.8647 344.515 37.2253 352.708 44.123 360.88C60.7047 380.724 77.8836 400.837 95.7207 419.881C116.8 441.925 139.746 464.684 169.556 477.55C180.031 482.283 191.084 485.467 201.873 489.198C208.191 491.673 214.141 494.834 219.955 498.228C265.577 525.601 316.762 576.709 372.176 551.406C423.291 530.899 494.747 539.085 548.489 562.43C556.657 566.251 563.94 571.614 571.182 576.858C578.404 582.161 585.493 587.623 592.614 593.056C621.134 614.717 650.152 636.737 683.901 651.517C710.968 663.237 737.195 667.38 762.994 656.36C801.945 639.983 833.564 614.169 870.667 595.416C912.833 573.204 962.483 558.475 1014.34 578.776C1024.76 582.796 1035.74 587.192 1045.89 591.823C1066.55 601.056 1086.57 612.126 1102.93 626.945C1109.56 632.84 1115.9 639.099 1123.18 644.47C1134.12 652.625 1146.92 658.433 1159.89 663.216C1162.06 663.985 1164.21 664.786 1166.39 665.521L1172.93 667.685C1196.42 675.434 1218.47 671.397 1235.97 658.325C1255.77 643.936 1268.76 623.986 1285.71 607.372C1296.7 596.577 1311.59 585.957 1330.37 589.122L1330.39 588.85C1311.42 585.438 1296.17 596.004 1284.93 606.754C1267.67 623.163 1254.55 642.861 1234.71 657.033C1214.41 671.486 1193.14 673.357 1167.08 663.538C1152.19 658.348 1137.28 652.111 1124.81 642.747C1114.08 634.67 1105.28 624.781 1094.52 616.676C1072.98 600.178 1047.31 588.853 1021.77 578.719C947.317 546.371 880.77 583.289 826.012 617.839C800.993 632.735 768.114 657.151 736.968 660.262C686.616 663.261 631.949 620.277 593.679 591.97C586.523 586.573 579.388 581.144 572.1 575.866C564.782 570.645 557.439 565.291 549.007 561.401C499.846 540.484 439.388 532.381 389.917 544.57C384.733 545.839 379.468 547.553 374.529 549.319C371.938 550.343 368.3 551.786 365.661 552.747C349.897 558.882 330.921 558.327 313.767 552.259C278.871 540.167 251.961 515.156 221.176 496.51C213.343 491.829 204.98 487.528 196.127 484.854C180.943 480.153 166.029 474.377 152.646 466.063C139.281 457.832 127.428 447.596 116.327 437.103C100.69 422.143 85.4945 405.463 71.4618 389.416C60.0866 376.537 48.8778 362.722 37.4658 349.851C25.7126 336.835 12.072 325.034 -2.81044 314.74C-32.5504 294.114 -68.2809 280.69 -104.394 275.817C-117.918 273.978 -131.521 273.191 -144.911 273.709C-149.374 273.892 -153.814 274.178 -158.192 274.756L-158.113 275.033L-158.083 275.043L-158.08 275.034Z" fill="#FAECC8"/>
<path d="M-156.542 264.394C-106.107 259.823 -51.2477 273.352 -8.02945 301.737C3.222 309.063 13.8182 317.449 23.3347 326.455C31.4028 333.875 38.7634 342.067 45.6611 350.239C62.2428 370.084 79.4217 390.197 97.2588 409.241C118.338 431.284 141.284 454.044 171.094 466.909C181.569 471.642 192.622 474.826 203.411 478.557C209.73 481.033 215.679 484.193 221.493 487.587C267.115 514.96 318.301 566.068 373.714 540.765C424.829 520.258 496.286 528.444 550.027 551.789C558.195 555.611 565.478 560.973 572.72 566.217C579.942 571.521 587.031 576.982 594.152 582.416C622.672 604.076 651.69 626.097 685.439 640.877C712.506 652.596 738.733 656.74 764.532 645.72C803.483 629.342 835.102 603.529 872.205 584.775C914.371 562.563 964.021 547.834 1015.88 568.136C1026.29 572.155 1037.28 576.551 1047.43 581.182C1068.09 590.416 1088.1 601.486 1104.47 616.304C1111.1 622.199 1117.44 628.458 1124.72 633.83C1135.65 641.985 1148.46 647.792 1161.43 652.575C1163.6 653.345 1165.75 654.146 1167.93 654.881L1174.47 657.045C1197.96 664.793 1220 660.756 1237.51 647.684C1257.31 633.295 1270.3 613.346 1287.25 596.731C1298.24 585.936 1313.13 575.316 1331.91 578.481L1331.93 578.209C1312.96 574.797 1297.71 585.363 1286.47 596.113C1269.2 612.523 1256.09 632.22 1236.25 646.392C1215.95 660.846 1194.68 662.716 1168.62 652.898C1153.73 647.707 1138.82 641.471 1126.35 632.107C1115.62 624.03 1106.82 614.14 1096.06 606.035C1074.51 589.537 1048.85 578.213 1023.31 568.078C948.855 535.73 882.308 572.648 827.55 607.199C802.532 622.094 769.652 646.51 738.506 649.621C688.154 652.62 633.487 609.637 595.217 581.329C588.061 575.932 580.927 570.504 573.638 565.226C566.32 560.005 558.977 554.651 550.545 550.76C501.384 529.844 440.926 521.741 391.456 533.929C386.271 535.198 381.006 536.912 376.068 538.678C373.476 539.703 369.838 541.146 367.199 542.106C351.435 548.241 332.459 547.687 315.305 541.619C280.409 529.526 253.499 504.516 222.714 485.869C214.881 481.188 206.519 476.887 197.666 474.213C182.481 469.512 167.567 463.736 154.184 455.422C140.819 447.191 128.966 436.955 117.865 426.462C102.228 411.502 87.0326 394.822 72.9999 378.775C61.6247 365.896 50.4158 352.082 39.0039 339.21C27.2507 326.194 13.61 314.393 -1.27235 304.1C-31.0123 283.474 -66.7428 270.049 -102.856 265.177C-116.38 263.337 -129.983 262.55 -143.373 263.069C-147.836 263.251 -152.276 263.538 -156.654 264.115L-156.575 264.392L-156.544 264.402L-156.542 264.394Z" fill="#FAECC8"/>
<path d="M-155.003 253.745C-104.569 249.174 -49.7096 262.703 -6.49137 291.088C4.76009 298.414 15.3562 306.801 24.8728 315.806C32.9409 323.226 40.3015 331.419 47.1992 339.59C63.7809 359.435 80.9598 379.548 98.7969 398.592C119.876 420.635 142.822 443.395 172.632 456.26C183.107 460.993 194.16 464.177 204.949 467.908C211.268 470.384 217.217 473.544 223.031 476.938C268.653 504.312 319.839 555.419 375.252 530.117C426.368 509.61 497.824 517.795 551.565 541.141C559.733 544.962 567.016 550.325 574.258 555.568C581.48 560.872 588.569 566.333 595.687 571.776C624.207 593.436 653.225 615.457 686.975 630.237C714.042 641.956 740.268 646.1 766.067 635.079C805.018 618.702 836.637 592.888 873.74 574.135C915.906 551.923 965.556 537.194 1017.41 557.496C1027.83 561.515 1038.82 565.911 1048.96 570.542C1069.62 579.776 1089.64 590.846 1106 605.664C1112.63 611.559 1118.97 617.818 1126.25 623.19C1137.19 631.344 1150 637.152 1162.96 641.935C1165.13 642.705 1167.28 643.505 1169.47 644.241L1176 646.404C1199.49 654.153 1221.54 650.116 1239.04 637.044C1258.85 622.655 1271.84 602.705 1288.78 586.091C1299.78 575.296 1314.67 564.676 1333.44 567.841L1333.46 567.569C1314.5 564.157 1299.25 574.723 1288 585.473C1270.74 601.883 1257.63 621.58 1237.78 635.752C1217.49 650.206 1196.21 652.076 1170.16 642.258C1155.26 637.067 1140.35 630.831 1127.89 621.467C1117.15 613.39 1108.36 603.5 1097.6 595.395C1076.05 578.897 1050.38 567.573 1024.85 557.438C950.39 525.09 883.843 562.008 829.085 596.559C804.067 611.454 771.185 635.879 740.042 638.981C689.686 641.988 635.022 598.996 596.752 570.689C589.596 565.292 582.462 559.863 575.174 554.585C567.855 549.365 560.512 544.01 552.081 540.12C502.919 519.204 442.462 511.101 392.991 523.289C387.807 524.558 382.542 526.272 377.603 528.038C375.011 529.063 371.373 530.506 368.734 531.466C352.971 537.601 333.994 537.047 316.84 530.979C281.944 518.886 255.034 493.876 224.249 475.229C216.416 470.548 208.054 466.247 199.201 463.573C184.016 458.872 169.102 453.096 155.719 444.782C142.354 436.551 130.501 426.315 119.4 415.822C103.763 400.862 88.5678 384.182 74.5351 368.135C63.1598 355.256 51.951 341.441 40.5391 328.57C28.7859 315.554 15.1452 303.753 0.262816 293.46C-29.4771 272.834 -65.2077 259.409 -101.321 254.536C-114.845 252.697 -128.448 251.91 -141.838 252.429C-146.3 252.611 -150.741 252.898 -155.119 253.475L-155.04 253.752L-155.009 253.762L-155.003 253.745Z" fill="#FAECC8"/>
<path d="M-153.467 243.096C-103.033 238.526 -48.1735 252.055 -4.95523 280.439C6.29622 287.765 16.8924 296.152 26.4089 305.158C34.477 312.577 41.8376 320.77 48.7353 328.942C65.317 348.786 82.4959 368.899 100.333 387.943C121.412 409.987 144.358 432.746 174.168 445.612C184.643 450.345 195.696 453.529 206.486 457.26C212.804 459.735 218.754 462.896 224.567 466.29C270.189 493.663 321.375 544.77 376.788 519.468C427.904 498.961 499.36 507.147 553.101 530.492C561.269 534.313 568.552 539.676 575.794 544.919C583.016 550.223 590.105 555.685 597.223 561.127C625.743 582.787 654.761 604.808 688.511 619.588C715.578 631.308 741.804 635.451 767.603 624.431C806.554 608.053 838.173 582.24 875.277 563.486C917.442 541.274 967.093 526.545 1018.95 546.847C1029.36 550.867 1040.35 555.263 1050.5 559.893C1071.16 569.127 1091.18 580.197 1107.54 595.015C1114.17 600.911 1120.51 607.169 1127.79 612.541C1138.73 620.696 1151.53 626.503 1164.5 631.286C1166.67 632.056 1168.82 632.857 1171 633.592L1177.54 635.756C1201.03 643.505 1223.07 639.468 1240.58 626.395C1260.38 612.007 1273.37 592.057 1290.32 575.443C1301.31 564.647 1316.2 554.028 1334.98 557.192L1335 556.92C1316.03 553.508 1300.78 564.074 1289.54 574.824C1272.28 591.234 1259.16 610.931 1239.32 625.103C1219.02 639.557 1197.75 641.428 1171.69 631.609C1156.8 626.418 1141.89 620.182 1129.42 610.818C1118.69 602.741 1109.89 592.851 1099.13 584.747C1077.59 568.248 1051.92 556.924 1026.38 546.789C951.926 514.442 885.379 551.36 830.621 585.91C805.603 600.806 772.721 625.23 741.578 628.332C691.222 631.34 636.558 588.348 598.288 560.041C591.132 554.643 583.998 549.215 576.71 543.937C569.391 538.716 562.048 533.362 553.617 529.471C504.456 508.555 443.998 500.452 394.527 512.64C389.343 513.909 384.078 515.623 379.139 517.389C376.547 518.414 372.909 519.857 370.27 520.818C354.507 526.953 335.53 526.398 318.376 520.33C283.481 508.237 256.57 483.227 225.785 464.58C217.952 459.899 209.59 455.598 200.737 452.924C185.552 448.223 170.638 442.447 157.255 434.133C143.89 425.903 132.037 415.667 120.936 405.173C105.299 390.214 90.1039 373.534 76.0712 357.486C64.696 344.608 53.4871 330.793 42.0752 317.921C30.322 304.906 16.6813 293.104 1.79895 282.811C-27.941 262.185 -63.6715 248.761 -99.7844 243.888C-113.308 242.049 -126.912 241.262 -140.302 241.78C-144.764 241.963 -149.205 242.249 -153.583 242.826L-153.504 243.103L-153.473 243.114L-153.467 243.096Z" fill="#FAECC8"/>
<path d="M-151.932 232.447C-101.497 227.876 -46.6383 241.406 -3.42008 269.79C7.83138 277.116 18.4275 285.503 27.9441 294.509C36.0122 301.928 43.3727 310.121 50.2705 318.292C66.8522 338.137 84.0311 358.25 101.868 377.294C122.947 399.338 145.893 422.097 175.703 434.962C186.178 439.695 197.232 442.88 208.021 446.611C214.339 449.086 220.289 452.246 226.102 455.64C271.724 483.014 322.91 534.121 378.323 508.819C429.439 488.312 500.895 496.497 554.636 519.843C562.805 523.664 570.087 529.027 577.329 534.27C584.551 539.574 591.64 545.035 598.758 550.478C627.279 572.138 656.296 594.159 690.046 608.939C717.113 620.658 743.339 624.802 769.138 613.782C808.089 597.404 839.708 571.591 876.812 552.837C918.977 530.625 968.628 515.896 1020.48 536.198C1030.9 540.218 1041.89 544.613 1052.03 549.244C1072.69 558.478 1092.71 569.548 1109.07 584.366C1115.71 590.261 1122.04 596.52 1129.32 601.892C1140.26 610.047 1153.07 615.854 1166.04 620.637C1168.21 621.407 1170.35 622.208 1172.54 622.943L1179.07 625.107C1202.56 632.855 1224.61 628.818 1242.11 615.746C1261.92 601.357 1274.91 581.408 1291.85 564.793C1302.85 553.998 1317.74 543.378 1336.51 546.543L1336.54 546.271C1317.57 542.859 1302.32 553.425 1291.08 564.175C1273.81 580.585 1260.7 600.282 1240.85 614.454C1220.56 628.908 1199.28 630.778 1173.23 620.96C1158.33 615.769 1143.43 609.533 1130.96 600.169C1120.22 592.092 1111.43 582.202 1100.67 574.097C1079.12 557.599 1053.46 546.275 1027.92 536.14C953.461 503.792 886.914 540.71 832.157 575.261C807.138 590.156 774.256 614.581 743.113 617.683C692.758 620.691 638.093 577.699 599.823 549.392C592.667 543.994 585.533 538.566 578.245 533.288C570.926 528.067 563.584 522.713 555.152 518.822C505.991 497.906 445.533 489.803 396.062 501.991C390.878 503.26 385.613 504.974 380.674 506.74C378.082 507.765 374.444 509.208 371.805 510.168C356.042 516.303 337.065 515.749 319.911 509.681C285.016 497.588 258.105 472.578 227.32 453.931C219.487 449.25 211.125 444.949 202.272 442.275C187.087 437.574 172.173 431.798 158.79 423.484C145.425 415.253 133.572 405.017 122.471 394.524C106.834 379.564 91.6391 362.884 77.6064 346.837C66.2311 333.958 55.0223 320.144 43.6103 307.272C31.8572 294.256 18.2165 282.455 3.33411 272.162C-26.4058 251.536 -62.1364 238.111 -98.2492 233.239C-111.773 231.399 -125.377 230.612 -138.766 231.131C-143.229 231.313 -147.67 231.6 -152.047 232.177L-151.969 232.454L-151.938 232.464L-151.932 232.447Z" fill="#FAECC8"/>
<path d="M-150.397 221.807C-99.9622 217.236 -45.1032 230.765 -1.88491 259.15C9.36655 266.476 19.9627 274.862 29.4792 283.868C37.5473 291.288 44.9079 299.48 51.8057 307.652C68.3874 327.496 85.5662 347.61 103.403 366.654C124.482 388.697 147.429 411.457 177.239 424.322C187.713 429.055 198.767 432.239 209.556 435.97C215.874 438.446 221.824 441.606 227.638 445C273.26 472.373 324.445 523.481 379.858 498.178C430.974 477.671 502.43 485.857 556.171 509.202C564.34 513.024 571.622 518.386 578.865 523.63C586.087 528.934 593.175 534.395 600.296 539.829C628.817 561.489 657.835 583.51 691.584 598.29C718.651 610.009 744.877 614.153 770.676 603.133C809.627 586.755 841.246 560.942 878.35 542.188C920.515 519.976 970.166 505.247 1022.02 525.549C1032.44 529.568 1043.43 533.964 1053.57 538.595C1074.23 547.829 1094.25 558.899 1110.61 573.717C1117.24 579.612 1123.58 585.871 1130.86 591.243C1141.8 599.398 1154.61 605.205 1167.57 609.988C1169.74 610.758 1171.89 611.559 1174.07 612.294L1180.61 614.458C1204.1 622.206 1226.15 618.169 1243.65 605.097C1263.46 590.708 1276.45 570.758 1293.39 554.144C1304.39 543.349 1319.28 532.729 1338.05 535.894L1338.07 535.622C1319.11 532.21 1303.86 542.776 1292.61 553.526C1275.35 569.936 1262.24 589.633 1242.39 603.805C1222.09 618.259 1200.82 620.129 1174.77 610.311C1159.87 605.12 1144.96 598.884 1132.5 589.52C1121.76 581.443 1112.97 571.553 1102.21 563.448C1080.66 546.95 1054.99 535.626 1029.46 525.491C955 493.143 888.452 530.061 833.695 564.612C808.676 579.507 775.797 603.923 744.651 607.034C694.299 610.033 639.631 567.05 601.361 538.742C594.205 533.345 587.071 527.917 579.783 522.639C572.464 517.418 565.122 512.063 556.69 508.173C507.529 487.257 447.071 479.154 397.6 491.342C392.416 492.611 387.151 494.325 382.212 496.091C379.62 497.116 375.982 498.559 373.343 499.519C357.58 505.654 338.603 505.1 321.449 499.032C286.554 486.939 259.643 461.929 228.858 443.282C221.025 438.601 212.663 434.3 203.81 431.626C188.626 426.925 173.711 421.149 160.328 412.835C146.963 404.604 135.111 394.368 124.009 383.875C108.372 368.915 93.1772 352.235 79.1444 336.188C67.7692 323.309 56.5604 309.495 45.1484 296.623C33.3952 283.607 19.7546 271.806 4.87219 261.513C-24.8677 240.887 -60.5983 227.462 -96.7112 222.59C-110.235 220.75 -123.839 219.963 -137.228 220.482C-141.691 220.664 -146.131 220.951 -150.509 221.528L-150.431 221.805L-150.4 221.815L-150.397 221.807Z" fill="#FAECC8"/>
<path d="M-148.859 211.158C-98.4241 206.587 -43.5651 220.116 -0.346835 248.501C10.9046 255.827 21.5008 264.214 31.0173 273.219C39.0854 280.639 46.446 288.831 53.3438 297.003C69.9254 316.848 87.1043 336.961 104.941 356.005C126.02 378.048 148.967 400.808 178.777 413.673C189.251 418.406 200.305 421.59 211.094 425.321C217.412 427.797 223.362 430.957 229.176 434.351C274.798 461.725 325.983 512.832 381.396 487.53C432.512 467.022 503.968 475.208 557.709 498.554C565.878 502.375 573.16 507.738 580.403 512.981C587.625 518.285 594.713 523.746 601.834 529.18C630.355 550.84 659.373 572.861 693.122 587.641C720.189 599.36 746.416 603.504 772.214 592.484C811.165 576.106 842.784 550.293 879.888 531.539C922.053 509.327 971.704 494.598 1023.56 514.9C1033.98 518.92 1044.97 523.315 1055.11 527.946C1075.77 537.18 1095.79 548.25 1112.15 563.068C1118.78 568.964 1125.12 575.222 1132.4 580.594C1143.34 588.749 1156.14 594.556 1169.11 599.339C1171.28 600.109 1173.43 600.91 1175.61 601.645L1182.15 603.809C1205.64 611.558 1227.69 607.521 1245.19 594.448C1264.99 580.06 1277.99 560.11 1294.93 543.496C1305.92 532.7 1320.81 522.08 1339.59 525.245L1339.61 524.973C1320.65 521.561 1305.4 532.127 1294.15 542.877C1276.89 559.287 1263.78 578.984 1243.93 593.156C1223.63 607.61 1202.36 609.48 1176.3 599.662C1161.41 594.471 1146.5 588.235 1134.03 578.871C1123.3 570.794 1114.5 560.904 1103.74 552.799C1082.2 536.301 1056.53 524.977 1030.99 514.842C956.538 482.495 889.991 519.412 835.233 553.963C810.214 568.859 777.335 593.274 746.189 596.385C695.837 599.384 641.169 556.401 602.899 528.094C595.743 522.696 588.609 517.268 581.321 511.99C574.002 506.769 566.66 501.415 558.228 497.524C509.067 476.608 448.609 468.505 399.138 480.693C393.954 481.962 388.689 483.676 383.75 485.442C381.158 486.467 377.52 487.91 374.881 488.871C359.118 495.006 340.141 494.451 322.987 488.383C288.092 476.29 261.181 451.28 230.396 432.633C222.563 427.952 214.201 423.651 205.348 420.977C190.164 416.276 175.249 410.5 161.867 402.186C148.502 393.955 136.649 383.72 125.547 373.226C109.91 358.266 94.7152 341.587 80.6825 325.539C69.3073 312.661 58.0985 298.846 46.6865 285.974C34.9333 272.959 21.2927 261.157 6.41027 250.864C-23.3297 230.238 -59.0602 216.813 -95.1731 211.941C-108.697 210.102 -122.3 209.315 -135.69 209.833C-140.153 210.015 -144.593 210.302 -148.971 210.879L-148.893 211.156L-148.862 211.166L-148.859 211.158Z" fill="#FAECC8"/>
<path d="M-147.321 200.509C-96.886 195.938 -42.027 209.468 1.19125 237.852C12.4427 245.178 23.0389 253.565 32.5554 262.571C40.6235 269.99 47.9841 278.183 54.8818 286.354C71.4635 306.199 88.6424 326.312 106.479 345.356C127.558 367.4 150.505 390.159 180.315 403.024C190.789 407.757 201.843 410.942 212.632 414.673C218.95 417.148 224.9 420.308 230.714 423.702C276.336 451.076 327.521 502.183 382.934 476.881C434.05 456.374 505.506 464.559 559.247 487.905C567.416 491.726 574.698 497.089 581.941 502.332C589.163 507.636 596.251 513.097 603.37 518.54C631.89 540.2 660.908 562.221 694.657 577.001C721.724 588.72 747.951 592.864 773.75 581.844C812.7 565.466 844.32 539.653 881.423 520.899C923.589 498.687 973.239 483.958 1025.09 504.26C1035.51 508.279 1046.5 512.675 1056.64 517.306C1077.3 526.54 1097.32 537.61 1113.68 552.428C1120.32 558.323 1126.66 564.582 1133.93 569.954C1144.87 578.109 1157.68 583.916 1170.65 588.699C1172.82 589.469 1174.97 590.27 1177.15 591.005L1183.69 593.169C1207.17 600.917 1229.22 596.88 1246.73 583.808C1266.53 569.419 1279.52 549.47 1296.46 532.855C1307.46 522.06 1322.35 511.44 1341.12 514.605L1341.15 514.333C1322.18 510.921 1306.93 521.487 1295.69 532.237C1278.42 548.647 1265.31 568.344 1245.46 582.516C1225.17 596.97 1203.9 598.84 1177.84 589.022C1162.95 583.831 1148.04 577.595 1135.57 568.231C1124.83 560.154 1116.04 550.264 1105.28 542.159C1083.73 525.661 1058.07 514.337 1032.53 504.202C958.073 471.854 891.526 508.772 836.768 543.323C811.749 558.218 778.87 582.634 747.724 585.745C697.372 588.744 642.705 545.761 604.435 517.453C597.278 512.056 590.144 506.628 582.856 501.35C575.538 496.129 568.195 490.774 559.763 486.884C510.602 465.968 450.144 457.865 400.673 470.053C395.489 471.322 390.224 473.036 385.285 474.802C382.694 475.827 379.055 477.27 376.417 478.23C360.653 484.365 341.676 483.811 324.522 477.743C289.627 465.65 262.716 440.64 231.931 421.993C224.099 417.312 215.736 413.011 206.883 410.337C191.699 405.636 176.785 399.86 163.402 391.546C150.037 383.315 138.184 373.079 127.082 362.586C111.445 347.626 96.2504 330.946 82.2177 314.899C70.8425 302.02 59.6336 288.206 48.2217 275.334C36.4685 262.318 22.8278 250.517 7.94544 240.224C-21.7945 219.598 -57.5251 206.173 -93.6379 201.301C-107.162 199.461 -120.765 198.674 -134.155 199.193C-138.618 199.375 -143.058 199.662 -147.436 200.239L-147.358 200.516L-147.327 200.526L-147.321 200.509Z" fill="#FAECC8"/>
<path d="M-145.785 189.86C-95.3499 185.289 -40.4909 198.818 2.72738 227.203C13.9788 234.529 24.575 242.915 34.0915 251.921C42.1596 259.341 49.5202 267.533 56.418 275.705C72.9997 295.549 90.1785 315.663 108.016 334.707C129.094 356.75 152.041 379.51 181.851 392.375C192.325 397.108 203.379 400.292 214.168 404.023C220.486 406.498 226.436 409.659 232.25 413.053C277.872 440.426 329.057 491.534 384.471 466.231C435.586 445.724 507.042 453.91 560.784 477.255C568.952 481.077 576.234 486.439 583.477 491.683C590.699 496.987 597.788 502.448 604.906 507.89C633.426 529.551 662.444 551.571 696.193 566.351C723.26 578.071 749.487 582.214 775.286 571.194C814.237 554.816 845.856 529.003 882.959 510.25C925.125 488.038 974.775 473.309 1026.63 493.61C1037.05 497.63 1048.04 502.026 1058.18 506.656C1078.84 515.89 1098.86 526.96 1115.22 541.778C1121.85 547.674 1128.19 553.933 1135.47 559.304C1146.41 567.459 1159.21 573.267 1172.18 578.05C1174.35 578.819 1176.5 579.62 1178.68 580.355L1185.22 582.519C1208.71 590.268 1230.76 586.231 1248.26 573.158C1268.07 558.77 1281.06 538.82 1298 522.206C1309 511.411 1323.89 500.791 1342.66 503.955L1342.68 503.684C1323.72 500.271 1308.47 510.837 1297.22 521.588C1279.96 537.997 1266.85 557.694 1247 571.866C1226.7 586.32 1205.43 588.191 1179.37 578.372C1164.48 573.181 1149.57 566.945 1137.11 557.581C1126.37 549.504 1117.58 539.615 1106.82 531.51C1085.27 515.011 1059.6 503.687 1034.07 493.552C959.609 461.205 893.062 498.123 838.304 532.673C813.285 547.569 780.403 571.993 749.26 575.096C698.905 578.103 644.241 535.111 605.971 506.804C598.815 501.407 591.68 495.978 584.392 490.7C577.074 485.479 569.731 480.125 561.299 476.235C512.138 455.318 451.68 447.215 402.209 459.404C397.025 460.673 391.76 462.387 386.821 464.152C384.23 465.177 380.592 466.62 377.953 467.581C362.189 473.716 343.213 473.161 326.059 467.093C291.163 455.001 264.253 429.99 233.468 411.344C225.635 406.663 217.272 402.362 208.419 399.688C193.235 394.987 178.321 389.211 164.938 380.897C151.573 372.666 139.72 362.43 128.619 351.937C112.982 336.977 97.7865 320.297 83.7538 304.25C72.3786 291.371 61.1698 277.556 49.7578 264.684C38.0046 251.669 24.364 239.867 9.48157 229.574C-20.2584 208.948 -55.9889 195.524 -92.1018 190.651C-105.626 188.812 -119.229 188.025 -132.619 188.543C-137.082 188.726 -141.522 189.012 -145.9 189.589L-145.821 189.866L-145.791 189.877L-145.785 189.86Z" fill="#FAECC8"/>
<path d="M-144.25 179.211C-93.8147 174.64 -38.9557 188.17 4.26254 216.554C15.514 223.88 26.1101 232.267 35.6267 241.273C43.6948 248.692 51.0554 256.885 57.9531 265.056C74.5348 284.901 91.7137 305.014 109.551 324.058C130.63 346.102 153.576 368.861 183.386 381.726C193.861 386.459 204.914 389.644 215.703 393.375C222.022 395.85 227.971 399.01 233.785 402.404C279.407 429.778 330.593 480.885 386.006 455.583C437.121 435.076 508.578 443.261 562.319 466.607C570.487 470.428 577.77 475.791 585.012 481.034C592.234 486.338 599.323 491.799 606.441 497.242C634.961 518.902 663.979 540.923 697.729 555.703C724.795 567.422 751.022 571.566 776.821 560.546C815.772 544.168 847.391 518.355 884.494 499.601C926.66 477.389 976.31 462.66 1028.17 482.962C1038.58 486.982 1049.57 491.377 1059.71 496.008C1080.37 505.242 1100.39 516.312 1116.75 531.13C1123.39 537.025 1129.73 543.284 1137.01 548.656C1147.94 556.811 1160.75 562.618 1173.72 567.401C1175.89 568.171 1178.04 568.972 1180.22 569.707L1186.76 571.871C1210.24 579.619 1232.29 575.582 1249.8 562.51C1269.6 548.121 1282.59 528.172 1299.54 511.557C1310.53 500.762 1325.42 490.142 1344.19 493.307L1344.22 493.035C1325.25 489.623 1310 500.189 1298.76 510.939C1281.49 527.349 1268.38 547.046 1248.54 561.218C1228.24 575.672 1206.97 577.542 1180.91 567.724C1166.02 562.533 1151.11 556.297 1138.64 546.933C1127.91 538.856 1119.11 528.966 1108.35 520.861C1086.8 504.363 1061.14 493.039 1035.6 482.904C961.144 450.556 894.597 487.474 839.839 522.025C814.821 536.92 781.939 561.345 750.795 564.447C700.44 567.455 645.776 524.463 607.506 496.155C600.35 490.758 593.216 485.33 585.928 480.052C578.609 474.831 571.266 469.476 562.835 465.586C513.673 444.67 453.215 436.567 403.745 448.755C398.561 450.024 393.295 451.738 388.357 453.504C385.765 454.529 382.127 455.972 379.488 456.932C363.725 463.067 344.748 462.513 327.594 456.445C292.698 444.352 265.788 419.342 235.003 400.695C227.17 396.014 218.808 391.713 209.955 389.039C194.77 384.338 179.856 378.562 166.473 370.248C153.108 362.017 141.255 351.781 130.154 341.288C114.517 326.328 99.3217 309.648 85.289 293.601C73.9138 280.722 62.7049 266.908 51.293 254.036C39.5398 241.02 25.8991 229.219 11.0167 218.926C-18.7232 198.3 -54.4538 184.875 -90.5666 180.003C-104.091 178.163 -117.694 177.376 -131.084 177.895C-135.546 178.077 -139.987 178.364 -144.365 178.941L-144.286 179.218L-144.255 179.228L-144.25 179.211Z" fill="#FAECC8"/>
<path d="M-142.714 168.57C-92.2796 164 -37.4206 177.529 5.7977 205.913C17.0492 213.24 27.6453 221.626 37.1619 230.632C45.2299 238.051 52.5905 246.244 59.4883 254.416C76.07 274.26 93.2488 294.374 111.086 313.417C132.165 335.461 155.111 358.221 184.921 371.086C195.396 375.819 206.449 379.003 217.239 382.734C223.557 385.209 229.506 388.37 235.32 391.764C280.942 419.137 332.128 470.245 387.541 444.942C438.657 424.435 510.113 432.621 563.854 455.966C572.022 459.787 579.305 465.15 586.547 470.394C593.769 475.698 600.858 481.159 607.976 486.601C636.496 508.262 665.514 530.282 699.264 545.062C726.331 556.782 752.557 560.925 778.356 549.905C817.307 533.527 848.926 507.714 886.03 488.961C928.195 466.748 977.846 452.019 1029.7 472.321C1040.12 476.341 1051.11 480.737 1061.25 485.367C1081.91 494.601 1101.93 505.671 1118.29 520.489C1124.92 526.385 1131.26 532.644 1138.54 538.015C1149.48 546.17 1162.29 551.978 1175.25 556.76C1177.42 557.53 1179.57 558.331 1181.75 559.066L1188.29 561.23C1211.78 568.979 1233.83 564.942 1251.33 551.869C1271.14 537.481 1284.13 517.531 1301.07 500.917C1312.07 490.122 1326.96 479.502 1345.73 482.666L1345.75 482.395C1326.79 478.982 1311.54 489.548 1300.29 500.298C1283.03 516.708 1269.92 536.405 1250.07 550.577C1229.77 565.031 1208.5 566.902 1182.45 557.083C1167.55 551.892 1152.64 545.656 1140.18 536.292C1129.44 528.215 1120.65 518.325 1109.89 510.221C1088.34 493.722 1062.67 482.398 1037.14 472.263C962.679 439.916 896.132 476.834 841.374 511.384C816.356 526.28 783.477 550.696 752.331 553.806C701.978 556.805 647.311 513.822 609.041 485.515C601.885 480.118 594.751 474.689 587.463 469.411C580.144 464.19 572.801 458.836 564.37 454.945C515.209 434.029 454.751 425.926 405.28 438.114C400.096 439.384 394.831 441.097 389.892 442.863C387.3 443.888 383.662 445.331 381.023 446.292C365.26 452.427 346.283 451.872 329.129 445.804C294.233 433.711 267.323 408.701 236.538 390.055C228.705 385.373 220.343 381.073 211.49 378.399C196.305 373.697 181.391 367.922 168.008 359.608C154.643 351.377 142.79 341.141 131.689 330.647C116.052 315.688 100.857 299.008 86.8241 282.96C75.4489 270.082 64.2401 256.267 52.8281 243.395C41.0749 230.38 27.4343 218.578 12.5519 208.285C-17.188 187.659 -52.9186 174.235 -89.0315 169.362C-102.555 167.523 -116.159 166.736 -129.549 167.254C-134.011 167.437 -138.452 167.723 -142.83 168.3L-142.751 168.577L-142.72 168.588L-142.714 168.57Z" fill="#FAECC8"/>
</g>
<defs>
<clipPath id="clip0_83_3489">
<rect width="1511.02" height="566.641" fill="white" transform="matrix(0.947669 0.319253 0.319253 -0.947669 -267 536.989)"/>
</clipPath>
</defs>
</svg>
