<svg width="731" height="165" viewBox="0 0 731 165" fill="none" xmlns="http://www.w3.org/2000/svg">
<mask id="mask0_1279_2207" style="mask-type:alpha" maskUnits="userSpaceOnUse" x="0" y="0" width="731" height="165">
<rect width="731" height="165" fill="#D9D9D9"/>
</mask>
<g mask="url(#mask0_1279_2207)">
<path fill-rule="evenodd" clip-rule="evenodd" d="M297.92 77.3376C297.047 77.3376 296.339 78.0449 296.339 78.9175C296.339 79.79 297.046 80.4973 297.92 80.4973C298.793 80.4973 299.501 79.79 299.501 78.9175C299.501 78.0449 298.793 77.3376 297.92 77.3376ZM295 78.9175C295 77.3062 296.307 76 297.92 76C299.532 76 300.839 77.3062 300.839 78.9175C300.839 80.5287 299.532 81.8349 297.92 81.8349C296.307 81.8349 295 80.5287 295 78.9175Z" fill="#B861B3"/>
<path fill-rule="evenodd" clip-rule="evenodd" d="M303 56.8341C301.804 56.8341 300.834 57.804 300.834 59.0003C300.834 60.1966 301.804 61.1663 303 61.1663C304.196 61.1663 305.166 60.1966 305.166 59.0003C305.166 57.804 304.196 56.8341 303 56.8341ZM299 59.0003C299 56.7911 300.791 55.0002 303 55.0002C305.209 55.0002 307 56.7911 307 59.0003C307 61.2094 305.209 63.0002 303 63.0002C300.791 63.0002 299 61.2094 299 59.0003Z" fill="#B861B3"/>
<g clip-path="url(#clip0_1279_2207)">
<path d="M474.365 60.9309C476.677 72.9087 460.657 79.8167 450.858 80.1502C431.541 81.2186 427.059 63.6919 444.517 55.3561C453.267 50.946 470.643 49.314 474.365 60.9309ZM472.813 61.3279C471.721 57.2322 467.773 54.611 463.81 53.4894C455.494 51.1284 445.7 53.6328 439.538 59.6964C432.144 66.9995 434.405 75.8705 444.406 78.733C452.723 81.0941 462.516 78.5896 468.678 72.5261C471.618 69.6469 473.821 65.4452 472.813 61.3279Z" fill="#B28505"/>
<path d="M471.066 61.9928C472.893 71.9595 459.489 77.2742 451.456 77.7272C435.278 78.9023 431.572 64.3196 446.279 57.5441C453.563 54.0428 467.907 52.3441 471.066 61.9928ZM469.514 62.3897C468.622 59.0772 465.369 56.9998 462.162 56.0985C455.344 54.1586 447.286 56.2192 442.236 61.194C436.162 67.1299 437.982 74.2493 446.149 76.5811C452.976 78.5563 461.069 76.4867 466.117 71.4748C468.494 69.1304 470.336 65.7202 469.514 62.3897Z" fill="#B28505"/>
<path d="M467.502 62.9038C469.122 72.0291 454.79 76.3632 447.728 75.087C442.759 74.3807 438.906 70.0737 441.405 65.0897C442.8 62.4026 445.331 60.6279 447.992 59.4213C453.819 56.751 464.9 55.1952 467.5 62.8968L467.502 62.9038ZM465.95 63.3008C465.324 60.9425 462.966 59.2153 460.369 58.4662C455.112 56.8712 448.79 58.4879 444.945 62.4105C440.38 66.9605 441.766 72.3794 447.942 74.2203C453.202 75.8595 459.581 74.2283 463.409 70.2652C465.327 68.3313 466.549 65.6734 465.952 63.3079L465.95 63.3008Z" fill="#B28505"/>
<path d="M440.933 88.4615C440.135 84.253 442.261 80.2213 445.224 77.4639C452.2 71.0568 464.739 68.5871 472.761 74.3836C474.398 75.6112 475.708 77.3511 476.388 79.3947L474.836 79.7917C474.521 78.0305 473.491 76.4145 472.123 75.1483C463.693 67.9073 446.555 72.2901 442.636 82.6886C442.043 84.4565 441.923 86.3666 442.485 88.0646L440.933 88.4615Z" fill="#B28505"/>
<path d="M443.846 87.7163C442.412 75.9351 462.12 69.8128 470.362 76.0268C471.747 77.0032 472.88 78.435 473.474 80.1399L471.921 80.5368C471.696 79.1284 470.859 77.8241 469.741 76.802C463.597 71.8256 453.404 73.8535 448.041 79.1338C445.927 81.2154 444.404 84.4313 445.398 87.3193L443.846 87.7163Z" fill="#B28505"/>
<path d="M446.887 86.9387C446.019 77.8395 461.388 73.3002 467.865 77.7255C468.969 78.4579 469.931 79.5426 470.433 80.9177L468.88 81.3146C468.742 80.275 468.128 79.282 467.265 78.5254C462.449 74.803 454.703 76.4079 450.498 80.3925C448.885 81.9327 447.619 84.3912 448.44 86.5418L446.887 86.9387Z" fill="#B28505"/>
<path d="M417.995 45.2096C417.874 53.0282 419.942 61.4375 429.172 61.8435C431.718 62.0418 434.325 61.6833 436.928 61.2507L436.982 61.4624C434.506 62.4189 431.863 63.0797 429.124 63.0962C422.999 63.3393 418.368 59.1938 417.476 53.2052C417.025 50.5316 417.113 47.7879 417.783 45.1736L418.002 45.2078L417.995 45.2096Z" fill="#B28505"/>
<path d="M418.437 44.9989C419.399 55.3147 426.523 62.0398 437.047 61.2431L437.065 61.4638C429.297 62.7438 421.771 60.1807 419.263 52.1394C418.489 49.819 418.127 47.401 418.218 44.9947L418.437 44.9989Z" fill="#B28505"/>
<path d="M418.879 44.7879C420.409 49.3582 423.466 53.3496 427.238 56.2792C430.063 58.774 433.533 60.2921 437.183 61.2458L437.147 61.4579L435.524 61.1964C429.311 60.2442 423.963 56.583 421.048 50.9763C419.974 49.0408 419.145 46.975 418.671 44.8261L418.883 44.772L418.879 44.7879Z" fill="#B28505"/>
<path d="M419.302 44.5596C424.777 50.6842 430.955 56.0879 437.322 61.2627L437.205 61.4506C431.519 58.8228 426.715 54.5563 422.715 49.7909C421.399 48.1729 420.152 46.4998 419.123 44.6807L419.302 44.5596Z" fill="#B28505"/>
<path d="M427.614 42.8775C434.897 44.8113 437.557 54.5651 437.517 61.2582L437.298 61.2841C437.014 60.4095 436.785 59.5434 436.554 58.6703C434.837 52.9529 432.873 46.4491 427.554 43.0809L427.613 42.8704L427.614 42.8775Z" fill="#B28505"/>
<path d="M427.593 42.8827C430.332 47.3317 432.782 51.9446 435.174 56.595C435.961 58.1452 436.744 59.7042 437.485 61.2812L437.293 61.3829C434.593 56.909 432.104 52.321 429.693 47.6831C428.911 46.124 428.131 44.572 427.401 42.9844L427.593 42.8827Z" fill="#B28505"/>
<path d="M475.986 30.2896C481.913 36.6521 483.533 46.9272 474.634 51.4582C472.224 52.7659 469.587 53.4478 466.955 53.7976L466.901 53.5859C469.394 52.7228 471.851 51.7787 473.99 50.3824C481.892 45.5954 479.66 37.2206 475.801 30.4196L475.977 30.2844L475.986 30.2896Z" fill="#B28505"/>
<path d="M475.52 30.3486C481.277 40.6033 478.05 49.8553 466.892 53.8438L466.81 53.6393C473.541 50.5349 477.692 44.7824 477.065 37.2451C476.866 34.9358 476.288 32.6178 475.337 30.4556L475.527 30.3468L475.52 30.3486Z" fill="#B28505"/>
<path d="M475.049 30.4166C477.373 38.858 475.227 47.4577 468.123 52.8675L466.825 53.876L466.692 53.7072C471.476 49.3714 474.335 43.2956 475.064 36.915C475.133 35.9802 475.214 34.6215 475.158 33.6962C475.131 32.6206 475.033 31.533 474.839 30.4778L475.05 30.4236L475.049 30.4166Z" fill="#B28505"/>
<path d="M474.574 30.5004C474.177 38.7657 471.613 47.1415 466.76 53.8852L466.567 53.7767C468.463 48.992 470.377 44.2778 471.898 39.3785C472.769 36.5247 473.664 33.3792 474.351 30.4822L474.567 30.5022L474.574 30.5004Z" fill="#B28505"/>
<path d="M466.406 33.1604C462.342 39.4017 464.747 47.1909 466.6 53.7908L466.398 53.8802C465.911 53.095 465.47 52.283 465.035 51.4623C462.832 46.8462 461.628 41.2532 463.68 36.3758C464.29 35.0848 465.073 33.8247 466.266 32.9934L466.406 33.1604Z" fill="#B28505"/>
<path d="M466.504 32.9851C466.852 38.1958 466.866 43.4242 466.811 48.6477C466.791 50.3895 466.747 52.1296 466.666 53.8717L466.449 53.8746C466.145 48.6601 466.087 43.4355 466.119 38.2103C466.156 36.472 466.184 34.7285 466.287 32.988L466.504 32.9851Z" fill="#B28505"/>
</g>
<g clip-path="url(#clip1_1279_2207)">
<path d="M339.878 117.365C337.647 138.665 307.211 142.093 290.579 137.651C257.586 129.586 259.003 97.857 292.584 92.7654C309.533 89.8235 339.554 95.9511 339.878 117.365ZM337.068 117.24C337.323 109.802 332.029 103.384 325.945 99.4773C313.18 91.2663 295.451 90.4744 282.005 97.5149C265.857 106.009 265.127 122.064 280.466 131.978C293.231 140.189 310.96 140.98 324.406 133.94C330.814 130.604 336.659 124.67 337.068 117.24Z" fill="#8AA7F2"/>
<path d="M333.793 117.465C331.775 135.139 306.545 137.225 292.82 133.886C265.046 127.603 266.263 101.215 294.427 97.3401C308.449 95.1761 333.412 99.6443 333.793 117.465ZM330.983 117.339C331.175 111.319 326.772 106.17 321.844 103.019C311.382 96.2798 296.794 95.6284 285.772 101.408C272.539 108.278 271.963 121.167 284.49 129.252C294.95 136.054 309.602 136.709 320.639 130.866C325.829 128.142 330.663 123.353 330.983 117.339Z" fill="#8AA7F2"/>
<path d="M327.343 117.177C325.406 133.332 299.118 133.297 287.907 127.549C279.921 123.826 275.647 114.625 282.389 107.528C286.104 103.726 291.261 102.037 296.346 101.368C307.498 99.8564 326.906 102.899 327.344 117.164L327.343 117.177ZM324.533 117.051C324.686 112.77 321.605 108.665 317.625 106.081C309.609 100.719 298.164 100.208 289.703 104.834C279.713 110.147 279.274 119.957 288.71 126.202C296.709 131.641 308.257 132.156 316.709 127.453C320.919 125.183 324.329 121.342 324.532 117.064L324.533 117.051Z" fill="#8AA7F2"/>
<path d="M269.665 146.547C270.473 139.07 276.102 133.382 282.487 130.263C297.477 123.061 319.8 125.312 330.317 139.144C332.44 142.042 333.752 145.633 333.852 149.413L331.041 149.288C331.411 146.169 330.506 142.928 328.853 140.103C318.39 123.637 287.363 122.251 275.473 137.719C273.575 140.386 272.398 143.533 272.475 146.672L269.665 146.547Z" fill="#8AA7F2"/>
<path d="M274.94 146.782C278.545 126.26 314.776 126.035 325.449 140.68C327.276 143.027 328.449 146.01 328.576 149.177L325.766 149.052C326.107 146.571 325.366 143.953 324.009 141.665C316.229 130.17 298.071 128.374 286.368 134.506C281.754 136.924 277.555 141.549 277.751 146.908L274.94 146.782Z" fill="#8AA7F2"/>
<path d="M280.445 147.028C283.631 131.3 311.766 131.519 320.386 142.259C321.868 144.053 322.929 146.366 323.07 148.932L320.26 148.806C320.559 146.989 320.033 145.007 318.97 143.296C312.781 134.585 298.95 133.328 289.852 137.874C286.356 139.638 282.975 143.122 283.256 147.153L280.445 147.028Z" fill="#8AA7F2"/>
<path d="M253.21 62.184C249.017 75.2563 248.198 90.4376 263.495 95.8308C267.671 97.4636 272.234 98.1921 276.827 98.794L276.81 99.1772C272.162 99.52 267.385 99.2811 262.775 97.9105C252.363 95.1928 246.7 85.8655 248.258 75.3504C248.865 70.6292 250.413 66.0651 252.872 62.0153L253.223 62.1845L253.21 62.184Z" fill="#8AA7F2"/>
<path d="M254.061 62.0553C250.411 79.8748 258.946 94.8083 277.03 98.8413L276.949 99.2216C263.246 97.4065 251.911 89.2594 251.804 74.4719C251.688 70.1791 252.313 65.9322 253.695 61.9366L254.061 62.0553Z" fill="#8AA7F2"/>
<path d="M254.911 61.927C255.148 70.3848 258.247 78.6505 263.086 85.4965C266.559 91.1295 271.614 95.4509 277.257 98.9154L277.088 99.2535L274.496 97.9858C264.546 93.2154 257.43 84.3351 255.396 73.4292C254.58 69.6299 254.242 65.7368 254.542 61.8849L254.925 61.902L254.911 61.927Z" fill="#8AA7F2"/>
<path d="M255.738 61.7591C261.809 74.842 269.428 87.0724 277.483 99.0151L277.19 99.2708C268.98 91.9544 263.087 82.3352 258.8 72.2886C257.415 68.8991 256.174 65.4519 255.374 61.8709L255.738 61.7591Z" fill="#8AA7F2"/>
<path d="M270.559 63.1764C281.805 70.1421 281.295 87.8841 277.811 99.1067L277.43 99.0385C277.4 97.4245 277.457 95.8528 277.515 94.2683C277.548 83.7875 277.569 71.8599 270.353 63.4871L270.56 63.1636L270.559 63.1764Z" fill="#8AA7F2"/>
<path d="M270.521 63.1747C272.851 72.046 274.612 81.0455 276.256 90.0782C276.788 93.084 277.306 96.1021 277.746 99.1295L277.372 99.2024C275.12 90.309 273.281 81.3316 271.597 72.31C271.08 69.292 270.561 66.2867 270.146 63.2476L270.521 63.1747Z" fill="#8AA7F2"/>
<path d="M358.242 66.7217C364.949 80.4349 362.426 98.5221 345.164 101.59C340.449 102.557 335.671 102.356 331.072 101.6L331.089 101.217C335.717 101.04 340.327 100.708 344.632 99.4544C360.349 95.4471 360.875 80.2399 357.865 66.8457L358.229 66.7084L358.242 66.7217Z" fill="#8AA7F2"/>
<path d="M357.429 66.583C361.864 86.7476 351.721 100.642 330.942 101.645L330.908 101.26C343.799 99.4811 353.71 91.9377 356.504 78.9566C357.348 74.9754 357.561 70.7869 357.066 66.6692L357.441 66.5835L357.429 66.583Z" fill="#8AA7F2"/>
<path d="M356.603 66.4563C356.197 81.8224 348.203 95.1726 333.508 100.634L330.813 101.665L330.675 101.313C340.926 96.4727 348.83 87.7261 353.311 77.3802C353.905 75.8452 354.734 73.6041 355.112 72.0212C355.616 70.2006 356.007 68.3239 356.219 66.4519L356.602 66.469L356.603 66.4563Z" fill="#8AA7F2"/>
<path d="M355.762 66.3548C350.876 80.0359 342.293 92.7967 330.698 101.647L330.429 101.366C336.057 94.2969 341.679 87.3553 346.735 79.902C349.656 75.5529 352.764 70.7259 355.398 66.2105L355.75 66.3542L355.762 66.3548Z" fill="#8AA7F2"/>
<path d="M340.684 66.6534C330.67 75.0625 330.734 89.3746 330.478 101.407L330.092 101.454C329.675 99.8864 329.35 98.2975 329.037 96.6965C327.694 87.818 328.525 77.808 334.463 70.6629C336.146 68.8055 338.104 67.0884 340.533 66.3011L340.684 66.6534Z" fill="#8AA7F2"/>
<path d="M340.938 66.4089C338.862 75.3393 336.216 84.1291 333.457 92.8754C332.534 95.7906 331.572 98.6914 330.547 101.576L330.181 101.471C332.333 92.5563 334.902 83.7503 337.623 74.9895C338.572 72.0882 339.509 69.1736 340.571 66.3029L340.938 66.4089Z" fill="#8AA7F2"/>
</g>
<path fill-rule="evenodd" clip-rule="evenodd" d="M289 37.7509C287.206 37.7509 285.751 39.2056 285.751 41C285.751 42.7945 287.206 44.2491 289 44.2491C290.794 44.2491 292.249 42.7945 292.249 41C292.249 39.2056 290.794 37.7509 289 37.7509ZM283 41C283 37.6864 285.686 35 289 35C292.314 35 295 37.6864 295 41C295 44.3138 292.314 47 289 47C285.686 47 283 44.3138 283 41Z" fill="#B861B3"/>
<g opacity="0.5">
<path d="M125.809 192.462C167.897 169.752 225.573 156.758 272.383 189.095C280.035 194.757 288.005 200.178 296.047 204.248C330.705 222.713 361.246 214.587 391.502 198.021C398.927 194.13 406.132 189.86 413.393 185.55C452.466 161.01 489.048 154.201 535.053 170.603C547.69 174.967 560.085 180.989 572.416 187.267C584.656 193.297 597.113 198.305 609.633 202.011C673.142 221.633 721.789 195.7 775.401 166.722C782.823 162.731 790.459 159.2 798.295 156.395C825.573 146.577 856.08 144.623 885.331 157.702C889.477 159.628 893.584 161.771 897.519 164.617L897.321 165.165C895.385 163.805 893.359 162.647 891.331 161.57C860.55 145.931 827.854 148.287 799.124 159.129C791.394 162.057 783.916 165.673 776.599 169.781C723.277 199.658 672.951 227.164 609.325 206.395C594.523 201.831 579.918 195.432 565.532 187.982C547.266 178.525 528.444 171.323 509.619 167.991C484.466 163.295 459.645 167.196 437.351 178.191C426.104 183.53 415.364 190.396 404.492 196.81C378.941 211.651 350.93 225.112 320.561 218.099C303.393 214.468 286.738 204.762 271.191 192.769C231.605 165.126 187.169 170.331 148.958 183.27C141.176 186.056 133.467 189.181 126.055 193.063L125.809 192.462Z" fill="#B861B3"/>
<path d="M883.817 135.606C841.742 120.448 798.286 124.26 761.498 145.123C756.952 147.71 747.276 153.037 742.54 155.694C680.484 190.877 628.177 201.471 557.027 166.458C520.956 149.23 482.308 143.648 448.053 156.684C444.435 158.038 440.355 159.706 436.838 161.372C423.799 167.324 411.744 175.659 399.205 182.912C388.31 188.995 377.439 195.033 365.835 199.247C340.338 208.897 312.525 206.603 285.734 192.168C282.695 190.598 279.686 188.861 276.715 187.028L273.743 185.174C256.3 173.852 237.405 168.383 219.031 167.464C190.249 166.056 162.393 174.001 136.827 186.854C133.171 188.726 129.547 190.712 126.036 192.92L125.769 192.331C129.28 190.042 132.875 187.989 136.518 186.04C162.086 172.643 189.851 164.196 218.846 165.098C235.427 165.705 252.437 169.762 268.561 178.691C270.803 180.041 275.415 182.671 277.497 183.984C280.446 185.742 283.399 187.405 286.394 188.891C312.954 202.661 339.352 204.173 364.494 194.752C379.675 189.18 394.098 181.032 408.235 172.514C420.658 164.839 433.403 157.607 446.897 152.804C486.594 138.539 525.603 146.761 566.765 166.892C593.956 179.055 622.268 185.206 649.519 183.041C682.046 180.785 712.064 166.964 741.006 151.746C755.326 144.239 770.383 135.456 785.689 130.875C812.914 122.237 842.491 122.02 871.516 130.784C875.651 132.021 879.776 133.455 883.878 134.975L883.815 135.6L883.817 135.606Z" fill="#B861B3"/>
<path d="M870.247 106.015C839.699 96.2593 803.204 99.3524 774.584 108.432C772.718 109.042 770.66 109.628 768.916 110.317C766.481 111.272 762.737 112.588 760.545 113.574L757.8 114.801C756.043 115.607 753.978 116.417 752.331 117.298C730.766 128.541 709.857 141.807 687.218 150.338C650.317 165.009 610.15 167.597 569.924 153.543C568.383 152.985 565.358 151.861 563.819 151.289C558.216 149.168 551.304 146.046 545.711 143.822C538.869 141.194 531.473 138.787 524.535 137.026C490.021 128.066 455.367 133.259 425.44 150.313C416.533 155.121 408.045 161.068 399.279 166.341C383.348 175.592 367.296 185.295 349.521 189.121C328.818 193.955 306.457 191.12 285.187 181.736C280.16 179.623 275.138 176.852 270.209 174.335L267.27 172.836L265.798 172.088L264.311 171.443L261.334 170.161L259.844 169.524L259.098 169.205L258.345 168.936L252.328 166.809L246.274 165.093C207.485 155.593 169.453 166.746 136.315 186.053C132.814 188.151 129.347 190.356 126.006 192.787L125.718 192.216C132.392 187.209 139.413 182.967 146.579 179.102C180.734 160.977 220.276 151.804 259.46 166.104C261.439 166.924 264.323 168.1 266.319 168.929C267.107 169.305 269.971 170.734 270.842 171.151C301.439 187.677 330.39 191.702 359.884 181.342C371.177 177.461 381.822 171.529 392.354 165.428C395.663 163.602 399.756 161.287 402.887 159.287C451.375 126.321 497.61 119.019 555.206 144.244C600.4 163.926 644.023 162.697 685.86 146.029C708.893 137.353 730.119 123.887 752.39 112.985C754.942 111.902 758.226 110.504 760.797 109.458L762.22 108.95L767.922 106.93C786.978 100.63 807.097 97.6337 827.406 98.0285C833.436 98.1868 839.705 98.5922 845.78 99.4781C853.963 100.598 862.183 102.386 870.295 105.373L870.233 105.998L870.247 106.015Z" fill="#B861B3"/>
<path d="M856.68 76.4204C832.617 68.6302 808.399 70.1995 785.447 75.3013C770.107 78.7496 755.21 84.0681 740.82 90.7795C733.599 94.1279 726.657 98.0494 719.697 102.089C691.856 118.469 662.42 132.11 630.89 136.572C606.328 140.252 580.596 138.225 555.421 129.483C553.643 128.831 548.291 126.8 546.41 126.105C510.761 111.993 473.577 112.085 440.818 125.992C433.539 128.985 426.39 132.625 419.517 136.698C412.537 140.776 405.954 145.474 399.092 149.914C395.843 151.766 391.936 154.293 388.816 156.344C381.986 160.817 374.964 164.971 367.673 168.336C340.214 181.549 308.732 181.781 278.453 169.073C272.522 166.591 266.629 163.678 260.649 161.69C228.659 150.481 196.289 155.257 167.359 167.728C156.424 172.439 145.869 178.296 135.824 185.238C132.478 187.562 129.177 189.997 126.012 192.662L125.704 192.109C128.851 189.347 132.121 186.839 135.442 184.427C145.418 177.226 155.92 171.099 166.814 166.122C195.824 152.935 228.555 147.594 260.967 158.377C269.006 160.938 276.84 164.996 284.865 167.668C312.614 177.241 341.176 175.788 366.242 164.217C375.21 160.233 383.878 154.748 392.304 149.319C401.069 144.301 409.295 138.214 418.074 133.193C439.079 120.918 462.136 113.31 486.183 112.444C506.157 111.615 526.773 115.46 546.778 123.223C548.246 123.785 554.182 125.923 555.724 126.509C572.611 132.204 589.832 134.957 606.661 134.85C638.495 134.618 668.811 124.505 697.048 109.784C711.315 102.538 724.932 93.4681 739.505 86.9763C768.695 74.2039 800.122 66.2639 832.548 69.9742C840.636 70.9546 848.758 72.8529 856.761 75.8115L856.699 76.4363L856.68 76.4204Z" fill="#B861B3"/>
<path d="M843.108 46.8242C803.202 33.8441 763.837 44.579 729.303 63.207C722.379 66.9565 715.441 71.0044 708.593 74.9917C681.326 91.9913 652.365 105.63 621.473 111.462C598.345 115.792 574.082 115.655 550.063 108.74C543.113 106.626 536.185 104.011 529.237 102.272C488.46 91.5446 447.851 101.197 413.537 123.222C407.744 126.766 401.824 131.506 396.101 135.187C392.03 138.155 388.055 141.415 383.876 144.253C376.344 149.477 368.437 153.915 360.198 157.363C333.613 168.853 303.644 168.918 274.617 158.096L268.678 155.944L265.739 154.895C231.129 142.933 196.038 149.084 165.537 164.814C158.528 168.402 151.629 172.535 145.041 177.126C138.429 181.737 131.977 186.747 125.984 192.516L125.65 191.982C128.61 188.982 131.706 186.232 134.855 183.584C144.32 175.675 154.406 168.845 164.902 163.162C195.5 146.612 230.921 139.828 266.058 151.327C267.766 151.888 273.171 153.766 274.996 154.386C302.904 164.158 331.748 163.955 357.514 153.833C366.097 150.414 374.372 145.992 382.203 140.645C386.387 137.867 390.364 134.66 394.502 131.704C400.379 127.994 406.16 123.433 412.075 119.888C446.105 98.3983 486.085 89.3398 526.341 98.9931C534.356 100.855 542.359 103.794 550.218 106.169C559.111 108.688 568.074 110.232 576.969 110.987C591.779 112.215 606.527 111.009 620.786 108.212C652.379 101.998 681.686 87.1326 709.505 69.5032C715.326 66.1879 721.861 62.3934 727.798 59.3063C748.99 48.3166 771.612 40.4798 795.32 39.1216C811.089 38.1978 827.335 40.2096 843.172 46.2058L843.11 46.8306L843.108 46.8242Z" fill="#B861B3"/>
<path d="M829.538 17.2359C784.86 2.97665 739.797 14.8051 703.697 42.2306C701.283 44.1063 698.861 46.0574 696.63 48.1326C691.052 52.1836 685.349 55.7802 679.515 59.206C636.232 83.6789 586.768 100.093 536.136 85.6446C529.503 83.6526 522.848 82.1216 516.193 81.1878C476.179 75.5772 437.504 88.7362 404.74 112.236C402.029 114.227 399.322 116.324 396.799 118.534L396.918 118.412C395.755 119.713 394.61 120.834 393.425 121.978C361.345 151.7 318.224 161.178 276.435 149.354C273.149 148.459 270.336 147.508 267.228 146.578C239.84 138.384 212.089 140.677 186.998 150.576C170.186 157.186 154.312 166.875 139.863 179.12C135.06 183.235 130.335 187.546 125.962 192.38L125.61 191.871C134.211 181.846 143.897 173.492 154.012 166.105C185.644 143.059 223.95 131.709 262.834 141.349C264.381 141.765 265.937 142.132 267.484 142.588L272.094 143.952C297.865 151.766 324.161 151.766 348.216 143.613C362.33 138.817 375.773 131.504 387.762 121.433C390.137 119.426 392.565 117.252 394.716 114.934C397.436 112.619 400.175 110.575 402.982 108.575C441.863 81.5106 489.16 69.0954 536.284 83.5377C579.76 96.3828 622.465 84.0896 660.539 65.1321C672.097 59.2656 684.384 51.9169 694.604 44.5195C699.285 40.1713 704.163 36.5293 709.251 33.0537C734.472 16.0544 763.467 6.49295 793.597 8.49022C805.608 9.25415 817.746 11.9811 829.607 16.6165L829.545 17.2412L829.538 17.2359Z" fill="#B861B3"/>
</g>
</g>
<defs>
<clipPath id="clip0_1279_2207">
<rect width="64.7667" height="47.8922" fill="white" transform="translate(415.442 45.5466) rotate(-14.3444)"/>
</clipPath>
<clipPath id="clip1_1279_2207">
<rect width="113.707" height="84.0816" fill="white" transform="translate(248.751 61.447) rotate(2.5572)"/>
</clipPath>
</defs>
</svg>
