<svg width="531" height="900" viewBox="0 0 531 900" fill="none" xmlns="http://www.w3.org/2000/svg">
<g opacity="0.2">
<mask id="mask0_64_2668" style="mask-type:alpha" maskUnits="userSpaceOnUse" x="0" y="0" width="531" height="900">
<rect width="531" height="900" fill="#D9D9D9"/>
</mask>
<g mask="url(#mask0_64_2668)">
<path d="M0.366102 0.0173235C49.8257 30.4714 116.549 59.8431 175.601 49.6978C211.751 42.2584 248.587 35.0178 285.616 34.3536C289.026 34.131 299.539 34.5058 303.24 34.5523C308.565 34.7086 315.45 35.4536 320.829 35.8312C337.37 37.6961 353.78 41.1146 369.715 45.9406L372.481 46.9108L383.586 50.7858C386.642 51.8063 391.373 53.9721 394.471 55.2053C408.701 61.04 423.016 68.6775 436.312 76.3435C441.32 79.438 451.252 85.4935 456.257 88.5676C492.382 111.727 535.073 123.376 577.982 120.27C601.289 119.131 624.45 115.019 647.857 114.752C671.367 114.124 695.108 118.816 716.057 129.678C719.232 131.421 728.358 136.283 731.478 138.004C734.291 139.353 739.085 141.729 741.984 142.887C745.746 144.574 751.601 146.716 755.508 148.056C801.25 163.806 850.498 152.448 897.246 162.432C920.412 167.189 942.413 176.796 962.281 189.543C968.692 193.636 975.43 198.515 981.632 202.671C994.524 211.181 1008.16 218.482 1022.45 224.182C1090.85 250.368 1136.56 225.396 1206.82 273.799C1255.89 310.875 1317.46 321.219 1377.71 314.963C1393.14 313.364 1408.56 310.869 1423.55 306.749L1423.68 307.169C1416.2 309.434 1408.6 311.167 1400.95 312.686C1341.94 324.13 1277.26 320.63 1224.37 289.745C1215.91 284.98 1208.02 278.928 1199.85 273.787C1173.81 256.796 1143.85 247.648 1112.97 244.943C1089.84 242.622 1066.01 241.638 1043.27 235.722C1020.35 229.956 998.668 219.602 979.092 206.508C966.426 197.766 953.622 188.523 939.805 181.833C912.246 167.493 881.18 162.185 850.358 161.589C819.35 160.802 787.279 161.678 757.403 151.683C752.259 150.102 745.858 147.593 740.902 145.388C737.921 144.169 733.242 141.734 730.283 140.313C725.665 137.796 717.126 132.876 712.375 130.515C702.862 125.784 692.813 122.199 682.444 119.809C663.458 115.579 643.88 115.842 624.602 117.615C575.494 122.857 533.269 126.977 486.365 106.51C475.523 102.032 465.096 96.5724 455.062 90.5323C425.361 72.3826 394.067 55.7047 360.268 47.0953C322.941 36.6811 283.398 36.5249 245.127 41.1854C229.83 42.8475 214.277 45.717 199.123 48.4636C188.427 50.6 175.429 53.5951 164.463 54.5721C121.231 57.5502 78.7982 42.7728 40.5277 23.8506C26.5974 16.8229 13.0031 9.11847 0.0946083 0.360902L0.34261 0L0.366102 0.0173235Z" fill="#73206F"/>
<path d="M0.366102 0.0173235C51.1098 33.9924 120.25 66.6514 182.437 53.6329C210.68 48.7017 239.713 44.7156 268.394 43.9133C271.3 43.8815 277.073 43.897 279.971 43.877C283.344 43.7539 293.673 44.4278 297.32 44.5974C316.542 46.0471 335.768 49.3849 354.185 55.0988C379.973 62.7678 404.483 75.0229 427.617 88.6751C434.761 93.1272 444.973 99.4431 452.078 103.849C479.81 120.71 511.131 132.114 543.62 134.483C566.591 136.504 589.522 133.982 612.496 132.778C643.912 130.749 674.26 133.931 702.349 149.152C705.495 150.91 714.361 155.781 717.452 157.516C723.912 160.829 731.46 164.365 738.278 166.873C768.8 178.867 801.783 179.19 834.154 180.982C857.222 182.331 880.5 186.173 902.21 194.479C914.818 199.389 927.071 205.47 938.56 212.637C943.107 215.446 948.698 219.152 953.069 222.249C968.38 233.231 985.03 243.407 1002.32 250.825C1066.37 278.283 1111.63 259.419 1177.59 303.129C1185.55 308.272 1189.29 311.298 1196.57 316.198C1241.29 346.054 1296.74 355.84 1349.77 352.06C1365.04 350.956 1380.31 348.944 1395.16 345.251L1395.29 345.67C1380.44 349.675 1365.19 352.008 1349.89 353.431C1296.4 358.343 1240.04 349.029 1194.59 319.211C1188.33 315.085 1181.63 310.127 1175.53 306.32C1097.8 255.925 1044.93 291.349 959.925 232.525C956.303 230.035 949.137 224.95 945.77 222.63C931.756 212.913 916.572 204.634 900.696 198.401C886.49 193.001 871.708 189.243 856.637 187.156C818.731 181.953 779.238 184.951 742.711 171.484C741.318 171.037 738.61 170.037 737.272 169.467C734.537 168.429 729.239 166.171 726.608 164.92C721.78 162.737 715.811 159.569 711.21 156.883C694.992 147.08 677.077 139.235 658.288 136.238C627.948 130.832 597.135 136.297 566.582 136.516C535.789 137.282 504.816 131.554 476.678 118.835C467.878 114.956 459.261 110.559 450.961 105.708C438.296 98.1449 424.299 89.4368 411.229 82.5715C392.799 72.8422 373.165 64.3276 353.142 58.5535C314.781 46.6885 273.883 45.9855 234.161 49.8842C221.255 51.2793 207.167 53.072 194.328 55.1145C179.528 57.5781 163.437 60.7583 148.323 59.7633C125.123 58.7887 102.425 52.782 80.8265 44.5223C66.4131 39.0598 52.5291 32.3381 39.0398 24.983C25.582 17.5606 12.4719 9.46996 0.0946083 0.360902L0.354361 0.00865414L0.366102 0.0173235Z" fill="#73206F"/>
<path d="M0.377847 0.0259869C48.1931 34.5788 111.549 67.9023 172.159 60.5374C185.088 58.7422 198.742 57.0464 211.654 55.6921C218.532 55.1443 227.65 54.1644 234.352 53.9041C242.849 53.2998 254.416 53.0563 262.833 53.0274C273.71 53.2535 286.177 53.782 297.005 55.2779C299.86 55.6609 305.473 56.4831 308.319 56.8778C316.886 58.3916 327.685 60.7895 336.171 63.2231C365.426 71.4542 392.952 85.3721 418.911 100.998C423.746 104.056 433.316 110.062 438.148 113.099C466.625 131.434 498.793 144.714 532.604 148.511C555.159 151.367 577.859 149.798 600.546 149.525C638.187 148.841 666.139 154.535 698.561 174.256C707.369 179.428 716.968 183.968 726.458 187.722C755.576 199.333 786.928 201.154 817.859 204.259C859.258 208.267 895.237 221.222 929.425 245.091C934.168 248.371 939.045 251.84 943.372 254.85C961.926 267.607 981.784 278.499 1003.04 285.944C1024.38 293.648 1046.64 297.102 1068.93 301.574C1103.41 308.024 1134.34 321.314 1162.66 342.113C1207.99 376.863 1265.26 391.249 1321.85 389.093C1336.92 388.518 1352.04 387.009 1366.78 383.781L1366.89 384.204C1352.14 387.755 1337.03 389.577 1321.9 390.473C1268.96 393.487 1214.04 381.94 1169.85 351.651C1166.16 349.057 1159.27 344.326 1155.88 341.916C1135.7 328.214 1113.56 317.428 1089.98 311.084C1068.1 304.975 1045.62 302.389 1023.48 296.79C993.745 289.622 965.773 276.136 940.779 258.612C900.158 228.639 867.936 213.76 817.406 208.094C787.416 204.722 756.509 202.667 728.079 191.4C717.507 187.393 707.021 182.235 697.287 176.452C646.077 144.363 611.241 152.209 555.143 151.463C506.396 150.683 467.82 135.125 427.25 109.141C398.565 91.3597 367.774 75.8685 335.177 66.7855C327.272 64.5457 315.907 62.056 307.691 60.6562C303.686 60.186 295.263 58.7966 290.929 58.5011L279.688 57.5893C277.821 57.3911 275.936 57.4148 274.056 57.3334L262.769 56.9501C260.895 56.9096 259.016 56.9741 257.128 56.9774C234.862 56.9993 211.549 59.1306 189.462 61.7863L178.223 63.2325L172.602 63.9454C155.52 66.1586 138.015 64.8149 121.322 61.1156C91.5948 54.5838 63.569 41.7117 37.5291 26.1711C24.5437 18.3538 11.9209 9.8975 0.0747903 0.436958L0.334564 0.0846817L0.34631 0.0933434L0.377847 0.0259869Z" fill="#73206F"/>
<path d="M0.377847 0.0259869C40.941 31.823 88.0676 59.3423 139.89 65.9615C154.738 67.8837 169.37 66.3114 184.228 64.7782C213.917 62.0914 244.292 60.4906 274.037 63.211C277.231 63.6263 285.349 64.5191 288.034 64.886C291.968 65.5756 297.969 66.6107 301.926 67.3176C310.323 69.0867 320.893 71.7694 329.213 74.4058C332.117 75.1882 336.969 77.0437 339.878 78.0653C364.523 86.867 387.858 99.6333 410.16 113.234C422.732 121.145 435.294 129.61 448.247 136.733C471.034 149.259 495.877 158.406 521.631 162.407C558.533 168.628 596.562 162.575 633.171 171.48C640.236 173.137 647.862 175.607 654.638 178.319C657.565 179.391 662.087 181.546 664.972 182.822C667.939 184.43 672.123 186.355 674.95 188.078C678.176 189.949 686.367 194.702 689.47 196.519C697.551 200.955 705.988 205.128 714.567 208.518C742.249 220.013 772.071 223.097 801.529 227.51C823.771 230.914 845.901 236.683 866.495 245.96C880.206 252.155 893.395 259.597 905.871 267.982C914.935 274.085 924.422 280.99 933.502 287.07C939.574 291.058 946.234 294.936 952.484 298.657L962.322 303.809C963.963 304.656 965.582 305.56 967.258 306.361C971.399 308.146 978.159 311.373 982.504 313.054L992.895 316.964C994.617 317.654 996.395 318.168 998.151 318.738C1030.05 329.116 1064.04 333.752 1094.56 348.522L1097.15 349.666L1099.65 350.968L1109.65 356.22C1115.59 359.424 1118.69 361.711 1124.15 364.936C1130.98 369.142 1145.24 379.731 1151.72 384.22C1180.91 404.002 1214.66 416.888 1249.46 422.361C1278.83 426.943 1309.11 427.496 1338.43 422.236L1338.52 422.67C1309.16 428.532 1278.75 428.75 1249.13 424.561C1213.82 419.518 1179.44 407.032 1149.73 387.192C1138.96 379.792 1128.55 371.899 1117.3 365.343C1114.14 363.483 1110.85 361.309 1107.7 359.749C1104.98 358.344 1097.6 354.565 1095.34 353.412C1093.57 352.647 1089.47 350.876 1087.7 350.111C1060.34 338.004 1030.66 333.468 1002.1 324.747C965.658 314.408 933.68 293.69 903.375 271.688C897.364 267.617 890.847 263.519 884.496 259.96C871.646 252.623 858.123 246.421 844.095 241.714C815.855 231.911 785.91 229.732 756.639 224.008C734.536 219.727 712.903 212.349 693.133 201.486C685.538 197.499 676.484 191.456 668.889 187.469L663.968 184.873C662.397 184.15 657.95 182.066 656.403 181.361C654.666 180.642 650.426 178.966 648.657 178.241C615.199 165.261 578.875 168.511 543.728 166.23C530.721 165.303 517.558 163.627 504.866 160.576C481.116 155.062 458.567 145.141 437.487 133.004C424.747 125.567 412.001 117.057 399.141 109.857C377.547 97.2871 354.492 86.5759 330.781 78.6978C319.823 75.3849 307.063 71.8849 295.692 70.1161C283.351 67.7947 269.525 66.6991 257.001 65.9288L251.428 65.7891C247.712 65.7135 243.999 65.5854 240.289 65.5506C230.08 65.5994 217.046 66.0121 206.812 66.5865C191.835 67.4698 177.157 69.0804 162.12 70.1189C116.636 71.4543 73.484 51.3072 36.014 27.1928C23.5012 18.9808 11.386 10.1556 0.0741971 0.363991L0.357437 0.0290741L0.369183 0.0377358L0.377847 0.0259869Z" fill="#73206F"/>
<path d="M0.38959 0.0346529C43.5913 36.7865 99.0593 71.3632 157.313 72.2845C197.72 70.359 238.912 67.4176 279.048 74.4651C281.988 74.8562 287.003 75.9983 289.976 76.6138C293.569 77.3237 297.446 78.1888 300.819 79.1718C306.756 80.6131 316.187 83.5616 322.143 85.6156C324.943 86.4659 329.752 88.4531 332.566 89.5309C356.652 98.9178 379.437 111.913 401.372 125.496C413.475 133.279 426.35 141.886 438.822 148.998C467.577 165.381 499.524 176.304 532.497 179.664C580.142 184.055 617.877 181.646 661.222 207.555C669.255 212.228 677.002 217.017 685.16 221.274C688.677 222.997 694.004 225.584 697.521 227.307C702.259 229.242 710.563 232.81 715.417 234.341C739.737 242.994 765.374 246.564 790.574 252.005C794.288 252.895 800.336 254.382 804.097 255.306C808.287 256.511 813.767 258.177 817.459 259.269C828.007 262.769 838.429 267.028 848.508 271.705L863.349 279.441C871.295 284.231 879.426 288.795 886.954 294.201C904.182 306.126 923.818 320.515 942.341 330.313C967.964 344.821 996.212 353.507 1024.3 362.071C1052.71 370.627 1079.89 383.564 1104.4 400.316C1113.4 406.7 1130.75 419.838 1140.62 425.59C1171.91 444.804 1207.53 456.624 1243.96 460.955C1265.84 463.589 1288.15 463.978 1309.99 460.743L1310.08 461.169C1295.5 463.724 1280.67 464.408 1265.9 464.154C1214.07 463.15 1162.21 447.061 1120.26 416.235L1102.26 403.488C1089.91 395.596 1077.41 387.862 1064.03 381.889C1037.37 369.155 1008.49 362.757 980.734 352.661C968.861 348.474 956.287 342.754 945.009 337.048C942.209 335.509 933.357 330.595 930.376 328.958C915.693 320.27 898.522 307.752 884.434 297.889C878.531 293.5 872.127 289.938 865.922 286.033C863.399 284.39 859.13 282.039 856.363 280.652C850.364 277.352 842.786 273.613 836.639 271.055C805.511 256.857 771.324 252.782 738.314 244.628C732.533 242.975 725.315 241.133 719.647 239.056C712.516 236.825 703.212 232.918 696.331 229.929C692.785 228.147 687.457 225.487 683.887 223.689C675.77 219.352 667.827 214.311 659.984 209.652C647.43 202.061 633.911 196.099 619.859 191.917C605.748 187.766 591.126 185.684 576.477 184.525C547.113 182.394 517.217 181.23 488.862 172.394C467.715 166.153 447.233 156.379 428.217 145.256C415.851 137.877 402.982 129.312 390.49 122.13C370.05 110.012 348.406 99.1816 326.104 90.9655L323.534 89.9761L320.92 89.1184C313.41 86.5165 302.401 83.347 294.543 81.4861L281.08 78.7184L278.356 78.3052C253.058 74.0788 227.14 73.2745 201.526 73.8541C187.087 74.1554 171.794 75.2952 157.263 75.673C112.331 74.9321 70.5083 53.5721 34.4557 28.2733C22.4184 19.6868 10.8109 10.4929 0.0451369 0.378809L0.351869 0.0612153L0.363615 0.069877L0.38959 0.0346529Z" fill="#73206F"/>
<path d="M0.401334 0.0433164C41.6619 38.1734 95.0497 74.2432 152.609 77.6798C158.625 78.0552 168.173 77.5739 174.387 77.5334C203.63 77.0009 233.051 77.5789 262.016 82.2432C283.56 86.0033 305.159 92.1967 325.247 100.956C348.66 110.862 371.154 124.204 392.633 137.74C407.552 147.509 423.298 158.124 439.038 166.558C464.669 180.366 492.514 190.041 521.318 194.406C550.121 198.823 579.727 199.52 607.675 208.709C621.62 213.283 635.036 219.459 647.578 227.041C655.46 231.747 663.085 236.554 671.092 240.918C675.584 243.161 681.091 246.243 685.675 248.264C688.935 249.671 697.358 253.544 700.689 254.659C722.715 263.396 745.92 268.2 768.828 274.217C774.575 275.645 781.638 277.845 787.32 279.533C790.877 280.76 797.111 282.928 800.337 284.038C859.585 304.906 903.213 353.375 961.34 376.281C988.111 387.756 1016.43 396.044 1042.34 409.747L1052.06 414.938L1061.51 420.585L1066.23 423.411L1070.8 426.456C1079.22 431.864 1089.58 439.504 1097.68 445.533C1143.79 481.001 1201.75 500.269 1259.86 500.398C1267.14 500.396 1274.44 500.107 1281.66 499.215L1281.72 499.644C1259.97 502.542 1237.82 501.565 1216.12 498.538C1172.57 492.183 1130.63 474.942 1095.47 448.402C1089.55 444.162 1083.73 439.833 1077.76 435.684C1074.16 433.317 1067.43 428.917 1064.09 426.749C1061.38 425.145 1052.91 420.204 1050.01 418.503L1040.38 413.466C1011.2 398.42 979.258 389.802 949.476 375.943C932.949 368.378 916.663 359.16 901.462 349.11C887.237 339.998 870.878 326.993 856.618 317.782C852.878 315.477 846.36 311.16 842.811 309.087C840.023 307.557 831.537 302.785 828.567 301.157C818.924 296.258 808.943 291.744 798.853 287.82C796.418 286.967 788.105 284.027 786.035 283.316C782.369 282.19 776.728 280.495 773.018 279.355C753.791 273.878 734.021 269.631 714.999 263.163L709.772 261.448L704.631 259.469C696.691 256.514 686.996 252.301 679.457 248.41C675.884 246.518 670.839 243.867 667.306 241.969C660.313 237.682 653.153 233.399 646.27 229.085C593.799 196.247 554.989 204.172 499.507 191.5C463.773 183.204 430.827 165.815 400.413 145.78C395.991 142.9 386.404 136.99 381.832 134.289C361.727 122.11 340.577 110.955 318.755 102.186C280.019 86.256 237.836 81.3434 196.217 80.9789C185.341 80.8259 174.284 80.9923 163.449 81.1775C155.243 81.3622 146.746 80.8605 138.614 79.6673C99.5041 73.2682 63.9933 53.1364 32.9085 29.2895C21.3584 20.3373 10.25 10.7863 0.0185381 0.341108L0.337042 0.0321403L0.384027 0.0667872L0.401334 0.0433164Z" fill="#73206F"/>
<path d="M0.401334 0.0433164C39.4925 39.8365 95.7997 80.2344 153.185 83.3425C180.266 84.0441 207.54 84.2889 234.39 88.0828C259.548 91.2452 284.474 98.0427 307.849 107.902C331.165 117.718 353.339 130.608 374.66 144.137C386.648 151.635 399.129 160.259 410.951 167.835C441.309 187.158 474.731 202.106 510.137 209.127C531.324 213.494 553.018 215.697 574.05 221.037C591.651 225.424 608.652 232.197 624.486 241.045C635.531 247.214 645.989 254.401 656.974 260.579C661.341 262.894 666.796 266.046 671.241 268.182C698.64 282.151 728.386 289.838 757.568 299.249C762.336 300.97 768.207 302.87 772.933 304.797C806.976 317.502 838.058 337.467 866.972 358.97C890.219 375.914 914.485 391.524 940.372 404.051C966.257 416.777 993.557 426.92 1018.72 441.289C1037.53 451.899 1055.74 464.543 1072.83 477.709C1117.97 513.281 1174.08 535.228 1231.65 537.944C1238.85 538.266 1246.07 538.302 1253.25 537.72L1253.3 538.16C1238.87 539.556 1224.35 538.921 1209.97 537.398C1163.08 532.245 1117.68 514.555 1079.4 487.048L1061.94 474.176C1047.67 463.579 1032.24 453.648 1016.67 444.979C991.427 430.915 964.39 420.784 938.397 408.105C922.087 400.175 906.272 391.177 891.055 381.297C885.628 377.64 878.201 372.834 873.077 369.037C859.55 359.298 842.93 346.77 828.892 337.922C826.438 336.258 822.372 333.804 819.721 332.284C813.946 328.804 806.776 324.732 800.909 321.819C795.725 318.939 786.984 315.104 781.476 312.565L771.496 308.541C737.848 295.547 702.066 287.759 669.952 270.766C665.498 268.569 660.04 265.323 655.639 262.93C647.838 258.41 640.184 253.347 632.609 248.594C614.427 236.981 594.544 228.065 573.643 222.622C545.648 215.537 516.575 213.404 488.753 205.322C464.311 198.482 441.111 187.845 419.169 175.182C403.837 166.341 388.321 155.661 373.191 146.498C352.553 133.69 331.189 122.014 308.912 112.312C291.647 105.036 273.434 99.2917 255.077 95.4888C223.334 89.0839 190.782 87.5386 158.454 86.9924C125.472 86.4719 94.0637 73.2442 66.4363 55.9711C54.1292 48.2914 42.4938 39.6026 31.3934 30.3112C20.3189 20.9846 9.72441 11.1056 0.0389485 0.33802L0.360532 0.0494674L0.384027 0.0667872L0.401334 0.0433164Z" fill="#73206F"/>
<path d="M0.413085 0.0519713C37.0136 40.4194 87.8459 80.1515 143.085 88.1853C153.257 89.6134 164.853 89.6994 175.087 90.5025C185.054 91.1997 197.338 92.3192 207.253 93.4313C213.857 94.3857 222.227 95.3554 228.585 96.6182C231.894 97.2456 236.035 97.8519 239.196 98.606C260.235 102.954 281.105 109.988 300.603 118.982C329.819 132.478 357.238 150.304 383.954 168.174C391.879 173.583 402.855 180.535 410.921 185.704C416.051 188.853 424.155 193.306 429.504 196.38C438.591 201.123 448.956 206.247 458.521 210.146L463.442 212.252L468.468 214.092C505.225 228.526 545.472 230.996 582.05 246.115C595.084 251.629 608.262 258.447 620.184 266.133C627.895 270.75 635.245 275.734 642.969 280.234C647.245 282.625 652.615 285.842 656.962 288.087C664.203 291.94 673.538 296.395 680.988 299.768C712.078 313.305 745.258 322.655 775.407 338.524C826.874 364.314 868.76 404.916 919.523 431.782C944.522 445.685 970.704 457.615 995.138 472.678C1013.35 483.912 1031.18 496.591 1048.04 509.782C1054.45 514.71 1060.9 519.339 1067.33 524.139C1068.06 524.655 1068.83 525.113 1069.57 525.606L1074.05 528.498L1083.02 534.313C1089.16 537.822 1095.38 541.525 1101.65 544.753L1111.25 549.439C1112.87 550.197 1114.43 551.057 1116.08 551.727L1121 553.801C1153.71 567.625 1189.17 576.609 1224.9 576.183L1224.93 576.617C1217.75 577.001 1210.58 576.769 1203.42 576.274C1153.26 572.4 1104.53 553.94 1063.21 525.356C1054.84 519.367 1045.48 512.464 1037.24 506.193C1011.6 486.847 984.073 470.174 955.424 455.664C942.723 449.108 929.87 442.711 917.323 435.725C866.43 409.108 824.624 368.201 773.517 342.17C748.254 328.797 720.966 319.768 694.488 309.125C675.343 301.424 656.822 291.99 639.207 281.23C628.09 274.174 616.616 266.275 605.185 259.767C591.26 251.873 576.509 245.219 561.197 240.508C527.01 230.089 490.947 226.027 457.905 211.523C448.294 207.662 437.83 202.574 428.664 197.863C423.48 194.91 415.034 190.404 409.878 187.364C401.769 182.327 390.546 175.464 382.578 170.187C355.773 152.758 328.143 135.611 299.04 122.307C279.789 113.494 259.084 106.728 238.352 102.406L235.759 101.817L233.14 101.336L227.881 100.377C220.949 98.9812 213.547 98.1265 206.764 97.0947C193.188 95.5127 177.784 94.0502 164.115 93.3064L153.41 92.6267C120.764 90.5948 90.2506 76.2511 63.5614 58.0746C51.6711 49.9773 40.4909 40.9171 29.8895 31.2687C19.3141 21.585 9.20127 11.3724 0.064931 0.302786L0.39826 0.0228945L0.421752 0.040218L0.413085 0.0519713Z" fill="#73206F"/>
<path d="M0.413085 0.0519713C34.8252 41.5427 84.1188 82.968 138.286 93.2924C145.179 94.6414 152.334 95.1684 159.274 95.8633C173.2 97.069 187.949 98.954 201.686 101.054C215.472 103.335 230.041 106.374 243.51 110.289C257.197 114.327 270.631 119.52 283.609 125.429C309.369 137.464 333.688 152.878 357.348 168.548C373.341 179.073 389.908 190.764 406.236 200.811C413.307 204.992 422.028 210.281 429.343 213.935L438.761 218.868L448.403 223.35C474.069 235.587 501.789 242.578 529.045 250.297C549.402 256.281 569.739 264.064 588.223 274.63C600.484 281.315 612.712 289.716 624.454 297.179C637.756 305.574 652.059 313.474 666.135 320.501C693.203 333.737 721.727 344.311 748.398 358.504C776.765 373.495 803.357 391.853 828.878 411.072C873.702 446.337 923.625 473.236 971.54 503.965C989.132 515.741 1006.63 528.7 1023.22 541.838C1030.21 547.377 1037.28 552.55 1044.34 557.922L1057.55 566.791C1087.21 585.96 1120.09 600.55 1154.51 608.743C1168.29 611.984 1182.36 614.327 1196.53 614.702L1196.54 615.139C1168.03 614.726 1139.86 607.949 1113.25 597.984C1090.02 589.355 1067.46 577.452 1046.88 563.634L1042.4 560.698C1035.21 555.356 1027.98 550.155 1020.99 544.709C1004.37 531.785 986.824 519.043 969.226 507.497C945.494 491.9 920.628 478.186 896.452 463.241C847.576 434.159 805.368 395.077 755.775 367.262C751.113 364.585 741.878 359.624 737.072 357.24C705.389 341.236 671.762 329.001 641.211 310.677C625.961 301.824 611.182 291.398 596.335 281.9C591.403 278.752 585.344 275.534 580.282 272.563C570.319 267.482 559.325 262.203 548.808 258.489C515.416 246.5 480.069 240.139 447.793 224.767L438.084 220.327C435.288 218.881 426.641 214.426 423.854 212.969C420.188 211.153 413.459 207.098 409.911 205.098C404.405 202.089 396.976 197.408 391.662 194.016C358.854 173.121 326.532 150.755 291.625 133.443C263.263 119.109 232.422 109.907 201.11 104.762C187.456 102.524 172.766 100.682 158.967 99.3531C151.069 98.6045 142.993 97.7784 135.043 96.1401C100.819 88.6488 70.3215 69.4403 44.0246 46.8219C27.9929 32.7341 13.0274 17.3479 0.0828675 0.352233L0.439662 0.0897017L0.404424 0.0637165L0.413085 0.0519713Z" fill="#73206F"/>
<path d="M0.416163 0.0723885C29.2569 38.0529 68.5639 74.6517 113.524 92.1259C126.572 97.325 140.307 100.166 154.218 101.76C168.252 103.607 182.334 105.781 196.133 108.56C217.004 112.766 237.593 118.632 257.151 127.127C276.76 135.405 295.284 146.039 313.266 157.359C337.04 172.407 360.251 188.907 383.691 204.506C395.04 212.132 407.744 220.086 419.703 226.639C438.012 236.95 457.479 246.084 477.166 253.297C503.677 262.986 530.978 270.864 556.249 283.735C561.69 286.587 569.724 290.717 574.867 293.947C576.345 294.82 580.295 297.135 581.738 297.981C583.276 298.97 591.176 304.143 592.863 305.224C611.845 317.917 631.22 330.373 651.3 341.283C680.699 357.235 711.555 371.088 740.05 388.783C788.467 418.143 831.363 455.285 878.197 486.939C901.381 502.984 925.111 518.362 947.93 535.098C970.854 551.568 992.742 569.666 1015.01 586.882C1038.75 604.971 1064.5 620.587 1092.03 632.314C1102.86 636.982 1115.38 641.592 1126.75 644.905C1140.25 648.857 1154.07 652.031 1168.11 653.198L1168.09 653.638C1141.68 651.782 1115.69 644.143 1091.21 634.284C1076.5 628.22 1062.13 621.102 1048.38 613.107C1044.36 610.647 1038.39 607.134 1034.75 604.834C1032.1 603.054 1024.32 597.79 1021.53 595.915L1019.33 594.421C1017.86 593.338 1014.44 590.724 1012.97 589.621C990.419 572.521 968.59 554.811 945.474 538.526C922.568 522.106 898.954 506.668 875.651 490.663C817.308 451.156 764.384 403.465 701.246 371.371C676.297 358.212 650.788 345.764 626.879 330.653C611.974 321.456 597.388 310.99 582.767 301.332C580.38 299.626 576.319 297.339 573.796 295.768C568.743 292.513 560.784 288.257 555.425 285.393C542.988 278.923 529.827 273.459 516.665 268.684C490.107 259.305 463.05 250.628 437.763 237.854C412.329 225.425 388.353 210.282 364.829 194.675C341.301 179.12 317.866 163.416 293.343 149.483C253.945 125.868 209.459 113.039 164.238 106.665C157.029 105.646 145.389 104.168 137.993 102.738C124.042 99.919 110.439 94.9812 97.8001 88.489C70.9029 74.7995 47.3655 55.1768 26.8409 33.1897C17.2258 22.8185 8.12036 11.9529 0.0766755 0.311449L0.436576 0.0692969L0.42483 0.0606352L0.416163 0.0723885Z" fill="#73206F"/>
<path d="M0.427903 0.0810577C27.3838 38.8469 63.4955 75.1559 106.743 95.1739C110.114 96.6267 115.339 98.8119 118.851 100.024C121.428 101.055 126.053 102.381 128.751 103.246C142.196 106.925 156.296 108.386 169.968 111.362C197.628 116.787 225.078 124.612 250.494 136.991C293.806 157.855 334.701 190.259 374.698 216.799C397.766 232.559 422.171 247.021 447.28 259.3C482.085 276.012 519.321 287.754 552.549 307.761C573.771 320.221 593.509 335.012 614.267 348.198C637.874 363.449 662.351 377.149 686.554 391.443C743.697 424.609 804.862 474.353 857.773 514.439C891.358 539.912 924.663 565.814 957.295 592.505C969.231 602.286 986.001 616.012 998.305 625.466L1006.83 631.588L1011.09 634.66C1012.51 635.687 1013.93 636.715 1015.41 637.66L1024.18 643.422L1028.57 646.296L1033.07 648.998L1042.08 654.378C1055.61 662.051 1070.11 669.316 1084.47 675.246C1102.25 682.506 1120.72 688.765 1139.76 691.693L1139.71 692.128C1119.62 689.527 1100.19 683.193 1081.34 675.927C1067.66 670.374 1053.7 663.665 1040.82 656.603C1037.05 654.418 1030.55 650.673 1027.09 648.669C1024.53 647.052 1016.43 641.898 1013.7 640.172C1009 637.157 1001.08 631.412 996.311 628.146C992.014 624.851 983.804 618.525 979.551 615.243C938.604 582.221 896.964 549.72 855.018 518.027C810.028 484.488 766.652 448.587 720.031 417.308C679.23 389.867 635.299 367.333 595.146 338.865C576.592 325.763 557.853 312.47 537.829 301.656C502.339 282.283 463.285 270.596 427.837 251.018C353.043 212.576 290.899 150.781 209.875 125.237C196.532 121.126 182.969 117.633 169.229 114.896C158.121 112.451 146.699 110.826 135.566 108.489L132.992 107.824L127.833 106.484L120.204 104.067L117.715 103.138L112.735 101.261L105.424 98.0443C80.6383 86.3108 58.7092 69.1793 39.5567 49.7086C24.8849 34.5389 11.3733 18.1402 0.0562568 0.314549L0.427903 0.0810577Z" fill="#73206F"/>
<path d="M0.427903 0.0810577C33.0933 51.2686 82.4079 101.592 144.148 113.204C159.206 116.242 175.388 120.217 190.155 124.635C253.584 142.859 303.598 186.7 357.05 223.199C374.175 235.066 391.904 246.852 409.764 257.576C424.737 266.46 440.146 275.122 455.722 282.819C483.969 296.67 512.728 309.974 539.36 326.876C559.66 339.652 580.204 354.801 600.112 368.304C623.239 384.107 646.739 399.279 669.995 414.906C704.874 438.379 738.58 463.614 771.86 489.279C827.69 531.628 879.704 578.684 932.837 624.246C964.472 651.381 997.539 678.121 1034.14 698.317C1058.56 711.703 1084.16 723.835 1111.39 730.191L1111.31 730.621C1104.41 729.304 1097.66 727.37 1090.97 725.249C1084.4 723.121 1077.56 720.709 1071.18 718.104C1038.67 705.096 1008.03 687.088 979.721 666.505C968.453 658.449 957.26 649.307 946.576 640.558C908.574 609.69 871.983 576.834 834.549 545.368C791.418 509.774 747.28 475.251 702.122 442.258C656.785 409.46 609.25 379.592 564.247 346.316C558.526 342.296 552.882 338.17 547.025 334.359C538.678 328.711 529.134 322.67 520.426 317.609C487.172 298.18 451.294 283.759 418.067 264.169C381.598 243.222 347.001 219.269 312.477 195.315C292.37 181.467 272.305 167.341 251.152 155.132C230.102 143.054 207.349 133.507 184.043 126.726L173.994 123.829L163.851 121.28C150.273 117.685 136.297 115.735 122.954 111.207C82.7229 97.3284 49.8869 67.8397 23.7737 34.9883C15.1017 23.953 6.99804 12.4667 0.0414437 0.285455L0.416163 0.0723885L0.427903 0.0810577Z" fill="#73206F"/>
<path d="M0.439662 0.0897017C26.8953 45.7554 65.2758 89.6106 114.536 110.818C125.388 115.504 137.881 118.48 149.366 121.349C154.891 122.685 164.048 125.414 169.625 127.024C179.647 130.155 189.684 133.659 199.414 137.554C225.5 148.089 249.457 163.308 272.093 179.8C314.223 210.923 356.06 242.517 400.346 270.57C441.388 297.192 485.622 318.626 526.186 346.019C580.851 383.701 634.225 423.332 686.716 463.961C725.059 494.048 781.989 536.356 817.283 569.397C887.909 636.36 956.167 708.773 1044.43 752.653C1047.57 754.184 1050.68 755.77 1053.85 757.189L1058.61 759.372L1063.42 761.432C1069.84 764.136 1076.36 766.7 1083.03 768.698L1082.92 769.122C1069.5 765.336 1056.44 759.784 1043.82 753.904C954.456 711.807 884.983 639.713 814.231 572.748C754.083 519.312 681.358 465.375 617.823 416.041C572.967 382.836 529.268 347.693 480.856 319.679C453.688 303.996 426.068 288.704 399.504 271.907C372.975 255.063 346.706 237.595 321.062 219.428C292.444 199.539 265.064 177.627 235.144 159.75C214.22 147.329 191.726 137.775 168.527 130.529L153.518 126.096C147.823 124.597 143.451 123.494 138.344 122.157C124.716 118.85 111.242 113.736 98.9713 106.917C74.3475 93.2187 53.2035 73.9651 35.1755 52.4777C21.8203 36.285 9.75995 18.9263 0.0445238 0.305869L0.431022 0.101419L0.439662 0.0897017Z" fill="#73206F"/>
<path d="M0.431022 0.101419C25.542 47.9841 64.2403 95.3183 114.71 117.345C123.686 121.354 134.781 124.406 144.316 127.213C149.918 128.789 158.678 131.713 164.344 133.644C187.57 141.69 209.971 152.353 230.409 166.047C257.552 184.051 287.72 209.977 314.014 229.33C353.244 258.459 393.768 285.858 434.66 312.586C469.943 335.215 504.7 358.706 538.438 383.603C583.956 416.082 626.204 452.946 668.866 488.955C711.485 525.169 757.735 557.099 797.238 596.924C826.936 626.708 853.308 659.135 884.192 687.582C914.871 715.988 947.326 742.55 981.914 766.097C999.277 777.741 1017.05 788.873 1035.69 798.394C1041.89 801.569 1048.19 804.604 1054.66 807.197L1054.51 807.615C1028.45 797.389 1004.18 783.095 980.692 767.951C934.007 737.078 890.559 701.178 851.503 661.066C832.033 641.017 813.902 619.744 794.06 600.127C784.175 590.318 773.89 580.83 763.465 571.729C731.755 544.575 697.923 519.265 666.236 492.128C623.719 455.899 582.057 418.706 537.029 385.537C476.067 338.788 409.891 299.306 346.75 255.609C329.389 243.84 312.294 231.687 295.518 219.099C273.089 202.523 251.579 184.577 228.325 169.242C205.159 153.935 179.662 142.257 153.263 133.72C140.236 129.28 125.961 126.113 113.39 120.414C107.043 117.709 100.535 114.215 94.6071 110.696C64.6267 92.286 40.233 65.8326 20.8197 36.7073C13.0852 25.04 5.95734 12.9681 0.0501091 0.273704L0.451406 0.0983672L0.439662 0.0897017L0.431022 0.101419Z" fill="#73206F"/>
<path d="M0.442763 0.110087C23.7579 49.2969 60.3742 97.5611 110.16 121.893C118.978 126.311 129.923 129.814 139.353 132.961C149.344 136.305 159.257 139.953 168.894 144.196C188.286 152.35 206.867 163.079 223.761 175.555C251.641 196.296 277.631 220.61 305.385 241.474C355.713 279.185 407.973 314.424 457.888 352.718C502.083 387.066 548.632 418.492 589.767 456.62C630.258 495.179 670.884 533.531 715.246 567.676C737.334 584.961 758.23 603.887 777.328 624.513C796.458 645.146 813.303 667.574 831.5 688.66C867.993 730.942 911.652 766.436 956.157 799.944C973.03 812.35 990.195 824.409 1008.1 835.313C1014.07 838.951 1020.11 842.496 1026.3 845.704L1026.12 846.096C1001.11 833.457 977.702 817.916 954.865 801.746C909.553 768.84 865.418 733.648 828.341 691.443C807.651 667.811 788.804 642.492 766.886 619.985C760.018 612.945 751.681 604.948 744.343 598.251C735.794 590.442 721.688 578.735 712.439 571.261C668.232 536.832 627.542 498.198 587.43 459.175C567.072 440.084 545.668 422.143 523.442 405.192C479.043 371.146 435.265 336.307 389.492 304.149C355.491 279.584 320.067 256.851 287.024 230.962C253.909 205.491 223.556 175.931 186.234 156.583C174.148 150.3 160.847 144.534 148.077 139.794C141.642 137.332 134.649 135.184 128.329 132.935C109.848 126.865 92.6996 117.193 77.4929 105.109C54.1358 86.4714 34.889 62.9975 19.3647 37.5739C12.0859 25.6083 5.43419 13.2349 0.053186 0.294122L0.466255 0.127411L0.442763 0.110087Z" fill="#73206F"/>
<path d="M0.442763 0.110087C21.8793 50.4674 56.6781 99.8929 105.673 126.379C117.972 133.11 131.356 137.215 144.34 142.403C153.943 146.421 164.014 150.911 173.157 155.677C207.86 173.437 235.72 201.141 264.554 226.737C280.227 240.524 296.645 253.99 313.471 266.362C358.969 299.115 403.966 332.841 446.01 370.007C487.912 407.414 535.774 437.723 574.733 478.434C594.322 498.517 612.808 519.581 633.127 538.896C653.233 558.327 674.601 576.441 696.504 593.879C705.383 601.043 720.164 613.483 728.472 621.495L736.031 628.9L739.806 632.609L750.648 644.193C771.778 667.696 789.331 694.253 808.625 719.139C843.037 763.457 887.531 798.407 930.638 833.838C952.116 851.58 975.959 868.527 997.704 884.58C991.745 880.857 985.925 876.946 980.157 872.965C962.833 861.023 945.901 848.501 929.283 835.576C885.327 800.733 840.341 766.056 805.337 721.753C783.523 694.211 764.591 664.68 740.124 639.604C738.345 637.64 734.719 633.951 732.807 632.142C728.092 627.469 722.426 622.022 717.581 617.797C688.702 592.458 657.478 569.071 630.276 541.852C620.373 532.265 610.175 521.7 600.878 511.635C572.79 480.355 543.415 450.355 509.856 424.846C487.739 407.576 466.199 389.572 445.015 371.159C421.326 350.391 397.111 330.087 371.826 311.261C349.49 294.337 326.143 278.661 303.504 262.148C283.814 247.537 264.747 231.737 246.479 215.42C223.23 194.324 199.27 173.701 171.378 159.024C162.282 154.22 152.432 149.748 142.978 145.749C129.982 140.48 116.404 136.196 104.089 129.362C66.7207 109.02 38.5463 75.0298 17.9239 38.3966C11.0891 26.124 4.91663 13.4696 0.0414437 0.285455L0.457588 0.139164L0.434096 0.121841L0.442763 0.110087Z" fill="#73206F"/>
<path d="M0.445852 0.13049C17.8902 46.3113 46.1113 90.8862 85.9699 120.786C93.7446 126.374 101.852 131.61 110.438 135.802C115.94 138.718 133.32 145.715 139.439 148.36L153.823 155.215C156.548 156.536 164.935 161.27 167.849 162.802L176.899 168.406C200.95 183.496 220.977 203.92 241.15 223.581C256.139 238.223 271.818 252.739 288.182 265.786C315.577 287.727 345.101 307.396 371.95 330.077C393.771 347.945 413.959 367.708 434.108 387.352C459.078 412.236 486.787 433.974 514.269 455.944C518.635 459.761 525.982 465.904 530.154 469.96C561.574 498.368 585.619 533.754 615.258 563.84C639.307 589.188 667.252 611.39 694.096 633.759C701.927 640.82 709.839 648.214 717.059 655.858L720.756 659.672L724.271 663.66C738.307 679.249 751.048 697.037 762.444 714.559C784.958 750.176 810.036 784.185 841.979 811.982C883.594 849.558 927.782 886.62 969.297 923.053C958.248 914.307 947.332 905.405 936.453 896.477C918.106 881.497 890.204 857.858 871.724 842.146C839.299 814.954 807.064 786.888 782.536 752.034C761.922 723.382 744.722 692.608 720.893 666.716L717.428 662.783L713.761 659.027C709.077 654.141 703.65 648.689 698.786 644.341C670.07 618.561 638.609 595.126 612.311 566.706C592.659 546.559 575.384 523.905 557.106 502.632C530.197 469.901 495.655 445.063 463.922 417.349C453.393 407.971 443.104 398.317 433.043 388.451C415.515 371.229 397.999 353.745 379.116 337.99C360.432 322.163 340.56 307.111 320.553 293.028C303.356 280.89 286.101 268.239 270.044 254.604C248.397 236.574 228.847 216.068 208.059 197.167C195.089 185.518 180.853 175.093 165.964 166.071L156.775 160.999C155.23 160.168 153.737 159.266 152.161 158.502C146.537 155.751 142.974 154.067 137.984 151.637C127.401 147.078 109.448 139.948 99.5551 133.741C62.8767 111.823 35.7939 76.7705 16.5122 39.2045C10.1214 26.6248 4.40773 13.6925 0.0383704 0.265033L0.457588 0.139164L0.445852 0.13049Z" fill="#73206F"/>
<path d="M0.445852 0.13049C19.6359 57.2965 55.7385 114.716 110.589 143.073C113.347 144.546 131.402 152.693 134.646 154.27C160.281 166.72 184.102 183.18 204.082 203.569C226.378 226.301 247.239 250.439 271.517 271.098C275.799 274.98 283.243 280.869 287.81 284.635C292.926 288.788 307.64 299.621 313.174 303.846C338.69 322.68 363.781 343.122 386.007 365.802C398.462 378.395 410.212 391.7 422.16 404.734C443.383 428.505 467.651 449.301 492.466 469.158C500.682 475.869 508.755 483.019 516.266 490.515C536.73 510.174 553.371 533.666 570.441 556.133C578.791 567.039 588.12 578.559 597.404 588.741C620.635 615.098 648.659 637.612 675.511 660.241C678.174 662.604 680.688 665.147 683.271 667.595C689.582 673.373 696.08 680.594 701.846 686.84L705.257 690.968L712.059 699.228L718.423 707.837C734.945 730.407 748.312 756.542 763.444 779.99C778.581 803.751 797.003 825.293 817.821 844.325C859.263 882.48 903.05 920.823 940.908 961.502C920.754 941.619 899.83 922.509 878.912 903.441C861.221 887.349 841.498 869.833 823.426 853.987C799.25 833.041 777.316 809.253 759.923 782.306C740.493 752.589 724.967 720.675 701.779 693.914L698.422 689.861L694.832 685.999C687.842 678.216 680.016 670.705 672.414 663.703C645.487 640.857 617.637 618.18 594.348 591.508C590.716 587.507 583.855 579.475 580.496 575.276C566.993 558.865 555.006 541.161 541.962 524.473C524.796 502.062 504.746 482.039 482.753 464.28C460.721 446.402 440.016 426.874 421.037 405.791C411.5 395.314 402.165 384.66 392.44 374.389C373.127 353.857 351.466 335.183 329.029 318.149C315.912 308.077 299.375 296.789 286.222 286.69C266.685 271.577 247.875 254.715 230.817 236.88C220.956 226.671 211.393 216.229 201.405 206.29C181.474 186.3 158.37 169.951 133.059 157.504C125.566 153.919 106.938 145.638 99.6669 140.892C61.3292 117.733 33.8394 80.0603 15.109 40.0006C9.15362 27.1257 3.89571 13.895 0.0352555 0.244666L0.466255 0.127411L0.454509 0.118749L0.445852 0.13049Z" fill="#73206F"/>
<path d="M0.457588 0.139164C16.3725 54.0743 46.032 106.707 92.6518 139.635C104.258 147.994 122.068 155.762 134.652 162.721C138.142 164.751 142.863 167.471 146.297 169.478C152.574 173.581 160.415 178.71 166.18 183.36C189.173 200.696 206.866 223.695 225.696 245.103C237.227 258.41 249.869 271.34 262.995 283.122C267.184 287.081 274.685 293.138 279.209 296.963C280.229 297.842 282.286 299.504 283.375 300.289C307.163 318.465 332.415 336.869 353.876 357.734C363.907 367.197 374.16 378.474 383.134 389.025C392.38 399.922 401.121 411.208 410.155 422.22C427.976 444.479 448.562 464.318 470.699 482.201C473.297 484.407 480.459 490.432 483.008 492.583C484.018 493.4 486.08 495.228 487.012 496.152C494.244 502.772 501.278 509.807 507.934 517.036C530.111 541.601 546.448 570.742 566.334 596.989L572.81 605.444L579.611 613.632C602.048 641.017 630.087 663.978 657.017 686.845C662.142 691.748 667.458 696.883 672.345 702.009L679.496 710.092C680.671 711.448 681.905 712.775 683.052 714.146L686.359 718.416L692.953 726.958L699.047 735.857C700.046 737.355 701.121 738.8 702.041 740.33L704.855 744.925C715.745 762.345 725.891 783.259 735.814 801.253C750.981 829.35 770.337 855.061 793.761 876.83C804.014 886.656 814.763 896.178 825.022 906.045C845.682 925.758 865.929 945.908 885.098 967.077C894.663 977.665 904.103 988.397 912.818 999.718L912.473 999.989C885.255 967.012 854.285 937.304 823.083 908.132C812.854 898.595 801.636 888.945 791.447 879.329C770.363 859.92 751.912 837.432 737.485 812.636C719.263 781.87 705.36 748.887 682.81 721.237C679.424 716.583 672.898 709.595 669.012 705.153C664.19 700.11 658.95 695.068 653.902 690.258L637.822 676.334C604.577 649.244 574.534 617.664 550.711 581.879C542.66 570.051 535.065 557.998 526.858 546.381C510.787 522.928 491.166 502.151 469.222 484.03C461.569 477.589 452.377 469.596 445.154 462.693C411.08 431.023 387.047 390.334 352.869 358.804C342.838 349.268 331.413 339.483 320.465 330.993C308.161 321.268 292.253 310.135 279.703 300.645C276.007 297.665 268.817 291.801 265.129 288.81C260.896 285.108 256.947 281.562 253.077 278.128C231.87 258.937 213.799 236.548 194.831 215.328C182.919 202.193 169.772 190.269 155.391 179.991L146.583 174.057C145.841 173.564 145.136 173.045 144.368 172.587L132.915 165.863C120.488 158.911 102.361 150.837 90.7686 142.361C55.4684 117.345 30.4492 80.2069 13.7758 40.7758C8.24401 27.5969 3.43627 14.1 0.0612377 0.209432L0.48357 0.10393L0.457588 0.139164Z" fill="#73206F"/>
<path d="M0.448904 0.150941C15.7252 59.7964 48.1638 119.898 101.789 152.917C104.345 154.639 122.202 164.235 125.328 165.996C131.127 169.149 137.015 173.237 142.662 176.695C146.489 179.571 153.313 184.259 156.843 187.243C181.193 206.304 198.937 231.915 218.088 255.716C233.604 275.225 251.519 293.348 270.71 309.276C279.005 316.1 287.675 322.565 296.184 329.149C304.512 335.29 313.47 342.765 321.464 349.458C340.475 365.924 358.035 384.456 372.982 404.687C390.129 427.663 405.509 452.274 425.651 472.837C426.685 473.944 430.165 477.561 431.219 478.664C433.849 481.148 440.317 487.277 442.927 489.763C449.661 495.582 458.67 503.258 465.402 509.129C471.174 513.892 477.768 520.64 483.094 525.909C484.888 527.902 486.885 530.136 488.529 531.965C495.679 539.703 502.55 548.902 508.599 557.568C524.76 581.341 538.086 606.992 555.19 630.101C574.404 655.907 597.269 678.949 622.248 699.272C630.091 705.727 639.279 713.825 646.417 721.137C659.063 734.161 670.378 748.522 679.77 764.04C695.017 788.806 705.523 815.822 718.846 841.109C734.98 873.254 758.681 900.574 785.521 924.3C811.643 949.073 836.753 975.022 859.273 1003.16C868.212 1014.44 876.973 1025.93 884.432 1038.26L884.049 1038.48C880.24 1032.41 875.997 1026.58 871.657 1020.86C849.771 992.362 824.91 966.271 799.061 941.373C793.82 936.456 788.688 931.439 783.34 926.643C755.966 903.05 731.726 875.405 715.121 843.111C701.451 817.804 691.065 790.822 675.914 766.417C661.109 741.886 641.477 720.902 619.339 702.8C594.264 682.189 571.211 658.736 551.915 632.526C545.796 623.881 539.347 614.43 533.925 605.429C526.367 593.13 519.334 580.584 511.66 568.491C496.719 544.023 477.592 522.378 455.687 503.886C433.568 485.364 413.631 464.154 396.955 440.637C380.283 417.212 364.382 393.16 343.955 372.786C329.011 357.543 312.173 343.368 294.908 330.854C287.015 325.034 279.008 318.948 271.141 313.019C268.213 310.571 263.382 306.573 260.74 304.353C244.278 290.455 228.889 274.684 215.264 258.021C197.128 235.819 180.62 212.099 158.505 193.67C153.277 188.981 147.106 184.612 141.617 180.546L140.536 179.749L132.644 174.69C124.508 169.198 110.641 162.109 102.275 157.299C59.1617 131.615 29.9599 87.7312 12.3671 41.6041C7.25892 28.1213 2.88962 14.3495 0 0.218705L0.425412 0.133618L0.448904 0.150941Z" fill="#73206F"/>
<path d="M0.46065 0.159603C13.5783 60.6422 44.8058 122.878 97.5304 157.806C106.164 163.557 121.721 171.748 130.042 177.775C148.322 189.823 164.74 205.084 178.34 222.273C189.584 236.582 199.61 251.879 210.433 266.367C221.047 280.793 233.138 294.693 246.088 307.107C250.191 311.329 257.712 317.655 262.188 321.644C267.25 326.066 282.243 337.43 287.791 341.883C291.072 344.466 297.689 349.436 300.632 352.06C324.54 371.72 345.791 394.641 362.72 420.594C372.775 435.73 381.856 451.472 392.238 466.361C403.534 482.666 416.889 497.826 431.534 511.163C434.219 513.523 441.022 519.519 443.765 521.922C466.275 540.552 485.162 563.506 499.49 588.954C506.806 601.582 513.41 614.536 520.554 627.127C541.359 665.309 570.217 698.372 603.874 725.837L612.221 732.936C631.562 749.79 648.086 770.023 660.518 792.459C681.948 830.776 692.783 873.551 718.272 909.314C730.134 927.015 746.32 942.885 761.83 957.386C769.714 964.94 777.39 972.703 784.884 980.64C802.255 998.96 819.116 1018.74 833.6 1039.42C841.889 1051.37 849.905 1063.59 856.067 1076.8L855.666 1076.97C849.243 1063.97 840.994 1051.94 832.48 1040.23C817.55 1019.97 800.532 1000.53 782.923 982.511C770.332 969.365 756.923 957.302 743.703 944.762C722.525 924.522 705.625 900.005 692.956 873.66C680.21 847.567 670.907 819.879 656.573 794.662C642.578 769.352 623.299 747.594 600.937 729.328C567.178 701.46 537.885 667.732 517.184 628.993C503.285 603.553 491.018 577.106 472.501 554.659C463.425 543.434 453.151 533.194 442.204 523.744C419.992 504.881 400.383 482.808 384.854 458.178C369.273 433.692 354.818 408.368 335.036 386.947C327.705 378.912 319.923 371.343 311.895 364.008C308.488 361.152 300.817 354.661 297.332 351.765C287.443 344.273 272.458 332.97 262.592 325.423C258.86 322.271 251.746 316.156 248.034 313.001C244.459 309.586 239.5 304.877 236.155 301.667C225.993 291.201 216.222 280.28 207.521 268.57C194.412 251.182 182.63 232.832 168.365 216.422C156.439 202.914 142.966 190.84 127.969 180.833C119.91 175.016 108.232 168.671 100.238 163.7C56.3598 136.546 27.5393 90.4236 11.0549 42.4492C6.36165 28.6741 2.43946 14.6157 0.0148515 0.247746L0.443342 0.183073L0.46065 0.159603Z" fill="#73206F"/>
<path d="M0.452009 0.17132C12.6446 67.3675 46.3724 136.196 107.083 171.63C129.299 184.931 149.727 201.59 165.788 222.007C179.494 239.347 190.311 258.834 202.745 276.94C219.043 301.266 239.163 322.792 262.056 341.051C268.279 345.966 282.188 356.785 288.052 361.472C292.727 365.264 299.968 372.017 304.639 376.06C307.536 378.993 313.607 385.047 316.341 387.807C318.678 390.219 324.915 397.574 327.301 400.239C330.769 404.537 334.06 408.976 337.406 413.365C340.249 417.673 343.934 422.783 346.579 427.162C362.212 451.923 374.255 479.166 392.259 502.358C394.008 504.88 397.192 508.479 399.182 510.871C404.996 517.913 411.399 524.502 418.043 530.761C427.411 539.427 437.578 547.722 446.37 556.997C461.838 572.881 474.269 591.655 484.332 611.329C497.688 637.456 509.122 664.54 526.042 688.564C542.611 712.619 563.128 733.731 585.561 752.393C593.669 759.152 602.744 767.403 609.816 775.247C617.207 783.397 624.213 792.461 630.203 801.7C650.499 832.727 660.548 869.14 674.797 902.614C686.185 929.465 701.873 954.52 722.544 975.201C734.431 986.722 750.224 1001.99 761.243 1014.47C773.301 1027.68 785.547 1042.81 795.906 1057.41C808.262 1075.48 820.319 1094.61 827.691 1115.33L827.271 1115.46C824.76 1108.58 821.536 1101.96 818.056 1095.52C802.36 1066.61 781.596 1040.35 759.244 1016.29C746.824 1002.69 733.373 990.419 720.113 977.613C698.947 956.84 682.69 931.401 670.908 904.296C660.513 880.697 652.902 856.197 642.085 832.849C634.419 816.392 625.072 800.617 613.497 786.608C606.648 778.167 598.919 770.328 590.879 763.058C576.943 751.096 562.857 738.968 550.408 725.456C535.266 709.251 521.862 691.354 510.84 672.096C492.423 640.389 481.041 604.751 458.553 575.516C453.196 568.321 446.921 561.265 440.678 554.83C436.9 551.101 432.678 547.063 428.697 543.584C406.343 524.399 387.132 501.368 372.688 475.708C365.275 462.991 358.53 449.932 351.184 437.247C341.98 421.523 331.167 406.407 318.853 392.958C314.467 387.839 308.136 382.065 303.467 377.281C299.17 373.641 291.356 366.483 286.806 362.964C266.863 347.787 244.786 331.742 227.636 313.367C206.94 292.251 191.645 266.616 175.562 242.122C161.499 220.839 144.2 201.683 123.425 186.799C111.724 178.026 98.4607 171.127 86.8266 162.24C48.5359 132.771 23.7642 88.8543 9.75387 43.2299C5.47244 29.1422 1.96826 14.8121 0.0204131 0.215613L0.46065 0.159603L0.452009 0.17132Z" fill="#73206F"/>
<path d="M0.452009 0.17132C9.1651 59.5449 34.5813 120.686 80.626 160.64C91.5111 170.371 104.988 177.988 116.722 186.569C139.571 203.092 158.481 224.613 172.592 248.977C187.605 274.603 201.426 300.91 221.447 323.015C231.295 334.029 242.11 344.198 253.585 353.548C262.214 360.509 271.305 367.141 279.788 374.375C293.991 386.443 307.139 399.819 318.426 414.685C345.853 450.156 357.439 495.134 385.777 529.934C392.714 538.602 400.363 546.672 408.498 554.23C422.492 566.434 436.317 579.457 446.954 594.787C473.195 631.177 483.326 676.333 508.202 713.493C524.212 738.332 544.676 760.057 567.318 779.001C590.633 797.843 609.661 822.352 622.089 849.662C640.324 888.722 647.748 931.302 669.394 968.49C677.624 982.879 687.637 996.227 699.142 1008.19L714.927 1023.89C728.008 1036.89 740.635 1051.17 751.943 1065.76C753.084 1067.24 754.281 1068.66 755.377 1070.18L763.59 1081.49L765.141 1083.81L771.313 1093.15L777.092 1102.72C778.966 1105.94 780.718 1109.24 782.525 1112.5C789.37 1125.66 795.75 1139.34 799.308 1153.82L798.882 1153.9C795.06 1139.61 788.402 1126.09 781.32 1113.15C775.883 1103.36 768.369 1091.91 761.884 1082.7C759.57 1079.62 755.904 1074.7 753.561 1071.56C751.522 1068.91 745.319 1061.37 743.084 1058.59C738.326 1053.29 733.076 1046.94 728.272 1042.02C719.935 1032.99 705.752 1019.39 696.695 1010.57C680.963 994.532 667.898 975.78 658.088 955.567C638.296 915.595 630.987 870.399 607.672 832.106C606.504 830.248 604.327 826.83 603.245 825.126C602.377 823.869 599.462 819.707 598.516 818.358C588.878 805.141 576.896 793.061 564.381 782.491C538.644 760.811 515.808 735.343 498.878 706.146C485.64 683.622 476.623 658.865 466.075 635.153C460.035 621.654 453.156 608.532 444.63 596.463C434.3 581.233 420.673 568.138 406.968 555.911C398.849 548.184 391.216 539.945 384.319 531.125C365.668 507.655 354.11 479.827 340.728 453.319C327.407 426.801 309.192 402.837 286.988 383.128C275.902 373.177 263.865 364.591 252.072 355.477C228.559 337.051 207.915 314.758 192.064 289.384C184.059 276.755 177.001 263.63 169.317 250.984C154.361 225.527 134.405 203.089 110.074 186.289C102.264 180.747 98.8246 178.773 91.615 173.746C85.4743 169.164 79.7459 164.686 74.2187 159.468C46.6276 133.883 27.5645 100.521 15.1034 65.4102C7.7578 44.3138 2.34393 22.4666 0.0031247 0.239058L0.434694 0.194801L0.452009 0.17132Z" fill="#73206F"/>
<path d="M0.463755 0.179982C7.26511 59.1952 29.7558 119.139 72.6404 161.313C77.7639 166.414 83.8297 171.468 89.5494 175.957C93.1752 178.54 99.9311 183.395 103.321 185.732C123.469 199.919 141.506 217.534 154.949 238.304C167.367 257.268 176.393 278.299 187.543 297.851C194.93 310.875 203.33 323.287 213.004 334.734C222.738 346.1 233.562 356.528 245.14 366.082C253.861 373.165 263.047 379.939 271.557 387.357C291.51 404.734 308.826 425.244 321.377 448.602C339.351 481.596 349.236 518.922 372.477 548.93C379.246 557.873 386.863 566.282 395.017 573.962C397.802 576.505 404.84 582.946 407.531 585.42C442.662 618.631 453.21 655.304 470.453 698.29C486.914 740.247 514.449 777.048 549.157 805.669C553.563 809.408 561.797 816.857 565.887 821.196C580.383 836.382 592.036 854.146 600.658 873.266C631.972 947.384 626.245 996.708 691.75 1057.34C697.161 1062.62 702.109 1068.35 707.164 1073.96C729.492 1099.53 748.875 1128.1 761.517 1159.72C765.588 1170.28 769.265 1181.06 770.954 1192.29L770.514 1192.35C768.604 1181.24 764.712 1170.56 760.455 1160.15C744.144 1122.15 718.696 1088.59 689.469 1059.57C659.043 1031.39 640.944 1004.96 627.189 965.845C616.994 937.499 610.614 907.888 598.781 880.238C592.924 866.566 585.772 853.37 576.871 841.441C570.316 832.402 562.681 824.216 554.583 816.558C540.409 804.131 526.03 791.588 513.715 777.304C498.718 760.191 485.925 741.023 476.068 720.504C462.702 693.408 455.021 663.962 441.687 636.945C435.143 623.492 426.963 610.879 417.284 599.464C410.374 591.178 401.387 582.956 393.446 575.577C385.299 567.739 377.687 559.152 370.954 550.036C343.44 513.651 334.725 467.091 308.262 430.139C297.523 414.752 284.564 400.972 270.276 388.823C261.647 381.517 252.519 374.985 243.597 367.953C231.795 358.507 220.694 348.109 210.674 336.714C200.737 325.254 191.942 312.786 184.391 299.641C159.138 253.303 146.889 220.905 101.224 188.626L96.6525 185.382L87.4181 178.7C51.1224 150.829 26.9845 109.791 13.2544 66.639C6.47091 45.0507 1.65752 22.7581 0.00248262 0.166157L0.437158 0.142279L0.472396 0.168264L0.463755 0.179982Z" fill="#73206F"/>
<path d="M0.455107 0.191709C5.50213 60.2335 26.5982 121.651 68.824 165.677C79.2192 176.859 91.6584 185.688 103.777 194.877C147.367 228.889 157.222 261.534 180.014 308.232C195.285 338.943 218.348 365.086 245.604 385.765C265.307 400.874 283.615 418.49 297.396 439.22C324.764 478.779 330.786 528.99 359.107 567.947C365.703 577.198 373.288 585.872 381.487 593.713C386.214 598.196 393.685 604.883 398.039 609.652C405.956 617.974 413.116 627.296 419.096 637.09C435.327 663.325 443.046 693.506 453.693 722.076C472.084 772.997 498.601 805.694 539.656 840.119C545.126 845.44 550.678 851.165 555.389 857.195C567.59 872.174 576.831 889.593 583.719 907.524C610.097 981.229 605.953 1032.39 668.636 1090.99C697.737 1121.32 722.231 1157.05 735.365 1197.23C738.806 1208.18 741.689 1219.37 742.551 1230.86L742.117 1230.88C741.042 1219.51 737.932 1208.4 734.294 1197.6C720.366 1158.03 695.681 1122.9 666.363 1093.22C635.336 1063.96 618.314 1037.46 605.411 996.879C596.015 967.817 590.491 937.587 579.518 909.139C568.849 880.77 551.43 855.309 528.049 835.892C504.649 815.936 484.003 792.391 468.969 765.443C461.412 752.059 455.282 737.822 450.073 723.395C437.467 687.67 428.274 649.676 403.654 619.939C402.408 618.457 399.348 614.86 398.131 613.437C396.924 612.148 393.544 608.567 392.286 607.223L388.182 603.272C380.046 595.641 371.251 587.035 364.446 578.264C352.397 563.325 343.198 546.191 335.884 528.544C324.048 499.423 315.371 468.771 297.706 442.439C289.868 430.641 280.579 419.459 270.405 409.6C259.685 399.03 246.927 389.822 235.135 380.51C211.131 361.323 190.823 337.321 176.783 309.91C169.66 296.282 163.685 282.179 157.034 268.501C144.102 240.964 125.59 216.419 101.52 197.691C89.3515 188.373 76.8289 179.338 66.4004 168.005C45.0566 145.776 29.4734 118.514 18.6791 89.7992C13.2341 75.4698 9.06347 60.6663 5.93907 45.6736C2.84681 30.6864 0.602315 15.5086 0.0290994 0.203834L0.475521 0.188618L0.463755 0.179982L0.455107 0.191709Z" fill="#73206F"/>
<path d="M713.728 1269.33C712.208 1238.39 700.541 1208.67 685.31 1182.02C683.732 1179.31 682.285 1176.85 680.932 1174.53C680.432 1173.7 679.873 1172.91 679.344 1172.11L672.911 1162.48C671.214 1159.82 667.947 1155.82 666.016 1153.2C663.636 1150.15 661.453 1146.97 658.84 1144.11C650.749 1134.09 636.357 1119.67 627.167 1110.17C605.894 1087.04 592.263 1057.91 583.88 1027.9C571.209 983.604 566.7 935.741 540.983 896.403C532.608 883.538 522.381 871.882 510.668 861.848C498.9 851.666 487.928 840.529 478.042 828.508C458.082 804.527 443.941 776.244 434.473 746.64C427.145 724.56 421.754 701.895 413.053 680.325C404.383 658.886 391.584 639.062 374.709 623.192L366.301 615.142C363.845 612.842 360.504 609.183 358.161 606.729L354.356 602.274C350.696 598.016 346.927 592.898 343.759 588.242C319.206 552.662 313.506 508.58 294.54 470.413C284.341 449.768 270.01 431.333 252.983 415.84C247.659 410.936 240.847 405.568 235.212 401.159C219.646 389.318 205.219 375.906 193.122 360.441C183.476 348.071 175.46 334.475 168.854 320.268C158.931 299.102 151.916 277.016 140.775 256.566C130.018 236.235 114.915 218.281 97.3308 203.52C85.2078 193.747 72.8294 184.147 62.5896 172.336C31.1563 137.429 13.0378 92.3099 4.78144 46.5057C3.40476 38.8561 2.30509 31.1751 1.49109 23.451C0.688824 15.7356 0.11101 7.98628 0.0612377 0.209432L0.499013 0.205941C0.708935 7.93775 1.43822 15.6538 2.39197 23.3359C10.6471 87.683 37.6825 153.317 90.6181 193.295C106.135 205.082 120.651 218.741 132.077 234.599C150.958 259.724 159.921 290.333 172.956 318.345C179.454 332.254 187.293 345.502 196.761 357.596C208.619 372.648 222.775 385.861 237.967 397.571C243.702 402.09 250.75 407.777 255.977 412.592C276.227 431.114 292.524 453.917 303.063 479.29C322.073 524.921 325.363 565.631 360.14 604.98C364.497 609.916 371.6 616.857 376.39 621.477C387.62 632.314 397.125 644.924 404.689 658.569C419.745 685.931 426.191 716.805 435.777 746.224C440.565 760.903 446.332 775.361 453.622 788.984C468.048 816.389 488.613 840.165 512.278 860.008C525.738 871.239 537.55 884.681 546.728 899.678C562.253 924.559 570.005 953.514 576.546 981.775C590.169 1041.87 599.331 1080.35 645.721 1124.72C672.35 1152.92 694.203 1186.51 706.076 1223.59C708.35 1231.03 710.434 1238.54 711.802 1246.2C713.24 1253.84 714.224 1261.58 714.212 1269.36L713.771 1269.35L713.728 1269.33Z" fill="#73206F"/>
</g>
</g>
</svg>
