<svg width="182" height="1200" viewBox="0 0 182 1200" fill="none" xmlns="http://www.w3.org/2000/svg">
<path d="M-1.6588 -125.254C-24.3743 -70.9181 -26.3262 -5.75381 -6.06019 51.3908C-0.862234 66.2471 5.86239 80.7254 13.7143 94.2113C20.106 105.574 27.6885 116.407 35.4021 126.72C54.1916 151.579 73.1091 177.187 90.4883 203.173C110.458 233.731 130.676 266.59 136.397 303.807C138.669 316.953 138.839 330.233 139.772 343.4C140.675 351.205 142.546 358.828 144.751 366.376C162.958 425.85 208.474 499.26 158.57 552.315C116.022 602.183 101.872 683.971 112.373 751.114C114.305 761.408 118.433 771.227 122.428 780.963C126.504 790.696 130.819 800.333 135.101 809.996C152.078 848.666 169.329 888.005 176.07 930.21C181.312 964.014 177.52 994.406 155.221 1019.36C121.874 1057.11 79.4066 1083.66 43.7639 1118.59C2.1514 1157.99 -32.7935 1208.13 -25.3969 1272.19C-23.9829 1285.04 -22.3005 1298.64 -20.0422 1311.39C-15.6866 1337.28 -8.85538 1363.07 3.8264 1386.04C8.82996 1395.32 14.3801 1404.38 18.52 1414.2C24.8438 1428.98 27.6468 1445.06 29.1348 1460.99C29.346 1463.64 29.6029 1466.28 29.7675 1468.94L30.2134 1476.88C31.7841 1505.43 19.3459 1528.51 -2.66656 1543.61C-27.0769 1560.82 -56.0187 1568.66 -82.1973 1581.98C-99.2023 1590.61 -117.312 1603.61 -119.782 1625.44L-120.124 1625.37C-117.893 1603.26 -99.7281 1589.84 -82.6944 1580.91C-56.6585 1567.18 -27.9866 1559.11 -3.8282 1541.79C20.8295 1524.05 30.3399 1501.12 27.0941 1469.05C25.7571 1450.86 23.1391 1432.32 15.8467 1415.45C9.55008 1400.92 0.366164 1387.94 -5.95607 1373.37C-18.9463 1344.11 -24.1771 1311.99 -27.9881 1280.4C-42.5411 1187.37 25.4236 1125.8 86.4803 1076.5C113.282 1053.68 154.469 1025.28 168.84 991.823C189.606 937.063 155.252 862.461 133.404 810.819C129.19 801.129 124.931 791.452 120.909 781.655C116.968 771.842 112.871 761.959 110.943 751.35C101.877 690.073 112.401 620.489 144.16 569.715C147.478 564.392 151.37 559.125 155.216 554.236C157.355 551.703 160.363 548.148 162.439 545.541C175.328 530.101 181.078 508.911 179.428 487.932C176.38 445.339 154.738 407.354 142.235 367.164C139.132 356.959 136.676 346.292 136.388 335.615C135.751 317.265 133.702 298.862 128.011 281.322C122.417 263.83 113.843 247.354 104.699 231.627C91.5977 209.414 76.2309 187.128 61.2481 166.335C49.2624 149.522 36.0687 132.587 24.104 115.736C12.0779 98.4607 2.18477 79.4931 -5.43208 59.6451C-20.7231 19.9636 -25.1255 -23.9902 -18.8796 -65.5653C-16.5582 -81.1396 -12.9156 -96.4571 -7.74004 -111.11C-6.00296 -115.991 -4.1457 -120.813 -1.95191 -125.47L-1.63788 -125.293L-1.63555 -125.255L-1.6588 -125.254Z" fill="#FAECC8"/>
<path d="M-15.2673 -127.041C-37.9828 -72.7046 -39.9347 -7.54037 -19.6687 49.6043C-14.4707 64.4605 -7.74606 78.9388 0.105818 92.4248C6.49748 103.787 14.0801 114.62 21.7936 124.934C40.5831 149.792 59.5006 175.4 76.8798 201.386C96.8499 231.944 117.068 264.804 122.789 302.02C125.061 315.167 125.231 328.447 126.164 341.613C127.067 349.419 128.938 357.041 131.142 364.589C149.35 424.064 194.865 497.473 144.962 550.528C102.413 600.397 88.2634 682.184 98.7648 749.327C100.697 759.622 104.825 769.441 108.82 779.177C112.896 788.909 117.211 798.546 121.493 808.209C138.469 846.88 155.72 886.219 162.462 928.424C167.704 962.228 163.911 992.619 141.612 1017.57C108.266 1055.32 65.7982 1081.87 30.1555 1116.8C-11.457 1156.2 -46.4019 1206.34 -39.0054 1270.4C-37.5914 1283.25 -35.909 1296.86 -33.6506 1309.6C-29.2951 1335.5 -22.4639 1361.29 -9.78208 1384.25C-4.77851 1393.53 0.771652 1402.6 4.91151 1412.42C11.2353 1427.2 14.0383 1443.28 15.5263 1459.2C15.7375 1461.85 15.9944 1464.5 16.159 1467.15L16.6049 1475.1C18.1756 1503.64 5.73737 1526.72 -16.275 1541.82C-40.6854 1559.03 -69.6272 1566.87 -95.8058 1580.19C-112.811 1588.82 -130.92 1601.83 -133.391 1623.65L-133.733 1623.58C-131.502 1601.47 -113.337 1588.05 -96.3028 1579.13C-70.267 1565.39 -41.5951 1557.33 -17.4367 1540C7.22096 1522.27 16.7315 1499.33 13.4856 1467.27C12.1486 1449.08 9.53064 1430.53 2.23822 1413.66C-4.05843 1399.13 -13.2423 1386.15 -19.5645 1371.59C-32.5548 1342.33 -37.7855 1310.2 -41.5966 1278.61C-56.1495 1185.59 11.8151 1124.01 72.8718 1074.71C99.6736 1051.9 140.861 1023.5 155.232 990.036C175.998 935.276 141.643 860.674 119.795 809.033C115.582 799.342 111.323 789.666 107.301 779.868C103.359 770.055 99.2621 760.172 97.3343 749.564C88.2687 688.287 98.7925 618.702 130.551 567.929C133.869 562.606 137.762 557.339 141.608 552.45C143.747 549.916 146.755 546.361 148.831 543.755C161.72 528.314 167.469 507.124 165.819 486.146C162.772 443.553 141.129 405.567 128.627 365.377C125.524 355.172 123.068 344.506 122.779 333.829C122.143 315.479 120.093 297.075 114.403 279.536C108.808 262.043 100.235 245.568 91.0904 229.84C77.9892 207.628 62.6224 185.341 47.6396 164.548C35.6539 147.736 22.4603 130.801 10.4955 113.95C-1.5305 96.6741 -11.4237 77.7065 -19.0406 57.8585C-34.3316 18.1771 -38.7339 -25.7768 -32.488 -67.3519C-30.1667 -82.9262 -26.5241 -98.2436 -21.3485 -112.897C-19.6114 -117.778 -17.7542 -122.599 -15.5604 -127.257L-15.2464 -127.079L-15.244 -127.042L-15.2673 -127.041Z" fill="#FAECC8"/>
<path d="M-28.8867 -128.831C-51.6022 -74.4947 -53.5541 -9.3305 -33.2881 47.8141C-28.0901 62.6704 -21.3655 77.1487 -13.5136 90.6346C-7.1219 101.997 0.460644 112.83 8.1742 123.144C26.9637 148.002 45.8812 173.61 63.2604 199.596C83.2306 230.154 103.448 263.014 109.17 300.23C111.441 313.377 111.612 326.657 112.544 339.823C113.447 347.629 115.318 355.251 117.523 362.799C135.73 422.273 181.246 495.683 131.342 548.738C88.7936 598.607 74.644 680.394 85.1454 747.537C87.0771 757.832 91.2053 767.651 95.2002 777.386C99.2764 787.119 103.592 796.756 107.873 806.419C124.85 845.09 142.101 884.429 148.842 926.634C154.084 960.438 150.292 990.829 127.993 1015.78C94.6463 1053.53 52.1788 1080.08 16.5361 1115.01C-25.0764 1154.41 -60.0214 1204.55 -52.6248 1268.61C-51.2108 1281.46 -49.5284 1295.06 -47.27 1307.81C-42.9145 1333.71 -36.0833 1359.5 -23.4015 1382.46C-18.3979 1391.74 -12.8478 1400.81 -8.7079 1410.63C-2.38412 1425.41 0.418923 1441.49 1.90693 1457.41C2.11809 1460.06 2.375 1462.7 2.53966 1465.36L2.98553 1473.31C4.55625 1501.85 -7.88201 1524.93 -29.8944 1540.03C-54.3048 1557.24 -83.2466 1565.08 -109.425 1578.4C-126.43 1587.03 -144.54 1600.04 -147.01 1621.86L-147.352 1621.79C-145.121 1599.68 -126.956 1586.26 -109.922 1577.34C-83.8864 1563.6 -55.2145 1555.54 -31.0561 1538.21C-6.39845 1520.48 3.11207 1497.54 -0.133767 1465.48C-1.4708 1447.29 -4.08877 1428.74 -11.3812 1411.87C-17.6778 1397.34 -26.8617 1384.36 -33.1839 1369.8C-46.1742 1340.54 -51.4049 1308.41 -55.2159 1276.82C-69.7689 1183.8 -1.8043 1122.22 59.2524 1072.92C86.0542 1050.11 127.241 1021.71 141.612 988.246C162.379 933.486 128.024 858.884 106.176 807.243C101.963 797.552 97.7033 787.875 93.6813 778.078C89.7399 768.265 85.6427 758.382 83.7149 747.773C74.6493 686.497 85.173 616.912 116.932 566.139C120.25 560.816 124.142 555.548 127.989 550.659C130.127 548.126 133.135 544.571 135.212 541.965C148.1 526.524 153.85 505.334 152.2 484.356C149.152 441.763 127.51 403.777 115.008 363.587C111.904 353.382 109.448 342.715 109.16 332.039C108.524 313.688 106.474 295.285 100.783 277.746C95.1889 260.253 86.6156 243.778 77.471 228.05C64.3698 205.838 49.003 183.551 34.0202 162.758C22.0345 145.946 8.84083 129.011 -3.12391 112.16C-15.1499 94.884 -25.0431 75.9164 -32.66 56.0684C-47.951 16.387 -52.3533 -27.5669 -46.1074 -69.142C-43.7861 -84.7163 -40.1435 -100.034 -34.9679 -114.687C-33.2308 -119.568 -31.3736 -124.39 -29.1798 -129.047L-28.8657 -128.869L-28.8634 -128.832L-28.8867 -128.831Z" fill="#FAECC8"/>
<path d="M-42.5061 -130.62C-65.2216 -76.2837 -67.1735 -11.1195 -46.9075 46.0251C-41.7096 60.8814 -34.9849 75.3597 -27.133 88.8456C-20.7414 100.208 -13.1588 111.041 -5.44523 121.355C13.3442 146.213 32.2617 171.821 49.6409 197.807C69.6111 228.365 89.8288 261.225 95.5502 298.441C97.8217 311.588 97.9921 324.868 98.9247 338.034C99.828 345.84 101.699 353.462 103.903 361.01C122.111 420.485 167.627 493.894 117.723 546.949C75.1742 596.818 61.0245 678.605 71.5259 745.748C73.4576 756.043 77.5858 765.862 81.5807 775.597C85.657 785.33 89.9721 794.967 94.2422 804.631C111.219 843.301 128.47 882.64 135.211 924.845C140.453 958.649 136.661 989.041 114.362 1013.99C81.0152 1051.74 38.5477 1078.29 2.90499 1113.22C-38.7075 1152.62 -73.6524 1202.76 -66.2559 1266.82C-64.8419 1279.67 -63.1595 1293.28 -60.9011 1306.02C-56.5456 1331.92 -49.7144 1357.71 -37.0326 1380.68C-32.029 1389.95 -26.4788 1399.02 -22.339 1408.84C-16.0152 1423.62 -13.2122 1439.7 -11.7242 1455.62C-11.513 1458.28 -11.2561 1460.92 -11.0914 1463.57L-10.6455 1471.52C-9.07486 1500.06 -21.5131 1523.15 -43.5255 1538.24C-67.9359 1555.45 -96.8776 1563.3 -123.056 1576.61C-140.061 1585.24 -158.171 1598.25 -160.641 1620.07L-160.983 1620.01C-158.752 1597.89 -140.587 1584.47 -123.553 1575.55C-97.5175 1561.81 -68.8455 1553.75 -44.6872 1536.42C-20.0295 1518.69 -10.519 1495.75 -13.7648 1463.69C-15.1019 1445.5 -17.7199 1426.95 -25.0123 1410.08C-31.3089 1395.55 -40.4928 1382.58 -46.815 1368.01C-59.8053 1338.75 -65.036 1306.63 -68.8471 1275.03C-83.4 1182.01 -15.4354 1120.43 45.6213 1071.13C72.4231 1048.32 113.599 1019.92 127.981 986.458C148.736 931.698 114.393 857.095 92.545 805.454C88.3315 795.763 84.0722 786.087 80.0502 776.289C76.1089 766.477 72.0116 756.594 70.0838 745.985C61.0182 684.708 71.5419 615.123 103.301 564.35C106.619 559.027 110.511 553.76 114.357 548.871C116.496 546.337 119.504 542.783 121.58 540.176C134.469 524.735 140.219 503.545 138.569 482.567C135.521 439.974 113.879 401.988 101.376 361.799C98.2732 351.593 95.8174 340.927 95.5286 330.25C94.8925 311.9 92.8429 293.497 87.1522 275.957C81.5578 258.465 72.9845 241.989 63.8399 226.261C50.7387 204.049 35.3719 181.762 20.3891 160.97C8.40343 144.157 -4.79025 127.222 -16.755 110.371C-28.781 93.0954 -38.6742 74.1278 -46.291 54.2798C-61.5821 14.5983 -65.9845 -29.3555 -59.7386 -70.9306C-57.4172 -86.5049 -53.7746 -101.822 -48.599 -116.476C-46.8619 -121.356 -45.0047 -126.178 -42.8109 -130.836L-42.4968 -130.658L-42.4945 -130.62L-42.5061 -130.62Z" fill="#FAECC8"/>
<path d="M-56.1257 -132.407C-78.8412 -78.0705 -80.7931 -12.9063 -60.5271 44.2384C-55.3291 59.0946 -48.6045 73.5729 -40.7526 87.0588C-34.361 98.4215 -26.7784 109.254 -19.0649 119.568C-0.275409 144.427 18.6421 170.034 36.0213 196.02C55.9915 226.578 76.2092 259.438 81.9305 296.654C84.2021 309.801 84.3725 323.081 85.3051 336.248C86.2084 344.053 88.0793 351.675 90.2837 359.223C108.491 418.698 154.007 492.108 104.103 545.162C61.5546 595.031 47.4049 676.818 57.9063 743.961C59.838 754.256 63.9662 764.075 67.9611 773.811C72.0374 783.543 76.3525 793.18 80.6226 802.844C97.5992 841.514 114.85 880.853 121.592 923.058C126.833 956.862 123.041 987.254 100.742 1012.2C67.3956 1049.96 24.9281 1076.5 -10.7146 1111.44C-52.3271 1150.84 -87.2721 1200.98 -79.8755 1265.03C-78.4615 1277.88 -76.7791 1291.49 -74.5207 1304.23C-70.1652 1330.13 -63.334 1355.92 -50.6522 1378.89C-45.6486 1388.16 -40.0985 1397.23 -35.9586 1407.05C-29.6348 1421.83 -26.8317 1437.91 -25.3437 1453.83C-25.1326 1456.49 -24.8757 1459.13 -24.711 1461.79L-24.2652 1469.73C-22.6945 1498.27 -35.1327 1521.36 -57.1451 1536.45C-81.5555 1553.66 -110.497 1561.51 -136.676 1574.82C-153.681 1583.46 -171.79 1596.46 -174.261 1618.28L-174.603 1618.22C-172.372 1596.11 -154.207 1582.68 -137.173 1573.76C-111.137 1560.02 -82.4652 1551.96 -58.3068 1534.63C-33.6491 1516.9 -24.1386 1493.96 -27.3845 1461.9C-28.7215 1443.71 -31.3394 1425.17 -38.6319 1408.3C-44.9285 1393.77 -54.1124 1380.79 -60.4346 1366.22C-73.4249 1336.96 -78.6556 1304.84 -82.4667 1273.25C-97.0196 1180.22 -29.055 1118.65 32.0017 1069.35C58.8035 1046.53 99.9791 1018.13 114.362 984.671C135.116 929.911 100.773 855.309 78.9254 803.667C74.7119 793.977 70.4526 784.3 66.4306 774.503C62.4892 764.69 58.392 754.807 56.4642 744.198C47.3986 682.921 57.9224 613.337 89.6812 562.563C92.9992 557.24 96.8917 551.973 100.738 547.084C102.877 544.551 105.885 540.996 107.961 538.389C120.85 522.949 126.599 501.759 124.949 480.78C121.902 438.187 100.259 400.202 87.7569 360.012C84.6536 349.807 82.1978 339.14 81.909 328.463C81.2729 310.113 79.2232 291.71 73.5327 274.17C67.9382 256.678 59.3649 240.202 50.2203 224.475C37.1191 202.262 21.7523 179.976 6.76946 159.183C-5.21619 142.37 -18.4099 125.435 -30.3746 108.584C-42.4006 91.3086 -52.2938 72.341 -59.9107 52.493C-75.2017 12.8116 -79.604 -31.1423 -73.3581 -72.7174C-71.0368 -88.2917 -67.3942 -103.609 -62.2186 -118.262C-60.4815 -123.143 -58.6243 -127.965 -56.4305 -132.622L-56.1165 -132.445L-56.1141 -132.407L-56.1257 -132.407Z" fill="#FAECC8"/>
<path d="M-69.7452 -134.192C-92.4607 -79.8561 -94.4126 -14.6919 -74.1466 42.4527C-68.9486 57.309 -62.224 71.7873 -54.3721 85.2732C-47.9805 96.6359 -40.3979 107.469 -32.6844 117.782C-13.8949 142.641 5.02264 168.249 22.4019 194.235C42.372 224.793 62.5897 257.652 68.3111 294.869C70.5827 308.015 70.7531 321.295 71.6856 334.462C72.5889 342.267 74.4599 349.89 76.6642 357.438C94.8718 416.912 140.387 490.322 90.4839 543.377C47.9351 593.245 33.7854 675.032 44.2868 742.175C46.2185 752.47 50.3468 762.289 54.3417 772.025C58.4179 781.758 62.733 791.395 67.0147 801.058C83.9913 839.728 101.242 879.067 107.984 921.272C113.226 955.076 109.433 985.468 87.1344 1010.42C53.7877 1048.17 11.3202 1074.72 -24.3225 1109.65C-65.935 1149.05 -100.88 1199.19 -93.4834 1263.25C-92.0694 1276.1 -90.387 1289.7 -88.1286 1302.45C-83.7731 1328.35 -76.9418 1354.14 -64.26 1377.1C-59.2565 1386.38 -53.7063 1395.45 -49.5665 1405.26C-43.2427 1420.04 -40.4396 1436.12 -38.9516 1452.05C-38.7405 1454.7 -38.4836 1457.34 -38.3189 1460L-37.8731 1467.95C-36.3023 1496.49 -48.7406 1519.57 -70.753 1534.67C-95.1634 1551.88 -124.105 1559.72 -150.284 1573.04C-167.289 1581.67 -185.398 1594.68 -187.869 1616.5L-188.211 1616.43C-185.98 1594.32 -167.815 1580.9 -150.781 1571.97C-124.745 1558.24 -96.073 1550.18 -71.9147 1532.85C-47.257 1515.12 -37.7465 1492.18 -40.9923 1460.12C-42.3294 1441.93 -44.9473 1423.38 -52.2397 1406.51C-58.5364 1391.98 -67.7203 1379 -74.0425 1364.44C-87.0327 1335.17 -92.2635 1303.05 -96.0745 1271.46C-110.627 1178.43 -42.6629 1116.86 18.3939 1067.56C45.1956 1044.74 86.3712 1016.35 100.754 982.885C121.508 928.125 87.1655 853.523 65.3176 801.881C61.104 792.191 56.8448 782.514 52.8228 772.717C48.8814 762.904 44.7841 753.021 42.8563 742.412C33.7907 681.135 44.3145 611.551 76.0734 560.777C79.3914 555.454 83.2839 550.187 87.13 545.298C89.2689 542.765 92.2769 539.21 94.3531 536.603C107.242 521.163 112.991 499.973 111.341 478.994C108.294 436.401 86.6512 398.416 74.1491 358.226C71.0458 348.021 68.5899 337.354 68.3011 326.677C67.665 308.327 65.6154 289.924 59.9248 272.384C54.3304 254.892 45.7571 238.416 36.6124 222.689C23.5112 200.476 8.14443 178.189 -6.8384 157.397C-18.8241 140.584 -32.0177 123.649 -43.9824 106.798C-56.0085 89.5226 -65.9017 70.555 -73.5185 50.707C-88.8095 11.0256 -93.2119 -32.9283 -86.966 -74.5034C-84.6446 -90.0777 -81.0021 -105.395 -75.8265 -120.048C-74.0894 -124.929 -72.2321 -129.751 -70.0383 -134.408L-69.7243 -134.231L-69.722 -134.193L-69.7452 -134.192Z" fill="#FAECC8"/>
<path d="M-83.3539 -135.979C-106.069 -81.6427 -108.021 -16.4785 -87.7553 40.6662C-82.5574 55.5224 -75.8327 70.0007 -67.9808 83.4867C-61.5891 94.8493 -54.0066 105.682 -46.293 115.996C-27.5036 140.854 -8.58607 166.462 8.79314 192.448C28.7633 223.006 48.981 255.866 54.7023 293.082C56.974 306.229 57.1443 319.509 58.0769 332.675C58.9802 340.481 60.8512 348.103 63.0555 355.651C81.2632 415.126 126.779 488.535 76.8752 541.59C34.3264 591.459 20.1768 673.246 30.6781 740.389C32.6098 750.684 36.7381 760.503 40.7329 770.238C44.8092 779.971 49.1243 789.608 53.4061 799.271C70.3826 837.942 87.6338 877.281 94.3752 919.486C99.617 953.29 95.8247 983.681 73.5256 1008.63C40.179 1046.39 -2.28845 1072.93 -37.9312 1107.86C-79.5437 1147.26 -114.489 1197.4 -107.092 1261.46C-105.678 1274.31 -103.996 1287.92 -101.737 1300.66C-97.3817 1326.56 -90.5505 1352.35 -77.8687 1375.32C-72.8652 1384.59 -67.315 1393.66 -63.1751 1403.48C-56.8514 1418.26 -54.0483 1434.34 -52.5603 1450.26C-52.3492 1452.92 -52.0922 1455.56 -51.9276 1458.21L-51.4817 1466.16C-49.911 1494.7 -62.3493 1517.79 -84.3617 1532.88C-108.772 1550.09 -137.714 1557.94 -163.892 1571.25C-180.897 1579.89 -199.007 1592.89 -201.477 1614.71L-201.819 1614.65C-199.588 1592.53 -181.423 1579.11 -164.39 1570.19C-138.354 1556.45 -109.682 1548.39 -85.5234 1531.06C-60.8657 1513.33 -51.3552 1490.39 -54.601 1458.33C-55.938 1440.14 -58.556 1421.59 -65.8484 1404.72C-72.145 1390.19 -81.329 1377.22 -87.6512 1362.65C-100.641 1333.39 -105.872 1301.27 -109.683 1269.67C-124.236 1176.65 -56.2715 1115.07 4.78518 1065.77C31.587 1042.96 72.7742 1014.56 87.1451 981.098C107.911 926.338 73.5568 851.736 51.7089 800.095C47.4954 790.404 43.2361 780.728 39.2141 770.93C35.2727 761.117 31.1755 751.234 29.2476 740.625C20.182 679.349 30.7058 609.764 62.4647 558.991C65.7826 553.668 69.6752 548.4 73.5212 543.511C75.6602 540.978 78.6682 537.423 80.7443 534.817C93.6331 519.376 99.3825 498.186 97.7327 477.208C94.6851 434.615 73.0425 396.629 60.5403 356.439C57.4371 346.234 54.9812 335.567 54.6925 324.891C54.0563 306.54 52.0067 288.137 46.3161 270.598C40.7216 253.105 32.1484 236.63 23.0037 220.902C9.90255 198.69 -5.46423 176.403 -20.4471 155.61C-32.4327 138.798 -45.6264 121.863 -57.5911 105.012C-69.6172 87.736 -79.5104 68.7684 -87.1272 48.9205C-102.418 9.23899 -106.821 -34.7149 -100.575 -76.29C-98.2534 -91.8643 -94.6107 -107.182 -89.4352 -121.835C-87.6981 -126.716 -85.8408 -131.538 -83.647 -136.195L-83.333 -136.017L-83.3307 -135.98L-83.3539 -135.979Z" fill="#FAECC8"/>
<path d="M-96.9724 -137.768C-119.688 -83.4319 -121.64 -18.2676 -101.374 38.877C-96.1758 53.7332 -89.4512 68.2116 -81.5993 81.6975C-75.2076 93.0602 -67.625 103.893 -59.9115 114.206C-41.122 139.065 -22.2045 164.673 -4.82531 190.659C15.1449 221.217 35.3626 254.077 41.0839 291.293C43.3555 304.439 43.5259 317.72 44.4585 330.886C45.3618 338.692 47.2327 346.314 49.4371 353.862C67.6447 413.336 113.16 486.746 63.2568 539.801C20.708 589.669 6.55831 671.457 17.0597 738.6C18.9914 748.895 23.1196 758.714 27.1145 768.449C31.1908 778.182 35.5059 787.819 39.7876 797.482C56.7642 836.153 74.0153 875.492 80.7567 917.697C85.9985 951.501 82.2063 981.892 59.9072 1006.84C26.5606 1044.6 -15.9069 1071.14 -51.5496 1106.07C-93.1621 1145.48 -128.107 1195.61 -120.71 1259.67C-119.296 1272.52 -117.614 1286.13 -115.356 1298.87C-111 1324.77 -104.169 1350.56 -91.4872 1373.53C-86.4836 1382.8 -80.9334 1391.87 -76.7936 1401.69C-70.4698 1416.47 -67.6667 1432.55 -66.1788 1448.47C-65.9676 1451.13 -65.7107 1453.77 -65.546 1456.42L-65.1002 1464.37C-63.5295 1492.91 -75.9677 1516 -97.9801 1531.09C-122.391 1548.3 -151.332 1556.15 -177.511 1569.46C-194.516 1578.1 -212.625 1591.1 -215.096 1612.92L-215.438 1612.86C-213.207 1590.74 -195.042 1577.32 -178.008 1568.4C-151.972 1554.66 -123.3 1546.6 -99.1418 1529.27C-74.4841 1511.54 -64.9736 1488.6 -68.2195 1456.54C-69.5565 1438.35 -72.1745 1419.8 -79.4669 1402.93C-85.7635 1388.4 -94.9474 1375.43 -101.27 1360.86C-114.26 1331.6 -119.491 1299.48 -123.302 1267.89C-137.855 1174.86 -69.89 1113.28 -8.83327 1063.99C17.9685 1041.17 59.1549 1012.76 73.5266 979.309C94.2928 924.549 59.9384 849.947 38.0905 798.305C33.8769 788.615 29.6177 778.938 25.5956 769.141C21.6543 759.328 17.557 749.445 15.6292 738.836C6.56363 677.559 17.0874 607.975 48.8463 557.202C52.1642 551.878 56.0567 546.611 59.9028 541.722C62.0417 539.189 65.0498 535.634 67.1259 533.028C80.0146 517.587 85.7641 496.397 84.1143 475.419C81.0666 432.826 59.424 394.84 46.9219 354.65C43.8186 344.445 41.3627 333.778 41.074 323.102C40.4379 304.751 38.3883 286.348 32.6977 268.809C27.1032 251.316 18.5299 234.841 9.38529 219.113C-3.71587 196.9 -19.0827 174.614 -34.0655 153.821C-46.0512 137.009 -59.2448 120.074 -71.2096 103.223C-83.2356 85.9469 -93.1288 66.9793 -100.746 47.1313C-116.037 7.44982 -120.439 -36.504 -114.193 -78.0792C-111.872 -93.6534 -108.229 -108.971 -103.054 -123.624C-101.317 -128.505 -99.4593 -133.327 -97.2655 -137.984L-96.9514 -137.806L-96.9491 -137.769L-96.9724 -137.768Z" fill="#FAECC8"/>
<path d="M-110.592 -139.558C-133.307 -85.2217 -135.259 -20.0575 -114.993 37.0872C-109.795 51.9434 -103.071 66.4217 -95.2187 79.9076C-88.827 91.2703 -81.2445 102.103 -73.5309 112.417C-54.7414 137.275 -35.8239 162.883 -18.4447 188.869C1.52545 219.427 21.7432 252.287 27.4645 289.503C29.7361 302.65 29.9065 315.93 30.8391 329.096C31.7424 336.902 33.6133 344.524 35.8177 352.072C54.0253 411.547 99.5409 484.956 49.6374 538.011C7.08854 587.88 -7.06108 669.667 3.44029 736.81C5.37198 747.105 9.50023 756.924 13.4951 766.659C17.5714 776.392 21.8864 786.029 26.1566 795.693C43.1331 834.363 60.3842 873.702 67.1257 915.907C72.3675 949.711 68.5752 980.103 46.2762 1005.05C12.9296 1042.81 -29.5379 1069.35 -65.1807 1104.28C-106.793 1143.69 -141.738 1193.83 -134.342 1257.88C-132.928 1270.73 -131.245 1284.34 -128.987 1297.08C-124.631 1322.98 -117.8 1348.77 -105.118 1371.74C-100.115 1381.01 -94.5645 1390.08 -90.4246 1399.9C-84.1008 1414.68 -81.2978 1430.76 -79.8098 1446.68C-79.5986 1449.34 -79.3417 1451.98 -79.1771 1454.63L-78.7312 1462.58C-77.1605 1491.12 -89.5987 1514.21 -111.611 1529.3C-136.022 1546.51 -164.963 1554.36 -191.142 1567.67C-208.147 1576.31 -226.256 1589.31 -228.727 1611.13L-229.069 1611.07C-226.838 1588.95 -208.673 1575.53 -191.639 1566.61C-165.603 1552.87 -136.931 1544.81 -112.773 1527.48C-88.1151 1509.75 -78.6047 1486.81 -81.8505 1454.75C-83.1875 1436.56 -85.8055 1418.01 -93.0979 1401.14C-99.3946 1386.61 -108.578 1373.64 -114.901 1359.07C-127.891 1329.81 -133.122 1297.69 -136.933 1266.1C-151.486 1173.07 -83.521 1111.5 -22.4643 1062.2C4.33744 1039.38 45.513 1010.98 59.8956 977.52C80.6502 922.76 46.3073 848.157 24.4594 796.516C20.2459 786.825 15.9866 777.149 11.9646 767.351C8.02322 757.539 3.92601 747.656 1.99814 737.047C-7.06743 675.77 3.45629 606.185 35.2152 555.412C38.5331 550.089 42.4257 544.822 46.2717 539.933C48.4107 537.399 51.4187 533.845 53.4948 531.238C66.3836 515.797 72.133 494.607 70.4832 473.629C67.4356 431.036 45.793 393.05 33.2908 352.861C30.1876 342.655 27.7317 331.989 27.4429 321.312C26.8068 302.962 24.7572 284.559 19.0666 267.019C13.4722 249.527 4.89888 233.051 -4.24574 217.323C-17.3469 195.111 -32.7137 172.824 -47.6965 152.032C-59.6822 135.219 -72.8759 118.284 -84.8406 101.433C-96.8667 84.1574 -106.76 65.1898 -114.377 45.3418C-129.668 5.66036 -134.07 -38.2935 -127.824 -79.8686C-125.503 -95.4429 -121.86 -110.76 -116.685 -125.414C-114.948 -130.294 -113.09 -135.116 -110.897 -139.774L-110.582 -139.596L-110.58 -139.558L-110.592 -139.558Z" fill="#FAECC8"/>
<path d="M-124.211 -141.344C-146.927 -87.0076 -148.879 -21.8434 -128.613 35.3013C-123.415 50.1575 -116.69 64.6358 -108.838 78.1217C-102.447 89.4844 -94.8641 100.317 -87.1506 110.631C-68.3611 135.489 -49.4436 161.097 -32.0644 187.083C-12.0942 217.641 8.12352 250.501 13.8448 287.717C16.1164 300.864 16.2868 314.144 17.2194 327.31C18.1227 335.116 19.9936 342.738 22.198 350.286C40.4056 409.761 85.9213 483.17 36.0177 536.225C-6.53113 586.094 -20.6807 667.881 -10.1794 735.024C-8.24769 745.319 -4.11944 755.138 -0.124572 764.873C3.95173 774.606 8.26681 784.243 12.5369 793.907C29.5135 832.577 46.7646 871.916 53.506 914.121C58.7478 947.925 54.9555 978.317 32.6565 1003.27C-0.690131 1041.02 -43.1576 1067.57 -78.8003 1102.5C-120.413 1141.9 -155.358 1192.04 -147.961 1256.1C-146.547 1268.95 -144.865 1282.55 -142.606 1295.3C-138.251 1321.2 -131.42 1346.98 -118.738 1369.95C-113.734 1379.23 -108.184 1388.29 -104.044 1398.11C-97.7205 1412.89 -94.9175 1428.97 -93.4295 1444.9C-93.2183 1447.55 -92.9614 1450.19 -92.7967 1452.85L-92.3508 1460.8C-90.7802 1489.34 -103.218 1512.42 -125.231 1527.52C-149.641 1544.73 -178.583 1552.57 -204.762 1565.89C-221.767 1574.52 -239.876 1587.53 -242.346 1609.35L-242.688 1609.28C-240.458 1587.17 -222.292 1573.75 -205.259 1564.82C-179.223 1551.09 -150.551 1543.02 -126.392 1525.7C-101.735 1507.96 -92.2243 1485.03 -95.4701 1452.96C-96.8072 1434.78 -99.4252 1416.23 -106.718 1399.36C-113.014 1384.83 -122.198 1371.85 -128.52 1357.28C-141.511 1328.02 -146.741 1295.9 -150.552 1264.31C-165.105 1171.28 -97.1407 1109.71 -36.084 1060.41C-9.2822 1037.59 31.8934 1009.19 46.2759 975.734C67.0305 920.974 32.6876 846.371 10.8397 794.73C6.62622 785.04 2.36695 775.363 -1.65509 765.565C-5.59645 755.753 -9.69369 745.87 -11.6215 735.261C-20.6871 673.984 -10.1633 604.399 21.5955 553.626C24.9135 548.303 28.806 543.036 32.6521 538.147C34.791 535.614 37.7991 532.059 39.8752 529.452C52.7639 514.012 58.5134 492.822 56.8636 471.843C53.8159 429.25 32.1733 391.265 19.6712 351.075C16.5679 340.869 14.112 330.203 13.8233 319.526C13.1872 301.176 11.1375 282.773 5.44693 265.233C-0.147512 247.741 -8.72079 231.265 -17.8654 215.537C-30.9666 193.325 -46.3334 171.038 -61.3162 150.246C-73.3019 133.433 -86.4955 116.498 -98.4603 99.6473C-110.486 82.3715 -120.38 63.4039 -127.996 43.5559C-143.287 3.87445 -147.69 -40.0794 -141.444 -81.6545C-139.122 -97.2288 -135.48 -112.546 -130.304 -127.2C-128.567 -132.08 -126.71 -136.902 -124.516 -141.56L-124.202 -141.382L-124.2 -141.344L-124.211 -141.344Z" fill="#FAECC8"/>
<path d="M-137.831 -143.13C-160.547 -88.7939 -162.499 -23.6297 -142.233 33.5149C-137.035 48.3712 -130.31 62.8495 -122.458 76.3354C-116.066 87.6981 -108.484 98.5309 -100.77 108.844C-81.9808 133.703 -63.0633 159.311 -45.6841 185.297C-25.7139 215.855 -5.49622 248.715 0.225096 285.931C2.4967 299.077 2.66712 312.358 3.59968 325.524C4.503 333.33 6.37394 340.952 8.57828 348.5C26.7859 407.974 72.3016 481.384 22.398 534.439C-20.1508 584.307 -34.3005 666.095 -23.7991 733.238C-21.8674 743.533 -17.7392 753.352 -13.7443 763.087C-9.66804 772.82 -5.35294 782.457 -1.08281 792.121C15.8938 830.791 33.1449 870.13 39.8863 912.335C45.1281 946.139 41.3358 976.53 19.0368 1001.48C-14.3098 1039.23 -56.7773 1065.78 -92.42 1100.71C-134.033 1140.11 -168.977 1190.25 -161.581 1254.31C-160.167 1267.16 -158.485 1280.77 -156.226 1293.51C-151.871 1319.41 -145.039 1345.2 -132.358 1368.17C-127.354 1377.44 -121.804 1386.51 -117.664 1396.33C-111.34 1411.11 -108.537 1427.19 -107.049 1443.11C-106.838 1445.77 -106.581 1448.41 -106.416 1451.06L-105.971 1459.01C-104.4 1487.55 -116.838 1510.64 -138.851 1525.73C-163.261 1542.94 -192.203 1550.79 -218.381 1564.1C-235.386 1572.73 -253.496 1585.74 -255.966 1607.56L-256.308 1607.5C-254.077 1585.38 -235.912 1571.96 -218.878 1563.04C-192.843 1549.3 -164.171 1541.24 -140.012 1523.91C-115.355 1506.18 -105.844 1483.24 -109.09 1451.18C-110.427 1432.99 -113.045 1414.44 -120.337 1397.57C-126.634 1383.04 -135.818 1370.07 -142.14 1355.5C-155.13 1326.24 -160.361 1294.12 -164.172 1262.52C-178.725 1169.5 -110.76 1107.92 -49.7037 1058.62C-22.9019 1035.81 18.2736 1007.41 32.6562 973.947C53.4108 919.188 19.0679 844.585 -2.77998 792.944C-6.99352 783.253 -11.2528 773.577 -15.2748 763.779C-19.2162 753.966 -23.3134 744.084 -25.2413 733.475C-34.3068 672.198 -23.7831 602.613 7.97578 551.84C11.2938 546.517 15.1863 541.25 19.0323 536.361C21.1713 533.827 24.1793 530.272 26.2555 527.666C39.1442 512.225 44.8936 491.035 43.2439 470.057C40.1962 427.464 18.5536 389.478 6.05145 349.288C2.9482 339.083 0.492331 328.417 0.203568 317.74C-0.432566 299.39 -2.48217 280.986 -8.17275 263.447C-13.7672 245.954 -22.3405 229.479 -31.4851 213.751C-44.5863 191.539 -59.9531 169.252 -74.9359 148.459C-86.9216 131.647 -100.115 114.712 -112.08 97.861C-124.106 80.5852 -133.999 61.6176 -141.616 41.7696C-156.907 2.08814 -161.309 -41.8657 -155.064 -83.4408C-152.742 -99.0151 -149.1 -114.333 -143.924 -128.986C-142.187 -133.867 -140.33 -138.688 -138.136 -143.346L-137.822 -143.168L-137.82 -143.13L-137.831 -143.13Z" fill="#FAECC8"/>
<path d="M-151.44 -144.913C-174.155 -90.5773 -176.107 -25.4131 -155.841 31.7316C-150.643 46.5878 -143.919 61.0661 -136.067 74.552C-129.675 85.9147 -122.092 96.7475 -114.379 107.061C-95.5894 131.92 -76.6719 157.527 -59.2927 183.514C-39.3226 214.071 -19.1048 246.931 -13.3835 284.147C-11.1119 297.294 -10.9415 310.574 -10.0089 323.741C-9.10562 331.546 -7.23469 339.168 -5.03031 346.717C13.1773 406.191 58.693 479.601 8.7894 532.656C-33.7595 582.524 -47.9091 664.311 -37.4077 731.454C-35.476 741.749 -31.3477 751.568 -27.3529 761.304C-23.2766 771.037 -18.9615 780.674 -14.6798 790.337C2.29677 829.007 19.5479 868.346 26.2893 910.551C31.5311 944.355 27.7389 974.747 5.4398 999.697C-27.9068 1037.45 -70.3743 1064 -106.017 1098.93C-147.63 1138.33 -182.574 1188.47 -175.178 1252.53C-173.764 1265.38 -172.081 1278.98 -169.823 1291.73C-165.468 1317.63 -158.636 1343.41 -145.955 1366.38C-140.951 1375.66 -135.401 1384.72 -131.261 1394.54C-124.937 1409.32 -122.134 1425.4 -120.646 1441.33C-120.435 1443.98 -120.178 1446.62 -120.013 1449.28L-119.568 1457.23C-117.997 1485.77 -130.435 1508.85 -152.447 1523.95C-176.858 1541.16 -205.8 1549 -231.978 1562.32C-248.983 1570.95 -267.093 1583.96 -269.563 1605.78L-269.905 1605.71C-267.674 1583.6 -249.509 1570.18 -232.475 1561.25C-206.439 1547.52 -177.768 1539.45 -153.609 1522.13C-128.952 1504.39 -119.441 1481.46 -122.687 1449.39C-124.024 1431.21 -126.642 1412.66 -133.934 1395.79C-140.231 1381.26 -149.415 1368.28 -155.737 1353.71C-168.727 1324.45 -173.958 1292.33 -177.769 1260.74C-192.322 1167.71 -124.357 1106.14 -63.3007 1056.84C-36.4989 1034.02 4.6767 1005.62 19.0592 972.164C39.8255 917.403 5.47098 842.801 -16.3769 791.16C-20.5905 781.469 -24.8497 771.793 -28.8718 761.995C-32.8131 752.183 -36.9103 742.3 -38.8382 731.691C-47.9038 670.414 -37.38 600.829 -5.62117 550.056C-2.3032 544.733 1.58935 539.466 5.43539 534.577C7.57436 532.043 10.5824 528.489 12.6585 525.882C25.5473 510.441 31.2967 489.251 29.6469 468.273C26.5992 425.68 4.95664 387.694 -7.5455 347.505C-10.6487 337.299 -13.1046 326.633 -13.3934 315.956C-14.0295 297.606 -16.0791 279.203 -21.7697 261.663C-27.3642 244.171 -35.9375 227.695 -45.0821 211.967C-58.1833 189.755 -73.5501 167.468 -88.5329 146.676C-100.519 129.863 -113.712 112.928 -125.677 96.0772C-137.703 78.8014 -147.596 59.8338 -155.213 39.9858C-170.504 0.304363 -174.906 -43.6495 -168.661 -85.2246C-166.339 -100.799 -162.697 -116.116 -157.521 -130.77C-155.784 -135.65 -153.927 -140.472 -151.733 -145.13L-151.419 -144.952L-151.417 -144.914L-151.44 -144.913Z" fill="#FAECC8"/>
<path d="M-165.059 -146.703C-187.775 -92.3665 -189.727 -27.2023 -169.461 29.9424C-164.263 44.7986 -157.538 59.2769 -149.686 72.7629C-143.294 84.1255 -135.712 94.9583 -127.998 105.272C-109.209 130.131 -90.2913 155.738 -72.9121 181.724C-52.9419 212.282 -32.7242 245.142 -27.0029 282.358C-24.7313 295.505 -24.5609 308.785 -23.6283 321.952C-22.725 329.757 -20.8541 337.379 -18.6497 344.927C-0.442081 404.402 45.0735 477.812 -4.83003 530.866C-47.3789 580.735 -61.5285 662.522 -51.0271 729.665C-49.0954 739.96 -44.9672 749.779 -40.9723 759.515C-36.896 769.247 -32.581 778.884 -28.2992 788.548C-11.3226 827.218 5.92849 866.557 12.6699 908.762C17.9117 942.566 14.1194 972.958 -8.17962 997.908C-41.5262 1035.66 -83.9937 1062.21 -119.636 1097.14C-161.249 1136.54 -196.194 1186.68 -188.797 1250.74C-187.383 1263.59 -185.701 1277.19 -183.443 1289.94C-179.087 1315.84 -172.256 1341.63 -159.574 1364.59C-154.57 1373.87 -149.02 1382.94 -144.88 1392.75C-138.557 1407.53 -135.754 1423.61 -134.266 1439.54C-134.054 1442.19 -133.797 1444.83 -133.633 1447.49L-133.187 1455.44C-131.616 1483.98 -144.055 1507.06 -166.067 1522.16C-190.477 1539.37 -219.419 1547.21 -245.598 1560.53C-262.603 1569.16 -280.712 1582.17 -283.183 1603.99L-283.525 1603.92C-281.294 1581.81 -263.128 1568.39 -246.095 1559.46C-220.059 1545.73 -191.387 1537.67 -167.229 1520.34C-142.571 1502.6 -133.06 1479.67 -136.306 1447.61C-137.643 1429.42 -140.261 1410.87 -147.554 1394C-153.85 1379.47 -163.034 1366.49 -169.356 1351.92C-182.347 1322.66 -187.577 1290.54 -191.388 1258.95C-205.941 1165.92 -137.977 1104.35 -76.9201 1055.05C-50.1183 1032.23 -8.93111 1003.83 5.43983 970.374C26.206 915.614 -8.14847 841.012 -29.9964 789.371C-34.2099 779.68 -38.4692 770.004 -42.4912 760.206C-46.4326 750.393 -50.5298 740.511 -52.4576 729.902C-61.5232 668.625 -50.9995 599.04 -19.2406 548.267C-15.9226 542.944 -12.0301 537.677 -8.18403 532.788C-6.04509 530.254 -3.03705 526.7 -0.960922 524.093C11.9278 508.652 17.6773 487.462 16.0275 466.484C12.9798 423.891 -8.66278 385.905 -21.1649 345.715C-24.2682 335.51 -26.724 324.844 -27.0128 314.167C-27.6489 295.817 -29.6986 277.413 -35.3892 259.874C-40.9836 242.381 -49.5569 225.906 -58.7015 210.178C-71.8027 187.966 -87.1695 165.679 -102.152 144.886C-114.138 128.074 -127.332 111.139 -139.296 94.288C-151.322 77.0122 -161.216 58.0446 -168.832 38.1967C-184.123 -1.48481 -188.526 -45.4387 -182.28 -87.0138C-179.959 -102.588 -176.316 -117.906 -171.14 -132.559C-169.403 -137.439 -167.546 -142.261 -165.352 -146.919L-165.038 -146.741L-165.036 -146.703L-165.059 -146.703Z" fill="#FAECC8"/>
<path d="M-178.679 -148.491C-201.394 -94.1554 -203.346 -28.9911 -183.08 28.1535C-177.882 43.0098 -171.158 57.4881 -163.306 70.974C-156.914 82.3367 -149.331 93.1695 -141.618 103.483C-122.828 128.342 -103.911 153.949 -86.5317 179.936C-66.5615 210.493 -46.3438 243.353 -40.6224 280.569C-38.3508 293.716 -38.1805 306.996 -37.2479 320.163C-36.3446 327.968 -34.4736 335.59 -32.2693 343.139C-14.0616 402.613 31.454 476.023 -18.4495 529.078C-60.9984 578.946 -75.148 660.733 -64.6467 727.876C-62.7149 738.171 -58.5867 747.99 -54.5918 757.726C-50.5156 767.459 -46.2005 777.096 -41.9187 786.759C-24.9422 825.429 -7.69107 864.768 -0.949622 906.973C4.29214 940.777 0.499912 971.169 -21.7992 996.119C-55.1457 1033.87 -97.6133 1060.42 -133.256 1095.35C-174.868 1134.75 -209.813 1184.89 -202.417 1248.95C-201.003 1261.8 -199.32 1275.4 -197.062 1288.15C-192.707 1314.05 -185.875 1339.84 -173.194 1362.8C-168.19 1372.08 -162.64 1381.15 -158.5 1390.96C-152.176 1405.75 -149.373 1421.83 -147.885 1437.75C-147.674 1440.4 -147.417 1443.04 -147.252 1445.7L-146.807 1453.65C-145.236 1482.19 -157.674 1505.27 -179.686 1520.37C-204.097 1537.58 -233.039 1545.42 -259.217 1558.74C-276.222 1567.37 -294.332 1580.38 -296.802 1602.2L-297.144 1602.13C-294.913 1580.02 -276.748 1566.6 -259.714 1557.67C-233.678 1543.94 -205.007 1535.88 -180.848 1518.55C-156.19 1500.82 -146.68 1477.88 -149.926 1445.82C-151.263 1427.63 -153.881 1409.08 -161.173 1392.21C-167.47 1377.68 -176.654 1364.7 -182.976 1350.14C-195.966 1320.88 -201.197 1288.75 -205.008 1257.16C-219.561 1164.14 -151.596 1102.56 -90.5396 1053.26C-63.7378 1030.45 -22.5514 1002.03 -8.17974 968.586C12.5865 913.825 -21.768 839.223 -43.6159 787.582C-47.8294 777.891 -52.0887 768.215 -56.1107 758.417C-60.0521 748.605 -64.1493 738.722 -66.0771 728.113C-75.1427 666.836 -64.619 597.251 -32.8601 546.478C-29.5421 541.155 -25.6496 535.888 -21.8035 530.999C-19.6646 528.465 -16.6566 524.911 -14.5804 522.304C-1.69167 506.864 4.05775 485.673 2.40795 464.695C-0.639713 422.102 -22.2823 384.116 -34.7845 343.927C-37.8877 333.721 -40.3436 323.055 -40.6323 312.378C-41.2684 294.028 -43.3181 275.625 -49.0087 258.085C-54.6031 240.593 -63.1764 224.117 -72.3211 208.389C-85.4222 186.177 -100.789 163.89 -115.772 143.098C-127.758 126.285 -140.951 109.35 -152.916 92.4991C-164.942 75.2234 -174.835 56.2558 -182.452 36.4078C-197.743 -3.27367 -202.145 -47.2275 -195.9 -88.8026C-193.578 -104.377 -189.936 -119.694 -184.76 -134.348C-183.023 -139.228 -181.166 -144.05 -178.972 -148.708L-178.658 -148.53L-178.655 -148.492L-178.679 -148.491Z" fill="#FAECC8"/>
<path d="M-192.297 -150.281C-215.013 -95.9451 -216.964 -30.7808 -196.698 26.3638C-191.501 41.22 -184.776 55.6984 -176.924 69.1843C-170.532 80.547 -162.95 91.3798 -155.236 101.693C-136.447 126.552 -117.529 152.16 -100.15 178.146C-80.1799 208.704 -59.9622 241.563 -54.2409 278.78C-51.9693 291.926 -51.7988 305.206 -50.8663 318.373C-49.963 326.178 -48.092 333.801 -45.8877 341.349C-27.6801 400.823 17.8356 474.233 -32.068 527.288C-74.6168 577.156 -88.7665 658.943 -78.2651 726.087C-76.3334 736.381 -72.2051 746.2 -68.2103 755.936C-64.134 765.669 -59.8189 775.306 -55.5488 784.969C-38.5722 823.64 -21.3211 862.979 -14.5797 905.184C-9.33789 938.988 -13.1302 969.379 -35.4292 994.329C-68.7758 1032.08 -111.243 1058.63 -146.886 1093.56C-188.499 1132.96 -223.443 1183.1 -216.047 1247.16C-214.633 1260.01 -212.95 1273.61 -210.692 1286.36C-206.337 1312.26 -199.505 1338.05 -186.824 1361.01C-181.82 1370.29 -176.27 1379.36 -172.13 1389.18C-165.806 1403.96 -163.003 1420.04 -161.515 1435.96C-161.304 1438.61 -161.047 1441.26 -160.882 1443.91L-160.437 1451.86C-158.866 1480.4 -171.304 1503.48 -193.316 1518.58C-217.727 1535.79 -246.669 1543.63 -272.847 1556.95C-289.852 1565.58 -307.962 1578.59 -310.432 1600.41L-310.774 1600.34C-308.543 1578.23 -290.378 1564.81 -273.344 1555.89C-247.308 1542.15 -218.637 1534.09 -194.478 1516.76C-169.82 1499.03 -160.31 1476.09 -163.556 1444.03C-164.893 1425.84 -167.511 1407.29 -174.803 1390.42C-181.1 1375.89 -190.284 1362.91 -196.606 1348.35C-209.596 1319.09 -214.827 1286.96 -218.638 1255.37C-233.191 1162.35 -165.226 1100.77 -104.17 1051.47C-77.3679 1028.66 -36.1923 1000.26 -21.8098 966.796C-1.0552 912.036 -35.3981 837.434 -57.246 785.793C-61.4595 776.102 -65.7187 766.426 -69.7407 756.628C-73.6821 746.815 -77.7794 736.932 -79.7072 726.323C-88.7728 665.047 -78.249 595.462 -46.4902 544.689C-43.1722 539.366 -39.2797 534.098 -35.4336 529.21C-33.2947 526.676 -30.2866 523.121 -28.2105 520.515C-15.3218 505.074 -9.57234 483.884 -11.2221 462.906C-14.2698 420.313 -35.9124 382.327 -48.4145 342.137C-51.5178 331.932 -53.9736 321.265 -54.2624 310.589C-54.8985 292.238 -56.9482 273.835 -62.6387 256.296C-68.2332 238.803 -76.8065 222.328 -85.9511 206.6C-99.0523 184.388 -114.419 162.101 -129.402 141.308C-141.388 124.496 -154.581 107.561 -166.546 90.7098C-178.572 73.4341 -188.465 54.4665 -196.082 34.6185C-211.373 -5.06299 -215.775 -49.0168 -209.53 -90.592C-207.208 -106.166 -203.566 -121.484 -198.39 -136.137C-196.653 -141.018 -194.796 -145.84 -192.602 -150.497L-192.288 -150.319L-192.285 -150.282L-192.297 -150.281Z" fill="#FAECC8"/>
<path d="M-205.917 -152.067C-228.632 -97.731 -230.584 -32.5668 -210.318 24.5779C-205.12 39.4341 -198.396 53.9124 -190.544 67.3984C-184.152 78.761 -176.569 89.5938 -168.856 99.9073C-150.066 124.766 -131.149 150.374 -113.77 176.36C-93.7996 206.918 -73.5818 239.778 -67.8605 276.994C-65.5889 290.14 -65.4185 303.42 -64.486 316.587C-63.5826 324.393 -61.7117 332.015 -59.5073 339.563C-41.2997 399.037 4.21595 472.447 -45.6876 525.502C-88.2364 575.37 -102.386 657.158 -91.8847 724.301C-89.953 734.595 -85.8248 744.414 -81.8299 754.15C-77.7536 763.883 -73.4385 773.52 -69.1684 783.183C-52.1919 821.854 -34.9408 861.193 -28.1993 903.398C-22.9575 937.202 -26.7498 967.593 -49.0488 992.543C-82.3954 1030.3 -124.863 1056.84 -160.506 1091.77C-202.118 1131.18 -237.063 1181.32 -229.667 1245.37C-228.253 1258.22 -226.57 1271.83 -224.312 1284.57C-219.956 1310.47 -213.125 1336.26 -200.443 1359.23C-195.44 1368.5 -189.889 1377.57 -185.75 1387.39C-179.426 1402.17 -176.623 1418.25 -175.135 1434.17C-174.924 1436.83 -174.667 1439.47 -174.502 1442.13L-174.056 1450.07C-172.485 1478.61 -184.924 1501.7 -206.936 1516.79C-231.347 1534 -260.288 1541.85 -286.467 1555.16C-303.472 1563.8 -321.581 1576.8 -324.052 1598.62L-324.394 1598.56C-322.163 1576.45 -303.998 1563.02 -286.964 1554.1C-260.928 1540.36 -232.256 1532.3 -208.098 1514.97C-183.44 1497.24 -173.93 1474.3 -177.175 1442.24C-178.513 1424.05 -181.13 1405.51 -188.423 1388.63C-194.72 1374.1 -203.903 1361.13 -210.226 1346.56C-223.216 1317.3 -228.447 1285.18 -232.258 1253.59C-246.811 1160.56 -178.846 1098.99 -117.789 1049.69C-90.9875 1026.87 -49.812 998.471 -35.4294 965.01C-14.6748 910.25 -49.0177 835.648 -70.8656 784.007C-75.0791 774.316 -79.3384 764.64 -83.3604 754.842C-87.3018 745.029 -91.399 735.146 -93.3269 724.538C-102.392 663.261 -91.8687 593.676 -60.1098 542.903C-56.7918 537.58 -52.8993 532.313 -49.0533 527.424C-46.9143 524.89 -43.9063 521.335 -41.8301 518.729C-28.9414 503.288 -23.192 482.098 -24.8418 461.12C-27.8894 418.527 -49.532 380.541 -62.0342 340.351C-65.1374 330.146 -67.5933 319.48 -67.882 308.803C-68.5182 290.452 -70.5678 272.049 -76.2584 254.51C-81.8529 237.017 -90.4261 220.542 -99.5707 204.814C-112.672 182.602 -128.039 160.315 -143.022 139.522C-155.007 122.71 -168.201 105.775 -180.166 88.9239C-192.192 71.6481 -202.085 52.6805 -209.702 32.8326C-224.993 -6.84892 -229.395 -50.8028 -223.149 -92.3779C-220.828 -107.952 -217.185 -123.27 -212.01 -137.923C-210.273 -142.804 -208.415 -147.625 -206.222 -152.283L-205.907 -152.105L-205.905 -152.068L-205.917 -152.067Z" fill="#FAECC8"/>
<path d="M-219.526 -153.851C-242.242 -99.5152 -244.194 -34.3509 -223.928 22.7937C-218.73 37.65 -212.005 52.1283 -204.153 65.6142C-197.762 76.9769 -190.179 87.8097 -182.466 98.1232C-163.676 122.982 -144.759 148.59 -127.379 174.576C-107.409 205.133 -87.1915 237.993 -81.4702 275.21C-79.1986 288.356 -79.0282 301.636 -78.0956 314.803C-77.1923 322.608 -75.3213 330.231 -73.117 337.779C-54.9094 397.253 -9.3937 470.663 -59.2973 523.718C-101.846 573.586 -115.996 655.373 -105.494 722.516C-103.563 732.811 -99.4344 742.63 -95.4396 752.366C-91.3633 762.099 -87.0482 771.736 -82.7781 781.399C-65.8015 820.07 -48.5504 859.409 -41.809 901.614C-36.5672 935.418 -40.3594 965.809 -62.6585 990.759C-96.0051 1028.51 -138.473 1055.06 -174.115 1089.99C-215.728 1129.39 -250.673 1179.53 -243.276 1243.59C-241.862 1256.44 -240.18 1270.04 -237.921 1282.79C-233.566 1308.69 -226.735 1334.48 -214.053 1357.44C-209.049 1366.72 -203.499 1375.79 -199.359 1385.61C-193.035 1400.39 -190.232 1416.47 -188.744 1432.39C-188.533 1435.04 -188.276 1437.68 -188.112 1440.34L-187.666 1448.29C-186.095 1476.83 -198.533 1499.91 -220.546 1515.01C-244.956 1532.22 -273.898 1540.06 -300.076 1553.38C-317.082 1562.01 -335.191 1575.02 -337.661 1596.84L-338.003 1596.77C-335.773 1574.66 -317.607 1561.24 -300.574 1552.32C-274.538 1538.58 -245.866 1530.52 -221.707 1513.19C-197.05 1495.46 -187.539 1472.52 -190.785 1440.46C-192.122 1422.27 -194.74 1403.72 -202.033 1386.85C-208.329 1372.32 -217.513 1359.34 -223.835 1344.78C-236.826 1315.52 -242.056 1283.39 -245.867 1251.8C-260.42 1158.78 -192.456 1097.2 -131.399 1047.9C-104.597 1025.09 -63.4216 996.687 -49.0391 963.226C-28.2845 908.466 -62.6274 833.864 -84.4753 782.223C-88.6888 772.532 -92.948 762.855 -96.97 753.058C-100.911 743.245 -105.009 733.362 -106.937 722.753C-116.002 661.477 -105.478 591.892 -73.7195 541.119C-70.4015 535.796 -66.509 530.528 -62.6629 525.639C-60.5239 523.106 -57.5159 519.551 -55.4398 516.945C-42.5511 501.504 -36.8016 480.314 -38.4514 459.336C-41.4991 416.743 -63.1417 378.757 -75.6438 338.567C-78.7471 328.362 -81.2029 317.695 -81.4917 307.019C-82.1278 288.668 -84.1775 270.265 -89.868 252.726C-95.4625 235.233 -104.036 218.758 -113.18 203.03C-126.282 180.818 -141.648 158.531 -156.631 137.738C-168.617 120.926 -181.811 103.991 -193.775 87.1398C-205.801 69.864 -215.694 50.8964 -223.311 31.0484C-238.602 -8.63307 -243.005 -52.5869 -236.759 -94.1621C-234.437 -109.736 -230.795 -125.054 -225.619 -139.707C-223.882 -144.588 -222.025 -149.41 -219.831 -154.067L-219.517 -153.889L-219.515 -153.852L-219.526 -153.851Z" fill="#FAECC8"/>
<path d="M-233.146 -155.637C-255.862 -101.301 -257.813 -36.137 -237.547 21.0077C-232.349 35.8639 -225.625 50.3422 -217.773 63.8281C-211.381 75.1908 -203.799 86.0236 -196.085 96.3371C-177.296 121.196 -158.378 146.804 -140.999 172.79C-121.029 203.347 -100.811 236.207 -95.0898 273.424C-92.8182 286.57 -92.6478 299.85 -91.7152 313.017C-90.8119 320.822 -88.941 328.445 -86.7366 335.993C-68.529 395.467 -23.0134 468.877 -72.9169 521.932C-115.466 571.8 -129.615 653.587 -119.114 720.73C-117.182 731.025 -113.054 740.844 -109.059 750.58C-104.983 760.313 -100.668 769.95 -96.3861 779.613C-79.4095 818.283 -62.1584 857.622 -55.417 899.827C-50.1752 933.631 -53.9675 964.023 -76.2665 988.973C-109.613 1026.73 -152.081 1053.27 -187.723 1088.2C-229.336 1127.61 -264.281 1177.75 -256.884 1241.8C-255.47 1254.65 -253.788 1268.26 -251.529 1281C-247.174 1306.9 -240.343 1332.69 -227.661 1355.66C-222.657 1364.93 -217.107 1374 -212.967 1383.82C-206.644 1398.6 -203.84 1414.68 -202.352 1430.6C-202.141 1433.26 -201.884 1435.9 -201.72 1438.56L-201.274 1446.5C-199.703 1475.04 -212.141 1498.13 -234.154 1513.22C-258.564 1530.43 -287.506 1538.28 -313.685 1551.59C-330.69 1560.23 -348.799 1573.23 -351.269 1595.05L-351.611 1594.99C-349.381 1572.87 -331.215 1559.45 -314.182 1550.53C-288.146 1536.79 -259.474 1528.73 -235.315 1511.4C-210.658 1493.67 -201.147 1470.73 -204.393 1438.67C-205.73 1420.48 -208.348 1401.93 -215.641 1385.06C-221.937 1370.53 -231.121 1357.56 -237.443 1342.99C-250.434 1313.73 -255.664 1281.61 -259.475 1250.02C-274.028 1156.99 -206.064 1095.42 -145.007 1046.12C-118.205 1023.3 -77.018 994.9 -62.6471 961.44C-41.8809 906.68 -76.2353 832.077 -98.0833 780.436C-102.297 770.746 -106.556 761.069 -110.578 751.272C-114.519 741.459 -118.617 731.576 -120.545 720.967C-129.61 659.69 -119.086 590.106 -87.3275 539.332C-84.0095 534.009 -80.117 528.742 -76.2709 523.853C-74.132 521.32 -71.124 517.765 -69.0478 515.158C-56.1591 499.718 -50.4097 478.528 -52.0594 457.549C-55.1071 414.956 -76.7497 376.971 -89.2518 336.781C-92.3551 326.576 -94.8109 315.909 -95.0997 305.232C-95.7358 286.882 -97.7855 268.479 -103.476 250.939C-109.071 233.447 -117.644 216.971 -126.788 201.243C-139.89 179.031 -155.256 156.744 -170.239 135.952C-182.225 119.139 -195.419 102.204 -207.383 85.3533C-219.409 68.0775 -229.303 49.1099 -236.919 29.2619C-252.21 -10.4195 -256.613 -54.3734 -250.367 -95.9485C-248.045 -111.523 -244.403 -126.84 -239.227 -141.494C-237.49 -146.374 -235.633 -151.196 -233.439 -155.854L-233.125 -155.676L-233.123 -155.638L-233.146 -155.637Z" fill="#FAECC8"/>
<path d="M-246.765 -157.426C-269.48 -103.09 -271.432 -37.9257 -251.166 19.2189C-245.968 34.0752 -239.243 48.5535 -231.391 62.0394C-225 73.4021 -217.417 84.2349 -209.704 94.5484C-190.914 119.407 -171.997 145.015 -154.617 171.001C-134.647 201.559 -114.43 234.419 -108.708 271.635C-106.437 284.781 -106.266 298.062 -105.334 311.228C-104.43 319.034 -102.559 326.656 -100.355 334.204C-82.1475 393.678 -36.6318 467.088 -86.5354 520.143C-129.084 570.011 -143.234 651.799 -132.733 718.942C-130.801 729.237 -126.673 739.056 -122.678 748.791C-118.601 758.524 -114.286 768.161 -110.005 777.824C-93.028 816.494 -75.7769 855.834 -69.0355 898.038C-63.7937 931.843 -67.586 962.234 -89.885 987.184C-123.232 1024.94 -165.699 1051.48 -201.342 1086.42C-242.954 1125.82 -277.899 1175.96 -270.503 1240.01C-269.089 1252.86 -267.406 1266.47 -265.148 1279.21C-260.792 1305.11 -253.961 1330.9 -241.279 1353.87C-236.276 1363.14 -230.726 1372.21 -226.586 1382.03C-220.262 1396.81 -217.459 1412.89 -215.971 1428.81C-215.76 1431.47 -215.503 1434.11 -215.338 1436.77L-214.892 1444.71C-213.322 1473.25 -225.76 1496.34 -247.772 1511.43C-272.183 1528.64 -301.124 1536.49 -327.303 1549.8C-344.308 1558.44 -362.418 1571.44 -364.888 1593.26L-365.23 1593.2C-362.999 1571.09 -344.834 1557.66 -327.8 1548.74C-301.764 1535 -273.092 1526.94 -248.934 1509.61C-224.276 1491.88 -214.766 1468.94 -218.012 1436.88C-219.349 1418.69 -221.967 1400.15 -229.259 1383.28C-235.556 1368.75 -244.74 1355.77 -251.062 1341.2C-264.052 1311.94 -269.283 1279.82 -273.094 1248.23C-287.647 1155.2 -219.682 1093.63 -158.625 1044.33C-131.824 1021.51 -90.6365 993.111 -76.2655 959.651C-55.4993 904.891 -89.8539 830.289 -111.702 778.647C-115.915 768.957 -120.175 759.28 -124.197 749.483C-128.138 739.67 -132.235 729.787 -134.163 719.178C-143.229 657.901 -132.705 588.317 -100.946 537.544C-97.628 532.22 -93.7354 526.953 -89.8894 522.064C-87.7504 519.531 -84.7425 515.976 -82.6663 513.37C-69.7776 497.929 -64.0281 476.739 -65.6779 455.76C-68.7256 413.167 -90.3682 375.182 -102.87 334.992C-105.974 324.787 -108.429 314.12 -108.718 303.443C-109.354 285.093 -111.404 266.69 -117.095 249.151C-122.689 231.658 -131.262 215.183 -140.407 199.455C-153.508 177.242 -168.875 154.956 -183.858 134.163C-195.843 117.35 -209.037 100.415 -221.002 83.5645C-233.028 66.2888 -242.921 47.3212 -250.538 27.4732C-265.829 -12.2083 -270.231 -56.1621 -263.985 -97.7373C-261.664 -113.312 -258.021 -128.629 -252.846 -143.282C-251.109 -148.163 -249.251 -152.985 -247.058 -157.642L-246.744 -157.464L-246.741 -157.427L-246.765 -157.426Z" fill="#FAECC8"/>
<path d="M-260.384 -159.216C-283.099 -104.88 -285.051 -39.7159 -264.785 17.4288C-259.587 32.285 -252.863 46.7633 -245.011 60.2493C-238.619 71.6119 -231.037 82.4447 -223.323 92.7583C-204.534 117.617 -185.616 143.225 -168.237 169.211C-148.267 199.769 -128.049 232.628 -122.328 269.845C-120.056 282.991 -119.886 296.271 -118.953 309.438C-118.05 317.243 -116.179 324.866 -113.975 332.414C-95.7669 391.888 -50.2512 465.298 -100.155 518.353C-142.704 568.221 -156.853 650.008 -146.352 717.151C-144.42 727.446 -140.292 737.265 -136.297 747.001C-132.221 756.734 -127.906 766.371 -123.624 776.034C-106.647 814.704 -89.3963 854.043 -82.6549 896.248C-77.4131 930.052 -81.2054 960.444 -103.504 985.394C-136.851 1023.15 -179.319 1049.69 -214.961 1084.63C-256.574 1124.03 -291.519 1174.17 -284.122 1238.22C-282.708 1251.07 -281.026 1264.68 -278.767 1277.42C-274.412 1303.32 -267.581 1329.11 -254.899 1352.08C-249.895 1361.35 -244.345 1370.42 -240.205 1380.24C-233.881 1395.02 -231.078 1411.1 -229.59 1427.02C-229.379 1429.68 -229.122 1432.32 -228.958 1434.98L-228.512 1442.92C-226.941 1471.46 -239.379 1494.55 -261.392 1509.64C-285.802 1526.85 -314.744 1534.7 -340.922 1548.01C-357.927 1556.65 -376.037 1569.65 -378.507 1591.47L-378.849 1591.41C-376.619 1569.3 -358.453 1555.87 -341.42 1546.95C-315.384 1533.21 -286.712 1525.15 -262.553 1507.82C-237.896 1490.09 -228.385 1467.15 -231.631 1435.09C-232.968 1416.9 -235.586 1398.36 -242.878 1381.49C-249.175 1366.96 -258.359 1353.98 -264.681 1339.41C-277.671 1310.15 -282.902 1278.03 -286.713 1246.44C-301.266 1153.41 -233.302 1091.84 -172.245 1042.54C-145.443 1019.72 -104.256 991.321 -89.885 957.861C-69.1188 903.101 -103.473 828.499 -125.321 776.857C-129.535 767.167 -133.794 757.49 -137.816 747.693C-141.757 737.88 -145.855 727.997 -147.782 717.388C-156.848 656.111 -146.324 586.527 -114.565 535.753C-111.247 530.43 -107.355 525.163 -103.509 520.274C-101.37 517.741 -98.3618 514.186 -96.2857 511.579C-83.397 496.139 -77.6475 474.949 -79.2973 453.97C-82.345 411.377 -103.988 373.392 -116.49 333.202C-119.593 322.997 -122.049 312.33 -122.338 301.653C-122.974 283.303 -125.023 264.9 -130.714 247.36C-136.308 229.868 -144.882 213.392 -154.026 197.665C-167.127 175.452 -182.494 153.166 -197.477 132.373C-209.463 115.56 -222.656 98.6253 -234.621 81.7744C-246.647 64.4986 -256.54 45.531 -264.157 25.6831C-279.448 -13.9984 -283.851 -57.9522 -277.605 -99.5274C-275.283 -115.102 -271.641 -130.419 -266.465 -145.072C-264.728 -149.953 -262.871 -154.775 -260.677 -159.432L-260.363 -159.255L-260.361 -159.217L-260.384 -159.216Z" fill="#FAECC8"/>
<path d="M-273.992 -161.003C-296.708 -106.667 -298.66 -41.5024 -278.394 15.6422C-273.196 30.4985 -266.471 44.9768 -258.619 58.4627C-252.228 69.8254 -244.645 80.6582 -236.932 90.9717C-218.142 115.83 -199.225 141.438 -181.845 167.424C-161.875 197.982 -141.658 230.842 -135.936 268.058C-133.665 281.205 -133.494 294.485 -132.562 307.651C-131.658 315.457 -129.787 323.079 -127.583 330.627C-109.375 390.102 -63.8597 463.511 -113.763 516.566C-156.312 566.435 -170.462 648.222 -159.96 715.365C-158.029 725.66 -153.9 735.479 -149.906 745.214C-145.829 754.947 -141.514 764.584 -137.244 774.248C-120.268 812.918 -103.016 852.257 -96.275 894.462C-91.0332 928.266 -94.8255 958.658 -117.125 983.608C-150.471 1021.36 -192.939 1047.91 -228.581 1082.84C-270.194 1122.24 -305.139 1172.38 -297.742 1236.44C-296.328 1249.29 -294.646 1262.89 -292.387 1275.64C-288.032 1301.54 -281.201 1327.33 -268.519 1350.29C-263.515 1359.57 -257.965 1368.64 -253.825 1378.45C-247.502 1393.23 -244.699 1409.31 -243.211 1425.24C-242.999 1427.89 -242.742 1430.53 -242.578 1433.19L-242.132 1441.14C-240.561 1469.68 -252.999 1492.76 -275.012 1507.86C-299.422 1525.07 -328.364 1532.91 -354.543 1546.23C-371.548 1554.86 -389.657 1567.87 -392.127 1589.69L-392.469 1589.62C-390.239 1567.51 -372.073 1554.09 -355.04 1545.16C-329.004 1531.43 -300.332 1523.37 -276.174 1506.04C-251.516 1488.31 -242.005 1465.37 -245.251 1433.31C-246.588 1415.12 -249.206 1396.57 -256.499 1379.7C-262.795 1365.17 -271.979 1352.19 -278.301 1337.63C-291.292 1308.36 -296.522 1276.24 -300.333 1244.65C-314.886 1151.62 -246.922 1090.05 -185.865 1040.75C-159.063 1017.93 -117.888 989.536 -103.505 956.075C-82.7505 901.315 -117.093 826.712 -138.941 775.071C-143.155 765.381 -147.414 755.704 -151.436 745.906C-155.377 736.094 -159.475 726.211 -161.403 715.602C-170.468 654.325 -159.944 584.74 -128.186 533.967C-124.868 528.644 -120.975 523.377 -117.129 518.488C-114.99 515.955 -111.982 512.4 -109.906 509.793C-97.0171 494.353 -91.2677 473.162 -92.9175 452.184C-95.9651 409.591 -117.608 371.606 -130.11 331.416C-133.213 321.21 -135.669 310.544 -135.958 299.867C-136.594 281.517 -138.643 263.114 -144.334 245.574C-149.929 228.082 -158.502 211.606 -167.646 195.878C-180.748 173.666 -196.114 151.379 -211.097 130.587C-223.083 113.774 -236.277 96.8392 -248.241 79.9883C-260.267 62.7125 -270.161 43.7449 -277.777 23.8969C-293.068 -15.7846 -297.471 -59.7384 -291.225 -101.314C-288.904 -116.888 -285.261 -132.205 -280.085 -146.859C-278.348 -151.739 -276.491 -156.561 -274.297 -161.219L-273.983 -161.041L-273.981 -161.003L-273.992 -161.003Z" fill="#FAECC8"/>
<path d="M-287.612 -162.788C-310.328 -108.452 -312.279 -43.288 -292.013 13.8566C-286.816 28.7128 -280.091 43.1912 -272.239 56.6771C-265.847 68.0398 -258.265 78.8725 -250.551 89.1861C-231.762 114.045 -212.844 139.653 -195.465 165.639C-175.495 196.196 -155.277 229.056 -149.556 266.272C-147.284 279.419 -147.114 292.699 -146.181 305.866C-145.278 313.671 -143.407 321.293 -141.203 328.842C-122.995 388.316 -77.4794 461.726 -127.383 514.781C-169.932 564.649 -184.081 646.436 -173.58 713.579C-171.648 723.874 -167.52 733.693 -163.525 743.429C-159.449 753.162 -155.134 762.799 -150.864 772.462C-133.887 811.133 -116.636 850.472 -109.895 892.676C-104.653 926.481 -108.445 956.872 -130.744 981.822C-164.091 1019.58 -206.558 1046.12 -242.201 1081.05C-283.814 1120.46 -318.758 1170.59 -311.362 1234.65C-309.948 1247.5 -308.265 1261.11 -306.007 1273.85C-301.652 1299.75 -294.82 1325.54 -282.139 1348.51C-277.135 1357.78 -271.585 1366.85 -267.445 1376.67C-261.121 1391.45 -258.318 1407.53 -256.83 1423.45C-256.619 1426.11 -256.362 1428.75 -256.197 1431.4L-255.752 1439.35C-254.181 1467.89 -266.619 1490.98 -288.631 1506.07C-313.042 1523.28 -341.984 1531.13 -368.162 1544.44C-385.167 1553.08 -403.277 1566.08 -405.747 1587.9L-406.089 1587.84C-403.858 1565.72 -385.693 1552.3 -368.659 1543.38C-342.623 1529.64 -313.952 1521.58 -289.793 1504.25C-265.135 1486.52 -255.625 1463.58 -258.871 1431.52C-260.208 1413.33 -262.826 1394.78 -270.118 1377.91C-276.415 1363.38 -285.599 1350.41 -291.921 1335.84C-304.911 1306.58 -310.142 1274.46 -313.953 1242.87C-328.506 1149.84 -260.541 1088.26 -199.485 1038.97C-172.683 1016.15 -131.507 987.75 -117.125 954.289C-96.3701 899.529 -130.713 824.927 -152.561 773.285C-156.774 763.595 -161.034 753.918 -165.056 744.121C-168.997 734.308 -173.094 724.425 -175.022 713.816C-184.088 652.539 -173.564 582.955 -141.805 532.182C-138.487 526.858 -134.595 521.591 -130.749 516.702C-128.61 514.169 -125.602 510.614 -123.525 508.008C-110.637 492.567 -104.887 471.377 -106.537 450.398C-109.585 407.805 -131.227 369.82 -143.729 329.63C-146.833 319.425 -149.289 308.758 -149.577 298.081C-150.214 279.731 -152.263 261.328 -157.954 243.789C-163.548 226.296 -172.121 209.821 -181.266 194.093C-194.367 171.88 -209.734 149.594 -224.717 128.801C-236.703 111.989 -249.896 95.0535 -261.861 78.2026C-273.887 60.9268 -283.78 41.9592 -291.397 22.1113C-306.688 -17.5702 -311.09 -61.5241 -304.845 -103.099C-302.523 -118.673 -298.881 -133.991 -293.705 -148.644C-291.968 -153.525 -290.111 -158.347 -287.917 -163.004L-287.603 -162.826L-287.6 -162.789L-287.612 -162.788Z" fill="#FAECC8"/>
<path d="M-301.232 -164.575C-323.947 -110.239 -325.899 -45.0748 -305.633 12.0698C-300.435 26.9261 -293.71 41.4044 -285.859 54.8903C-279.467 66.253 -271.884 77.0858 -264.171 87.3993C-245.381 112.258 -226.464 137.866 -209.085 163.852C-189.114 194.41 -168.897 227.269 -163.175 264.486C-160.904 277.632 -160.733 290.912 -159.801 304.079C-158.898 311.884 -157.027 319.507 -154.822 327.055C-136.615 386.529 -91.099 459.939 -141.003 512.994C-183.551 562.862 -197.701 644.649 -187.2 711.793C-185.268 722.087 -181.14 731.906 -177.145 741.642C-173.069 751.375 -168.753 761.012 -164.472 770.675C-147.495 809.345 -130.244 848.684 -123.503 890.889C-118.261 924.693 -122.053 955.085 -144.352 980.035C-177.699 1017.79 -220.166 1044.34 -255.809 1079.27C-297.421 1118.67 -332.366 1168.81 -324.97 1232.87C-323.556 1245.71 -321.873 1259.32 -319.615 1272.07C-315.26 1297.96 -308.428 1323.75 -295.747 1346.72C-290.743 1355.99 -285.193 1365.06 -281.053 1374.88C-274.729 1389.66 -271.926 1405.74 -270.438 1421.66C-270.227 1424.32 -269.97 1426.96 -269.805 1429.62L-269.359 1437.56C-267.789 1466.1 -280.227 1489.19 -302.239 1504.29C-326.65 1521.5 -355.592 1529.34 -381.77 1542.65C-398.775 1551.29 -416.885 1564.29 -419.355 1586.11L-419.697 1586.05C-417.466 1563.94 -399.301 1550.52 -382.267 1541.59C-356.231 1527.85 -327.559 1519.79 -303.401 1502.47C-278.743 1484.73 -269.233 1461.8 -272.479 1429.73C-273.816 1411.54 -276.434 1393 -283.726 1376.13C-290.023 1361.6 -299.207 1348.62 -305.529 1334.05C-318.519 1304.79 -323.75 1272.67 -327.561 1241.08C-342.114 1148.05 -274.149 1086.48 -213.093 1037.18C-186.291 1014.36 -145.115 985.963 -130.733 952.502C-109.978 897.742 -144.321 823.14 -166.169 771.498C-170.382 761.808 -174.642 752.131 -178.664 742.334C-182.605 732.521 -186.702 722.638 -188.63 712.029C-197.696 650.752 -187.172 581.168 -155.413 530.394C-152.095 525.071 -148.203 519.804 -144.357 514.915C-142.218 512.382 -139.21 508.827 -137.133 506.22C-124.245 490.78 -118.495 469.59 -120.145 448.611C-123.193 406.018 -144.835 368.033 -157.337 327.843C-160.441 317.638 -162.897 306.971 -163.185 296.294C-163.822 277.944 -165.871 259.541 -171.562 242.001C-177.156 224.509 -185.729 208.033 -194.874 192.306C-207.975 170.093 -223.342 147.807 -238.325 127.014C-250.311 110.201 -263.504 93.2663 -275.469 76.4154C-287.495 59.1397 -297.388 40.1721 -305.005 20.3241C-320.296 -19.3574 -324.698 -63.3112 -318.452 -104.886C-316.131 -120.461 -312.489 -135.778 -307.313 -150.431C-305.576 -155.312 -303.719 -160.134 -301.525 -164.791L-301.211 -164.614L-301.208 -164.576L-301.232 -164.575Z" fill="#FAECC8"/>
<path d="M-314.851 -166.364C-337.567 -112.028 -339.519 -46.8637 -319.253 10.281C-314.055 25.1372 -307.33 39.6155 -299.478 53.1014C-293.086 64.4641 -285.504 75.2969 -277.79 85.6104C-259.001 110.469 -240.083 136.077 -222.704 162.063C-202.734 192.621 -182.516 225.481 -176.795 262.697C-174.523 275.843 -174.353 289.124 -173.42 302.29C-172.517 310.096 -170.646 317.718 -168.442 325.266C-150.234 384.74 -104.718 458.15 -154.622 511.205C-197.171 561.073 -211.321 642.861 -200.819 710.004C-198.887 720.299 -194.759 730.118 -190.764 739.853C-186.688 749.586 -182.373 759.223 -178.091 768.886C-161.115 807.557 -143.864 846.896 -137.122 889.1C-131.88 922.905 -135.673 953.296 -157.972 978.246C-191.318 1016 -233.786 1042.55 -269.428 1077.48C-311.041 1116.88 -345.986 1167.02 -338.589 1231.08C-337.175 1243.93 -335.493 1257.53 -333.235 1270.28C-328.879 1296.17 -322.048 1321.96 -309.366 1344.93C-304.362 1354.21 -298.812 1363.27 -294.672 1373.09C-288.349 1387.87 -285.546 1403.95 -284.058 1419.88C-283.846 1422.53 -283.589 1425.17 -283.425 1427.83L-282.979 1435.77C-281.408 1464.32 -293.847 1487.4 -315.859 1502.5C-340.269 1519.71 -369.211 1527.55 -395.39 1540.87C-412.395 1549.5 -430.504 1562.5 -432.975 1584.33L-433.316 1584.26C-431.086 1562.15 -412.92 1548.73 -395.887 1539.8C-369.851 1526.07 -341.179 1518 -317.021 1500.68C-292.363 1482.94 -282.852 1460.01 -286.098 1427.94C-287.435 1409.76 -290.053 1391.21 -297.346 1374.34C-303.642 1359.81 -312.826 1346.83 -319.148 1332.26C-332.139 1303 -337.369 1270.88 -341.18 1239.29C-355.733 1146.26 -287.769 1084.69 -226.712 1035.39C-199.91 1012.57 -158.723 984.173 -144.352 950.713C-123.586 895.953 -157.94 821.351 -179.788 769.709C-184.002 760.019 -188.261 750.342 -192.283 740.545C-196.225 730.732 -200.322 720.849 -202.25 710.24C-211.315 648.963 -200.791 579.379 -169.033 528.606C-165.715 523.282 -161.822 518.015 -157.976 513.126C-155.837 510.593 -152.829 507.038 -150.753 504.432C-137.864 488.991 -132.115 467.801 -133.765 446.822C-136.812 404.229 -158.455 366.244 -170.957 326.054C-174.06 315.849 -176.516 305.182 -176.805 294.505C-177.441 276.155 -179.491 257.752 -185.181 240.213C-190.776 222.72 -199.349 206.245 -208.494 190.517C-221.595 168.304 -236.961 146.018 -251.944 125.225C-263.93 108.413 -277.124 91.4775 -289.088 74.6266C-301.114 57.3508 -311.008 38.3832 -318.624 18.5352C-333.916 -21.1462 -338.318 -65.1001 -332.072 -106.675C-329.751 -122.249 -326.108 -137.567 -320.932 -152.22C-319.195 -157.101 -317.338 -161.923 -315.144 -166.58L-314.83 -166.402L-314.828 -166.365L-314.851 -166.364Z" fill="#FAECC8"/>
<path d="M-328.47 -168.153C-351.185 -113.817 -353.137 -48.6528 -332.871 8.49181C-327.673 23.348 -320.948 37.8263 -313.097 51.3123C-306.705 62.6749 -299.122 73.5077 -291.409 83.8213C-272.619 108.68 -253.702 134.288 -236.323 160.274C-216.352 190.832 -196.135 223.691 -190.413 260.908C-188.142 274.054 -187.971 287.334 -187.039 300.501C-186.136 308.306 -184.265 315.929 -182.06 323.477C-163.853 382.951 -118.337 456.361 -168.241 509.416C-210.789 559.284 -224.939 641.071 -214.438 708.214C-212.506 718.509 -208.378 728.328 -204.383 738.064C-200.307 747.797 -195.991 757.434 -191.71 767.097C-174.733 805.767 -157.482 845.106 -150.741 887.311C-145.499 921.115 -149.291 951.507 -171.59 976.457C-204.937 1014.21 -247.404 1040.76 -283.047 1075.69C-324.659 1115.09 -359.604 1165.23 -352.208 1229.29C-350.794 1242.14 -349.111 1255.74 -346.853 1268.49C-342.498 1294.39 -335.666 1320.17 -322.985 1343.14C-317.981 1352.42 -312.431 1361.48 -308.291 1371.3C-301.967 1386.08 -299.164 1402.16 -297.676 1418.09C-297.465 1420.74 -297.208 1423.38 -297.043 1426.04L-296.597 1433.99C-295.027 1462.53 -307.465 1485.61 -329.477 1500.71C-353.888 1517.92 -382.83 1525.76 -409.008 1539.08C-426.013 1547.71 -444.123 1560.72 -446.593 1582.54L-446.935 1582.47C-444.704 1560.36 -426.539 1546.94 -409.505 1538.01C-383.469 1524.28 -354.797 1516.22 -330.639 1498.89C-305.981 1481.15 -296.471 1458.22 -299.717 1426.15C-301.054 1407.97 -303.672 1389.42 -310.964 1372.55C-317.261 1358.02 -326.445 1345.04 -332.767 1330.47C-345.757 1301.21 -350.988 1269.09 -354.799 1237.5C-369.352 1144.47 -301.387 1082.9 -240.331 1033.6C-213.529 1010.78 -172.342 982.384 -157.971 948.924C-137.205 894.164 -171.559 819.562 -193.407 767.92C-197.62 758.23 -201.88 748.553 -205.902 738.756C-209.843 728.943 -213.94 719.06 -215.868 708.451C-224.934 647.174 -214.41 577.59 -182.651 526.816C-179.333 521.493 -175.441 516.226 -171.595 511.337C-169.456 508.804 -166.448 505.249 -164.371 502.642C-151.483 487.202 -145.733 466.012 -147.383 445.033C-150.431 402.44 -172.073 364.455 -184.575 324.265C-187.679 314.06 -190.135 303.393 -190.423 292.716C-191.059 274.366 -193.109 255.963 -198.8 238.423C-204.394 220.931 -212.967 204.455 -222.112 188.728C-235.213 166.515 -250.58 144.229 -265.563 123.436C-277.548 106.623 -290.742 89.6883 -302.707 72.8374C-314.733 55.5616 -324.626 36.5941 -332.243 16.7461C-347.534 -22.9354 -351.936 -66.8892 -345.69 -108.464C-343.369 -124.039 -339.726 -139.356 -334.551 -154.009C-332.814 -158.89 -330.957 -163.712 -328.763 -168.369L-328.449 -168.192L-328.446 -168.154L-328.47 -168.153Z" fill="#FAECC8"/>
<path d="M-342.078 -169.94C-364.794 -115.604 -366.746 -50.4394 -346.48 6.70529C-341.282 21.5615 -334.557 36.0398 -326.705 49.5257C-320.313 60.8884 -312.731 71.7212 -305.017 82.0348C-286.228 106.893 -267.31 132.501 -249.931 158.487C-229.961 189.045 -209.743 221.905 -204.022 259.121C-201.75 272.268 -201.58 285.548 -200.647 298.714C-199.744 306.52 -197.873 314.142 -195.669 321.69C-177.461 381.165 -131.946 454.574 -181.849 507.629C-224.398 557.498 -238.548 639.285 -228.046 706.428C-226.115 716.723 -221.986 726.542 -217.991 736.278C-213.915 746.01 -209.6 755.647 -205.318 765.311C-188.342 803.981 -171.091 843.32 -164.349 885.525C-159.107 919.329 -162.9 949.72 -185.199 974.67C-218.545 1012.42 -261.013 1038.97 -296.656 1073.9C-338.268 1113.3 -373.213 1163.44 -365.816 1227.5C-364.402 1240.35 -362.72 1253.96 -360.462 1266.7C-356.106 1292.6 -349.275 1318.39 -336.593 1341.36C-331.589 1350.63 -326.039 1359.7 -321.899 1369.52C-315.576 1384.3 -312.773 1400.38 -311.285 1416.3C-311.073 1418.96 -310.817 1421.6 -310.652 1424.25L-310.206 1432.2C-308.635 1460.74 -321.074 1483.83 -343.086 1498.92C-367.496 1516.13 -396.438 1523.98 -422.617 1537.29C-439.622 1545.92 -457.731 1558.93 -460.202 1580.75L-460.544 1580.69C-458.313 1558.57 -440.148 1545.15 -423.114 1536.23C-397.078 1522.49 -368.406 1514.43 -344.248 1497.1C-319.59 1479.37 -310.08 1456.43 -313.325 1424.37C-314.662 1406.18 -317.28 1387.63 -324.573 1370.76C-330.869 1356.23 -340.053 1343.26 -346.376 1328.69C-359.366 1299.43 -364.597 1267.31 -368.408 1235.71C-382.961 1142.69 -314.996 1081.11 -253.939 1031.81C-227.137 1009 -185.962 980.598 -171.579 947.137C-150.825 892.378 -185.168 817.775 -207.015 766.134C-211.229 756.443 -215.488 746.767 -219.51 736.969C-223.452 727.156 -227.549 717.273 -229.477 706.664C-238.542 645.388 -228.019 575.803 -196.26 525.03C-192.942 519.707 -189.049 514.439 -185.203 509.551C-183.064 507.017 -180.056 503.463 -177.98 500.856C-165.091 485.415 -159.342 464.225 -160.992 443.247C-164.039 400.654 -185.682 362.668 -198.184 322.478C-201.287 312.273 -203.743 301.607 -204.032 290.93C-204.668 272.579 -206.718 254.176 -212.408 236.637C-218.003 219.144 -226.576 202.669 -235.721 186.941C-248.822 164.729 -264.189 142.442 -279.171 121.649C-291.157 104.837 -304.351 87.9018 -316.315 71.0509C-328.341 53.7751 -338.235 34.8075 -345.852 14.9596C-361.143 -24.7219 -365.545 -68.6758 -359.299 -110.251C-356.978 -125.825 -353.335 -141.143 -348.159 -155.796C-346.422 -160.677 -344.565 -165.498 -342.371 -170.156L-342.057 -169.978L-342.055 -169.941L-342.078 -169.94Z" fill="#FAECC8"/>
</svg>
