<svg width="389" height="677" viewBox="0 0 389 677" fill="none" xmlns="http://www.w3.org/2000/svg">
<path d="M-1220.87 134.977C-1291.43 308.908 -1313.91 549.866 -1091.52 613.98C-1045.98 627.357 -998.26 631.846 -950.911 632.031C-880.006 633.115 -807.551 620.647 -745.769 584.395C-576.286 487.012 -525.821 274.89 -373.457 159.231C-254.097 68.3221 -96.4579 87.378 36.6687 134.873C161.902 180.969 241.465 273.999 187.081 410.212C124.496 558.609 -37.0791 668.201 -177.808 736.544C-370.944 828.475 -587.478 871.297 -801.047 859.145C-848.424 856.537 -895.945 856.027 -943.323 858.717C-1500.05 889.13 -1321.63 1345.39 -878.433 1352.84C-1018.54 1351.33 -1170.36 1301.67 -1254.49 1183.96C-1296.53 1124.49 -1309.03 1045.62 -1265.16 983.48C-1223.47 924.092 -1152.61 894.305 -1084.43 876.916C-991.87 854.218 -895.644 852.044 -800.9 856.843C-587.736 868.567 -371.704 825.952 -178.995 734.051C-31.4818 664.077 183.598 515.776 200.909 340.649C209.257 235.504 125.611 170.657 35.6824 137.511C-96.6344 90.2805 -253.218 71.0445 -371.887 161.318C-524.07 277.065 -574.978 489.003 -744.781 586.089C-806.899 622.422 -879.685 634.877 -950.903 633.681C-998.387 633.409 -1046.25 628.886 -1091.91 615.339C-1314.75 550.406 -1292.14 309.504 -1220.87 134.977Z" fill="#3658B2"/>
<path d="M-1220.87 134.977C-1261.88 248.537 -1285.77 406.505 -1214.06 512.008C-1179.72 562.104 -1127.56 592.58 -1069.65 608.167C-1023.93 620.508 -976.242 624.446 -928.971 623.766C-881.68 623.423 -834.09 617.851 -789.356 601.947C-599.995 537.315 -535.607 327.969 -407.027 194.024C-307.015 88.8481 -183.461 69.8264 -45.6278 98.5416C12.2881 110.792 70.3042 127.984 121.134 158.985C276.137 254.267 229.292 408.546 124.685 523.697C-65.9519 728.674 -368.624 834.568 -643.676 850.837C-738.475 857.414 -833.256 843.837 -928.041 850.41C-974.988 853.131 -1022.8 859.173 -1068.45 870.652C-1138.63 888.572 -1212.86 920.251 -1252.37 984.152C-1253.13 985.415 -1254 986.617 -1254.66 987.931L-1258.77 995.755C-1259.46 997.059 -1260.17 998.357 -1260.7 999.724L-1264.18 1007.85C-1264.81 1009.18 -1265.24 1010.59 -1265.71 1011.99L-1268.53 1020.37C-1269.64 1024.65 -1270.76 1028.93 -1271.7 1033.24L-1273.15 1041.96L-1273.5 1044.14L-1273.69 1046.34L-1274.46 1055.13C-1274.61 1059.54 -1274.63 1063.97 -1274.59 1068.38L-1274.01 1077.21L-1273.87 1079.41C-1273.07 1084.23 -1272.69 1089.92 -1271.54 1094.71L-1269.72 1103.36C-1268.58 1107.09 -1266.26 1116.41 -1264.62 1120.31C-1250.13 1162.35 -1222.23 1198.59 -1189.64 1228.41C-1100.83 1307.95 -979.377 1342.72 -861.707 1344.35C-979.504 1343.04 -1101.13 1308.51 -1190.25 1229.08C-1220.93 1201.24 -1247.25 1167.73 -1262.76 1129.09C-1264.16 1125.1 -1265.95 1120.59 -1267.3 1116.54C-1267.79 1115.13 -1268.13 1113.69 -1268.55 1112.27L-1270.98 1103.7C-1272.06 1098.18 -1273.76 1091.64 -1274.3 1086.19C-1274.65 1083.41 -1275.27 1080.07 -1275.37 1077.34C-1276.06 1070.05 -1276.13 1062.24 -1275.87 1055.06C-1275.75 1052.83 -1275.27 1048.4 -1275.13 1046.17C-1275.15 1044.55 -1273.47 1035 -1273.15 1032.92C-1271.81 1027.25 -1270.56 1021.21 -1268.56 1015.69L-1267.14 1011.46C-1266.68 1010.05 -1266.23 1008.63 -1265.6 1007.28L-1262.11 999.07C-1260.56 995.413 -1257.81 990.756 -1256.02 987.137C-1218.74 923.023 -1146.5 889.813 -1077.52 871.04C-1040.57 861.015 -1001.7 854.859 -963.643 851.025C-904.604 845.437 -845.006 845.188 -785.845 848.29C-503.091 863.191 -211.087 786.29 17.6631 617.074C74.0349 574.188 126.432 524.828 166.106 465.881C240.806 355.343 242.758 236.477 119.659 161.389C69.1262 130.553 11.4398 113.421 -46.1609 101.235C-183.079 72.6613 -305.708 91.3225 -405.141 195.802C-533.704 329.912 -598.941 539.348 -788.712 603.693C-833.645 619.608 -881.481 625.142 -928.915 625.417C-976.316 626.026 -1024.16 622.025 -1070 609.546C-1128.15 593.732 -1180.47 562.974 -1214.86 512.549C-1286.48 406.632 -1262.26 248.754 -1220.87 134.977Z" fill="#3658B2"/>
<path d="M-1220.87 134.977C-1248.59 223.399 -1261.75 323.701 -1240.05 414.685C-1198.19 586.446 -1037.69 624.763 -881.072 614.287C-792.075 608.419 -714.98 577.159 -648.846 517.01C-540.269 419.178 -485.58 277.158 -381.46 175.347C-371.122 165.32 -359.263 154.994 -347.846 146.166C-258.302 76.2986 -151.49 66.9556 -42.8495 87.4084C9.34277 97.2907 61.7389 111.555 109.569 134.976C291.706 224.795 258.902 386.629 139.465 517.327C-21.4667 689.531 -258.151 787.472 -487.396 826.966C-580.924 842.541 -676.18 847.644 -770.816 842.082C-821.003 839.365 -871.37 839.319 -921.539 842.503C-927.758 843.067 -941.813 844.163 -948.05 844.717C-952.942 845.178 -969.525 847.191 -974.494 847.706C-994.393 850.505 -1016.02 853.864 -1035.62 858.386C-1115.93 876.394 -1205.13 912.019 -1243.5 989.974L-1247.84 1000.12C-1249.37 1004.26 -1250.72 1008.47 -1252.1 1012.65L-1254.25 1021.22C-1254.6 1022.65 -1254.99 1024.07 -1255.19 1025.53L-1256.64 1034.24C-1256.94 1035.68 -1256.98 1037.15 -1257.12 1038.61L-1257.89 1047.41L-1257.93 1051.81C-1258.13 1058.85 -1257.74 1066.92 -1256.86 1073.83L-1255.65 1082.58C-1254.82 1086.92 -1253.87 1091.23 -1252.93 1095.56C-1251.69 1099.61 -1249.53 1108.32 -1247.79 1112.46L-1246.32 1116.63C-1244.54 1121.81 -1242.33 1126.19 -1240.43 1130.94C-1238.6 1134.55 -1236.36 1139.2 -1234.53 1142.82C-1233.05 1145.57 -1229.45 1151.66 -1227.97 1154.36L-1226.78 1156.23L-1224.38 1159.95C-1142.6 1282.32 -987.009 1333.8 -845.067 1335.88C-987.21 1334.18 -1143.14 1282.89 -1225.31 1160.54L-1227.73 1156.82L-1228.92 1154.95C-1230.33 1152.36 -1234.12 1145.96 -1235.54 1143.38C-1237.35 1139.72 -1239.69 1135.1 -1241.5 1131.45C-1243.17 1127.54 -1246.06 1121.03 -1247.46 1117.07C-1248.79 1112.84 -1250.68 1108.7 -1251.73 1104.44L-1254.17 1095.88C-1255.52 1090.27 -1256.77 1084.17 -1257.56 1078.41C-1257.83 1075.58 -1258.59 1072.35 -1258.67 1069.59L-1259.26 1060.7C-1259.42 1056.71 -1259.3 1051.4 -1259.28 1047.34C-1258.83 1043.07 -1258.69 1038.22 -1258.05 1034.04C-1257.44 1030.26 -1256.58 1024.32 -1255.67 1020.88L-1253.52 1012.22C-1252.14 1007.99 -1250.77 1003.73 -1249.24 999.547L-1245.74 991.338C-1209.46 913.924 -1123.3 877.647 -1044.68 858.399C-1038.17 856.956 -1029.4 855.016 -1022.97 853.627C-1020.79 853.169 -1003.81 850.168 -1001.11 849.623C-992.773 848.386 -983.161 846.873 -974.719 845.683C-969.522 845.149 -953.725 843.223 -948.226 842.648C-889.275 837.023 -829.75 836.686 -770.663 839.747C-488.259 854.952 -196.663 778.527 32.2416 610.17C88.6984 567.524 141.143 518.385 181.158 459.807C279.951 314.188 240.831 187.31 75.9574 123.189C33.6082 106.539 -11.6394 95.5248 -56.4203 87.6949C-164.156 70.0508 -266.628 82.6444 -353.161 153.7C-363.31 161.787 -373.567 171.23 -382.851 180.205C-484.693 281.905 -539.81 421.742 -647.432 518.503C-716.164 580.898 -797.378 612.428 -889.83 616.379C-1044.68 625.111 -1200.22 583.308 -1240.75 414.795C-1262.24 323.577 -1248.82 223.404 -1220.86 134.911L-1220.87 134.977Z" fill="#3658B2"/>
<path d="M-1220.87 134.977C-1248.55 237.66 -1256.32 367.133 -1206.9 464.113C-1197.41 482.394 -1185.85 499.75 -1172.15 515.135C-1156.56 532.653 -1138.1 548.112 -1118.04 560.271C-1032.87 612.447 -913.374 615.524 -816.894 599.58C-576.126 554.921 -519.215 322.754 -369.06 169.976C-267.289 67.7046 -142.009 53.0933 -5.85803 83.0107C74.0104 100.767 158.265 128.15 213.612 191.614C245.163 227.727 259.5 277.177 253.059 324.599C236.725 440.729 138.624 537.281 48.9603 605.329C-142.069 745.753 -377.665 820.707 -613.346 834.12C-648.813 835.959 -684.362 836.325 -719.854 835.163C-778.874 832.332 -838.009 829.751 -897.036 833.653C-913.35 834.545 -933.685 836.425 -949.968 838.399C-1034.07 848.743 -1131.03 872.416 -1192.67 933.87C-1234.39 975.286 -1250.55 1030.47 -1236.05 1087.66C-1223.52 1136.47 -1192.59 1178.59 -1155.67 1212.12C-1066.83 1291.22 -945.774 1325.89 -828.348 1327.47C-945.89 1326.19 -1067.14 1291.77 -1156.29 1212.8C-1193.44 1179.24 -1224.63 1136.97 -1237.32 1087.98C-1252.08 1030.29 -1235.91 974.633 -1193.83 932.724C-1131.99 870.87 -1034.69 846.898 -950.203 836.394C-933.834 834.396 -913.526 832.476 -897.154 831.568C-838.043 827.58 -778.842 830.063 -719.767 832.816C-684.339 833.919 -648.864 833.511 -613.475 831.617C-378.34 818.098 -143.29 743.254 47.2418 603.052C136.34 535.37 233.747 439.438 250.122 324.263C256.418 277.583 242.467 229.035 211.394 193.5C164.773 139.563 95.4595 111.935 27.9719 93.986C11.1511 89.5541 -6.8595 85.3255 -23.8008 82.2062C-228.524 43.5037 -344.15 115.29 -456.208 281.77C-550.794 421.204 -635.658 569.347 -816.572 601.342C-913.51 617.215 -1033.22 613.982 -1118.69 561.316C-1138.8 549.046 -1157.33 533.466 -1172.93 515.828C-1186.64 500.353 -1198.23 482.896 -1207.68 464.526C-1256.92 367.261 -1248.87 237.784 -1220.88 134.995L-1220.87 134.977Z" fill="#3658B2"/>
<path d="M-1220.87 134.977C-1247.33 254.37 -1245.4 409.702 -1160.08 505.652C-1120.81 550.412 -1065.81 577.467 -1008.12 589.86C-961.962 599.911 -914.344 601.406 -867.281 598.76C-820.2 596.343 -773.234 587.523 -729.55 569.553C-544.865 495.208 -483.51 289.573 -350.553 158.463C-278.001 87.7347 -193.114 57.2486 -92.0929 60.9834C-32.9749 63.3971 25.6698 75.5775 81.9435 93.4909C264.298 151.895 328.208 283.46 214.482 448.271C68.7985 650.324 -216.581 771.312 -456.83 810.523C-538.54 823.903 -621.527 829.454 -704.274 826.646C-774.998 823.001 -846 820.823 -916.577 828.012C-999.118 836.785 -1090.13 856.106 -1156.72 908.205L-1160.21 910.912L-1163.52 913.83L-1170.15 919.657C-1172.33 921.626 -1174.32 923.806 -1176.43 925.863C-1181.23 930.427 -1185.35 935.62 -1189.7 940.601L-1191.01 942.367L-1196.27 949.462C-1220.62 983.931 -1229.41 1025.21 -1222.05 1066.75C-1216.96 1094.21 -1205.79 1120.49 -1190.51 1143.81C-1122.7 1245.59 -1000.53 1298.43 -882.338 1314.01C-858.907 1317.02 -835.3 1318.63 -811.675 1319.01C-929.118 1317.74 -1050.22 1283.36 -1139.36 1204.56C-1174.34 1172.97 -1204.01 1133.92 -1218.08 1088.52C-1232.88 1040.31 -1227.16 992.396 -1198.89 950.342C-1197.03 947.782 -1194.19 943.954 -1192.3 941.382L-1190.97 939.597L-1189.53 937.902C-1183.84 931.056 -1177.76 924.563 -1171.3 918.445C-1168.5 915.985 -1163.85 911.869 -1161.3 909.622C-1099.65 860.006 -1020.22 839.947 -943.246 829.088C-923.18 826.49 -901.577 824.353 -881.44 823.137C-834.209 820.209 -786.842 820.405 -739.611 822.775C-551.017 833.924 -360.206 802.376 -184.903 732.125C-54.2719 679.023 71.1744 605.524 167.798 501.638C214.702 449.844 256.433 388.402 266.506 317.991C283.539 190.767 171.601 121.807 64.1798 90.8739C-85.5034 47.9711 -230.902 44.564 -348.784 160.321C-481.895 291.709 -543.455 496.904 -728.872 571.306C-772.757 589.286 -819.992 598.09 -867.232 600.445C-937.757 604.3 -1010.89 598.889 -1075.74 568.958C-1097.14 559.148 -1117.64 546.412 -1135.55 531.122C-1153.59 515.979 -1169.47 497.814 -1182.42 478.194C-1245.86 381.881 -1245.44 244.211 -1220.92 134.989L-1220.87 134.977Z" fill="#3658B2"/>
<path d="M-1220.87 134.977C-1238.31 236.106 -1233.68 353.665 -1184.09 445.405C-1156.92 495.188 -1115.56 534.53 -1064.21 558.695C-997.098 590.139 -921.06 595.6 -847.971 590.303C-753.467 585.62 -661.697 547.303 -593.794 481.173C-465.71 362.051 -406.501 167.086 -245.826 85.7868C-159.937 42.9348 -59.3054 46.2369 32.1959 67.1023C72.4474 76.0526 112.705 87.8371 150.205 105.093C343.21 193.909 311.993 360.646 185.554 496.388C-5.38965 697.169 -309.469 802.892 -582.171 817.299C-629.378 819.768 -676.712 819.204 -723.89 816.585C-800.377 812.812 -877.518 814.073 -953.201 826.71C-1026.99 839.688 -1106.06 863.368 -1160.08 917.779C-1204.07 962.156 -1218.41 1020.22 -1200.01 1080.07C-1193.06 1102.49 -1182.15 1123.74 -1168.7 1142.97C-1099.38 1239.82 -980.997 1290.35 -865.556 1305.55C-842.143 1308.55 -818.565 1310.17 -794.954 1310.56C-912.268 1309.25 -1033.33 1274.95 -1122.43 1196.29C-1157.41 1164.8 -1187.08 1125.74 -1201.25 1080.44C-1216.8 1030.56 -1209.91 979.174 -1178.51 936.92C-1168.15 922.633 -1155.3 909.76 -1141.49 898.778C-1097.31 863.602 -1042.81 844.192 -988.309 831.686C-948.061 822.515 -906.628 817.396 -865.485 814.729C-818.292 811.781 -770.965 811.942 -723.772 814.292C-511.833 826.852 -296.87 785.886 -104.511 696.018C22.2035 635.507 144.899 554.855 227.759 439.561C320.943 306.999 303.478 178.109 149.017 107.679C111.709 90.4933 71.6444 78.7309 31.5907 69.817C-59.3215 49.0464 -159.302 45.6189 -244.657 88.1607C-297.646 114.333 -341.465 155.622 -378.306 201.301C-452.459 292.92 -505.947 401.044 -592.367 482.709C-660.625 549.019 -753.031 587.457 -847.855 592C-921.202 597.215 -997.49 591.592 -1064.75 559.848C-1116.21 535.481 -1157.7 495.834 -1184.81 445.816C-1234.24 353.874 -1238.59 236.189 -1220.88 134.995L-1220.87 134.977Z" fill="#3658B2"/>
<path d="M-1220.87 134.977C-1232.26 226.384 -1224.34 327.58 -1185.63 411.958C-1158.14 471.572 -1113.24 520.493 -1053.78 549.14C-984.579 583.019 -905.115 588.348 -829.315 581.849C-758.854 576.797 -689.311 554.728 -631.061 514.401C-532.529 447.019 -472.93 340.605 -405.507 245.132C-364.798 187.445 -319.101 131.091 -258.641 93.0699C-163.444 32.1357 -47.036 35.3871 59.1802 60.9027C165.973 85.4417 299.405 143.133 304.458 269.186C306.484 353.619 256.271 428.76 201.381 488.89C36.9731 659.915 -194.467 754.566 -425.367 793.946C-501.145 806.252 -578.035 811.789 -654.787 810.18C-672.482 809.911 -690.203 808.903 -707.88 808.099C-778.465 804.664 -849.551 805.44 -919.573 815.632C-1009.99 828.812 -1121.04 861.351 -1170.47 944.385C-1189.89 977.712 -1195.75 1017.21 -1187.57 1054.83L-1186.22 1061.3L-1183.24 1071.89C-1182.88 1073.31 -1182.36 1074.69 -1181.86 1076.07L-1180.4 1080.23C-1178.68 1085.76 -1175.94 1091.36 -1173.82 1096.58C-1116.72 1216.46 -975.138 1281.13 -848.802 1297.1C-825.404 1300.1 -801.83 1301.71 -778.234 1302.1C-807.698 1301.71 -837.225 1299.37 -866.343 1294.82C-987.475 1275.75 -1119.79 1212.08 -1174.92 1097.1C-1176.34 1093.91 -1178.85 1087.92 -1180.08 1084.85C-1180.81 1082.7 -1182.32 1078.62 -1183.05 1076.49C-1184.45 1072.85 -1186.33 1065.46 -1187.47 1061.63C-1195.81 1027.93 -1194.13 991.369 -1179.76 959.502L-1178.03 955.416L-1175.98 951.475C-1174.58 948.859 -1173.27 946.206 -1171.82 943.62L-1167.1 936.086C-1164.94 932.472 -1161.87 928.658 -1159.39 925.214C-1156.41 921.097 -1151.32 915.436 -1147.96 911.629C-1146.16 909.787 -1140.5 904.116 -1138.58 902.174C-1082.55 850.583 -1006.51 828.417 -932.995 815.626C-905.294 811.261 -877.347 808.071 -849.374 806.324C-802.218 803.355 -754.91 803.505 -707.743 805.816C-472.513 819.71 -233.112 768.261 -25.6711 656.151C107.61 584.442 304.206 434.76 301.516 269.318C296.572 144.886 163.896 87.8174 58.5317 63.6298C-46.9222 38.2682 -162.686 34.8152 -257.258 95.3197C-317.439 133.12 -362.879 189.228 -403.475 246.603C-471.094 342.101 -531.1 448.725 -629.953 516.075C-688.491 556.486 -758.492 578.593 -829.181 583.555C-905.239 589.974 -984.986 584.477 -1054.32 550.279C-1113.91 521.371 -1158.86 472.202 -1186.29 412.305C-1224.82 327.735 -1232.5 226.484 -1220.88 135.01L-1220.87 134.977Z" fill="#3658B2"/>
<path d="M-1220.87 134.977C-1230.12 258.567 -1203.04 406.559 -1108.91 494.139C-1020.72 577.168 -890.861 586.914 -776.303 568.946C-577.598 536.849 -493.107 385.308 -388.613 234.303C-361.241 195.876 -332.08 158.351 -297.26 126.266C-184.521 18.9595 -39.1713 20.199 102.759 59.3249C324.188 118.387 390.617 269.544 240.797 454.403C35.1047 695.609 -346.054 813.453 -656.283 801.215C-738.582 796.876 -821.5 794.99 -903.24 807.24C-949.702 813.966 -996.121 825.059 -1039.37 843.496C-1090 865.309 -1139.12 900.072 -1161.74 951.884C-1174.91 981.349 -1177.61 1015.15 -1170.81 1046.59L-1169.91 1050.9L-1169.44 1053.06L-1168.83 1055.17L-1166.45 1063.64C-1163.91 1071.89 -1160.47 1080.41 -1157.02 1088.3C-1099.8 1208.09 -958.37 1272.68 -832.053 1288.64C-808.655 1291.64 -785.099 1293.24 -761.518 1293.63C-785.111 1293.3 -808.669 1291.75 -832.08 1288.81C-954.599 1273.26 -1086.32 1215.17 -1150.05 1104.55C-1155.01 1095.84 -1159.58 1085.88 -1163.31 1076.56C-1164.81 1072.44 -1166.35 1068.14 -1167.68 1064.02C-1168.29 1062.13 -1170.19 1055.05 -1170.71 1053.36C-1177.2 1026.83 -1177.88 998.631 -1170.55 972.175C-1170.12 970.056 -1167.34 961.837 -1166.52 959.482C-1165.74 957.215 -1164.11 953.551 -1163.15 951.263C-1161.01 945.767 -1157.93 940.579 -1155.24 935.375L-1150.52 927.842C-1149.7 926.609 -1148.99 925.297 -1148.1 924.105L-1145.46 920.539C-1143.68 918.171 -1142 915.737 -1140.13 913.438C-1136.47 909.249 -1132.21 903.919 -1128.3 900.205C-1071.08 841.833 -982.366 817.084 -903.5 805.258C-833.4 794.903 -762.18 793.995 -691.49 797.307C-410.111 813.337 -119.673 738.416 109.682 572.484C166.27 530.455 218.976 482.112 259.901 424.471C385.392 244.469 298.601 114.506 102.047 61.9926C-76.1471 13.7313 -222.605 29.0331 -343.75 179.546C-473.816 341.968 -543.977 532.396 -775.988 570.632C-891.146 588.523 -1021.14 578.473 -1109.57 494.843C-1203.6 406.877 -1230.41 258.745 -1220.83 134.95L-1220.87 134.977Z" fill="#3658B2"/>
<path d="M-1220.87 134.977C-1224.49 286.331 -1172.78 462.694 -1026.98 533.285C-955.212 568.59 -872.541 573.835 -794.028 565.056C-699.946 556.536 -609.989 515.128 -542.997 448.435C-408.392 321.416 -347.168 106.999 -159.482 43.7541C-68.7653 13.7354 29.6628 26.6489 120.098 51.0634C208.218 75.2423 308.773 122.556 333.111 218.656C364.292 356.738 229.386 491.527 127.628 566.65C-97.463 729.137 -381.421 804.666 -657.583 792.007C-790.682 784.614 -973.034 788.492 -1084.09 869.898C-1091.14 875.082 -1097.91 880.931 -1104.4 886.778L-1113.71 896.15C-1114.71 897.218 -1115.63 898.357 -1116.61 899.464L-1122.34 906.137C-1125.42 909.956 -1127.35 912.944 -1130.25 916.708C-1131.11 917.891 -1131.83 919.175 -1132.63 920.403L-1137.31 927.848L-1141.42 935.625C-1142.09 936.939 -1142.83 938.198 -1143.43 939.539L-1145.16 943.577C-1155.95 967.665 -1159.58 994.72 -1156.95 1020.9C-1156.01 1028.89 -1154.59 1036.88 -1152.76 1044.72L-1152.15 1046.83L-1149.77 1055.31C-1147.23 1063.52 -1143.77 1072.09 -1140.33 1079.96C-1084.27 1197.15 -947.686 1261.37 -824.146 1279C-797.913 1282.74 -771.362 1284.77 -744.873 1285.18C-768.449 1284.86 -792.006 1283.31 -815.417 1280.37C-937.917 1264.83 -1069.58 1206.77 -1133.34 1096.21C-1135.88 1092.11 -1139.18 1084.85 -1141.43 1080.47C-1142.59 1077.52 -1145.52 1071.15 -1146.61 1068.24C-1147.96 1064.04 -1149.77 1059.86 -1151 1055.69L-1153.43 1047.17C-1160.19 1021.53 -1161.38 994.055 -1155.02 968.191C-1153.14 959.936 -1150.05 950.706 -1146.59 942.975C-1144.92 938.459 -1140.94 931.465 -1138.69 927.077C-1136.7 923.883 -1133.51 918.709 -1131.58 915.815L-1128.94 912.249C-1127.16 909.881 -1125.48 907.447 -1123.63 905.137L-1117.85 898.405C-1116.88 897.297 -1115.95 896.14 -1114.93 895.053C-1057.25 834.212 -967.836 809.041 -887.123 796.853C-863.831 793.325 -840.204 791.008 -816.703 789.445C-769.584 786.455 -722.303 786.567 -675.169 788.872C-355.841 807.333 4.89099 704.081 231.591 471.054C347.307 348.006 394.781 185.475 217.825 91.6045C186.626 75.1482 153.275 63.1308 119.299 53.756C7.80054 22.7529 -120.137 12.2644 -222.534 75.7135C-283.205 112.626 -329.215 168.276 -370.071 225.398C-450.557 339.134 -524.878 470.771 -657.508 530.464C-700.428 550.38 -746.909 561.958 -793.907 566.72C-869.833 575.11 -949.409 570.421 -1019.59 538.18C-1079 511.482 -1127.78 464.087 -1159.51 407.552C-1205.59 325.128 -1223.21 228.74 -1220.95 134.983L-1220.87 134.977Z" fill="#3658B2"/>
<path d="M-1220.87 134.977C-1217.7 239.553 -1189.37 348.605 -1125.5 432.889C-1089.83 479.608 -1041.24 516.569 -986.003 537.057C-919.695 562.218 -847.035 565.164 -777.174 556.685C-683.232 546.974 -593.858 504.628 -526.966 437.965C-392.605 310.859 -330.651 96.5902 -142.45 34.537C-63.2234 8.76988 22.7515 15.6792 102.792 34.0872C148.805 44.6158 194.368 58.671 236.236 80.7894C267.506 97.4902 296.867 118.824 318.796 147.01C348.747 184.333 360.329 234.297 352.234 281.231C331.938 396.339 234.244 490.841 144.128 558.35C-73.7491 715.717 -346.945 791.069 -614.481 784.615C-622.387 784.31 -633.119 783.995 -641.005 783.545C-705.627 780.008 -770.694 779.421 -835.144 785.995C-929.342 796.169 -1042.66 821.617 -1105.66 897.754C-1107.49 900.041 -1109.18 902.446 -1110.94 904.792L-1113.55 908.321C-1114.41 909.518 -1115.13 910.788 -1115.93 912.016L-1120.62 919.461L-1124.71 927.248C-1125.37 928.562 -1126.12 929.821 -1126.7 931.158L-1128.44 935.196C-1141.55 964.678 -1144.21 998.463 -1137.37 1029.88C-1133.91 1047.01 -1127.55 1063.89 -1119.67 1079.47C-1070.18 1174.28 -968.649 1231.72 -868.02 1258.36C-822.55 1270.2 -775.083 1276.04 -728.134 1276.73C-751.709 1276.41 -775.267 1274.86 -798.663 1271.92C-919.455 1256.35 -1045.36 1201.55 -1112.17 1095.49C-1133.6 1060.02 -1146.26 1018.91 -1141.45 977.254C-1140.59 971.536 -1139.82 965.425 -1138.28 959.806C-1137.48 956.957 -1136.97 953.897 -1136.03 951.225L-1133.21 942.808C-1131.87 939.038 -1129.68 934.246 -1128.12 930.508C-1127.1 928.436 -1123.21 920.987 -1121.98 918.686C-1119.93 915.428 -1116.83 910.373 -1114.87 907.424C-1112.25 903.862 -1109.59 900.197 -1106.92 896.746L-1101.14 890.013C-1051.09 834.413 -976.778 809.253 -905.391 794.382C-872.121 787.848 -838.302 783.759 -804.491 781.261C-755.913 778.084 -707.168 778.022 -658.558 780.415C-377.296 796.526 -86.9542 721.757 142.434 556.049C232.01 488.884 329.005 394.988 349.311 280.781C357.239 234.566 346.003 185.53 316.503 148.794C272.247 93.0517 203.299 64.2582 136.405 45.3902C24.9292 14.4117 -102.849 3.39423 -205.629 66.1123C-266.54 102.627 -312.789 158.096 -353.787 215.104C-422.066 310.154 -482.348 415.985 -579.901 484.814C-637.666 526.171 -706.54 550.664 -776.986 558.361C-862.898 568.917 -954.22 561.104 -1030.52 517.604C-1163.14 441.914 -1216.76 280.189 -1220.87 134.977Z" fill="#3658B2"/>
<path d="M-1220.87 134.977C-1209.78 271.363 -1152.7 422.352 -1033.31 498.915C-993.773 524.465 -948.462 540.618 -902.03 548.003C-786.359 564.541 -661.409 542.732 -565.515 473.728C-468.369 404.735 -408.217 299.316 -339.983 204.326C-298.765 147.052 -252.126 91.4229 -190.818 54.8249C-87.2799 -7.97162 41.3176 3.07425 153.469 34.1226C187.629 43.538 221.21 55.598 252.594 72.1565C430.641 166.616 385.255 330.757 267.205 456.099C49.5293 681.846 -306.828 788.526 -615.312 775.521C-694.599 771.075 -774.638 770.244 -853.364 781.904C-899.808 788.641 -946.218 799.762 -989.453 818.21C-1040.06 840.033 -1089.15 874.835 -1111.71 926.659C-1122.5 950.747 -1126.12 977.802 -1123.51 1003.99C-1122.56 1011.97 -1121.15 1019.96 -1119.32 1027.81L-1118.71 1029.92L-1116.33 1038.39C-1113.78 1046.62 -1110.33 1055.16 -1106.89 1063.05C-1049.67 1182.74 -908.192 1247.36 -781.945 1263.3C-758.565 1266.29 -735.005 1267.9 -711.428 1268.28C-735.007 1267.95 -758.561 1266.41 -781.971 1263.47C-904.472 1247.93 -1036.14 1189.87 -1099.9 1079.31C-1102.44 1075.26 -1105.73 1067.92 -1107.98 1063.57C-1109.21 1060.62 -1112.04 1054.23 -1113.17 1051.34C-1114.67 1047.22 -1116.21 1042.91 -1117.55 1038.8L-1119.98 1030.27C-1126.75 1004.63 -1127.93 977.155 -1121.57 951.291C-1119.7 943.036 -1116.6 933.807 -1113.13 926.071C-1111.46 921.555 -1107.48 914.561 -1105.23 910.173C-1103.21 906.956 -1100.06 901.823 -1098.12 898.911L-1095.48 895.345C-1093.7 892.977 -1092.02 890.542 -1090.17 888.233L-1084.39 881.5C-1083.42 880.393 -1082.49 879.236 -1081.47 878.164C-1023.79 817.322 -934.372 792.151 -853.655 779.978C-830.363 776.449 -806.736 774.133 -783.235 772.569C-736.116 769.58 -688.835 769.692 -641.701 771.996C-453.515 783.357 -263.041 752.42 -87.9148 682.75C53.1262 625.599 189.509 545.173 288.289 427.621C390.453 304.278 411.461 159.203 251.274 74.7191C220.075 58.2628 186.729 46.2597 152.734 36.8747C41.2316 5.96627 -86.4911 -5.23861 -189.466 57.1304C-250.48 93.5034 -296.848 148.882 -337.939 205.839C-406.362 300.822 -466.907 406.448 -564.346 475.4C-660.767 544.526 -786.129 566.313 -902.258 549.487C-948.825 541.954 -994.285 525.61 -1033.89 499.877C-1153.28 422.83 -1210.11 271.629 -1220.87 134.977Z" fill="#3658B2"/>
<path d="M-1220.87 134.977C-1208.38 227.997 -1175.82 319.823 -1120.69 396.22C-1031.71 519.958 -893.332 562.462 -746.074 540.416C-676.145 531.2 -607.823 506.088 -550.53 464.665C-433.301 381.617 -371.337 247.392 -281.12 139.528C-267.812 123.734 -253.646 108.535 -238.58 94.4005C-143.099 3.04498 -26.0181 -13.3758 100.207 9.77684C146.316 18.4233 193.049 30.0993 236.409 48.2499C327.949 85.684 402.599 156.556 385.778 263.212C374.419 333.979 331.93 395.281 284.373 447.139C119.852 617.932 -111.512 712.468 -342.351 751.737C-418.109 764.005 -494.974 769.519 -571.702 767.888C-589.396 767.619 -607.107 766.592 -624.765 765.799C-683.596 762.866 -742.679 763.169 -801.316 769.016C-904.495 779.647 -1043.81 812.676 -1093.23 913.97L-1096.7 922.047C-1097.26 923.408 -1097.91 924.718 -1098.33 926.132L-1101.14 934.469C-1101.36 935.171 -1101.63 935.856 -1101.81 936.564L-1102.34 938.695L-1103.4 942.959C-1104.75 948.07 -1105.88 954.863 -1106.62 960.235C-1108.94 979.931 -1107.32 999.923 -1102.71 1019.18C-1101.13 1024.67 -1099.03 1032.73 -1096.88 1038.09C-1095.2 1043.55 -1092.39 1049.28 -1090.31 1054.43C-1033.11 1174.24 -891.645 1238.85 -765.327 1254.81C-741.929 1257.81 -718.369 1259.42 -694.792 1259.8C-741.769 1259.22 -789.309 1253.52 -834.83 1241.77C-941.318 1214.23 -1053.8 1148.57 -1096.59 1042.7C-1106.67 1016.5 -1111.35 988.06 -1108.09 960.067C-1107.47 955.68 -1106.75 951.283 -1105.95 946.922C-1105.47 944.743 -1104.32 940.467 -1103.82 938.298L-1103.29 936.149C-1103.11 935.427 -1102.84 934.741 -1102.62 934.039C-1101.41 930.401 -1099.63 924.715 -1098.16 921.486L-1096.42 917.4C-1094.28 911.904 -1091.2 906.716 -1088.51 901.512C-1086.43 898.232 -1083.39 893.194 -1081.38 890.261C-1078.76 886.699 -1076.11 883.005 -1073.41 879.593C-1070.86 876.644 -1067.1 872.161 -1064.69 869.519C-1062.86 867.698 -1057.26 861.981 -1055.32 860.05C-998.206 807.507 -920.479 785.196 -845.491 772.745C-819.252 768.614 -792.766 765.769 -766.28 764.06C-719.142 761.081 -671.857 761.207 -624.705 763.522C-389.553 777.469 -150.228 726.137 57.2074 614.168C189.903 543.189 387.532 392.274 384.943 227.831C380.666 103.222 248.204 45.9205 142.847 21.5437C111.618 14.1184 79.1243 8.25809 47.226 5.21768C-65.2848 -5.34497 -162.02 21.9856 -243.273 102.362C-306.559 164.541 -351.855 241.473 -403.804 312.767C-458.414 389.162 -524.168 461.606 -610.389 502.388C-652.785 522.931 -699.259 535.831 -745.92 542.085C-893.742 564.014 -1032.41 520.953 -1121.34 396.658C-1176.34 320.005 -1208.65 228.123 -1220.95 134.983L-1220.87 134.977Z" fill="#3658B2"/>
</svg>
