<svg width="210" height="600" viewBox="0 0 210 600" fill="none" xmlns="http://www.w3.org/2000/svg">
<mask id="mask0_39_5355" style="mask-type:alpha" maskUnits="userSpaceOnUse" x="0" y="0" width="210" height="600">
<rect width="210" height="600" fill="#B39B9B"/>
</mask>
<g mask="url(#mask0_39_5355)">
<g clip-path="url(#clip0_39_5355)">
<path d="M-382.463 1303.5C-395.317 1241.04 -379.097 1177.56 -337.382 1131.82C-326.625 1119.9 -314.067 1109.03 -300.383 1099.62C-289.134 1091.59 -276.547 1084.61 -263.945 1078.19C-233.322 1062.8 -202.325 1046.75 -173.144 1029.64C-139.412 1009.31 -104.712 986.883 -86.8975 953.716C-80.2912 942.114 -76.2749 929.433 -71.3378 917.206C-67.9726 910.116 -63.4494 903.639 -58.5304 897.384C-18.7227 848.479 59.235 798.527 12.0047 725.007C-26.9381 657.871 -21.216 572.908 11.1481 513.152C16.5127 504.135 24.4886 496.568 32.2737 489.021C40.16 481.514 48.3175 474.206 56.4407 466.858C88.7507 437.382 121.596 407.387 142.115 369.889C158.352 339.784 162.312 308.874 141.563 274.828C110.662 223.489 65.1425 178.795 30.5607 129.13C-10.2084 72.473 -39.5619 8.51352 -11.965 -49.6813C-6.51661 -61.3857 -0.515765 -73.6959 5.95911 -84.919C18.8238 -107.829 34.7543 -129.516 57.1951 -145.849C66.1101 -152.497 75.6495 -158.7 83.6398 -166.261C95.783 -177.603 103.894 -191.783 110.315 -206.407C111.34 -208.862 112.418 -211.283 113.384 -213.761L116.218 -221.193C126.356 -247.901 117.408 -275.699 94.1958 -300.149C68.5897 -327.714 34.6332 -348.329 5.69958 -372.951C-13.099 -388.931 -32.0278 -409.608 -28.8691 -431.686L-29.3151 -431.78C-32.8575 -409.528 -13.9782 -388.426 4.77326 -372.154C33.4075 -347.191 66.9643 -326.489 92.2217 -298.926C117.987 -270.747 123.315 -244.414 110.073 -215.08C103.192 -198.211 94.6057 -181.577 80.6525 -168.666C68.615 -157.553 53.4107 -149.238 41.3307 -138.101C16.7018 -115.862 0.959818 -87.3681 -12.8545 -58.7414C-57.6989 24.0471 9.68391 113.915 71.941 188.868C98.9331 222.899 142.321 268.795 150.715 307.433C161.009 369.424 96.6716 425.564 54.5535 465.3C46.5077 472.705 38.4087 480.076 30.5719 487.67C22.8315 495.316 14.8761 502.958 9.42645 512.279C-19.4617 567.047 -26.2249 638.65 -1.03822 701.778C1.58779 708.392 4.94854 715.211 8.35944 721.645C10.3095 725.046 13.0542 729.82 14.9048 733.262C26.6054 753.92 27.729 776.875 19.6576 796.282C3.64777 835.822 -34.3029 862.532 -61.451 895.49C-68.2553 903.892 -74.382 913.029 -77.8007 923.155C-83.8515 940.496 -91.6856 957.248 -103.827 971.526C-115.834 985.802 -131.277 997.755 -147.22 1008.73C-169.969 1024.15 -195.573 1038.61 -220.27 1051.82C-240.077 1062.55 -261.431 1072.86 -281.223 1083.64C-301.213 1094.8 -319.021 1108.55 -334.232 1124.17C-364.723 1155.38 -382.818 1195.62 -386.911 1238.38C-388.467 1254.39 -388.297 1270.75 -386.019 1287.17C-385.244 1292.64 -384.302 1298.11 -382.891 1303.58L-382.448 1303.55L-382.434 1303.51L-382.463 1303.5Z" fill="#FFE9E0"/>
<path d="M-399.996 1299.07C-412.85 1236.61 -396.631 1173.12 -354.915 1127.39C-344.159 1115.46 -331.601 1104.59 -317.917 1095.19C-306.668 1087.16 -294.08 1080.18 -281.478 1073.76C-250.856 1058.37 -219.859 1042.32 -190.677 1025.21C-156.946 1004.88 -122.245 982.449 -104.431 949.283C-97.8246 937.68 -93.8084 925 -88.8713 912.773C-85.506 905.683 -80.9829 899.206 -76.0639 892.951C-36.2562 844.045 41.7015 794.094 -5.52875 720.574C-44.4716 653.438 -38.7494 568.474 -6.3853 508.719C-1.02075 499.702 6.95514 492.135 14.7403 484.588C22.6265 477.08 30.784 469.773 38.9073 462.425C71.2173 432.948 104.062 402.953 124.581 365.456C140.819 335.351 144.779 304.441 124.03 270.395C93.1289 219.056 47.609 174.362 13.0272 124.697C-27.7418 68.0397 -57.0953 4.08017 -29.4985 -54.1147C-24.0501 -65.8191 -18.0492 -78.1293 -11.5743 -89.3524C1.29034 -112.263 17.2209 -133.95 39.6617 -150.282C48.5766 -156.931 58.116 -163.133 66.1064 -170.695C78.2495 -182.036 86.3606 -196.216 92.7819 -210.84C93.8064 -213.296 94.8841 -215.716 95.8508 -218.194L98.6843 -225.626C108.822 -252.334 99.8746 -280.133 76.6623 -304.582C51.0563 -332.147 17.0998 -352.763 -11.8339 -377.384C-30.6324 -393.364 -49.5612 -414.041 -46.4026 -436.12L-46.8486 -436.213C-50.3909 -413.961 -31.5116 -392.859 -12.7602 -376.587C15.8741 -351.625 49.4309 -330.923 74.6882 -303.359C100.454 -275.18 105.782 -248.848 92.5397 -219.513C85.6585 -202.644 77.0723 -186.01 63.1191 -173.099C51.0815 -161.986 35.8773 -153.671 23.7972 -142.534C-0.831688 -120.295 -16.5736 -91.8015 -30.388 -63.1748C-75.2323 19.6138 -7.84951 109.481 54.4076 184.434C81.3997 218.465 124.787 264.361 133.182 303C143.476 364.99 79.1382 421.131 37.0201 460.867C28.9743 468.272 20.8753 475.643 13.0384 483.237C5.29809 490.883 -2.6573 498.525 -8.10698 507.845C-36.9951 562.614 -43.7584 634.217 -18.5717 697.345C-15.9457 703.958 -12.5849 710.777 -9.17401 717.212C-7.22391 720.612 -4.4792 725.387 -2.62864 728.829C9.07194 749.487 10.1955 772.442 2.12418 791.849C-13.8857 831.389 -51.8363 858.099 -78.9844 891.057C-85.7888 899.458 -91.9154 908.595 -95.3342 918.721C-101.385 936.062 -109.219 952.815 -121.36 967.093C-133.368 981.369 -148.81 993.321 -164.753 1004.3C-187.502 1019.71 -213.107 1034.18 -237.803 1047.38C-257.61 1058.12 -278.964 1068.42 -298.756 1079.2C-318.747 1090.37 -336.554 1104.12 -351.766 1119.74C-382.257 1150.95 -400.351 1191.18 -404.444 1233.95C-406.001 1249.96 -405.831 1266.32 -403.553 1282.73C-402.778 1288.21 -401.835 1293.68 -400.425 1299.14L-399.981 1299.12L-399.967 1299.08L-399.996 1299.07Z" fill="#FFE9E0"/>
<path d="M-417.545 1294.63C-430.399 1232.17 -414.18 1168.69 -372.464 1122.95C-361.708 1111.03 -349.15 1100.16 -335.466 1090.75C-324.217 1082.72 -311.629 1075.74 -299.027 1069.32C-268.405 1053.93 -237.408 1037.88 -208.226 1020.77C-174.495 1000.44 -139.794 978.013 -121.98 944.847C-115.374 933.244 -111.357 920.563 -106.42 908.336C-103.055 901.246 -98.5318 894.77 -93.6128 888.515C-53.8051 839.609 24.1526 789.658 -23.0777 716.137C-62.0205 649.002 -56.2984 564.038 -23.9342 504.283C-18.5697 495.266 -10.5938 487.699 -2.80864 480.152C5.07759 472.644 13.2351 465.336 21.3583 457.988C53.6683 428.512 86.5133 398.517 107.032 361.019C123.27 330.914 127.23 300.005 106.481 265.959C75.58 214.62 30.0601 169.925 -4.52173 120.261C-45.2908 63.6034 -74.6443 -0.356107 -47.0474 -58.5509C-41.599 -70.2554 -35.5982 -82.5656 -29.1233 -93.7886C-16.2586 -116.699 -0.328096 -138.386 22.1127 -154.719C31.0277 -161.367 40.5671 -167.57 48.5574 -175.131C60.7006 -186.472 68.8117 -200.652 75.233 -215.277C76.2575 -217.732 77.3352 -220.153 78.3019 -222.63L81.1353 -230.063C91.2734 -256.771 82.3256 -284.569 59.1134 -309.018C33.5073 -336.583 -0.449179 -357.199 -29.3828 -381.82C-48.1814 -397.801 -67.1102 -418.478 -63.9516 -440.556L-64.3975 -440.649C-67.9399 -418.397 -49.0606 -397.295 -30.3092 -381.023C-1.67493 -356.061 31.8819 -335.359 57.1393 -307.796C82.9049 -279.616 88.233 -253.284 74.9908 -223.949C68.1095 -207.081 59.5233 -190.446 45.5701 -177.536C33.5326 -166.423 18.3283 -158.107 6.24829 -146.97C-18.3806 -124.732 -34.1226 -96.2377 -47.9369 -67.611C-92.7812 15.1775 -25.3985 105.045 36.8586 179.998C63.8507 214.029 107.238 259.925 115.633 298.564C125.927 360.554 61.5892 416.695 19.4711 456.431C11.4253 463.836 3.32634 471.206 -4.5105 478.801C-12.2509 486.446 -20.2062 494.089 -25.6559 503.409C-54.5441 558.178 -61.3073 629.78 -36.1206 692.909C-33.4946 699.522 -30.1339 706.341 -26.723 712.776C-24.7729 716.176 -22.0282 720.95 -20.1776 724.393C-8.477 745.051 -7.3534 768.005 -15.4248 787.413C-31.4346 826.952 -69.3852 853.662 -96.5334 886.621C-103.338 895.022 -109.464 904.159 -112.883 914.285C-118.934 931.626 -126.768 948.379 -138.909 962.656C-150.917 976.932 -166.359 988.885 -182.302 999.861C-205.051 1015.28 -230.656 1029.74 -255.352 1042.95C-275.159 1053.68 -296.513 1063.99 -316.305 1074.77C-336.296 1085.93 -354.103 1099.68 -369.315 1115.3C-399.806 1146.51 -417.9 1186.75 -421.993 1229.51C-423.549 1245.52 -423.379 1261.88 -421.102 1278.3C-420.327 1283.77 -419.384 1289.24 -417.974 1294.71L-417.53 1294.68L-417.516 1294.64L-417.545 1294.63Z" fill="#FFE9E0"/>
<path d="M-435.093 1290.2C-447.947 1227.73 -431.728 1164.25 -390.012 1118.51C-379.256 1106.59 -366.698 1095.72 -353.014 1086.32C-341.765 1078.29 -329.177 1071.31 -316.575 1064.89C-285.953 1049.5 -254.956 1033.45 -225.774 1016.34C-192.043 996.007 -157.342 973.577 -139.528 940.411C-132.922 928.808 -128.905 916.128 -123.968 903.901C-120.603 896.81 -116.08 890.334 -111.161 884.079C-71.3532 835.173 6.60457 785.222 -40.6257 711.701C-79.5686 644.566 -73.8464 559.602 -41.4823 499.847C-36.1177 490.83 -28.1419 483.263 -20.3567 475.716C-12.4705 468.208 -4.31299 460.9 3.79586 453.547C36.1058 424.07 68.9508 394.075 89.47 356.578C105.708 326.473 109.667 295.563 88.9186 261.517C58.0175 210.178 12.4976 165.484 -22.0842 115.819C-62.8533 59.162 -92.2068 -4.79756 -64.61 -62.9924C-59.1615 -74.6968 -53.1607 -87.007 -46.6858 -98.2301C-33.8211 -121.14 -17.8906 -142.828 4.5502 -159.16C13.4652 -165.808 23.0045 -172.011 30.9949 -179.573C43.1381 -190.914 51.2491 -205.094 57.6704 -219.718C58.695 -222.173 59.7726 -224.594 60.7394 -227.072L63.5728 -234.504C73.7109 -261.212 64.7631 -289.01 41.5509 -313.46C15.9448 -341.025 -18.0117 -361.64 -46.9454 -386.262C-65.7439 -402.242 -84.6727 -422.919 -81.5141 -444.997L-81.9601 -445.091C-85.5025 -422.839 -66.6231 -401.737 -47.8717 -385.465C-19.2374 -360.502 14.3194 -339.801 39.5768 -312.237C65.3424 -284.058 70.6705 -257.725 57.4282 -228.391C50.547 -211.522 41.9608 -194.888 28.0076 -181.977C15.97 -170.864 0.765811 -162.549 -11.3142 -151.412C-35.9432 -129.173 -51.6851 -100.679 -65.4995 -72.0525C-110.344 10.7361 -42.961 100.604 19.2961 175.557C46.2882 209.588 89.6616 255.478 98.0702 294.122C108.35 356.107 44.0267 412.253 1.90863 451.989C-6.13716 459.394 -14.2361 466.765 -22.073 474.359C-29.8133 482.005 -37.7687 489.647 -43.2184 498.967C-72.1066 553.736 -78.8698 625.339 -53.6831 688.467C-51.0571 695.08 -47.6963 701.9 -44.2854 708.334C-42.3353 711.735 -39.5906 716.509 -37.7401 719.951C-26.0395 740.609 -24.9159 763.564 -32.9872 782.971C-48.9971 822.511 -86.9477 849.221 -114.096 882.179C-120.9 890.581 -127.027 899.718 -130.446 909.844C-136.496 927.185 -144.33 943.937 -156.472 958.215C-168.479 972.491 -183.921 984.443 -199.864 995.42C-222.614 1010.84 -248.218 1025.3 -272.914 1038.51C-292.722 1049.24 -314.076 1059.55 -333.868 1070.33C-353.858 1081.49 -371.665 1095.24 -386.877 1110.86C-417.368 1142.07 -435.463 1182.31 -439.556 1225.07C-441.112 1241.08 -440.942 1257.44 -438.664 1273.86C-437.889 1279.33 -436.947 1284.8 -435.536 1290.27L-435.093 1290.24L-435.079 1290.2L-435.093 1290.2Z" fill="#FFE9E0"/>
<path d="M-452.642 1285.76C-465.496 1223.29 -449.276 1159.81 -407.561 1114.07C-396.805 1102.15 -384.247 1091.28 -370.563 1081.88C-359.314 1073.85 -346.726 1066.87 -334.124 1060.45C-303.502 1045.06 -272.504 1029.01 -243.323 1011.9C-209.592 991.568 -174.891 969.138 -157.077 935.972C-150.47 924.369 -146.454 911.688 -141.517 899.461C-138.152 892.371 -133.629 885.894 -128.71 879.639C-88.9021 830.734 -10.9443 780.782 -58.1746 707.262C-97.1175 640.126 -91.3953 555.163 -59.0312 495.407C-53.6666 486.39 -45.6907 478.823 -37.9056 471.276C-30.0193 463.769 -21.8619 456.461 -13.753 449.107C18.557 419.631 51.4019 389.636 71.9211 352.139C88.1586 322.033 92.1183 291.124 71.3697 257.078C40.4686 205.739 -5.05132 161.044 -39.6331 111.38C-80.4022 54.7225 -109.756 -9.23701 -82.1589 -67.4318C-76.7104 -79.1363 -70.7096 -91.4465 -64.2347 -102.67C-51.37 -125.58 -35.4395 -147.267 -12.9987 -163.599C-4.08371 -170.248 5.45568 -176.451 13.446 -184.012C25.5892 -195.353 33.7003 -209.533 40.1216 -224.158C41.1461 -226.613 42.2237 -229.034 43.1905 -231.511L46.0239 -238.944C56.162 -265.651 47.2142 -293.45 24.002 -317.899C-1.60409 -345.464 -35.5606 -366.08 -64.4942 -390.701C-83.2928 -406.681 -102.222 -427.359 -99.063 -449.437L-99.509 -449.53C-103.051 -427.278 -84.172 -406.176 -65.4206 -389.904C-36.7863 -364.942 -3.22949 -344.24 22.0279 -316.676C47.7935 -288.497 53.1216 -262.165 39.8793 -232.83C32.9981 -215.962 24.4119 -199.327 10.4587 -186.417C-1.57883 -175.304 -16.783 -166.988 -28.8631 -155.851C-53.4921 -133.612 -69.234 -105.119 -83.0483 -76.4919C-127.893 6.29662 -60.5099 96.1641 1.74724 171.117C28.7393 205.148 72.1127 251.038 80.5213 289.683C90.8012 351.668 26.4778 407.814 -15.6403 447.55C-23.6861 454.955 -31.785 462.326 -39.6219 469.92C-47.3622 477.565 -55.3176 485.208 -60.7673 494.528C-89.6555 549.297 -96.4187 620.899 -71.232 684.028C-68.606 690.641 -65.2452 697.46 -61.8343 703.895C-59.8842 707.295 -57.1395 712.07 -55.289 715.512C-43.5884 736.17 -42.4648 759.124 -50.5361 778.532C-66.546 818.072 -104.497 844.782 -131.645 877.74C-138.449 886.141 -144.576 895.278 -147.995 905.404C-154.045 922.745 -161.879 939.498 -174.021 953.775C-186.028 968.051 -201.47 980.004 -217.413 990.98C-240.163 1006.4 -265.767 1020.86 -290.463 1034.07C-310.271 1044.8 -331.624 1055.11 -351.417 1065.89C-371.407 1077.05 -389.214 1090.8 -404.426 1106.42C-434.917 1137.63 -453.011 1177.87 -457.105 1220.63C-458.661 1236.64 -458.491 1253 -456.213 1269.42C-455.438 1274.89 -454.496 1280.36 -453.085 1285.83L-452.641 1285.8L-452.628 1285.76L-452.642 1285.76Z" fill="#FFE9E0"/>
<path d="M-470.19 1281.32C-483.044 1218.85 -466.824 1155.37 -425.109 1109.63C-414.352 1097.71 -401.795 1086.84 -388.111 1077.44C-376.861 1069.41 -364.274 1062.43 -351.672 1056.01C-321.049 1040.62 -290.052 1024.57 -260.871 1007.46C-227.14 987.128 -192.439 964.698 -174.625 931.532C-168.018 919.929 -164.002 907.248 -159.065 895.021C-155.7 887.931 -151.177 881.454 -146.258 875.199C-106.45 826.294 -28.4922 776.342 -75.7225 702.822C-114.665 635.687 -108.943 550.723 -76.579 490.967C-71.2145 481.951 -63.2386 474.384 -55.4534 466.836C-47.5672 459.329 -39.4097 452.021 -31.2864 444.673C1.02354 415.197 33.8685 385.202 54.3877 347.704C70.6252 317.599 74.5849 286.689 53.8363 252.644C22.9352 201.304 -22.5847 156.61 -57.1665 106.946C-97.9356 50.2882 -127.289 -13.6713 -99.6922 -71.8661C-94.2438 -83.5706 -88.2429 -95.8808 -81.7681 -107.104C-68.9034 -130.014 -52.9729 -151.701 -30.532 -168.034C-21.6171 -174.682 -12.0777 -180.885 -4.08739 -188.446C8.05579 -199.787 16.1669 -213.968 22.5882 -228.592C23.6127 -231.047 24.6903 -233.468 25.6571 -235.946L28.4905 -243.378C38.6286 -270.086 29.6809 -297.884 6.4686 -322.334C-19.1374 -349.899 -53.0939 -370.514 -82.0276 -395.135C-100.826 -411.116 -119.755 -431.793 -116.596 -453.871L-117.042 -453.964C-120.585 -431.713 -101.705 -410.61 -82.9539 -394.339C-54.3196 -369.376 -20.7628 -348.674 4.49448 -321.111C30.2601 -292.931 35.5882 -266.599 22.346 -237.265C15.4647 -220.396 6.87855 -203.762 -7.07467 -190.851C-19.1122 -179.738 -34.3164 -171.422 -46.3965 -160.286C-71.0254 -138.047 -86.7674 -109.553 -100.582 -80.9262C-145.426 1.86233 -78.0433 91.7298 -15.7861 166.683C11.2059 200.714 54.5793 246.604 62.9879 285.248C73.2678 347.233 8.94443 403.38 -33.1737 443.115C-41.2195 450.52 -49.3184 457.891 -57.1553 465.486C-64.8956 473.131 -72.851 480.773 -78.3007 490.094C-107.189 544.862 -113.952 616.465 -88.7654 679.593C-86.1394 686.207 -82.7786 693.026 -79.3677 699.461C-77.4176 702.861 -74.6729 707.635 -72.8224 711.078C-61.1218 731.735 -59.9982 754.69 -68.0695 774.097C-84.0794 813.637 -122.03 840.347 -149.178 873.306C-155.982 881.707 -162.109 890.844 -165.528 900.97C-171.579 918.311 -179.413 935.064 -191.554 949.341C-203.561 963.617 -219.004 975.57 -234.947 986.546C-257.696 1001.96 -283.3 1016.43 -307.997 1029.63C-327.804 1040.37 -349.158 1050.67 -368.95 1061.45C-388.941 1072.61 -406.748 1086.36 -421.96 1101.99C-452.451 1133.2 -470.545 1173.43 -474.638 1216.2C-476.194 1232.21 -476.024 1248.57 -473.747 1264.98C-472.971 1270.46 -472.029 1275.93 -470.619 1281.39L-470.175 1281.36L-470.161 1281.33L-470.19 1281.32Z" fill="#FFE9E0"/>
<path d="M-487.725 1276.88C-500.579 1214.42 -484.359 1150.94 -442.644 1105.2C-431.887 1093.28 -419.329 1082.41 -405.645 1073C-394.396 1064.98 -381.809 1058 -369.206 1051.57C-338.584 1036.18 -307.587 1020.13 -278.406 1003.02C-244.674 982.694 -209.974 960.264 -192.159 927.098C-185.553 915.496 -181.537 902.815 -176.599 890.588C-173.234 883.498 -168.711 877.021 -163.792 870.766C-123.984 821.86 -46.0267 771.909 -93.257 698.389C-132.2 631.253 -126.478 546.289 -94.1135 486.534C-88.749 477.517 -80.7731 469.95 -72.9879 462.403C-65.1017 454.895 -56.9442 447.588 -48.8209 440.24C-16.5109 410.763 16.334 380.768 36.8532 343.271C53.0907 313.166 57.0504 282.256 36.3018 248.21C5.40074 196.871 -40.1192 152.177 -74.701 102.512C-115.47 45.8549 -144.824 -18.1046 -117.227 -76.2995C-111.778 -88.0039 -105.777 -100.314 -99.3025 -111.537C-86.4379 -134.447 -70.5074 -156.135 -48.0665 -172.467C-39.1516 -179.116 -29.6122 -185.318 -21.6219 -192.88C-9.4787 -204.221 -1.36758 -218.401 5.05372 -233.025C6.07823 -235.48 7.15586 -237.901 8.12263 -240.379L10.956 -247.811C21.0941 -274.519 12.1464 -302.318 -11.0659 -326.767C-36.6719 -354.332 -70.6284 -374.947 -99.5621 -399.569C-118.361 -415.549 -137.289 -436.226 -134.131 -458.305L-134.577 -458.398C-138.119 -436.146 -119.24 -415.044 -100.488 -398.772C-71.8541 -373.81 -38.2973 -353.108 -13.04 -325.544C12.7256 -297.365 18.0537 -271.033 4.81147 -241.698C-2.06976 -224.829 -10.6559 -208.195 -24.6092 -195.284C-36.6467 -184.171 -51.8509 -175.856 -63.931 -164.719C-88.5599 -142.48 -104.302 -113.986 -118.116 -85.3596C-162.961 -2.57104 -95.5777 87.2965 -33.3206 162.25C-6.32854 196.281 37.0592 242.176 45.4534 280.815C55.7477 342.806 -8.59005 398.946 -50.7082 438.682C-58.7539 446.087 -66.8529 453.458 -74.6898 461.052C-82.4301 468.698 -90.3855 476.34 -95.8352 485.66C-124.723 540.429 -131.487 612.032 -106.3 675.16C-103.674 681.773 -100.313 688.592 -96.9022 695.027C-94.9521 698.428 -92.2074 703.202 -90.3569 706.644C-78.6563 727.302 -77.5327 750.257 -85.604 769.664C-101.614 809.204 -139.565 835.914 -166.713 868.872C-173.517 877.274 -179.644 886.41 -183.062 896.537C-189.113 913.877 -196.947 930.63 -209.088 944.908C-221.096 959.184 -236.538 971.136 -252.481 982.113C-275.23 997.53 -300.835 1012 -325.531 1025.2C-345.339 1035.93 -366.692 1046.24 -386.485 1057.02C-406.475 1068.18 -424.282 1081.93 -439.494 1097.56C-469.985 1128.77 -488.079 1169 -492.172 1211.76C-493.729 1227.77 -493.559 1244.13 -491.281 1260.55C-490.506 1266.02 -489.563 1271.49 -488.153 1276.96L-487.709 1276.93L-487.696 1276.9L-487.725 1276.88Z" fill="#FFE9E0"/>
<path d="M-505.273 1272.45C-518.127 1209.99 -501.907 1146.5 -460.192 1100.77C-449.435 1088.84 -436.877 1077.97 -423.193 1068.57C-411.944 1060.54 -399.357 1053.56 -386.755 1047.14C-356.132 1031.75 -325.135 1015.7 -295.954 998.589C-262.222 978.259 -227.522 955.829 -209.707 922.662C-203.101 911.06 -199.085 898.379 -194.148 886.152C-190.782 879.062 -186.259 872.585 -181.34 866.33C-141.533 817.425 -63.5749 767.473 -110.805 693.953C-149.748 626.817 -144.026 541.854 -111.662 482.098C-106.297 473.081 -98.3213 465.514 -90.5361 457.967C-82.6499 450.46 -74.4924 443.152 -66.3691 435.804C-34.0592 406.328 -1.2142 376.333 19.305 338.835C35.5425 308.73 39.5022 277.82 18.7536 243.774C-12.1475 192.435 -57.6674 147.741 -92.2492 98.0764C-133.018 41.4191 -162.372 -22.5404 -134.775 -80.7353C-129.326 -92.4397 -123.326 -104.75 -116.851 -115.973C-103.986 -138.883 -88.0556 -160.57 -65.6148 -176.903C-56.6998 -183.551 -47.1605 -189.754 -39.1701 -197.315C-27.0269 -208.657 -18.9158 -222.837 -12.4945 -237.461C-11.47 -239.916 -10.3924 -242.337 -9.42559 -244.815L-6.5922 -252.247C3.5459 -278.955 -5.40187 -306.753 -28.6141 -331.203C-54.2202 -358.768 -88.1767 -379.383 -117.11 -404.005C-135.909 -419.985 -154.838 -440.662 -151.679 -462.74L-152.125 -462.834C-155.667 -440.582 -136.788 -419.48 -118.037 -403.208C-89.4024 -378.245 -55.8456 -357.543 -30.5882 -329.98C-4.82264 -301.801 0.505483 -275.468 -12.7368 -246.134C-19.618 -229.265 -28.2042 -212.631 -42.1574 -199.72C-54.1949 -188.607 -69.3992 -180.292 -81.4792 -169.155C-106.108 -146.916 -121.85 -118.422 -135.664 -89.7954C-180.509 -7.00682 -113.126 82.8607 -50.8688 157.814C-23.8768 191.845 19.5064 237.752 27.9052 276.379C38.1995 338.37 -26.1383 394.511 -68.2564 434.246C-76.3022 441.651 -84.4012 449.022 -92.238 456.616C-99.9784 464.262 -107.934 471.904 -113.383 481.225C-142.272 535.993 -149.035 607.596 -123.848 670.724C-121.222 677.338 -117.861 684.157 -114.45 690.591C-112.5 693.992 -109.756 698.766 -107.905 702.208C-96.2045 722.866 -95.0809 745.821 -103.152 765.228C-119.162 804.768 -157.113 831.478 -184.261 864.437C-191.065 872.838 -197.192 881.975 -200.611 892.101C-206.661 909.442 -214.495 926.194 -226.637 940.472C-238.644 954.748 -254.086 966.701 -270.029 977.677C-292.779 993.094 -318.383 1007.56 -343.079 1020.76C-362.887 1031.5 -384.241 1041.8 -404.033 1052.58C-424.023 1063.74 -441.83 1077.5 -457.042 1093.12C-487.533 1124.33 -505.628 1164.56 -509.721 1207.33C-511.277 1223.34 -511.107 1239.7 -508.829 1256.11C-508.054 1261.59 -507.112 1267.06 -505.701 1272.52L-505.258 1272.5L-505.244 1272.46L-505.273 1272.45Z" fill="#FFE9E0"/>
<path d="M-522.821 1268.01C-535.675 1205.55 -519.455 1142.07 -477.74 1096.33C-466.983 1084.41 -454.425 1073.54 -440.741 1064.13C-429.492 1056.1 -416.905 1049.12 -404.302 1042.7C-373.68 1027.31 -342.683 1011.26 -313.502 994.153C-279.77 973.823 -245.07 951.393 -227.255 918.227C-220.649 906.624 -216.633 893.944 -211.696 881.717C-208.33 874.626 -203.807 868.15 -198.888 861.895C-159.08 812.989 -81.1227 763.038 -128.353 689.517C-167.296 622.382 -161.574 537.418 -129.21 477.663C-123.845 468.646 -115.869 461.079 -108.084 453.532C-100.198 446.024 -92.0402 438.716 -83.9314 431.363C-51.6214 401.886 -18.7764 371.891 1.74272 334.394C17.9803 304.289 21.94 273.379 1.19134 239.333C-29.7097 187.994 -75.2297 143.3 -109.811 93.6352C-150.581 36.9779 -179.934 -26.9816 -152.337 -85.1765C-146.889 -96.8809 -140.888 -109.191 -134.413 -120.414C-121.548 -143.324 -105.618 -165.012 -83.177 -181.344C-74.2621 -187.993 -64.7227 -194.195 -56.7323 -201.757C-44.5892 -213.098 -36.4781 -227.278 -30.0568 -241.902C-29.0323 -244.357 -27.9546 -246.778 -26.9879 -249.256L-24.1544 -256.688C-14.0163 -283.396 -22.9641 -311.195 -46.1764 -335.644C-71.7824 -363.209 -105.739 -383.824 -134.673 -408.446C-153.471 -424.426 -172.4 -445.103 -169.241 -467.182L-169.687 -467.275C-173.23 -445.023 -154.35 -423.921 -135.599 -407.649C-106.965 -382.687 -73.4078 -361.985 -48.1505 -334.421C-22.3849 -306.242 -17.0567 -279.909 -30.299 -250.575C-37.1802 -233.706 -45.7665 -217.072 -59.7197 -204.161C-71.7572 -193.048 -86.9614 -184.733 -99.0414 -173.596C-123.67 -151.357 -139.412 -122.863 -153.227 -94.2366C-198.071 -11.448 -130.688 78.4195 -68.4311 153.373C-41.439 187.404 1.93434 233.294 10.343 271.938C20.6228 333.923 -43.7005 390.069 -85.8186 429.805C-93.8644 437.21 -101.963 444.581 -109.8 452.175C-117.541 459.821 -125.496 467.463 -130.946 476.783C-159.834 531.552 -166.597 603.155 -141.41 666.283C-138.784 672.896 -135.424 679.715 -132.013 686.15C-130.063 689.551 -127.318 694.325 -125.467 697.767C-113.767 718.425 -112.643 741.38 -120.714 760.787C-136.724 800.327 -174.675 827.037 -201.823 859.995C-208.627 868.397 -214.754 877.534 -218.173 887.66C-224.224 905 -232.058 921.753 -244.199 936.031C-256.206 950.307 -271.649 962.259 -287.592 973.236C-310.341 988.653 -335.945 1003.12 -360.642 1016.32C-380.449 1027.06 -401.803 1037.36 -421.595 1048.14C-441.586 1059.3 -459.393 1073.05 -474.604 1088.68C-505.096 1119.89 -523.19 1160.12 -527.283 1202.89C-528.839 1218.9 -528.669 1235.26 -526.392 1251.67C-525.616 1257.15 -524.674 1262.62 -523.264 1268.08L-522.82 1268.05L-522.806 1268.02L-522.821 1268.01Z" fill="#FFE9E0"/>
<path d="M-540.369 1263.57C-553.224 1201.11 -537.004 1137.63 -495.288 1091.89C-484.532 1079.97 -471.974 1069.1 -458.29 1059.69C-447.041 1051.66 -434.454 1044.68 -421.851 1038.26C-391.229 1022.87 -360.232 1006.82 -331.05 989.713C-297.319 969.383 -262.619 946.953 -244.804 913.787C-238.198 902.184 -234.181 889.503 -229.244 877.276C-225.879 870.186 -221.356 863.709 -216.437 857.455C-176.629 808.549 -98.6716 758.598 -145.902 685.077C-184.845 617.942 -179.123 532.978 -146.758 473.223C-141.394 464.206 -133.418 456.639 -125.633 449.092C-117.747 441.584 -109.589 434.276 -101.48 426.923C-69.1703 397.446 -36.3253 367.451 -15.8062 329.954C0.431411 299.849 4.39109 268.939 -16.3575 234.893C-47.2586 183.554 -92.7786 138.86 -127.36 89.195C-168.129 32.5377 -197.483 -31.4218 -169.886 -89.6167C-164.438 -101.321 -158.437 -113.631 -151.962 -124.854C-139.097 -147.765 -123.167 -169.452 -100.726 -185.784C-91.8109 -192.433 -82.2716 -198.635 -74.2812 -206.197C-62.1381 -217.538 -54.027 -231.718 -47.6057 -246.342C-46.5812 -248.798 -45.5035 -251.218 -44.5367 -253.696L-41.7033 -261.128C-31.5652 -287.836 -40.513 -315.635 -63.7253 -340.084C-89.3313 -367.649 -123.288 -388.265 -152.221 -412.886C-171.02 -428.866 -189.949 -449.543 -186.79 -471.622L-187.236 -471.715C-190.779 -449.463 -171.899 -428.361 -153.148 -412.089C-124.514 -387.127 -90.9567 -366.425 -65.6994 -338.861C-39.9338 -310.682 -34.6056 -284.35 -47.8479 -255.015C-54.7291 -238.146 -63.3153 -221.512 -77.2685 -208.601C-89.3061 -197.488 -104.51 -189.173 -116.59 -178.036C-141.219 -155.797 -156.961 -127.303 -170.776 -98.6768C-215.62 -15.8882 -148.237 73.9793 -85.98 148.932C-58.9879 182.963 -15.6146 228.854 -7.20593 267.498C3.07394 329.483 -61.2494 385.629 -103.368 425.365C-111.413 432.77 -119.512 440.141 -127.349 447.735C-135.089 455.381 -143.045 463.023 -148.495 472.343C-177.383 527.112 -184.146 598.715 -158.959 661.843C-156.333 668.456 -152.972 675.275 -149.562 681.71C-147.611 685.11 -144.867 689.885 -143.016 693.327C-131.316 713.985 -130.192 736.94 -138.263 756.347C-154.273 795.887 -192.224 822.597 -219.372 855.555C-226.176 863.956 -232.303 873.093 -235.722 883.22C-241.773 900.56 -249.607 917.313 -261.748 931.591C-273.755 945.867 -289.198 957.819 -305.141 968.795C-327.89 984.213 -353.494 998.678 -378.191 1011.88C-397.998 1022.62 -419.352 1032.92 -439.144 1043.7C-459.134 1054.86 -476.942 1068.61 -492.153 1084.24C-522.645 1115.45 -540.739 1155.68 -544.832 1198.44C-546.388 1214.46 -546.218 1230.82 -543.94 1247.23C-543.165 1252.71 -542.223 1258.18 -540.812 1263.64L-540.369 1263.61L-540.355 1263.58L-540.369 1263.57Z" fill="#FFE9E0"/>
<path d="M-557.918 1259.14C-570.772 1196.67 -554.553 1133.19 -512.837 1087.45C-502.081 1075.53 -489.523 1064.66 -475.839 1055.25C-464.59 1047.23 -452.002 1040.25 -439.4 1033.82C-408.778 1018.44 -377.781 1002.38 -348.599 985.275C-314.868 964.945 -280.168 942.515 -262.353 909.349C-255.747 897.746 -251.73 885.066 -246.793 872.839C-243.428 865.748 -238.905 859.272 -233.986 853.017C-194.178 804.111 -116.22 754.16 -163.451 680.639C-202.394 613.504 -196.671 528.54 -164.307 468.785C-158.943 459.768 -150.967 452.201 -143.182 444.654C-135.295 437.146 -127.138 429.838 -119.029 422.485C-86.7192 393.008 -53.8742 363.013 -33.3551 325.516C-17.1175 295.411 -13.1578 264.501 -33.9064 230.455C-64.8075 179.116 -110.327 134.422 -144.909 84.7573C-185.678 28.1 -215.032 -35.8596 -187.435 -94.0544C-181.987 -105.759 -175.986 -118.069 -169.511 -129.292C-156.646 -152.202 -140.716 -173.89 -118.275 -190.222C-109.36 -196.87 -99.8205 -203.073 -91.8302 -210.635C-79.687 -221.976 -71.5758 -236.156 -65.1545 -250.78C-64.13 -253.235 -63.0524 -255.656 -62.0856 -258.134L-59.2522 -265.566C-49.1141 -292.274 -58.0619 -320.072 -81.2742 -344.522C-106.88 -372.087 -140.837 -392.702 -169.77 -417.324C-188.569 -433.304 -207.498 -453.981 -204.339 -476.059L-204.785 -476.153C-208.327 -453.901 -189.448 -432.799 -170.697 -416.527C-142.062 -391.565 -108.506 -370.863 -83.2483 -343.299C-57.4827 -315.12 -52.1546 -288.787 -65.3968 -259.453C-72.278 -242.584 -80.8642 -225.95 -94.8174 -213.039C-106.855 -201.926 -122.059 -193.611 -134.139 -182.474C-158.768 -160.235 -174.51 -131.741 -188.324 -103.115C-233.169 -20.326 -165.786 69.5416 -103.529 144.495C-76.5368 178.526 -33.1634 224.416 -24.7548 263.06C-14.4749 325.045 -78.7983 381.191 -120.916 420.927C-128.962 428.332 -137.061 435.703 -144.898 443.297C-152.638 450.943 -160.594 458.585 -166.043 467.905C-194.932 522.674 -201.695 594.277 -176.508 657.405C-173.882 664.018 -170.521 670.838 -167.11 677.272C-165.16 680.673 -162.416 685.447 -160.565 688.889C-148.864 709.547 -147.741 732.502 -155.812 751.909C-171.822 791.449 -209.773 818.159 -236.921 851.117C-243.725 859.519 -249.852 868.656 -253.271 878.782C-259.321 896.123 -267.155 912.875 -279.297 927.153C-291.304 941.429 -306.746 953.381 -322.689 964.358C-345.439 979.775 -371.043 994.24 -395.74 1007.44C-415.547 1018.18 -436.901 1028.48 -456.693 1039.26C-476.683 1050.43 -494.49 1064.18 -509.702 1079.8C-540.193 1111.01 -558.288 1151.25 -562.381 1194.01C-563.937 1210.02 -563.767 1226.38 -561.489 1242.79C-560.714 1248.27 -559.772 1253.74 -558.361 1259.21L-557.918 1259.18L-557.904 1259.14L-557.918 1259.14Z" fill="#FFE9E0"/>
<path d="M-575.452 1254.7C-588.306 1192.23 -572.086 1128.75 -530.371 1083.01C-519.614 1071.09 -507.056 1060.22 -493.372 1050.82C-482.123 1042.79 -469.536 1035.81 -456.933 1029.39C-426.311 1014 -395.314 997.948 -366.133 980.838C-332.401 960.508 -297.701 938.078 -279.886 904.912C-273.28 893.309 -269.264 880.628 -264.327 868.401C-260.961 861.311 -256.438 854.834 -251.519 848.58C-211.712 799.674 -133.754 749.723 -180.984 676.202C-219.927 609.067 -214.205 524.103 -181.841 464.348C-176.476 455.331 -168.5 447.764 -160.715 440.217C-152.829 432.709 -144.671 425.401 -136.548 418.053C-104.238 388.577 -71.3931 358.582 -50.8739 321.084C-34.6364 290.979 -30.6767 260.07 -51.4253 226.024C-82.3264 174.685 -127.846 129.99 -162.428 80.3257C-203.197 23.6684 -232.551 -40.2912 -204.954 -98.486C-199.505 -110.19 -193.505 -122.501 -187.03 -133.724C-174.165 -156.634 -158.234 -178.321 -135.794 -194.654C-126.879 -201.302 -117.339 -207.505 -109.349 -215.066C-97.2058 -226.407 -89.0947 -240.588 -82.6734 -255.212C-81.6489 -257.667 -80.5713 -260.088 -79.6045 -262.565L-76.771 -269.998C-66.6329 -296.706 -75.5807 -324.504 -98.793 -348.953C-124.399 -376.518 -158.356 -397.134 -187.289 -421.755C-206.088 -437.736 -225.017 -458.413 -221.858 -480.491L-222.304 -480.584C-225.846 -458.333 -206.967 -437.23 -188.216 -420.958C-159.581 -395.996 -126.024 -375.294 -100.767 -347.731C-75.0015 -319.551 -69.6734 -293.219 -82.9156 -263.884C-89.7968 -247.016 -98.383 -230.382 -112.336 -217.471C-124.374 -206.358 -139.578 -198.042 -151.658 -186.905C-176.287 -164.667 -192.029 -136.173 -205.843 -107.546C-250.688 -24.7576 -183.305 65.11 -121.048 140.063C-94.0556 174.094 -50.6823 219.984 -42.2737 258.629C-31.9794 320.619 -96.3172 376.76 -138.435 416.495C-146.481 423.901 -154.58 431.271 -162.417 438.866C-170.157 446.511 -178.113 454.154 -183.562 463.474C-212.45 518.243 -219.214 589.845 -194.027 652.974C-191.401 659.587 -188.04 666.406 -184.629 672.841C-182.679 676.241 -179.935 681.015 -178.084 684.458C-166.383 705.116 -165.26 728.07 -173.331 747.478C-189.341 787.017 -227.292 813.727 -254.44 846.686C-261.244 855.087 -267.371 864.224 -270.79 874.35C-276.84 891.691 -284.674 908.444 -296.816 922.721C-308.823 936.997 -324.265 948.95 -340.208 959.926C-362.958 975.344 -388.562 989.809 -413.258 1003.01C-433.066 1013.75 -454.419 1024.05 -474.212 1034.83C-494.202 1045.99 -512.009 1059.74 -527.221 1075.37C-557.712 1106.58 -575.806 1146.81 -579.9 1189.58C-581.456 1205.59 -581.286 1221.95 -579.008 1238.36C-578.233 1243.84 -577.291 1249.31 -575.88 1254.77L-575.436 1254.74L-575.423 1254.71L-575.452 1254.7Z" fill="#FFE9E0"/>
<path d="M-593.001 1250.26C-605.855 1187.8 -589.635 1124.32 -547.92 1078.58C-537.163 1066.66 -524.605 1055.79 -510.921 1046.38C-499.672 1038.35 -487.085 1031.37 -474.482 1024.95C-443.86 1009.56 -412.863 993.511 -383.682 976.402C-349.95 956.072 -315.25 933.642 -297.435 900.476C-290.829 888.873 -286.813 876.192 -281.876 863.965C-278.51 856.875 -273.987 850.398 -269.068 844.143C-229.261 795.238 -151.303 745.286 -198.533 671.766C-237.476 604.631 -231.754 519.667 -199.39 459.911C-194.025 450.895 -186.049 443.328 -178.264 435.781C-170.378 428.273 -162.22 420.965 -154.097 413.617C-121.787 384.141 -88.9421 354.146 -68.423 316.648C-52.1854 286.543 -48.2257 255.634 -68.9743 221.588C-99.8754 170.249 -145.395 125.554 -179.977 75.8897C-220.746 19.2323 -250.1 -44.7272 -222.503 -102.922C-217.054 -114.626 -211.054 -126.937 -204.579 -138.16C-191.714 -161.07 -175.783 -182.757 -153.343 -199.09C-144.428 -205.738 -134.888 -211.941 -126.898 -219.502C-114.755 -230.843 -106.644 -245.024 -100.222 -259.648C-99.198 -262.103 -98.1203 -264.524 -97.1535 -267.002L-94.3201 -274.434C-84.182 -301.142 -93.1298 -328.94 -116.342 -353.389C-141.948 -380.954 -175.905 -401.57 -204.838 -426.191C-223.637 -442.172 -242.566 -462.849 -239.407 -484.927L-239.853 -485.02C-243.395 -462.769 -224.516 -441.666 -205.765 -425.395C-177.13 -400.432 -143.573 -379.73 -118.316 -352.167C-92.5505 -323.987 -87.2224 -297.655 -100.465 -268.32C-107.346 -251.452 -115.932 -234.818 -129.885 -221.907C-141.923 -210.794 -157.127 -202.478 -169.207 -191.342C-193.836 -169.103 -209.578 -140.609 -223.392 -111.982C-268.237 -29.1936 -200.854 60.6739 -138.597 135.627C-111.605 169.658 -68.2169 215.554 -59.8227 254.192C-49.5284 316.183 -113.866 372.324 -155.984 412.059C-164.03 419.464 -172.129 426.835 -179.966 434.43C-187.706 442.075 -195.662 449.717 -201.111 459.038C-230 513.807 -236.763 585.409 -211.576 648.538C-208.95 655.151 -205.589 661.97 -202.178 668.405C-200.228 671.805 -197.484 676.579 -195.633 680.022C-183.932 700.68 -182.809 723.634 -190.88 743.041C-206.89 782.581 -244.841 809.291 -271.989 842.25C-278.793 850.651 -284.92 859.788 -288.339 869.914C-294.389 887.255 -302.223 904.008 -314.365 918.285C-326.372 932.561 -341.814 944.514 -357.757 955.49C-380.507 970.908 -406.111 985.373 -430.807 998.576C-450.615 1009.31 -471.968 1019.62 -491.761 1030.4C-511.751 1041.56 -529.558 1055.31 -544.77 1070.93C-575.261 1102.14 -593.355 1142.38 -597.449 1185.14C-599.005 1201.15 -598.835 1217.51 -596.557 1233.93C-595.782 1239.4 -594.84 1244.87 -593.429 1250.34L-592.985 1250.31L-592.972 1250.27L-593.001 1250.26Z" fill="#FFE9E0"/>
<path d="M-610.549 1245.82C-623.403 1183.36 -607.183 1119.88 -565.468 1074.14C-554.711 1062.22 -542.153 1051.35 -528.469 1041.94C-517.22 1033.91 -504.633 1026.94 -492.03 1020.51C-461.408 1005.12 -430.411 989.074 -401.23 971.964C-367.498 951.634 -332.798 929.204 -314.983 896.038C-308.377 884.435 -304.361 871.755 -299.424 859.528C-296.058 852.437 -291.535 845.961 -286.616 839.706C-246.808 790.8 -168.851 740.849 -216.081 667.328C-255.024 600.193 -249.302 515.229 -216.938 455.474C-211.573 446.457 -203.597 438.89 -195.812 431.343C-187.926 423.835 -179.768 416.527 -171.645 409.179C-139.335 379.703 -106.49 349.708 -85.9709 312.211C-69.7333 282.105 -65.7736 251.196 -86.5222 217.15C-117.423 165.811 -162.943 121.116 -197.525 71.4519C-238.294 14.7946 -267.648 -49.1649 -240.051 -107.36C-234.602 -119.064 -228.601 -131.374 -222.127 -142.597C-209.262 -165.508 -193.331 -187.195 -170.891 -203.527C-161.976 -210.176 -152.436 -216.378 -144.446 -223.94C-132.303 -235.281 -124.192 -249.461 -117.77 -264.085C-116.746 -266.541 -115.668 -268.962 -114.701 -271.439L-111.868 -278.872C-101.73 -305.579 -110.678 -333.378 -133.89 -357.827C-159.496 -385.392 -193.452 -406.008 -222.386 -430.629C-241.185 -446.609 -260.113 -467.287 -256.955 -489.365L-257.401 -489.458C-260.943 -467.206 -242.064 -446.104 -223.312 -429.832C-194.678 -404.87 -161.121 -384.168 -135.864 -356.604C-110.098 -328.425 -104.77 -302.093 -118.013 -272.758C-124.894 -255.89 -133.48 -239.255 -147.433 -226.345C-159.471 -215.232 -174.675 -206.916 -186.755 -195.779C-211.384 -173.54 -227.126 -145.047 -240.94 -116.42C-285.785 -33.6313 -218.402 56.2362 -156.145 131.189C-129.153 165.22 -85.7694 211.128 -77.3706 249.755C-67.0763 311.745 -131.414 367.886 -173.532 407.622C-181.578 415.027 -189.677 422.398 -197.514 429.992C-205.254 437.637 -213.21 445.28 -218.659 454.6C-247.547 509.369 -254.311 580.971 -229.124 644.1C-226.498 650.713 -223.137 657.532 -219.726 663.967C-217.776 667.367 -215.031 672.142 -213.181 675.584C-201.48 696.242 -200.357 719.196 -208.428 738.604C-224.438 778.144 -262.389 804.854 -289.537 837.812C-296.341 846.213 -302.468 855.35 -305.886 865.476C-311.937 882.817 -319.771 899.57 -331.912 913.848C-343.92 928.123 -359.362 940.076 -375.305 951.052C-398.054 966.47 -423.659 980.935 -448.355 994.138C-468.163 1004.87 -489.516 1015.18 -509.309 1025.96C-529.299 1037.12 -547.106 1050.87 -562.318 1066.5C-592.809 1097.7 -610.903 1137.94 -614.996 1180.7C-616.553 1196.71 -616.383 1213.07 -614.105 1229.49C-613.33 1234.96 -612.387 1240.43 -610.977 1245.9L-610.533 1245.87L-610.52 1245.84L-610.549 1245.82Z" fill="#FFE9E0"/>
<path d="M-628.097 1241.39C-640.951 1178.92 -624.731 1115.44 -583.016 1069.71C-572.259 1057.78 -559.701 1046.91 -546.017 1037.51C-534.768 1029.48 -522.181 1022.5 -509.578 1016.08C-478.956 1000.69 -447.959 984.638 -418.778 967.528C-385.046 947.198 -350.346 924.768 -332.531 891.602C-325.925 879.999 -321.909 867.319 -316.972 855.092C-313.606 848.002 -309.083 841.525 -304.164 835.27C-264.356 786.364 -186.399 736.413 -233.629 662.893C-272.572 595.757 -266.85 510.793 -234.486 451.038C-229.121 442.021 -221.145 434.454 -213.36 426.907C-205.474 419.399 -197.316 412.092 -189.207 404.738C-156.897 375.262 -124.053 345.267 -103.533 307.769C-87.2958 277.664 -83.3361 246.754 -104.085 212.708C-134.986 161.369 -180.506 116.675 -215.088 67.0105C-255.857 10.3531 -285.21 -53.6064 -257.613 -111.801C-252.165 -123.506 -246.164 -135.816 -239.689 -147.039C-226.824 -169.949 -210.894 -191.636 -188.453 -207.969C-179.538 -214.617 -169.999 -220.82 -162.008 -228.381C-149.865 -239.723 -141.754 -253.903 -135.333 -268.527C-134.308 -270.982 -133.231 -273.403 -132.264 -275.881L-129.43 -283.313C-119.292 -310.021 -128.24 -337.819 -151.452 -362.269C-177.058 -389.834 -211.015 -410.449 -239.949 -435.07C-258.747 -451.051 -277.676 -471.728 -274.517 -493.806L-274.963 -493.9C-278.506 -471.648 -259.626 -450.545 -240.875 -434.274C-212.241 -409.311 -178.684 -388.609 -153.427 -361.046C-127.661 -332.867 -122.333 -306.534 -135.575 -277.2C-142.456 -260.331 -151.042 -243.697 -164.996 -230.786C-177.033 -219.673 -192.237 -211.357 -204.318 -200.221C-228.946 -177.982 -244.688 -149.488 -258.503 -120.861C-303.347 -38.0728 -235.964 51.7947 -173.707 126.748C-146.715 160.779 -103.342 206.669 -94.9331 245.313C-84.6532 307.298 -148.977 363.445 -191.095 403.18C-199.14 410.585 -207.239 417.956 -215.076 425.551C-222.817 433.196 -230.772 440.838 -236.222 450.159C-265.11 504.927 -271.873 576.53 -246.686 639.658C-244.06 646.272 -240.7 653.091 -237.289 659.525C-235.339 662.926 -232.594 667.7 -230.743 671.142C-219.043 691.8 -217.919 714.755 -225.991 734.162C-242 773.702 -279.951 800.412 -307.099 833.371C-313.904 841.772 -320.03 850.909 -323.449 861.035C-329.5 878.376 -337.334 895.128 -349.475 909.406C-361.482 923.682 -376.925 935.635 -392.868 946.611C-415.617 962.028 -441.221 976.493 -465.918 989.697C-485.725 1000.43 -507.079 1010.74 -526.871 1021.52C-546.862 1032.68 -564.669 1046.43 -579.881 1062.05C-610.372 1093.26 -628.466 1133.5 -632.559 1176.26C-634.115 1192.27 -633.945 1208.63 -631.668 1225.05C-630.892 1230.52 -629.95 1235.99 -628.54 1241.46L-628.096 1241.43L-628.082 1241.39L-628.097 1241.39Z" fill="#FFE9E0"/>
<path d="M-645.646 1236.95C-658.5 1174.49 -642.28 1111 -600.565 1065.27C-589.808 1053.34 -577.25 1042.47 -563.566 1033.07C-552.317 1025.04 -539.73 1018.06 -527.127 1011.64C-496.505 996.251 -465.508 980.2 -436.327 963.091C-402.595 942.76 -367.895 920.33 -350.08 887.164C-343.474 875.561 -339.458 862.881 -334.521 850.654C-331.155 843.564 -326.632 837.087 -321.713 830.832C-281.905 781.926 -203.948 731.975 -251.178 658.455C-290.121 591.319 -284.399 506.355 -252.035 446.6C-246.67 437.583 -238.694 430.016 -230.909 422.469C-223.023 414.961 -214.865 407.654 -206.756 400.3C-174.446 370.824 -141.601 340.829 -121.082 303.331C-104.845 273.226 -100.885 242.316 -121.634 208.27C-152.535 156.931 -198.055 112.237 -232.636 62.5725C-273.406 5.91515 -302.759 -58.0444 -275.162 -116.239C-269.714 -127.944 -263.713 -140.254 -257.238 -151.477C-244.373 -174.387 -228.443 -196.074 -206.002 -212.407C-197.087 -219.055 -187.548 -225.258 -179.557 -232.819C-167.414 -244.161 -159.303 -258.341 -152.882 -272.965C-151.857 -275.42 -150.78 -277.841 -149.813 -280.319L-146.979 -287.751C-136.841 -314.459 -145.789 -342.257 -169.001 -366.707C-194.607 -394.272 -228.564 -414.887 -257.498 -439.508C-276.296 -455.489 -295.225 -476.166 -292.066 -498.244L-292.512 -498.338C-296.055 -476.086 -277.175 -454.983 -258.424 -438.712C-229.79 -413.749 -196.233 -393.047 -170.975 -365.484C-145.21 -337.304 -139.882 -310.972 -153.124 -281.638C-160.005 -264.769 -168.591 -248.135 -182.545 -235.224C-194.582 -224.111 -209.786 -215.795 -221.866 -204.659C-246.495 -182.42 -262.237 -153.926 -276.052 -125.299C-320.896 -42.5108 -253.513 47.3568 -191.256 122.31C-164.264 156.341 -120.891 202.231 -112.482 240.875C-102.202 302.86 -166.526 359.007 -208.644 398.742C-216.689 406.147 -224.788 413.518 -232.625 421.113C-240.366 428.758 -248.321 436.4 -253.771 445.721C-282.659 500.489 -289.422 572.092 -264.235 635.22C-261.609 641.834 -258.249 648.653 -254.838 655.087C-252.888 658.488 -250.143 663.262 -248.292 666.704C-236.592 687.362 -235.468 710.317 -243.539 729.724C-259.549 769.264 -297.5 795.974 -324.648 828.933C-331.452 837.334 -337.579 846.471 -340.998 856.597C-347.049 873.938 -354.883 890.69 -367.024 904.968C-379.031 919.244 -394.474 931.197 -410.417 942.173C-433.166 957.59 -458.77 972.055 -483.467 985.259C-503.274 995.993 -524.628 1006.3 -544.42 1017.08C-564.411 1028.24 -582.218 1041.99 -597.429 1057.62C-627.921 1088.83 -646.015 1129.06 -650.108 1171.82C-651.664 1187.83 -651.494 1204.19 -649.216 1220.61C-648.441 1226.08 -647.499 1231.55 -646.089 1237.02L-645.645 1236.99L-645.631 1236.96L-645.646 1236.95Z" fill="#FFE9E0"/>
<path d="M-663.179 1232.51C-676.033 1170.05 -659.813 1106.57 -618.098 1060.83C-607.341 1048.91 -594.783 1038.04 -581.099 1028.63C-569.85 1020.6 -557.263 1013.62 -544.661 1007.2C-514.038 991.813 -483.041 975.763 -453.86 958.653C-420.128 938.323 -385.428 915.893 -367.613 882.727C-361.007 871.124 -356.991 858.444 -352.054 846.217C-348.689 839.126 -344.165 832.65 -339.246 826.395C-299.439 777.489 -221.481 727.538 -268.711 654.017C-307.654 586.882 -301.932 501.918 -269.568 442.163C-264.203 433.146 -256.227 425.579 -248.442 418.032C-240.556 410.524 -232.399 403.216 -224.29 395.863C-191.98 366.386 -159.135 336.391 -138.616 298.894C-122.378 268.789 -118.418 237.879 -139.167 203.833C-170.068 152.494 -215.588 107.8 -250.17 58.1352C-290.939 1.47789 -320.292 -62.4816 -292.695 -120.676C-287.247 -132.381 -281.246 -144.691 -274.771 -155.914C-261.907 -178.824 -245.976 -200.512 -223.535 -216.844C-214.62 -223.493 -205.081 -229.695 -197.091 -237.257C-184.947 -248.598 -176.836 -262.778 -170.415 -277.402C-169.391 -279.857 -168.313 -282.278 -167.346 -284.756L-164.513 -292.188C-154.375 -318.896 -163.322 -346.695 -186.535 -371.144C-212.141 -398.709 -246.097 -419.324 -275.031 -443.946C-293.829 -459.926 -312.758 -480.603 -309.6 -502.682L-310.046 -502.775C-313.588 -480.523 -294.709 -459.421 -275.957 -443.149C-247.323 -418.187 -213.766 -397.485 -188.509 -369.921C-162.743 -341.742 -157.415 -315.409 -170.657 -286.075C-177.539 -269.206 -186.125 -252.572 -200.078 -239.661C-212.115 -228.548 -227.32 -220.233 -239.4 -209.096C-264.029 -186.857 -279.771 -158.363 -293.585 -129.737C-338.429 -46.948 -271.046 42.9195 -208.789 117.873C-181.797 151.904 -138.424 197.794 -130.015 236.438C-119.735 298.423 -184.059 354.569 -226.177 394.305C-234.223 401.71 -242.322 409.081 -250.158 416.675C-257.899 424.321 -265.854 431.963 -271.304 441.283C-300.192 496.052 -306.955 567.655 -281.769 630.783C-279.143 637.396 -275.782 644.215 -272.371 650.65C-270.421 654.051 -267.676 658.825 -265.826 662.267C-254.125 682.925 -253.001 705.88 -261.073 725.287C-277.083 764.827 -315.033 791.537 -342.181 824.495C-348.986 832.897 -355.112 842.034 -358.531 852.16C-364.582 869.5 -372.416 886.253 -384.557 900.531C-396.565 914.807 -412.007 926.759 -427.95 937.736C-450.699 953.153 -476.304 967.618 -501 980.822C-520.807 991.556 -542.161 1001.86 -561.953 1012.64C-581.944 1023.8 -599.751 1037.55 -614.963 1053.18C-645.454 1084.39 -663.548 1124.62 -667.641 1167.39C-669.197 1183.4 -669.027 1199.76 -666.75 1216.17C-665.975 1221.65 -665.032 1227.12 -663.622 1232.58L-663.178 1232.55L-663.164 1232.52L-663.179 1232.51Z" fill="#FFE9E0"/>
<path d="M-680.728 1228.07C-693.582 1165.61 -677.362 1102.13 -635.647 1056.39C-624.89 1044.47 -612.332 1033.6 -598.648 1024.19C-587.399 1016.16 -574.812 1009.18 -562.209 1002.76C-531.587 987.374 -500.59 971.323 -471.409 954.214C-437.677 933.883 -402.977 911.453 -385.162 878.287C-378.556 866.685 -374.54 854.004 -369.603 841.777C-366.237 834.687 -361.714 828.21 -356.795 821.955C-316.988 773.049 -239.03 723.098 -286.26 649.578C-325.203 582.442 -319.481 497.478 -287.117 437.723C-281.752 428.706 -273.776 421.139 -265.991 413.592C-258.105 406.084 -249.947 398.777 -241.824 391.429C-209.514 361.952 -176.669 331.957 -156.15 294.46C-139.912 264.355 -135.953 233.445 -156.701 199.399C-187.602 148.06 -233.122 103.366 -267.704 53.7012C-308.473 -2.95615 -337.827 -66.9157 -310.23 -125.111C-304.781 -136.815 -298.781 -149.125 -292.306 -160.348C-279.441 -183.258 -263.511 -204.946 -241.07 -221.278C-232.155 -227.927 -222.615 -234.129 -214.625 -241.691C-202.482 -253.032 -194.371 -267.212 -187.949 -281.836C-186.925 -284.291 -185.847 -286.712 -184.881 -289.19L-182.047 -296.622C-171.909 -323.33 -180.857 -351.129 -204.069 -375.578C-229.675 -403.143 -263.632 -423.758 -292.565 -448.38C-311.364 -464.36 -330.293 -485.037 -327.134 -507.116L-327.58 -507.209C-331.122 -484.957 -312.243 -463.855 -293.492 -447.583C-264.857 -422.621 -231.3 -401.919 -206.043 -374.355C-180.278 -346.176 -174.949 -319.844 -188.192 -290.509C-195.073 -273.64 -203.659 -257.006 -217.612 -244.095C-229.65 -232.982 -244.854 -224.667 -256.934 -213.53C-281.563 -191.291 -297.305 -162.797 -311.119 -134.171C-355.964 -51.3821 -288.581 38.4855 -226.324 113.439C-199.332 147.47 -155.944 193.365 -147.55 232.004C-137.255 293.995 -201.593 350.135 -243.711 389.871C-251.757 397.276 -259.856 404.647 -267.693 412.241C-275.433 419.887 -283.389 427.529 -288.838 436.849C-317.727 491.618 -324.49 563.221 -299.303 626.349C-296.677 632.962 -293.316 639.781 -289.905 646.216C-287.955 649.616 -285.211 654.391 -283.36 657.833C-271.659 678.491 -270.536 701.446 -278.607 720.853C-294.617 760.393 -332.568 787.103 -359.716 820.061C-366.52 828.462 -372.647 837.599 -376.066 847.726C-382.116 865.066 -389.95 881.819 -402.092 896.097C-414.099 910.373 -429.541 922.325 -445.484 933.302C-468.234 948.719 -493.838 963.184 -518.534 976.388C-538.342 987.122 -559.695 997.428 -579.488 1008.21C-599.478 1019.37 -617.285 1033.12 -632.497 1048.74C-662.988 1079.95 -681.082 1120.19 -685.176 1162.95C-686.732 1178.96 -686.562 1195.32 -684.284 1211.74C-683.509 1217.21 -682.567 1222.68 -681.156 1228.15L-680.712 1228.12L-680.699 1228.09L-680.728 1228.07Z" fill="#FFE9E0"/>
<path d="M-698.276 1223.64C-711.13 1161.17 -694.91 1097.69 -653.195 1051.95C-642.438 1040.03 -629.88 1029.16 -616.196 1019.76C-604.947 1011.73 -592.36 1004.75 -579.758 998.327C-549.135 982.938 -518.138 966.887 -488.957 949.778C-455.225 929.448 -420.525 907.018 -402.71 873.851C-396.104 862.249 -392.088 849.568 -387.151 837.341C-383.785 830.251 -379.262 823.774 -374.343 817.519C-334.536 768.614 -256.578 718.662 -303.808 645.142C-342.751 578.006 -337.029 493.043 -304.665 433.287C-299.3 424.27 -291.324 416.703 -283.539 409.156C-275.653 401.649 -267.495 394.341 -259.372 386.993C-227.062 357.517 -194.217 327.522 -173.698 290.024C-157.46 259.919 -153.501 229.009 -174.249 194.963C-205.15 143.624 -250.67 98.9299 -285.252 49.2654C-326.021 -7.39196 -355.375 -71.3515 -327.778 -129.546C-322.329 -141.251 -316.329 -153.561 -309.854 -164.784C-296.989 -187.694 -281.059 -209.381 -258.618 -225.714C-249.703 -232.362 -240.163 -238.565 -232.173 -246.126C-220.03 -257.468 -211.919 -271.648 -205.497 -286.272C-204.473 -288.727 -203.395 -291.148 -202.429 -293.626L-199.595 -301.058C-189.457 -327.766 -198.405 -355.564 -221.617 -380.014C-247.223 -407.579 -281.18 -428.194 -310.113 -452.816C-328.912 -468.796 -347.841 -489.473 -344.682 -511.551L-345.128 -511.645C-348.67 -489.393 -329.791 -468.291 -311.04 -452.019C-282.405 -427.056 -248.848 -406.354 -223.591 -378.791C-197.826 -350.612 -192.497 -324.279 -205.74 -294.945C-212.621 -278.076 -221.207 -261.442 -235.16 -248.531C-247.198 -237.418 -262.402 -229.103 -274.482 -217.966C-299.111 -195.727 -314.853 -167.233 -328.667 -138.606C-373.512 -55.8179 -306.129 34.0497 -243.872 109.003C-216.88 143.034 -173.492 188.93 -165.098 227.568C-154.803 289.559 -219.141 345.699 -261.259 385.435C-269.305 392.84 -277.404 400.211 -285.241 407.805C-292.981 415.451 -300.937 423.093 -306.386 432.414C-335.275 487.182 -342.038 558.785 -316.851 621.913C-314.225 628.527 -310.864 635.346 -307.453 641.78C-305.503 645.181 -302.759 649.955 -300.908 653.397C-289.207 674.055 -288.084 697.01 -296.155 716.417C-312.165 755.957 -350.116 782.667 -377.264 815.625C-384.068 824.027 -390.195 833.164 -393.614 843.29C-399.664 860.631 -407.498 877.383 -419.64 891.661C-431.647 905.937 -447.089 917.89 -463.032 928.866C-485.782 944.283 -511.386 958.748 -536.082 971.952C-555.89 982.686 -577.243 992.992 -597.036 1003.77C-617.026 1014.93 -634.833 1028.68 -650.045 1044.31C-680.536 1075.52 -698.63 1115.75 -702.724 1158.52C-704.28 1174.53 -704.11 1190.89 -701.832 1207.3C-701.057 1212.78 -700.115 1218.25 -698.704 1223.71L-698.26 1223.68L-698.247 1223.65L-698.276 1223.64Z" fill="#FFE9E0"/>
<path d="M-715.824 1219.2C-728.678 1156.74 -712.458 1093.26 -670.743 1047.52C-659.986 1035.6 -647.428 1024.73 -633.744 1015.32C-622.495 1007.29 -609.908 1000.31 -597.306 993.891C-566.683 978.502 -535.686 962.451 -506.505 945.342C-472.773 925.012 -438.073 902.582 -420.258 869.416C-413.652 857.813 -409.636 845.132 -404.699 832.905C-401.333 825.815 -396.81 819.338 -391.891 813.083C-352.084 764.178 -274.126 714.226 -321.356 640.706C-360.299 573.571 -354.577 488.607 -322.213 428.851C-316.848 419.835 -308.872 412.268 -301.087 404.72C-293.201 397.213 -285.043 389.905 -276.92 382.557C-244.61 353.081 -211.765 323.086 -191.246 285.588C-175.009 255.483 -171.049 224.573 -191.797 190.528C-222.699 139.188 -268.218 94.4941 -302.8 44.8296C-343.569 -11.8278 -372.923 -75.7873 -345.326 -133.982C-339.878 -145.687 -333.877 -157.997 -327.402 -169.22C-314.537 -192.13 -298.607 -213.817 -276.166 -230.15C-267.251 -236.798 -257.711 -243.001 -249.721 -250.562C-237.578 -261.903 -229.467 -276.084 -223.046 -290.708C-222.021 -293.163 -220.943 -295.584 -219.977 -298.062L-217.143 -305.494C-207.005 -332.202 -215.953 -360 -239.165 -384.449C-264.771 -412.015 -298.728 -432.63 -327.661 -457.251C-346.46 -473.232 -365.389 -493.909 -362.23 -515.987L-362.676 -516.08C-366.218 -493.829 -347.339 -472.726 -328.588 -456.455C-299.953 -431.492 -266.397 -410.79 -241.139 -383.227C-215.374 -355.047 -210.046 -328.715 -223.288 -299.381C-230.169 -282.512 -238.755 -265.878 -252.708 -252.967C-264.746 -241.854 -279.95 -233.538 -292.03 -222.402C-316.659 -200.163 -332.401 -171.669 -346.215 -143.042C-391.06 -60.2536 -323.677 29.6139 -261.42 104.567C-234.428 138.598 -191.04 184.494 -182.646 223.132C-172.351 285.123 -236.689 341.264 -278.807 380.999C-286.853 388.404 -294.952 395.775 -302.789 403.37C-310.529 411.015 -318.485 418.657 -323.934 427.978C-352.823 482.746 -359.586 554.349 -334.399 617.477C-331.773 624.091 -328.412 630.91 -325.001 637.345C-323.051 640.745 -320.307 645.519 -318.456 648.962C-306.755 669.619 -305.632 692.574 -313.703 711.981C-329.713 751.521 -367.664 778.231 -394.812 811.19C-401.616 819.591 -407.743 828.728 -411.162 838.854C-417.212 856.195 -425.046 872.948 -437.188 887.225C-449.195 901.501 -464.637 913.454 -480.58 924.43C-503.33 939.848 -528.934 954.313 -553.631 967.516C-573.438 978.25 -594.792 988.556 -614.584 999.337C-634.574 1010.5 -652.381 1024.25 -667.593 1039.87C-698.084 1071.08 -716.179 1111.32 -720.272 1154.08C-721.828 1170.09 -721.658 1186.45 -719.38 1202.87C-718.605 1208.34 -717.663 1213.81 -716.252 1219.28L-715.809 1219.25L-715.795 1219.21L-715.824 1219.2Z" fill="#FFE9E0"/>
<path d="M-733.359 1214.77C-746.213 1152.3 -729.993 1088.82 -688.278 1043.08C-677.521 1031.16 -664.963 1020.29 -651.28 1010.89C-640.03 1002.86 -627.443 995.879 -614.841 989.457C-584.218 974.068 -553.221 958.018 -524.04 940.908C-490.308 920.578 -455.608 898.148 -437.794 864.982C-431.187 853.379 -427.171 840.698 -422.234 828.471C-418.869 821.381 -414.345 814.905 -409.426 808.65C-369.619 759.744 -291.661 709.793 -338.891 636.272C-377.834 569.137 -372.112 484.173 -339.748 424.418C-334.383 415.401 -326.407 407.834 -318.622 400.287C-310.736 392.779 -302.579 385.471 -294.47 378.118C-262.16 348.641 -229.315 318.646 -208.796 281.149C-192.558 251.044 -188.598 220.134 -209.347 186.088C-240.248 134.749 -285.768 90.0546 -320.35 40.3901C-361.119 -16.2672 -390.472 -80.2268 -362.876 -138.422C-357.427 -150.126 -351.426 -162.436 -344.951 -173.659C-332.087 -196.57 -316.156 -218.257 -293.715 -234.589C-284.8 -241.238 -275.261 -247.44 -267.271 -255.002C-255.128 -266.343 -247.016 -280.523 -240.595 -295.147C-239.571 -297.602 -238.493 -300.023 -237.526 -302.501L-234.693 -309.933C-224.555 -336.641 -233.502 -364.44 -256.715 -388.889C-282.321 -416.454 -316.277 -437.069 -345.211 -461.691C-364.01 -477.671 -382.938 -498.348 -379.78 -520.427L-380.226 -520.52C-383.768 -498.268 -364.889 -477.166 -346.137 -460.894C-317.503 -435.932 -283.946 -415.23 -258.689 -387.666C-232.923 -359.487 -227.595 -333.155 -240.837 -303.82C-247.719 -286.951 -256.305 -270.317 -270.258 -257.406C-282.296 -246.293 -297.5 -237.978 -309.58 -226.841C-334.209 -204.602 -349.951 -176.108 -363.765 -147.482C-408.609 -64.6932 -341.227 25.1744 -278.969 100.127C-251.977 134.158 -208.604 180.049 -200.195 218.693C-189.916 280.678 -254.239 336.824 -296.357 376.56C-304.403 383.965 -312.502 391.336 -320.339 398.93C-328.079 406.576 -336.034 414.218 -341.484 423.538C-370.372 478.307 -377.135 549.91 -351.949 613.038C-349.323 619.651 -345.962 626.47 -342.551 632.905C-340.601 636.305 -337.856 641.08 -336.006 644.522C-324.305 665.18 -323.181 688.135 -331.253 707.542C-347.263 747.082 -385.213 773.792 -412.361 806.75C-419.166 815.151 -425.292 824.288 -428.711 834.415C-434.762 851.755 -442.596 868.508 -454.737 882.786C-466.745 897.062 -482.187 909.014 -498.13 919.991C-520.879 935.408 -546.484 949.873 -571.18 963.076C-590.988 973.811 -612.341 984.117 -632.133 994.897C-652.124 1006.06 -669.931 1019.81 -685.143 1035.43C-715.634 1066.64 -733.728 1106.88 -737.821 1149.64C-739.378 1165.65 -739.208 1182.01 -736.93 1198.43C-736.155 1203.9 -735.212 1209.37 -733.802 1214.84L-733.358 1214.81L-733.344 1214.77L-733.359 1214.77Z" fill="#FFE9E0"/>
<path d="M-750.906 1210.33C-763.76 1147.86 -747.54 1084.38 -705.825 1038.65C-695.069 1026.72 -682.511 1015.85 -668.827 1006.45C-657.577 998.419 -644.99 991.44 -632.388 985.018C-601.766 969.629 -570.768 953.578 -541.587 936.469C-507.856 916.138 -473.155 893.709 -455.341 860.542C-448.734 848.94 -444.718 836.259 -439.781 824.032C-436.416 816.942 -431.893 810.465 -426.974 804.21C-387.166 755.304 -309.208 705.353 -356.439 631.833C-395.381 564.697 -389.659 479.733 -357.295 419.978C-351.931 410.961 -343.955 403.394 -336.17 395.847C-328.283 388.339 -320.126 381.032 -312.017 373.678C-279.707 344.202 -246.862 314.207 -226.343 276.709C-210.105 246.604 -206.146 215.695 -226.894 181.649C-257.795 130.31 -303.315 85.6152 -337.897 35.9507C-378.666 -20.7067 -408.02 -84.6662 -380.423 -142.861C-374.974 -154.565 -368.974 -166.876 -362.499 -178.099C-349.634 -201.009 -333.703 -222.696 -311.263 -239.029C-302.348 -245.677 -292.808 -251.88 -284.818 -259.441C-272.675 -270.782 -264.564 -284.963 -258.142 -299.587C-257.118 -302.042 -256.04 -304.463 -255.073 -306.941L-252.24 -314.373C-242.102 -341.081 -251.05 -368.879 -274.262 -393.328C-299.868 -420.893 -333.825 -441.509 -362.758 -466.13C-381.557 -482.111 -400.486 -502.788 -397.327 -524.866L-397.773 -524.959C-401.315 -502.708 -382.436 -481.605 -363.685 -465.334C-335.05 -440.371 -301.493 -419.669 -276.236 -392.106C-250.47 -363.926 -245.142 -337.594 -258.385 -308.259C-265.266 -291.391 -273.852 -274.757 -287.805 -261.846C-299.843 -250.733 -315.047 -242.417 -327.127 -231.281C-351.756 -209.042 -367.498 -180.548 -381.312 -151.921C-426.157 -69.1326 -358.774 20.7349 -296.517 95.688C-269.525 129.719 -226.151 175.609 -217.743 214.254C-207.463 276.238 -271.786 332.385 -313.904 372.12C-321.95 379.526 -330.049 386.896 -337.886 394.491C-345.626 402.136 -353.582 409.778 -359.031 419.099C-387.919 473.868 -394.683 545.47 -369.496 608.599C-366.87 615.212 -363.509 622.031 -360.098 628.466C-358.148 631.866 -355.403 636.64 -353.553 640.083C-341.852 660.741 -340.729 683.695 -348.8 703.103C-364.81 742.642 -402.761 769.352 -429.909 802.311C-436.713 810.712 -442.84 819.849 -446.258 829.975C-452.309 847.316 -460.143 864.069 -472.284 878.346C-484.292 892.622 -499.734 904.575 -515.677 915.551C-538.426 930.969 -564.031 945.434 -588.727 958.637C-608.535 969.371 -629.888 979.677 -649.681 990.458C-669.671 1001.62 -687.478 1015.37 -702.69 1030.99C-733.181 1062.2 -751.275 1102.44 -755.368 1145.2C-756.925 1161.21 -756.755 1177.57 -754.477 1193.99C-753.702 1199.46 -752.76 1204.93 -751.349 1210.4L-750.905 1210.37L-750.892 1210.33L-750.906 1210.33Z" fill="#FFE9E0"/>
<path d="M-768.455 1205.89C-781.309 1143.43 -765.089 1079.94 -723.374 1034.21C-712.617 1022.28 -700.059 1011.41 -686.376 1002.01C-675.126 993.98 -662.539 987 -649.937 980.578C-619.314 965.189 -588.317 949.138 -559.136 932.029C-525.405 911.699 -490.704 889.269 -472.89 856.103C-466.283 844.5 -462.267 831.819 -457.33 819.592C-453.965 812.502 -449.442 806.025 -444.523 799.77C-404.715 750.865 -326.757 700.913 -373.987 627.393C-412.93 560.258 -407.208 475.294 -374.844 415.538C-369.479 406.522 -361.504 398.955 -353.718 391.407C-345.832 383.9 -337.675 376.592 -329.551 369.244C-297.241 339.768 -264.396 309.773 -243.877 272.275C-227.64 242.17 -223.68 211.261 -244.429 177.215C-275.33 125.875 -320.85 81.1811 -355.431 31.5166C-396.2 -25.1407 -425.554 -89.1002 -397.957 -147.295C-392.509 -159 -386.508 -171.31 -380.033 -182.533C-367.168 -205.443 -351.238 -227.13 -328.797 -243.463C-319.882 -250.111 -310.343 -256.314 -302.352 -263.875C-290.209 -275.216 -282.098 -289.397 -275.677 -304.021C-274.652 -306.476 -273.575 -308.897 -272.608 -311.375L-269.774 -318.807C-259.636 -345.515 -268.584 -373.313 -291.796 -397.762C-317.402 -425.328 -351.359 -445.943 -380.293 -470.564C-399.091 -486.545 -418.02 -507.222 -414.861 -529.3L-415.307 -529.393C-418.85 -507.142 -399.97 -486.039 -381.219 -469.768C-352.585 -444.805 -319.028 -424.103 -293.77 -396.54C-268.005 -368.36 -262.677 -342.028 -275.919 -312.694C-282.8 -295.825 -291.386 -279.191 -305.34 -266.28C-317.377 -255.167 -332.581 -246.851 -344.661 -235.715C-369.29 -213.476 -385.032 -184.982 -398.847 -156.355C-443.691 -73.5666 -376.308 16.3009 -314.051 91.2539C-287.059 125.285 -243.686 171.175 -235.277 209.819C-224.997 271.804 -289.32 327.951 -331.439 367.686C-339.484 375.091 -347.583 382.462 -355.42 390.057C-363.161 397.702 -371.116 405.344 -376.566 414.665C-405.454 469.433 -412.217 541.036 -387.03 604.164C-384.404 610.778 -381.044 617.597 -377.633 624.032C-375.683 627.432 -372.938 632.206 -371.087 635.649C-359.387 656.306 -358.263 679.261 -366.334 698.668C-382.344 738.208 -420.295 764.918 -447.443 797.877C-454.247 806.278 -460.374 815.415 -463.793 825.541C-469.844 842.882 -477.678 859.635 -489.819 873.912C-501.826 888.188 -517.269 900.141 -533.212 911.117C-555.961 926.535 -581.565 941 -606.262 954.203C-626.069 964.937 -647.423 975.243 -667.215 986.024C-687.206 997.185 -705.013 1010.94 -720.224 1026.56C-750.716 1057.77 -768.81 1098 -772.903 1140.77C-774.459 1156.78 -774.289 1173.14 -772.011 1189.55C-771.236 1195.03 -770.294 1200.5 -768.883 1205.96L-768.44 1205.94L-768.426 1205.9L-768.455 1205.89Z" fill="#FFE9E0"/>
<path d="M-786.003 1201.45C-798.857 1138.99 -782.637 1075.51 -740.922 1029.77C-730.165 1017.85 -717.607 1006.98 -703.923 997.571C-692.674 989.544 -680.087 982.564 -667.485 976.142C-636.862 960.753 -605.865 944.702 -576.684 927.593C-542.953 907.263 -508.252 884.833 -490.438 851.667C-483.831 840.064 -479.815 827.383 -474.878 815.156C-471.513 808.066 -466.989 801.589 -462.07 795.334C-422.263 746.429 -344.305 696.477 -391.535 622.957C-430.478 555.822 -424.756 470.858 -392.392 411.102C-387.027 402.086 -379.051 394.519 -371.266 386.971C-363.38 379.464 -355.223 372.156 -347.099 364.808C-314.789 335.332 -281.944 305.337 -261.425 267.839C-245.188 237.734 -241.228 206.824 -261.977 172.779C-292.878 121.439 -338.398 76.7451 -372.979 27.0806C-413.748 -29.5768 -443.102 -93.5363 -415.505 -151.731C-410.057 -163.436 -404.056 -175.746 -397.581 -186.969C-384.716 -209.879 -368.786 -231.566 -346.345 -247.899C-337.43 -254.547 -327.891 -260.75 -319.9 -268.311C-307.757 -279.652 -299.646 -293.833 -293.225 -308.457C-292.2 -310.912 -291.122 -313.333 -290.156 -315.811L-287.322 -323.243C-277.184 -349.951 -286.132 -377.749 -309.344 -402.199C-334.95 -429.764 -368.907 -450.379 -397.84 -475C-416.639 -490.981 -435.568 -511.658 -432.409 -533.736L-432.855 -533.829C-436.398 -511.578 -417.518 -490.475 -398.767 -474.204C-370.133 -449.241 -336.576 -428.539 -311.318 -400.976C-285.553 -372.796 -280.225 -346.464 -293.467 -317.13C-300.348 -300.261 -308.934 -283.627 -322.888 -270.716C-334.925 -259.603 -350.129 -251.287 -362.209 -240.151C-386.838 -217.912 -402.58 -189.418 -416.395 -160.791C-461.239 -78.0027 -393.856 11.8649 -331.599 86.8179C-304.607 120.849 -261.219 166.745 -252.825 205.383C-242.531 267.374 -306.868 323.515 -348.987 363.25C-357.032 370.655 -365.131 378.026 -372.968 385.621C-380.708 393.266 -388.664 400.908 -394.114 410.229C-423.002 464.997 -429.765 536.6 -404.578 599.728C-401.952 606.342 -398.591 613.161 -395.181 619.596C-393.23 622.996 -390.486 627.77 -388.635 631.213C-376.935 651.87 -375.811 674.825 -383.882 694.232C-399.892 733.772 -437.843 760.482 -464.991 793.441C-471.795 801.842 -477.922 810.979 -481.341 821.105C-487.392 838.446 -495.226 855.199 -507.367 869.476C-519.374 883.752 -534.817 895.705 -550.76 906.681C-573.509 922.098 -599.113 936.564 -623.81 949.767C-643.617 960.501 -664.971 970.807 -684.763 981.588C-704.753 992.749 -722.561 1006.5 -737.772 1022.12C-768.264 1053.33 -786.358 1093.57 -790.451 1136.33C-792.007 1152.34 -791.837 1168.7 -789.559 1185.12C-788.784 1190.59 -787.842 1196.06 -786.431 1201.53L-785.988 1201.5L-785.974 1201.46L-786.003 1201.45Z" fill="#FFE9E0"/>
<path d="M-803.552 1197.02C-816.406 1134.55 -800.186 1071.07 -758.471 1025.33C-747.714 1013.41 -735.156 1002.54 -721.472 993.135C-710.223 985.108 -697.636 978.128 -685.034 971.707C-654.411 956.318 -623.414 940.267 -594.233 923.157C-560.501 902.827 -525.801 880.397 -507.987 847.231C-501.38 835.628 -497.364 822.948 -492.427 810.721C-489.062 803.631 -484.538 797.154 -479.619 790.899C-439.812 741.993 -361.854 692.042 -409.084 618.522C-448.027 551.386 -442.305 466.422 -409.941 406.667C-404.576 397.65 -396.6 390.083 -388.815 382.536C-380.929 375.028 -372.772 367.72 -364.648 360.373C-332.338 330.896 -299.493 300.901 -278.974 263.404C-262.737 233.299 -258.777 202.389 -279.526 168.343C-310.427 117.004 -355.947 72.3095 -390.528 22.645C-431.297 -34.0123 -460.651 -97.9718 -433.054 -156.167C-427.606 -167.871 -421.605 -180.181 -415.13 -191.404C-402.265 -214.315 -386.335 -236.002 -363.894 -252.334C-354.979 -258.983 -345.44 -265.185 -337.449 -272.747C-325.306 -284.088 -317.195 -298.268 -310.774 -312.892C-309.749 -315.348 -308.671 -317.768 -307.705 -320.246L-304.871 -327.678C-294.733 -354.386 -303.681 -382.185 -326.893 -406.634C-352.499 -434.199 -386.456 -454.815 -415.389 -479.436C-434.188 -495.416 -453.117 -516.093 -449.958 -538.172L-450.404 -538.265C-453.946 -516.013 -435.067 -494.911 -416.316 -478.639C-387.682 -453.677 -354.125 -432.975 -328.867 -405.411C-303.102 -377.232 -297.774 -350.9 -311.016 -321.565C-317.897 -304.696 -326.483 -288.062 -340.437 -275.151C-352.474 -264.038 -367.678 -255.723 -379.758 -244.586C-404.387 -222.347 -420.129 -193.853 -433.944 -165.227C-478.788 -82.4382 -411.405 7.42929 -349.148 82.3823C-322.156 116.413 -278.768 162.309 -270.374 200.948C-260.08 262.938 -324.417 319.079 -366.536 358.815C-374.581 366.22 -382.68 373.591 -390.517 381.185C-398.257 388.831 -406.213 396.473 -411.663 405.793C-440.551 460.562 -447.314 532.165 -422.127 595.293C-419.501 601.906 -416.14 608.725 -412.73 615.16C-410.779 618.56 -408.035 623.335 -406.184 626.777C-394.484 647.435 -393.36 670.39 -401.431 689.797C-417.441 729.337 -455.392 756.047 -482.54 789.005C-489.344 797.406 -495.471 806.543 -498.89 816.669C-504.941 834.01 -512.775 850.763 -524.916 865.041C-536.923 879.317 -552.366 891.269 -568.309 902.245C-591.058 917.663 -616.662 932.128 -641.359 945.331C-661.166 956.066 -682.52 966.372 -702.312 977.152C-722.302 988.313 -740.11 1002.06 -755.321 1017.69C-785.813 1048.9 -803.907 1089.13 -808 1131.89C-809.556 1147.91 -809.386 1164.27 -807.108 1180.68C-806.333 1186.16 -805.391 1191.63 -803.98 1197.09L-803.537 1197.06L-803.523 1197.03L-803.552 1197.02Z" fill="#FFE9E0"/>
<path d="M-821.086 1192.58C-833.94 1130.12 -817.721 1066.64 -776.005 1020.9C-765.249 1008.98 -752.691 998.108 -739.007 988.702C-727.758 980.675 -715.171 973.695 -702.568 967.273C-671.946 951.884 -640.949 935.833 -611.767 918.724C-578.036 898.394 -543.336 875.964 -525.521 842.797C-518.915 831.195 -514.898 818.514 -509.961 806.287C-506.596 799.197 -502.073 792.72 -497.154 786.465C-457.346 737.56 -379.389 687.608 -426.619 614.088C-465.562 546.952 -459.84 461.989 -427.475 402.233C-422.111 393.216 -414.135 385.649 -406.35 378.102C-398.464 370.595 -390.306 363.287 -382.183 355.939C-349.873 326.463 -317.028 296.468 -296.509 258.97C-280.271 228.865 -276.311 197.955 -297.06 163.909C-327.961 112.57 -373.481 67.8759 -408.063 18.2114C-448.832 -38.4459 -478.185 -102.405 -450.589 -160.6C-445.14 -172.305 -439.139 -184.615 -432.664 -195.838C-419.8 -218.748 -403.869 -240.435 -381.428 -256.768C-372.513 -263.416 -362.974 -269.619 -354.984 -277.18C-342.841 -288.522 -334.729 -302.702 -328.308 -317.326C-327.284 -319.781 -326.206 -322.202 -325.239 -324.68L-322.406 -332.112C-312.268 -358.82 -321.215 -386.618 -344.428 -411.068C-370.034 -438.633 -403.99 -459.248 -432.924 -483.869C-451.723 -499.85 -470.651 -520.527 -467.493 -542.605L-467.939 -542.699C-471.481 -520.447 -452.602 -499.345 -433.85 -483.073C-405.216 -458.11 -371.659 -437.408 -346.402 -409.845C-320.636 -381.666 -315.308 -355.333 -328.55 -325.999C-335.432 -309.13 -344.018 -292.496 -357.971 -279.585C-370.009 -268.472 -385.213 -260.157 -397.293 -249.02C-421.922 -226.781 -437.664 -198.287 -451.478 -169.66C-496.322 -86.8718 -428.94 2.99571 -366.682 77.9488C-339.69 111.98 -296.317 157.87 -287.908 196.514C-277.629 258.499 -341.952 314.646 -384.07 354.381C-392.116 361.786 -400.215 369.157 -408.052 376.751C-415.792 384.397 -423.747 392.039 -429.197 401.36C-458.085 456.128 -464.848 527.731 -439.662 590.859C-437.036 597.473 -433.675 604.292 -430.264 610.726C-428.314 614.127 -425.569 618.901 -423.719 622.343C-412.018 643.001 -410.895 665.956 -418.966 685.363C-434.976 724.903 -472.926 751.613 -500.074 784.572C-506.879 792.973 -513.005 802.11 -516.424 812.236C-522.475 829.577 -530.309 846.329 -542.45 860.607C-554.458 874.883 -569.9 886.836 -585.843 897.812C-608.592 913.229 -634.197 927.694 -658.893 940.898C-678.701 951.632 -700.054 961.938 -719.846 972.719C-739.837 983.88 -757.644 997.63 -772.856 1013.25C-803.347 1044.46 -821.441 1084.7 -825.534 1127.46C-827.091 1143.47 -826.921 1159.83 -824.643 1176.25C-823.868 1181.72 -822.925 1187.19 -821.515 1192.66L-821.071 1192.63L-821.058 1192.6L-821.086 1192.58Z" fill="#FFE9E0"/>
</g>
</g>
<defs>
<clipPath id="clip0_39_5355">
<rect width="1745.25" height="961.742" fill="white" transform="matrix(0.363491 -0.931598 -0.931598 -0.363491 -206.368 1432.64)"/>
</clipPath>
</defs>
</svg>
