<svg width="15" height="19" viewBox="0 0 15 19" fill="none" xmlns="http://www.w3.org/2000/svg">
<path d="M1.375 7.6825C1.375 11.9278 5.08892 15.4386 6.73279 16.7846C6.96806 16.9772 7.0871 17.0747 7.26262 17.1241C7.39929 17.1626 7.60045 17.1626 7.73712 17.1241C7.91297 17.0746 8.03118 16.9781 8.26733 16.7847C9.91121 15.4387 13.6249 11.9282 13.6249 7.68288C13.6249 6.07628 12.9797 4.53529 11.831 3.39926C10.6823 2.26322 9.12452 1.625 7.50007 1.625C5.87562 1.625 4.31763 2.26332 3.16897 3.39935C2.02031 4.53539 1.375 6.0759 1.375 7.6825Z" stroke="#91298C" stroke-width="2" stroke-linecap="round" stroke-linejoin="round"/>
<path d="M5.75 6.875C5.75 7.8415 6.5335 8.625 7.5 8.625C8.4665 8.625 9.25 7.8415 9.25 6.875C9.25 5.9085 8.4665 5.125 7.5 5.125C6.5335 5.125 5.75 5.9085 5.75 6.875Z" stroke="#91298C" stroke-width="2" stroke-linecap="round" stroke-linejoin="round"/>
</svg>
