<svg width="28" height="41" viewBox="0 0 28 41" fill="none" xmlns="http://www.w3.org/2000/svg">
<g clip-path="url(#clip0_496_5578)">
<path d="M27.6289 14.8949C27.6289 24.0724 18.4451 35.3795 15.1458 39.1414C14.5393 39.8343 13.4467 39.8301 12.8487 39.1287C9.57527 35.2775 0.339844 23.6345 0.339844 14.8949C0.339844 7.44751 6.44804 1.41138 13.9844 1.41138C21.5207 1.41138 27.6289 7.44751 27.6289 14.8949Z" stroke="#91298C" stroke-miterlimit="10"/>
<path d="M27.8448 14.8947C27.7373 17.0031 27.5695 19.1455 26.8899 21.1689C26.5716 22.1848 26.1457 23.154 25.7414 24.136C23.3282 29.4282 19.9257 34.2103 16.1618 38.6312L15.6413 39.2305C14.7595 40.4378 13.2454 40.4548 12.3679 39.2093C9.50732 35.7576 6.86187 32.1232 4.62076 28.2422C2.46999 24.6078 0.813893 20.6588 0.220279 16.459C0.104137 15.5196 -0.00340131 14.2018 0.0955343 13.2667C0.177264 12.221 0.357929 11.0818 0.684847 10.0871C3.24857 1.36443 13.5637 -2.67382 21.3538 2.29961C25.6166 4.99886 27.9997 9.96805 27.8448 14.8905V14.8947ZM27.4147 14.8947C27.2469 10.7799 25.0402 7.052 21.5345 4.87984C14.0885 0.038184 3.39912 3.59185 1.03327 12.2252C0.818195 13.0796 0.684847 13.9893 0.624625 14.865L0.654736 16.4038C0.80529 18.4739 1.59247 20.4378 2.37966 22.3464C4.98209 28.4505 8.98253 33.9 13.2669 38.9585C13.6368 39.3836 14.3638 39.3836 14.7294 38.9542L14.9832 38.6609C15.4779 38.0701 16.0199 37.458 16.493 36.8586C20.3687 31.9829 24.0121 26.7799 26.0769 20.8926C26.7694 18.9585 27.4362 16.9606 27.419 14.8862L27.4147 14.8947Z" fill="#91298C"/>
<path d="M25.3206 17.5898C25.2776 21.067 24.099 24.3954 22.4042 27.4007C20.7653 30.4145 18.7694 33.2115 16.6014 35.8555C16.3476 36.1403 15.6163 37.0457 15.3582 37.322C14.8378 37.9554 13.8527 38.1509 13.13 37.7556C12.7042 37.5643 12.4074 37.0797 12.1192 36.7567C8.90162 32.7694 5.90774 28.5229 3.96344 23.7747C2.716 20.5654 1.96322 16.9607 3.07302 13.5813C4.30327 9.50057 8.20477 6.21046 12.5924 5.56859C13.0526 5.51333 13.5473 5.44956 14.0076 5.44531C14.6958 5.51333 15.4486 5.58134 16.1153 5.75137C21.5525 6.90334 25.5873 12.1531 25.3249 17.5898H25.3206ZM24.7227 17.5898C24.5851 12.7099 20.6104 8.39112 15.7196 7.91078C14.5754 7.80451 13.4139 7.83426 12.274 7.92778C7.06486 8.38261 2.79342 13.4751 3.24939 18.7333C3.43866 20.3784 3.95484 21.9809 4.59147 23.524C6.53577 28.1828 9.52535 32.3656 12.7171 36.2763C12.8978 36.4591 13.2376 36.982 13.4914 37.0755C13.9086 37.2923 14.4549 37.1903 14.756 36.8204L15.1647 36.3359L15.9734 35.3582C19.7458 30.6228 24.456 23.7407 24.7227 17.5941V17.5898Z" fill="#91298C"/>
<path d="M22.7828 20.285C22.5849 25.6453 19.2383 30.2276 16.0294 34.2956C15.5949 34.759 15.1347 35.5709 14.4378 35.7154C13.6506 35.9577 12.8032 35.5794 12.3645 34.9163C11.5386 33.9046 10.7385 32.8674 9.9857 31.7962C7.7747 28.5826 5.57231 25.0842 5.09914 21.1224C4.35927 16.5061 7.68867 11.8429 12.3559 10.9375C13.4355 10.6697 14.5841 10.7505 15.6551 11.014C19.8836 11.9535 23.0151 16.0427 22.7828 20.285ZM22.0429 20.285C21.9182 16.6506 18.9243 13.3945 15.2723 13.0544C14.4163 12.9736 13.5603 13.0204 12.7086 13.0799C8.75975 13.3775 5.5508 17.1309 5.8261 21.0544C5.94654 22.2956 6.32078 23.5156 6.79395 24.6973C8.23927 28.2468 10.5105 31.4731 12.9194 34.4699C13.0828 34.6697 13.2592 34.9078 13.5087 34.997C13.8442 35.1458 14.2614 35.0948 14.5539 34.878C14.7389 34.7462 15.2809 34.0321 15.4444 33.8408C18.3479 30.1214 21.8623 25.0927 22.0343 20.2893L22.0429 20.285Z" fill="#91298C"/>
<path d="M20.2356 22.98C19.9732 26.6654 17.6417 29.8875 15.4522 32.7356C15.1468 33.1607 14.7038 33.5305 14.1661 33.5942C13.4907 33.7175 12.7767 33.3647 12.4067 32.8078L12.196 32.54C11.2195 31.2861 10.3119 29.9726 9.52041 28.5953C8.61708 26.9885 7.78258 25.3137 7.5632 23.4476C7.2836 20.9821 8.49664 18.4189 10.6302 17.0586C15.0049 14.1808 20.4592 18.1808 20.2356 22.98ZM19.3753 22.98C19.3021 20.4763 17.2503 18.4146 14.8242 18.1936C14.0671 18.1553 13.3273 18.1936 12.5788 18.2914C8.86227 19.0268 7.5632 22.5294 8.9397 25.9003C9.70967 27.9577 10.9528 29.862 12.2863 31.6261C12.4153 31.7919 12.7724 32.2595 12.9057 32.4168C13.2498 32.9736 14.0112 33.1607 14.5489 32.7696C14.6866 32.6931 14.8457 32.455 14.9533 32.3403C17.0653 29.6537 19.3494 26.4699 19.3753 22.9842V22.98Z" fill="#91298C"/>
</g>
<defs>
<clipPath id="clip0_496_5578">
<rect width="27.7966" height="40" fill="white" transform="translate(0.0566406 0.140381)"/>
</clipPath>
</defs>
</svg>
