<svg width="427" height="651" viewBox="0 0 427 651" fill="none" xmlns="http://www.w3.org/2000/svg">
<g opacity="0.3">
<mask id="mask0_437_5017" style="mask-type:alpha" maskUnits="userSpaceOnUse" x="0" y="0" width="428" height="651">
<rect width="427.219" height="651" fill="#D9D9D9"/>
</mask>
<g mask="url(#mask0_437_5017)">
<path d="M1442.82 1128.25C1600.85 1009.94 1752 805.159 1586.56 626.606C1552.81 589.82 1512.28 559.854 1469.74 533.964C1406.47 494.467 1334.45 466.333 1259.12 465.416C1053.59 461.04 892.901 624.651 692.855 646.034C535.978 663.058 404.368 560.258 310.283 445.163C222.547 335.617 201.436 208.614 324.411 115.492C461.392 15.8532 666.435 4.93777 830.297 19.8446C1054.17 41.9798 1272.43 121.052 1458.16 248.02C1499.41 276.107 1541.93 302.383 1586.06 325.699C2103.94 600.759 2191.13 92.9492 1796.06 -154.535C1921.41 -77.0637 2031.16 50.1331 2042.97 201.85C2048.52 278.242 2016.93 356.059 1943.66 388.183C1873.86 419.019 1793.87 407.349 1723.02 385.97C1627.33 356.124 1539.49 305.805 1456.78 250.013C1271.18 123.651 1053.48 44.6648 830.012 22.7351C659.154 5.61127 384.897 22.3186 274.167 170.625C209.528 260.778 249.627 364.619 312.604 443.324C406.104 557.74 536.665 660.129 692.575 643.302C892.506 621.742 1053.49 458.537 1259.15 463.354C1334.83 464.38 1407.14 492.706 1470.63 532.474C1513.24 558.514 1553.89 588.593 1587.64 625.593C1753.05 805.132 1601.82 1009.8 1442.82 1128.25Z" fill="#73206F"/>
<path d="M1442.82 1128.25C1541.45 1048.26 1648.78 918.979 1641.51 785.01C1637.81 721.241 1607.39 665.459 1563.7 619.961C1529.23 584.007 1488.43 554.556 1445.49 529.487C1402.72 504.105 1356.83 483.268 1307.91 473.289C1102.27 428.62 930.549 582.168 741.989 632.939C594.784 673.322 473.184 623.33 364.658 522.59C319.157 480.094 276.25 433.094 247.317 377.562C159.492 207.548 285.492 94.0608 442.254 47.191C725.29 -33.8358 1055.39 35.2322 1311.93 170.007C1400.87 215.586 1478.85 279.303 1567.78 324.878C1611.54 347.931 1657.88 368.467 1705.23 382.93C1778.16 404.918 1862.22 416.715 1932.51 380.632C1933.88 379.906 1935.32 379.297 1936.63 378.475L1944.58 373.661C1945.91 372.859 1947.26 372.08 1948.48 371.134L1956.02 365.706C1957.31 364.846 1958.47 363.819 1959.65 362.816L1966.75 356.795C1970.07 353.544 1973.4 350.297 1976.59 346.929L1982.63 339.859L1984.13 338.094L1985.5 336.211L1990.97 328.711C1993.5 324.824 1995.92 320.843 1998.28 316.846L2002.55 308.585L2003.63 306.525C2005.52 301.752 2008.27 296.425 2009.84 291.483L2012.9 282.7C2013.9 278.729 2016.87 269.078 2017.52 264.67C2027.31 218.943 2021.86 171.141 2008.71 126.587C1971.95 6.70334 1881.47 -90.5867 1776.38 -155.976C1881.75 -90.8034 1972.53 6.36948 2009.64 126.312C2022.14 168.051 2027.64 212.527 2020.61 255.75C2019.7 260.104 2018.86 265.143 2017.88 269.527C2017.55 271.053 2017.07 272.538 2016.69 274.048L2014.22 283.085C2012.19 288.639 2010.17 295.449 2007.7 300.655C2006.5 303.351 2005.24 306.698 2003.85 309.211C2000.51 316.14 1996.33 323.218 1992.2 329.546C1990.88 331.49 1988.04 335.212 1986.7 337.152C1985.84 338.616 1979.14 346.308 1977.72 347.999C1973.43 352.376 1969.02 357.143 1964.23 361.026L1960.65 364.063C1959.47 365.081 1958.29 366.119 1957 366.995L1949.39 372.487C1946 374.938 1941 377.641 1937.42 379.925C1869.02 417.412 1785.92 408.073 1713.6 387.505C1674.88 376.463 1636.53 360.889 1600.18 343.665C1543.97 316.624 1490.17 284.471 1438.57 249.537C1192.03 82.5071 887.292 -6.87518 589.362 21.2408C515.297 29.2376 441.296 45.2226 373.543 76.7543C246.221 135.718 179.886 241.702 249.952 376.198C278.706 431.421 321.349 478.188 366.601 520.454C474.38 620.569 594.952 670.384 741.256 630.313C929.892 579.383 1102.42 426.216 1308.27 471.366C1357.39 481.444 1403.47 502.449 1446.34 527.97C1489.35 553.173 1530.27 582.768 1564.77 618.91C1608.54 664.741 1638.95 720.863 1642.53 784.955C1649.49 919.251 1541.9 1048.27 1442.82 1128.25Z" fill="#73206F"/>
<path d="M1442.82 1128.25C1515.82 1063.68 1582.16 980.501 1612.04 886.772C1667.66 709.354 1543.94 587.655 1397.21 512.001C1313.87 468.937 1227.46 455.206 1135.23 473.445C984.299 502.561 857.893 600.747 708.818 635.869C694.06 639.283 677.771 642.139 662.694 643.886C544.098 658.159 442.832 608.546 356.107 531.107C314.474 493.853 275.038 452.542 244.688 405.467C129.459 225.631 246.921 97.7119 425.483 44.898C663.963 -22.752 930.318 17.6291 1158.22 106.603C1250.91 143.388 1339.46 190.541 1421.67 246.962C1465.39 276.673 1510.72 304.078 1557.63 328.466C1563.54 331.337 1576.79 337.985 1582.71 340.875C1587.36 343.117 1603.39 350.313 1608.15 352.549C1627.59 360.839 1648.88 369.561 1669 376.14C1751.1 403.553 1850.78 419.926 1927.68 370.568L1937.11 363.785C1940.74 360.895 1944.24 357.838 1947.75 354.819L1954.34 348.271C1955.43 347.178 1956.55 346.108 1957.53 344.903L1963.56 337.848C1964.62 336.713 1965.46 335.405 1966.38 334.168L1971.85 326.668L1974.28 322.722C1978.28 316.492 1982.31 309.013 1985.28 302.311L1988.94 293.771C1990.55 289.41 1992.04 285.016 1993.54 280.611C1994.62 276.286 1997.41 267.27 1998.09 262.595L1999.04 258.039C2000.25 252.414 2000.63 247.267 2001.5 241.958C2001.82 237.708 2002.33 232.3 2002.65 228.05C2002.81 224.768 2002.87 217.336 2003.01 214.095L2002.95 211.764L2002.81 207.113C1995.64 52.4846 1883.49 -78.4051 1756.8 -157.393C1883.88 -78.6429 1996.44 52.2576 2003.97 207.083L2004.13 211.754L2004.19 214.085C2004.04 217.177 2003.99 225.002 2003.86 228.098C2003.5 232.37 2003.1 237.806 2002.74 242.078C2002.13 246.51 2001.2 253.939 2000.3 258.263C1999.2 262.793 1998.66 267.555 1997.28 271.962L1994.83 280.988C1993 286.774 1990.81 292.952 1988.39 298.563C1987.1 301.265 1986.03 304.581 1984.6 307.116L1980.31 315.438C1978.28 319.116 1975.28 323.839 1973.07 327.484C1970.34 331.088 1967.58 335.369 1964.73 338.796C1962.13 341.865 1958.13 346.743 1955.44 349.347L1948.8 355.979C1945.25 359.039 1941.71 362.134 1938.05 365.066L1930.45 370.558C1855.72 420.565 1758.41 406.425 1677.16 381.051C1670.52 378.813 1661.56 375.795 1655.01 373.551C1652.81 372.78 1635.88 366.256 1633.15 365.281C1624.98 361.867 1615.5 358.007 1607.25 354.493C1602.28 352.15 1587.01 345.303 1581.74 342.833C1525.6 315.873 1471.81 283.839 1420.26 248.982C1174.2 81.869 870.085 -7.72029 572.482 19.538C498.472 27.2722 424.546 43.0331 356.688 74.0473C188.61 151.514 154.911 287.027 268.554 434.341C297.646 472.342 332.41 506.842 368.484 538.221C455.921 612.64 555.044 656.968 671.573 639.99C685.106 638.22 699.473 635.288 712.709 632.249C859.674 595.991 985.278 500.003 1134.76 471.332C1230.56 452.482 1320.82 468.208 1406.23 514.876C1550.42 591.135 1667.79 713.283 1612.74 887.055C1582.54 980.878 1516.03 1063.8 1442.77 1128.3L1442.82 1128.25Z" fill="#73206F"/>
<path d="M1442.82 1128.25C1523.53 1050.81 1600.86 938.433 1609.04 824.252C1610.43 802.633 1609.45 780.721 1605.47 759.426C1600.95 735.181 1592.72 711.232 1581.26 689.381C1532.91 596.125 1426.97 528.436 1331.42 490.38C1090.33 399.798 912.954 577.958 694.733 633.969C547.523 670.781 426.764 615.88 320.406 514.971C258.126 455.591 197.127 385.159 181.762 297.938C172.967 248.276 186.921 195.955 218.484 156.748C296.282 61.0405 437.081 27.3846 554.796 14.8152C803.115 -7.86403 1056 52.6264 1275.53 168.585C1308.47 186.197 1340.68 205.18 1372.01 225.507C1423.63 260.121 1475.48 294.57 1530.76 323.123C1545.93 331.184 1565.27 340.537 1581 347.606C1662.36 383.979 1762.54 415.338 1851.43 393.482C1911.51 378.851 1956.03 337.933 1974.05 278.55C1989.28 227.794 1984.31 173.06 1969.28 122.801C1932.25 3.30284 1842.06 -93.6804 1737.17 -158.902C1842.33 -93.8859 1932.82 2.98416 1970.2 122.527C1985.42 172.934 1990.55 227.938 1975.36 278.951C1957.32 338.929 1912.52 380.262 1851.85 395.143C1762.57 417.252 1661.92 385.981 1580.12 349.539C1564.3 342.446 1544.97 333.142 1529.73 325.065C1474.33 296.544 1422.37 262.146 1370.66 227.573C1339.36 207.334 1307.19 188.429 1274.29 170.909C1055.19 55.3436 802.857 -4.95012 555.106 17.8C438.099 30.3471 298.264 63.8209 220.946 158.646C189.917 197.263 176.106 248.563 184.784 297.444C197.466 371.345 244.877 433.881 295.902 486.709C308.643 499.838 322.565 513.431 336.127 525.443C499.465 671.516 642.592 669.684 833.948 580.638C994.878 506.455 1151.78 419.148 1332.09 488.62C1428.01 526.987 1534.06 594.934 1582.41 688.793C1593.86 710.77 1602.08 734.864 1606.55 759.227C1610.49 780.609 1611.44 802.627 1609.98 824.306C1601.47 938.646 1523.88 1050.87 1442.84 1128.24L1442.82 1128.25Z" fill="#73206F"/>
<path d="M1442.82 1128.25C1531.51 1035.1 1614.16 894.169 1589.45 761.409C1578.4 699.763 1543.57 645.521 1498.35 603.019C1462.24 568.893 1420.17 541.678 1376.35 518.493C1332.64 495.092 1285.55 477.52 1236.45 469.97C1029.74 436.59 862.774 588.443 671.813 634.283C568.051 658.562 475.044 639.901 386.098 581.656C334.17 547.366 287.975 504.537 247.029 457.834C114.539 306.171 128.459 152.97 320.411 66.332C561.375 -36.4823 884.103 9.59816 1121.76 104.805C1202.61 137.147 1280.36 177.231 1353.36 224.714C1415.07 266.418 1477.83 306.952 1545.29 338.82C1624.39 375.761 1716.84 407.805 1805.11 397.061L1809.73 396.521L1814.29 395.69L1823.43 394.048C1826.47 393.458 1829.44 392.577 1832.46 391.869C1839.26 390.366 1845.79 387.926 1852.41 385.805L1854.56 384.929L1863.15 381.394C1903.8 363.581 1934.14 331.186 1950.08 289.782C1960.42 262.281 1964.63 232.551 1963.54 203.243C1957.77 74.7423 1876.45 -39.2129 1778.48 -117.448C1759.01 -132.886 1738.63 -147.166 1717.56 -160.342C1822.64 -95.3962 1913.02 1.36115 1950.48 120.749C1964.82 168.195 1970.32 219.486 1958.33 268.013C1945.47 319.47 1914.29 359.513 1865.98 382.023C1862.92 383.323 1858.28 385.226 1855.18 386.514L1853.01 387.401L1850.79 388.142C1841.95 391.218 1832.95 393.76 1823.81 395.762C1819.95 396.456 1813.53 397.637 1810.01 398.276C1727.53 409.463 1645.11 384.378 1569.89 352.34C1550.41 343.778 1529.79 333.967 1511 324.122C1466.87 301.1 1424.32 275.19 1383.08 247.397C1219.29 134.9 1030.32 59.6499 834.286 27.6786C687.797 4.53249 534.897 2.57164 391.444 43.6344C321.067 64.7963 250.106 97.4571 202.784 155.394C118.329 260.712 181.671 383.626 261.605 469.841C373.095 589.795 502.182 671.853 671.229 631.649C862.48 585.642 1029.39 434.296 1236.79 468.024C1286.08 475.672 1333.4 493.405 1377.22 516.949C1442.83 551.791 1505.75 596.396 1547.89 658.579C1561.83 679.04 1573.37 701.644 1581.19 725.144C1589.21 748.582 1593.65 773.571 1594.65 798.275C1599.46 919.475 1524.29 1043.22 1442.87 1128.26L1442.82 1128.25Z" fill="#73206F"/>
<path d="M1442.82 1128.25C1513.46 1046.65 1573.16 938.264 1578.34 828.706C1580.92 769.116 1565.04 711.215 1531.93 661.556C1488.57 596.782 1423.06 550.555 1354.37 515.618C1266.72 468.495 1163.26 453.146 1066.18 475.81C886.119 513.502 726.881 656.912 538.017 642.837C437.39 634.767 348.56 577.124 277.494 508.624C246.108 478.697 216.255 446.213 191.859 410.302C66.299 225.465 184.994 92.2688 372.603 38.7162C653.634 -38.3648 984.909 31.621 1238.32 166.797C1282.17 190.219 1324.49 216.442 1365.56 244.43C1432.39 289.381 1502.54 330.153 1577.56 359.889C1651.07 388.289 1735.13 409.918 1813.35 390.269C1877.07 374.203 1921.53 329.698 1937.47 265.814C1943.39 241.84 1945.11 216.773 1943.45 192.153C1933.63 67.281 1854.47 -42.5424 1758.77 -118.948C1739.32 -134.366 1718.96 -148.638 1697.91 -161.81C1802.85 -96.9005 1893.24 -0.238541 1930.74 118.997C1945.13 166.36 1950.64 217.651 1938.78 266.15C1925.69 319.517 1891.57 362.049 1840.34 383.043C1823.25 390.282 1804.68 394.892 1786.28 397.28C1727.39 404.957 1667.76 392.826 1611.88 374.481C1570.66 360.875 1530.56 342.975 1492.06 323.025C1447.96 300.042 1405.43 274.186 1364.2 246.432C1180.17 119.982 964.324 40.0917 742.273 16.5209C595.286 2.17467 440.978 8.1501 303.722 66.9626C147.789 135.719 93.496 261.279 194.335 408.618C218.596 444.363 248.286 476.721 279.514 506.508C350.101 574.603 438.277 632.005 538.254 640.064C600.192 645.282 662.084 631.905 720.077 610.783C836.629 568.56 943.539 500.246 1065.73 473.651C1163.22 451.018 1267.32 466.603 1355.18 514.027C1424.07 549.178 1489.72 595.686 1533.04 660.811C1566.14 710.711 1581.97 768.959 1579.21 828.729C1573.78 938.381 1513.77 1046.73 1442.84 1128.24L1442.82 1128.25Z" fill="#73206F"/>
<path d="M1442.82 1128.25C1502.74 1052.12 1550.58 956.681 1561.55 859.664C1569.18 791.043 1555.33 722.6 1517.34 664.495C1473.43 596.392 1404.77 548.423 1332.97 513.096C1266.77 479.367 1192.16 461.461 1117.79 466.133C992.453 473.285 880.97 536.737 768.385 586.087C700.385 615.922 628.618 641.847 553.515 643.24C434.682 646.398 331.616 580.229 249.825 499.548C166.984 419.432 78.1624 294.989 142.093 178.727C186.137 101.59 272.178 61.2001 354.276 36.8702C595.246 -27.8303 855.09 12.6646 1084.42 102.641C1159.35 132.727 1231.6 169.512 1299.85 212.658C1315.63 222.512 1331.05 233.048 1346.53 243.375C1408.23 284.815 1472.67 322.735 1541.26 351.597C1629.84 388.846 1747.53 419.875 1837.16 371.953C1872.75 352.49 1899.48 320.106 1912.56 281.781L1914.85 275.224L1917.93 264.066C1918.37 262.588 1918.65 261.064 1918.96 259.549L1919.9 255.009C1921.35 249.09 1921.93 242.56 1922.86 236.713C1936.56 97.7326 1844.19 -37.4246 1739.09 -120.439C1719.65 -135.852 1699.3 -150.109 1678.26 -163.278C1704.58 -146.917 1729.9 -128.771 1753.65 -108.86C1852.38 -25.8746 1936.95 103.347 1924.13 236.842C1923.67 240.486 1922.68 247.245 1922.12 250.681C1921.61 253.006 1920.75 257.502 1920.26 259.816C1919.53 263.86 1917.21 271.536 1916.16 275.606C1905.36 310.482 1883.98 342.492 1853.74 363.387L1849.95 366.122L1845.97 368.559C1843.29 370.156 1840.67 371.834 1837.95 373.372L1829.61 377.591C1825.7 379.675 1820.87 381.445 1816.76 383.196C1811.84 385.285 1804.18 387.618 1799.08 389.219C1796.47 389.903 1788.28 391.933 1785.5 392.637C1707.02 408.66 1626.5 387.314 1553.34 358.893C1526.03 347.775 1499.13 335.465 1472.99 321.843C1428.91 298.898 1386.39 273.061 1345.16 245.357C1140.88 105.053 897.333 21.3263 649.615 9.59219C490.632 1.76303 232.27 29.7552 144.814 180.206C81.6661 294.95 170.144 418.421 251.89 497.444C333.079 577.573 435.455 643.573 553.492 640.463C628.223 639.116 699.626 613.274 767.354 583.659C880.129 534.393 992.094 470.972 1117.71 464.023C1192.38 459.432 1267.42 477.553 1333.78 511.487C1405.76 547.026 1474.59 595.301 1518.45 663.766C1556.41 722.171 1570.18 790.869 1562.34 859.712C1551.1 956.805 1503.01 1052.16 1442.84 1128.22L1442.82 1128.25Z" fill="#73206F"/>
<path d="M1442.82 1128.25C1518.29 1021.97 1574.3 873.985 1537.12 743.98C1502.8 621.297 1391.15 541.971 1278.22 495.916C1081.84 416.872 923.426 507.442 747.288 586.661C701.762 606.397 655.115 624.348 606.327 634.325C446.504 669.714 316.283 589.634 209.723 477.294C42.4006 303.811 64.6963 131.597 300.044 46.5135C616.319 -58.9591 1023.59 41.9866 1296.32 221.543C1368.08 270.162 1441.73 316.906 1521.99 350.281C1567.49 369.464 1615.32 384.693 1664.29 391.587C1721.73 399.447 1784.85 394.826 1833.37 360.455C1861.23 341.074 1882.02 312.103 1892.98 280.09L1894.51 275.723L1895.26 273.528L1895.86 271.293L1898.32 262.366C1900.51 253.565 1902.05 244.015 1903.23 235.039C1916.77 96.0833 1824.5 -38.9196 1719.41 -121.914C1699.97 -137.328 1679.63 -151.566 1658.6 -164.73C1679.67 -151.618 1700.04 -137.422 1719.53 -122.061C1821.41 -41.4896 1908.48 82.3847 1905.78 216.618C1905.52 227.16 1904.21 238.613 1902.51 249.031C1901.63 253.553 1900.67 258.27 1899.63 262.702C1899.16 264.726 1897.02 272.141 1896.57 273.944C1888 301.365 1873.3 327.125 1852.32 346.968C1850.78 348.642 1843.82 354.534 1841.8 356.211C1839.86 357.828 1836.41 360.244 1834.3 361.782C1829.38 365.567 1823.8 368.569 1818.54 371.79L1810.2 376.01C1808.79 376.677 1807.44 377.471 1805.99 378.061L1801.68 379.84C1798.79 381.005 1795.95 382.282 1793.02 383.339C1787.45 385.123 1780.71 387.605 1775.18 388.828C1691.93 410.308 1598.6 384.402 1521.15 352.207C1452.4 323.449 1387.77 285.576 1325.9 244.19C1081.22 76.8903 778.961 -13.4234 482.27 11.4059C408.476 18.5136 334.748 33.4147 266.579 63.0905C55.7791 157.018 63.3351 321.206 211.814 475.278C346.068 615.546 486.273 681.332 677.139 611.601C882.508 535.992 1049.15 402.617 1278.86 494.227C1392.28 540.676 1503.89 620.349 1538.09 743.702C1574.98 874.005 1518.65 1021.97 1442.77 1128.25L1442.82 1128.25Z" fill="#73206F"/>
<path d="M1442.82 1128.25C1528.31 993.913 1577.54 806.992 1484.59 664.213C1439.15 593.432 1367.55 543.797 1292.07 509.049C1202.72 465.61 1099.21 454.03 1002.65 477.696C812.425 518.957 640.805 678.79 437.425 633.782C339.422 611.532 257.798 546.431 189.62 475.314C123.399 405.667 58.5472 308.431 88.8376 208.666C135.772 67.3755 330.488 19.281 462.939 6.91084C753.919 -17.134 1050.67 69.1128 1292.49 230.542C1408.34 309.508 1574.66 405.081 1718.9 392.103C1728.07 391.267 1737.34 389.676 1746.36 387.937L1759.83 384.554C1761.32 384.136 1762.76 383.611 1764.24 383.144L1773.03 380.25C1777.88 378.484 1781.24 376.842 1785.89 375.024C1787.31 374.425 1788.66 373.662 1790.05 372.99L1798.31 368.831L1806.23 364.058C1807.55 363.237 1808.9 362.507 1810.17 361.624L1813.92 358.93C1836.73 343.099 1854.69 320.706 1866.55 295.699C1870.04 287.993 1873.1 280.028 1875.72 271.975L1876.31 269.739L1878.77 260.812C1880.94 252.037 1882.49 242.442 1883.66 233.482C1896.84 97.4909 1808.73 -34.5375 1707.05 -117.531C1685.46 -135.151 1662.65 -151.402 1639.02 -166.162C1660.08 -153.07 1680.45 -138.874 1699.94 -123.513C1801.81 -42.9602 1888.84 80.8562 1886.2 215.057C1886.26 220.126 1885.29 228.456 1884.93 233.626C1884.38 236.916 1883.55 244.244 1882.95 247.458C1881.89 251.966 1881.24 256.714 1880.09 261.133L1877.65 270.128C1869.81 296.897 1855.95 322.282 1836.17 342.119C1830 348.534 1822.2 355.165 1814.88 360.245C1810.93 363.409 1803.54 367.542 1799.13 370.273C1795.6 372.065 1789.92 374.993 1786.61 376.552L1782.3 378.331C1779.41 379.496 1776.57 380.773 1773.65 381.85L1764.79 384.773C1763.31 385.24 1761.84 385.776 1760.34 386.205C1675.34 409.66 1581.14 383.752 1501.84 350.879C1478.94 341.403 1456.41 330.653 1434.39 319.294C1390.34 296.388 1347.82 270.601 1306.62 242.92C1029.08 52.8142 648.131 -50.1745 317.38 36.5202C146.325 84.4665 15.2745 205.044 123.636 385.713C142.792 417.482 166.298 446.423 191.802 473.323C275.369 561.816 384.886 640.765 511.57 639.255C586.26 638.974 657.927 613.854 725.753 584.608C860.023 525.908 998.466 447.738 1150.34 466.034C1199.81 471.416 1247.96 486.241 1292.87 507.485C1365.8 541.177 1434.92 588.631 1480.6 655.79C1519.6 712.113 1537.78 781.291 1535.64 849.445C1532.36 948.703 1495.86 1045.08 1442.89 1128.28L1442.82 1128.25Z" fill="#73206F"/>
<path d="M1442.82 1128.25C1496.77 1032.35 1530.51 918.751 1518.78 808.151C1512.03 746.697 1488.36 687.016 1449.74 638.557C1403.7 579.876 1339.87 537.749 1272.35 507.431C1182.47 465.141 1078.98 454.722 982.525 478.417C792.473 519.887 620.276 679.191 417.08 632.83C331.734 612.993 258.063 560.064 195.982 500.003C160.265 465.525 126.869 428.115 101.181 385.45C82.0937 353.423 67.2425 318.259 62.8058 280.964C56.1101 231.081 72.8236 179.793 105.611 141.925C186.423 49.2904 325.741 17.2593 443.57 5.42148C725.272 -17.9306 1012.24 62.6287 1249.66 213.784C1256.61 218.353 1266.11 224.467 1272.96 229.157C1329.24 267.448 1387.52 303.326 1449.13 332.419C1539.48 374.431 1655.36 413.076 1753.46 378.738C1756.34 377.668 1759.17 376.422 1762.03 375.264L1766.3 373.508C1767.73 372.894 1769.07 372.145 1770.46 371.474L1778.72 367.315L1786.63 362.523C1787.95 361.701 1789.3 360.972 1790.55 360.084L1794.31 357.391C1822.14 337.967 1842.88 308.983 1853.79 276.973C1859.98 259.673 1863.43 241.019 1864.79 222.703C1871.73 110.437 1811.5 3.55121 1735.35 -75.1123C1700.84 -110.475 1661.26 -141.521 1619.36 -167.649C1640.42 -154.556 1660.79 -140.361 1680.26 -125.004C1780.58 -45.3564 1864.19 72.393 1866.75 204.203C1866.77 247.784 1855.84 291.688 1828.88 326.585C1824.99 331.266 1820.99 336.354 1816.54 340.575C1814.27 342.706 1812.16 345.187 1809.85 347.08L1802.75 353.131C1799.49 355.795 1794.91 358.921 1791.48 361.441C1789.43 362.75 1781.88 367.346 1779.53 368.753C1775.91 370.57 1770.37 373.44 1767.01 375.032C1762.71 376.815 1758.33 378.673 1754.05 380.329L1745.18 383.252C1669.9 406.133 1589.31 388.418 1516.94 363.029C1483.43 350.838 1450.76 336.148 1418.95 320.03C1373.48 296.5 1329.55 270.074 1287.07 241.511C1042.53 74.2026 740.445 -16.1961 443.846 8.41322C326.69 20.2358 188.33 52.1001 107.999 143.917C75.7523 181.23 59.2317 231.494 65.8407 280.603C75.4121 354.844 121.861 418.231 171.853 471.564C255.413 560.023 364.498 639.362 491.13 638.718C565.82 638.925 637.604 614.097 705.495 585.032C818.621 536.528 930.403 473.97 1055.65 464.983C1130.13 459.121 1205.47 474.481 1273.09 505.821C1356.19 542.987 1434.19 599.635 1479.27 680.26C1557.58 820.47 1518.01 995.245 1442.82 1128.25Z" fill="#73206F"/>
<path d="M1442.82 1128.25C1506.92 999.398 1537.55 832.415 1471.62 698.605C1449.9 654.118 1417.87 614.955 1380.07 583.08C1284.89 505.347 1160.51 457.106 1036.67 467.152C911.702 476.507 800.262 538.764 687.209 587.239C618.975 616.425 546.753 641.184 471.659 640.836C344.303 641.139 234.495 561.329 150.364 472.441C124.717 445.404 101.027 416.3 81.7594 384.338C-27.2648 202.546 102.78 79.3846 277.184 30.64C595.853 -54.4016 974.726 43.1235 1245.47 222.424C1314.45 269.502 1386.08 313.733 1463.31 346.001C1508.8 365.166 1556.64 380.363 1605.59 387.238C1663.02 395.079 1726.14 390.409 1774.61 355.991C1797.41 340.159 1815.37 317.767 1827.25 292.764C1830.73 285.058 1833.8 277.093 1836.41 269.039L1837.01 266.804L1839.47 257.877C1841.64 249.087 1843.18 239.522 1844.36 230.546C1857.85 91.6734 1765.56 -43.3832 1660.52 -126.316C1641.09 -141.711 1620.75 -155.963 1599.72 -169.112C1620.78 -156.005 1641.15 -141.824 1660.64 -126.463C1762.51 -45.9106 1849.54 77.9058 1846.9 212.106C1846.99 217.135 1845.96 225.532 1845.63 230.675C1845.13 233.998 1844.21 241.281 1843.65 244.507C1842.77 249.03 1841.82 253.746 1840.79 258.182L1838.35 267.178C1830.5 293.946 1816.65 319.332 1796.87 339.169C1790.7 345.583 1782.9 352.214 1775.56 357.291C1771.61 360.455 1764.22 364.587 1759.82 367.319C1756.25 369.118 1750.62 372.028 1747.3 373.598L1742.98 375.377C1740.09 376.542 1737.25 377.818 1734.34 378.895L1725.47 381.818C1723.99 382.286 1722.53 382.822 1721.03 383.236C1636.03 406.691 1541.83 380.782 1462.53 347.894C1439.64 338.418 1417.1 327.668 1395.09 316.309C1351.03 293.403 1308.51 267.616 1267.32 239.935C1104.02 127.469 915.679 51.8515 720.119 19.4529C562.056 -5.70227 395.544 -7.36552 242.726 44.8317C83.7131 100.406 -14.0199 219.641 84.3404 382.747C103.496 414.516 127.006 443.442 152.521 470.362C236.144 558.772 345.077 638.249 471.694 638.025C546.401 638.416 618.243 613.735 686.191 584.766C799.41 536.401 911.316 474.17 1036.52 465.011C1160.91 455.142 1285.64 503.626 1381.08 581.867C1418.92 613.949 1450.98 653.365 1472.67 698.054C1538.33 832.298 1507.36 999.337 1442.82 1128.25Z" fill="#73206F"/>
<path d="M1442.82 1128.25C1482.1 1037.69 1502.67 937.307 1494.52 838.556C1481.62 678.787 1380.09 565.334 1235.5 505.188C1167.52 475.496 1092.35 460.994 1018.25 467.172C867.563 478.275 738.841 565.489 598.997 613.615C578.433 620.608 557.419 626.6 536.172 631.144C400.555 661.542 286.198 612.725 185.103 523.301C148.277 490.465 112.534 454.561 83.3472 414.66C21.247 331.218 -7.47684 226.839 65.6142 139.928C114.288 82.3703 185.856 50.247 256.855 29.3823C497.802 -35.0474 757.515 5.51021 986.73 95.5532C1061.62 125.661 1133.84 162.454 1202.05 205.606C1217.84 215.461 1233.23 226.008 1248.7 236.315C1300.09 270.917 1353.46 302.742 1409.44 329.332C1508.13 375.811 1651.53 421.75 1751.07 357.379L1758.59 351.992C1759.83 351.07 1761.13 350.244 1762.27 349.198L1769.33 343.215C1769.91 342.702 1770.52 342.231 1771.07 341.694L1772.7 340.061L1775.98 336.797C1779.97 332.927 1784.68 327.424 1788.26 322.989C1801.05 306.513 1810.45 287.628 1816.77 267.786C1818.32 261.976 1820.82 253.581 1821.79 247.582C1823.24 241.758 1823.82 235.068 1824.74 229.301C1838.33 90.3379 1746.03 -44.7036 1640.94 -127.698C1621.5 -143.112 1601.16 -157.365 1580.13 -170.514C1622.13 -144.476 1661.84 -113.509 1696.45 -78.2011C1777.39 4.45218 1843.02 124.685 1824.04 243.277C1818.88 272.345 1807.64 300.502 1789.49 323.939C1786.55 327.551 1783.52 331.124 1780.43 334.616C1778.82 336.319 1775.45 339.542 1773.83 341.226L1772.18 342.871C1771.62 343.423 1771.01 343.893 1770.43 344.407C1767.36 347.024 1762.67 351.18 1759.59 353.289L1755.81 356.024C1750.89 359.809 1745.31 362.811 1740.05 366.033C1736.4 367.857 1730.92 370.743 1727.52 372.292C1723.22 374.075 1718.83 375.963 1714.55 377.57C1710.65 378.841 1704.83 380.834 1701.22 381.907C1698.59 382.553 1690.43 384.655 1687.64 385.341C1607.66 401.632 1525.54 379.498 1451.25 349.973C1425.37 339.438 1399.98 327.612 1375.2 314.761C1331.13 291.835 1288.61 266.034 1247.41 238.333C1043.22 98.0229 799.806 14.2339 552.171 2.37508C394.111 -5.7935 134.149 22.7482 47.1449 172.244C-16.6995 286.785 71.4596 410.35 153.096 489.539C177.186 513.192 203.264 536.122 230.339 556.189C325.922 626.825 427.885 654.765 544.723 626.523C635.495 604.909 718.081 560.236 803.595 524.253C894.278 485.124 992.848 455.606 1092.65 465.721C1141.99 470.253 1190.85 483.883 1236.27 503.6C1381.3 564.159 1482.79 678.269 1495.35 838.517C1503.24 937.428 1482.42 1037.73 1442.89 1128.28L1442.82 1128.25Z" fill="#73206F"/>
</g>
</g>
</svg>
