<svg width="405" height="651" viewBox="0 0 405 651" fill="none" xmlns="http://www.w3.org/2000/svg">
<path d="M1420.82 1128.25C1578.85 1009.94 1730 805.159 1564.56 626.606C1530.81 589.82 1490.28 559.854 1447.74 533.964C1384.47 494.467 1312.45 466.333 1237.12 465.416C1031.59 461.04 870.902 624.651 670.856 646.034C513.979 663.058 382.369 560.258 288.284 445.163C200.547 335.617 179.436 208.614 302.412 115.492C439.392 15.8532 644.436 4.93777 808.298 19.8446C1032.17 41.9798 1250.43 121.052 1436.16 248.02C1477.41 276.107 1519.93 302.383 1564.06 325.699C2081.94 600.759 2169.13 92.9492 1774.06 -154.535C1899.41 -77.0637 2009.16 50.1331 2020.97 201.85C2026.52 278.242 1994.93 356.059 1921.66 388.183C1851.86 419.019 1771.87 407.349 1701.02 385.97C1605.33 356.124 1517.49 305.805 1434.78 250.013C1249.18 123.651 1031.48 44.6648 808.013 22.7351C637.155 5.61127 362.898 22.3186 252.168 170.625C187.529 260.778 227.627 364.619 290.605 443.324C384.105 557.74 514.666 660.129 670.576 643.302C870.507 621.742 1031.49 458.537 1237.15 463.354C1312.83 464.38 1385.14 492.706 1448.63 532.474C1491.24 558.514 1531.89 588.593 1565.64 625.593C1731.05 805.132 1579.82 1009.8 1420.82 1128.25Z" fill="#91298C"/>
<path d="M1420.82 1128.25C1519.45 1048.26 1626.78 918.979 1619.52 785.01C1615.81 721.241 1585.39 665.459 1541.7 619.961C1507.23 584.007 1466.43 554.556 1423.49 529.487C1380.72 504.105 1334.83 483.268 1285.91 473.289C1080.27 428.62 908.55 582.168 719.99 632.939C572.785 673.322 451.184 623.33 342.659 522.59C297.158 480.094 254.251 433.094 225.318 377.562C137.493 207.548 263.493 94.0608 420.254 47.191C703.29 -33.8358 1033.39 35.2322 1289.93 170.007C1378.87 215.586 1456.85 279.303 1545.78 324.878C1589.54 347.931 1635.88 368.467 1683.23 382.93C1756.16 404.918 1840.22 416.715 1910.51 380.632C1911.88 379.906 1913.32 379.297 1914.63 378.475L1922.58 373.661C1923.91 372.859 1925.26 372.08 1926.48 371.134L1934.02 365.706C1935.31 364.846 1936.47 363.819 1937.65 362.816L1944.75 356.795C1948.07 353.544 1951.4 350.297 1954.59 346.929L1960.63 339.859L1962.13 338.094L1963.5 336.211L1968.97 328.711C1971.5 324.824 1973.92 320.843 1976.28 316.846L1980.55 308.585L1981.63 306.525C1983.53 301.752 1986.27 296.425 1987.84 291.483L1990.9 282.7C1991.9 278.729 1994.88 269.078 1995.52 264.67C2005.31 218.943 1999.86 171.141 1986.71 126.587C1949.95 6.70334 1859.47 -90.5867 1754.38 -155.976C1859.76 -90.8034 1950.53 6.36948 1987.64 126.312C2000.14 168.051 2005.64 212.527 1998.61 255.75C1997.7 260.104 1996.86 265.143 1995.88 269.527C1995.55 271.053 1995.07 272.538 1994.69 274.048L1992.22 283.085C1990.19 288.639 1988.17 295.449 1985.7 300.655C1984.5 303.351 1983.24 306.698 1981.85 309.211C1978.51 316.14 1974.33 323.218 1970.2 329.546C1968.88 331.49 1966.04 335.212 1964.7 337.152C1963.84 338.616 1957.14 346.308 1955.72 347.999C1951.43 352.376 1947.02 357.143 1942.23 361.026L1938.65 364.063C1937.47 365.081 1936.29 366.119 1935 366.995L1927.39 372.487C1924 374.938 1919 377.641 1915.42 379.925C1847.02 417.412 1763.92 408.073 1691.6 387.505C1652.88 376.463 1614.53 360.889 1578.18 343.665C1521.97 316.624 1468.17 284.471 1416.58 249.537C1170.04 82.5071 865.293 -6.87518 567.362 21.2408C493.298 29.2376 419.296 45.2226 351.544 76.7543C224.221 135.718 157.887 241.702 227.953 376.198C256.707 431.421 299.35 478.188 344.602 520.454C452.381 620.569 572.952 670.384 719.257 630.313C907.893 579.383 1080.42 426.216 1286.28 471.366C1335.39 481.444 1381.47 502.449 1424.34 527.97C1467.36 553.173 1508.27 582.768 1542.77 618.91C1586.54 664.741 1616.95 720.863 1620.53 784.955C1627.49 919.251 1519.9 1048.27 1420.82 1128.25Z" fill="#91298C"/>
<path d="M1420.82 1128.25C1493.82 1063.68 1560.16 980.501 1590.04 886.772C1645.66 709.354 1521.94 587.655 1375.21 512.001C1291.87 468.937 1205.46 455.206 1113.23 473.445C962.299 502.561 835.894 600.747 686.818 635.869C672.061 639.283 655.772 642.139 640.694 643.886C522.099 658.159 420.833 608.546 334.108 531.107C292.475 493.853 253.039 452.542 222.689 405.467C107.46 225.631 224.921 97.7119 403.484 44.898C641.963 -22.752 908.318 17.6291 1136.22 106.603C1228.91 143.388 1317.46 190.541 1399.67 246.962C1443.39 276.673 1488.72 304.078 1535.63 328.466C1541.54 331.337 1554.79 337.985 1560.71 340.875C1565.36 343.117 1581.39 350.313 1586.15 352.549C1605.59 360.839 1626.89 369.561 1647 376.14C1729.1 403.553 1828.78 419.926 1905.68 370.568L1915.11 363.785C1918.74 360.895 1922.24 357.838 1925.75 354.819L1932.34 348.271C1933.43 347.178 1934.55 346.108 1935.53 344.903L1941.57 337.848C1942.62 336.713 1943.46 335.405 1944.38 334.168L1949.85 326.668L1952.28 322.722C1956.28 316.492 1960.31 309.013 1963.28 302.311L1966.94 293.771C1968.55 289.41 1970.04 285.016 1971.54 280.611C1972.62 276.286 1975.41 267.27 1976.09 262.595L1977.04 258.039C1978.25 252.414 1978.63 247.267 1979.5 241.958C1979.82 237.708 1980.33 232.3 1980.65 228.05C1980.81 224.768 1980.88 217.336 1981.01 214.095L1980.95 211.764L1980.81 207.113C1973.64 52.4846 1861.49 -78.4051 1734.8 -157.393C1861.88 -78.6429 1974.44 52.2576 1981.97 207.083L1982.13 211.754L1982.19 214.085C1982.04 217.177 1981.99 225.002 1981.86 228.098C1981.5 232.37 1981.1 237.806 1980.74 242.078C1980.13 246.51 1979.2 253.939 1978.3 258.263C1977.2 262.793 1976.66 267.555 1975.28 271.962L1972.83 280.988C1971 286.774 1968.81 292.952 1966.39 298.563C1965.1 301.265 1964.03 304.581 1962.6 307.116L1958.31 315.438C1956.28 319.116 1953.28 323.839 1951.07 327.484C1948.34 331.088 1945.58 335.369 1942.73 338.796C1940.13 341.865 1936.13 346.743 1933.44 349.347L1926.8 355.979C1923.25 359.039 1919.71 362.134 1916.06 365.066L1908.45 370.558C1833.72 420.565 1736.42 406.425 1655.16 381.051C1648.52 378.813 1639.56 375.795 1633.02 373.551C1630.81 372.78 1613.88 366.256 1611.15 365.281C1602.98 361.867 1593.5 358.007 1585.25 354.493C1580.28 352.15 1565.01 345.303 1559.74 342.833C1503.6 315.873 1449.81 283.839 1398.26 248.982C1152.2 81.869 848.086 -7.72029 550.483 19.538C476.472 27.2722 402.547 43.0331 334.688 74.0473C166.611 151.514 132.912 287.027 246.555 434.341C275.647 472.342 310.411 506.842 346.485 538.221C433.921 612.64 533.044 656.968 649.574 639.99C663.107 638.22 677.474 635.288 690.71 632.249C837.674 595.991 963.279 500.003 1112.76 471.332C1208.56 452.482 1298.83 468.208 1384.23 514.876C1528.42 591.135 1645.79 713.283 1590.74 887.055C1560.54 980.878 1494.03 1063.8 1420.77 1128.3L1420.82 1128.25Z" fill="#91298C"/>
<path d="M1420.82 1128.25C1501.53 1050.81 1578.86 938.433 1587.05 824.252C1588.43 802.633 1587.45 780.721 1583.47 759.426C1578.95 735.181 1570.72 711.232 1559.26 689.381C1510.91 596.125 1404.97 528.436 1309.42 490.38C1068.34 399.798 890.955 577.958 672.734 633.969C525.523 670.781 404.765 615.88 298.406 514.971C236.127 455.591 175.128 385.159 159.763 297.938C150.968 248.276 164.921 195.955 196.484 156.748C274.283 61.0405 415.082 27.3846 532.797 14.8152C781.116 -7.86403 1034 52.6264 1253.53 168.585C1286.47 186.197 1318.68 205.18 1350.01 225.507C1401.63 260.121 1453.48 294.57 1508.76 323.123C1523.93 331.184 1543.27 340.537 1559 347.606C1640.36 383.979 1740.54 415.338 1829.43 393.482C1889.51 378.851 1934.03 337.933 1952.05 278.55C1967.28 227.794 1962.31 173.06 1947.28 122.801C1910.25 3.30284 1820.06 -93.6804 1715.17 -158.902C1820.33 -93.8859 1910.82 2.98416 1948.2 122.527C1963.42 172.934 1968.55 227.938 1953.36 278.951C1935.32 338.929 1890.52 380.262 1829.85 395.143C1740.57 417.252 1639.92 385.981 1558.12 349.539C1542.3 342.446 1522.97 333.142 1507.73 325.065C1452.33 296.544 1400.37 262.146 1348.66 227.573C1317.36 207.334 1285.19 188.429 1252.29 170.909C1033.19 55.3436 780.858 -4.95012 533.107 17.8C416.1 30.3471 276.264 63.8209 198.947 158.646C167.917 197.263 154.106 248.563 162.784 297.444C175.467 371.345 222.878 433.881 273.903 486.709C286.644 499.838 300.566 513.431 314.128 525.443C477.466 671.516 620.592 669.684 811.949 580.638C972.878 506.455 1129.78 419.148 1310.09 488.62C1406.01 526.987 1512.06 594.934 1560.41 688.793C1571.86 710.77 1580.08 734.864 1584.55 759.227C1588.49 780.609 1589.44 802.627 1587.98 824.306C1579.47 938.646 1501.89 1050.87 1420.84 1128.24L1420.82 1128.25Z" fill="#91298C"/>
<path d="M1420.82 1128.25C1509.51 1035.1 1592.16 894.169 1567.45 761.409C1556.4 699.763 1521.57 645.521 1476.35 603.019C1440.24 568.893 1398.17 541.678 1354.35 518.493C1310.64 495.092 1263.55 477.52 1214.45 469.97C1007.74 436.59 840.774 588.443 649.813 634.283C546.052 658.562 453.045 639.901 364.099 581.656C312.171 547.366 265.976 504.537 225.03 457.834C92.5397 306.171 106.46 152.97 298.411 66.332C539.375 -36.4823 862.103 9.59816 1099.76 104.805C1180.61 137.147 1258.36 177.231 1331.36 224.714C1393.07 266.418 1455.83 306.952 1523.29 338.82C1602.39 375.761 1694.84 407.805 1783.11 397.061L1787.73 396.521L1792.29 395.69L1801.44 394.048C1804.47 393.458 1807.44 392.577 1810.46 391.869C1817.26 390.366 1823.79 387.926 1830.41 385.805L1832.56 384.929L1841.15 381.394C1881.8 363.581 1912.14 331.186 1928.08 289.782C1938.42 262.281 1942.63 232.551 1941.54 203.243C1935.77 74.7423 1854.45 -39.2129 1756.48 -117.448C1737.01 -132.886 1716.63 -147.166 1695.56 -160.342C1800.64 -95.3962 1891.02 1.36115 1928.48 120.749C1942.82 168.195 1948.32 219.486 1936.33 268.013C1923.47 319.47 1892.29 359.513 1843.98 382.023C1840.92 383.323 1836.28 385.226 1833.18 386.514L1831.02 387.401L1828.79 388.142C1819.95 391.218 1810.95 393.76 1801.81 395.762C1797.95 396.456 1791.53 397.637 1788.01 398.276C1705.53 409.463 1623.11 384.378 1547.89 352.34C1528.41 343.778 1507.79 333.967 1489 324.122C1444.87 301.1 1402.32 275.19 1361.08 247.397C1197.3 134.9 1008.32 59.6499 812.287 27.6786C665.798 4.53249 512.898 2.57164 369.445 43.6344C299.068 64.7963 228.107 97.4571 180.785 155.394C96.3299 260.712 159.672 383.626 239.605 469.841C351.095 589.795 480.183 671.853 649.229 631.649C840.48 585.642 1007.39 434.296 1214.79 468.024C1264.08 475.672 1311.4 493.405 1355.22 516.949C1420.83 551.791 1483.75 596.396 1525.89 658.579C1539.83 679.04 1551.37 701.644 1559.19 725.144C1567.21 748.582 1571.65 773.571 1572.65 798.275C1577.46 919.475 1502.29 1043.22 1420.87 1128.26L1420.82 1128.25Z" fill="#91298C"/>
<path d="M1420.82 1128.25C1491.46 1046.65 1551.16 938.264 1556.34 828.706C1558.92 769.116 1543.04 711.215 1509.93 661.556C1466.57 596.782 1401.07 550.555 1332.37 515.618C1244.72 468.495 1141.26 453.146 1044.18 475.81C864.12 513.502 704.882 656.912 516.018 642.837C415.391 634.767 326.561 577.124 255.495 508.624C224.108 478.697 194.256 446.213 169.86 410.302C44.2997 225.465 162.995 92.2688 350.603 38.7162C631.635 -38.3648 962.91 31.621 1216.32 166.797C1260.17 190.219 1302.49 216.442 1343.56 244.43C1410.39 289.381 1480.54 330.153 1555.56 359.889C1629.07 388.289 1713.13 409.918 1791.35 390.269C1855.07 374.203 1899.53 329.698 1915.47 265.814C1921.39 241.84 1923.11 216.773 1921.45 192.153C1911.63 67.281 1832.48 -42.5424 1736.77 -118.948C1717.32 -134.366 1696.97 -148.638 1675.91 -161.81C1780.85 -96.9005 1871.24 -0.238541 1908.74 118.997C1923.13 166.36 1928.64 217.651 1916.78 266.15C1903.69 319.517 1869.57 362.049 1818.34 383.043C1801.25 390.282 1782.68 394.892 1764.28 397.28C1705.39 404.957 1645.76 392.826 1589.88 374.481C1548.66 360.875 1508.56 342.975 1470.06 323.025C1425.96 300.042 1383.43 274.186 1342.2 246.432C1158.17 119.982 942.325 40.0917 720.273 16.5209C573.287 2.17467 418.979 8.1501 281.723 66.9626C125.79 135.719 71.4967 261.279 172.335 408.618C196.596 444.363 226.286 476.721 257.514 506.508C328.102 574.603 416.278 632.005 516.255 640.064C578.193 645.282 640.085 631.905 698.078 610.783C814.63 568.56 921.539 500.246 1043.73 473.651C1141.22 451.018 1245.32 466.603 1333.18 514.027C1402.07 549.178 1467.72 595.686 1511.04 660.811C1544.14 710.711 1559.97 768.959 1557.21 828.729C1551.78 938.381 1491.77 1046.73 1420.84 1128.24L1420.82 1128.25Z" fill="#91298C"/>
<path d="M1420.82 1128.25C1480.74 1052.12 1528.58 956.681 1539.56 859.664C1547.18 791.043 1533.33 722.6 1495.35 664.495C1451.43 596.392 1382.77 548.423 1310.97 513.096C1244.78 479.367 1170.16 461.461 1095.79 466.133C970.454 473.285 858.971 536.737 746.386 586.087C678.386 615.922 606.618 641.847 531.516 643.24C412.682 646.398 309.617 580.229 227.826 499.548C144.985 419.432 56.1632 294.989 120.093 178.727C164.138 101.59 250.179 61.2001 332.277 36.8702C573.247 -27.8303 833.091 12.6646 1062.42 102.641C1137.35 132.727 1209.6 169.512 1277.85 212.658C1293.64 222.512 1309.05 233.048 1324.53 243.375C1386.23 284.815 1450.67 322.735 1519.26 351.597C1607.84 388.846 1725.53 419.875 1815.16 371.953C1850.75 352.49 1877.48 320.106 1890.56 281.781L1892.85 275.224L1895.93 264.066C1896.37 262.588 1896.65 261.064 1896.96 259.549L1897.9 255.009C1899.35 249.09 1899.93 242.56 1900.86 236.713C1914.56 97.7326 1822.19 -37.4246 1717.09 -120.439C1697.65 -135.852 1677.3 -150.109 1656.26 -163.278C1682.58 -146.917 1707.9 -128.771 1731.65 -108.86C1830.38 -25.8746 1914.95 103.347 1902.13 236.842C1901.67 240.486 1900.68 247.245 1900.12 250.681C1899.61 253.006 1898.75 257.502 1898.26 259.816C1897.53 263.86 1895.21 271.536 1894.16 275.606C1883.36 310.482 1861.98 342.492 1831.74 363.387L1827.95 366.122L1823.97 368.559C1821.29 370.156 1818.67 371.834 1815.95 373.372L1807.61 377.591C1803.7 379.675 1798.87 381.445 1794.76 383.196C1789.84 385.285 1782.18 387.618 1777.08 389.219C1774.47 389.903 1766.29 391.933 1763.5 392.637C1685.02 408.66 1604.5 387.314 1531.35 358.893C1504.03 347.775 1477.13 335.465 1450.99 321.843C1406.91 298.898 1364.39 273.061 1323.17 245.357C1118.88 105.053 875.333 21.3263 627.616 9.59219C468.632 1.76303 210.271 29.7552 122.815 180.206C59.6668 294.95 148.145 418.421 229.891 497.444C311.08 577.573 413.456 643.573 531.492 640.463C606.224 639.116 677.626 613.274 745.355 583.659C858.13 534.393 970.094 470.972 1095.71 464.023C1170.38 459.432 1245.42 477.553 1311.78 511.487C1383.76 547.026 1452.59 595.301 1496.45 663.766C1534.41 722.171 1548.18 790.869 1540.34 859.712C1529.1 956.805 1481.01 1052.16 1420.84 1128.22L1420.82 1128.25Z" fill="#91298C"/>
<path d="M1420.82 1128.25C1496.29 1021.97 1552.3 873.985 1515.12 743.98C1480.8 621.297 1369.15 541.971 1256.22 495.916C1059.84 416.872 901.427 507.442 725.289 586.661C679.763 606.397 633.116 624.348 584.328 634.325C424.505 669.714 294.283 589.634 187.723 477.294C20.4013 303.811 42.697 131.597 278.045 46.5135C594.32 -58.9591 1001.59 41.9866 1274.32 221.543C1346.08 270.162 1419.73 316.906 1499.99 350.281C1545.49 369.464 1593.32 384.693 1642.29 391.587C1699.73 399.447 1762.85 394.826 1811.37 360.455C1839.23 341.074 1860.02 312.103 1870.98 280.09L1872.51 275.723L1873.26 273.528L1873.86 271.293L1876.32 262.366C1878.52 253.565 1880.05 244.015 1881.23 235.039C1894.77 96.0833 1802.5 -38.9196 1697.41 -121.914C1677.97 -137.328 1657.63 -151.566 1636.6 -164.73C1657.67 -151.618 1678.04 -137.422 1697.53 -122.061C1799.42 -41.4896 1886.48 82.3847 1883.78 216.618C1883.52 227.16 1882.21 238.613 1880.51 249.031C1879.63 253.553 1878.67 258.27 1877.63 262.702C1877.16 264.726 1875.02 272.141 1874.57 273.944C1866 301.365 1851.3 327.125 1830.32 346.968C1828.78 348.642 1821.82 354.534 1819.8 356.211C1817.87 357.828 1814.41 360.244 1812.3 361.782C1807.39 365.567 1801.8 368.569 1796.54 371.79L1788.2 376.01C1786.8 376.677 1785.44 377.471 1783.99 378.061L1779.68 379.84C1776.79 381.005 1773.95 382.282 1771.02 383.339C1765.45 385.123 1758.71 387.605 1753.18 388.828C1669.93 410.308 1576.6 384.402 1499.15 352.207C1430.4 323.449 1365.77 285.576 1303.91 244.19C1059.22 76.8903 756.961 -13.4234 460.27 11.4059C386.477 18.5136 312.749 33.4147 244.58 63.0905C33.7799 157.018 41.3358 321.206 189.814 475.278C324.068 615.546 464.274 681.332 655.14 611.601C860.509 535.992 1027.15 402.617 1256.86 494.227C1370.28 540.676 1481.89 620.349 1516.09 743.702C1552.98 874.005 1496.65 1021.97 1420.77 1128.25L1420.82 1128.25Z" fill="#91298C"/>
<path d="M1420.82 1128.25C1506.31 993.913 1555.55 806.992 1462.59 664.213C1417.15 593.432 1345.55 543.797 1270.07 509.049C1180.72 465.61 1077.21 454.03 980.65 477.696C790.426 518.957 618.805 678.79 415.426 633.782C317.423 611.532 235.799 546.431 167.621 475.314C101.4 405.667 36.5479 308.431 66.8383 208.666C113.773 67.3755 308.489 19.281 440.939 6.91084C731.919 -17.134 1028.67 69.1128 1270.49 230.542C1386.34 309.508 1552.66 405.081 1696.9 392.103C1706.07 391.267 1715.34 389.676 1724.36 387.937L1737.84 384.554C1739.32 384.136 1740.77 383.611 1742.25 383.144L1751.04 380.25C1755.88 378.484 1759.25 376.842 1763.9 375.024C1765.31 374.425 1766.66 373.662 1768.05 372.99L1776.31 368.831L1784.23 364.058C1785.55 363.237 1786.9 362.507 1788.17 361.624L1791.93 358.93C1814.73 343.099 1832.69 320.706 1844.55 295.699C1848.04 287.993 1851.1 280.028 1853.72 271.975L1854.32 269.739L1856.77 260.812C1858.94 252.037 1860.49 242.442 1861.66 233.482C1874.84 97.4909 1786.73 -34.5375 1685.06 -117.531C1663.46 -135.151 1640.65 -151.402 1617.02 -166.162C1638.08 -153.07 1658.45 -138.874 1677.94 -123.513C1779.81 -42.9602 1866.84 80.8562 1864.2 215.057C1864.26 220.126 1863.29 228.456 1862.93 233.626C1862.38 236.916 1861.55 244.244 1860.96 247.458C1859.89 251.966 1859.24 256.714 1858.09 261.133L1855.65 270.128C1847.81 296.897 1833.95 322.282 1814.17 342.119C1808 348.534 1800.2 355.165 1792.88 360.245C1788.93 363.409 1781.54 367.542 1777.13 370.273C1773.6 372.065 1767.92 374.993 1764.61 376.552L1760.3 378.331C1757.41 379.496 1754.57 380.773 1751.65 381.85L1742.79 384.773C1741.31 385.24 1739.84 385.776 1738.34 386.205C1653.34 409.66 1559.14 383.752 1479.84 350.879C1456.94 341.403 1434.41 330.653 1412.4 319.294C1368.34 296.388 1325.82 270.601 1284.63 242.92C1007.08 52.8142 626.132 -50.1745 295.381 36.5202C124.325 84.4665 -6.72481 205.044 101.637 385.713C120.793 417.482 144.298 446.423 169.803 473.323C253.37 561.816 362.886 640.765 489.57 639.255C564.261 638.974 635.927 613.854 703.753 584.608C838.024 525.908 976.467 447.738 1128.34 466.034C1177.81 471.416 1225.96 486.241 1270.87 507.485C1343.8 541.177 1412.92 588.631 1458.6 655.79C1497.6 712.113 1515.78 781.291 1513.65 849.445C1510.36 948.703 1473.86 1045.08 1420.89 1128.28L1420.82 1128.25Z" fill="#91298C"/>
<path d="M1420.82 1128.25C1474.77 1032.35 1508.51 918.751 1496.78 808.151C1490.03 746.697 1466.36 687.016 1427.75 638.557C1381.7 579.876 1317.87 537.749 1250.35 507.431C1160.47 465.141 1056.98 454.722 960.526 478.417C770.474 519.887 598.277 679.191 395.081 632.83C309.735 612.993 236.063 560.064 173.983 500.003C138.266 465.525 104.869 428.115 79.1813 385.45C60.0945 353.423 45.2432 318.259 40.8066 280.964C34.1108 231.081 50.8243 179.793 83.612 141.925C164.423 49.2904 303.742 17.2593 421.571 5.42148C703.273 -17.9306 990.236 62.6287 1227.66 213.784C1234.61 218.353 1244.11 224.467 1250.96 229.157C1307.24 267.448 1365.52 303.326 1427.13 332.419C1517.49 374.431 1633.36 413.076 1731.46 378.738C1734.34 377.668 1737.17 376.422 1740.03 375.264L1744.31 373.508C1745.73 372.894 1747.07 372.145 1748.46 371.474L1756.72 367.315L1764.63 362.523C1765.95 361.701 1767.3 360.972 1768.55 360.084L1772.31 357.391C1800.14 337.967 1820.88 308.983 1831.79 276.973C1837.98 259.673 1841.43 241.019 1842.79 222.703C1849.73 110.437 1789.5 3.55121 1713.36 -75.1123C1678.84 -110.475 1639.26 -141.521 1597.36 -167.649C1618.42 -154.556 1638.79 -140.361 1658.26 -125.004C1758.58 -45.3564 1842.19 72.393 1844.75 204.203C1844.77 247.784 1833.84 291.688 1806.88 326.585C1802.99 331.266 1798.99 336.354 1794.54 340.575C1792.27 342.706 1790.16 345.187 1787.85 347.08L1780.75 353.131C1777.49 355.795 1772.91 358.921 1769.48 361.441C1767.43 362.75 1759.88 367.346 1757.53 368.753C1753.91 370.57 1748.37 373.44 1745.01 375.032C1740.71 376.815 1736.33 378.673 1732.05 380.329L1723.18 383.252C1647.91 406.133 1567.31 388.418 1494.95 363.029C1461.43 350.838 1428.76 336.148 1396.95 320.03C1351.48 296.5 1307.55 270.074 1265.07 241.511C1020.53 74.2026 718.446 -16.1961 421.846 8.41322C304.691 20.2358 166.331 52.1001 86 143.917C53.7531 181.23 37.2324 231.494 43.8415 280.603C53.4128 354.844 99.8617 418.231 149.854 471.564C233.414 560.023 342.499 639.362 469.13 638.718C543.821 638.925 615.605 614.097 683.496 585.032C796.622 536.528 908.404 473.97 1033.65 464.983C1108.14 459.121 1183.47 474.481 1251.09 505.821C1334.19 542.987 1412.19 599.635 1457.27 680.26C1535.58 820.47 1496.01 995.245 1420.82 1128.25Z" fill="#91298C"/>
<path d="M1420.82 1128.25C1484.92 999.398 1515.55 832.415 1449.62 698.605C1427.9 654.118 1395.87 614.955 1358.07 583.08C1262.89 505.347 1138.52 457.106 1014.67 467.152C889.703 476.507 778.262 538.764 665.21 587.239C596.976 616.425 524.753 641.184 449.66 640.836C322.304 641.139 212.496 561.329 128.365 472.441C102.718 445.404 79.0277 416.3 59.7601 384.338C-49.2641 202.546 80.781 79.3846 255.185 30.64C573.853 -54.4016 952.727 43.1235 1223.47 222.424C1292.45 269.502 1364.08 313.733 1441.31 346.001C1486.8 365.166 1534.64 380.363 1583.59 387.238C1641.02 395.079 1704.14 390.409 1752.61 355.991C1775.41 340.159 1793.37 317.767 1805.25 292.764C1808.73 285.058 1811.8 277.093 1814.41 269.039L1815.01 266.804L1817.47 257.877C1819.64 249.087 1821.18 239.522 1822.36 230.546C1835.85 91.6734 1743.56 -43.3832 1638.52 -126.316C1619.09 -141.711 1598.75 -155.963 1577.72 -169.112C1598.78 -156.005 1619.15 -141.824 1638.64 -126.463C1740.51 -45.9106 1827.54 77.9058 1824.9 212.106C1824.99 217.135 1823.96 225.532 1823.63 230.675C1823.13 233.998 1822.21 241.281 1821.65 244.507C1820.77 249.03 1819.82 253.746 1818.79 258.182L1816.35 267.178C1808.51 293.946 1794.65 319.332 1774.87 339.169C1768.7 345.583 1760.9 352.214 1753.56 357.291C1749.61 360.455 1742.22 364.587 1737.82 367.319C1734.25 369.118 1728.62 372.028 1725.3 373.598L1720.98 375.377C1718.09 376.542 1715.25 377.818 1712.34 378.895L1703.47 381.818C1701.99 382.286 1700.53 382.822 1699.03 383.236C1614.03 406.691 1519.83 380.782 1440.53 347.894C1417.64 338.418 1395.1 327.668 1373.09 316.309C1329.03 293.403 1286.51 267.616 1245.32 239.935C1082.02 127.469 893.68 51.8515 698.12 19.4529C540.057 -5.70227 373.545 -7.36552 220.726 44.8317C61.7138 100.406 -36.0192 219.641 62.3411 382.747C81.4972 414.516 105.006 443.442 130.522 470.362C214.144 558.772 323.078 638.249 449.695 638.025C524.401 638.416 596.244 613.735 664.191 584.766C777.41 536.401 889.317 474.17 1014.52 465.011C1138.91 455.142 1263.64 503.626 1359.08 581.867C1396.93 613.949 1428.98 653.365 1450.67 698.054C1516.33 832.298 1485.37 999.337 1420.82 1128.25Z" fill="#91298C"/>
<path d="M1420.82 1128.25C1460.1 1037.69 1480.67 937.307 1472.52 838.556C1459.62 678.787 1358.09 565.334 1213.5 505.188C1145.52 475.496 1070.35 460.994 996.251 467.172C845.564 478.275 716.842 565.489 576.998 613.615C556.434 620.608 535.419 626.6 514.173 631.144C378.556 661.542 264.198 612.725 163.104 523.301C126.278 490.465 90.535 454.561 61.348 414.66C-0.752252 331.218 -29.4761 226.839 43.6149 139.928C92.2888 82.3703 163.856 50.247 234.856 29.3823C475.802 -35.0474 735.515 5.51021 964.731 95.5532C1039.62 125.661 1111.84 162.454 1180.05 205.606C1195.84 215.461 1211.23 226.008 1226.7 236.315C1278.09 270.917 1331.46 302.742 1387.44 329.332C1486.13 375.811 1629.54 421.75 1729.07 357.379L1736.59 351.992C1737.83 351.07 1739.13 350.244 1740.27 349.198L1747.33 343.215C1747.91 342.702 1748.52 342.231 1749.07 341.694L1750.7 340.061L1753.98 336.797C1757.97 332.927 1762.68 327.424 1766.26 322.989C1779.05 306.513 1788.46 287.628 1794.77 267.786C1796.32 261.976 1798.82 253.581 1799.79 247.582C1801.24 241.758 1801.82 235.068 1802.75 229.301C1816.33 90.3379 1724.03 -44.7036 1618.94 -127.698C1599.5 -143.112 1579.16 -157.365 1558.13 -170.514C1600.13 -144.476 1639.84 -113.509 1674.45 -78.2011C1755.39 4.45218 1821.02 124.685 1802.04 243.277C1796.88 272.345 1785.64 300.502 1767.5 323.939C1764.55 327.551 1761.52 331.124 1758.43 334.616C1756.82 336.319 1753.45 339.542 1751.83 341.226L1750.18 342.871C1749.62 343.423 1749.01 343.893 1748.43 344.407C1745.36 347.024 1740.67 351.18 1737.59 353.289L1733.81 356.024C1728.89 359.809 1723.31 362.811 1718.05 366.033C1714.4 367.857 1708.92 370.743 1705.52 372.292C1701.22 374.075 1696.83 375.963 1692.55 377.57C1688.65 378.841 1682.83 380.834 1679.22 381.907C1676.59 382.553 1668.43 384.655 1665.64 385.341C1585.66 401.632 1503.54 379.498 1429.25 349.973C1403.37 339.438 1377.98 327.612 1353.2 314.761C1309.13 291.835 1266.61 266.034 1225.41 238.333C1021.22 98.0229 777.807 14.2339 530.172 2.37508C372.112 -5.7935 112.15 22.7482 25.1457 172.244C-38.6988 286.785 49.4603 410.35 131.097 489.539C155.186 513.192 181.265 536.122 208.339 556.189C303.923 626.825 405.886 654.765 522.724 626.523C613.496 604.909 696.082 560.236 781.596 524.253C872.278 485.124 970.849 455.606 1070.65 465.721C1119.99 470.253 1168.85 483.883 1214.27 503.6C1359.3 564.159 1460.79 678.269 1473.35 838.517C1481.24 937.428 1460.42 1037.73 1420.89 1128.28L1420.82 1128.25Z" fill="#91298C"/>
</svg>
