<svg width="315" height="720" viewBox="0 0 315 720" fill="none" xmlns="http://www.w3.org/2000/svg">
<g opacity="0.2">
<mask id="mask0_64_2724" style="mask-type:alpha" maskUnits="userSpaceOnUse" x="0" y="0" width="315" height="720">
<rect width="315" height="720" fill="#D9D9D9"/>
</mask>
<g mask="url(#mask0_64_2724)">
<path d="M-1463.46 -202.933C-1594.11 -36.7447 -1693.68 216.997 -1473.1 355.85C-1428.01 384.551 -1377.78 404.315 -1326.61 419.307C-1250.24 442.629 -1167.96 451.768 -1089.79 431.836C-876.018 379.391 -755.178 165.598 -554.215 88.0269C-396.69 26.9312 -232.091 96.7959 -102.893 189.78C18.201 278.785 75.2285 404.315 -26.1476 534.736C-140.202 675.781 -349.234 743.908 -522.831 773.908C-760.495 813.065 -1008.14 791.766 -1235.4 711.902C-1285.84 694.28 -1337.1 678.883 -1389.2 666.995C-2001.01 526.001 -1950.47 1075.49 -1473.3 1222C-1624.41 1176.6 -1773.16 1075.44 -1827.42 921.766C-1854.33 844.279 -1843.22 755.021 -1776.35 701.48C-1712.7 650.233 -1626.74 640.132 -1547.55 642.61C-1440.31 646.961 -1335.53 674.668 -1234.52 709.457C-1007.56 788.731 -760.529 810.097 -523.338 770.839C-341.891 741.193 -62.8828 647.889 10.5367 463.775C52.4039 352.595 -17.8419 256.289 -104.784 192.327C-233.188 99.8819 -396.588 30.1521 -553.168 90.7757C-753.962 168.499 -875.225 381.954 -1089.25 433.978C-1167.81 453.893 -1250.44 444.635 -1327.12 421.094C-1378.41 405.968 -1428.78 386.12 -1473.94 357.199C-1694.76 217.318 -1595.07 -36.3231 -1463.46 -202.933Z" fill="#73206F"/>
<path d="M-1463.46 -202.933C-1543.29 -92.8489 -1618.47 70.6409 -1573.83 207.217C-1552.33 272.157 -1505.41 321.432 -1447.62 356.39C-1402.01 384.029 -1351.65 403.185 -1300.3 417.216C-1249.03 431.617 -1195.8 440.453 -1142.43 437.215C-917.379 426.423 -782.341 219.982 -601.4 115.194C-460.351 32.6141 -320.738 50.6241 -180.584 124.755C-121.75 156.104 -64.3516 192.832 -19.0404 242.259C118.902 393.792 20.0413 546.119 -129.094 638.057C-399.357 800.333 -759.888 820.383 -1062.55 752.07C-1167.16 729.575 -1265.47 685.275 -1370.07 662.779C-1421.71 651.059 -1475.33 642.661 -1528.3 640.823C-1609.83 638.293 -1700.03 649.389 -1762.73 706.202C-1763.94 707.332 -1765.26 708.36 -1766.39 709.575L-1773.28 716.758C-1774.42 717.956 -1775.61 719.136 -1776.6 720.451L-1782.9 728.158C-1784 729.406 -1784.91 730.789 -1785.85 732.155L-1791.53 740.35C-1794.06 744.633 -1796.61 748.917 -1798.97 753.284L-1803.26 762.272L-1804.32 764.515L-1805.22 766.842L-1808.8 776.117C-1810.33 780.839 -1811.73 785.628 -1813.07 790.417L-1815.19 800.147L-1815.74 802.576C-1816.38 808.039 -1817.74 814.313 -1818 819.861L-1818.72 829.793C-1818.66 834.178 -1819.06 844.987 -1818.5 849.725C-1815.95 899.742 -1797.08 947.684 -1771.13 990.129C-1699.89 1103.96 -1579.35 1179.52 -1452.55 1218.04C-1579.59 1179.82 -1700.4 1104.46 -1772.01 990.669C-1796.51 950.956 -1814.52 906.471 -1819.23 859.81C-1819.5 855.054 -1820.02 849.607 -1820.23 844.801C-1820.31 843.132 -1820.23 841.463 -1820.24 839.793L-1820.19 829.759C-1819.63 823.453 -1819.43 815.847 -1818.32 809.776C-1817.83 806.657 -1817.46 802.846 -1816.71 799.861C-1815.18 791.766 -1812.81 783.284 -1810.3 775.595C-1809.47 773.217 -1807.56 768.579 -1806.72 766.202C-1806.23 764.448 -1801.44 754.633 -1800.44 752.492C-1797.22 746.775 -1793.97 740.62 -1790.09 735.274L-1787.24 731.143C-1786.29 729.76 -1785.36 728.36 -1784.27 727.096L-1777.92 719.305C-1775.1 715.831 -1770.68 711.649 -1767.6 708.293C-1707.25 650.553 -1618.72 637.18 -1538.23 638.411C-1495.13 639.103 -1451.15 644.583 -1408.78 652.324C-1343.16 664.718 -1278.6 683.065 -1215.57 704.903C-914.307 809.355 -574.372 817.348 -274.042 705.679C-199.66 676.877 -127.557 639.828 -66.2253 588.429C49.1122 492.139 88.3457 364.113 -21.387 244.4C-66.428 195.244 -123.489 158.684 -182.002 127.504C-321.21 53.8113 -459.71 35.7001 -599.914 117.706C-780.889 222.68 -916.873 428.952 -1142.28 439.306C-1195.86 442.494 -1249.35 433.539 -1300.75 419.02C-1352.22 404.872 -1402.74 385.597 -1448.43 357.772C-1506.41 322.494 -1553.41 272.866 -1574.86 207.554C-1619.28 70.5565 -1543.77 -92.7309 -1463.46 -202.933Z" fill="#73206F"/>
<path d="M-1463.46 -202.933C-1521.06 -115.901 -1566.63 -11.4666 -1571.55 93.7773C-1579.91 292.731 -1418.23 384.332 -1245.51 421.92C-1147.4 443.37 -1054.22 433.624 -963.889 389.189C-815.868 317.233 -712.348 180.623 -567.906 102.968C-553.59 95.3456 -537.536 87.8752 -522.426 81.8887C-403.729 34.2498 -285.252 57.5043 -174.101 113.575C-120.72 140.573 -68.4875 172.377 -24.0542 212.664C144.951 366.76 58.9204 531.65 -111.115 635.781C-339.004 771.868 -625.659 803.925 -886.013 775.055C-992.065 762.694 -1096.72 738.461 -1197.37 702.88C-1250.81 684.263 -1305.29 668.479 -1360.56 656.253C-1367.47 654.921 -1383.02 651.717 -1389.94 650.368C-1395.37 649.339 -1413.94 646.337 -1419.48 645.342C-1441.88 642.155 -1466.33 639.035 -1488.95 637.804C-1581.46 632.206 -1689.09 642.897 -1754.94 715.274L-1762.81 724.903C-1765.76 728.9 -1768.53 733.031 -1771.34 737.129L-1776.33 745.729C-1777.16 747.163 -1778.02 748.579 -1778.7 750.097L-1782.98 759.068C-1783.76 760.535 -1784.27 762.121 -1784.87 763.655L-1788.45 772.93L-1789.87 777.685C-1792.29 785.24 -1794.38 794.094 -1795.59 801.851L-1797.01 811.699C-1797.47 816.657 -1797.79 821.614 -1798.13 826.589C-1798.04 831.361 -1798.43 841.463 -1797.84 846.488L-1797.55 851.463C-1797.25 857.618 -1796.22 863.048 -1795.65 868.781C-1794.8 873.267 -1793.82 879 -1792.98 883.486C-1792.24 886.926 -1790.24 894.632 -1789.48 898.022L-1788.77 900.417L-1787.34 905.189C-1737.08 1063.16 -1584.82 1167.48 -1431.91 1214.07C-1585.16 1167.83 -1737.84 1063.62 -1788.54 905.543L-1789.99 900.754L-1790.7 898.359C-1791.41 895.122 -1793.52 887.01 -1794.24 883.772C-1795.05 879.253 -1796.15 873.52 -1796.96 869C-1797.55 864.245 -1798.65 856.302 -1798.92 851.581C-1799.04 846.589 -1799.8 841.513 -1799.6 836.572L-1799.56 826.555C-1799.28 820.063 -1798.72 813.065 -1797.77 806.589C-1797.18 803.436 -1797 799.709 -1796.22 796.69L-1794.09 786.893C-1793.01 782.525 -1791.22 776.809 -1789.94 772.424C-1788.12 767.938 -1786.44 762.745 -1784.45 758.411C-1782.61 754.515 -1779.83 748.36 -1777.77 744.92L-1772.74 736.219C-1769.92 732.07 -1767.12 727.888 -1764.14 723.841L-1757.8 716.05C-1694.37 643.605 -1589.82 631.261 -1498.76 634.988C-1491.26 635.46 -1481.17 636.101 -1473.77 636.607C-1471.28 636.793 -1451.96 638.85 -1448.87 639.103C-1439.47 640.368 -1428.6 641.734 -1419.09 643.083C-1413.3 644.128 -1395.61 646.978 -1389.48 648.074C-1323.95 660.401 -1259.44 678.63 -1196.47 700.401C-895.686 805.071 -556.342 813.453 -256.113 702.762C-181.715 674.246 -109.629 637.45 -48.0433 586.557C104.316 459.829 101.615 310.302 -56.7377 189.409C-97.3556 158.161 -142.869 132.108 -188.873 109.646C-299.922 56.8972 -414.719 38.5162 -530.53 88.381C-544.035 93.9628 -558.081 100.978 -570.928 107.791C-712.871 186.036 -816.172 320.15 -962.825 391.246C-1056.67 437.3 -1154.38 446.052 -1255.64 421.448C-1425.9 382.528 -1581.13 288.7 -1572.35 93.6761C-1567.11 -11.7533 -1521.31 -115.968 -1463.43 -203L-1463.46 -202.933Z" fill="#73206F"/>
<path d="M-1463.46 -202.933C-1525.47 -100.454 -1574.31 37.2347 -1551.13 157.622C-1546.57 180.37 -1539.48 202.765 -1529.47 223.692C-1518.07 247.52 -1502.93 270.016 -1485.02 289.442C-1409.17 372.511 -1280.85 413.168 -1171.49 426.052C-897.054 452.932 -762.977 219.46 -552.814 101.029C-410.769 22.142 -270.666 45.464 -132.707 120.371C-51.8422 164.536 30.7611 220.488 70.822 306.457C93.6801 355.395 93.7478 413.388 71.9701 462.696C18.0323 583.269 -118.256 657.113 -236.514 702.745C-487.042 795.038 -765.341 802.559 -1024.51 743.453C-1063.46 734.364 -1102.03 723.656 -1140.07 711.312C-1203.04 689.811 -1266.21 668.546 -1331.29 654.33C-1349.22 650.199 -1371.81 645.882 -1390.04 642.931C-1484.26 627.855 -1596.56 623.184 -1682.44 670.435C-1740.51 702.222 -1775.22 756.893 -1777.4 823.318C-1779.08 880.046 -1758.78 935.29 -1729.3 983.114C-1657.89 1096.47 -1537.74 1171.8 -1411.19 1210.2C-1537.96 1172.08 -1658.4 1096.96 -1730.18 983.654C-1759.89 935.729 -1780.43 880.248 -1778.86 823.267C-1776.82 756.219 -1741.94 701.042 -1683.33 668.833C-1597.11 621.211 -1484.36 625.663 -1389.67 640.688C-1371.33 643.639 -1348.76 647.906 -1330.77 652.037C-1265.57 666.185 -1202.3 687.366 -1139.24 708.799C-1101.26 721.059 -1062.75 731.699 -1023.87 740.704C-765.256 799.524 -487.582 791.952 -237.662 699.743C-120.13 654.33 15.2129 580.941 68.8975 461.414C90.2869 412.865 90.3544 355.968 67.8339 307.806C34.2388 234.873 -32.124 183.321 -99.5336 142.816C-116.348 132.765 -134.513 122.563 -151.868 113.895C-361.271 8.06114 -508.786 49.6292 -682.011 194.789C-827.888 316.137 -965.966 449.947 -1171.69 428.059C-1281.52 414.956 -1410.03 374.062 -1486.05 290.37C-1503.98 270.808 -1519.15 248.161 -1530.53 224.198C-1540.53 203.17 -1547.62 180.657 -1552.11 157.824C-1575 37.1841 -1525.86 -100.421 -1463.48 -202.916L-1463.46 -202.933Z" fill="#73206F"/>
<path d="M-1463.46 -202.933C-1529.37 -81.9889 -1575.79 86.7116 -1513.45 217.2C-1484.93 277.908 -1433.88 324.366 -1375.34 355.799C-1328.54 381.094 -1277.49 397.587 -1225.74 409.425C-1174.05 421.516 -1120.49 426.642 -1067.61 420.841C-844.584 398.076 -713.986 194.704 -529.196 94.3507C-428.613 40.4724 -327.254 33.9969 -219.125 69.5954C-155.919 90.6745 -96.2753 122.175 -40.9868 159.14C138.063 279.307 166.121 441.651 -8.38757 584.483C-229.102 757.635 -575.638 799.422 -847.809 766.809C-940.389 755.763 -1031.91 735.848 -1120.55 706.961C-1195.93 680.924 -1272.07 656.388 -1350.67 642.121C-1442.71 625.832 -1547.21 618.311 -1635.52 653.892L-1640.15 655.73L-1644.64 657.855L-1653.63 662.088C-1656.61 663.538 -1659.44 665.275 -1662.36 666.843C-1668.98 670.283 -1675.06 674.617 -1681.32 678.647L-1683.3 680.148L-1691.2 686.185C-1728.3 715.882 -1750.71 757.804 -1755.72 805.055C-1758.79 836.37 -1754.91 868.292 -1745.66 898.309C-1704.08 1029.64 -1588.4 1124.99 -1465.4 1178.76C-1440.99 1189.34 -1415.95 1198.46 -1390.51 1206.25C-1517.18 1168.19 -1637.46 1093.15 -1709.29 980.028C-1737.27 934.919 -1757.17 883.385 -1758.22 829.861C-1759.18 773.065 -1738.03 722.998 -1694.3 686.32C-1691.5 684.128 -1687.23 680.873 -1684.38 678.681L-1682.38 677.164L-1680.29 675.781C-1672 670.148 -1663.39 665.022 -1654.5 660.418C-1650.7 658.631 -1644.38 655.629 -1640.92 653.993C-1558.72 619.558 -1466.53 622.661 -1379.86 634.955C-1357.34 638.412 -1333.3 642.847 -1311.13 647.821C-1259.12 659.406 -1207.93 674.415 -1157.58 691.733C-957.018 762.711 -740.727 788.175 -529.128 766.91C-371.215 750.249 -212.541 709.895 -75.5612 627.653C-8.64111 586.253 55.6962 532.797 88.5823 459.745C146.74 327.385 47.1707 217.79 -59.3882 150.758C-207.932 57.5718 -364.175 8.46587 -527.862 96.9139C-712.905 197.52 -843.588 400.352 -1067.43 422.949C-1120.52 428.699 -1174.37 423.472 -1226.22 411.263C-1303.72 393.405 -1381.16 364.703 -1441.97 312.056C-1462.06 294.754 -1480.26 274.569 -1494.86 252.427C-1509.65 230.404 -1521.16 205.783 -1529.05 180.505C-1567.6 56.4589 -1524.15 -92.3936 -1463.51 -202.933H-1463.46Z" fill="#73206F"/>
<path d="M-1463.46 -202.933C-1513.9 -98.9365 -1545.61 29.7305 -1520.6 144.502C-1506.76 206.863 -1474.3 262.36 -1426.29 304.552C-1363.5 359.543 -1282.94 389.206 -1202.21 406.305C-1098.51 430.757 -987.254 417.958 -893.137 367.604C-717.362 278.7 -592.419 86.2057 -393.195 48.4151C-286.889 28.8705 -179.047 63.8787 -86.5681 115.042C-45.8151 137.302 -5.94006 162.63 29.2419 193.018C210.318 349.425 124.473 520.115 -54.7119 627.518C-323.996 785.156 -685.995 804.583 -985.532 734.988C-1037.38 722.914 -1088.41 707.517 -1138.63 689.946C-1220.21 661.97 -1304.06 639.238 -1389.89 629.272C-1473.77 620.267 -1566.71 621.194 -1642.15 663.201C-1703.61 697.484 -1737.25 755.848 -1736.04 826.353C-1735.51 852.795 -1730.35 879.203 -1721.8 904.211C-1677.05 1030.67 -1564.75 1122.34 -1444.6 1174.85C-1420.21 1185.41 -1395.21 1194.53 -1369.78 1202.32C-1496.29 1164.26 -1616.56 1089.32 -1688.39 976.369C-1716.4 931.361 -1736.31 879.827 -1737.49 826.37C-1738.74 767.534 -1715.24 714.077 -1668.07 678.158C-1652.4 665.932 -1634.47 656.017 -1616.11 648.445C-1557.32 624.179 -1492.29 620.199 -1429.43 623.69C-1383.02 626.337 -1336.59 633.74 -1291.25 643.707C-1239.27 655.258 -1188.11 670.216 -1137.79 687.501C-912.416 767.298 -667.054 790.114 -430.875 752.947C-274.886 727.045 -116.955 678.091 8.69678 579.205C150.91 464.854 172.266 319.914 27.1486 195.446C-7.84766 165.193 -47.5201 139.949 -88.0706 117.791C-179.942 66.9141 -287.041 31.9733 -392.672 51.3493C-458.173 63.1198 -518.476 94.1146 -572.599 132.04C-681.437 208.026 -773.072 308.329 -892.073 369.712C-986.629 420.15 -1098.61 432.882 -1202.62 408.177C-1283.6 390.909 -1364.38 360.993 -1427.23 305.631C-1475.29 263.186 -1507.81 207.318 -1521.52 144.721C-1546.28 29.7811 -1514.24 -98.9365 -1463.48 -202.916L-1463.46 -202.933Z" fill="#73206F"/>
<path d="M-1463.46 -202.933C-1504.33 -107.571 -1527.36 4.41867 -1511.83 107.824C-1500.7 180.927 -1467.41 247.891 -1412.02 297.469C-1347.73 355.749 -1263.43 386.339 -1179.39 402.983C-1101.58 419.526 -1019.45 417.367 -943.833 391.921C-816.189 349.779 -718.476 253.237 -615.716 170.978C-553.658 121.265 -486.62 74.5532 -409.334 52.2936C-287.311 16.0881 -162.385 55.9698 -55.4379 116.762C52.4379 176.677 178.782 280.791 144.883 418.784C120.708 510.79 42.9164 576.422 -35.2471 624.348C-266.53 758.074 -546.483 788.208 -808.592 758.698C-894.42 748.344 -979.336 730.317 -1061.87 704.6C-1080.93 698.782 -1099.79 692.155 -1118.66 685.764C-1193.96 659.997 -1271.11 638.631 -1350.05 627.788C-1451.98 613.808 -1582.29 614.331 -1661.7 688.749C-1693.12 718.748 -1711.79 759.659 -1714.7 802.93L-1715.25 810.35L-1715.34 822.744C-1715.39 824.397 -1715.25 826.05 -1715.15 827.702L-1714.87 832.66C-1714.73 839.186 -1713.51 846.1 -1712.86 852.407C-1688.51 999.978 -1555.53 1114.19 -1423.84 1170.94C-1399.46 1181.49 -1374.46 1190.6 -1349.05 1198.39C-1380.81 1188.76 -1412.02 1177.01 -1442.1 1163C-1567.2 1104.51 -1690.47 994.278 -1714.21 852.626C-1714.75 848.731 -1715.59 841.463 -1715.96 837.753C-1716.08 835.206 -1716.44 830.316 -1716.57 827.786C-1716.94 823.402 -1716.67 814.819 -1716.71 810.316C-1715.2 771.244 -1701.97 732.205 -1676.48 702.206L-1673.32 698.327L-1669.88 694.701C-1667.55 692.307 -1665.3 689.845 -1662.92 687.501L-1655.46 680.823C-1652 677.585 -1647.49 674.415 -1643.72 671.464C-1639.22 667.939 -1631.94 663.403 -1627.11 660.334C-1624.6 658.901 -1616.7 654.533 -1614.01 653.032C-1537.28 614.702 -1448.1 614.466 -1364.57 623.589C-1333.23 627.518 -1302 632.796 -1271.19 639.643C-1219.25 651.16 -1168.11 666.101 -1117.8 683.335C-867.645 771.851 -592.571 790.957 -333.129 734.431C-166.538 698.462 92.9039 597.889 141.659 418.008C175.17 281.803 49.4496 178.6 -56.9911 119.511C-163.162 59.1233 -287.328 19.2247 -408.541 55.1604C-485.455 77.2682 -552.138 123.794 -613.977 173.204C-716.957 255.429 -815.176 352.073 -943.158 394.079C-1019.11 419.526 -1101.75 421.583 -1179.78 404.872C-1264.07 388.059 -1348.63 357.199 -1412.97 298.532C-1468.41 248.633 -1501.68 181.382 -1512.65 107.993C-1527.93 4.43556 -1504.62 -107.537 -1463.48 -202.899L-1463.46 -202.933Z" fill="#73206F"/>
<path d="M-1463.46 -202.933C-1512.06 -72.0733 -1528.98 96.5429 -1454.5 220.724C-1385.01 338.127 -1247.56 389.239 -1118 405.58C-893.002 432.915 -754.266 295.311 -594.056 164.536C-552.442 131.501 -509.174 99.9999 -461.482 76.1552C-306 -4.75497 -149.133 41.9901 -7.797 128.668C213.323 261.753 237.987 446.086 18.1674 599.339C-279.698 796.117 -728.875 804.583 -1060.69 694.431C-1148.37 664.027 -1237.49 636.084 -1329.75 623.808C-1382.12 616.574 -1435.81 614.078 -1488.36 620.52C-1549.95 628.31 -1613.95 650.587 -1654.6 699.592C-1678.05 727.365 -1691.52 763.099 -1693.98 799.254L-1694.35 804.195L-1694.52 806.674V809.152L-1694.59 819.068C-1694.42 828.781 -1693.36 839.085 -1692.09 848.697C-1667.6 996.2 -1534.75 1110.28 -1403.07 1167.01C-1378.7 1177.57 -1353.71 1186.65 -1328.32 1194.45C-1353.74 1186.72 -1378.75 1177.68 -1403.16 1167.19C-1530.85 1112.08 -1655.22 1008.07 -1689.63 868.461C-1692.28 857.483 -1694.1 845.274 -1695.23 834.026C-1695.57 829.102 -1695.89 823.958 -1696.04 819.085C-1696.11 816.859 -1695.96 808.596 -1695.99 806.606C-1694.73 775.864 -1686.66 745.139 -1670.47 718.799C-1669.33 716.641 -1663.76 708.613 -1662.14 706.32C-1660.59 704.111 -1657.69 700.654 -1655.93 698.479C-1651.9 693.2 -1646.95 688.546 -1642.41 683.757L-1634.95 677.079C-1633.68 676 -1632.5 674.803 -1631.16 673.791L-1627.2 670.755C-1624.53 668.749 -1621.95 666.641 -1619.21 664.735C-1613.95 661.346 -1607.67 656.911 -1602.28 654.111C-1522.14 608.816 -1418.44 609.744 -1329.42 621.582C-1250.34 632.273 -1173.01 653.538 -1097.56 679.204C-798.142 784.448 -460.52 794.094 -160.562 686.168C-86.2136 658.361 -14.0939 622.509 48.1836 572.914C240.165 417.317 186.852 249.561 -9.40076 131.332C-187.117 23.4405 -350.349 -5.74991 -528.419 119.292C-719.86 254.434 -855.237 438.598 -1118.19 407.502C-1248.37 390.892 -1385.87 339.408 -1455.42 221.281C-1529.69 96.7115 -1512.43 -71.9721 -1463.41 -202.949L-1463.46 -202.933Z" fill="#73206F"/>
<path d="M-1463.46 -202.933C-1514.65 -40.2691 -1513.77 166.745 -1378.07 288.683C-1311.45 349.307 -1223.65 380.808 -1135.97 395.833C-1031.52 416.001 -921.262 399.29 -827.956 348.042C-642.659 252.63 -509.461 39.7136 -286.653 29.8991C-179.132 25.7508 -76.6752 70.4723 13.5419 125.143C101.328 178.836 195.344 261.449 191.663 373.051C182.277 532.223 -5.77112 635.95 -139.324 685.46C-433.593 790.991 -764.395 784.026 -1059.22 684.061C-1200.91 634.482 -1399.41 581.717 -1544.98 635.123C-1554.23 638.53 -1563.38 642.745 -1572.23 647.046L-1585.23 654.28C-1586.65 655.123 -1588 656.068 -1589.4 656.961L-1597.69 662.391C-1602.21 665.562 -1605.23 668.192 -1609.54 671.363C-1610.84 672.374 -1612.02 673.538 -1613.27 674.617L-1620.66 681.211L-1627.54 688.344C-1628.67 689.558 -1629.86 690.688 -1630.93 691.953L-1634.07 695.781C-1653.26 718.479 -1665.64 746.623 -1670.97 775.78C-1672.44 784.718 -1673.4 793.807 -1673.88 802.863V805.341L-1673.94 815.257C-1673.76 824.937 -1672.69 835.291 -1671.43 844.886C-1647.37 989.219 -1519.66 1101.38 -1391.51 1159.05C-1364.29 1171.29 -1336.2 1181.78 -1307.67 1190.5C-1333.08 1182.79 -1358.08 1173.75 -1382.49 1163.27C-1510.17 1108.17 -1634.49 1004.21 -1668.95 864.65C-1670.42 859.422 -1671.72 850.535 -1672.78 845.088C-1673.12 841.53 -1674.3 833.722 -1674.57 830.232C-1674.72 825.274 -1675.36 820.181 -1675.4 815.291L-1675.36 805.308C-1674.67 775.443 -1667.38 745.342 -1652.42 719.339C-1647.81 710.991 -1641.58 701.969 -1635.42 694.684C-1632.21 690.317 -1625.71 683.993 -1621.91 679.946C-1618.76 677.113 -1613.69 672.509 -1610.7 669.98L-1606.74 666.944C-1604.07 664.938 -1601.49 662.83 -1598.77 660.907L-1590.41 655.427C-1589.01 654.533 -1587.64 653.572 -1586.21 652.712C-1504.8 604.887 -1400.2 605.579 -1309.07 617.602C-1282.77 621.059 -1256.49 625.933 -1230.57 631.582C-1178.66 643.066 -1127.54 657.956 -1077.27 675.174C-737.553 794.903 -315.031 795.847 3.00757 614.483C166.627 517.468 268.746 356.406 106.612 199.544C77.9973 171.989 45.6683 148.566 11.8369 127.807C-99.1112 59.4268 -234.251 8.11172 -364.85 44.7894C-442.017 65.7842 -509.174 111.636 -571.215 160.691C-693.812 258.633 -815.328 377.874 -977.462 401.044C-1030.12 409.189 -1084.02 407.199 -1136.36 397.671C-1221.12 383.034 -1305.75 353.101 -1371.6 296.289C-1427.55 248.836 -1465.52 182.31 -1482.2 111.214C-1506.31 7.62268 -1495.27 -102.191 -1463.54 -202.949L-1463.46 -202.933Z" fill="#73206F"/>
<path d="M-1463.46 -202.933C-1492.68 -88.768 -1496.09 38.0947 -1453.31 149.258C-1429.31 210.96 -1388.28 266.137 -1334.92 305.564C-1271.04 353.506 -1193.35 379.391 -1115.12 392.039C-1010.45 410.875 -900.531 392.966 -807.343 341.719C-622.283 246.137 -488.341 33.6091 -265.348 25.2449C-171.586 22.1083 -80.7271 56.442 0.120605 101.366C46.6135 127.133 91.5194 156.576 129.909 193.591C158.524 221.433 183.627 253.692 198.551 291.044C219.299 340.791 216.226 398.48 192.811 446.743C134.906 564.972 -0.301392 636.725 -118.88 681.632C-403.746 783.874 -722.849 780.08 -1010.28 689.524C-1018.74 686.725 -1030.25 683.032 -1038.64 680.081C-1107.45 656.067 -1177.67 635.106 -1249.45 622.088C-1354.54 603.673 -1485.09 595.815 -1577.02 658.529C-1579.71 660.435 -1582.29 662.509 -1584.93 664.499L-1588.86 667.501C-1590.16 668.529 -1591.34 669.676 -1592.59 670.755L-1599.98 677.349L-1606.84 684.499C-1607.97 685.713 -1609.17 686.843 -1610.21 688.108L-1613.35 691.936C-1636.75 719.743 -1650.17 755.477 -1652.59 791.615C-1654.19 811.227 -1652.59 831.479 -1648.92 850.805C-1624.99 968.865 -1533.08 1062.74 -1432.53 1123.01C-1387.03 1150.03 -1337.5 1171.17 -1286.93 1186.59C-1312.33 1178.88 -1337.33 1169.84 -1361.73 1159.35C-1487.55 1104.77 -1606.65 1006.13 -1645.82 870.484C-1657.92 825.409 -1658.78 776.96 -1640.57 733.386C-1637.85 727.467 -1635.12 721.092 -1631.69 715.494C-1629.93 712.661 -1628.43 709.507 -1626.57 706.91L-1620.9 698.681C-1618.27 695.022 -1614.4 690.519 -1611.55 686.961C-1609.79 685.039 -1603.26 678.192 -1601.22 676.084C-1597.97 673.201 -1593.05 668.698 -1590.01 666.118C-1586.06 663.082 -1582.04 659.946 -1578.07 657.045L-1569.71 651.565C-1498.2 607.029 -1409.94 603.015 -1328.07 609.221C-1290.03 612.543 -1252.17 618.681 -1214.81 626.54C-1161.26 638.277 -1108.5 653.437 -1056.66 671.211C-757.389 776.505 -419.919 786.286 -119.994 678.614C-2.10779 633.909 132.154 562.594 189.789 445.344C212.799 397.806 215.956 341.229 195.512 292.258C165.04 218.11 99.4373 165.413 32.9561 124.098C-77.9751 55.7506 -212.777 3.91277 -343.562 39.6798C-420.864 60.1687 -488.223 105.75 -550.383 154.637C-653.937 236.171 -752.206 331.87 -879.243 375.884C-954.655 402.595 -1036.82 407.587 -1115.44 393.91C-1211.68 378.497 -1308.04 341.516 -1377.01 270.606C-1496.85 147.268 -1504.36 -44.5018 -1463.46 -202.933Z" fill="#73206F"/>
<path d="M-1463.46 -202.933C-1494.05 -51.871 -1479.45 129.359 -1374.19 249.51C-1339.39 289.51 -1295.42 321.145 -1247.49 343.641C-1127.51 397.671 -985.515 413.101 -860.217 368.379C-733.569 324.063 -635.569 228.768 -532.083 147.285C-469.603 98.1786 -401.771 52.5465 -324.013 32.0913C-192.384 -3.52396 -56.704 48.6005 54.9363 117.234C88.9534 138.094 121.519 161.635 150.302 189.359C313.433 347.199 213.069 510.655 46.2083 609.424C-259.794 785.729 -678.652 789.861 -1008.34 679.423C-1092.73 649.845 -1179.07 623.943 -1267.88 611.97C-1320.23 604.752 -1373.92 602.29 -1426.45 608.749C-1488.02 616.557 -1552.01 638.884 -1592.59 687.922C-1611.78 710.62 -1624.16 738.765 -1629.51 767.922C-1630.98 776.859 -1631.94 785.949 -1632.41 795.004V797.483L-1632.48 807.399C-1632.3 817.095 -1631.23 827.416 -1629.97 837.028C-1605.44 984.43 -1472.56 1098.56 -1340.95 1155.24C-1316.59 1165.78 -1291.6 1174.88 -1266.21 1182.66C-1291.62 1174.93 -1316.62 1165.91 -1341.03 1155.42C-1468.71 1100.33 -1593.03 996.369 -1627.48 856.808C-1628.97 851.631 -1630.24 842.66 -1631.32 837.247C-1631.72 833.672 -1632.79 825.881 -1633.11 822.39C-1633.44 817.466 -1633.76 812.323 -1633.93 807.449L-1633.9 797.466C-1633.21 767.601 -1625.91 737.5 -1610.96 711.497C-1606.35 703.15 -1600.12 694.128 -1593.94 686.843C-1590.73 682.475 -1584.23 676.152 -1580.43 672.104C-1577.24 669.255 -1572.23 664.685 -1569.22 662.138L-1565.26 659.103C-1562.59 657.096 -1560.01 654.988 -1557.29 653.066L-1548.93 647.585C-1547.53 646.691 -1546.16 645.73 -1544.73 644.887C-1463.32 597.063 -1358.72 597.754 -1267.6 609.795C-1241.29 613.252 -1215.01 618.125 -1189.09 623.774C-1137.18 635.258 -1086.06 650.148 -1035.79 667.366C-835.738 738.445 -620.004 764.465 -408.777 743.773C-238.337 725.983 -65.6683 681.548 77.9126 585.191C226.963 483.623 294.998 333.186 148.074 191.719C119.459 164.165 87.13 140.759 53.2817 119.983C-57.7001 51.7034 -192.384 -0.319916 -323.27 35.0087C-400.64 55.3121 -468.1 100.759 -530.344 149.561C-634.033 230.977 -732.522 326.373 -859.474 370.555C-985.38 415.242 -1127.81 399.661 -1248.2 345.175C-1296.23 322.477 -1340.31 290.589 -1375.12 250.37C-1480.22 129.696 -1494.49 -51.6855 -1463.46 -202.933Z" fill="#73206F"/>
<path d="M-1463.46 -202.933C-1478.99 -98.3632 -1472.44 11.1809 -1436.65 111.079C-1379.03 272.781 -1242.59 362.005 -1076.39 384.147C-997.856 396.018 -916.096 390.184 -841.174 363.253C-688.409 309.999 -579.453 184.097 -448.162 95.548C-428.833 82.6138 -408.76 70.5903 -388.046 60.0001C-256.215 -9.03827 -124.417 9.7643 4.91516 74.2496C52.1002 98.01 99.015 125.244 140.258 158.431C227.605 227.537 286.236 327.553 234.729 437.721C200.341 510.756 135.227 563.825 67.5809 605.09C-163.752 738.529 -443.587 768.562 -705.595 738.951C-791.389 728.563 -876.272 710.519 -958.774 684.786C-977.834 678.968 -996.674 672.324 -1015.53 665.949C-1078.26 644.398 -1142.28 626.27 -1207.55 614.28C-1322.5 593.555 -1483.53 585.781 -1568.63 679.963L-1574.91 687.619C-1575.94 688.917 -1577.06 690.131 -1577.95 691.531L-1583.59 699.676C-1584.05 700.367 -1584.55 701.025 -1584.98 701.733L-1586.21 703.875L-1588.69 708.158C-1591.75 713.268 -1595.09 720.266 -1597.57 725.848C-1606.23 746.438 -1610.72 768.579 -1611.75 790.856C-1611.75 797.298 -1612 806.674 -1611.35 813.149C-1611.23 819.574 -1609.98 826.657 -1609.34 832.879C-1584.87 980.399 -1452 1094.51 -1320.32 1151.24C-1295.94 1161.8 -1270.95 1170.9 -1245.56 1178.68C-1296.21 1163.38 -1345.86 1142.35 -1391.44 1115.42C-1498.05 1052.36 -1599.24 946.167 -1612.48 818.225C-1615.19 786.724 -1611.38 754.482 -1599.11 725.207C-1597.06 720.654 -1594.92 716.118 -1592.69 711.649C-1591.49 709.44 -1588.91 705.173 -1587.69 702.981L-1586.44 700.823C-1586.02 700.098 -1585.52 699.44 -1585.06 698.748C-1582.61 695.19 -1578.92 689.592 -1576.32 686.556L-1573.16 682.678C-1569.12 677.4 -1564.18 672.745 -1559.64 667.956C-1556.36 665.056 -1551.5 660.553 -1548.41 658.007C-1544.46 654.971 -1540.44 651.801 -1536.46 648.951C-1532.78 646.557 -1527.31 642.88 -1523.88 640.772C-1521.33 639.373 -1513.48 634.938 -1510.78 633.454C-1432.58 594.432 -1341.52 594.567 -1256.5 604.516C-1226.83 608.243 -1197.28 613.437 -1168.09 619.862C-1116.16 631.363 -1065.05 646.27 -1014.75 663.504C-764.699 752.053 -489.743 771.261 -230.352 714.887C-64.6216 679.524 196.323 577.94 244.875 399.172C279.162 262.984 153.746 159.595 47.373 100.303C15.9052 82.5126 -17.4198 66.0203 -50.9811 52.7657C-169.408 6.1893 -282.601 5.54849 -395.609 67.1501C-483.496 114.671 -556.528 183.777 -634.995 244.704C-717.936 310.319 -811.698 368.177 -917.717 385.378C-970 394.366 -1024.31 393.809 -1076.74 386.002C-1243.52 363.557 -1380.1 273.641 -1437.5 111.349C-1473.07 11.2146 -1479.33 -98.3126 -1463.54 -202.949L-1463.46 -202.933Z" fill="#73206F"/>
</g>
</g>
</svg>
