<svg width="1280" height="1046" viewBox="0 0 1280 1046" fill="none" xmlns="http://www.w3.org/2000/svg">
<g clip-path="url(#clip0_39_5171)">
<path d="M-41.5672 899.802C1.53842 864.495 59.85 842.939 116.734 842.098C131.505 841.822 146.333 842.916 160.56 845.24C172.489 847.014 184.251 849.93 195.579 853.111C222.933 860.943 250.997 868.651 279.001 874.978C311.808 882.035 346.759 888.591 381.85 881.899C394.311 879.74 406.344 875.814 418.473 872.549C425.755 870.902 433.125 870.106 440.515 869.606C498.964 866.361 577.135 881.293 611.972 824.033C645.857 773.793 715.983 737.121 779.338 725.194C789.136 723.63 799.08 724.016 808.913 724.319C818.765 724.689 828.593 725.285 838.435 725.846C877.783 727.958 917.806 730.092 957.667 722.71C989.552 716.668 1015.99 704.246 1032.68 678.279C1058.04 639.312 1070.89 596.279 1093.1 556.289C1117.78 510.024 1153.9 465.951 1213.66 452.416C1225.63 449.644 1238.35 446.861 1250.44 444.815C1274.96 440.465 1300.03 438.184 1324.08 441.575C1333.76 442.847 1343.39 444.632 1353.34 445.029C1368.34 445.701 1383.58 443.081 1398.35 439.429C1400.8 438.789 1403.25 438.192 1405.69 437.514L1412.98 435.447C1439.16 427.999 1456.74 410.708 1464.61 387.994C1473.76 362.661 1473.27 336.472 1478.44 310.88C1481.78 294.259 1488.79 275.393 1507.84 266.682L1507.69 266.42C1488.31 275.025 1480.95 294.064 1477.35 310.797C1471.76 336.401 1471.98 362.435 1462.66 387.596C1453.1 413.292 1434.89 428.132 1405.1 435.281C1388.33 439.751 1370.9 443.278 1353.77 442.45C1339 441.724 1324.89 438.149 1310.08 437.413C1280.27 435.695 1249.91 441.231 1220.39 447.772C1132.61 464.294 1094.81 539.008 1066.28 604.285C1052.7 633.299 1037.84 675.846 1011.39 697.903C967.393 731.738 891.065 726.344 838.734 724.199C828.885 723.703 819.036 723.165 809.14 722.859C799.251 722.624 789.258 722.282 779.177 723.946C721.493 735.257 661.434 765.212 623.91 806.861C619.973 811.218 616.236 816.03 612.829 820.688C611.102 823.222 608.68 826.782 606.87 829.287C596.304 844.608 578.68 855.821 559.312 860.889C520.067 871.425 480.117 865.268 440.568 867.298C430.544 867.872 420.273 869.119 410.56 872.151C393.829 877.247 376.681 881.197 359.36 881.89C342.107 882.648 324.992 880.646 308.403 877.946C284.925 873.979 260.787 868.173 238.099 862.225C219.787 857.522 201.049 851.863 182.708 847.189C163.968 842.594 144.258 840.27 124.35 840.087C84.5302 839.669 43.7025 849.509 7.80757 867.372C-5.64369 874.049 -18.5175 881.733 -30.3907 890.473C-34.342 893.395 -38.2088 896.398 -41.839 899.627L-41.5964 899.831L-41.5619 899.821L-41.5672 899.802Z" fill="#FAECC8"/>
<path d="M-46.7401 889.163C-3.63443 853.856 54.6771 832.3 111.562 831.46C126.332 831.183 141.16 832.277 155.387 834.601C167.316 836.376 179.078 839.291 190.406 842.473C217.76 850.305 245.825 858.012 273.828 864.34C306.636 871.397 341.586 877.953 376.677 871.26C389.138 869.102 401.171 865.175 413.3 861.911C420.582 860.263 427.952 859.467 435.342 858.968C493.791 855.722 571.963 870.655 606.799 813.394C640.684 763.154 710.81 726.483 774.165 714.556C783.964 712.991 793.907 713.378 803.74 713.68C813.592 714.051 823.42 714.646 833.263 715.207C872.61 717.32 912.633 719.453 952.494 712.072C984.38 706.03 1010.82 693.607 1027.51 667.64C1052.87 628.673 1065.72 585.641 1087.93 545.651C1112.61 499.385 1148.73 455.312 1208.49 441.778C1220.45 439.006 1233.18 436.222 1245.27 434.176C1269.79 429.827 1294.85 427.545 1318.9 430.936C1328.58 432.208 1338.22 433.994 1348.17 434.39C1363.16 435.062 1378.41 432.442 1393.17 428.79C1395.63 428.151 1398.08 427.553 1400.52 426.875L1407.81 424.808C1433.98 417.361 1451.57 400.069 1459.43 377.355C1468.58 352.023 1468.09 325.834 1473.27 300.241C1476.61 283.621 1483.61 264.755 1502.66 256.043L1502.52 255.781C1483.14 264.386 1475.78 283.425 1472.18 300.158C1466.59 325.763 1466.81 351.796 1457.49 376.957C1447.93 402.653 1429.72 417.493 1399.92 424.642C1383.16 429.113 1365.73 432.64 1348.59 431.811C1333.83 431.085 1319.71 427.51 1304.91 426.774C1275.1 425.057 1244.73 430.593 1215.22 437.133C1127.44 453.655 1089.64 528.369 1061.11 593.646C1047.52 622.661 1032.66 665.208 1006.22 687.264C962.221 721.099 885.892 715.705 833.562 713.56C823.712 713.064 813.863 712.526 803.967 712.22C794.078 711.985 784.085 711.644 774.005 713.308C716.32 724.619 656.261 754.574 618.737 796.222C614.8 800.579 611.063 805.391 607.656 810.049C605.929 812.583 603.507 816.144 601.697 818.648C591.131 833.969 573.507 845.183 554.139 850.25C514.894 860.786 474.944 854.629 435.395 856.659C425.371 857.233 415.101 858.481 405.387 861.512C388.657 866.608 371.508 870.558 354.187 871.252C336.934 872.009 319.819 870.008 303.23 867.307C279.752 863.34 255.615 857.534 232.926 851.586C214.615 846.883 195.876 841.224 177.536 836.55C158.795 831.955 139.086 829.632 119.177 829.449C79.3573 829.031 38.5297 838.87 2.63472 856.734C-10.8165 863.41 -23.6903 871.094 -35.5636 879.834C-39.5148 882.757 -43.3816 885.759 -47.0119 888.989L-46.7693 889.192L-46.7347 889.183L-46.7401 889.163Z" fill="#FAECC8"/>
<path d="M-51.9178 878.517C-8.81216 843.21 49.4994 821.653 106.384 820.813C121.154 820.537 135.982 821.631 150.21 823.955C162.139 825.729 173.901 828.644 185.228 831.826C212.583 839.658 240.647 847.366 268.65 853.693C301.458 860.75 336.409 867.306 371.499 860.613C383.961 858.455 395.993 854.529 408.122 851.264C415.404 849.617 422.774 848.82 430.164 848.321C488.613 845.076 566.785 860.008 601.622 802.748C635.506 752.508 705.632 715.836 768.988 703.909C778.786 702.345 788.729 702.731 798.562 703.034C808.414 703.404 818.242 704 828.085 704.56C867.432 706.673 907.456 708.807 947.316 701.425C979.202 695.383 1005.64 682.961 1022.33 656.994C1047.69 618.026 1060.54 574.994 1082.75 535.004C1107.43 488.739 1143.55 444.666 1203.31 431.131C1215.28 428.359 1228 425.576 1240.09 423.53C1264.61 419.18 1289.68 416.898 1313.73 420.289C1323.41 421.562 1333.04 423.347 1342.99 423.744C1357.99 424.415 1373.23 421.796 1388 418.143C1390.45 417.504 1392.9 416.907 1395.34 416.228L1402.63 414.162C1428.8 406.714 1446.39 389.423 1454.26 366.709C1463.41 341.376 1462.92 315.187 1468.09 289.594C1471.43 272.974 1478.44 254.108 1497.49 245.397L1497.34 245.135C1477.96 253.739 1470.6 272.779 1467 289.511C1461.41 315.116 1461.63 341.15 1452.31 366.311C1442.75 392.007 1424.54 406.846 1394.75 413.996C1377.98 418.466 1360.55 421.993 1343.41 421.165C1328.65 420.439 1314.54 416.864 1299.73 416.128C1269.92 414.41 1239.56 419.946 1210.04 426.487C1122.26 443.009 1084.46 517.722 1055.93 583C1042.35 612.014 1027.49 654.561 1001.04 676.618C957.043 710.452 880.715 705.058 828.384 702.913C818.534 702.417 808.685 701.88 798.789 701.574C788.9 701.339 778.908 700.997 768.827 702.661C711.142 713.972 651.083 743.927 613.559 785.576C609.622 789.933 605.886 794.745 602.479 799.403C600.751 801.937 598.329 805.497 596.52 808.002C585.953 823.323 568.33 834.536 548.961 839.604C509.717 850.14 469.766 843.983 430.217 846.013C420.194 846.587 409.923 847.834 400.21 850.866C383.479 855.962 366.331 859.912 349.01 860.605C331.756 861.363 314.641 859.361 298.052 856.661C274.574 852.694 250.437 846.888 227.748 840.94C209.437 836.236 190.699 830.578 172.358 825.904C153.617 821.309 133.908 818.985 113.999 818.802C74.1796 818.384 33.352 828.224 -2.54301 846.087C-15.9943 852.764 -28.8681 860.448 -40.7413 869.188C-44.6926 872.11 -48.5593 875.113 -52.1896 878.342L-51.947 878.546L-51.9125 878.536L-51.9178 878.517Z" fill="#FAECC8"/>
<path d="M-57.0956 867.872C-13.9899 832.565 44.3216 811.009 101.206 810.169C115.976 809.892 130.805 810.986 145.032 813.31C156.961 815.085 168.723 818 180.05 821.182C207.405 829.014 235.469 836.721 263.472 843.049C296.28 850.106 331.231 856.662 366.322 849.969C378.783 847.811 390.815 843.884 402.944 840.619C410.226 838.972 417.596 838.176 424.986 837.677C483.435 834.431 561.607 849.364 596.444 792.103C630.329 741.863 700.454 705.192 763.81 693.265C773.608 691.7 783.551 692.087 793.384 692.389C803.236 692.76 813.064 693.355 822.904 693.906C862.252 696.019 902.275 698.153 942.136 690.771C974.021 684.729 1000.46 672.307 1017.15 646.34C1042.51 607.372 1055.36 564.34 1077.57 524.35C1102.25 478.085 1138.37 434.011 1198.13 420.477C1210.1 417.705 1222.82 414.922 1234.91 412.876C1259.43 408.526 1284.5 406.244 1308.55 409.635C1318.23 410.908 1327.86 412.693 1337.81 413.089C1352.81 413.761 1368.05 411.142 1382.82 407.489C1385.27 406.85 1387.72 406.252 1390.16 405.574L1397.45 403.508C1423.62 396.06 1441.21 378.768 1449.08 356.055C1458.23 330.722 1457.74 304.533 1462.91 278.94C1466.25 262.32 1473.25 243.454 1492.31 234.742L1492.16 234.481C1472.78 243.085 1465.42 262.124 1461.82 278.857C1456.23 304.462 1456.45 330.496 1447.13 355.657C1437.57 381.353 1419.36 396.192 1389.57 403.342C1372.8 407.812 1355.37 411.339 1338.23 410.511C1323.47 409.785 1309.35 406.21 1294.55 405.474C1264.74 403.756 1234.38 409.292 1204.86 415.833C1117.08 432.355 1079.28 507.068 1050.75 572.346C1037.17 601.36 1022.3 643.897 995.861 665.964C951.86 699.789 875.534 694.404 823.203 692.259C813.354 691.763 803.505 691.225 793.609 690.92C783.72 690.685 773.727 690.343 763.646 692.007C705.962 703.318 645.903 733.273 608.379 774.922C604.442 779.279 600.705 784.091 597.298 788.749C595.571 791.282 593.149 794.843 591.339 797.348C580.773 812.669 563.149 823.882 543.781 828.949C504.536 839.486 464.586 833.328 425.037 835.358C415.013 835.932 404.742 837.18 395.029 840.212C378.298 845.307 361.15 849.258 343.829 849.951C326.576 850.709 309.461 848.707 292.872 846.006C269.394 842.04 245.256 836.234 222.568 830.286C204.256 825.582 185.518 819.924 167.177 815.249C148.437 810.655 128.727 808.331 108.819 808.148C68.9992 807.73 28.1715 817.57 -7.72344 835.433C-21.1747 842.11 -34.0485 849.793 -45.9218 858.534C-49.873 861.456 -53.7398 864.459 -57.3701 867.688L-57.1274 867.892L-57.0929 867.882L-57.0956 867.872Z" fill="#FAECC8"/>
<path d="M-62.2713 857.224C-19.1657 821.917 39.1459 800.36 96.0304 799.52C110.8 799.244 125.629 800.338 139.856 802.662C151.785 804.436 163.547 807.351 174.875 810.533C202.229 818.365 230.293 826.073 258.297 832.4C291.104 839.457 326.055 846.013 361.146 839.32C373.607 837.162 385.639 833.236 397.769 829.971C405.051 828.324 412.42 827.528 419.811 827.028C478.26 823.783 556.431 838.715 591.268 781.455C625.153 731.215 695.279 694.543 758.634 682.616C768.432 681.052 778.376 681.438 788.209 681.741C798.061 682.111 807.889 682.707 817.729 683.258C857.076 685.371 897.099 687.504 936.96 680.122C968.846 674.08 995.287 661.658 1011.98 635.691C1037.33 596.724 1050.19 553.692 1072.39 513.702C1097.07 467.436 1133.19 423.363 1192.95 409.828C1204.92 407.056 1217.64 404.273 1229.74 402.227C1254.25 397.877 1279.32 395.596 1303.37 398.987C1313.05 400.259 1322.69 402.045 1332.63 402.441C1347.63 403.113 1362.88 400.493 1377.64 396.841C1380.09 396.201 1382.54 395.604 1384.98 394.926L1392.27 392.859C1418.45 385.411 1436.03 368.12 1443.9 345.406C1453.05 320.074 1452.56 293.885 1457.73 268.292C1461.08 251.671 1468.08 232.805 1487.13 224.094L1486.98 223.832C1467.6 232.437 1460.24 251.476 1456.64 268.209C1451.05 293.813 1451.28 319.847 1441.95 345.008C1432.4 370.704 1414.18 385.544 1384.39 392.693C1367.62 397.163 1350.19 400.691 1333.06 399.862C1318.3 399.136 1304.18 395.561 1289.38 394.825C1259.56 393.108 1229.2 398.644 1199.69 405.184C1111.91 421.706 1074.1 496.42 1045.58 561.697C1031.99 590.711 1017.13 633.249 990.685 655.315C946.684 689.14 870.358 683.756 818.028 681.611C808.178 681.115 798.329 680.577 788.433 680.271C778.544 680.036 768.551 679.695 758.471 681.358C700.786 692.669 640.727 722.625 603.203 764.273C599.266 768.63 595.529 773.442 592.122 778.1C590.395 780.634 587.973 784.195 586.163 786.699C575.597 802.02 557.973 813.234 538.605 818.301C499.36 828.837 459.41 822.68 419.861 824.71C409.838 825.284 399.567 826.532 389.853 829.563C373.123 834.659 355.974 838.609 338.653 839.302C321.4 840.06 304.285 838.058 287.696 835.358C264.218 831.391 240.081 825.585 217.392 819.637C199.081 814.934 180.342 809.275 162.002 804.601C143.261 800.006 123.552 797.683 103.643 797.499C63.8234 797.082 22.9957 806.921 -12.8992 824.785C-26.3505 831.461 -39.2243 839.145 -51.0975 847.885C-55.0488 850.807 -58.9155 853.81 -62.5458 857.039L-62.3032 857.243L-62.2687 857.233L-62.2713 857.224Z" fill="#FAECC8"/>
<path d="M-67.4462 846.577C-24.3405 811.271 33.9711 789.714 90.8556 788.874C105.626 788.597 120.454 789.691 134.681 792.015C146.61 793.79 158.372 796.705 169.7 799.887C197.054 807.719 225.119 815.426 253.122 821.754C285.93 828.811 320.88 835.367 355.971 828.674C368.432 826.516 380.465 822.59 392.594 819.325C399.876 817.677 407.246 816.881 414.636 816.382C473.085 813.136 551.257 828.069 586.093 770.808C619.978 720.568 690.104 683.897 753.459 671.97C763.258 670.405 773.201 670.792 783.034 671.094C792.886 671.465 802.714 672.06 812.556 672.621C851.904 674.734 891.927 676.867 931.788 669.486C963.673 663.444 990.115 651.021 1006.8 625.054C1032.16 586.087 1045.01 543.055 1067.22 503.065C1091.9 456.799 1128.02 412.726 1187.78 399.192C1199.75 396.42 1212.47 393.637 1224.56 391.59C1249.08 387.241 1274.15 384.959 1298.2 388.35C1307.88 389.623 1317.52 391.408 1327.46 391.804C1342.46 392.476 1357.71 389.856 1372.47 386.204C1374.92 385.565 1377.37 384.967 1379.81 384.289L1387.1 382.222C1413.28 374.775 1430.86 357.483 1438.73 334.769C1447.88 309.437 1447.39 283.248 1452.56 257.655C1455.91 241.035 1462.91 222.169 1481.96 213.457L1481.81 213.196C1462.43 221.8 1455.07 240.839 1451.47 257.572C1445.88 283.177 1446.1 309.21 1436.78 334.372C1427.23 360.067 1409.01 374.907 1379.22 382.056C1362.45 386.527 1345.02 390.054 1327.89 389.226C1313.12 388.499 1299.01 384.924 1284.2 384.188C1254.39 382.471 1224.03 388.007 1194.51 394.548C1106.74 411.07 1068.93 485.783 1040.4 551.06C1026.82 580.075 1011.95 622.612 985.513 644.678C941.512 678.503 865.186 673.119 812.856 670.974C803.006 670.478 793.157 669.94 783.261 669.634C773.372 669.399 763.379 669.058 753.298 670.722C695.614 682.033 635.555 711.988 598.031 753.636C594.094 757.993 590.357 762.805 586.95 767.463C585.223 769.997 582.801 773.558 580.991 776.062C570.425 791.383 552.801 802.597 533.433 807.664C494.188 818.201 454.238 812.043 414.689 814.073C404.665 814.647 394.394 815.895 384.681 818.926C367.951 824.022 350.802 827.972 333.481 828.666C316.228 829.423 299.113 827.422 282.524 824.721C259.046 820.754 234.909 814.948 212.22 809C193.908 804.297 175.17 798.638 156.829 793.964C138.089 789.369 118.38 787.046 98.4708 786.863C58.6513 786.445 17.8236 796.285 -18.0713 814.148C-31.5226 820.824 -44.3964 828.508 -56.2697 837.248C-60.2209 840.171 -64.0877 843.173 -67.7179 846.403L-67.4753 846.606L-67.4408 846.597L-67.4462 846.577Z" fill="#FAECC8"/>
<path d="M-72.618 835.941C-29.5124 800.634 28.7992 779.077 85.6837 778.237C100.454 777.961 115.282 779.054 129.51 781.379C141.438 783.153 153.2 786.068 164.528 789.25C191.882 797.082 219.947 804.789 247.95 811.117C280.758 818.174 315.708 824.73 350.799 818.037C363.26 815.879 375.293 811.953 387.422 808.688C394.704 807.04 402.074 806.244 409.464 805.745C467.913 802.5 546.085 817.432 580.922 760.172C614.806 709.932 684.932 673.26 748.287 661.333C758.086 659.769 768.029 660.155 777.862 660.458C787.714 660.828 797.542 661.424 807.385 661.984C846.732 664.097 886.755 666.231 926.616 658.849C958.502 652.807 984.943 640.385 1001.63 614.418C1026.99 575.45 1039.84 532.418 1062.05 492.428C1086.73 446.163 1122.85 402.089 1182.61 388.555C1194.58 385.783 1207.3 383 1219.39 380.954C1243.91 376.604 1268.98 374.322 1293.03 377.713C1302.71 378.986 1312.34 380.771 1322.29 381.167C1337.29 381.839 1352.53 379.22 1367.3 375.567C1369.75 374.928 1372.2 374.33 1374.64 373.652L1381.93 371.586C1408.1 364.138 1425.69 346.846 1433.56 324.133C1442.71 298.8 1442.22 272.611 1447.39 247.018C1450.73 230.398 1457.73 211.532 1476.79 202.82L1476.64 202.559C1457.26 211.163 1449.9 230.203 1446.3 246.935C1440.71 272.54 1440.93 298.574 1431.61 323.735C1422.05 349.431 1403.84 364.27 1374.05 371.42C1357.28 375.89 1339.85 379.417 1322.71 378.589C1307.95 377.863 1293.84 374.288 1279.03 373.552C1249.22 371.834 1218.86 377.37 1189.34 383.911C1101.56 400.433 1063.76 475.146 1035.23 540.424C1021.65 569.438 1006.79 611.985 980.341 634.042C936.343 667.876 860.014 662.482 807.684 660.337C797.834 659.841 787.985 659.303 778.089 658.998C768.2 658.763 758.207 658.421 748.127 660.085C690.442 671.396 630.383 701.351 592.859 743C588.922 747.357 585.185 752.169 581.779 756.827C580.051 759.36 577.629 762.921 575.819 765.426C565.253 780.747 547.629 791.96 528.261 797.027C489.016 807.564 449.066 801.406 409.517 803.436C399.494 804.011 389.223 805.258 379.509 808.29C362.779 813.385 345.63 817.336 328.309 818.029C311.056 818.787 293.941 816.785 277.352 814.084C253.874 810.118 229.737 804.312 207.048 798.364C188.737 793.66 169.998 788.002 151.658 783.327C132.917 778.733 113.208 776.409 93.2989 776.226C53.4794 775.808 12.6518 785.648 -23.2432 803.511C-36.6945 810.188 -49.5682 817.871 -61.4415 826.612C-65.3928 829.534 -69.2595 832.537 -72.8898 835.766L-72.6472 835.97L-72.6126 835.96L-72.618 835.941Z" fill="#FAECC8"/>
<path d="M-77.7967 825.294C-34.6911 789.987 23.6205 768.431 80.505 767.591C95.2751 767.314 110.103 768.408 124.331 770.732C136.26 772.506 148.022 775.422 159.349 778.604C186.704 786.435 214.768 794.143 242.771 800.47C275.579 807.528 310.53 814.083 345.62 807.391C358.082 805.232 370.114 801.306 382.243 798.041C389.525 796.394 396.895 795.598 404.285 795.098C462.734 791.853 540.906 806.786 575.743 749.525C609.627 699.285 679.753 662.614 743.109 650.687C752.907 649.122 762.85 649.509 772.683 649.811C782.535 650.181 792.363 650.777 802.206 651.338C841.554 653.451 881.577 655.584 921.438 648.202C953.323 642.16 979.765 629.738 996.453 603.771C1021.81 564.804 1034.66 521.772 1056.87 481.782C1081.55 435.516 1117.67 391.443 1177.43 377.908C1189.4 375.137 1202.12 372.353 1214.21 370.307C1238.73 365.957 1263.8 363.676 1287.85 367.067C1297.53 368.339 1307.16 370.125 1317.11 370.521C1332.11 371.193 1347.36 368.573 1362.12 364.921C1364.57 364.281 1367.02 363.684 1369.46 363.006L1376.75 360.939C1402.93 353.491 1420.51 336.2 1428.38 313.486C1437.53 288.154 1437.04 261.965 1442.21 236.372C1445.55 219.751 1452.56 200.885 1471.61 192.174L1471.46 191.912C1452.08 200.517 1444.72 219.556 1441.12 236.289C1435.53 261.893 1435.75 287.927 1426.43 313.088C1416.87 338.784 1398.66 353.624 1368.87 360.773C1352.1 365.243 1334.67 368.771 1317.54 367.942C1302.77 367.216 1288.66 363.641 1273.85 362.905C1244.04 361.188 1213.68 366.724 1184.16 373.264C1096.38 389.786 1058.58 464.5 1030.05 529.777C1016.47 558.791 1001.6 601.342 975.162 623.395C931.164 657.23 854.836 651.836 802.505 649.691C792.655 649.195 782.806 648.657 772.91 648.351C763.022 648.116 753.029 647.775 742.948 649.438C685.263 660.749 625.204 690.705 587.68 732.353C583.743 736.71 580.007 741.522 576.6 746.18C574.872 748.714 572.451 752.275 570.641 754.779C560.074 770.1 542.451 781.314 523.083 786.381C483.838 796.917 443.887 790.76 404.339 792.79C394.315 793.364 384.044 794.611 374.331 797.643C357.6 802.739 340.452 806.689 323.131 807.382C305.877 808.14 288.762 806.138 272.173 803.438C248.695 799.471 224.558 793.665 201.869 787.717C183.558 783.014 164.82 777.355 146.479 772.681C127.739 768.086 108.029 765.763 88.1202 765.579C48.3007 765.162 7.47304 775.001 -28.4219 792.865C-41.8732 799.541 -54.747 807.225 -66.6202 815.965C-70.5715 818.887 -74.4382 821.89 -78.0685 825.119L-77.8259 825.323L-77.7914 825.313L-77.7967 825.294Z" fill="#FAECC8"/>
<path d="M-82.9735 814.648C-39.8678 779.341 18.4437 757.784 75.3282 756.944C90.0983 756.668 104.927 757.761 119.154 760.086C131.083 761.86 142.845 764.775 154.173 767.957C181.527 775.789 209.591 783.497 237.595 789.824C270.402 796.881 305.353 803.437 340.444 796.744C352.905 794.586 364.937 790.66 377.066 787.395C384.348 785.747 391.718 784.951 399.108 784.452C457.557 781.207 535.729 796.139 570.566 738.879C604.451 688.639 674.576 651.967 737.932 640.04C747.73 638.476 757.673 638.862 767.507 639.165C777.359 639.535 787.186 640.131 797.026 640.682C836.374 642.794 876.397 644.928 916.258 637.546C948.143 631.504 974.585 619.082 991.274 593.115C1016.63 554.148 1029.48 511.116 1051.69 471.125C1076.37 424.86 1112.49 380.787 1172.25 367.252C1184.22 364.48 1196.94 361.697 1209.03 359.651C1233.55 355.301 1258.62 353.02 1282.67 356.411C1292.35 357.683 1301.99 359.468 1311.93 359.865C1326.93 360.537 1342.18 357.917 1356.94 354.265C1359.39 353.625 1361.84 353.028 1364.28 352.35L1371.57 350.283C1397.75 342.835 1415.33 325.544 1423.2 302.83C1432.35 277.497 1431.86 251.308 1437.03 225.716C1440.38 209.095 1447.38 190.229 1466.43 181.518L1466.28 181.256C1446.9 189.861 1439.54 208.9 1435.94 225.633C1430.35 251.237 1430.57 277.271 1421.25 302.432C1411.7 328.128 1393.48 342.968 1363.69 350.117C1346.92 354.587 1329.49 358.114 1312.36 357.286C1297.59 356.56 1283.48 352.985 1268.67 352.249C1238.86 350.531 1208.5 356.067 1178.98 362.608C1091.21 379.13 1053.4 453.844 1024.87 519.121C1011.29 548.135 996.425 590.673 969.983 612.739C925.982 646.564 849.656 641.18 797.326 639.035C787.476 638.539 777.627 638.001 767.731 637.695C757.842 637.46 747.849 637.118 737.768 638.782C680.084 650.093 620.025 680.049 582.501 721.697C578.564 726.054 574.827 730.866 571.42 735.524C569.693 738.058 567.271 741.618 565.461 744.123C554.895 759.444 537.271 770.657 517.903 775.725C478.658 786.261 438.708 780.104 399.159 782.134C389.135 782.708 378.864 783.955 369.151 786.987C352.421 792.083 335.272 796.033 317.951 796.726C300.698 797.484 283.583 795.482 266.994 792.782C243.516 788.815 219.379 783.009 196.69 777.061C178.378 772.358 159.64 766.699 141.299 762.025C122.559 757.43 102.85 755.106 82.9408 754.923C43.1213 754.505 2.2936 764.345 -33.6014 782.208C-47.0526 788.885 -59.9264 796.569 -71.7997 805.309C-75.7509 808.231 -79.6177 811.234 -83.248 814.463L-83.0054 814.667L-82.9708 814.657L-82.9735 814.648Z" fill="#FAECC8"/>
<path d="M-88.1493 804.001C-45.0436 768.694 13.2679 747.138 70.1524 746.298C84.9225 746.021 99.7509 747.115 113.978 749.439C125.907 751.214 137.669 754.129 148.997 757.311C176.351 765.142 204.415 772.85 232.419 779.177C265.226 786.235 300.177 792.79 335.268 786.098C347.729 783.939 359.761 780.013 371.891 776.748C379.173 775.101 386.542 774.305 393.933 773.805C452.382 770.56 530.553 785.493 565.39 728.232C599.275 677.992 669.401 641.321 732.756 629.394C742.554 627.829 752.498 628.216 762.331 628.518C772.183 628.888 782.011 629.484 791.851 630.035C831.198 632.148 871.222 634.282 911.082 626.9C942.968 620.858 969.409 608.435 986.098 582.469C1011.45 543.501 1024.31 500.469 1046.52 460.479C1071.2 414.213 1107.31 370.14 1167.07 356.606C1179.04 353.834 1191.76 351.051 1203.86 349.004C1228.38 344.655 1253.44 342.373 1277.49 345.764C1287.17 347.037 1296.81 348.822 1306.76 349.218C1321.75 349.89 1337 347.271 1351.76 343.618C1354.21 342.979 1356.67 342.381 1359.11 341.703L1366.4 339.637C1392.57 332.189 1410.16 314.897 1418.02 292.183C1427.17 266.851 1426.68 240.662 1431.85 215.069C1435.2 198.449 1442.2 179.583 1461.25 170.871L1461.1 170.61C1441.73 179.214 1434.36 198.253 1430.76 214.986C1425.17 240.591 1425.4 266.625 1416.08 291.786C1406.52 317.482 1388.3 332.321 1358.51 339.471C1341.74 343.941 1324.32 347.468 1307.18 346.64C1292.42 345.913 1278.3 342.338 1263.5 341.602C1233.69 339.885 1203.32 345.421 1173.81 351.962C1086.03 368.484 1048.23 443.197 1019.7 508.474C1006.11 537.489 991.249 580.026 964.807 602.093C920.806 635.917 844.48 630.533 792.15 628.388C782.3 627.892 772.451 627.354 762.555 627.048C752.666 626.814 742.673 626.472 732.593 628.136C674.908 639.447 614.849 669.402 577.325 711.051C573.388 715.408 569.652 720.22 566.245 724.878C564.517 727.411 562.095 730.972 560.286 733.476C549.719 748.797 532.096 760.011 512.727 765.078C473.482 775.615 433.532 769.457 393.983 771.487C383.96 772.061 373.689 773.309 363.976 776.341C347.245 781.436 330.097 785.386 312.775 786.08C295.522 786.838 278.407 784.836 261.818 782.135C238.34 778.169 214.203 772.362 191.514 766.414C173.203 761.711 154.464 756.053 136.124 751.378C117.383 746.784 97.6738 744.46 77.765 744.277C37.9455 743.859 -2.88219 753.699 -38.7772 771.562C-52.2284 778.238 -65.1022 785.922 -76.9755 794.663C-80.9267 797.585 -84.7935 800.588 -88.4238 803.817L-88.1811 804.02L-88.1466 804.011L-88.1493 804.001Z" fill="#FAECC8"/>
<path d="M-93.3241 793.355C-50.2184 758.048 8.09313 736.491 64.9776 735.651C79.7477 735.375 94.5761 736.468 108.803 738.793C120.732 740.567 132.494 743.482 143.822 746.664C171.176 754.496 199.241 762.204 227.244 768.531C260.052 775.588 295.002 782.144 330.093 775.451C342.554 773.293 354.587 769.367 366.716 766.102C373.998 764.454 381.368 763.658 388.758 763.159C447.207 759.914 525.379 774.846 560.215 717.586C594.1 667.346 664.226 630.674 727.581 618.747C737.38 617.183 747.323 617.569 757.156 617.872C767.008 618.242 776.836 618.838 786.676 619.389C826.024 621.501 866.047 623.635 905.908 616.253C937.793 610.211 964.235 597.789 980.923 571.822C1006.28 532.855 1019.13 489.823 1041.34 449.832C1066.02 403.567 1102.14 359.494 1161.9 345.959C1173.87 343.187 1186.59 340.404 1198.68 338.358C1223.2 334.008 1248.27 331.727 1272.32 335.118C1282 336.39 1291.63 338.175 1301.58 338.572C1316.58 339.244 1331.83 336.624 1346.59 332.972C1349.04 332.332 1351.49 331.735 1353.93 331.057L1361.22 328.99C1387.4 321.542 1404.98 304.251 1412.85 281.537C1422 256.204 1421.51 230.015 1426.68 204.423C1430.02 187.802 1437.03 168.936 1456.08 160.225L1455.93 159.963C1436.55 168.568 1429.19 187.607 1425.59 204.34C1420 229.944 1420.22 255.978 1410.9 281.139C1401.34 306.835 1383.13 321.675 1353.34 328.824C1336.57 333.294 1319.14 336.821 1302.01 335.993C1287.24 335.267 1273.13 331.692 1258.32 330.956C1228.51 329.238 1198.15 334.774 1168.63 341.315C1080.85 357.837 1043.05 432.551 1014.52 497.828C1000.94 526.842 986.074 569.38 959.632 591.446C915.631 625.271 839.306 619.887 786.975 617.742C777.125 617.246 767.276 616.708 757.38 616.402C747.492 616.167 737.499 615.826 727.418 617.489C669.733 628.8 609.674 658.756 572.15 700.404C568.213 704.761 564.477 709.573 561.07 714.231C559.342 716.765 556.921 720.325 555.111 722.83C544.544 738.151 526.921 749.364 507.553 754.432C468.308 764.968 428.357 758.811 388.809 760.841C378.785 761.415 368.514 762.662 358.801 765.694C342.07 770.79 324.922 774.74 307.601 775.433C290.347 776.191 273.232 774.189 256.643 771.489C233.165 767.522 209.028 761.716 186.339 755.768C168.028 751.065 149.29 745.406 130.949 740.732C112.209 736.137 92.499 733.813 72.5902 733.63C32.7707 733.212 -8.05699 743.052 -43.952 760.915C-57.4032 767.592 -70.277 775.276 -82.1503 784.016C-86.1015 786.938 -89.9683 789.941 -93.5986 793.17L-93.3559 793.374L-93.3214 793.364L-93.3241 793.355Z" fill="#FAECC8"/>
<path d="M-98.494 782.716C-55.3883 747.409 2.92322 725.853 59.8077 725.012C74.5778 724.736 89.4061 725.83 103.634 728.154C115.562 729.928 127.324 732.844 138.652 736.026C166.006 743.857 194.071 751.565 222.074 757.892C254.882 764.949 289.832 771.505 324.923 764.813C337.384 762.654 349.417 758.728 361.546 755.463C368.828 753.816 376.198 753.02 383.588 752.52C442.037 749.275 520.209 764.207 555.046 706.947C588.93 656.707 659.056 620.036 722.411 608.108C732.21 606.544 742.153 606.931 751.986 607.233C761.838 607.603 771.666 608.199 781.509 608.76C820.856 610.872 860.88 613.006 900.74 605.624C932.626 599.582 959.067 587.16 975.756 561.193C1001.11 522.226 1013.97 479.194 1036.17 439.204C1060.85 392.938 1096.97 348.865 1156.73 335.33C1168.7 332.558 1181.42 329.775 1193.52 327.729C1218.03 323.379 1243.1 321.098 1267.15 324.489C1276.83 325.761 1286.47 327.546 1296.41 327.943C1311.41 328.615 1326.66 325.995 1341.42 322.343C1343.87 321.703 1346.32 321.106 1348.76 320.428L1356.05 318.361C1382.23 310.913 1399.81 293.622 1407.68 270.908C1416.83 245.576 1416.34 219.386 1421.51 193.794C1424.86 177.173 1431.86 158.307 1450.91 149.596L1450.76 149.334C1431.38 157.939 1424.02 176.978 1420.42 193.711C1414.83 219.315 1415.06 245.349 1405.73 270.51C1396.18 296.206 1377.96 311.046 1348.17 318.195C1331.4 322.665 1313.97 326.192 1296.84 325.364C1282.08 324.638 1267.96 321.063 1253.16 320.327C1223.34 318.61 1192.98 324.145 1163.47 330.686C1075.69 347.208 1037.88 421.922 1009.36 487.199C995.771 516.213 980.907 558.751 954.465 580.817C910.467 614.652 834.138 609.258 781.808 607.113C771.958 606.617 762.109 606.079 752.213 605.773C742.324 605.538 732.331 605.197 722.251 606.86C664.566 618.171 604.507 648.127 566.983 689.775C563.046 694.132 559.31 698.944 555.903 703.602C554.175 706.136 551.753 709.697 549.943 712.201C539.377 727.522 521.753 738.735 502.385 743.803C463.14 754.339 423.19 748.182 383.641 750.212C373.618 750.786 363.347 752.033 353.633 755.065C336.903 760.161 319.755 764.111 302.433 764.804C285.18 765.562 268.065 763.56 251.476 760.86C227.998 756.893 203.861 751.087 181.172 745.139C162.861 740.436 144.122 734.777 125.782 730.103C107.041 725.508 87.3317 723.184 67.4229 723.001C27.6034 722.584 -13.2242 732.423 -49.1192 750.286C-62.5704 756.963 -75.4442 764.647 -87.3175 773.387C-91.2687 776.309 -95.1355 779.312 -98.7658 782.541L-98.5232 782.745L-98.4886 782.735L-98.494 782.716Z" fill="#FAECC8"/>
<path d="M-103.673 772.069C-60.567 736.763 -2.2555 715.206 54.629 714.366C69.3991 714.089 84.2274 715.183 98.4548 717.508C110.384 719.282 122.146 722.197 133.473 725.379C160.828 733.211 188.892 740.918 216.895 747.246C249.703 754.303 284.654 760.859 319.744 754.166C332.206 752.008 344.238 748.082 356.367 744.817C363.649 743.169 371.019 742.373 378.409 741.874C436.858 738.629 515.03 753.561 549.867 696.301C583.751 646.061 653.877 609.389 717.233 597.462C727.031 595.897 736.974 596.284 746.807 596.587C756.659 596.957 766.487 597.553 776.33 598.113C815.678 600.226 855.701 602.36 895.562 594.978C927.447 588.936 953.889 576.513 970.577 550.547C995.934 511.579 1008.79 468.547 1030.99 428.557C1055.68 382.291 1091.79 338.218 1151.55 324.684C1163.52 321.912 1176.24 319.129 1188.34 317.082C1212.85 312.733 1237.92 310.451 1261.97 313.842C1271.65 315.115 1281.29 316.9 1291.23 317.296C1306.23 317.968 1321.48 315.349 1336.24 311.696C1338.69 311.057 1341.14 310.459 1343.59 309.781L1350.88 307.715C1377.05 300.267 1394.63 282.975 1402.5 260.261C1411.65 234.929 1411.16 208.74 1416.33 183.147C1419.68 166.527 1426.68 147.661 1445.73 138.949L1445.58 138.688C1426.21 147.292 1418.84 166.331 1415.24 183.064C1409.65 208.669 1409.88 234.703 1400.56 259.864C1391 285.56 1372.78 300.399 1342.99 307.549C1326.22 312.019 1308.8 315.546 1291.66 314.718C1276.9 313.991 1262.78 310.416 1247.98 309.68C1218.17 307.963 1187.8 313.499 1158.29 320.04C1070.51 336.562 1032.71 411.275 1004.18 476.552C990.592 505.567 975.731 548.114 949.286 570.171C905.288 604.005 828.96 598.611 776.629 596.466C766.779 595.97 756.93 595.432 747.034 595.126C737.146 594.892 727.153 594.55 717.072 596.214C659.387 607.525 599.328 637.48 561.804 679.129C557.867 683.486 554.131 688.298 550.724 692.956C548.997 695.489 546.575 699.05 544.765 701.555C534.198 716.875 516.575 728.089 497.207 733.156C457.962 743.693 418.011 737.535 378.463 739.565C368.439 740.139 358.168 741.387 348.455 744.419C331.724 749.514 314.576 753.465 297.255 754.158C280.001 754.916 262.886 752.914 246.297 750.213C222.819 746.247 198.682 740.44 175.994 734.493C157.682 729.789 138.944 724.131 120.603 719.456C101.863 714.862 82.153 712.538 62.2442 712.355C22.4247 711.937 -18.4029 721.777 -54.2979 739.64C-67.7492 746.316 -80.6229 754 -92.4962 762.741C-96.4475 765.663 -100.314 768.666 -103.945 771.895L-103.702 772.098L-103.667 772.089L-103.673 772.069Z" fill="#FAECC8"/>
<path d="M-108.849 761.423C-65.7438 726.116 -7.43226 704.56 49.4522 703.719C64.2224 703.443 79.0507 704.537 93.2781 706.861C105.207 708.635 116.969 711.551 128.297 714.733C155.651 722.564 183.715 730.272 211.719 736.599C244.526 743.657 279.477 750.212 314.568 743.52C327.029 741.361 339.061 737.435 351.19 734.17C358.472 732.523 365.842 731.727 373.232 731.227C431.681 727.982 509.853 742.914 544.69 685.654C578.575 635.414 648.7 598.743 712.056 586.815C721.854 585.251 731.797 585.638 741.631 585.94C751.483 586.31 761.31 586.906 771.153 587.467C810.501 589.579 850.524 591.713 890.385 584.331C922.27 578.289 948.712 565.867 965.4 539.9C990.757 500.933 1003.61 457.901 1025.82 417.911C1050.5 371.645 1086.62 327.572 1146.38 314.037C1158.34 311.265 1171.07 308.482 1183.16 306.436C1207.68 302.086 1232.74 299.805 1256.79 303.196C1266.47 304.468 1276.11 306.254 1286.06 306.65C1301.05 307.322 1316.3 304.702 1331.07 301.05C1333.52 300.41 1335.97 299.813 1338.41 299.135L1345.7 297.068C1371.87 289.62 1389.46 272.329 1397.33 249.615C1406.48 224.283 1405.99 198.093 1411.16 172.501C1414.5 155.88 1421.5 137.014 1440.55 128.303L1440.41 128.041C1421.03 136.646 1413.67 155.685 1410.07 172.418C1404.48 198.022 1404.7 224.056 1395.38 249.217C1385.82 274.913 1367.61 289.753 1337.81 296.902C1321.05 301.372 1303.62 304.899 1286.48 304.071C1271.72 303.345 1257.6 299.77 1242.8 299.034C1212.99 297.317 1182.63 302.853 1153.11 309.393C1065.33 325.915 1027.53 400.629 999 465.906C985.415 494.92 970.543 537.471 944.11 559.524C900.111 593.359 823.783 587.965 771.452 585.82C761.603 585.324 751.754 584.786 741.858 584.48C731.969 584.245 721.976 583.904 711.895 585.567C654.211 596.878 594.151 626.834 556.628 668.482C552.69 672.839 548.954 677.651 545.547 682.309C543.82 684.843 541.398 688.404 539.588 690.908C529.022 706.229 511.398 717.443 492.03 722.51C452.785 733.046 412.835 726.889 373.286 728.919C363.262 729.493 352.991 730.74 343.278 733.772C326.547 738.868 309.399 742.818 292.078 743.511C274.824 744.269 257.71 742.267 241.12 739.567C217.643 735.6 193.505 729.794 170.817 723.846C152.505 719.143 133.767 713.484 115.426 708.81C96.6858 704.215 76.9763 701.892 57.0675 701.708C17.248 701.291 -23.5797 711.13 -59.4747 728.993C-72.9259 735.67 -85.7997 743.354 -97.673 752.094C-101.624 755.016 -105.491 758.019 -109.121 761.248L-108.879 761.452L-108.844 761.442L-108.849 761.423Z" fill="#FAECC8"/>
<path d="M-114.028 750.778C-70.9225 715.472 -12.611 693.915 44.2735 693.075C59.0436 692.798 73.872 693.892 88.0994 696.217C100.028 697.991 111.79 700.906 123.118 704.088C150.472 711.92 178.537 719.627 206.54 725.955C239.348 733.012 274.298 739.568 309.389 732.875C321.85 730.717 333.883 726.791 346.012 723.526C353.294 721.878 360.664 721.082 368.054 720.583C426.503 717.338 504.675 732.27 539.511 675.01C573.396 624.77 643.522 588.098 706.877 576.171C716.675 574.606 726.619 574.993 736.452 575.296C746.304 575.666 756.132 576.262 765.972 576.812C805.319 578.925 845.343 581.059 885.203 573.677C917.089 567.635 943.531 555.213 960.219 529.246C985.576 490.279 998.429 447.246 1020.64 407.256C1045.32 360.991 1081.44 316.918 1141.19 303.383C1153.16 300.611 1165.88 297.828 1177.98 295.782C1202.5 291.432 1227.56 289.15 1251.61 292.541C1261.29 293.814 1270.93 295.599 1280.88 295.996C1295.87 296.667 1311.12 294.048 1325.88 290.395C1328.34 289.756 1330.79 289.159 1333.23 288.481L1340.52 286.414C1366.69 278.966 1384.28 261.675 1392.14 238.961C1401.29 213.628 1400.8 187.439 1405.97 161.846C1409.32 145.226 1416.32 126.36 1435.37 117.649L1435.23 117.387C1415.85 125.991 1408.48 145.031 1404.88 161.763C1399.3 187.368 1399.52 213.402 1390.2 238.563C1380.64 264.259 1362.42 279.098 1332.63 286.248C1315.86 290.718 1298.44 294.245 1281.3 293.417C1266.54 292.691 1252.42 289.116 1237.62 288.38C1207.81 286.662 1177.44 292.198 1147.93 298.739C1060.15 315.261 1022.35 389.975 993.818 455.252C980.234 484.266 965.37 526.804 938.928 548.87C894.927 582.695 818.602 577.31 766.271 575.165C756.421 574.67 746.572 574.132 736.676 573.826C726.787 573.591 716.795 573.249 706.714 574.913C649.029 586.224 588.97 616.179 551.446 657.828C547.509 662.185 543.773 666.997 540.366 671.655C538.638 674.189 536.216 677.749 534.407 680.254C523.84 695.575 506.217 706.788 486.848 711.856C447.604 722.392 407.653 716.235 368.104 718.265C358.081 718.839 347.81 720.086 338.097 723.118C321.366 728.214 304.218 732.164 286.897 732.857C269.643 733.615 252.528 731.613 235.939 728.913C212.461 724.946 188.324 719.14 165.635 713.192C147.324 708.489 128.586 702.83 110.245 698.156C91.5044 693.561 71.7949 691.237 51.8861 691.054C12.0666 690.636 -28.7611 700.476 -64.6561 718.339C-78.1073 725.016 -90.9811 732.7 -102.854 741.44C-106.806 744.362 -110.672 747.365 -114.303 750.594L-114.06 750.798L-114.025 750.788L-114.028 750.778Z" fill="#FAECC8"/>
<path d="M-119.203 740.132C-76.0973 704.825 -17.7858 683.269 39.0987 682.428C53.8688 682.152 68.6972 683.246 82.9246 685.57C94.8534 687.344 106.615 690.26 117.943 693.442C145.298 701.273 173.362 708.981 201.365 715.308C234.173 722.366 269.123 728.921 304.214 722.229C316.676 720.07 328.708 716.144 340.837 712.879C348.119 711.232 355.489 710.436 362.879 709.936C421.328 706.691 499.5 721.623 534.337 664.363C568.221 614.123 638.347 577.452 701.702 565.524C711.501 563.96 721.444 564.347 731.277 564.649C741.129 565.019 750.957 565.615 760.797 566.166C800.145 568.279 840.168 570.412 880.029 563.031C911.914 556.989 938.356 544.566 955.044 518.599C980.401 479.632 993.254 436.6 1015.46 396.61C1040.14 350.344 1076.26 306.271 1136.02 292.737C1147.99 289.965 1160.71 287.182 1172.81 285.135C1197.32 280.786 1222.39 278.504 1246.44 281.895C1256.12 283.168 1265.76 284.953 1275.7 285.349C1290.7 286.021 1305.95 283.401 1320.71 279.749C1323.16 279.11 1325.61 278.512 1328.05 277.834L1335.34 275.767C1361.52 268.32 1379.1 251.028 1386.97 228.314C1396.12 202.982 1395.63 176.793 1400.8 151.2C1404.15 134.58 1411.15 115.714 1430.2 107.002L1430.05 106.741C1410.67 115.345 1403.31 134.384 1399.71 151.117C1394.12 176.722 1394.34 202.755 1385.02 227.917C1375.47 253.612 1357.25 268.452 1327.46 275.601C1310.69 280.072 1293.26 283.599 1276.13 282.771C1261.36 282.044 1247.25 278.469 1232.44 277.733C1202.63 276.016 1172.27 281.552 1142.75 288.093C1054.98 304.615 1017.17 379.328 988.644 444.605C975.059 473.62 960.195 516.157 933.753 538.223C889.752 572.048 813.427 566.664 761.096 564.519C751.246 564.023 741.397 563.485 731.501 563.179C721.613 562.944 711.62 562.603 701.539 564.267C643.854 575.578 583.795 605.533 546.271 647.182C542.334 651.538 538.598 656.35 535.191 661.008C533.464 663.542 531.042 667.103 529.232 669.607C518.666 684.928 501.042 696.142 481.674 701.209C442.429 711.746 402.478 705.588 362.93 707.618C352.906 708.192 342.635 709.44 332.922 712.471C316.191 717.567 299.043 721.517 281.722 722.211C264.468 722.968 247.354 720.967 230.764 718.266C207.287 714.299 183.149 708.493 160.461 702.545C142.149 697.842 123.411 692.183 105.07 687.509C86.3296 682.914 66.6201 680.591 46.7113 680.408C6.89176 679.99 -33.9359 689.83 -69.8309 707.693C-83.2821 714.369 -96.1559 722.053 -108.029 730.794C-111.98 733.716 -115.847 736.718 -119.477 739.948L-119.235 740.151L-119.2 740.142L-119.203 740.132Z" fill="#FAECC8"/>
<path d="M-124.373 729.491C-81.2672 694.185 -22.9557 672.628 33.9288 671.788C48.6989 671.511 63.5272 672.605 77.7547 674.93C89.6835 676.704 101.446 679.619 112.773 682.801C140.128 690.633 168.192 698.34 196.195 704.668C229.003 711.725 263.953 718.281 299.044 711.588C311.506 709.43 323.538 705.504 335.667 702.239C342.949 700.591 350.319 699.795 357.709 699.296C416.158 696.05 494.33 710.983 529.167 653.722C563.051 603.483 633.177 566.811 696.532 554.884C706.331 553.319 716.274 553.706 726.107 554.008C735.959 554.379 745.787 554.975 755.627 555.525C794.975 557.638 834.998 559.772 874.859 552.39C906.744 546.348 933.186 533.926 949.874 507.959C975.231 468.991 988.084 425.959 1010.29 385.969C1034.97 339.704 1071.09 295.63 1130.85 282.096C1142.82 279.324 1155.54 276.541 1167.64 274.495C1192.15 270.145 1217.22 267.863 1241.27 271.254C1250.95 272.527 1260.59 274.312 1270.53 274.708C1285.53 275.38 1300.78 272.761 1315.54 269.108C1317.99 268.469 1320.44 267.872 1322.88 267.193L1330.17 265.127C1356.35 257.679 1373.93 240.388 1381.8 217.674C1390.95 192.341 1390.46 166.152 1395.63 140.559C1398.98 123.939 1405.98 105.073 1425.03 96.3614L1424.88 96.0999C1405.5 104.704 1398.14 123.744 1394.54 140.476C1388.95 166.081 1389.17 192.115 1379.85 217.276C1370.3 242.972 1352.08 257.811 1322.29 264.961C1305.52 269.431 1288.09 272.958 1270.96 272.13C1256.19 271.404 1242.08 267.829 1227.27 267.093C1197.46 265.375 1167.1 270.911 1137.58 277.452C1049.81 293.974 1012 368.687 983.474 433.965C969.889 462.979 955.025 505.517 928.583 527.583C884.582 561.408 808.257 556.023 755.926 553.878C746.076 553.382 736.228 552.845 726.331 552.539C716.443 552.304 706.45 551.962 696.369 553.626C638.685 564.937 578.625 594.892 541.101 636.541C537.164 640.898 533.428 645.71 530.021 650.368C528.294 652.902 525.872 656.462 524.062 658.967C513.496 674.288 495.872 685.501 476.504 690.568C437.259 701.105 397.309 694.947 357.76 696.978C347.736 697.552 337.465 698.799 327.752 701.831C311.021 706.927 293.873 710.877 276.552 711.57C259.298 712.328 242.184 710.326 225.594 707.626C202.117 703.659 177.979 697.853 155.291 691.905C136.979 687.201 118.241 681.543 99.9 676.868C81.1597 672.274 61.4501 669.95 41.5413 669.767C1.72184 669.349 -39.1058 679.189 -75.0008 697.052C-88.452 703.729 -101.326 711.412 -113.199 720.153C-117.15 723.075 -121.017 726.078 -124.647 729.307L-124.405 729.511L-124.37 729.501L-124.373 729.491Z" fill="#FAECC8"/>
<path d="M-129.549 718.845C-86.443 683.538 -28.1315 661.982 28.753 661.141C43.5231 660.865 58.3515 661.959 72.5789 664.283C84.5077 666.057 96.2697 668.973 107.597 672.154C134.952 679.986 163.016 687.694 191.019 694.021C223.827 701.078 258.778 707.634 293.868 700.941C306.33 698.783 318.362 694.857 330.491 691.592C337.773 689.945 345.143 689.149 352.533 688.649C410.982 685.404 489.154 700.336 523.991 643.076C557.875 592.836 628.001 556.164 691.357 544.237C701.155 542.673 711.098 543.059 720.931 543.362C730.783 543.732 740.611 544.328 750.454 544.889C789.802 547.001 829.825 549.135 869.686 541.753C901.571 535.711 928.013 523.289 944.701 497.322C970.058 458.355 982.911 415.322 1005.12 375.332C1029.8 329.067 1065.92 284.994 1125.68 271.459C1137.65 268.687 1150.37 265.904 1162.46 263.858C1186.98 259.508 1212.05 257.227 1236.09 260.617C1245.78 261.89 1255.41 263.675 1265.36 264.072C1280.36 264.744 1295.6 262.124 1310.37 258.472C1312.82 257.832 1315.27 257.235 1317.71 256.557L1325 254.49C1351.17 247.042 1368.76 229.751 1376.63 207.037C1385.78 181.704 1385.29 155.515 1390.46 129.923C1393.8 113.302 1400.8 94.4361 1419.85 85.7246L1419.71 85.4631C1400.33 94.0675 1392.97 113.107 1389.37 129.839C1383.78 155.444 1384 181.478 1374.68 206.639C1365.12 232.335 1346.91 247.175 1317.11 254.324C1300.35 258.794 1282.92 262.321 1265.78 261.493C1251.02 260.767 1236.9 257.192 1222.1 256.456C1192.29 254.738 1161.93 260.274 1132.41 266.815C1044.63 283.337 1006.83 358.051 978.301 423.328C964.716 452.342 949.855 494.889 923.41 516.946C879.412 550.781 803.084 545.387 750.753 543.242C740.903 542.746 731.054 542.208 721.158 541.902C711.27 541.667 701.277 541.325 691.196 542.989C633.511 554.3 573.452 584.255 535.928 625.904C531.991 630.261 528.255 635.073 524.848 639.731C523.121 642.265 520.699 645.825 518.889 648.33C508.323 663.651 490.699 674.864 471.331 679.932C432.086 690.468 392.135 684.311 352.587 686.341C342.563 686.915 332.292 688.162 322.579 691.194C305.848 696.29 288.7 700.24 271.379 700.933C254.125 701.691 237.011 699.689 220.421 696.989C196.944 693.022 172.806 687.216 150.118 681.268C131.806 676.565 113.068 670.906 94.727 666.232C75.9866 661.637 56.2771 659.313 36.3683 659.13C-3.45125 658.712 -44.2789 668.552 -80.1739 686.415C-93.6251 693.092 -106.499 700.776 -118.372 709.516C-122.323 712.438 -126.19 715.441 -129.82 718.67L-129.578 718.874L-129.543 718.864L-129.549 718.845Z" fill="#FAECC8"/>
<path d="M-134.725 708.198C-91.6198 672.892 -33.3082 651.335 23.5763 650.495C38.3464 650.218 53.1747 651.312 67.4021 653.637C79.3309 655.411 91.093 658.326 102.421 661.508C129.775 669.34 157.839 677.047 185.843 683.375C218.65 690.432 253.601 696.988 288.692 690.295C301.153 688.137 313.185 684.211 325.314 680.946C332.597 679.298 339.966 678.502 347.356 678.003C405.806 674.757 483.977 689.69 518.814 632.429C552.699 582.19 622.824 545.518 686.18 533.591C695.978 532.026 705.921 532.413 715.755 532.715C725.607 533.086 735.434 533.682 745.277 534.242C784.625 536.355 824.648 538.488 864.509 531.107C896.394 525.065 922.836 512.642 939.524 486.675C964.881 447.708 977.734 404.676 999.942 364.686C1024.62 318.42 1060.74 274.347 1120.5 260.813C1132.47 258.041 1145.19 255.258 1157.29 253.211C1181.8 248.862 1206.87 246.58 1230.92 249.971C1240.6 251.244 1250.24 253.029 1260.18 253.425C1275.18 254.097 1290.43 251.478 1305.19 247.825C1307.64 247.186 1310.09 246.588 1312.53 245.91L1319.82 243.844C1346 236.396 1363.58 219.104 1371.45 196.39C1380.6 171.058 1380.11 144.869 1385.28 119.276C1388.63 102.656 1395.63 83.7897 1414.68 75.0782L1414.53 74.8166C1395.15 83.421 1387.79 102.46 1384.19 119.193C1378.6 144.798 1378.82 170.831 1369.5 195.993C1359.95 221.689 1341.73 236.528 1311.94 243.678C1295.17 248.148 1277.74 251.675 1260.61 250.847C1245.84 250.12 1231.73 246.545 1216.92 245.809C1187.11 244.092 1156.75 249.628 1127.24 256.169C1039.46 272.691 1001.65 347.404 973.124 412.681C959.539 441.696 944.678 484.243 918.234 506.3C874.235 540.134 797.907 534.74 745.576 532.595C735.727 532.099 725.878 531.561 715.982 531.255C706.093 531.02 696.1 530.679 686.019 532.343C628.335 543.654 568.275 573.609 530.752 615.258C526.814 619.615 523.078 624.427 519.671 629.085C517.944 631.618 515.522 635.179 513.712 637.683C503.146 653.004 485.522 664.218 466.154 669.285C426.909 679.822 386.959 673.664 347.41 675.694C337.386 676.268 327.115 677.516 317.402 680.548C300.671 685.643 283.523 689.593 266.202 690.287C248.948 691.045 231.834 689.043 215.244 686.342C191.767 682.376 167.629 676.569 144.941 670.621C126.629 665.918 107.891 660.259 89.5502 655.585C70.8099 650.991 51.1003 648.667 31.1915 648.484C-8.62801 648.066 -49.4557 657.906 -85.3506 675.769C-98.8019 682.445 -111.676 690.129 -123.549 698.87C-127.5 701.792 -131.367 704.795 -134.997 708.024L-134.755 708.227L-134.72 708.218L-134.725 708.198Z" fill="#FAECC8"/>
<path d="M-139.903 697.554C-96.7975 662.247 -38.486 640.691 18.3985 639.85C33.1686 639.574 47.997 640.668 62.2244 642.992C74.1532 644.766 85.9152 647.682 97.2428 650.863C124.597 658.695 152.662 666.403 180.665 672.73C213.473 679.787 248.423 686.343 283.514 679.65C295.975 677.492 308.008 673.566 320.137 670.301C327.419 668.654 334.789 667.858 342.179 667.358C400.628 664.113 478.8 679.045 513.636 621.785C547.521 571.545 617.647 534.873 681.002 522.946C690.8 521.382 700.744 521.768 710.577 522.071C720.429 522.441 730.257 523.037 740.099 523.598C779.447 525.71 819.47 527.844 859.331 520.462C891.216 514.42 917.658 501.998 934.347 476.031C959.703 437.064 972.557 394.031 994.764 354.041C1019.45 307.776 1055.56 263.703 1115.32 250.168C1127.29 247.396 1140.01 244.613 1152.11 242.567C1176.62 238.217 1201.69 235.936 1225.74 239.326C1235.42 240.599 1245.06 242.384 1255 242.781C1270 243.453 1285.25 240.833 1300.01 237.181C1302.46 236.541 1304.91 235.944 1307.36 235.266L1314.65 233.199C1340.82 225.751 1358.4 208.46 1366.27 185.746C1375.42 160.413 1374.93 134.224 1380.1 108.631C1383.45 92.0111 1390.45 73.1451 1409.5 64.4337L1409.35 64.1721C1389.98 72.7764 1382.61 91.8158 1379.01 108.548C1373.42 134.153 1373.65 160.187 1364.33 185.348C1354.77 211.044 1336.55 225.884 1306.76 233.033C1289.99 237.503 1272.57 241.03 1255.43 240.202C1240.67 239.476 1226.55 235.901 1211.75 235.165C1181.94 233.447 1151.57 238.983 1122.06 245.524C1034.28 262.046 996.475 336.76 967.946 402.037C954.362 431.051 939.5 473.598 913.056 495.655C869.058 529.49 792.729 524.096 740.399 521.951C730.549 521.455 720.7 520.917 710.804 520.611C700.915 520.376 690.922 520.034 680.841 521.698C623.157 533.009 563.098 562.964 525.574 604.613C521.637 608.97 517.9 613.782 514.493 618.44C512.766 620.974 510.344 624.534 508.534 627.039C497.968 642.36 480.344 653.573 460.976 658.641C421.731 669.177 381.781 663.02 342.232 665.05C332.208 665.624 321.937 666.871 312.224 669.903C295.494 674.999 278.345 678.949 261.024 679.642C243.771 680.4 226.656 678.398 210.067 675.698C186.589 671.731 162.452 665.925 139.763 659.977C121.451 655.274 102.713 649.615 84.3725 644.941C65.6321 640.346 45.9226 638.022 26.0138 637.839C-13.8057 637.421 -54.6334 647.261 -90.5284 665.124C-103.98 671.801 -116.853 679.485 -128.727 688.225C-132.678 691.147 -136.545 694.15 -140.175 697.379L-139.932 697.583L-139.898 697.573L-139.903 697.554Z" fill="#FAECC8"/>
<path d="M-145.077 686.915C-101.971 651.608 -43.6598 630.052 13.2247 629.212C27.9948 628.935 42.8231 630.029 57.0505 632.353C68.9794 634.128 80.7414 637.043 92.069 640.225C119.423 648.056 147.488 655.764 175.491 662.092C208.299 669.149 243.249 675.704 278.34 669.012C290.801 666.854 302.834 662.927 314.963 659.662C322.245 658.015 329.615 657.219 337.005 656.72C395.454 653.474 473.626 668.407 508.463 611.146C542.347 560.906 612.473 524.235 675.828 512.308C685.627 510.743 695.57 511.13 705.403 511.432C715.255 511.802 725.083 512.398 734.923 512.949C774.271 515.062 814.294 517.196 854.155 509.814C886.04 503.772 912.482 491.35 929.17 465.383C954.527 426.415 967.38 383.383 989.587 343.393C1014.27 297.127 1050.39 253.054 1110.15 239.52C1122.11 236.748 1134.84 233.965 1146.93 231.918C1171.45 227.569 1196.51 225.287 1220.56 228.678C1230.24 229.951 1239.88 231.736 1249.83 232.132C1264.82 232.804 1280.07 230.185 1294.83 226.532C1297.29 225.893 1299.74 225.295 1302.18 224.617L1309.47 222.551C1335.64 215.103 1353.23 197.811 1361.1 175.097C1370.25 149.765 1369.76 123.576 1374.93 97.9831C1378.27 81.3627 1385.27 62.4967 1404.32 53.7852L1404.18 53.5236C1384.8 62.128 1377.44 81.1674 1373.84 97.9001C1368.25 123.505 1368.47 149.539 1359.15 174.7C1349.59 200.396 1331.38 215.235 1301.58 222.385C1284.82 226.855 1267.39 230.382 1250.25 229.554C1235.49 228.827 1221.37 225.252 1206.57 224.516C1176.76 222.799 1146.4 228.335 1116.88 234.876C1029.1 251.398 991.299 326.111 962.77 391.388C949.185 420.403 934.321 462.94 907.879 485.007C863.878 518.831 787.553 513.447 735.222 511.302C725.372 510.806 715.523 510.268 705.627 509.962C695.739 509.728 685.746 509.386 675.665 511.05C617.98 522.361 557.921 552.316 520.397 593.965C516.46 598.322 512.724 603.134 509.317 607.792C507.59 610.325 505.168 613.886 503.358 616.391C492.791 631.711 475.168 642.925 455.8 647.992C416.555 658.529 376.604 652.371 337.056 654.401C327.032 654.975 316.761 656.223 307.048 659.255C290.317 664.35 273.169 668.301 255.848 668.994C238.594 669.752 221.479 667.75 204.89 665.049C181.412 661.083 157.275 655.276 134.587 649.328C116.275 644.625 97.5367 638.967 79.1959 634.292C60.4556 629.698 40.746 627.374 20.8372 627.191C-18.9823 626.773 -59.8099 636.613 -95.7049 654.476C-109.156 661.152 -122.03 668.836 -133.903 677.577C-137.854 680.499 -141.721 683.502 -145.352 686.731L-145.109 686.934L-145.074 686.925L-145.077 686.915Z" fill="#FAECC8"/>
<path d="M-150.252 676.269C-107.146 640.962 -48.8346 619.405 8.0499 618.565C22.82 618.289 37.6483 619.383 51.8757 621.707C63.8046 623.481 75.5666 626.396 86.8942 629.578C114.249 637.41 142.313 645.118 170.316 651.445C203.124 658.502 238.075 665.058 273.165 658.365C285.627 656.207 297.659 652.281 309.788 649.016C317.07 647.368 324.44 646.572 331.83 646.073C390.279 642.828 468.451 657.76 503.288 600.5C537.172 550.26 607.298 513.588 670.654 501.661C680.452 500.097 690.395 500.483 700.228 500.786C710.08 501.156 719.908 501.752 729.748 502.303C769.096 504.415 809.119 506.549 848.98 499.167C880.865 493.125 907.307 480.703 923.995 454.736C949.352 415.769 962.205 372.737 984.413 332.747C1009.09 286.481 1045.21 242.408 1104.97 228.873C1116.94 226.101 1129.66 223.318 1141.76 221.272C1166.27 216.922 1191.34 214.641 1215.39 218.032C1225.07 219.304 1234.71 221.09 1244.65 221.486C1259.65 222.158 1274.9 219.538 1289.66 215.886C1292.11 215.246 1294.56 214.649 1297 213.971L1304.29 211.904C1330.47 204.456 1348.05 187.165 1355.92 164.451C1365.07 139.119 1364.58 112.929 1369.75 87.3366C1373.1 70.7162 1380.1 51.8503 1399.15 43.1388L1399 42.8773C1379.62 51.4816 1372.26 70.5209 1368.66 87.2536C1363.07 112.858 1363.3 138.892 1353.97 164.053C1344.42 189.749 1326.2 204.589 1296.41 211.738C1279.64 216.208 1262.21 219.736 1245.08 218.907C1230.31 218.181 1216.2 214.606 1201.4 213.87C1171.58 212.153 1141.22 217.689 1111.71 224.229C1023.93 240.751 986.124 315.465 957.595 380.742C944.01 409.756 929.146 452.294 902.705 474.36C858.703 508.185 782.378 502.801 730.047 500.656C720.198 500.16 710.349 499.622 700.453 499.316C690.564 499.081 680.571 498.74 670.49 500.403C612.806 511.714 552.746 541.67 515.223 583.318C511.285 587.675 507.549 592.487 504.142 597.145C502.415 599.679 499.993 603.24 498.183 605.744C487.617 621.065 469.993 632.279 450.625 637.346C411.38 647.882 371.43 641.725 331.881 643.755C321.857 644.329 311.586 645.576 301.873 648.608C285.142 653.704 267.994 657.654 250.673 658.347C233.419 659.105 216.305 657.103 199.715 654.403C176.238 650.436 152.1 644.63 129.412 638.682C111.1 633.979 92.3619 628.32 74.0211 623.646C55.2808 619.051 35.5712 616.728 15.6624 616.544C-24.1571 616.127 -64.9847 625.966 -100.88 643.829C-114.331 650.506 -127.205 658.19 -139.078 666.93C-143.029 669.852 -146.896 672.855 -150.526 676.084L-150.284 676.288L-150.249 676.278L-150.252 676.269Z" fill="#FAECC8"/>
<path d="M-155.427 665.622C-112.321 630.315 -54.0094 608.759 2.8751 607.919C17.6452 607.642 32.4735 608.736 46.7009 611.06C58.6298 612.835 70.3918 615.75 81.7194 618.932C109.074 626.764 137.138 634.471 165.141 640.799C197.949 647.856 232.9 654.412 267.991 647.719C280.452 645.561 292.484 641.634 304.613 638.369C311.895 636.722 319.265 635.926 326.655 635.427C385.104 632.181 463.276 647.114 498.113 589.853C531.998 539.613 602.123 502.942 665.479 491.015C675.277 489.45 685.22 489.837 695.053 490.139C704.905 490.51 714.733 491.105 724.576 491.666C763.924 493.779 803.947 495.912 843.808 488.531C875.693 482.489 902.135 470.066 918.823 444.099C944.18 405.132 957.033 362.1 979.241 322.11C1003.92 275.844 1040.04 231.771 1099.8 218.237C1111.77 215.465 1124.49 212.681 1136.58 210.635C1161.1 206.286 1186.17 204.004 1210.22 207.395C1219.9 208.667 1229.53 210.453 1239.48 210.849C1254.48 211.521 1269.73 208.901 1284.49 205.249C1286.94 204.61 1289.39 204.012 1291.83 203.334L1299.12 201.267C1325.3 193.82 1342.88 176.528 1350.75 153.814C1359.9 128.482 1359.41 102.293 1364.58 76.6998C1367.92 60.0795 1374.93 41.2135 1393.98 32.502L1393.83 32.2405C1374.45 40.8449 1367.09 59.8842 1363.49 76.6168C1357.9 102.222 1358.12 128.255 1348.8 153.416C1339.25 179.112 1321.03 193.952 1291.24 201.101C1274.47 205.572 1257.04 209.099 1239.91 208.27C1225.14 207.544 1211.03 203.969 1196.22 203.233C1166.41 201.516 1136.05 207.052 1106.53 213.592C1018.75 230.114 980.952 304.828 952.423 370.105C938.838 399.12 923.974 441.657 897.532 463.723C853.531 497.548 777.206 492.164 724.875 490.019C715.025 489.523 705.177 488.985 695.28 488.679C685.392 488.444 675.399 488.103 665.318 489.767C607.633 501.078 547.574 531.033 510.05 572.681C506.113 577.038 502.377 581.85 498.97 586.508C497.243 589.042 494.821 592.603 493.011 595.107C482.445 610.428 464.821 621.642 445.453 626.709C406.208 637.245 366.258 631.088 326.709 633.118C316.685 633.692 306.414 634.94 296.701 637.971C279.97 643.067 262.822 647.017 245.501 647.71C228.247 648.468 211.133 646.466 194.543 643.766C171.066 639.799 146.928 633.993 124.24 628.045C105.928 623.342 87.1898 617.683 68.849 613.009C50.1087 608.414 30.3991 606.091 10.4903 605.908C-29.3292 605.49 -70.1568 615.329 -106.052 633.193C-119.503 639.869 -132.377 647.553 -144.25 656.293C-148.201 659.215 -152.068 662.218 -155.698 665.447L-155.456 665.651L-155.421 665.642L-155.427 665.622Z" fill="#FAECC8"/>
<path d="M-160.604 654.976C-117.499 619.669 -59.1871 598.112 -2.30264 597.272C12.4675 596.996 27.2958 598.09 41.5232 600.414C53.452 602.188 65.2141 605.103 76.5417 608.285C103.896 616.117 131.96 623.825 159.964 630.152C192.771 637.209 227.722 643.765 262.813 637.072C275.274 634.914 287.306 630.988 299.436 627.723C306.718 626.076 314.087 625.279 321.478 624.78C379.927 621.535 458.098 636.467 492.935 579.207C526.82 528.967 596.946 492.295 660.301 480.368C670.099 478.804 680.043 479.19 689.876 479.493C699.728 479.863 709.555 480.459 719.398 481.019C758.746 483.132 798.769 485.266 838.63 477.884C870.515 471.842 896.957 459.42 913.645 433.453C939.002 394.485 951.856 351.453 974.063 311.463C998.744 265.198 1034.86 221.125 1094.62 207.59C1106.59 204.818 1119.31 202.035 1131.41 199.989C1155.92 195.639 1180.99 193.357 1205.04 196.748C1214.72 198.021 1224.36 199.806 1234.3 200.202C1249.3 200.874 1264.55 198.255 1279.31 194.602C1281.76 193.963 1284.21 193.366 1286.65 192.687L1293.94 190.621C1320.12 183.173 1337.7 165.882 1345.57 143.168C1354.72 117.835 1354.23 91.6462 1359.4 66.0534C1362.75 49.433 1369.75 30.567 1388.8 21.8555L1388.65 21.594C1369.27 30.1984 1361.91 49.2377 1358.31 65.9703C1352.72 91.5751 1352.95 117.609 1343.62 142.77C1334.07 168.466 1315.85 183.305 1286.06 190.455C1269.29 194.925 1251.86 198.452 1234.73 197.624C1219.96 196.898 1205.85 193.323 1191.05 192.587C1161.23 190.869 1130.87 196.405 1101.36 202.946C1013.58 219.468 975.774 294.181 947.245 359.459C933.66 388.473 918.799 431.02 892.355 453.077C848.356 486.911 772.028 481.517 719.697 479.372C709.848 478.876 699.999 478.339 690.103 478.033C680.214 477.798 670.221 477.456 660.14 479.12C602.456 490.431 542.396 520.386 504.873 562.035C500.935 566.392 497.199 571.204 493.792 575.862C492.065 578.396 489.643 581.956 487.833 584.461C477.267 599.782 459.643 610.995 440.275 616.063C401.03 626.599 361.08 620.442 321.531 622.472C311.507 623.046 301.236 624.293 291.523 627.325C274.792 632.421 257.644 636.371 240.323 637.064C223.07 637.822 205.955 635.82 189.366 633.12C165.888 629.153 141.75 623.347 119.062 617.399C100.75 612.695 82.0121 607.037 63.6713 602.362C44.9309 597.768 25.2214 595.444 5.3126 595.261C-34.5069 594.843 -75.3346 604.683 -111.23 622.546C-124.681 629.223 -137.555 636.907 -149.428 645.647C-153.379 648.569 -157.246 651.572 -160.876 654.801L-160.634 655.005L-160.599 654.995L-160.604 654.976Z" fill="#FAECC8"/>
<path d="M-165.782 644.329C-122.676 609.022 -64.3649 587.466 -7.48038 586.626C7.28973 586.349 22.1181 587.443 36.3455 589.767C48.2743 591.542 60.0363 594.457 71.3639 597.639C98.7184 605.471 126.783 613.178 154.786 619.506C187.594 626.563 222.544 633.119 257.635 626.426C270.096 624.268 282.129 620.341 294.258 617.077C301.54 615.429 308.91 614.633 316.3 614.134C374.749 610.888 452.921 625.821 487.757 568.56C521.642 518.32 591.768 481.649 655.123 469.722C664.922 468.157 674.865 468.544 684.698 468.846C694.55 469.217 704.378 469.812 714.221 470.373C753.568 472.486 793.591 474.619 833.452 467.238C865.338 461.196 891.779 448.773 908.468 422.806C933.824 383.839 946.678 340.807 968.885 300.817C993.566 254.551 1029.68 210.478 1089.44 196.944C1101.41 194.172 1114.13 191.388 1126.23 189.342C1150.75 184.993 1175.81 182.711 1199.86 186.102C1209.54 187.374 1219.18 189.16 1229.13 189.556C1244.12 190.228 1259.37 187.608 1274.13 183.956C1276.58 183.317 1279.04 182.719 1281.48 182.041L1288.77 179.974C1314.94 172.527 1332.53 155.235 1340.39 132.521C1349.54 107.189 1349.05 80.9997 1354.22 55.4068C1357.57 38.7865 1364.57 19.9205 1383.62 11.209L1383.47 10.9475C1364.1 19.5519 1356.73 38.5912 1353.13 55.3238C1347.54 80.9286 1347.77 106.962 1338.45 132.123C1328.89 157.819 1310.67 172.659 1280.88 179.808C1264.11 184.279 1246.69 187.806 1229.55 186.977C1214.79 186.251 1200.67 182.676 1185.87 181.94C1156.06 180.223 1125.69 185.759 1096.18 192.299C1008.4 208.821 970.596 283.535 942.067 348.812C928.483 377.827 913.622 420.374 887.177 442.43C843.179 476.265 766.85 470.871 714.52 468.726C704.67 468.23 694.821 467.692 684.925 467.386C675.036 467.151 665.043 466.81 654.963 468.474C597.278 479.785 537.219 509.74 499.695 551.388C495.758 555.745 492.021 560.557 488.614 565.215C486.887 567.749 484.465 571.31 482.655 573.814C472.089 589.135 454.465 600.349 435.097 605.416C395.852 615.952 355.902 609.795 316.353 611.825C306.329 612.399 296.059 613.647 286.345 616.678C269.615 621.774 252.466 625.724 235.145 626.417C217.892 627.175 200.777 625.174 184.188 622.473C160.71 618.506 136.573 612.7 113.884 606.752C95.5725 602.049 76.8343 596.39 58.4936 591.716C39.7532 587.121 20.0436 584.798 0.134853 584.615C-39.6847 584.197 -80.5123 594.036 -116.407 611.9C-129.859 618.576 -142.732 626.26 -154.606 635C-158.557 637.923 -162.424 640.925 -166.054 644.155L-165.811 644.358L-165.777 644.349L-165.782 644.329Z" fill="#FAECC8"/>
<path d="M-170.955 633.693C-127.849 598.386 -69.5377 576.829 -12.6532 575.989C2.11689 575.712 16.9452 576.806 31.1726 579.131C43.1014 580.905 54.8635 583.82 66.1911 587.002C93.5456 594.834 121.61 602.541 149.613 608.869C182.421 615.926 217.371 622.482 252.462 615.789C264.924 613.631 276.956 609.705 289.085 606.44C296.367 604.792 303.737 603.996 311.127 603.497C369.576 600.252 447.748 615.184 482.585 557.924C516.469 507.684 586.595 471.012 649.95 459.085C659.749 457.521 669.692 457.907 679.525 458.21C689.377 458.58 699.205 459.176 709.048 459.736C748.395 461.849 788.419 463.983 828.279 456.601C860.165 450.559 886.606 438.137 903.295 412.17C928.651 373.202 941.505 330.17 963.712 290.18C988.394 243.915 1024.51 199.841 1084.27 186.307C1096.24 183.535 1108.96 180.752 1121.06 178.706C1145.57 174.356 1170.64 172.074 1194.69 175.465C1204.37 176.738 1214.01 178.523 1223.95 178.919C1238.95 179.591 1254.2 176.972 1268.96 173.319C1271.41 172.68 1273.86 172.082 1276.3 171.404L1283.59 169.338C1309.77 161.89 1327.35 144.598 1335.22 121.885C1344.37 96.5521 1343.88 70.363 1349.05 44.7702C1352.4 28.1498 1359.4 9.2838 1378.45 0.572324L1378.3 0.310809C1358.92 8.91516 1351.56 27.9545 1347.96 44.6871C1342.37 70.2919 1342.6 96.3257 1333.27 121.487C1323.72 147.183 1305.5 162.022 1275.71 169.172C1258.94 173.642 1241.51 177.169 1224.38 176.341C1209.61 175.615 1195.5 172.04 1180.69 171.304C1150.88 169.586 1120.52 175.122 1091.01 181.663C1003.23 198.185 965.424 272.898 936.894 338.176C923.31 367.19 908.446 409.727 882.004 431.794C838.003 465.619 761.677 460.234 709.347 458.089C699.497 457.593 689.648 457.055 679.752 456.75C669.863 456.515 659.871 456.173 649.79 457.837C592.105 469.148 532.046 499.103 494.522 540.752C490.585 545.109 486.849 549.921 483.442 554.579C481.714 557.112 479.292 560.673 477.483 563.178C466.916 578.499 449.293 589.712 429.924 594.779C390.679 605.316 350.729 599.158 311.18 601.188C301.157 601.762 290.886 603.01 281.173 606.042C264.442 611.137 247.294 615.088 229.972 615.781C212.719 616.539 195.604 614.537 179.015 611.836C155.537 607.87 131.4 602.064 108.711 596.116C90.3997 591.412 71.6615 585.754 53.3207 581.079C34.5804 576.485 14.8708 574.161 -5.03799 573.978C-44.8575 573.56 -85.6852 583.4 -121.58 601.263C-135.031 607.94 -147.905 615.623 -159.778 624.364C-163.73 627.286 -167.596 630.289 -171.227 633.518L-170.984 633.721L-170.95 633.712L-170.955 633.693Z" fill="#FAECC8"/>
</g>
<defs>
<clipPath id="clip0_39_5171">
<rect width="1662.54" height="623.462" fill="white" transform="matrix(0.963518 -0.267644 -0.267644 -0.963518 -56.6279 1045.94)"/>
</clipPath>
</defs>
</svg>
