<svg width="420" height="641" viewBox="0 0 420 641" fill="none" xmlns="http://www.w3.org/2000/svg">
<mask id="mask0_478_11512" style="mask-type:alpha" maskUnits="userSpaceOnUse" x="0" y="0" width="420" height="641">
<rect width="420" height="640" transform="matrix(-1 0 0 1 420 0.497803)" fill="#D9D9D9"/>
</mask>
<g mask="url(#mask0_478_11512)">
<path d="M-998.441 1109.68C-1153.8 993.375 -1302.39 792.052 -1139.75 616.516C-1106.57 580.351 -1066.73 550.892 -1024.91 525.439C-962.709 486.61 -891.903 458.951 -817.844 458.05C-615.783 453.748 -457.814 614.594 -261.148 635.616C-106.922 652.352 22.4641 551.289 114.959 438.139C201.213 330.444 221.968 205.587 101.07 114.038C-33.5957 16.083 -235.175 5.35207 -396.268 20.007C-616.358 41.7682 -830.933 119.504 -1013.52 244.327C-1054.07 271.939 -1095.87 297.771 -1139.26 320.693C-1648.39 591.106 -1734.11 91.8764 -1345.71 -151.426C-1468.95 -75.2638 -1576.84 49.7837 -1588.45 198.938C-1593.91 274.038 -1562.85 350.54 -1490.82 382.122C-1422.2 412.437 -1343.56 400.964 -1273.91 379.946C-1179.83 350.605 -1093.48 301.136 -1012.16 246.286C-829.703 122.059 -615.682 44.4078 -395.988 22.8486C-228.017 6.01416 41.6064 22.4393 150.465 168.239C214.012 256.87 174.591 358.955 112.678 436.331C20.7577 548.813 -107.597 649.472 -260.873 632.93C-457.425 611.734 -615.688 451.286 -817.873 456.022C-892.273 457.031 -963.366 484.879 -1025.78 523.974C-1067.67 549.575 -1107.64 579.145 -1140.82 615.52C-1303.43 792.025 -1154.75 993.23 -998.441 1109.68Z" fill="#FAECC8"/>
<path d="M-998.441 1109.68C-1095.4 1031.05 -1200.92 903.949 -1193.78 772.244C-1190.13 709.552 -1160.23 654.712 -1117.28 609.983C-1083.39 574.636 -1043.28 545.683 -1001.07 521.038C-959.015 496.085 -913.905 475.6 -865.807 465.789C-663.64 421.875 -494.826 572.829 -309.452 622.742C-164.735 662.443 -45.1885 613.295 61.5034 514.258C106.236 472.48 148.417 426.273 176.861 371.68C263.202 204.538 139.331 92.9691 -14.7813 46.8913C-293.035 -32.7664 -617.557 35.1346 -869.76 167.632C-957.201 212.44 -1033.86 275.082 -1121.29 319.886C-1164.31 342.55 -1209.87 362.738 -1256.41 376.958C-1328.12 398.574 -1410.75 410.171 -1479.86 374.698C-1481.21 373.985 -1482.62 373.386 -1483.91 372.578L-1491.72 367.845C-1493.03 367.056 -1494.36 366.291 -1495.55 365.361L-1502.97 360.024C-1504.24 359.179 -1505.37 358.169 -1506.54 357.183L-1513.52 351.264C-1516.78 348.068 -1520.06 344.876 -1523.19 341.565L-1529.13 334.614L-1530.61 332.879L-1531.95 331.028L-1537.33 323.655C-1539.81 319.833 -1542.2 315.92 -1544.52 311.99L-1548.71 303.868L-1549.77 301.843C-1551.64 297.151 -1554.34 291.914 -1555.88 287.055L-1558.89 278.421C-1559.87 274.517 -1562.8 265.029 -1563.43 260.695C-1573.05 215.741 -1567.7 168.747 -1554.77 124.946C-1518.63 7.08778 -1429.68 -88.5584 -1326.37 -152.843C-1429.96 -88.7713 -1519.2 6.75957 -1555.68 124.676C-1567.97 165.709 -1573.38 209.434 -1566.47 251.926C-1565.58 256.207 -1564.75 261.161 -1563.79 265.47C-1563.46 266.971 -1562.99 268.431 -1562.61 269.915L-1560.18 278.8C-1558.19 284.259 -1556.2 290.955 -1553.77 296.073C-1552.6 298.723 -1551.36 302.014 -1549.99 304.484C-1546.71 311.296 -1542.6 318.255 -1538.54 324.475C-1537.24 326.387 -1534.45 330.045 -1533.13 331.953C-1532.28 333.392 -1525.7 340.954 -1524.31 342.617C-1520.09 346.919 -1515.75 351.607 -1511.04 355.424L-1507.52 358.409C-1506.36 359.41 -1505.2 360.431 -1503.93 361.291L-1496.45 366.691C-1493.12 369.101 -1488.21 371.758 -1484.68 374.003C-1417.44 410.857 -1335.74 401.675 -1264.64 381.455C-1226.58 370.599 -1188.88 355.289 -1153.14 338.356C-1097.88 311.771 -1044.99 280.162 -994.267 245.818C-751.893 81.6107 -452.3 -6.26131 -159.404 21.3796C-86.5904 29.2413 -13.8393 44.9562 52.7685 75.9551C177.939 133.923 243.153 238.116 174.271 370.339C146.003 424.629 104.081 470.605 59.5927 512.158C-46.3649 610.581 -164.899 659.554 -308.731 620.161C-494.18 570.091 -663.792 419.512 -866.169 463.899C-914.45 473.807 -959.756 494.456 -1001.9 519.547C-1044.19 544.324 -1084.41 573.418 -1118.33 608.95C-1161.36 654.007 -1191.26 709.18 -1194.77 772.189C-1201.62 904.216 -1095.85 1031.05 -998.441 1109.68Z" fill="#FAECC8"/>
<path d="M-998.441 1109.68C-1070.21 1046.2 -1135.43 964.431 -1164.81 872.286C-1219.48 697.865 -1097.85 578.223 -953.597 503.848C-871.671 461.511 -786.721 448.012 -696.044 465.943C-547.667 494.567 -423.398 591.094 -276.841 625.622C-262.333 628.978 -246.319 631.787 -231.496 633.504C-114.904 647.536 -15.3501 598.761 69.9094 522.63C110.839 486.006 149.609 445.393 179.446 399.113C292.728 222.316 177.251 96.5586 1.70569 44.6371C-232.744 -21.8698 -494.598 17.8289 -718.65 105.299C-809.772 141.462 -896.831 187.819 -977.646 243.287C-1020.63 272.496 -1065.19 299.438 -1111.31 323.414C-1117.12 326.236 -1130.15 332.772 -1135.96 335.613C-1140.54 337.817 -1156.3 344.891 -1160.97 347.089C-1180.08 355.239 -1201.02 363.815 -1220.79 370.282C-1301.52 397.232 -1399.51 413.328 -1475.11 364.804L-1484.38 358.136C-1487.95 355.294 -1491.38 352.289 -1494.84 349.322L-1501.32 342.884C-1502.39 341.809 -1503.49 340.758 -1504.45 339.573L-1510.39 332.637C-1511.42 331.521 -1512.25 330.236 -1513.15 329.019L-1518.53 321.646L-1520.92 317.767C-1524.85 311.642 -1528.81 304.289 -1531.74 297.7L-1535.33 289.305C-1536.92 285.018 -1538.38 280.698 -1539.86 276.367C-1540.92 272.116 -1543.66 263.251 -1544.33 258.655L-1545.26 254.176C-1546.45 248.646 -1546.83 243.587 -1547.68 238.367C-1548 234.189 -1548.49 228.873 -1548.81 224.695C-1548.97 221.468 -1549.03 214.161 -1549.16 210.975L-1549.1 208.684L-1548.97 204.111C-1541.92 52.0955 -1431.67 -76.5825 -1307.11 -154.236C-1432.05 -76.8163 -1542.71 51.8723 -1550.11 204.082L-1550.26 208.674L-1550.32 210.965C-1550.18 214.005 -1550.13 221.698 -1550 224.741C-1549.65 228.941 -1549.26 234.286 -1548.9 238.486C-1548.3 242.842 -1547.38 250.146 -1546.5 254.396C-1545.42 258.85 -1544.89 263.532 -1543.53 267.864L-1541.12 276.738C-1539.33 282.426 -1537.17 288.499 -1534.79 294.016C-1533.52 296.672 -1532.47 299.932 -1531.06 302.424L-1526.85 310.606C-1524.85 314.222 -1521.91 318.865 -1519.73 322.448C-1517.05 325.992 -1514.33 330.2 -1511.53 333.569C-1508.98 336.586 -1505.04 341.381 -1502.4 343.942L-1495.87 350.462C-1492.38 353.47 -1488.9 356.512 -1485.31 359.395L-1477.83 364.794C-1404.36 413.956 -1308.7 400.055 -1228.82 375.11C-1222.29 372.91 -1213.49 369.943 -1207.05 367.737C-1204.88 366.979 -1188.24 360.565 -1185.56 359.606C-1177.52 356.25 -1168.2 352.456 -1160.09 349.001C-1155.2 346.698 -1140.19 339.966 -1135.02 337.538C-1079.82 311.033 -1026.94 279.54 -976.263 245.273C-734.361 80.9834 -435.384 -7.09213 -142.809 19.7056C-70.0492 27.3091 2.6268 42.8037 69.339 73.2939C234.577 149.452 267.706 282.675 155.983 427.499C127.383 464.859 93.206 498.776 57.7417 529.625C-28.2173 602.786 -125.665 646.365 -240.226 629.673C-253.53 627.934 -267.654 625.052 -280.667 622.064C-425.148 586.418 -548.63 492.052 -695.59 463.866C-789.765 445.334 -878.507 460.795 -962.468 506.674C-1104.22 581.644 -1219.61 701.728 -1165.49 872.564C-1135.8 964.801 -1070.41 1046.32 -998.395 1109.73L-998.441 1109.68Z" fill="#FAECC8"/>
<path d="M-998.441 1109.68C-1077.78 1033.55 -1153.81 923.074 -1161.86 810.822C-1163.22 789.568 -1162.25 768.027 -1158.34 747.092C-1153.9 723.256 -1145.81 699.711 -1134.54 678.23C-1087 586.55 -982.856 520.005 -888.923 482.592C-651.911 393.54 -477.528 568.69 -262.995 623.755C-118.271 659.945 0.446808 605.971 105.008 506.767C166.235 448.39 226.203 379.148 241.309 293.402C249.956 244.578 236.237 193.142 205.208 154.597C128.724 60.5068 -9.69598 27.4196 -125.422 15.0626C-369.545 -7.23344 -618.159 52.2348 -833.979 166.234C-866.361 183.549 -898.03 202.211 -928.831 222.194C-979.571 256.223 -1030.55 290.091 -1084.89 318.161C-1099.81 326.085 -1118.82 335.281 -1134.29 342.231C-1214.27 377.989 -1312.76 408.818 -1400.15 387.331C-1459.21 372.947 -1502.98 332.72 -1520.69 274.341C-1535.67 224.443 -1530.78 170.633 -1516 121.224C-1479.6 3.74474 -1390.93 -91.5998 -1287.82 -155.719C-1391.2 -91.8018 -1480.16 3.43146 -1516.91 120.954C-1531.87 170.509 -1536.92 224.585 -1521.99 274.735C-1504.24 333.7 -1460.2 374.334 -1400.56 388.964C-1312.78 410.7 -1213.84 379.956 -1133.43 344.131C-1117.87 337.157 -1098.86 328.01 -1083.88 320.07C-1029.42 292.031 -978.332 258.215 -927.5 224.226C-896.724 204.329 -865.099 185.743 -832.757 168.519C-617.363 54.9062 -369.291 -4.36876 -125.727 17.997C-10.6969 30.3321 126.776 63.2402 202.787 156.463C233.292 194.428 246.87 244.86 238.338 292.916C225.87 365.568 179.26 427.048 129.097 478.983C116.572 491.89 102.885 505.253 89.5523 517.063C-71.0259 660.667 -211.734 658.866 -399.857 571.324C-558.067 498.395 -712.321 412.563 -889.579 480.861C-983.879 518.581 -1088.14 585.379 -1135.68 677.652C-1146.93 699.257 -1155.01 722.945 -1159.41 746.896C-1163.28 767.917 -1164.22 789.563 -1162.77 810.875C-1154.41 923.284 -1078.14 1033.61 -998.46 1109.67L-998.441 1109.68Z" fill="#FAECC8"/>
<path d="M-998.441 1109.68C-1085.63 1018.11 -1166.88 879.557 -1142.59 749.041C-1131.73 688.437 -1097.49 635.112 -1053.03 593.327C-1017.53 559.778 -976.174 533.022 -933.095 510.229C-890.121 487.224 -843.83 469.949 -795.557 462.527C-592.343 429.71 -428.196 578.998 -240.461 624.063C-138.453 647.932 -47.0176 629.586 40.4256 572.326C91.4757 538.615 136.891 496.51 177.144 450.595C307.396 301.495 293.711 150.882 105.003 65.7089C-131.889 -35.3681 -449.164 9.9337 -682.807 103.532C-762.294 135.327 -838.73 174.734 -910.489 221.414C-971.156 262.414 -1032.85 302.263 -1099.18 333.592C-1176.94 369.909 -1267.83 401.412 -1354.61 390.849L-1359.15 390.319L-1363.64 389.502L-1372.62 387.887C-1375.6 387.308 -1378.53 386.442 -1381.49 385.745C-1388.18 384.268 -1394.6 381.869 -1401.11 379.784L-1403.22 378.923L-1411.66 375.447C-1451.63 357.935 -1481.46 326.088 -1497.13 285.383C-1507.3 258.347 -1511.44 229.12 -1510.36 200.306C-1504.69 73.9771 -1424.75 -38.0526 -1328.43 -114.966C-1309.29 -130.143 -1289.25 -144.181 -1268.54 -157.135C-1371.84 -93.2866 -1460.69 1.83586 -1497.53 119.206C-1511.62 165.851 -1517.03 216.275 -1505.24 263.982C-1492.6 314.57 -1461.94 353.936 -1414.45 376.066C-1411.44 377.344 -1406.88 379.215 -1403.83 380.48L-1401.7 381.353L-1399.52 382.081C-1390.83 385.105 -1381.98 387.605 -1372.99 389.572C-1369.2 390.255 -1362.88 391.416 -1359.43 392.044C-1278.34 403.042 -1197.31 378.381 -1123.36 346.884C-1104.21 338.467 -1083.94 328.821 -1065.47 319.143C-1022.09 296.51 -980.256 271.038 -939.706 243.714C-778.693 133.119 -592.911 59.1397 -400.19 27.7086C-256.176 4.95361 -105.859 3.02591 35.1696 43.3948C104.358 64.1991 174.119 96.308 220.642 153.266C303.67 256.804 241.398 377.641 162.815 462.4C53.2092 580.327 -73.6973 660.998 -239.887 621.474C-427.906 576.244 -592 427.455 -795.893 460.614C-844.349 468.133 -890.87 485.566 -933.951 508.712C-998.448 542.965 -1060.31 586.817 -1101.73 647.948C-1115.44 668.064 -1126.79 690.286 -1134.48 713.389C-1142.36 736.431 -1146.72 760.997 -1147.71 785.284C-1152.44 904.436 -1078.53 1026.09 -998.486 1109.69L-998.441 1109.68Z" fill="#FAECC8"/>
<path d="M-998.441 1109.68C-1067.89 1029.46 -1126.58 922.908 -1131.67 815.201C-1134.21 756.618 -1118.6 699.695 -1086.04 650.875C-1043.42 587.196 -979.019 541.75 -911.482 507.403C-825.313 461.077 -723.602 445.987 -628.165 468.268C-451.146 505.323 -294.599 646.31 -108.927 632.473C-9.99966 624.539 77.3293 567.87 147.195 500.528C178.051 471.106 207.399 439.171 231.382 403.867C354.821 222.153 238.131 91.2075 53.693 38.5597C-222.59 -37.2188 -548.267 31.5844 -797.395 164.476C-840.508 187.503 -882.113 213.282 -922.482 240.798C-988.184 284.989 -1057.15 325.072 -1130.91 354.306C-1203.17 382.226 -1285.81 403.489 -1362.71 384.173C-1425.35 368.378 -1469.06 324.624 -1484.73 261.82C-1490.55 238.251 -1492.24 213.608 -1490.61 189.404C-1480.96 66.6418 -1403.14 -41.3259 -1309.05 -116.44C-1289.93 -131.597 -1269.92 -145.628 -1249.22 -158.578C-1352.38 -94.7655 -1441.25 0.263199 -1478.12 117.484C-1492.27 164.047 -1497.68 214.471 -1486.02 262.15C-1473.15 314.616 -1439.61 356.429 -1389.24 377.068C-1372.44 384.186 -1354.19 388.717 -1336.1 391.065C-1278.2 398.612 -1219.58 386.687 -1164.65 368.651C-1124.12 355.275 -1084.7 337.678 -1046.85 318.065C-1003.49 295.47 -961.68 270.051 -921.153 242.765C-740.224 118.452 -528.03 39.912 -309.731 16.7395C-165.228 2.63564 -13.5269 8.5101 121.409 66.3289C274.708 133.923 328.084 257.362 228.949 402.211C205.098 437.352 175.909 469.164 145.209 498.447C75.8145 565.391 -10.8716 621.824 -109.16 629.747C-170.051 634.877 -230.897 621.725 -287.911 600.96C-402.493 559.45 -507.596 492.291 -627.723 466.146C-723.568 443.895 -825.908 459.217 -912.286 505.839C-980.008 540.396 -1044.55 586.118 -1087.14 650.143C-1119.68 699.2 -1135.24 756.463 -1132.53 815.224C-1127.19 923.023 -1068.19 1029.54 -998.46 1109.67L-998.441 1109.68Z" fill="#FAECC8"/>
<path d="M-998.441 1109.68C-1057.35 1034.84 -1104.38 941.014 -1115.17 845.636C-1122.67 778.174 -1109.05 710.888 -1071.71 653.765C-1028.54 586.813 -961.029 539.654 -890.449 504.924C-825.37 471.765 -752.014 454.161 -678.906 458.754C-555.684 465.785 -446.085 528.166 -335.402 576.682C-268.551 606.013 -197.996 631.499 -124.162 632.869C-7.3371 635.973 93.9865 570.923 174.396 491.604C255.837 412.843 343.158 290.503 280.308 176.205C237.008 100.371 152.42 60.6638 71.7099 36.7449C-165.188 -26.8623 -420.642 12.9483 -646.098 101.404C-719.76 130.982 -790.79 167.146 -857.883 209.562C-873.405 219.25 -888.555 229.608 -903.776 239.76C-964.433 280.5 -1027.78 317.779 -1095.22 346.153C-1182.3 382.773 -1298 413.278 -1386.11 366.166C-1421.11 347.032 -1447.39 315.195 -1460.24 277.518L-1462.5 271.071L-1465.52 260.102C-1465.96 258.648 -1466.23 257.151 -1466.53 255.661L-1467.46 251.197C-1468.89 245.379 -1469.45 238.959 -1470.36 233.211C-1483.83 96.5789 -1393.03 -36.2945 -1289.71 -117.906C-1270.6 -133.059 -1250.58 -147.075 -1229.9 -160.021C-1255.78 -143.937 -1280.67 -126.097 -1304.02 -106.522C-1401.08 -24.9396 -1484.22 102.098 -1471.61 233.337C-1471.17 236.92 -1470.19 243.565 -1469.64 246.943C-1469.14 249.228 -1468.29 253.649 -1467.81 255.924C-1467.1 259.9 -1464.82 267.446 -1463.78 271.446C-1453.16 305.733 -1432.15 337.202 -1402.41 357.744L-1398.69 360.433L-1394.78 362.829C-1392.14 364.399 -1389.56 366.048 -1386.9 367.561L-1378.69 371.709C-1374.85 373.757 -1370.1 375.497 -1366.06 377.219C-1361.23 379.273 -1353.7 381.566 -1348.68 383.14C-1346.11 383.813 -1338.07 385.808 -1335.33 386.501C-1258.17 402.253 -1179.02 381.267 -1107.1 353.327C-1080.24 342.397 -1053.8 330.295 -1028.1 316.902C-984.763 294.345 -942.96 268.945 -902.435 241.708C-701.598 103.775 -462.171 21.4637 -218.639 9.92784C-62.3418 2.23096 191.655 29.7502 277.633 177.659C339.714 290.464 252.73 411.849 172.365 489.536C92.5485 568.311 -8.09717 633.196 -124.14 630.139C-197.608 628.815 -267.804 603.409 -334.389 574.295C-445.258 525.861 -555.331 463.511 -678.819 456.68C-752.228 452.167 -826.008 469.981 -891.242 503.342C-962.007 538.281 -1029.67 585.739 -1072.8 653.048C-1110.11 710.466 -1123.65 778.003 -1115.94 845.683C-1104.89 941.135 -1057.61 1034.88 -998.464 1109.66L-998.441 1109.68Z" fill="#FAECC8"/>
<path d="M-998.441 1109.68C-1072.64 1005.2 -1127.7 859.715 -1091.14 731.906C-1057.41 611.296 -947.644 533.311 -836.625 488.034C-643.562 410.326 -487.823 499.365 -314.661 577.246C-269.905 596.648 -224.046 614.296 -176.082 624.105C-18.9601 658.895 109.061 580.169 213.821 469.727C378.316 299.175 356.397 129.871 125.025 46.2253C-185.906 -57.4651 -586.298 41.7748 -854.419 218.297C-924.964 266.094 -997.366 312.049 -1076.28 344.86C-1121 363.719 -1168.02 378.69 -1216.16 385.468C-1272.64 393.195 -1334.69 388.653 -1382.39 354.862C-1409.78 335.809 -1430.22 307.327 -1441 275.855L-1442.5 271.562L-1443.24 269.404L-1443.83 267.206L-1446.24 258.43C-1448.4 249.778 -1449.91 240.389 -1451.07 231.566C-1464.39 94.9575 -1373.67 -37.7642 -1270.36 -119.357C-1251.25 -134.51 -1231.25 -148.507 -1210.58 -161.449C-1231.29 -148.559 -1251.32 -134.603 -1270.48 -119.501C-1370.64 -40.2908 -1456.23 81.4903 -1453.58 213.456C-1453.32 223.82 -1452.04 235.078 -1450.37 245.32C-1449.5 249.767 -1448.56 254.403 -1447.54 258.761C-1447.07 260.75 -1444.97 268.041 -1444.53 269.813C-1436.1 296.77 -1421.64 322.095 -1401.03 341.603C-1399.51 343.248 -1392.66 349.042 -1390.68 350.69C-1388.78 352.28 -1385.38 354.655 -1383.31 356.166C-1378.47 359.888 -1372.98 362.839 -1367.82 366.006L-1359.61 370.154C-1358.23 370.81 -1356.9 371.591 -1355.48 372.171L-1351.24 373.919C-1348.39 375.065 -1345.6 376.32 -1342.72 377.36C-1337.25 379.113 -1330.62 381.553 -1325.18 382.756C-1243.34 403.872 -1151.59 378.405 -1075.45 346.753C-1007.86 318.482 -944.317 281.248 -883.501 240.561C-642.948 76.0888 -345.799 -12.6988 -54.1209 11.7109C18.4259 18.6985 90.9075 33.3478 157.925 62.5221C365.163 154.862 357.735 316.276 211.765 467.745C79.7796 605.643 -58.0572 670.317 -245.698 601.764C-447.597 527.433 -611.418 396.312 -837.246 486.374C-948.755 532.038 -1058.48 610.364 -1092.1 731.634C-1128.37 859.734 -1072.99 1005.2 -998.392 1109.68L-998.441 1109.68Z" fill="#FAECC8"/>
<path d="M-998.441 1109.68C-1082.48 977.616 -1130.89 793.854 -1039.51 653.487C-994.829 583.903 -924.439 535.106 -850.24 500.945C-762.395 458.241 -660.638 446.856 -565.707 470.122C-378.698 510.686 -209.977 667.818 -10.0344 623.571C86.313 601.697 166.558 537.695 233.584 467.78C298.686 399.31 362.442 303.717 332.663 205.638C286.522 66.7348 95.096 19.4529 -35.1167 7.29179C-321.18 -16.3468 -612.917 68.4427 -850.652 227.144C-964.54 304.776 -1128.05 398.734 -1269.85 385.975C-1278.87 385.153 -1287.98 383.59 -1296.85 381.879L-1310.1 378.554C-1311.56 378.143 -1312.98 377.627 -1314.43 377.167L-1323.08 374.323C-1327.84 372.587 -1331.15 370.972 -1335.72 369.185C-1337.11 368.596 -1338.44 367.845 -1339.8 367.185L-1347.93 363.096L-1355.71 358.404C-1357.01 357.597 -1358.34 356.88 -1359.58 356.011L-1363.28 353.363C-1385.69 337.799 -1403.35 315.785 -1415.01 291.2C-1418.44 283.624 -1421.45 275.794 -1424.02 267.877L-1424.61 265.679L-1427.03 256.903C-1429.16 248.276 -1430.68 238.843 -1431.83 230.034C-1444.79 96.3413 -1358.17 -33.4562 -1258.21 -115.047C-1236.98 -132.37 -1214.56 -148.346 -1191.33 -162.857C-1212.03 -149.985 -1232.06 -136.029 -1251.22 -120.928C-1351.37 -41.7366 -1436.93 79.9876 -1434.33 211.92C-1434.39 216.905 -1433.43 225.093 -1433.08 230.176C-1432.53 233.411 -1431.73 240.615 -1431.14 243.774C-1430.1 248.206 -1429.45 252.874 -1428.32 257.218L-1425.92 266.062C-1418.21 292.378 -1404.59 317.334 -1385.15 336.836C-1379.08 343.142 -1371.41 349.661 -1364.21 354.656C-1360.33 357.766 -1353.06 361.829 -1348.73 364.515C-1345.26 366.276 -1339.67 369.155 -1336.42 370.687L-1332.18 372.436C-1329.34 373.581 -1326.55 374.837 -1323.68 375.895L-1314.97 378.769C-1313.51 379.228 -1312.07 379.756 -1310.59 380.177C-1227.03 403.236 -1134.43 377.765 -1056.46 345.448C-1033.95 336.132 -1011.8 325.564 -990.158 314.397C-946.845 291.877 -905.045 266.526 -864.547 239.313C-591.695 52.4195 -217.18 -48.829 107.982 36.4008C276.147 83.537 404.983 202.077 298.452 379.693C279.62 410.926 256.512 439.377 231.438 465.823C149.283 552.821 41.6176 630.436 -82.926 628.951C-156.355 628.675 -226.81 603.979 -293.49 575.227C-425.492 517.519 -561.595 440.67 -710.899 458.657C-759.534 463.948 -806.87 478.523 -851.021 499.408C-922.722 532.53 -990.67 579.182 -1035.58 645.207C-1073.93 700.578 -1091.79 768.587 -1089.7 835.59C-1086.47 933.17 -1050.58 1027.92 -998.512 1109.72L-998.441 1109.68Z" fill="#FAECC8"/>
<path d="M-998.441 1109.68C-1051.48 1015.4 -1084.65 903.724 -1073.12 794.993C-1066.49 734.578 -1043.21 675.905 -1005.25 628.265C-959.982 570.575 -897.227 529.16 -830.848 499.355C-742.491 457.779 -640.749 447.537 -545.923 470.83C-359.083 511.6 -189.796 668.212 9.96707 622.635C93.8712 603.133 166.298 551.098 227.329 492.053C262.442 458.157 295.275 421.378 320.529 379.435C339.293 347.949 353.893 313.379 358.255 276.714C364.838 227.674 348.407 177.253 316.173 140.024C236.727 48.9553 99.7627 17.4654 -16.0753 5.82759C-293.017 -17.13 -575.132 62.0682 -808.544 210.669C-815.38 215.161 -824.714 221.172 -831.455 225.782C-886.779 263.427 -944.07 298.698 -1004.64 327.3C-1093.47 368.602 -1207.39 406.594 -1303.83 372.836C-1306.67 371.784 -1309.45 370.559 -1312.26 369.421L-1316.46 367.694C-1317.86 367.091 -1319.18 366.355 -1320.54 365.695L-1328.67 361.606L-1336.44 356.895C-1337.74 356.087 -1339.07 355.37 -1340.3 354.497L-1343.99 351.85C-1371.35 332.754 -1391.74 304.26 -1402.47 272.791C-1408.55 255.783 -1411.94 237.444 -1413.28 219.438C-1420.1 109.069 -1360.89 3.98891 -1286.03 -73.3454C-1252.1 -108.111 -1213.19 -138.632 -1172 -164.318C-1192.7 -151.447 -1212.73 -137.491 -1231.87 -122.394C-1330.49 -44.0923 -1412.69 71.6675 -1415.2 201.251C-1415.23 244.095 -1404.48 287.257 -1377.97 321.564C-1374.16 326.167 -1370.22 331.169 -1365.85 335.318C-1363.62 337.413 -1361.54 339.852 -1359.27 341.713L-1352.29 347.662C-1349.08 350.281 -1344.58 353.354 -1341.21 355.831C-1339.19 357.119 -1331.77 361.636 -1329.46 363.02C-1325.9 364.807 -1320.46 367.627 -1317.15 369.193C-1312.92 370.946 -1308.62 372.772 -1304.41 374.401L-1295.69 377.274C-1221.69 399.768 -1142.46 382.353 -1071.31 357.392C-1038.37 345.408 -1006.24 330.966 -974.975 315.12C-930.27 291.987 -887.082 266.008 -845.323 237.928C-604.917 73.4465 -307.934 -15.4247 -16.3463 8.76878C98.8298 20.3916 234.851 51.7175 313.825 141.983C345.527 178.665 361.769 228.08 355.271 276.359C345.862 349.346 300.198 411.662 251.051 464.094C168.903 551.057 61.6605 629.056 -62.8314 628.423C-136.26 628.627 -206.831 604.219 -273.575 575.644C-384.789 527.96 -494.682 466.459 -617.809 457.624C-691.039 451.861 -765.098 466.961 -831.577 497.771C-913.275 534.31 -989.953 590 -1034.27 669.263C-1111.26 807.104 -1072.36 978.926 -998.441 1109.68Z" fill="#FAECC8"/>
<path d="M-998.441 1109.68C-1061.46 983.009 -1091.57 818.847 -1026.76 687.298C-1005.4 643.563 -973.914 605.062 -936.751 573.725C-843.176 497.306 -720.905 449.88 -599.152 459.756C-476.297 468.953 -366.74 530.159 -255.598 577.814C-188.517 606.507 -117.514 630.848 -43.6899 630.506C81.5146 630.803 189.467 552.342 272.176 464.956C297.39 438.376 320.68 409.763 339.622 378.342C446.804 199.622 318.956 78.5409 147.499 30.62C-165.785 -52.9847 -538.256 42.8926 -804.422 219.164C-872.244 265.446 -942.661 308.929 -1018.59 340.652C-1063.3 359.493 -1110.33 374.434 -1158.46 381.193C-1214.92 388.901 -1276.97 384.31 -1324.62 350.474C-1347.04 334.909 -1364.7 312.895 -1376.37 288.314C-1379.8 280.739 -1382.81 272.908 -1385.38 264.991L-1385.97 262.793L-1388.39 254.017C-1390.53 245.376 -1392.03 235.972 -1393.19 227.149C-1406.46 90.6221 -1315.72 -42.1525 -1212.46 -123.684C-1193.36 -138.818 -1173.36 -152.83 -1152.69 -165.757C-1173.39 -152.871 -1193.42 -138.93 -1212.58 -123.828C-1312.73 -44.6372 -1398.29 77.0872 -1395.69 209.02C-1395.78 213.963 -1394.77 222.219 -1394.44 227.275C-1393.95 230.541 -1393.05 237.702 -1392.5 240.873C-1391.63 245.32 -1390.69 249.956 -1389.69 254.318L-1387.28 263.161C-1379.57 289.477 -1365.96 314.434 -1346.51 333.935C-1340.44 340.241 -1332.77 346.76 -1325.56 351.751C-1321.68 354.862 -1314.41 358.924 -1310.08 361.61C-1306.57 363.379 -1301.04 366.239 -1297.77 367.783L-1293.53 369.531C-1290.69 370.677 -1287.9 371.932 -1285.03 372.991L-1276.32 375.864C-1274.86 376.324 -1273.42 376.851 -1271.95 377.258C-1188.39 400.316 -1095.78 374.845 -1017.82 342.513C-995.311 333.197 -973.156 322.629 -951.515 311.462C-908.202 288.943 -866.402 263.592 -825.903 236.378C-665.363 125.813 -480.207 51.473 -287.952 19.6219C-132.56 -5.10822 31.1391 -6.74336 181.376 44.5719C337.701 99.2075 433.783 216.428 337.084 376.778C318.252 408.01 295.14 436.447 270.055 462.912C187.846 549.828 80.7533 627.963 -43.7243 627.742C-117.168 628.127 -187.797 603.862 -254.596 575.383C-365.902 527.835 -475.918 466.656 -599.01 457.651C-721.294 447.949 -843.918 495.613 -937.744 572.533C-974.949 604.073 -1006.47 642.823 -1027.79 686.756C-1092.34 818.733 -1061.9 982.949 -998.441 1109.68Z" fill="#FAECC8"/>
<path d="M-998.441 1109.68C-1037.06 1020.65 -1057.28 921.967 -1049.27 824.885C-1036.58 667.816 -936.772 556.279 -794.625 497.149C-727.792 467.959 -653.892 453.703 -581.045 459.776C-432.904 470.691 -306.357 556.431 -168.876 603.744C-148.659 610.619 -128 616.51 -107.112 620.977C26.2124 650.862 138.638 602.869 238.024 514.956C274.228 482.675 309.367 447.378 338.061 408.151C399.112 326.119 427.35 223.504 355.494 138.062C307.643 81.4762 237.284 49.8957 167.485 29.3835C-69.3905 -33.9575 -324.715 5.91481 -550.058 94.4363C-623.681 124.036 -694.678 160.207 -761.736 202.63C-777.258 212.318 -792.389 222.686 -807.599 232.82C-858.118 266.837 -910.588 298.124 -965.624 324.265C-1062.65 369.959 -1203.63 415.122 -1301.48 351.838L-1308.87 346.542C-1310.09 345.636 -1311.37 344.824 -1312.5 343.795L-1319.43 337.913C-1320 337.409 -1320.61 336.946 -1321.15 336.418L-1322.75 334.812L-1325.97 331.604C-1329.89 327.8 -1334.52 322.389 -1338.05 318.03C-1350.62 301.831 -1359.86 283.266 -1366.07 263.759C-1367.6 258.047 -1370.05 249.794 -1371.01 243.896C-1372.43 238.171 -1373 231.594 -1373.91 225.924C-1387.26 89.3091 -1296.53 -43.4505 -1193.22 -125.043C-1174.1 -140.196 -1154.11 -154.208 -1133.43 -167.135C-1174.72 -141.538 -1213.76 -111.093 -1247.79 -76.382C-1327.36 4.87466 -1391.87 123.076 -1373.22 239.664C-1368.14 268.241 -1357.1 295.922 -1339.26 318.963C-1336.36 322.514 -1333.39 326.027 -1330.35 329.46C-1328.76 331.134 -1325.45 334.303 -1323.86 335.958L-1322.23 337.575C-1321.69 338.117 -1321.08 338.58 -1320.51 339.085C-1317.5 341.658 -1312.89 345.744 -1309.86 347.817L-1306.14 350.506C-1301.31 354.227 -1295.82 357.178 -1290.65 360.346C-1287.06 362.139 -1281.67 364.976 -1278.33 366.499C-1274.1 368.252 -1269.79 370.108 -1265.58 371.688C-1261.74 372.937 -1256.02 374.897 -1252.48 375.951C-1249.89 376.586 -1241.87 378.653 -1239.12 379.327C-1160.5 395.343 -1079.76 373.583 -1006.73 344.557C-981.289 334.2 -956.321 322.574 -931.959 309.94C-888.635 287.402 -846.839 262.036 -806.33 234.803C-605.591 96.8643 -366.292 14.4911 -122.841 2.83266C32.5482 -5.19789 288.117 22.8615 373.651 169.831C436.417 282.437 349.748 403.914 269.491 481.765C245.808 505.018 220.17 527.561 193.553 547.289C99.5847 616.731 -0.655579 644.199 -115.519 616.435C-204.757 595.186 -285.948 551.267 -370.017 515.892C-459.167 477.424 -556.072 448.405 -654.188 458.349C-702.694 462.805 -750.73 476.205 -795.38 495.589C-937.964 555.124 -1037.73 667.306 -1050.08 824.846C-1057.84 922.086 -1037.37 1020.69 -998.512 1109.72L-998.441 1109.68Z" fill="#FAECC8"/>
</g>
</svg>
