<svg width="190" height="141" viewBox="0 0 190 141" fill="none" xmlns="http://www.w3.org/2000/svg">
<g clip-path="url(#clip0_578_10615)">
<path d="M20.5 133.134C37.5418 105.188 67.6997 54.9552 84.6029 27.6238C86.8313 23.9943 89.279 19.9937 91.4496 16.3062C92.8813 13.0478 97.592 12.3984 99.6126 15.5177C108.896 31.0561 124.171 56.5322 133.511 72.349L169.5 133.03L165.505 135.361L130.914 73.868C125.152 63.6289 110.535 37.631 105.097 27.6817C103.665 25.1191 102.257 22.5332 100.79 19.9821C99.3817 17.8485 98.5273 14.3349 95.3983 14.6596C94.0244 14.8219 93.1353 15.6568 92.4888 16.9208L90.2719 20.7358C88.7825 23.2637 87.3508 25.838 85.896 28.3891C70.1705 56.1728 40.6361 107.357 24.4718 135.5L20.5 133.134Z" fill="#F3C545"/>
<path d="M31.5859 133.308C45.7528 109.885 70.8651 67.7918 84.8819 44.8668C86.3944 42.6172 89.0961 37.1555 91.3591 35.5553C95.0192 32.4012 99.6606 34.1986 102.085 37.8977C103.367 39.7414 104.775 42.3853 105.953 44.2754L113.504 56.9497C123.076 73.1607 148.558 116.471 158.406 133.227L155.012 135.21L125.904 83.8752C121.067 75.3407 108.759 53.6217 104.164 45.3306C101.993 41.933 100.03 35.6945 95.3425 35.7872C90.7472 36.4946 89.0384 42.4085 86.6715 45.9336C82.0416 54.0855 69.4219 75.8857 64.5611 84.2811L34.9689 135.338L31.5975 133.332L31.5859 133.308Z" fill="#F3C545"/>
<path d="M42.6797 133.494C50.7849 119.857 71.2443 85.4175 79.0724 72.2794L85.2033 62.0866C87.651 58.0976 91.6113 53.5521 96.9108 54.4565C100.721 55.2567 103.48 58.5151 105.432 61.5996C107.556 65.0667 109.473 68.4411 111.493 71.8619C119.114 84.942 139.446 119.904 147.309 133.424L144.515 135.059C136.617 121.307 116.677 86.5539 109.069 73.2766C106.009 68.418 103.861 62.678 99.7165 58.747C91.1032 51.4068 85.3418 68.2092 81.474 73.7173L69.4777 94.2071L45.4623 135.164L42.6797 133.505V133.494Z" fill="#F3C545"/>
<path d="M53.7656 133.668L71.8812 102.603L80.9447 87.0757C84.0506 81.8344 88.311 75.1668 95.1 74.7609C102.074 74.7841 106.369 81.4865 109.509 86.7626L118.423 102.382L136.238 133.621L134.044 134.897L115.883 103.855C112.65 98.7643 105.907 85.5219 101.797 81.3822C94.2341 73.2419 87.6298 81.6605 83.6349 88.676L74.4097 104.11L55.9593 134.978L53.7772 133.679L53.7656 133.668Z" fill="#F3C545"/>
<path d="M64.8475 133.842L76.8206 112.517C83.2055 100.005 94.1395 86.7974 106.632 101.802C112.082 108.47 120.672 126.258 125.129 133.795L123.535 134.723C118.929 127.684 109.472 110.151 104.034 104.087C93.5968 92.1199 85.0182 104.446 79.3145 114.013L66.4293 134.793L64.8359 133.842H64.8475Z" fill="#F3C545"/>
<path d="M75.9451 134.016C85.3666 110.267 103.771 108.98 113.758 133.204C113.827 133.39 113.966 133.737 114.035 133.923V133.946C113.816 134.097 114.532 133.679 113.539 134.259C112.534 134.839 113.262 134.41 113.031 134.538C113.031 134.538 113.008 134.514 113.008 134.503C112.881 134.352 112.65 134.074 112.523 133.923C97.5129 114.859 91.6591 116.239 76.9265 134.596L75.9336 134.004L75.9451 134.016Z" fill="#F3C545"/>
</g>
<defs>
<clipPath id="clip0_578_10615">
<rect width="149" height="122" fill="white" transform="translate(20.5 13.5)"/>
</clipPath>
</defs>
</svg>
