<svg width="190" height="141" viewBox="0 0 190 141" fill="none" xmlns="http://www.w3.org/2000/svg">
<g clip-path="url(#clip0_578_10557)">
<path d="M22.9965 15.5C68.8956 52.06 117.069 87.1415 165.729 119.963L170.5 123.1L168.004 126.511L163.561 122.92C135.835 100.859 105.676 78.5876 76.8399 57.8576C58.2645 44.5832 39.5726 31.4673 20.5 18.911L22.9965 15.5Z" fill="#F3C545"/>
<path d="M39.582 15.6689C75.9079 53.211 114.508 89.4225 154.314 123.269L151.416 126.352C124.473 98.2088 95.2555 70.7624 66.3557 44.6043C56.6131 35.8287 46.7753 27.1481 36.6836 18.742L39.582 15.6584V15.6689Z" fill="#F3C545"/>
<path d="M56.2115 15.9224C81.3032 53.0527 109.018 89.4542 138.161 123.522L134.798 126.078C116.201 98.2088 95.3406 70.7518 74.4802 44.5093C67.4351 35.7125 60.2842 26.9791 52.8477 18.478L56.2115 15.9224Z" fill="#F3C545"/>
<path d="M72.8427 16.3237C79.5599 34.5826 87.7263 53.1266 95.7447 70.8891C103.932 88.5883 112.596 106.879 122.011 123.923L118.16 125.676C109.74 102.898 99.3201 79.7387 89.0169 57.7098C82.6487 44.3404 76.1643 31.0554 68.9922 18.0873L72.8427 16.3343V16.3237Z" fill="#F3C545"/>
<path d="M89.3972 16.8834C90.6137 34.741 93.1525 53.2216 95.7653 70.9631C98.558 88.6833 101.626 107.058 105.793 124.483L101.615 125.117C100.049 102.824 96.675 79.6965 93.0996 57.6042C90.8147 44.1714 88.4028 30.7914 85.2188 17.517L89.3972 16.8834Z" fill="#F3C545"/>
<path d="M105.793 17.5276C101.636 34.9416 98.558 53.3378 95.7653 71.0475C93.1525 88.7995 90.6137 107.248 89.3972 125.127L85.2188 124.494C90.3598 102.739 94.0305 79.6648 97.1934 57.5091C99.0128 44.0024 100.684 30.5169 101.615 16.894L105.793 17.5276Z" fill="#F3C545"/>
<path d="M122.011 18.0873C112.596 35.1106 103.922 53.4329 95.7446 71.1215C87.7157 88.8946 79.5599 107.417 72.8427 125.687L68.9922 123.934C80.7023 102.655 91.397 79.6226 101.319 57.4141C107.254 43.8546 113.061 30.2529 118.171 16.3448L122.021 18.0979L122.011 18.0873Z" fill="#F3C545"/>
<path d="M138.161 18.4886C109.029 52.5563 81.3032 88.9473 56.2115 126.078L52.8477 123.522C74.7764 98.1771 95.7003 70.773 115.46 43.6962C122.072 34.5615 128.578 25.3528 134.798 15.9224L138.161 18.478V18.4886Z" fill="#F3C545"/>
<path d="M154.314 18.742C114.519 52.588 75.8973 88.7995 39.582 126.342L36.6836 123.258C66.4932 98.1665 95.7633 70.7729 123.711 43.6117C133.083 34.4453 142.371 25.1944 151.405 15.6689L154.303 18.7526L154.314 18.742Z" fill="#F3C545"/>
<path d="M170.5 18.911C120.073 52.5669 70.4295 88.7678 22.9965 126.5L20.5 123.089C51.7588 102.496 83.5465 79.5381 113.726 57.2557C132.037 43.6223 150.232 29.8304 168.004 15.5L170.5 18.911Z" fill="#F3C545"/>
</g>
<defs>
<clipPath id="clip0_578_10557">
<rect width="150" height="111" fill="white" transform="translate(20.5 15.5)"/>
</clipPath>
</defs>
</svg>
