<svg width="1280" height="682" viewBox="0 0 1280 682" fill="none" xmlns="http://www.w3.org/2000/svg">
<g opacity="0.3">
<mask id="mask0_466_9102" style="mask-type:alpha" maskUnits="userSpaceOnUse" x="-4" y="-26" width="1299" height="383">
<rect x="-3.47266" y="-25.371" width="1297.52" height="382.331" fill="#D9D9D9"/>
</mask>
<g mask="url(#mask0_466_9102)">
<path d="M455.274 -624.708C320.135 -535.943 193.251 -379.123 342.555 -234.698C373.017 -204.952 409.24 -180.384 447.112 -158.962C503.461 -126.325 567.175 -102.379 633.08 -99.7097C812.938 -90.9562 949.227 -215.213 1123.62 -226.82C1260.37 -236.122 1378.13 -152.03 1463.39 -59.259C1542.95 28.9926 1564.7 129.221 1459.56 199.128C1342.35 273.789 1163.31 277.05 1019.63 261.109C823.271 237.942 630.347 170.231 464.637 65.7701C427.837 42.6574 389.974 20.9338 350.78 1.49139C-109.241 -227.801 -172.354 168.514 179.554 372.984C67.9236 308.934 -31.3433 206.26 -45.5991 86.8736C-52.4304 26.7718 -26.8162 -33.4879 36.4254 -56.806C96.6717 -79.202 166.93 -67.9727 229.44 -49.359C313.896 -23.4572 392.015 18.3104 465.795 64.2415C631.374 168.224 823.803 235.852 1019.8 258.848C1169.67 276.71 1409.08 270.694 1502.08 157.156C1556.27 88.069 1518.52 5.52881 1461.41 -57.8753C1376.68 -150.098 1259.85 -233.84 1123.93 -224.668C949.648 -212.919 813.087 -88.9886 633.107 -98.0919C566.897 -100.856 502.923 -124.96 446.373 -157.816C408.433 -179.357 372.104 -204.017 341.63 -233.932C192.332 -379.129 319.291 -535.852 455.274 -624.708Z" fill="#73206F"/>
<path d="M455.274 -624.708C371.092 -564.48 280.574 -465.788 290.393 -360.45C295.287 -310.302 323.331 -265.732 362.712 -228.892C393.789 -199.779 430.234 -175.608 468.434 -154.821C506.498 -133.792 547.165 -116.25 590.21 -107.151C771.205 -66.77 917.401 -182.843 1080.99 -217.813C1208.68 -245.699 1316.32 -203.314 1413.83 -121.437C1454.72 -86.9056 1493.46 -48.9052 1520.2 -4.57086C1601.41 131.144 1494.15 216.957 1358.27 249.687C1112.85 305.959 822.379 243.207 594.542 130.785C515.578 92.7097 445.734 40.6808 366.783 2.60889C327.92 -16.618 286.861 -33.935 245.08 -46.5126C180.727 -65.6581 106.912 -77.0923 46.3714 -50.5903C45.1924 -50.0565 43.9519 -49.6154 42.8241 -49.0045L35.9962 -45.4316C34.8582 -44.8362 33.6966 -44.2598 32.6572 -43.5491L26.2009 -39.4836C25.0937 -38.8419 24.1088 -38.0659 23.1002 -37.309L17.0486 -32.7673C14.2297 -30.3015 11.3973 -27.8394 8.69665 -25.2786L3.59694 -19.8857L2.32951 -18.5387L1.18048 -17.0966L-3.40928 -11.3516C-5.51863 -8.36597 -7.53328 -5.30432 -9.49422 -2.22821L-13.0151 4.14569L-13.9012 5.73444C-15.4385 9.43127 -17.7053 13.5414 -18.9497 17.3801L-21.3943 24.1944C-22.1649 27.2851 -24.5193 34.7831 -24.9672 38.2266C-32.3433 73.8633 -26.3478 111.523 -13.6936 146.833C21.5591 241.879 103.206 320.582 196.798 374.625C102.961 320.745 21.0612 242.126 -14.4932 147.025C-26.5064 113.941 -32.4672 78.8901 -27.4403 45.1475C-26.7611 41.7533 -26.1532 37.82 -25.4108 34.4047C-25.164 33.2154 -24.7831 32.0621 -24.4826 30.8871L-22.556 23.8578C-20.9272 19.5514 -19.3363 14.2583 -17.3089 10.2362C-16.3331 8.15161 -15.3212 5.55676 -14.1694 3.62073C-11.4259 -1.73126 -7.95179 -7.17908 -4.5058 -12.0385C-3.40096 -13.5305 -1.01212 -16.3779 0.106148 -17.8663C0.825184 -18.9925 6.48299 -24.8571 7.6777 -26.1476C11.3166 -29.4716 15.0513 -33.0995 19.1441 -36.0229L22.1896 -38.3139C23.2013 -39.0827 24.2029 -39.8668 25.3132 -40.5204L31.8257 -44.6342C34.7207 -46.4709 39.0243 -48.4628 42.0985 -50.1627C100.948 -77.8155 173.861 -68.3347 237.639 -50.3196C271.783 -40.651 305.724 -27.4349 337.965 -12.9752C387.817 9.70349 435.704 36.3322 481.727 65.0864C701.655 202.565 970.475 280.606 1230.3 266.248C1294.86 261.888 1359.16 251.257 1417.6 228.262C1527.42 185.277 1582.69 103.809 1517.93 -3.56824C1491.36 -47.6556 1452.86 -85.4658 1412.19 -119.811C1315.34 -201.179 1208.61 -243.398 1081.7 -215.733C918.049 -180.641 771.132 -64.8872 589.937 -105.652C546.728 -114.833 505.881 -132.512 467.733 -153.652C429.46 -174.547 392.917 -198.834 361.807 -228.094C322.339 -265.199 294.294 -310.035 289.51 -360.432C279.946 -466.019 370.694 -564.498 455.274 -624.708Z" fill="#73206F"/>
<path d="M455.274 -624.708C393.106 -575.917 337.238 -512.351 313.532 -439.558C269.483 -301.745 380.831 -203.023 511.113 -139.847C585.106 -103.89 661.029 -90.8763 741.22 -102.805C872.456 -121.752 980.46 -195.545 1109.92 -219.254C1122.74 -221.552 1136.91 -223.372 1150.05 -224.353C1253.4 -232.487 1343.24 -190.926 1421.09 -127.901C1458.46 -97.5834 1494.02 -64.1387 1521.78 -26.4043C1627.2 117.727 1527.79 215.089 1373 251.921C1166.19 298.847 932.214 260.26 730.604 184.528C648.593 153.257 569.929 113.956 496.579 67.5443C457.576 43.0932 417.222 20.4105 375.568 0.0551147C370.327 -2.35083 358.566 -7.91187 353.315 -10.3333C349.186 -12.2133 334.983 -18.2763 330.766 -20.1542C313.551 -27.1639 294.698 -34.5615 276.94 -40.2455C204.425 -63.8862 116.832 -79.3167 50.8546 -42.5664L42.7883 -37.4866C39.6876 -35.312 36.7092 -33.003 33.7103 -30.725L28.1197 -25.7555C27.1924 -24.926 26.2414 -24.1155 25.419 -23.1946L20.3225 -17.8137C19.4292 -16.9498 18.7284 -15.9454 17.9566 -14.9982L13.3668 -9.25323L11.3451 -6.21881C8.00504 -1.4325 4.6759 4.33325 2.25095 9.51697L-0.728218 16.1246C-2.02277 19.5061 -3.20994 22.9164 -4.41369 26.3349C-5.24378 29.7014 -7.4516 36.7059 -7.92649 40.3578L-8.63354 43.9094C-9.54908 48.2927 -9.75103 52.3221 -10.3725 56.4673C-10.5446 59.7945 -10.8439 64.0259 -11.0159 67.3531C-11.072 69.9251 -10.9367 75.7568 -10.9699 78.2969L-10.8562 80.1281L-10.6123 83.7823C-0.346657 205.333 101.12 310.968 213.962 376.243C100.785 311.145 -1.03638 205.491 -11.6321 83.7754L-11.8862 80.1057L-11.9999 78.2745C-11.955 75.8517 -12.1081 69.7109 -12.0767 67.2844C-11.8714 63.9408 -11.6661 59.6841 -11.4608 56.3405C-11.0367 52.8779 -10.416 47.0713 -9.74314 43.7008C-8.89868 40.1733 -8.54852 36.4501 -7.4585 33.0265L-5.54845 26.0054C-4.09964 21.5113 -2.34093 16.7198 -0.371723 12.3777C0.691006 10.2911 1.53933 7.71576 2.72437 5.76331L6.25789 -0.657837C7.9382 -3.49207 10.436 -7.12183 12.2806 -9.92474C14.5738 -12.6836 16.8793 -15.9716 19.2782 -18.588C21.4738 -20.9291 24.8461 -24.6543 27.1307 -26.6292L32.7672 -31.6625C35.7891 -33.9725 38.8038 -36.3096 41.9275 -38.5162L48.4399 -42.63C112.497 -79.9456 197.957 -66.3293 269.67 -44.3113C275.542 -42.3829 283.45 -39.7822 289.234 -37.8517C291.186 -37.1891 306.158 -31.6305 308.567 -30.7947C315.807 -27.9037 324.195 -24.6288 331.5 -21.657C335.908 -19.6896 349.442 -13.9202 354.109 -11.8453C403.906 10.768 451.775 37.3032 497.757 65.9957C717.268 203.527 985.545 281.715 1245.1 268.022C1309.63 263.866 1373.87 253.409 1432.41 230.823C1577.39 174.37 1603.36 68.8801 1500.16 -49.6848C1473.74 -80.2642 1442.44 -108.243 1410.08 -133.805C1331.69 -194.478 1243.86 -231.835 1142.39 -221.525C1130.6 -220.486 1118.11 -218.557 1106.61 -216.514C979.026 -191.859 871.666 -119.77 741.679 -101.135C658.392 -88.8185 579.044 -103.498 503.147 -142.337C375.075 -205.922 269.274 -304.831 312.92 -439.798C336.903 -512.656 392.917 -576.019 455.313 -624.749L455.274 -624.708Z" fill="#73206F"/>
<path d="M455.274 -624.708C386.698 -566.018 321.974 -479.817 317.773 -390.409C317.121 -373.477 318.549 -356.253 322.576 -339.436C327.158 -320.29 334.97 -301.279 345.562 -283.832C390.262 -209.386 484.661 -153.517 569.204 -121.175C782.384 -43.839 932.898 -179.084 1122.29 -217.399C1250.08 -242.482 1357.1 -196.266 1452.73 -114.312C1508.73 -66.0937 1563.9 -9.23425 1579.59 59.6212C1588.57 98.8282 1577.72 139.533 1551.13 169.489C1485.57 242.595 1363.31 265.367 1260.69 272.186C1044.12 283.561 821.393 229.538 626.408 132.844C597.146 118.167 568.483 102.435 540.558 85.6693C494.526 57.1661 448.288 28.7853 399.208 4.94385C385.727 -1.77521 368.577 -9.61713 354.633 -15.5727C282.543 -46.2263 194.119 -73.4321 116.944 -58.5776C64.7866 -48.6486 26.9069 -17.6851 12.687 28.457C0.679382 67.9 6.44332 110.989 20.8919 150.825C56.3676 245.576 137.75 324.03 231.163 377.936C137.522 324.184 55.8729 245.811 20.0923 151.017C5.47485 111.059 -0.432629 67.7542 11.5286 28.1085C25.7583 -18.5002 63.8674 -49.7827 116.534 -59.8923C194.047 -74.9351 282.875 -47.786 355.35 -17.0672C369.374 -11.0901 386.521 -3.28717 400.055 3.44623C449.242 27.2655 495.576 55.6086 541.688 84.0825C569.589 100.778 598.211 116.449 627.435 131.052C822.031 227.427 1044.27 281.28 1260.34 269.835C1362.34 263.015 1483.77 240.361 1548.93 167.935C1575.07 138.428 1585.82 98.5218 1576.96 59.9311C1563.96 1.59943 1520.88 -48.7114 1474.89 -91.4952C1463.41 -102.13 1450.88 -113.159 1438.71 -122.938C1292.08 -241.815 1166.96 -244.081 1001.92 -179.142C863.104 -125.082 728.145 -60.6169 568.666 -119.81C483.787 -152.407 389.286 -208.481 344.569 -283.401C333.989 -300.946 326.178 -320.07 321.635 -339.308C317.641 -356.192 316.235 -373.499 316.956 -390.476C321.433 -480 386.383 -566.077 455.257 -624.7L455.274 -624.708Z" fill="#73206F"/>
<path d="M455.274 -624.708C380.126 -553.893 311.491 -445.418 336.536 -340.578C347.798 -291.907 379.66 -248.432 420.307 -213.903C452.766 -186.183 490.262 -163.734 529.183 -144.402C568.017 -124.904 609.65 -109.894 652.787 -102.698C834.422 -71.1485 976.511 -186.014 1142.33 -217.052C1232.44 -233.423 1314.26 -216.369 1393.55 -168.352C1439.85 -140.094 1481.36 -105.283 1518.38 -67.567C1638.17 54.8992 1629.96 174.784 1464.33 237.817C1256.27 312.278 972.838 267.759 762.535 186.882C690.99 159.406 621.958 125.932 556.895 86.775C501.848 52.4451 445.915 19.0063 386.091 -7.75195C315.962 -38.7934 234.276 -66.337 157.362 -60.1883L153.338 -59.8842L149.367 -59.3502L141.416 -58.2977C138.781 -57.9133 136.199 -57.2989 133.581 -56.8209C127.672 -55.8172 122.024 -54.0714 116.286 -52.5781L114.433 -51.9459L107.015 -49.3936C71.9247 -36.464 46.2285 -11.8231 33.358 20.2617C25.0273 41.579 22.1135 64.8043 23.827 87.8364C32.2015 188.844 106.263 280.389 193.966 344.331C211.39 356.951 229.584 368.686 248.351 379.574C154.78 325.879 73.2362 247.597 37.3804 152.922C23.6163 115.311 17.4771 74.9119 26.7075 37.1342C36.6201 -2.92096 62.8542 -33.5428 104.52 -49.9607C107.161 -50.9017 111.169 -52.2752 113.85 -53.2054L115.719 -53.8459L117.644 -54.3701C125.294 -56.5557 133.105 -58.3181 141.045 -59.6525C144.402 -60.0974 149.987 -60.8581 153.047 -61.2684C224.886 -67.9146 297.616 -46.0935 364.227 -19.0001C381.486 -11.7759 399.769 -3.54175 416.461 4.67175C455.645 23.8832 493.527 45.3203 530.317 68.202C676.46 160.737 843.671 224.69 1015.94 254.857C1144.64 276.815 1278.41 282.311 1402.8 253.794C1463.8 239.005 1525.01 215.207 1564.9 170.958C1636.03 90.4812 1577.46 -7.63092 1505.32 -77.3683C1404.71 -174.403 1289.7 -242.15 1142.9 -214.969C976.841 -183.808 834.786 -69.3389 652.538 -101.179C609.236 -108.457 567.394 -123.6 528.462 -143.213C470.186 -172.258 414.002 -208.896 375.544 -258.793C362.821 -275.213 352.144 -293.254 344.694 -311.9C337.075 -330.504 332.548 -350.232 331.031 -369.648C323.69 -464.9 386.23 -560.082 455.233 -624.719L455.274 -624.708Z" fill="#73206F"/>
<path d="M455.274 -624.708C395.609 -562.489 346.207 -478.967 344.512 -393.111C343.796 -346.406 359.178 -300.55 389.426 -260.716C429.014 -208.754 487.501 -170.776 548.484 -141.577C626.355 -102.323 717.231 -87.5982 801.541 -102.874C958.034 -127.799 1093.58 -236.238 1259.11 -220.303C1347.32 -211.365 1426.5 -163.823 1490.42 -108.22C1518.64 -83.9181 1545.59 -57.6499 1567.86 -28.8322C1682.44 119.493 1582.09 220.964 1419.41 258.142C1175.63 311.369 884.11 247.865 658.997 135.21C620.04 115.691 582.351 94.0143 545.716 70.9839C486.107 33.9731 423.7 0.156494 357.322 -25.1242C292.307 -49.3168 218.229 -68.4684 150.336 -55.0707C95.0241 -44.11 57.2958 -10.3287 45.0071 39.3998C40.4521 58.0638 39.5953 77.6934 41.6866 97.0604C53.5012 195.324 125.569 283.572 211.241 346.017C228.655 358.622 246.822 370.35 265.575 381.234C172.125 327.572 90.5758 249.365 54.6883 154.808C40.8783 117.261 34.7391 76.8614 43.8494 39.1022C53.9174 -2.44568 82.6548 -34.9458 126.917 -50.0974C141.673 -55.3374 157.795 -58.4744 173.824 -59.8732C225.132 -64.3741 277.592 -53.3102 326.93 -37.4651C363.337 -25.7189 398.863 -10.6324 433.049 6.02222C472.212 25.2028 510.077 46.5972 546.847 69.4481C711.066 173.459 901.892 241.749 1096.69 265.996C1225.61 281.06 1360.4 280.363 1478.91 237.754C1613.5 187.824 1657.73 90.6785 1565.73 -27.5745C1543.59 -56.258 1516.79 -82.4238 1488.71 -106.611C1425.22 -161.884 1346.62 -209.221 1258.98 -218.133C1204.68 -223.831 1150.9 -214.933 1100.72 -199.856C999.89 -169.732 908.162 -118.881 801.991 -101.169C717.316 -85.9269 625.875 -100.854 547.81 -140.35C486.657 -169.721 428.044 -207.924 388.472 -260.16C358.231 -300.183 342.878 -346.31 343.746 -393.151C345.661 -479.075 395.34 -562.561 455.257 -624.7L455.274 -624.708Z" fill="#73206F"/>
<path d="M455.274 -624.708C404.844 -566.507 365.478 -492.838 358.388 -416.975C353.492 -363.313 367.376 -309.234 402.102 -262.646C442.267 -208.057 503.559 -168.629 567.259 -139.044C626.023 -110.858 691.741 -94.8721 756.655 -96.6148C866.082 -98.9847 961.936 -145.902 1059.12 -181.723C1117.81 -203.38 1179.91 -221.871 1245.55 -221.021C1349.39 -220.424 1441.24 -165.822 1514.85 -100.38C1589.37 -35.3549 1670.27 64.6169 1617.37 154.215C1580.85 213.619 1506.65 243.093 1435.48 260.065C1226.42 304.611 998.131 266.103 795.245 189.547C728.94 163.995 664.803 133.253 604.003 97.6222C589.941 89.479 576.191 80.811 562.384 72.3051C507.353 38.1824 450.019 6.75226 389.283 -17.6761C310.852 -49.2045 207.128 -76.6042 129.987 -41.3108C99.3631 -26.9561 76.8239 -2.23016 66.3797 27.512L64.5417 32.5994L62.1444 41.2778C61.7934 42.4266 61.5901 43.6149 61.36 44.796L60.6561 48.3358C59.5366 52.9435 59.2033 58.0536 58.5412 62.6191C50.1559 171.348 134.43 279.821 228.489 347.697C245.89 360.298 264.06 372.014 282.799 382.895C259.358 369.372 236.745 354.474 215.456 338.232C126.973 270.543 49.6702 166.931 57.426 62.4851C57.7287 59.6368 58.4239 54.3574 58.826 51.6752C59.2108 49.8635 59.8483 46.3566 60.2164 44.553C60.7454 41.3976 62.5739 35.4327 63.3935 32.2664C71.9341 5.17181 89.7985 -19.399 115.71 -35.0164L118.95 -37.0651L122.37 -38.8751C124.673 -40.0588 126.921 -41.3079 129.255 -42.4454L136.444 -45.5409C139.805 -47.0752 143.985 -48.3392 147.534 -49.6076C151.781 -51.1201 158.42 -52.7524 162.836 -53.877C165.106 -54.3468 172.21 -55.7278 174.627 -56.2089C242.849 -66.7539 313.816 -47.9157 378.527 -23.7158C402.705 -14.2827 426.548 -3.92444 449.762 7.44415C488.904 26.5939 526.759 47.9728 563.525 70.7847C745.813 186.193 960.964 258.211 1177.9 273.832C1317.14 284.091 1542.36 268.807 1614.95 152.984C1667.21 64.5571 1586.64 -34.6428 1513.1 -98.7822C1440.03 -163.775 1348.79 -218.227 1245.64 -218.84C1180.32 -219.717 1118.55 -201.282 1060.08 -179.79C962.732 -144.041 866.457 -97.1598 756.786 -94.9565C691.604 -93.2856 625.502 -109.45 566.595 -137.802C502.726 -167.559 441.282 -207.23 401.15 -262.102C366.444 -308.926 352.627 -363.202 357.699 -417.033C365.018 -492.948 404.609 -566.545 455.254 -624.688L455.274 -624.708Z" fill="#73206F"/>
<path d="M455.274 -624.708C392.022 -543.249 346.87 -428.545 382.753 -325.544C415.938 -228.364 515.633 -163.213 615.583 -124.143C789.37 -57.0203 925.565 -124.008 1077.55 -181.628C1116.86 -195.939 1157.19 -208.822 1199.59 -215.39C1338.45 -239.03 1454.4 -172.807 1550.5 -81.8753C1701.32 58.6183 1686.28 193.209 1482.66 253.899C1208.8 328.498 850.011 238.728 606.855 90.7393C542.843 50.7226 477.226 12.1275 406.168 -16.1447C365.884 -32.379 323.663 -45.5692 280.66 -52.2473C230.222 -59.9034 175.14 -57.9102 133.6 -32.1885C109.731 -17.6977 92.3004 4.50366 83.5431 29.3463L82.3188 32.7339L81.7185 34.4373L81.2525 36.1765L79.3346 43.1193C77.6428 49.9705 76.5514 57.4265 75.7512 64.4405C67.4994 173.154 151.692 281.504 245.74 349.364C263.141 361.965 281.301 373.667 300.027 384.543C281.261 373.707 263.078 362.037 245.638 349.476C154.454 283.601 75.1078 184.121 73.9955 78.8328C73.9517 70.5654 74.7972 61.6105 76.0124 53.4776C76.6696 49.9507 77.3815 46.2736 78.1769 42.8218C78.5417 41.2456 80.216 35.4803 80.5633 34.0769C87.3497 12.777 99.5432 -7.06128 117.37 -22.0931C118.675 -23.3666 124.614 -27.8116 126.334 -29.0754C127.985 -30.2945 130.944 -32.1014 132.749 -33.2536C136.95 -36.0973 141.758 -38.3089 146.27 -40.7016L153.459 -43.7971C154.669 -44.2845 155.834 -44.8727 157.084 -45.2985L160.81 -46.583C163.308 -47.4227 165.759 -48.3512 168.292 -49.1055C173.117 -50.3614 178.945 -52.1351 183.754 -52.9517C255.997 -67.6566 338.291 -44.9084 406.855 -17.6346C467.727 6.71606 525.228 38.1148 580.398 72.1988C798.714 209.841 1065.38 288.549 1324.21 276.739C1388.56 273.07 1452.65 263.282 1511.5 241.754C1693.42 173.488 1682.56 44.4234 1548.72 -80.3476C1427.68 -193.916 1303.37 -249.178 1138.25 -199.387C960.61 -145.357 818.333 -44.986 615.074 -122.834C514.678 -162.226 415.012 -227.648 381.91 -325.351C346.274 -428.578 391.707 -543.257 455.317 -624.71L455.274 -624.708Z" fill="#73206F"/>
<path d="M455.274 -624.708C383.989 -521.484 345.767 -376.048 430.751 -261.577C472.328 -204.846 536.228 -164.035 603.131 -134.809C682.399 -98.4025 773.218 -86.6349 857.052 -102.711C1022.34 -130.173 1168.29 -251.182 1347.32 -210.593C1433.6 -190.593 1506.67 -137.384 1568.13 -79.8014C1627.85 -23.4231 1687.08 54.5743 1663.17 132.094C1625.78 241.776 1456.74 274.486 1341.23 280.767C1087.38 292.11 825.63 216.736 609.973 83.7755C506.619 18.7985 358.69 -60.5192 232.888 -54.0657C224.89 -53.6469 216.822 -52.6385 208.979 -51.5063L197.281 -49.2002C195.995 -48.9108 194.744 -48.5359 193.461 -48.2074L185.849 -46.1637C181.655 -44.9033 178.757 -43.7015 174.738 -42.3943C173.514 -41.9614 172.356 -41.3968 171.159 -40.9058L164.04 -37.855L157.235 -34.3141C156.107 -33.7032 154.941 -33.1659 153.858 -32.5051L150.641 -30.4883C131.11 -18.6525 115.978 -1.54169 106.254 17.7791C103.406 23.7371 100.932 29.9095 98.8536 36.1625L98.3876 37.9019L96.4697 44.8447C94.7976 51.6758 93.6967 59.1672 92.8996 66.1694C84.8948 172.565 165.367 278.472 256.432 346.244C275.772 360.632 296.138 373.978 317.187 386.174C298.432 375.353 280.249 363.683 262.809 351.122C171.634 285.262 92.3195 185.828 91.1574 80.5653C90.9723 76.5844 91.6093 70.072 91.7876 66.0236C92.1881 63.4551 92.7162 57.7251 93.1577 55.2183C93.9689 51.7073 94.4162 47.9974 95.3088 44.559L97.2125 37.5617C103.378 16.7548 114.836 -2.8114 131.619 -17.8692C136.854 -22.744 143.504 -27.7468 149.773 -31.5452C153.145 -33.9263 159.502 -36.9783 163.284 -39.0086C166.327 -40.3237 171.22 -42.4747 174.072 -43.6127L177.797 -44.8972C180.296 -45.7368 182.746 -46.6655 185.269 -47.4352L192.944 -49.4999C194.227 -49.8285 195.495 -50.2115 196.798 -50.5092C270.523 -66.7192 353.573 -43.946 423.78 -16.0923C444.046 -8.06238 464.032 0.957825 483.577 10.4432C522.699 29.562 560.55 50.9019 597.292 73.6947C844.93 230.087 1180.75 320.78 1467.76 261.294C1616.11 228.089 1727.6 136.841 1628.15 -7.76752C1610.58 -33.1982 1589.27 -56.5214 1566.27 -78.2952C1490.9 -149.914 1393.08 -214.714 1282.33 -216.808C1217.02 -218.519 1155 -200.658 1096.44 -179.458C980.535 -136.861 861.485 -79.0893 728.197 -97.3794C684.794 -102.884 642.303 -115.766 602.477 -133.602C537.823 -161.934 476.152 -200.968 434.463 -254.863C398.894 -300.079 381.209 -354.846 381.311 -408.284C381.616 -486.104 411.042 -560.801 455.21 -624.738L455.274 -624.708Z" fill="#73206F"/>
<path d="M455.274 -624.708C410.572 -550.833 384.01 -462.547 397.129 -375.436C404.619 -327.028 426.868 -279.572 461.891 -240.538C503.677 -193.288 560.592 -158.572 620.424 -133.029C700.117 -97.5102 790.893 -86.6545 874.632 -102.756C1039.76 -130.387 1186.23 -250.965 1365.13 -209.319C1440.29 -191.541 1506.08 -148.091 1561.93 -99.3442C1594.06 -71.3584 1624.23 -41.1313 1647.8 -6.9801C1665.32 18.6517 1679.22 46.6353 1684.06 76.0229C1691.21 115.348 1677.92 155.171 1650.23 184.044C1581.95 254.66 1460.94 276.196 1358.2 282.438C1112.45 293.476 859.41 222.82 647.864 98.0373C641.664 94.271 633.203 89.2265 627.086 85.3682C576.881 53.8574 524.988 24.1896 470.353 -0.239807C390.246 -35.5527 287.909 -68.8832 203.007 -44.4703C200.514 -43.7053 198.07 -42.8003 195.602 -41.9653L191.909 -40.6974C190.682 -40.2526 189.527 -39.6999 188.331 -39.2088L181.211 -36.158L174.416 -32.6017C173.289 -31.9908 172.123 -31.4535 171.053 -30.7891L167.836 -28.7723C144.002 -14.2471 126.611 7.96515 117.897 32.8067C112.934 46.2255 110.402 60.7775 109.682 75.1175C106.523 163.054 161.958 248.505 230.585 312.218C261.686 340.867 297.099 366.258 334.422 387.85C315.666 377.029 297.484 365.359 280.057 352.802C190.264 287.692 114.096 193.109 108.452 89.5872C107.301 55.3812 115.725 21.2045 138.403 -5.48798C141.677 -9.06189 145.05 -12.9516 148.828 -16.1496C150.757 -17.7633 152.544 -19.6557 154.509 -21.0822L160.567 -25.6475C163.349 -27.6538 167.27 -29.9892 170.208 -31.8778C171.966 -32.8525 178.448 -36.2642 180.469 -37.308C183.588 -38.6406 188.355 -40.7494 191.257 -41.9122C194.969 -43.2002 198.753 -44.5449 202.454 -45.7346L210.129 -47.7994C275.37 -63.8101 346.309 -47.8201 410.253 -26.0197C439.874 -15.5844 468.832 -3.20898 497.064 10.2653C537.441 29.9105 576.543 51.7886 614.429 75.3064C832.615 212.952 1099.14 291.722 1357.89 280.082C1460.04 273.835 1580.21 252.406 1648.09 182.419C1675.32 153.967 1688.47 114.944 1681.42 76.2274C1671.13 17.7093 1628.87 -33.2442 1583.77 -76.3982C1508.4 -147.99 1410.95 -213.085 1300.22 -215.857C1234.9 -217.952 1172.76 -200.323 1114.14 -179.267C1016.47 -144.124 920.329 -97.9171 811.033 -94.1043C746.043 -91.431 679.766 -105.436 619.817 -131.784C546.18 -163.106 476.504 -209.586 434.995 -274.034C362.881 -386.109 392.96 -522.263 455.274 -624.708Z" fill="#73206F"/>
<path d="M455.274 -624.708C402.548 -525.236 380.088 -394.966 441.203 -288.235C461.352 -252.756 490.376 -221.188 524.259 -195.192C609.512 -131.717 719.527 -90.6354 827.574 -95.3156C936.618 -99.4241 1032.47 -145.405 1130.08 -180.526C1189 -201.668 1251.52 -219.232 1317.2 -217.016C1428.57 -213.958 1526.66 -148.474 1602.54 -76.5303C1625.66 -54.6458 1647.14 -31.1895 1664.81 -5.60455C1764.86 139.902 1654.32 233.204 1503.06 266.95C1226.58 325.451 892.717 239.1 651.307 91.3636C589.757 52.6281 525.972 16.0583 457.595 -11.2672C417.322 -27.486 375.094 -40.6525 332.102 -47.3152C281.674 -54.9559 226.596 -52.9236 185.103 -27.1638C165.572 -15.3279 150.44 1.78284 140.703 21.1C137.855 27.058 135.381 33.2305 133.302 39.4836L132.836 41.2228L130.918 48.1656C129.243 55.0086 128.149 62.4764 127.348 69.4904C119.142 178.14 203.352 286.532 297.356 354.343C314.747 366.929 332.904 378.642 351.633 389.507C332.881 378.674 314.695 367.016 297.254 354.455C206.08 288.595 126.765 189.161 125.603 83.8981C125.395 79.9491 126.075 73.3847 126.233 69.3564C126.583 66.7617 127.202 61.0687 127.603 58.5511C128.26 55.0243 128.972 51.3471 129.754 47.8917L131.658 40.8943C137.823 20.0875 149.282 0.521423 166.065 -14.5364C171.299 -19.4112 177.949 -24.414 184.232 -28.2089C187.604 -30.5898 193.961 -33.6419 197.743 -35.6722C200.816 -36.9919 205.662 -39.1301 208.531 -40.2764L212.256 -41.5608C214.755 -42.4005 217.205 -43.3291 219.728 -44.0988L227.403 -46.1636C228.686 -46.4922 229.954 -46.8751 231.253 -47.161C304.979 -63.3709 388.029 -40.5978 458.233 -12.7323C478.499 -4.70233 498.485 4.31787 518.03 13.8033C557.152 32.9221 595.003 54.262 631.745 77.0548C777.466 169.553 944.13 233.778 1115.99 264.268C1254.87 288.102 1400.54 293.717 1532.83 256.703C1670.45 217.198 1752.84 126.142 1662.6 -4.42291C1645.02 -29.8536 1623.71 -53.1649 1600.7 -74.9542C1525.28 -146.51 1427.96 -211.709 1317.24 -214.81C1251.9 -217.05 1189.71 -199.538 1131.03 -178.559C1033.27 -143.528 937.016 -97.5801 827.755 -93.631C719.232 -89.1039 608.896 -130.386 523.407 -194.266C489.481 -220.426 460.424 -252.193 440.303 -287.829C379.407 -394.895 402.164 -525.199 455.274 -624.708Z" fill="#73206F"/>
<path d="M455.274 -624.708C423.264 -554.648 407.878 -476.392 417.557 -398.673C432.975 -272.939 524.7 -181.264 652.705 -130.314C712.925 -105.251 779.038 -91.9235 843.681 -94.8549C975.174 -99.6695 1085.49 -164.791 1206.54 -198.945C1224.34 -203.902 1242.57 -208.061 1261.03 -211.078C1378.84 -231.427 1480.11 -190.152 1570.84 -117.348C1603.89 -90.623 1636.08 -61.5179 1662.64 -29.4447C1719.11 37.6545 1746.93 120.323 1685.26 186.646C1644.18 230.563 1582.42 253.924 1520.87 268.463C1311.82 312.797 1083.65 274.243 880.863 197.638C814.591 172.069 750.483 141.322 689.714 105.688C675.651 97.5443 661.918 88.868 648.121 80.3775C602.286 51.8892 554.788 25.5294 505.141 3.21014C417.628 -35.8244 291.03 -75.5923 205.649 -27.6441L199.216 -23.6105C198.153 -22.9189 197.039 -22.3044 196.064 -21.5131L190.049 -16.9996C189.557 -16.6116 189.03 -16.2582 188.561 -15.8511L187.179 -14.6111L184.4 -12.1345C181.009 -9.2005 177.036 -5.00244 174.013 -1.61481C163.255 10.9866 155.521 25.5651 150.514 40.9758C149.303 45.4955 147.339 52.0202 146.645 56.704C145.531 61.2371 145.193 66.4728 144.533 70.9755C136.252 179.694 220.464 288.074 314.513 355.935C331.914 368.536 350.07 380.249 368.8 391.114C331.401 369.59 295.872 344.257 264.688 315.649C191.767 248.681 131.263 152.614 144.791 60.0244C148.552 37.3431 157.648 15.5334 172.912 -2.39178C175.392 -5.15118 177.95 -7.8772 180.562 -10.5378C181.931 -11.8324 184.787 -14.2755 186.165 -15.5546L187.565 -16.803C188.037 -17.2219 188.563 -17.5754 189.055 -17.9633C191.671 -19.9383 195.664 -23.0787 198.302 -24.6545L201.541 -26.7032C205.742 -29.5469 210.551 -31.7585 215.062 -34.1512C218.212 -35.4885 222.925 -37.6116 225.86 -38.7399C229.572 -40.0279 233.363 -41.3962 237.068 -42.5469C240.444 -43.4428 245.485 -44.8568 248.607 -45.6055C250.897 -46.0444 257.973 -47.4835 260.4 -47.9492C329.92 -58.6663 402.308 -39.1685 468.045 -14.0723C490.945 -5.13361 513.462 4.8056 535.466 15.5331C574.598 34.6674 612.446 56.019 649.198 78.8273C831.399 194.238 1046.44 266.302 1263.31 282.018C1401.75 292.52 1628.35 276.845 1700.57 161.76C1753.44 73.511 1673.15 -25.7542 1599.7 -90.0211C1578.02 -109.209 1554.62 -127.881 1530.43 -144.333C1445.01 -202.247 1355.12 -226.815 1253.67 -207.672C1174.85 -193.057 1103.78 -160.131 1029.93 -134.101C951.634 -105.736 866.195 -85.1193 778.653 -95.6409C735.387 -100.475 692.304 -112.437 652.074 -129.088C523.67 -180.373 431.968 -272.562 416.835 -398.664C407.375 -476.501 422.985 -554.684 455.21 -624.738L455.274 -624.708Z" fill="#73206F"/>
</g>
</g>
</svg>
