<svg width="18" height="15" viewBox="0 0 18 15" fill="none" xmlns="http://www.w3.org/2000/svg">
<path d="M13.1667 14.1666C13.1667 12.7859 11.3012 11.6666 9 11.6666C6.69881 11.6666 4.83333 12.7859 4.83333 14.1666M16.5 11.6669C16.5 10.6418 15.4716 9.76074 14 9.37496M1.5 11.6669C1.5 10.6418 2.52841 9.76074 4 9.37496M14 6.03005C14.5115 5.57228 14.8333 4.90704 14.8333 4.16663C14.8333 2.78591 13.714 1.66663 12.3333 1.66663C11.693 1.66663 11.109 1.90734 10.6667 2.3032M4 6.03005C3.48854 5.57228 3.16667 4.90704 3.16667 4.16663C3.16667 2.78591 4.28595 1.66663 5.66667 1.66663C6.30696 1.66663 6.89104 1.90734 7.33333 2.3032M9 9.16663C7.61929 9.16663 6.5 8.04734 6.5 6.66663C6.5 5.28591 7.61929 4.16663 9 4.16663C10.3807 4.16663 11.5 5.28591 11.5 6.66663C11.5 8.04734 10.3807 9.16663 9 9.16663Z" stroke="white" stroke-width="1.5" stroke-linecap="round" stroke-linejoin="round"/>
</svg>
