<svg width="525" height="800" viewBox="0 0 525 800" fill="none" xmlns="http://www.w3.org/2000/svg">
<mask id="mask0_68_5998" style="mask-type:alpha" maskUnits="userSpaceOnUse" x="0" y="0" width="525" height="800">
<rect width="525" height="800" fill="#D9D9D9"/>
</mask>
<g mask="url(#mask0_68_5998)">
<path d="M1773.05 1386.48C1967.25 1241.1 2152.99 989.443 1949.69 770.022C1908.22 724.816 1858.41 687.992 1806.13 656.176C1728.39 607.64 1639.88 573.067 1547.3 571.94C1294.73 566.562 1097.27 767.62 851.436 793.898C658.653 814.818 496.92 688.489 381.301 547.051C273.484 412.432 247.541 256.361 398.663 141.926C566.995 19.4814 818.969 6.06766 1020.34 24.3863C1295.45 51.5878 1563.67 148.758 1791.9 304.786C1842.59 339.302 1894.84 371.591 1949.07 400.244C2585.48 738.26 2692.64 114.223 2207.14 -189.905C2361.18 -94.7022 2496.05 61.6072 2510.56 248.049C2517.38 341.925 2478.56 437.553 2388.53 477.03C2302.75 514.923 2204.45 500.583 2117.38 474.31C1999.79 437.633 1891.85 375.798 1790.2 307.235C1562.13 151.952 1294.6 54.8874 1019.98 27.9384C810.021 6.89529 472.993 27.4267 336.919 209.677C257.485 320.465 306.762 448.072 384.154 544.791C499.053 685.394 659.497 811.218 851.092 790.54C1096.78 764.045 1294.61 563.486 1547.34 569.406C1640.34 570.667 1729.21 605.476 1807.22 654.345C1859.59 686.346 1909.55 723.309 1951.02 768.778C2154.29 989.409 1968.44 1240.92 1773.05 1386.48Z" fill="#FAECC8"/>
<path d="M1773.05 1386.48C1894.25 1288.18 2026.15 1129.31 2017.22 964.682C2012.66 886.317 1975.29 817.768 1921.6 761.857C1879.24 717.673 1829.1 681.481 1776.33 650.675C1723.77 619.484 1667.38 593.878 1607.26 581.614C1354.55 526.722 1143.53 715.413 911.815 777.804C730.919 827.431 581.486 765.996 448.121 642.2C392.206 589.978 339.479 532.219 303.924 463.978C195.998 255.051 350.836 115.589 543.477 57.9917C891.294 -41.5804 1296.95 43.2958 1612.2 208.918C1721.5 264.928 1817.33 343.229 1926.61 399.235C1980.38 427.565 2037.33 452.8 2095.52 470.574C2185.15 497.595 2288.44 512.092 2374.82 467.75C2376.51 466.859 2378.27 466.11 2379.89 465.1L2389.66 459.184C2391.28 458.198 2392.95 457.241 2394.44 456.079L2403.71 449.408C2405.3 448.351 2406.72 447.089 2408.17 445.856L2416.9 438.458C2420.97 434.462 2425.07 430.472 2428.99 426.334L2436.41 417.646L2438.26 415.476L2439.94 413.162L2446.66 403.946C2449.77 399.169 2452.74 394.277 2455.65 389.365L2460.89 379.213L2462.21 376.682C2464.55 370.817 2467.93 364.27 2469.85 358.196L2473.61 347.404C2474.84 342.524 2478.5 330.664 2479.29 325.246C2491.31 269.054 2484.63 210.311 2468.47 155.56C2423.29 8.23732 2312.1 -111.32 2182.96 -191.676C2312.45 -111.587 2424 7.82706 2469.6 155.222C2484.96 206.514 2491.72 261.17 2483.08 314.285C2481.97 319.636 2480.93 325.829 2479.73 331.216C2479.33 333.091 2478.74 334.916 2478.26 336.772L2475.23 347.877C2472.74 354.702 2470.25 363.071 2467.22 369.469C2465.75 372.781 2464.2 376.895 2462.49 379.982C2458.39 388.497 2453.25 397.196 2448.17 404.972C2446.55 407.361 2443.06 411.934 2441.42 414.319C2440.35 416.117 2432.12 425.571 2430.38 427.648C2425.11 433.027 2419.69 438.886 2413.8 443.657L2409.41 447.389C2407.95 448.64 2406.5 449.916 2404.91 450.992L2395.56 457.741C2391.4 460.754 2385.26 464.075 2380.85 466.882C2296.8 512.949 2194.68 501.472 2105.81 476.196C2058.23 462.626 2011.1 443.488 1966.42 422.322C1897.36 389.092 1831.23 349.579 1767.83 306.65C1464.87 101.391 1090.38 -8.44904 724.255 26.1021C633.238 35.9292 542.3 55.5728 459.04 94.3214C302.576 166.781 221.059 297.022 307.161 462.302C342.497 530.164 394.9 587.634 450.51 639.574C582.957 762.604 731.124 823.82 910.915 774.578C1142.73 711.992 1354.74 523.768 1607.71 579.251C1668.06 591.636 1724.7 617.448 1777.37 648.811C1830.24 679.783 1880.51 716.15 1922.91 760.565C1976.71 816.886 2014.07 885.853 2018.46 964.614C2027.02 1129.65 1894.81 1288.19 1773.05 1386.48Z" fill="#FAECC8"/>
<path d="M1773.05 1386.48C1862.76 1307.13 1944.29 1204.92 1981.01 1089.73C2049.36 871.709 1897.32 722.156 1717 629.187C1614.59 576.267 1508.4 559.392 1395.06 581.806C1209.58 617.586 1054.25 738.244 871.052 781.405C852.917 785.601 832.9 789.111 814.371 791.258C668.631 808.798 544.188 747.829 437.614 652.666C386.452 606.885 337.989 556.119 300.693 498.269C159.091 277.273 303.436 120.076 522.868 55.174C815.931 -27.9597 1143.25 21.6638 1423.31 131.002C1537.22 176.206 1646.04 234.151 1747.06 303.487C1800.78 339.998 1856.49 373.675 1914.14 403.645C1921.4 407.172 1937.68 415.342 1944.96 418.893C1950.68 421.648 1970.37 430.492 1976.22 433.239C2000.11 443.426 2026.28 454.146 2050.99 462.23C2151.9 495.917 2274.38 516.038 2368.89 455.383L2380.47 447.047C2384.93 443.495 2389.23 439.739 2393.55 436.03L2401.65 427.982C2402.99 426.639 2404.37 425.325 2405.57 423.843L2412.98 415.174C2414.28 413.779 2415.31 412.172 2416.44 410.652L2423.16 401.435L2426.15 396.586C2431.07 388.93 2436.02 379.739 2439.67 371.503L2444.17 361.009C2446.14 355.649 2447.97 350.25 2449.82 344.836C2451.15 339.522 2454.58 328.442 2455.42 322.697L2456.57 317.098C2458.07 310.186 2458.54 303.861 2459.6 297.336C2460 292.114 2460.62 285.468 2461.01 280.246C2461.21 276.213 2461.29 267.079 2461.46 263.097L2461.38 260.232L2461.21 254.517C2452.4 64.497 2314.58 -96.3506 2158.89 -193.417C2315.06 -96.6428 2453.38 64.218 2462.64 254.48L2462.83 260.22L2462.9 263.084C2462.73 266.883 2462.66 276.5 2462.5 280.304C2462.06 285.554 2461.57 292.235 2461.13 297.485C2460.37 302.931 2459.23 312.06 2458.13 317.373C2456.77 322.941 2456.11 328.792 2454.42 334.208L2451.4 345.3C2449.16 352.411 2446.46 360.002 2443.49 366.898C2441.9 370.217 2440.59 374.293 2438.83 377.408L2433.56 387.635C2431.07 392.155 2427.39 397.959 2424.66 402.437C2421.31 406.867 2417.91 412.127 2414.42 416.339C2411.22 420.11 2406.3 426.104 2403 429.305L2394.84 437.455C2390.48 441.215 2386.13 445.018 2381.63 448.621L2372.28 455.37C2280.45 516.823 2160.88 499.446 2061.03 468.265C2052.86 465.515 2041.86 461.806 2033.81 459.049C2031.1 458.101 2010.3 450.084 2006.95 448.886C1996.9 444.691 1985.25 439.947 1975.11 435.628C1969.01 432.749 1950.24 424.335 1943.77 421.3C1874.77 388.169 1808.67 348.803 1745.33 305.968C1442.95 100.607 1069.23 -9.48756 703.512 24.0096C612.562 33.514 521.717 52.8822 438.327 90.9949C231.779 186.192 190.368 352.721 330.021 533.752C365.772 580.451 408.493 622.847 452.823 661.409C560.272 752.86 682.082 807.334 825.283 786.469C841.913 784.295 859.568 780.692 875.834 776.957C1056.44 732.4 1210.79 614.443 1394.49 579.21C1512.21 556.045 1623.13 575.371 1728.09 632.72C1905.28 726.432 2049.51 876.537 1981.86 1090.08C1944.74 1205.38 1863.02 1307.28 1772.99 1386.54L1773.05 1386.48Z" fill="#FAECC8"/>
<path d="M1773.05 1386.48C1872.23 1291.32 1967.27 1153.22 1977.32 1012.91C1979.02 986.338 1977.81 959.411 1972.93 933.243C1967.37 903.448 1957.27 874.017 1943.18 847.165C1883.76 732.565 1753.57 649.384 1636.15 602.618C1339.89 491.303 1121.91 710.241 853.744 779.071C672.84 824.309 524.442 756.841 393.741 632.837C317.207 559.866 242.246 473.313 223.364 366.13C212.556 305.1 229.704 240.805 268.491 192.624C364.096 75.0111 537.121 33.6521 681.778 18.2059C986.932 -9.6642 1297.7 64.6712 1567.47 207.17C1607.95 228.813 1647.54 252.141 1686.04 277.121C1749.46 319.656 1813.19 361.991 1881.11 397.079C1899.76 406.984 1923.52 418.479 1942.86 427.166C2042.84 471.863 2165.95 510.4 2275.19 483.541C2349.01 465.561 2403.73 415.278 2425.87 342.304C2444.59 279.931 2438.48 212.669 2420 150.908C2374.5 4.05852 2263.67 -115.122 2134.78 -195.272C2264 -115.375 2375.21 3.66692 2421.14 150.57C2439.84 212.514 2446.15 280.108 2427.48 342.796C2405.31 416.502 2350.25 467.296 2275.71 485.582C2165.98 512.752 2042.3 474.323 1941.78 429.541C1922.33 420.824 1898.58 409.391 1879.85 399.466C1811.77 364.417 1747.92 322.146 1684.38 279.66C1645.91 254.788 1606.38 231.556 1565.95 210.026C1296.7 68.0103 986.615 -6.08336 682.159 21.8738C538.372 37.2927 366.531 78.4279 271.517 194.957C233.385 242.412 216.413 305.453 227.078 365.522C242.663 456.337 300.926 533.187 363.629 598.106C379.286 614.24 396.394 630.944 413.06 645.706C613.783 825.211 789.668 822.96 1024.82 713.533C1222.58 622.372 1415.4 515.082 1636.97 600.454C1754.85 647.603 1885.17 731.101 1944.59 846.443C1958.66 873.449 1968.76 903.059 1974.26 932.998C1979.09 959.273 1980.27 986.331 1978.47 1012.97C1968.02 1153.48 1872.67 1291.4 1773.08 1386.47L1773.05 1386.48Z" fill="#FAECC8"/>
<path d="M1773.05 1386.48C1882.04 1272.01 1983.61 1098.82 1953.24 935.679C1939.66 859.924 1896.86 793.267 1841.29 741.037C1796.92 699.1 1745.22 665.656 1691.37 637.164C1637.65 608.408 1579.79 586.814 1519.45 577.536C1265.43 536.516 1060.25 723.125 825.577 779.457C698.066 809.293 583.773 786.36 474.469 714.785C410.656 672.646 353.887 620.015 303.57 562.622C140.755 376.247 157.861 187.981 393.747 81.5137C689.862 -44.8325 1086.46 11.7947 1378.51 128.792C1477.87 168.536 1573.41 217.796 1663.11 276.145C1738.95 327.395 1816.07 377.207 1898.97 416.368C1996.18 461.764 2109.79 501.143 2218.26 487.939L2223.94 487.276L2229.55 486.255L2240.78 484.237C2244.51 483.512 2248.17 482.43 2251.87 481.559C2260.23 479.712 2268.25 476.714 2276.39 474.108L2279.03 473.031L2289.58 468.687C2339.54 446.796 2376.82 406.987 2396.41 356.106C2409.12 322.311 2414.3 285.777 2412.95 249.76C2405.86 91.8489 2305.93 -48.1881 2185.54 -144.33C2161.61 -163.301 2136.57 -180.849 2110.68 -197.042C2239.8 -117.231 2350.87 1.67242 2396.91 148.385C2414.52 206.691 2421.29 269.721 2406.55 329.355C2390.75 392.59 2352.43 441.797 2293.06 469.46C2289.31 471.057 2283.6 473.396 2279.79 474.978L2277.13 476.068L2274.4 476.979C2263.54 480.759 2252.47 483.883 2241.24 486.343C2236.5 487.196 2228.61 488.647 2224.28 489.432C2122.93 503.18 2021.64 472.354 1929.21 432.982C1905.26 422.461 1879.93 410.404 1856.83 398.306C1802.61 370.015 1750.32 338.175 1699.63 304.021C1498.37 165.776 1266.14 73.3022 1025.24 34.0134C845.22 5.56961 657.324 3.15997 481.039 53.6211C394.554 79.6265 307.351 119.763 249.198 190.96C145.413 320.383 223.253 471.429 321.481 577.377C458.489 724.786 617.122 825.625 824.86 776.22C1059.88 719.682 1265 533.697 1519.87 575.145C1580.44 584.543 1638.59 606.335 1692.44 635.268C1773.06 678.084 1850.39 732.898 1902.17 809.313C1919.3 834.457 1933.48 862.236 1943.1 891.114C1952.95 919.916 1958.4 950.624 1959.64 980.983C1965.55 1129.92 1873.16 1281.99 1773.11 1386.49L1773.05 1386.48Z" fill="#FAECC8"/>
<path d="M1773.05 1386.48C1859.86 1286.2 1933.22 1153.01 1939.59 1018.38C1942.76 945.15 1923.25 873.997 1882.55 812.971C1829.28 733.372 1748.77 676.565 1664.35 633.631C1556.64 575.724 1429.5 556.861 1310.21 584.712C1088.93 631.031 893.25 807.265 661.159 789.969C537.5 780.052 428.339 709.215 341.007 625.037C302.437 588.26 265.752 548.342 235.773 504.211C81.4743 277.069 227.337 113.387 457.884 47.5772C803.238 -47.146 1210.33 38.8581 1521.74 204.973C1575.64 233.756 1627.64 265.98 1678.1 300.375C1760.23 355.614 1846.44 405.718 1938.63 442.26C2028.96 477.16 2132.27 503.739 2228.38 479.593C2306.69 459.85 2361.33 405.158 2380.92 326.653C2388.19 297.191 2390.3 266.388 2388.26 236.133C2376.2 82.6799 2278.93 -52.2798 2161.32 -146.173C2137.41 -165.119 2112.4 -182.658 2086.53 -198.845C2215.48 -119.079 2326.56 -0.293411 2372.65 146.232C2390.33 204.437 2397.1 267.467 2382.53 327.066C2366.44 392.647 2324.51 444.914 2261.56 470.713C2240.56 479.609 2217.73 485.273 2195.12 488.209C2122.75 497.642 2049.47 482.736 1980.81 460.191C1930.15 443.471 1880.88 421.475 1833.56 396.959C1779.37 368.715 1727.1 336.941 1676.44 302.834C1450.28 147.443 1185.04 49.2676 912.164 20.3019C731.536 2.67213 541.909 10.0152 373.239 82.2887C181.616 166.781 114.896 321.08 238.814 502.141C268.628 546.068 305.114 585.832 343.489 622.437C430.232 706.117 538.59 776.658 661.45 786.561C737.564 792.973 813.622 776.534 884.889 750.577C1028.12 698.69 1159.5 614.742 1309.65 582.06C1429.46 554.246 1557.39 573.399 1665.36 631.677C1750.01 674.872 1830.68 732.025 1883.92 812.056C1924.6 873.377 1944.05 944.957 1940.66 1018.41C1933.98 1153.16 1860.23 1286.3 1773.08 1386.47L1773.05 1386.48Z" fill="#FAECC8"/>
<path d="M1773.05 1386.48C1846.68 1292.93 1905.47 1175.64 1918.96 1056.42C1928.34 972.096 1911.32 887.987 1864.63 816.584C1810.67 732.893 1726.29 673.945 1638.06 630.533C1556.71 589.084 1465.02 567.079 1373.63 572.82C1219.61 581.609 1082.61 659.585 944.253 720.23C860.689 756.894 772.496 788.751 680.203 790.464C534.172 794.344 407.517 713.031 307.005 613.883C205.204 515.431 96.0531 362.506 174.616 219.634C228.741 124.841 334.475 75.2073 435.363 45.3088C731.486 -34.2003 1050.8 15.5629 1332.62 126.133C1424.7 163.105 1513.49 208.31 1597.35 261.33C1616.76 273.44 1635.69 286.387 1654.72 299.077C1730.54 350.003 1809.73 396.602 1894.02 432.069C2002.88 477.844 2147.5 515.975 2257.64 457.085C2301.38 433.168 2334.23 393.372 2350.3 346.275L2353.12 338.217L2356.9 324.505C2357.45 322.688 2357.79 320.816 2358.17 318.954L2359.32 313.374C2361.11 306.101 2361.81 298.077 2362.96 290.891C2379.79 120.101 2266.29 -45.9905 2137.14 -148.005C2113.24 -166.946 2088.23 -184.466 2062.38 -200.649C2094.72 -180.543 2125.84 -158.244 2155.03 -133.775C2276.35 -31.797 2380.27 127 2364.52 291.049C2363.96 295.527 2362.74 303.834 2362.05 308.056C2361.42 310.913 2360.36 316.439 2359.76 319.282C2358.87 324.252 2356.02 333.685 2354.72 338.685C2341.45 381.544 2315.19 420.881 2278.02 446.558L2273.37 449.919L2268.47 452.914C2265.18 454.876 2261.96 456.938 2258.62 458.829L2248.37 464.014C2243.57 466.574 2237.63 468.749 2232.58 470.901C2226.53 473.469 2217.12 476.335 2210.86 478.302C2207.64 479.144 2197.59 481.637 2194.16 482.504C2097.72 502.194 1998.77 475.961 1908.87 441.036C1875.3 427.373 1842.25 412.246 1810.12 395.505C1755.95 367.309 1703.7 335.559 1653.04 301.513C1402 129.097 1102.71 26.2072 798.299 11.7874C602.928 2.16629 285.432 36.5653 177.96 221.451C100.359 362.458 209.088 514.188 309.544 611.298C409.315 709.767 535.122 790.873 680.175 787.051C772.011 785.396 859.756 753.639 942.986 717.246C1081.57 656.704 1219.16 578.767 1373.52 570.227C1465.29 564.586 1557.51 586.854 1639.05 628.555C1727.51 672.229 1812.09 731.552 1866 815.687C1912.64 887.461 1929.56 971.882 1919.93 1056.48C1906.11 1175.8 1847.01 1292.97 1773.08 1386.45L1773.05 1386.48Z" fill="#FAECC8"/>
<path d="M1773.05 1386.48C1865.8 1255.88 1934.63 1074.02 1888.93 914.261C1846.76 763.498 1709.56 666.016 1570.78 609.42C1329.45 512.284 1134.78 623.584 918.327 720.935C862.382 745.188 805.058 767.248 745.104 779.509C548.701 822.997 388.674 724.589 257.725 586.536C52.106 373.347 79.5048 161.717 368.719 57.1592C757.383 -72.4538 1257.87 51.5961 1593.02 272.249C1681.21 331.996 1771.71 389.439 1870.35 430.452C1926.25 454.027 1985.03 472.74 2045.21 481.212C2115.8 490.872 2193.36 485.194 2252.99 442.956C2287.23 419.139 2312.78 383.536 2326.25 344.196L2328.13 338.83L2329.05 336.133L2329.79 333.386L2332.81 322.416C2335.5 311.6 2337.38 299.864 2338.83 288.835C2355.48 118.074 2242.09 -47.8277 2112.95 -149.818C2089.06 -168.76 2064.06 -186.256 2038.22 -202.433C2064.11 -186.321 2089.15 -168.876 2113.1 -149.999C2238.3 -50.9859 2345.29 101.241 2341.97 266.198C2341.65 279.152 2340.04 293.226 2337.96 306.028C2336.87 311.586 2335.7 317.382 2334.42 322.828C2333.83 325.315 2331.21 334.429 2330.66 336.644C2320.12 370.34 2302.05 401.997 2276.28 426.382C2274.39 428.438 2265.83 435.68 2263.35 437.74C2260.97 439.727 2256.73 442.696 2254.13 444.585C2248.09 449.237 2241.23 452.926 2234.77 456.885L2224.51 462.07C2222.79 462.89 2221.12 463.866 2219.34 464.591L2214.05 466.777C2210.49 468.209 2207 469.778 2203.4 471.077C2196.56 473.269 2188.28 476.319 2181.48 477.822C2079.18 504.218 1964.48 472.383 1869.31 432.819C1784.82 397.479 1705.4 350.938 1629.38 300.079C1328.69 94.4886 957.249 -16.4959 592.652 14.0163C501.968 22.7507 411.366 41.0623 327.594 77.5302C68.5467 192.955 77.832 394.723 260.294 584.059C425.276 756.432 597.572 837.274 832.123 751.583C1084.5 658.669 1289.27 494.767 1571.56 607.345C1710.94 664.425 1848.1 762.333 1890.13 913.92C1935.46 1074.05 1866.24 1255.88 1772.99 1386.48L1773.05 1386.48Z" fill="#FAECC8"/>
<path d="M1773.05 1386.48C1878.11 1221.4 1938.61 991.696 1824.39 816.236C1768.54 729.256 1680.55 668.26 1587.8 625.559C1477.99 572.178 1350.8 557.948 1232.13 587.03C998.373 637.735 787.472 834.151 537.543 778.841C417.109 751.499 316.803 671.497 233.021 584.103C151.643 498.516 71.9482 379.024 109.172 256.425C166.848 82.7961 406.131 23.6937 568.896 8.49232C926.475 -21.0559 1291.15 84.9309 1588.32 283.308C1730.68 380.347 1935.07 497.795 2112.32 481.846C2123.58 480.819 2134.98 478.865 2146.06 476.727L2162.62 472.57C2164.45 472.057 2166.22 471.411 2168.04 470.837L2178.85 467.281C2184.8 465.111 2188.93 463.093 2194.65 460.858C2196.39 460.123 2198.05 459.184 2199.75 458.359L2209.91 453.248L2219.64 447.383C2221.26 446.373 2222.92 445.477 2224.48 444.391L2229.09 441.081C2257.12 421.626 2279.19 394.108 2293.77 363.378C2298.05 353.908 2301.81 344.12 2305.03 334.224L2305.76 331.476L2308.78 320.506C2311.45 309.723 2313.35 297.931 2314.79 286.92C2330.99 119.804 2222.71 -42.4426 2097.76 -144.432C2071.23 -166.085 2043.2 -186.055 2014.16 -204.193C2040.04 -188.104 2065.07 -170.659 2089.02 -151.782C2214.21 -52.7932 2321.16 99.3622 2317.91 264.278C2317.99 270.508 2316.79 280.744 2316.35 287.097C2315.67 291.141 2314.66 300.146 2313.92 304.095C2312.62 309.635 2311.82 315.47 2310.4 320.9L2307.4 331.955C2297.76 364.85 2280.74 396.045 2256.44 420.423C2248.85 428.305 2239.26 436.454 2230.27 442.698C2225.41 446.586 2216.33 451.664 2210.92 455.021C2206.58 457.223 2199.59 460.821 2195.53 462.737L2190.23 464.923C2186.68 466.354 2183.19 467.923 2179.6 469.247L2168.71 472.839C2166.89 473.413 2165.09 474.072 2163.24 474.599C2058.79 503.423 1943.03 471.584 1845.58 431.187C1817.44 419.542 1789.75 406.332 1762.7 392.373C1708.56 364.224 1656.31 332.536 1605.68 298.518C1264.62 64.902 796.475 -61.6586 390.023 44.8786C179.816 103.799 18.7713 251.974 151.935 473.994C175.476 513.034 204.361 548.599 235.702 581.656C338.396 690.404 472.979 787.423 628.658 785.567C720.444 785.221 808.513 754.351 891.863 718.411C1056.86 646.277 1226.99 550.216 1413.62 572.699C1474.42 579.313 1533.59 597.531 1588.78 623.637C1678.4 665.04 1763.34 723.356 1819.48 805.886C1867.41 875.1 1889.74 960.112 1887.12 1043.86C1883.08 1165.84 1838.23 1284.27 1773.14 1386.52L1773.05 1386.48Z" fill="#FAECC8"/>
<path d="M1773.05 1386.48C1839.35 1268.63 1880.81 1129.03 1866.4 993.119C1858.11 917.6 1829.01 844.259 1781.56 784.709C1724.98 712.596 1646.53 660.828 1563.56 623.571C1453.11 571.602 1325.94 558.798 1207.4 587.916C973.854 638.878 762.245 834.643 512.542 777.671C407.662 753.294 317.129 688.251 240.839 614.443C196.947 572.073 155.907 526.101 124.339 473.671C100.884 434.314 82.6338 391.102 77.1816 345.27C68.9534 283.97 89.4922 220.944 129.784 174.408C229.092 60.5717 400.297 21.2093 545.095 6.66208C891.272 -22.0349 1243.92 76.9628 1535.68 262.714C1544.23 268.329 1555.89 275.842 1564.32 281.605C1633.47 328.661 1705.09 372.75 1780.8 408.503C1891.84 460.13 2034.24 507.621 2154.79 465.423C2158.33 464.108 2161.81 462.577 2165.32 461.153L2170.57 458.995C2172.32 458.241 2173.97 457.321 2175.68 456.496L2185.83 451.385L2195.56 445.496C2197.17 444.487 2198.83 443.59 2200.37 442.499L2204.99 439.19C2239.19 415.32 2264.68 379.702 2278.09 340.366C2285.69 319.106 2289.93 296.183 2291.6 273.675C2300.13 135.714 2226.12 4.36374 2132.54 -92.3042C2090.12 -135.761 2041.49 -173.913 1990 -206.02C2015.88 -189.931 2040.91 -172.486 2064.84 -153.614C2188.12 -55.7377 2290.87 88.962 2294 250.941C2294.04 304.496 2280.6 358.449 2247.47 401.333C2242.7 407.086 2237.77 413.338 2232.31 418.526C2229.52 421.144 2226.92 424.193 2224.09 426.519L2215.36 433.955C2211.35 437.229 2205.73 441.07 2201.51 444.167C2198.99 445.776 2189.71 451.423 2186.82 453.153C2182.37 455.386 2175.57 458.912 2171.44 460.869C2166.16 463.059 2160.77 465.342 2155.51 467.379L2144.62 470.97C2052.11 499.088 1953.07 477.318 1864.14 446.118C1822.96 431.137 1782.8 413.085 1743.72 393.278C1687.84 364.362 1633.85 331.888 1581.65 296.787C1281.15 91.1857 909.918 -19.9033 545.433 10.3386C401.463 24.8671 231.436 64.0245 132.719 176.857C93.0913 222.709 72.7895 284.477 80.9112 344.827C92.6732 436.06 149.753 513.955 211.187 579.495C313.872 688.199 447.925 785.698 603.54 784.906C695.325 785.161 783.539 754.651 866.969 718.933C1005.99 659.327 1143.35 582.452 1297.26 571.408C1388.8 564.204 1481.37 583.079 1564.47 621.592C1666.59 667.265 1762.44 736.878 1817.84 835.956C1914.07 1008.26 1865.45 1223.04 1773.05 1386.48Z" fill="#FAECC8"/>
<path d="M1773.05 1386.48C1851.83 1228.14 1889.46 1022.94 1808.45 858.5C1781.75 803.831 1742.39 755.704 1695.94 716.534C1578.97 621.01 1426.13 561.727 1273.94 574.073C1120.37 585.569 983.425 662.076 844.497 721.646C760.646 757.511 671.894 787.937 579.613 787.51C423.107 787.882 288.167 689.805 184.781 580.572C153.263 547.347 124.151 511.582 100.473 472.305C-33.5042 248.905 126.305 97.5537 340.626 37.6526C732.232 -66.8532 1197.82 52.9933 1530.53 273.332C1615.31 331.185 1703.33 385.539 1798.24 425.193C1854.13 448.744 1912.92 467.42 1973.08 475.868C2043.65 485.504 2121.22 479.765 2180.78 437.469C2208.8 418.014 2230.87 390.496 2245.47 359.771C2249.75 350.301 2253.51 340.513 2256.73 330.617L2257.46 327.869L2260.48 316.899C2263.16 306.097 2265.04 294.343 2266.49 283.313C2283.07 112.655 2169.66 -53.313 2040.58 -155.227C2016.7 -174.145 1991.71 -191.66 1965.86 -207.819C1991.74 -191.711 2016.78 -174.285 2040.73 -155.408C2165.91 -56.4189 2272.86 95.7365 2269.62 260.653C2269.73 266.832 2268.47 277.151 2268.06 283.472C2267.44 287.554 2266.31 296.505 2265.63 300.469C2264.54 306.027 2263.37 311.823 2262.11 317.275L2259.11 328.329C2249.47 361.224 2232.44 392.42 2208.14 416.797C2200.55 424.679 2190.97 432.828 2181.95 439.067C2177.1 442.955 2168.02 448.033 2162.6 451.39C2158.22 453.601 2151.3 457.177 2147.22 459.106L2141.92 461.292C2138.36 462.724 2134.87 464.293 2131.29 465.616L2120.4 469.208C2118.58 469.782 2116.78 470.441 2114.94 470.95C2010.48 499.773 1894.72 467.934 1797.27 427.519C1769.14 415.874 1741.45 402.664 1714.39 388.705C1660.25 360.556 1608 328.867 1557.38 294.85C1356.7 156.644 1125.26 63.7189 884.94 23.9049C690.7 -7.00768 486.077 -9.05161 298.281 55.0924C102.874 123.387 -17.2279 269.912 103.645 470.35C127.185 509.39 156.076 544.936 187.431 578.017C290.193 686.662 424.059 784.331 579.656 784.055C671.461 784.536 759.747 754.205 843.246 718.606C982.378 659.171 1119.9 582.697 1273.76 571.441C1426.62 559.314 1579.9 618.894 1697.18 715.044C1743.69 754.469 1783.08 802.906 1809.73 857.823C1890.42 1022.79 1852.37 1228.06 1773.05 1386.48Z" fill="#FAECC8"/>
<path d="M1773.05 1386.48C1821.33 1275.19 1846.6 1151.84 1836.59 1030.48C1820.73 834.147 1695.97 694.726 1518.28 620.814C1434.74 584.326 1342.37 566.506 1251.31 574.098C1066.13 587.742 907.947 694.917 736.096 754.058C710.825 762.651 685.001 770.015 658.891 775.599C492.235 812.955 351.703 752.964 227.47 643.073C182.216 602.722 138.292 558.6 102.425 509.566C26.1109 407.027 -9.18723 278.758 80.6328 171.955C140.447 101.223 228.395 61.7472 315.645 36.107C611.739 -43.0692 930.894 6.7711 1212.57 117.423C1304.6 154.422 1393.35 199.636 1477.17 252.665C1496.57 264.775 1515.49 277.736 1534.5 290.402C1597.65 332.924 1663.24 372.033 1732.03 404.709C1853.31 461.826 2029.54 518.28 2151.85 439.175L2161.09 432.555C2162.62 431.422 2164.21 430.407 2165.62 429.122L2174.29 421.769C2175 421.139 2175.76 420.56 2176.44 419.9L2178.44 417.893L2182.46 413.883C2187.37 409.127 2193.15 402.364 2197.56 396.915C2213.28 376.666 2224.83 353.46 2232.59 329.076C2234.5 321.936 2237.57 311.62 2238.76 304.247C2240.54 297.091 2241.25 288.87 2242.39 281.783C2259.08 111.014 2145.66 -54.9356 2016.52 -156.926C1992.63 -175.868 1967.63 -193.382 1941.79 -209.541C1993.4 -177.544 2042.2 -139.489 2084.73 -96.1C2184.19 5.47092 2264.84 153.223 2241.52 298.958C2235.18 334.678 2221.37 369.281 2199.07 398.081C2195.46 402.521 2191.73 406.911 2187.93 411.202C2185.95 413.295 2181.82 417.256 2179.82 419.325L2177.79 421.346C2177.11 422.024 2176.35 422.603 2175.64 423.234C2171.87 426.45 2166.11 431.557 2162.33 434.149L2157.68 437.51C2151.64 442.161 2144.77 445.851 2138.31 449.81C2133.82 452.051 2127.09 455.597 2122.91 457.502C2117.63 459.693 2112.23 462.013 2106.97 463.988C2102.18 465.549 2095.02 467.998 2090.6 469.317C2087.36 470.111 2077.34 472.694 2073.9 473.537C1975.62 493.557 1874.71 466.357 1783.41 430.074C1751.61 417.127 1720.4 402.595 1689.95 386.803C1635.79 358.63 1583.55 326.923 1532.91 292.882C1281.99 120.458 982.865 17.4914 678.552 2.91841C484.315 -7.11978 164.854 27.9545 57.9363 211.667C-20.5208 352.424 87.8161 504.27 188.137 601.584C217.74 630.65 249.788 658.829 283.059 683.489C400.52 770.291 525.82 804.626 669.399 769.921C780.947 743.36 882.436 688.461 987.522 644.243C1098.96 596.158 1220.09 559.884 1342.74 572.314C1403.37 577.883 1463.41 594.633 1519.23 618.863C1697.46 693.283 1822.16 833.51 1837.6 1030.44C1847.3 1151.98 1821.72 1275.24 1773.14 1386.52L1773.05 1386.48Z" fill="#FAECC8"/>
</g>
</svg>
