<svg width="626" height="800" viewBox="0 0 626 800" fill="none" xmlns="http://www.w3.org/2000/svg">
<mask id="mask0_146_3855" style="mask-type:alpha" maskUnits="userSpaceOnUse" x="0" y="0" width="626" height="800">
<rect width="626" height="800" fill="#D9D9D9"/>
</mask>
<g mask="url(#mask0_146_3855)">
<path d="M1699.76 1321.94C1881.85 1185.58 2056.01 949.551 1865.38 743.752C1826.5 701.353 1779.8 666.815 1730.78 636.974C1657.88 591.451 1574.9 559.024 1488.09 557.967C1251.27 552.923 1066.12 741.5 835.616 766.146C654.854 785.767 503.206 667.28 394.796 534.623C293.702 408.361 269.377 261.979 411.075 154.648C568.911 39.8048 805.173 27.2239 993.983 44.4053C1251.94 69.9182 1503.44 161.056 1717.44 307.398C1764.97 339.771 1813.96 370.056 1864.81 396.93C2461.54 713.962 2562.01 128.665 2106.78 -156.583C2251.22 -67.2902 2377.68 79.3156 2391.29 254.184C2397.68 342.231 2361.28 431.922 2276.86 468.949C2196.43 504.49 2104.26 491.04 2022.63 466.398C1912.37 431.998 1811.15 374.001 1715.85 309.695C1501.99 164.051 1251.15 73.0128 993.655 47.7369C796.783 28.0001 480.77 47.2569 353.182 218.193C278.701 322.103 324.905 441.789 397.471 532.503C505.206 664.378 655.645 782.391 835.293 762.997C1065.66 738.146 1251.16 550.037 1488.13 555.59C1575.33 556.773 1658.65 589.421 1731.81 635.257C1780.91 665.271 1827.75 699.939 1866.64 742.585C2057.22 949.519 1882.97 1185.41 1699.76 1321.94Z" fill="#FAECC8"/>
<path d="M1699.76 1321.94C1813.41 1229.75 1937.08 1080.74 1928.71 926.328C1924.44 852.828 1889.39 788.534 1839.05 736.094C1799.33 694.653 1752.32 660.708 1702.84 631.815C1653.55 602.559 1600.68 578.543 1544.31 567.041C1307.36 515.556 1109.5 692.534 892.23 751.051C722.613 797.597 582.499 739.976 457.45 623.865C405.021 574.885 355.582 520.712 322.244 456.707C221.048 260.75 366.231 129.946 546.86 75.9245C872.988 -17.4662 1253.35 62.1409 1548.94 217.481C1651.43 270.014 1741.28 343.455 1843.75 395.983C1894.17 422.555 1947.56 446.224 2002.12 462.894C2086.16 488.237 2183.01 501.834 2264.01 460.245C2265.59 459.409 2267.25 458.707 2268.76 457.76L2277.92 452.211C2279.45 451.286 2281 450.388 2282.4 449.298L2291.1 443.042C2292.58 442.05 2293.92 440.867 2295.28 439.71L2303.46 432.771C2307.28 429.024 2311.13 425.282 2314.8 421.4L2321.76 413.251L2323.49 411.216L2325.07 409.046L2331.37 400.402C2334.28 395.921 2337.07 391.333 2339.79 386.726L2344.71 377.204L2345.95 374.831C2348.14 369.33 2351.31 363.189 2353.12 357.493L2356.64 347.37C2357.79 342.793 2361.22 331.669 2361.96 326.588C2373.24 273.884 2366.97 218.788 2351.81 167.435C2309.45 29.2589 2205.2 -82.8767 2084.11 -158.244C2205.53 -83.1264 2310.12 28.8741 2352.88 167.119C2367.28 215.227 2373.62 266.49 2365.52 316.307C2364.48 321.326 2363.51 327.134 2362.38 332.187C2362 333.946 2361.45 335.658 2361 337.398L2358.15 347.814C2355.82 354.215 2353.49 362.065 2350.64 368.065C2349.26 371.172 2347.82 375.03 2346.21 377.926C2342.36 385.912 2337.54 394.071 2332.79 401.364C2331.27 403.605 2327.99 407.894 2326.45 410.131C2325.45 411.818 2317.74 420.684 2316.11 422.633C2311.16 427.677 2306.08 433.173 2300.55 437.648L2296.44 441.148C2295.07 442.322 2293.72 443.518 2292.22 444.527L2283.45 450.857C2279.56 453.683 2273.79 456.798 2269.67 459.431C2190.85 502.638 2095.1 491.873 2011.77 468.167C1967.16 455.44 1922.97 437.49 1881.08 417.637C1816.32 386.47 1754.32 349.411 1694.87 309.146C1410.8 116.629 1059.66 13.6084 716.365 46.0146C631.024 55.2316 545.756 73.6558 467.688 109.999C320.98 177.96 244.547 300.116 325.28 455.135C358.412 518.784 407.547 572.687 459.689 621.403C583.878 736.795 722.806 794.21 891.385 748.026C1108.74 689.324 1307.54 512.785 1544.73 564.825C1601.32 576.441 1654.42 600.65 1703.82 630.066C1753.38 659.115 1800.52 693.225 1840.28 734.882C1890.72 787.707 1925.76 852.392 1929.87 926.264C1937.9 1081.05 1813.93 1229.76 1699.76 1321.94Z" fill="#FAECC8"/>
<path d="M1699.76 1321.94C1783.88 1247.52 1860.32 1151.65 1894.75 1043.62C1958.84 839.127 1816.28 698.857 1647.2 611.66C1551.18 562.025 1451.62 546.198 1345.34 567.221C1171.43 600.78 1025.78 713.947 854.008 754.429C837.004 758.364 818.235 761.656 800.862 763.67C664.21 780.121 547.526 722.937 447.598 633.681C399.626 590.743 354.185 543.128 319.215 488.869C186.442 281.593 321.787 134.154 527.536 73.2817C802.324 -4.69106 1109.23 41.8518 1371.83 144.402C1478.63 186.8 1580.67 241.148 1675.39 306.179C1725.77 340.424 1778 372.01 1832.05 400.119C1838.86 403.428 1854.13 411.091 1860.95 414.421C1866.31 417.005 1884.78 425.3 1890.26 427.877C1912.66 437.432 1937.2 447.485 1960.37 455.068C2054.98 486.664 2169.84 505.535 2258.45 448.645L2269.31 440.828C2273.49 437.496 2277.52 433.973 2281.57 430.494L2289.16 422.946C2290.42 421.686 2291.71 420.454 2292.84 419.064L2299.79 410.933C2301.01 409.624 2301.98 408.117 2303.03 406.691L2309.34 398.047L2312.14 393.499C2316.75 386.318 2321.39 377.698 2324.81 369.973L2329.03 360.131C2330.88 355.104 2332.6 350.039 2334.33 344.962C2335.58 339.977 2338.79 329.585 2339.58 324.197L2340.66 318.945C2342.06 312.462 2342.5 306.531 2343.5 300.411C2343.88 295.512 2344.45 289.279 2344.83 284.381C2345.01 280.598 2345.09 272.032 2345.24 268.297L2345.17 265.61L2345.01 260.249C2336.75 82.0259 2207.53 -68.8363 2061.54 -159.877C2207.98 -69.1103 2337.67 81.7642 2346.35 260.215L2346.53 265.598L2346.6 268.285C2346.43 271.848 2346.37 280.868 2346.22 284.436C2345.81 289.36 2345.35 295.626 2344.93 300.55C2344.22 305.658 2343.15 314.22 2342.12 319.204C2340.85 324.425 2340.23 329.914 2338.64 334.993L2335.82 345.397C2333.71 352.066 2331.18 359.186 2328.4 365.654C2326.91 368.767 2325.67 372.59 2324.03 375.511L2319.09 385.103C2316.75 389.343 2313.3 394.787 2310.74 398.987C2307.6 403.142 2304.41 408.076 2301.14 412.026C2298.14 415.562 2293.53 421.185 2290.43 424.187L2282.78 431.831C2278.69 435.358 2274.61 438.924 2270.4 442.304L2261.63 448.634C2175.53 506.271 2063.41 489.974 1969.79 460.728C1962.13 458.149 1951.81 454.67 1944.26 452.084C1941.72 451.195 1922.22 443.676 1919.07 442.552C1909.65 438.617 1898.73 434.168 1889.23 430.118C1883.5 427.417 1865.9 419.525 1859.84 416.679C1795.14 385.605 1733.16 348.682 1673.77 308.507C1390.25 115.894 1039.83 12.6343 696.915 44.052C611.637 52.9663 526.457 71.1322 448.266 106.879C254.598 196.166 215.769 352.357 346.714 522.149C380.236 565.949 420.293 605.714 461.859 641.881C562.607 727.655 676.822 778.748 811.093 759.178C826.687 757.139 843.241 753.76 858.493 750.257C1027.83 708.466 1172.56 597.832 1344.8 564.785C1455.18 543.059 1559.19 561.185 1657.6 614.974C1823.74 702.869 1958.98 843.655 1895.55 1043.94C1860.75 1152.08 1784.12 1247.66 1699.71 1322L1699.76 1321.94Z" fill="#FAECC8"/>
<path d="M1699.76 1321.94C1792.76 1232.69 1881.87 1103.16 1891.3 971.557C1892.89 946.639 1891.76 921.384 1887.18 896.84C1881.97 868.895 1872.49 841.291 1859.28 816.106C1803.56 708.62 1681.5 630.603 1571.4 586.74C1293.61 482.336 1089.22 687.682 837.78 752.24C668.156 794.669 529.012 731.389 406.46 615.083C334.699 546.642 264.412 465.463 246.708 364.933C236.574 307.693 252.652 247.388 289.021 202.198C378.664 91.8873 540.9 53.0958 676.537 38.6086C962.663 12.4686 1254.05 82.1893 1507 215.842C1544.96 236.142 1582.08 258.021 1618.18 281.45C1677.65 321.345 1737.39 361.051 1801.09 393.962C1818.57 403.252 1840.85 414.033 1858.98 422.18C1952.73 464.103 2068.16 500.247 2170.59 475.056C2239.81 458.192 2291.11 411.03 2311.87 342.587C2329.43 284.086 2323.7 221 2306.37 163.072C2263.71 25.3395 2159.79 -86.4425 2038.93 -161.616C2160.09 -86.6793 2264.37 24.9722 2307.44 162.756C2324.98 220.854 2330.89 284.252 2313.39 343.049C2292.59 412.179 2240.97 459.819 2171.07 476.97C2068.19 502.453 1952.22 466.41 1857.97 424.408C1839.74 416.233 1817.46 405.509 1799.9 396.2C1736.07 363.327 1676.19 323.68 1616.62 283.832C1580.55 260.504 1543.48 238.714 1505.57 218.52C1253.12 85.3212 962.365 15.8272 676.894 42.0488C542.073 56.5104 380.947 95.092 291.858 204.387C256.104 248.896 240.19 308.023 250.19 364.364C264.803 449.541 319.433 521.62 378.226 582.508C392.906 597.641 408.948 613.308 424.575 627.153C612.782 795.515 777.699 793.404 998.19 690.77C1183.62 605.268 1364.41 504.639 1572.17 584.711C1682.7 628.933 1804.89 707.247 1860.61 815.429C1873.8 840.759 1883.27 868.53 1888.42 896.61C1892.96 921.255 1894.06 946.633 1892.37 971.62C1882.57 1103.41 1793.17 1232.76 1699.79 1321.93L1699.76 1321.94Z" fill="#FAECC8"/>
<path d="M1699.76 1321.94C1801.95 1214.58 1897.19 1052.14 1868.72 899.125C1855.98 828.073 1815.85 765.554 1763.74 716.566C1722.14 677.233 1673.67 645.865 1623.17 619.142C1572.81 592.171 1518.55 571.917 1461.97 563.216C1223.79 524.742 1031.4 699.766 811.369 752.601C691.81 780.585 584.643 759.076 482.154 691.944C422.321 652.421 369.092 603.057 321.912 549.227C169.25 374.422 185.289 197.844 406.466 97.9862C684.117 -20.5164 1055.98 32.5954 1329.82 142.33C1422.99 179.607 1512.57 225.808 1596.68 280.535C1667.78 328.603 1740.1 375.323 1817.83 412.053C1908.97 454.631 2015.51 491.565 2117.21 479.181L2122.53 478.559L2127.79 477.602L2138.33 475.708C2141.82 475.029 2145.25 474.013 2148.72 473.197C2156.56 471.464 2164.08 468.653 2171.72 466.208L2174.19 465.198L2184.08 461.124C2230.93 440.592 2265.89 403.254 2284.26 355.532C2296.17 323.835 2301.02 289.569 2299.76 255.788C2293.11 107.68 2199.42 -23.6637 2086.53 -113.837C2064.1 -131.63 2040.61 -148.089 2016.34 -163.276C2137.41 -88.4201 2241.55 23.1015 2284.72 160.706C2301.24 215.393 2307.58 274.51 2293.76 330.442C2278.95 389.751 2243.01 435.904 2187.35 461.849C2183.83 463.347 2178.48 465.54 2174.9 467.024L2172.41 468.047L2169.85 468.901C2159.66 472.447 2149.29 475.377 2138.76 477.684C2134.31 478.484 2126.91 479.845 2122.86 480.581C2027.82 493.475 1932.85 464.563 1846.18 427.636C1823.73 417.768 1799.98 406.459 1778.32 395.112C1727.48 368.577 1678.45 338.714 1630.92 306.68C1442.21 177.017 1224.46 90.2845 998.58 53.4347C829.787 26.7567 653.608 24.4967 488.315 71.8252C407.223 96.2162 325.458 133.861 270.93 200.638C173.617 322.027 246.603 463.696 338.707 563.067C467.171 701.324 615.913 795.903 810.696 749.565C1031.07 696.537 1223.39 522.098 1462.37 560.973C1519.16 569.788 1573.68 590.227 1624.18 617.363C1699.77 657.522 1772.28 708.933 1820.83 780.604C1836.89 804.187 1850.19 830.241 1859.2 857.327C1868.44 884.341 1873.56 913.143 1874.71 941.617C1880.25 1081.31 1793.63 1223.94 1699.82 1321.95L1699.76 1321.94Z" fill="#FAECC8"/>
<path d="M1699.76 1321.94C1781.16 1227.89 1849.94 1102.97 1855.91 976.691C1858.89 908.009 1840.6 841.272 1802.44 784.035C1752.48 709.377 1677 656.096 1597.84 615.828C1496.85 561.516 1377.64 543.824 1265.78 569.946C1058.3 613.39 874.822 778.683 657.204 762.46C541.255 753.159 438.901 686.72 357.015 607.768C320.85 573.274 286.453 535.834 258.342 494.443C113.665 281.401 250.432 127.881 466.604 66.1566C790.423 -22.6863 1172.13 57.9787 1464.13 213.781C1514.66 240.777 1563.42 271.001 1610.74 303.261C1687.74 355.071 1768.58 402.064 1855.02 436.337C1939.71 469.071 2036.58 494 2126.7 471.353C2200.13 452.836 2251.35 401.539 2269.72 327.907C2276.54 300.275 2278.53 271.383 2276.61 243.007C2265.3 99.08 2174.09 -27.5014 2063.82 -115.565C2041.4 -133.336 2017.95 -149.785 1993.69 -164.968C2114.61 -90.154 2218.76 21.2577 2261.97 158.687C2278.56 213.278 2284.9 272.395 2271.24 328.294C2256.15 389.805 2216.84 438.827 2157.81 463.024C2138.12 471.368 2116.72 476.681 2095.52 479.434C2027.65 488.282 1958.95 474.301 1894.57 453.156C1847.06 437.473 1800.86 416.843 1756.5 393.848C1705.69 367.358 1656.68 337.557 1609.18 305.567C1397.12 159.822 1148.42 67.742 892.557 40.5745C723.192 24.0391 545.39 30.9264 387.237 98.7131C207.563 177.961 145.003 322.681 261.195 492.501C289.149 533.701 323.36 570.997 359.342 605.329C440.676 683.814 542.277 749.976 657.477 759.264C728.844 765.279 800.16 749.86 866.982 725.515C1001.28 676.849 1124.47 598.112 1265.26 567.458C1377.6 541.371 1497.54 559.335 1598.78 613.995C1678.16 654.509 1753.8 708.114 1803.72 783.177C1841.86 840.691 1860.1 907.827 1856.92 976.717C1850.66 1103.1 1781.51 1227.98 1699.79 1321.93L1699.76 1321.94Z" fill="#FAECC8"/>
<path d="M1699.76 1321.94C1768.8 1234.19 1823.93 1124.19 1836.58 1012.37C1845.37 933.281 1829.41 854.394 1785.63 787.423C1735.04 708.928 1655.91 653.639 1573.19 612.923C1496.91 574.047 1410.94 553.407 1325.25 558.793C1180.83 567.036 1052.37 640.171 922.645 697.051C844.292 731.439 761.598 761.319 675.06 762.925C538.135 766.564 419.378 690.299 325.133 597.306C229.68 504.966 127.335 361.534 200.999 227.532C251.749 138.624 350.89 92.0714 445.487 64.0289C723.145 -10.5443 1022.55 36.1297 1286.8 139.835C1373.13 174.512 1456.39 216.911 1535.02 266.64C1553.21 277.998 1570.97 290.141 1588.81 302.044C1659.9 349.808 1734.15 393.514 1813.19 426.779C1915.26 469.712 2050.87 505.476 2154.14 450.242C2195.15 427.81 2225.95 390.484 2241.02 346.311L2243.67 338.753L2247.2 325.892C2247.72 324.188 2248.04 322.433 2248.39 320.687L2249.47 315.453C2251.15 308.631 2251.81 301.105 2252.88 294.366C2268.67 134.178 2162.24 -21.6026 2041.14 -117.284C2018.74 -135.05 1995.29 -151.482 1971.05 -166.659C2001.38 -147.802 2030.55 -126.887 2057.92 -103.938C2171.67 -8.29012 2269.12 140.649 2254.35 294.514C2253.83 298.714 2252.68 306.505 2252.03 310.465C2251.45 313.145 2250.45 318.327 2249.89 320.994C2249.05 325.655 2246.38 334.503 2245.17 339.193C2232.72 379.391 2208.09 416.285 2173.24 440.369L2168.88 443.521L2164.29 446.33C2161.2 448.171 2158.18 450.104 2155.05 451.878L2145.44 456.741C2140.94 459.142 2135.37 461.182 2130.64 463.201C2124.97 465.609 2116.14 468.297 2110.27 470.142C2107.25 470.931 2097.83 473.27 2094.62 474.083C2004.18 492.55 1911.41 467.947 1827.12 435.189C1795.64 422.375 1764.64 408.187 1734.52 392.485C1683.73 366.039 1634.74 336.26 1587.24 304.328C1351.85 142.615 1071.22 46.1132 785.792 32.5885C602.603 23.5647 304.906 55.8282 204.135 229.236C131.372 361.489 233.321 503.8 327.513 594.882C421.063 687.237 539.026 763.308 675.034 759.724C761.143 758.172 843.417 728.386 921.457 694.253C1051.4 637.468 1180.41 564.37 1325.15 556.361C1411.19 551.07 1497.66 571.955 1574.12 611.067C1657.06 652.03 1736.37 707.67 1786.91 786.582C1830.65 853.9 1846.51 933.08 1837.48 1012.43C1824.53 1124.34 1769.11 1234.24 1699.79 1321.91L1699.76 1321.94Z" fill="#FAECC8"/>
<path d="M1699.76 1321.94C1786.73 1199.45 1851.26 1028.88 1808.42 879.036C1768.88 737.633 1640.23 646.203 1510.11 593.121C1283.83 502.015 1101.29 606.405 898.336 697.713C845.879 720.459 792.129 741.15 735.914 752.65C551.758 793.438 401.709 701.139 278.926 571.657C86.1285 371.702 111.819 173.21 382.999 75.1436C747.427 -46.423 1216.71 69.9259 1530.96 276.881C1613.64 332.918 1698.5 386.796 1790.99 425.263C1843.41 447.374 1898.52 464.926 1954.95 472.872C2021.14 481.931 2093.87 476.606 2149.77 436.99C2181.88 414.651 2205.83 381.259 2218.46 344.361L2220.23 339.329L2221.09 336.799L2221.78 334.222L2224.61 323.933C2227.14 313.789 2228.91 302.782 2230.27 292.437C2245.88 132.277 2139.55 -23.3256 2018.47 -118.985C1996.06 -136.75 1972.62 -153.16 1948.4 -168.333C1972.68 -153.221 1996.15 -136.859 2018.6 -119.154C2136 -26.2878 2236.32 116.488 2233.21 271.205C2232.91 283.355 2231.4 296.555 2229.44 308.563C2228.42 313.776 2227.33 319.212 2226.13 324.32C2225.58 326.653 2223.12 335.2 2222.6 337.278C2212.72 368.883 2195.78 398.574 2171.61 421.445C2169.84 423.373 2161.81 430.166 2159.49 432.098C2157.26 433.962 2153.28 436.746 2150.85 438.519C2145.18 442.881 2138.74 446.341 2132.69 450.055L2123.07 454.918C2121.46 455.687 2119.9 456.602 2118.23 457.282L2113.26 459.332C2109.93 460.675 2106.65 462.147 2103.28 463.366C2096.86 465.422 2089.1 468.282 2082.72 469.692C1986.8 494.449 1879.26 464.591 1790.02 427.483C1710.8 394.337 1636.33 350.684 1565.05 302.983C1283.11 110.156 934.83 6.06104 592.968 34.679C507.939 42.8712 422.987 60.0461 344.438 94.2501C101.544 202.51 110.25 391.752 281.335 569.334C436.029 731.005 597.581 806.829 817.507 726.458C1054.14 639.312 1246.15 485.585 1510.83 591.174C1641.53 644.711 1770.13 736.54 1809.54 878.717C1852.05 1028.9 1787.14 1199.45 1699.71 1321.94L1699.76 1321.94Z" fill="#FAECC8"/>
<path d="M1699.76 1321.94C1798.27 1167.11 1855 951.664 1747.9 787.097C1695.53 705.517 1613.03 648.307 1526.06 608.258C1423.1 558.19 1303.84 544.843 1192.58 572.12C973.39 619.678 775.64 803.9 541.296 752.024C428.372 726.379 334.32 651.343 255.762 569.375C179.459 489.101 104.733 377.027 139.636 262.039C193.716 99.189 418.078 43.7557 570.694 29.498C905.976 1.78415 1247.91 101.191 1526.55 287.253C1660.03 378.268 1851.68 488.425 2017.87 473.466C2028.44 472.503 2039.12 470.67 2049.52 468.664L2065.04 464.766C2066.75 464.284 2068.42 463.679 2070.13 463.14L2080.25 459.805C2085.84 457.77 2089.71 455.877 2095.07 453.781C2096.7 453.092 2098.26 452.211 2099.86 451.437L2109.38 446.643L2118.51 441.142C2120.02 440.195 2121.58 439.355 2123.04 438.337L2127.37 435.232C2153.64 416.985 2174.34 391.175 2188.01 362.352C2192.02 353.47 2195.55 344.29 2198.57 335.008L2199.26 332.431L2202.09 322.142C2204.59 312.028 2206.37 300.969 2207.73 290.641C2222.91 133.9 2121.38 -18.2749 2004.23 -113.932C1979.35 -134.241 1953.07 -152.972 1925.84 -169.984C1950.1 -154.894 1973.58 -138.532 1996.03 -120.827C2113.41 -27.9829 2213.69 114.727 2210.65 269.405C2210.72 275.248 2209.6 284.849 2209.19 290.807C2208.55 294.6 2207.6 303.046 2206.91 306.75C2205.69 311.946 2204.93 317.419 2203.61 322.512L2200.79 332.88C2191.76 363.733 2175.79 392.992 2153 415.856C2145.89 423.249 2136.9 430.892 2128.47 436.748C2123.92 440.394 2115.4 445.157 2110.32 448.306C2106.25 450.372 2099.71 453.746 2095.9 455.543L2090.93 457.593C2087.6 458.936 2084.32 460.408 2080.96 461.649L2070.75 465.018C2069.05 465.556 2067.36 466.175 2065.62 466.669C1967.69 493.703 1859.15 463.841 1767.77 425.952C1741.39 415.03 1715.42 402.64 1690.06 389.548C1639.29 363.146 1590.3 333.425 1542.83 301.519C1223.03 82.4058 784.082 -36.298 402.974 63.6255C205.875 118.888 54.8724 257.865 179.733 466.102C201.805 502.718 228.889 536.075 258.277 567.08C354.567 669.076 480.757 760.073 626.729 758.332C712.792 758.007 795.369 729.054 873.521 695.345C1028.23 627.689 1187.76 537.591 1362.75 558.679C1419.75 564.882 1475.23 581.969 1526.98 606.455C1611.02 645.288 1690.65 699.983 1743.29 777.39C1788.24 842.307 1809.18 922.041 1806.72 1000.59C1802.93 1115 1760.88 1226.08 1699.85 1321.98L1699.76 1321.94Z" fill="#FAECC8"/>
<path d="M1699.76 1321.94C1761.93 1211.4 1800.8 1080.48 1787.29 952.999C1779.52 882.168 1752.24 813.381 1707.74 757.528C1654.69 689.891 1581.13 641.337 1503.33 606.393C1399.78 557.65 1280.53 545.641 1169.39 572.951C950.401 620.75 751.986 804.361 517.853 750.926C419.513 728.063 334.625 667.057 263.093 597.832C221.938 558.092 183.457 514.973 153.858 465.799C131.865 428.884 114.753 388.355 109.64 345.368C101.925 287.874 121.183 228.76 158.963 185.113C252.078 78.3443 412.608 41.4255 548.376 27.7814C872.968 0.865967 1203.62 93.7178 1477.19 267.937C1485.21 273.204 1496.15 280.251 1504.05 285.656C1568.89 329.791 1636.04 371.143 1707.03 404.676C1811.15 453.099 1944.66 497.64 2057.7 458.062C2061.02 456.829 2064.28 455.393 2067.57 454.058L2072.5 452.034C2074.14 451.327 2075.68 450.464 2077.28 449.69L2086.81 444.896L2095.92 439.373C2097.44 438.426 2099 437.585 2100.44 436.562L2104.77 433.458C2136.83 411.07 2160.73 377.663 2173.31 340.769C2180.43 320.829 2184.41 299.328 2185.98 278.218C2193.97 148.821 2124.58 25.6257 2036.84 -65.0411C1997.07 -105.8 1951.46 -141.583 1903.18 -171.698C1927.45 -156.608 1950.92 -140.246 1973.36 -122.545C2088.95 -30.7447 2185.29 104.972 2188.23 256.896C2188.26 307.126 2175.67 357.729 2144.6 397.951C2140.12 403.347 2135.51 409.211 2130.38 414.076C2127.77 416.532 2125.33 419.392 2122.68 421.574L2114.49 428.548C2110.73 431.619 2105.46 435.222 2101.5 438.126C2099.14 439.635 2090.44 444.932 2087.73 446.554C2083.56 448.648 2077.18 451.956 2073.31 453.791C2068.36 455.846 2063.31 457.987 2058.37 459.897L2048.16 463.266C1961.42 489.638 1868.56 469.219 1785.17 439.956C1746.56 425.905 1708.91 408.974 1672.26 390.396C1619.86 363.275 1569.24 332.817 1520.3 299.896C1238.53 107.058 890.451 2.86519 548.694 31.2296C413.701 44.8563 254.276 81.5827 161.715 187.41C124.558 230.416 105.522 288.35 113.137 344.953C124.166 430.522 177.687 503.581 235.29 565.053C331.572 667.009 457.266 758.455 603.177 757.712C689.239 757.951 771.952 729.335 850.18 695.835C980.53 639.929 1109.33 567.826 1253.64 557.468C1339.47 550.711 1426.27 568.415 1504.19 604.536C1599.94 647.374 1689.82 712.666 1741.76 805.593C1831.99 967.198 1786.4 1168.64 1699.76 1321.94Z" fill="#FAECC8"/>
<path d="M1699.76 1321.94C1773.63 1173.43 1808.91 980.966 1732.95 826.738C1707.92 775.463 1671.02 730.323 1627.46 693.585C1517.78 603.99 1374.48 548.388 1231.77 559.968C1087.78 570.75 959.375 642.507 829.11 698.379C750.487 732.018 667.269 760.555 580.742 760.154C433.996 760.503 307.469 668.515 210.53 566.063C180.977 534.901 153.681 501.356 131.48 464.517C5.85652 254.985 155.701 113.031 356.658 56.848C723.844 -41.1701 1160.4 71.2364 1472.36 277.897C1551.85 332.158 1634.39 383.138 1723.38 420.33C1775.79 442.419 1830.91 459.936 1887.32 467.859C1953.49 476.897 2026.22 471.514 2082.06 431.844C2108.34 413.597 2129.04 387.787 2142.72 358.969C2146.73 350.087 2150.27 340.907 2153.28 331.625L2153.97 329.048L2156.8 318.759C2159.31 308.628 2161.08 297.603 2162.44 287.258C2177.98 127.194 2071.64 -28.4704 1950.61 -124.058C1928.22 -141.802 1904.78 -158.229 1880.55 -173.385C1904.81 -158.277 1928.29 -141.932 1950.75 -124.227C2068.13 -31.3835 2168.41 111.326 2165.36 266.004C2165.47 271.8 2164.29 281.478 2163.9 287.407C2163.33 291.236 2162.26 299.631 2161.62 303.349C2160.6 308.562 2159.51 313.998 2158.32 319.111L2155.51 329.479C2146.47 360.332 2130.51 389.591 2107.72 412.455C2100.61 419.848 2091.62 427.491 2083.17 433.343C2078.62 436.989 2070.1 441.752 2065.02 444.901C2060.91 446.974 2054.43 450.328 2050.6 452.138L2045.63 454.188C2042.3 455.531 2039.02 457.003 2035.66 458.244L2025.45 461.613C2023.74 462.151 2022.05 462.769 2020.33 463.246C1922.39 490.28 1813.85 460.418 1722.47 422.511C1696.09 411.59 1670.13 399.2 1644.76 386.107C1594 359.706 1545.01 329.984 1497.54 298.079C1309.38 168.452 1092.36 81.2961 867.031 43.9538C684.903 14.9603 493.039 13.0432 316.953 73.2052C133.731 137.26 21.1179 274.689 134.454 462.684C156.526 499.3 183.615 532.639 213.015 563.667C309.369 665.567 434.888 757.173 580.783 756.914C666.863 757.365 749.644 728.917 827.936 695.528C958.393 639.783 1087.34 568.057 1231.61 557.499C1374.93 546.124 1518.65 602.006 1628.62 692.187C1672.23 729.164 1709.17 774.595 1734.16 826.102C1809.81 980.832 1774.14 1173.36 1699.76 1321.94Z" fill="#FAECC8"/>
<path d="M1699.76 1321.94C1745.03 1217.56 1768.72 1101.86 1759.34 988.045C1744.47 803.896 1627.48 673.131 1460.88 603.807C1382.55 569.584 1295.93 552.87 1210.55 559.991C1036.92 572.788 888.603 673.309 727.467 728.779C703.772 736.839 679.559 743.745 655.077 748.983C498.813 784.02 367.044 727.753 250.558 624.684C208.125 586.838 166.94 545.455 133.309 499.466C61.7543 403.291 28.6572 282.985 112.876 182.813C168.961 116.472 251.425 79.4468 333.234 55.3984C610.865 -18.8626 910.119 27.8837 1174.23 131.666C1260.52 166.368 1343.74 208.775 1422.33 258.513C1440.52 269.871 1458.26 282.027 1476.09 293.907C1535.3 333.789 1596.79 370.47 1661.3 401.118C1775.02 454.689 1940.25 507.638 2054.94 433.444L2063.6 427.235C2065.04 426.172 2066.53 425.221 2067.85 424.015L2075.98 417.119C2076.65 416.527 2077.36 415.985 2077.99 415.366L2079.87 413.483L2083.64 409.722C2088.24 405.262 2093.67 398.918 2097.8 393.807C2112.54 374.816 2123.37 353.05 2130.64 330.18C2132.44 323.484 2135.31 313.808 2136.43 306.893C2138.1 300.181 2138.77 292.47 2139.84 285.823C2155.49 125.655 2049.14 -29.9923 1928.05 -125.651C1905.65 -143.417 1882.21 -159.844 1857.98 -175C1906.37 -144.989 1952.13 -109.296 1992.01 -68.6012C2085.27 26.6642 2160.89 165.244 2139.02 301.931C2133.07 335.434 2120.13 367.889 2099.22 394.901C2095.83 399.065 2092.34 403.183 2088.78 407.208C2086.91 409.17 2083.04 412.886 2081.17 414.826L2079.27 416.722C2078.63 417.358 2077.92 417.901 2077.25 418.492C2073.72 421.509 2068.31 426.299 2064.77 428.73L2060.4 431.882C2054.74 436.245 2048.3 439.705 2042.25 443.418C2038.04 445.521 2031.73 448.847 2027.81 450.633C2022.86 452.688 2017.8 454.864 2012.86 456.717C2008.37 458.18 2001.66 460.478 1997.51 461.714C1994.47 462.459 1985.07 464.882 1981.85 465.672C1889.7 484.45 1795.08 458.938 1709.47 424.908C1679.66 412.765 1650.4 399.134 1621.84 384.323C1571.06 357.899 1522.08 328.16 1474.6 296.233C1239.32 134.513 958.849 37.9384 673.512 24.2701C491.387 14.8551 191.846 47.752 91.5952 220.06C18.0303 352.078 119.612 494.498 213.677 585.771C241.435 613.032 271.484 639.461 302.68 662.591C412.816 744.004 530.304 776.208 664.93 743.657C769.522 718.745 864.682 667.255 963.216 625.781C1067.7 580.681 1181.28 546.66 1296.28 558.318C1353.13 563.542 1409.43 579.252 1461.76 601.977C1628.88 671.777 1745.81 803.299 1760.29 987.999C1769.38 1102 1745.39 1217.6 1699.85 1321.98L1699.76 1321.94Z" fill="#FAECC8"/>
</g>
</svg>
