<svg width="626" height="800" viewBox="0 0 626 800" fill="none" xmlns="http://www.w3.org/2000/svg">
<mask id="mask0_146_3987" style="mask-type:alpha" maskUnits="userSpaceOnUse" x="0" y="0" width="626" height="800">
<rect width="626" height="800" transform="matrix(-1 0 0 1 626 0)" fill="#D9D9D9"/>
</mask>
<g mask="url(#mask0_146_3987)">
<path d="M-31.8913 1338.84C-188.144 1337.79 -380.666 1278.45 -359.235 1086.97C-355.037 1047.68 -343.308 1009.54 -328.386 973.059C-306.661 918.166 -274.017 866.392 -226.472 830.392C-97.6322 730.98 81.609 759.625 219.062 679.196C326.974 616.285 362.469 488.951 368.286 371.429C372.668 260.424 326.413 169.626 204.322 168.14C70.2471 169.089 -65.4686 258.533 -162.819 345.06C-294.99 464.403 -396.825 617.365 -455.425 785.531C-468.492 822.809 -483.219 859.529 -500.362 895.122C-700.885 1313.74 -995.12 1031.37 -859.845 688.041C-903.262 796.306 -913.364 928.896 -849.569 1031.06C-817.196 1082.32 -760.497 1117.02 -698.736 1103.03C-639.787 1089.85 -594.328 1044.81 -559.259 997.892C-512.347 933.901 -480.059 860.564 -453.607 786.15C-394.806 618.432 -293.29 465.79 -161.279 346.767C-60.5148 255.539 122.003 137.244 262.236 179.627C345.78 206.648 369.055 291.623 365.943 371.349C360.179 488.164 325.159 614.743 217.956 677.325C80.4932 757.586 -98.7477 729.341 -227.46 829.093C-275.175 865.325 -307.914 917.359 -329.653 972.529C-344.551 1009.14 -356.301 1047.41 -360.403 1086.84C-381.35 1278.93 -188.831 1338.16 -31.8913 1338.84Z" fill="#FAECC8"/>
<path d="M-31.8913 1338.84C-132.302 1334.27 -261.427 1302.4 -319.776 1213.68C-347.389 1171.33 -354.239 1121.51 -347.805 1072C-342.751 1032.89 -330.61 994.959 -315.047 958.809C-299.738 922.537 -280.31 887.697 -253.842 858.342C-143.874 733.221 37.6624 750.271 181.615 693.955C294.347 650.467 348.29 561.466 370.052 446.296C379.054 397.844 384.287 347.744 376.61 298.78C352.624 149.228 219.033 136.197 97.1661 180.047C-121.177 261.511 -298.939 460.68 -398.965 667.106C-434.186 737.944 -453.896 815.179 -489.109 886.007C-506.14 921.259 -526 956.121 -549.355 987.591C-585.469 1035.88 -633.456 1082.91 -695.185 1092.98C-696.398 1093.16 -697.6 1093.45 -698.823 1093.54L-706.149 1094.21C-707.37 1094.33 -708.597 1094.47 -709.816 1094.44L-717.172 1094.52C-718.398 1094.58 -719.618 1094.47 -720.843 1094.39L-728.193 1093.89C-731.835 1093.38 -735.486 1092.88 -739.099 1092.24L-746.269 1090.58L-748.055 1090.16L-749.813 1089.6L-756.822 1087.4C-760.258 1086.11 -763.672 1084.72 -767.054 1083.28L-773.657 1080.03L-775.309 1079.22C-778.762 1077.07 -783.018 1074.97 -786.34 1072.56L-792.415 1068.41C-794.917 1066.35 -801.35 1061.6 -803.832 1059.1C-831.559 1034.58 -850.564 1001.58 -863.132 967.029C-896.072 873.406 -884.18 768.916 -847.992 677.874C-884.464 768.913 -896.598 873.466 -863.848 967.288C-852.19 999.744 -834.786 1030.65 -809.994 1054.87C-807.37 1057.22 -804.464 1060.03 -801.78 1062.36C-800.854 1063.18 -799.85 1063.9 -798.893 1064.68L-793.072 1069.27C-789.171 1071.86 -784.683 1075.24 -780.661 1077.4C-778.632 1078.55 -776.259 1080.09 -774.192 1081.04C-768.806 1083.88 -762.815 1086.42 -757.212 1088.51C-755.457 1089.13 -751.898 1090.16 -750.135 1090.77C-748.896 1091.29 -741.014 1093.04 -739.318 1093.45C-734.528 1094.22 -729.477 1095.19 -724.599 1095.4L-720.896 1095.66C-719.661 1095.75 -718.424 1095.86 -717.188 1095.8L-709.76 1095.72C-706.453 1095.7 -701.998 1095.07 -698.642 1094.84C-637.459 1086.55 -588.926 1041.54 -552.537 994.44C-533.071 969.207 -515.968 941.261 -500.91 913.201C-477.827 869.559 -458.674 823.789 -442.238 777.289C-363.741 555.023 -211.677 354.84 -8.71975 232.681C42.2082 202.954 96.851 178.343 154.822 166.57C263.626 144.261 355.691 180.565 374.291 299.15C381.936 347.833 376.762 397.661 367.81 445.849C346.231 560.27 292.859 648.675 180.848 691.939C36.7724 748.189 -145.102 731.763 -254.981 857.29C-281.52 886.796 -300.996 921.837 -316.3 958.241C-331.849 994.514 -343.992 1032.59 -348.977 1071.83C-355.312 1121.59 -348.296 1171.62 -320.445 1214.12C-261.752 1302.91 -132.588 1334.49 -31.8913 1338.84Z" fill="#FAECC8"/>
<path d="M-31.8913 1338.84C-108.733 1332.04 -190.084 1310.26 -253.172 1264.62C-371.992 1177.79 -350.405 1042.13 -292.516 924.975C-259.687 858.375 -211.11 809.007 -143.795 777.26C-33.9888 724.847 92.6675 727.945 204.118 680.227C215.121 675.463 226.838 669.624 237.261 663.648C319.5 616.983 360.671 537.783 379.501 447.7C388.504 404.404 394.201 359.558 391.401 315.313C380.251 146.625 245.315 120.388 106.769 170.703C-76.9098 239.738 -227.56 390.671 -330.879 554.47C-372.617 621.469 -406.85 693.127 -432.68 767.701C-446.558 807.174 -462.547 845.937 -480.957 883.52C-483.37 888.125 -488.685 898.589 -491.096 903.211C-493.007 906.828 -499.832 918.945 -501.809 922.604C-510.293 937.022 -519.757 952.59 -529.473 966.234C-568.879 1022.29 -624.662 1079.58 -696.841 1084.3L-706.031 1084.41C-709.702 1084.28 -713.366 1083.97 -717.026 1083.71L-724.299 1082.63C-725.508 1082.45 -726.724 1082.3 -727.912 1081.99L-735.072 1080.33C-736.278 1080.11 -737.428 1079.67 -738.594 1079.31L-745.604 1077.11L-749.005 1075.74C-754.484 1073.65 -760.565 1070.78 -765.607 1067.91L-771.952 1064.19C-775.027 1062.17 -778.04 1060.08 -781.07 1057.98C-783.789 1055.73 -789.805 1051.3 -792.436 1048.65L-795.179 1046.19C-798.596 1043.18 -801.259 1040.08 -804.307 1037.11C-806.51 1034.55 -809.372 1031.34 -811.575 1028.79C-813.221 1026.77 -816.756 1022.07 -818.365 1020.07L-819.421 1018.56L-821.518 1015.53C-889.642 913.698 -879.743 777.625 -836.186 667.765C-880.104 777.657 -890.255 913.927 -822.275 1016.06L-820.177 1019.11L-819.12 1020.62C-817.575 1022.52 -813.861 1027.48 -812.324 1029.39C-810.086 1031.94 -807.279 1035.22 -805.041 1037.77C-802.565 1040.3 -798.481 1044.59 -795.877 1046.92C-793.047 1049.29 -790.464 1052.07 -787.516 1054.23L-781.712 1058.82C-777.828 1061.65 -773.527 1064.55 -769.349 1066.99C-767.255 1068.1 -765.016 1069.71 -762.913 1070.65L-756.271 1073.93C-753.249 1075.32 -749.121 1076.92 -745.996 1078.2C-742.564 1079.21 -738.792 1080.64 -735.369 1081.48C-732.27 1082.22 -727.429 1083.44 -724.492 1083.84L-717.145 1084.94C-713.448 1085.22 -709.74 1085.52 -706.032 1085.67L-698.604 1085.59C-627.507 1082.3 -572.185 1027.56 -532.366 973.201C-529.184 968.651 -524.901 962.52 -521.786 958.012C-520.741 956.483 -513.028 944.371 -511.75 942.469C-508.147 936.45 -503.925 929.537 -500.324 923.421C-498.259 919.592 -491.752 908.052 -489.56 904.005C-466.477 860.442 -447.279 814.756 -430.835 768.326C-352.683 546.233 -201.116 346.213 1.2298 223.661C51.9999 193.792 106.489 169.075 164.284 156.923C307.741 127.236 392.902 197.686 389.774 344.919C389.11 382.795 383.187 421.108 374.963 458.049C354.26 546.543 311.969 621.37 229.775 665.341C220.324 670.577 209.797 675.464 199.938 679.752C89.2983 725.754 -35.8146 723.679 -144.494 775.698C-214.362 808.729 -264.458 861.18 -296.912 931.047C-352.895 1047.39 -370.223 1180.35 -253.48 1265.13C-190.144 1310.68 -108.811 1332.21 -31.8367 1338.85L-31.8913 1338.84Z" fill="#FAECC8"/>
<path d="M-31.8913 1338.84C-119.69 1327.47 -221.767 1292.26 -280.651 1223.4C-291.695 1210.29 -301.368 1195.87 -308.847 1180.44C-317.364 1162.88 -323.384 1143.76 -326.354 1124.46C-339.395 1042.34 -303.745 949.432 -260.783 880.279C-149.824 709.259 46.8895 739.319 212.195 672.396C323.252 626.631 374.351 534.899 394.653 420.64C406.404 353.549 412.145 280.022 380.931 217.257C363.188 181.498 329.707 154.741 291.176 144.613C196.64 120.242 91.15 165.003 10.2734 212.339C-158.533 314.637 -291.152 472.044 -376.454 649.09C-389.153 675.79 -400.745 703.022 -411.143 730.696C-427.743 777.001 -444.572 823.315 -466.354 867.484C-472.23 879.751 -480.147 894.797 -486.845 906.696C-521.56 968.105 -570.622 1035.17 -637.509 1063.04C-682.646 1081.97 -730.236 1076.85 -769.624 1047.5C-803.183 1022.34 -825.746 985.151 -839.796 946.079C-872.386 852.576 -860.536 748.419 -824.397 657.577C-860.803 748.414 -872.902 852.643 -840.513 946.338C-826.513 985.593 -803.923 1023.03 -770.272 1048.37C-730.585 1078.08 -682.625 1083.34 -636.996 1064.3C-569.738 1036.4 -520.34 969.173 -485.378 907.515C-478.633 895.557 -470.695 880.544 -464.787 868.238C-442.912 824.032 -425.987 777.698 -409.31 731.375C-398.887 703.77 -387.287 676.608 -374.57 649.985C-289.359 473.393 -156.998 316.371 11.4789 214.386C91.8942 167.368 196.685 122.944 290.5 146.979C328.414 156.982 361.323 183.157 378.774 218.363C405.435 271.385 404.637 333.496 396.973 391.124C395.031 405.474 392.554 420.675 389.564 434.7C354.203 604.505 262.19 670.626 98.4648 703.883C-38.8956 732.3 -179.862 750.468 -262.036 879.472C-305.089 948.998 -340.688 1042.12 -327.364 1124.62C-324.324 1144 -318.232 1163.21 -309.63 1180.82C-302.085 1196.29 -292.343 1210.76 -281.219 1223.87C-222.057 1292.69 -119.889 1327.68 -31.9089 1338.84L-31.8913 1338.84Z" fill="#FAECC8"/>
<path d="M-31.8913 1338.84C-132.158 1321.21 -251.043 1270.33 -297.711 1174.17C-319.649 1129.72 -322.966 1078.81 -314.145 1030.48C-307.192 991.777 -293.192 954.668 -276.183 919.304C-259.344 883.853 -237.617 850.526 -209.894 822.635C-93.9407 704.202 83.7759 722.404 226.94 661.82C304.435 628.5 354.895 572.893 384.163 493.988C401.115 447.74 410.403 398.75 414.526 349.76C427.613 190.897 346.733 99.8844 183.761 134.955C-18.0295 182.766 -201.902 363.831 -308.505 536.185C-344.794 594.791 -375.468 656.868 -399.634 721.419C-419.331 776.987 -440.246 832.303 -468.231 884.312C-501.241 945.021 -545.061 1008.89 -606.326 1043.55L-609.52 1045.37L-612.818 1046.99L-619.411 1050.24C-621.619 1051.29 -623.93 1052.13 -626.182 1053.1C-631.22 1055.34 -636.526 1056.85 -641.742 1058.62L-643.519 1059.07L-650.649 1060.85C-684.913 1068.62 -719.464 1062.26 -749.08 1043.39C-768.592 1030.73 -785.249 1013.78 -798.33 994.607C-855.057 910.065 -856.836 799.272 -831.218 703.394C-826.077 684.412 -819.809 665.737 -812.585 647.441C-848.973 738.195 -861.051 842.299 -828.792 935.937C-815.619 972.89 -795.013 1008.14 -764.566 1033.4C-732.189 1060.12 -693.507 1070.96 -652.159 1062.59C-649.601 1061.98 -645.751 1061.01 -643.169 1060.37L-641.374 1059.92L-639.61 1059.34C-632.535 1057.15 -625.604 1054.53 -618.843 1051.51C-616.059 1050.14 -611.415 1047.87 -608.874 1046.62C-551.089 1014.97 -510.389 960.251 -477.544 904.486C-469.161 889.876 -460.644 873.936 -453.302 858.831C-436.022 823.427 -421.102 786.924 -407.899 749.835C-356.473 601.202 -271.495 464.443 -161.677 351.924C-79.2637 268.318 17.1911 195.188 127.853 153.896C182.621 134.286 243.166 121.724 300.538 136.37C403.83 163.731 421.267 271.779 410.887 364.258C396.27 493.057 352.631 605.997 226.073 659.868C82.6465 720.482 -94.7972 702.577 -211.026 821.556C-238.821 849.598 -260.622 883.137 -277.463 918.73C-302.867 971.76 -321.974 1029.75 -319.579 1089.15C-318.841 1108.74 -315.565 1128.56 -309.501 1147.2C-303.59 1165.89 -294.67 1183.89 -283.696 1200.09C-229.787 1279.53 -123.741 1322.99 -31.9147 1338.87L-31.8913 1338.84Z" fill="#FAECC8"/>
<path d="M-31.8913 1338.84C-115.237 1320.08 -204.202 1279.13 -259.001 1211.8C-288.656 1175.07 -305.763 1130.74 -308.014 1083.54C-310.853 1021.92 -290.862 961.682 -263.534 907.138C-229.863 835.925 -171.189 777.512 -98.7109 746.306C33.6812 685.658 202.506 702.119 316.17 604.368C376.462 551.922 405.939 473.455 418.999 396.425C424.92 362.612 428.662 327.893 427.319 293.556C420.398 116.826 282.194 87.8093 137.541 141.906C-77.6712 224.941 -255.75 425.246 -353.596 630.457C-370.514 665.989 -385.14 702.582 -398.135 739.71C-419.568 799.753 -445.081 858.697 -478.882 912.901C-512.343 965.541 -555.715 1018.83 -614.763 1043.09C-662.898 1062.82 -712.132 1055.38 -752.314 1022.2C-767.353 1009.71 -780.232 994.558 -790.746 978.098C-843.193 893.967 -844.405 786.82 -819.371 693.174C-814.227 674.209 -807.975 655.554 -800.759 637.268C-837.077 727.934 -849.205 831.981 -817.044 925.542C-803.945 962.467 -783.339 997.715 -752.993 1023.03C-719.57 1050.86 -677.848 1061.9 -635.351 1051.18C-621.065 1047.76 -607.071 1041.96 -594.23 1034.83C-553.113 1012.03 -520.84 976.277 -493.88 938.328C-474.019 910.281 -456.899 880.034 -441.758 849.231C-424.474 813.862 -409.541 777.402 -396.333 740.348C-338.566 573.306 -238.658 420.962 -108.322 301.562C-21.4554 223.325 79.6269 154.587 194.685 127.511C326.313 97.9867 419.912 152.418 424.95 293.647C426.302 327.815 422.604 362.378 416.718 396.027C403.772 472.573 374.599 550.58 314.716 602.713C277.723 635.154 232.017 655.732 185.155 669.546C91.0798 697.452 -9.11826 704.211 -99.4387 744.72C-172.168 776.141 -231.138 835.005 -264.802 906.51C-292.15 961.278 -312.096 1021.76 -309.074 1083.59C-306.699 1130.93 -289.402 1175.47 -259.548 1212.23C-204.543 1279.5 -115.393 1320.28 -31.9089 1338.84L-31.8913 1338.84Z" fill="#FAECC8"/>
<path d="M-31.8913 1338.84C-105.836 1318.53 -181.164 1280.24 -233.76 1223.63C-270.875 1183.52 -294.227 1133.42 -297.346 1078.56C-301.393 1014.55 -280.21 951.721 -251.094 895.475C-224.789 842.875 -185.687 796.394 -136.13 764.408C-52.9439 710.038 47.8823 698.033 142.781 676.53C200.112 663.561 258.004 646.33 306.49 611.91C383.654 558.055 418.189 467.466 432.354 377.637C447.453 287.676 445.523 166.675 350.158 122.696C285.848 94.2819 212.066 109.012 148.344 132.115C-35.5339 204.199 -181.984 352.144 -285.742 517.253C-319.318 571.636 -348.041 629.028 -371.222 688.586C-376.645 702.284 -381.507 716.237 -386.513 730.092C-406.328 785.487 -429.541 839.927 -459.66 890.554C-498.565 955.918 -558.931 1031 -638.537 1042.62C-670.353 1046.96 -702.6 1038.91 -728.943 1020.65L-733.488 1017.55L-740.689 1011.89C-741.667 1011.16 -742.56 1010.32 -743.468 1009.5L-746.201 1007.05C-749.91 1003.97 -753.345 1000.08 -756.686 996.793C-830.742 914.733 -835.45 785.244 -807.539 682.973C-802.403 664.018 -796.142 645.37 -788.933 627.094C-798.005 649.887 -805.601 673.345 -811.369 697.191C-835.233 796.447 -828.351 918.491 -757.435 997.473C-755.433 999.58 -751.622 1003.42 -749.65 1005.34C-748.233 1006.58 -745.57 1009.04 -744.171 1010.28C-741.808 1012.52 -736.724 1016.32 -734.138 1018.41C-710.867 1035.54 -682.207 1045.88 -653.122 1044.96L-649.425 1044.92L-645.743 1044.6C-643.285 1044.36 -640.828 1044.2 -638.376 1043.9L-631.078 1042.66C-627.612 1042.16 -623.702 1041.01 -620.261 1040.19C-616.147 1039.21 -610.172 1037.1 -606.173 1035.72C-604.186 1034.93 -598.02 1032.37 -595.916 1031.51C-538.4 1004.82 -497.156 953.37 -463.926 900.881C-451.755 880.959 -440.409 860.474 -430.165 839.51C-412.878 804.176 -397.942 767.734 -384.713 730.713C-320.561 545.329 -204.815 377.519 -52.5687 253.59C45.0018 173.863 222.701 70.2267 349.12 124.917C443.274 168.297 444.964 288.517 430.049 377.269C416.009 466.462 381.834 556.619 305.199 610.13C256.972 644.406 199.351 661.517 142.296 674.5C47.3157 696.145 -53.8023 708.396 -137.066 763.024C-186.778 795.204 -226.056 842.025 -252.364 894.829C-281.5 951.3 -302.643 1014.4 -298.396 1078.62C-295.115 1133.65 -271.59 1183.87 -234.239 1224.03C-181.438 1280.57 -105.988 1318.68 -31.9185 1338.83L-31.8913 1338.84Z" fill="#FAECC8"/>
<path d="M-31.8913 1338.84C-129.912 1306.64 -235.146 1238.74 -272.576 1138.47C-308.391 1044.22 -274.572 941.212 -224.302 858.796C-136.39 716.138 7.07303 699.338 156.487 666.978C194.758 658.142 232.904 647.644 268.665 631.061C387.085 578.46 432.376 466.247 447.432 344.614C472.446 155.481 377.295 56.2986 187.416 112.76C-63.5873 194.284 -275.514 450.033 -364.802 692.587C-387.647 757.282 -412.578 821.671 -448.008 880.658C-467.965 914.262 -491.267 946.445 -519.212 973.856C-552.1 1005.87 -594.471 1032.6 -641.527 1033.52C-668.384 1034.28 -695.243 1025.6 -717.272 1010.37L-720.298 1008.31L-721.808 1007.27L-723.241 1006.12L-729.002 1001.59C-734.537 997.021 -740.001 991.659 -744.971 986.499C-818.918 904.383 -823.61 775.033 -795.698 672.78C-790.562 653.825 -784.298 635.195 -777.097 616.929C-784.353 635.183 -790.654 653.8 -795.844 672.744C-822.856 771.948 -820.074 891.76 -755.256 975.969C-750.134 982.559 -743.919 989.237 -737.941 995.073C-735.251 997.537 -732.427 1000.09 -729.681 1002.43C-728.425 1003.49 -723.58 1007.21 -722.446 1008.15C-704.098 1021.58 -682.624 1031.07 -659.94 1033.84C-658.172 1034.18 -650.965 1034.66 -648.893 1034.78C-646.901 1034.9 -643.565 1034.82 -641.498 1034.8C-636.588 1034.9 -631.619 1034.19 -626.758 1033.77L-619.46 1032.53C-618.253 1032.3 -617.016 1032.17 -615.817 1031.86L-612.234 1030.97C-609.845 1030.35 -607.437 1029.83 -605.075 1029.12C-600.689 1027.64 -595.231 1026.05 -591.131 1024.23C-528.02 998.775 -480.755 938.4 -446.566 881.488C-416.297 830.853 -392.939 776.352 -372.996 720.916C-295.805 499.349 -145.763 299.741 54.8602 176.072C105.198 145.906 159.156 120.734 216.52 107.584C394.923 68.2939 467.29 176.399 445.153 344.313C425.587 496.75 367.219 604.554 212.885 649.881C46.5523 698.282 -122.267 691.69 -225.498 858.017C-275.901 940.919 -309.528 1044.12 -273.325 1138.75C-235.571 1239.07 -130.142 1306.81 -31.8582 1338.82L-31.8913 1338.84Z" fill="#FAECC8"/>
<path d="M-31.8913 1338.84C-149.481 1293.48 -268.703 1197.6 -276.621 1062.98C-280.949 996.546 -258.682 931.278 -226.949 873.669C-190.461 804.001 -129.985 747.966 -57.3637 717.64C83.1785 654.487 267.609 675.584 375.977 551.311C427.933 491.069 449.314 411.24 459.305 333.902C468.74 258.42 464.334 166.013 398.147 116.724C301.841 48.8173 155.226 109.731 65.0583 164.122C-131.558 285.606 -280.007 480.036 -358.132 696.516C-394.79 801.262 -455.79 940.314 -553.749 999.858C-559.982 1003.64 -566.635 1006.98 -573.198 1010.12L-583.37 1014.3C-584.511 1014.73 -585.679 1015.07 -586.841 1015.47L-593.799 1017.76C-597.717 1018.92 -600.63 1019.45 -604.446 1020.48C-605.63 1020.76 -606.847 1020.91 -608.046 1021.14L-615.265 1022.37L-622.554 1023.06C-623.777 1023.15 -624.982 1023.33 -626.203 1023.36L-629.862 1023.41C-651.826 1024.05 -673.794 1018.23 -693.101 1007.88C-698.943 1004.62 -704.639 1000.98 -710.089 997.086L-711.522 995.944L-717.283 991.415C-722.791 986.848 -728.284 981.463 -733.245 976.31C-805.562 895.908 -811.509 770.411 -785.768 669.763C-780.3 648.391 -773.413 627.321 -765.301 606.812C-772.558 625.049 -778.859 643.666 -784.049 662.609C-811.063 761.796 -808.288 881.555 -743.522 965.77C-741.178 969.028 -736.642 973.874 -733.984 976.998C-732.084 978.832 -728.117 983.112 -726.224 984.877C-723.429 987.249 -720.782 989.966 -717.972 992.238L-712.187 996.818C-694.61 1010.18 -673.854 1019.83 -651.934 1023.16C-644.986 1024.34 -636.901 1024.9 -629.851 1024.69C-625.849 1024.85 -619.199 1024.01 -615.11 1023.68C-612.017 1023.16 -607.023 1022.35 -604.184 1021.79L-600.601 1020.9C-598.212 1020.28 -595.803 1019.76 -593.44 1019.07L-586.421 1016.76C-585.259 1016.37 -584.073 1016.02 -582.915 1015.59C-517.758 990.563 -469.945 929.78 -434.89 871.563C-424.764 854.766 -415.465 837.327 -406.785 819.744C-389.494 784.446 -374.537 748.036 -361.314 711.043C-273.92 459.508 -79.7174 214.833 171.677 114.547C303.154 64.6616 443.294 79.8345 459.209 245.825C461.942 275.061 460.577 304.54 456.979 333.66C445.356 429.298 412.72 531.058 331.33 589.653C283.63 624.587 226.18 642.283 169.237 655.546C56.1323 681.29 -68.7818 696.597 -156.902 779.645C-185.878 806.329 -209.574 838.406 -228.19 873.047C-258.801 928.789 -280.511 991.499 -278.036 1055.74C-276.401 1109.94 -255.458 1162.54 -222.062 1204.94C-173.312 1266.6 -104.766 1310.81 -31.9205 1338.89L-31.8913 1338.84Z" fill="#FAECC8"/>
<path d="M-31.8913 1338.84C-111.332 1303.13 -186.213 1246.66 -230.733 1170.71C-255.324 1128.41 -268.3 1079.27 -266.487 1030.26C-264.747 971.249 -243.896 914.414 -215.146 863.365C-177.787 794.184 -116.775 738.896 -44.2086 708.638C96.3221 645.699 280.871 666.189 388.486 541.14C433.516 488.385 455.554 420.046 466.858 352.615C473.398 313.868 477.082 274.346 473.387 235.101C470.487 205.733 463.416 176.36 448.71 150.524C429.527 115.612 394.774 90.8099 356.092 82.1099C261.082 61.1127 157.299 106.212 76.6934 154.068C-113.689 271.631 -258.577 457.837 -338.731 665.709C-341.012 671.888 -344.185 680.244 -346.346 686.454C-364.186 737.294 -384.436 787.537 -409.998 835.029C-447.795 904.26 -503.427 983.344 -582.044 1007.6C-584.382 1008.27 -586.771 1008.81 -589.135 1009.41L-592.682 1010.3C-593.876 1010.58 -595.083 1010.74 -596.283 1010.96L-603.501 1012.2L-610.792 1012.87C-612.015 1012.96 -613.22 1013.13 -614.434 1013.16L-618.093 1013.21C-644.947 1013.92 -671.782 1005.22 -693.778 989.962C-705.85 981.854 -716.814 971.596 -726.293 960.575C-783.482 892.346 -795.37 795.969 -783.852 710.079C-778.493 671.333 -767.883 632.959 -753.477 596.621C-760.734 614.858 -767.035 633.475 -772.218 652.409C-798.667 750.289 -796.567 864.578 -736.233 949.713C-715.765 977.477 -688.165 1000.3 -654.589 1009.84C-649.916 1011 -644.972 1012.35 -640.157 1012.95C-637.71 1013.24 -635.196 1013.83 -632.839 1013.95L-625.469 1014.46C-622.141 1014.62 -617.757 1014.46 -614.386 1014.45C-612.466 1014.33 -605.498 1013.7 -603.338 1013.49C-600.178 1012.95 -595.304 1012.17 -592.413 1011.61C-588.838 1010.72 -585.173 1009.84 -581.669 1008.89L-574.65 1006.58C-515.953 985.76 -472.953 936.591 -438.8 886.403C-423.189 862.886 -409.283 838.169 -396.604 812.953C-378.704 776.591 -363.149 739.111 -349.523 700.953C-272.432 479.451 -122.537 279.869 77.9241 156.102C158.094 108.554 261.188 63.7988 355.508 84.5016C393.584 93.1017 427.733 117.342 446.608 151.722C475.41 203.497 475.625 265.698 468.857 323.162C457.222 418.774 425.044 520.579 344.094 579.701C296.624 614.947 239.237 632.884 182.337 646.293C87.4915 668.588 -13.1041 681.304 -97.0915 734.46C-147.286 765.746 -188.041 810.942 -216.376 862.689C-251.83 925.424 -274.875 998.164 -265.685 1070.7C-249.651 1196.8 -142.297 1289.49 -31.8913 1338.84Z" fill="#FAECC8"/>
<path d="M-31.8913 1338.84C-133.284 1286.92 -231.279 1194.99 -252.195 1078.79C-259.272 1040.25 -257.283 1000.25 -248.191 962.181C-224.112 867.933 -167.581 778.745 -83.9857 726.92C-0.0019483 674.127 100.235 661.382 195.021 639.102C252.196 625.608 309.83 607.421 357.49 571.897C438.741 512.217 471.158 409.772 482.954 313.618C486.579 284.344 487.986 254.673 485.232 225.262C469.212 58.2453 328.497 40.9543 194.513 91.9051C-48.4104 187.564 -243.858 427.783 -331.999 669.24C-353.805 731.651 -378.631 793.49 -412.649 850.347C-432.608 883.933 -455.929 916.1 -483.877 943.494C-516.766 975.486 -559.159 1002.19 -606.203 1003.05C-628.167 1003.69 -650.134 997.877 -669.449 987.538C-675.291 984.269 -680.987 980.638 -686.438 976.739L-687.87 975.597L-693.631 971.068C-699.149 966.493 -704.622 961.124 -709.593 955.963C-783.466 873.874 -788.172 744.482 -760.261 642.291C-755.123 623.354 -748.869 604.716 -741.659 586.457C-748.906 604.702 -755.217 623.311 -760.407 642.255C-787.421 741.441 -784.646 861.201 -719.88 945.416C-717.573 948.66 -712.973 953.525 -710.342 956.643C-708.463 958.524 -704.451 962.729 -702.582 964.522C-699.892 966.986 -697.068 969.541 -694.33 971.884L-688.545 976.464C-670.968 989.823 -650.212 999.475 -628.292 1002.81C-621.344 1003.99 -613.259 1004.55 -606.202 1004.33C-602.199 1004.49 -595.549 1003.64 -591.46 1003.31C-588.342 1002.78 -583.391 1001.99 -580.534 1001.43L-576.952 1000.53C-574.562 999.913 -572.154 999.391 -569.79 998.706L-562.771 996.4C-561.609 996.002 -560.423 995.655 -559.275 995.214C-494.118 970.191 -446.305 909.407 -411.26 851.183C-401.134 834.386 -391.835 816.947 -383.155 799.364C-365.864 764.066 -350.907 727.656 -337.684 690.663C-286.55 542.276 -202.15 405.582 -92.8349 293.014C-3.99507 202.687 101.269 123.347 223.129 84.7426C350.522 45.3769 468.813 75.358 482.841 225.463C485.575 254.699 484.199 284.17 480.603 313.308C468.906 408.919 436.89 510.741 356.147 570.124C308.753 605.493 251.397 623.551 194.507 637.048C99.6669 659.476 -0.854515 672.458 -84.9004 725.488C-168.756 777.68 -225.402 867.192 -249.405 961.884C-258.426 1000.1 -260.316 1040.28 -253.119 1078.93C-231.832 1195.28 -133.593 1287.09 -31.8913 1338.84Z" fill="#FAECC8"/>
<path d="M-31.8913 1338.84C-99.4769 1299.64 -159.759 1245.38 -200.991 1178.67C-267.875 1070.87 -256.547 950.89 -192.736 844.615C-163.398 793.748 -122.341 749.175 -72.2461 718.274C28.9399 654.502 151.914 649.524 263.598 614.427C279.982 609.212 296.181 603.149 311.849 596.054C412.507 551.655 462.39 466.807 484.738 362.336C492.756 324.114 498.642 284.448 498.474 245.318C498.801 162.988 468.029 83.0175 380.626 62.0354C322.572 48.2656 261.893 61.4553 206.868 81.5472C23.1324 153.793 -123.204 301.716 -226.857 466.813C-260.399 521.192 -289.096 578.572 -312.252 638.118C-317.675 651.816 -322.52 665.768 -327.528 679.605C-343.989 725.797 -363.02 771.154 -386.174 814.405C-427.18 890.4 -496.913 987.069 -590.562 992.872L-597.881 992.975C-599.106 992.972 -600.321 993.057 -601.542 992.929L-608.848 992.436C-609.457 992.381 -610.071 992.371 -610.675 992.288L-612.48 992.014L-616.099 991.475C-620.46 990.888 -626.045 989.596 -630.414 988.458C-646.304 983.979 -661.169 976.374 -674.516 966.706C-678.239 963.738 -683.774 959.565 -687.212 956.201C-690.87 953.172 -694.387 949.187 -697.687 945.95C-771.659 863.845 -776.355 734.461 -748.443 632.208C-743.307 613.253 -737.053 594.614 -729.842 576.356C-744.348 612.678 -755.081 651.067 -760.528 689.823C-773.221 780.505 -758.499 887.921 -690.667 954.516C-673.716 970.6 -653.326 983.249 -630.752 989.642C-627.179 990.559 -623.57 991.409 -619.96 992.18C-618.131 992.505 -614.475 992.977 -612.648 993.285L-610.825 993.557C-610.212 993.647 -609.598 993.657 -608.989 993.712C-605.804 993.937 -600.865 994.379 -597.912 994.274L-594.216 994.237C-589.306 994.336 -584.337 993.621 -579.476 993.202C-576.291 992.645 -571.448 991.909 -568.552 991.297C-564.978 990.411 -561.294 989.55 -557.81 988.559C-554.73 987.535 -550.085 986.067 -547.287 985.057C-545.303 984.229 -539.122 981.734 -537.02 980.856C-478.428 953.632 -436.534 900.932 -403.097 847.203C-391.571 828.33 -380.956 808.86 -371.215 789.027C-353.925 753.711 -338.978 717.294 -325.757 680.283C-261.671 494.942 -146.037 327.153 6.09749 203.183C102.92 123.674 281.897 19.6361 407.579 73.9308C502.081 116.855 504.019 236.984 489.252 325.79C485.028 352.177 479.199 379.038 471.389 404.545C443.718 494.461 391.916 560.188 304.231 597.131C236.261 626.042 162.666 636.42 91.2912 653.708C15.1454 671.423 -61.5056 698.966 -120.311 752.326C-149.604 778.408 -174.314 810.058 -193.971 843.965C-257.871 950.712 -268.863 1071.08 -201.536 1179.03C-160.067 1245.73 -99.6618 1299.81 -31.9205 1338.89L-31.8913 1338.84Z" fill="#FAECC8"/>
</g>
</svg>
