<svg width="1280" height="1603" viewBox="0 0 1280 1603" fill="none" xmlns="http://www.w3.org/2000/svg">
<g clip-path="url(#clip0_397_2415)">
<path d="M-472.166 653.663C-395.598 649.127 -313.186 672.2 -249.1 717.213C-232.412 728.836 -216.767 742.033 -202.786 756.117C-190.922 767.73 -180.166 780.481 -170.11 793.178C-145.945 824.004 -120.888 855.264 -94.7846 884.938C-63.9152 919.305 -30.2521 954.845 14.269 975.73C29.9027 983.39 46.4862 988.733 62.6435 994.891C72.0915 998.937 80.9495 1004 89.5905 1009.42C157.364 1053.01 232.438 1132.8 317.523 1097.11C395.876 1068.48 503.665 1084.25 583.921 1122.13C596.106 1128.31 606.878 1136.77 617.594 1145.05C628.277 1153.42 638.75 1162.02 649.269 1170.6C691.422 1204.74 734.312 1239.44 784.706 1263.41C825.129 1282.44 864.637 1289.95 904.215 1274.48C963.956 1251.53 1013.04 1213.94 1070.1 1187.31C1134.98 1155.67 1210.84 1135.72 1288.39 1168.91C1303.97 1175.48 1320.4 1182.66 1335.53 1190.15C1366.37 1205.1 1396.16 1222.81 1420.23 1246.01C1429.99 1255.25 1439.29 1265.03 1450.06 1273.5C1466.23 1286.36 1485.34 1295.76 1504.75 1303.61C1508 1304.88 1511.21 1306.2 1514.48 1307.41L1524.28 1311C1559.47 1323.84 1593.04 1318.77 1620.16 1299.8C1650.82 1278.96 1671.43 1249.37 1697.86 1225.02C1715.02 1209.2 1738.06 1193.82 1766.33 1199.5L1766.38 1199.09C1737.83 1193.03 1714.24 1208.3 1696.71 1224.05C1669.8 1248.07 1649.02 1277.27 1618.31 1297.79C1586.9 1318.71 1554.61 1320.54 1515.62 1304.44C1493.32 1295.88 1471.05 1285.74 1452.61 1270.97C1436.74 1258.24 1423.9 1242.85 1407.99 1230.07C1376.15 1204.08 1337.83 1185.72 1299.65 1169.17C1188.46 1116.68 1085.97 1169.43 1001.44 1219.14C962.858 1240.51 911.924 1275.93 864.631 1279.16C788.256 1281.33 707.532 1213.67 650.933 1169C640.354 1160.49 629.81 1151.94 619.026 1143.6C608.193 1135.35 597.331 1126.9 584.75 1120.61C511.313 1086.63 420.17 1071.5 344.7 1087.62C336.792 1089.29 328.741 1091.64 321.18 1094.08C317.208 1095.51 311.632 1097.52 307.592 1098.85C283.438 1107.39 254.735 1105.66 229.053 1095.66C176.797 1075.7 137.239 1036.57 91.5147 1006.89C79.8777 999.429 67.4214 992.523 54.1454 988.056C31.3798 980.221 9.07427 970.773 -10.7931 957.554C-30.6374 944.462 -48.0977 928.406 -64.4081 911.996C-87.374 888.609 -109.589 862.64 -130.075 837.683C-146.687 817.648 -163.004 796.205 -179.672 776.179C-196.85 755.92 -216.943 737.409 -238.987 721.123C-283.035 688.492 -336.493 666.481 -390.934 657.398C-411.32 653.975 -431.877 652.141 -452.172 652.292C-458.937 652.358 -465.673 652.582 -472.328 653.249L-472.222 653.672L-472.176 653.689L-472.166 653.663Z" fill="#FFE9E0"/>
<path d="M-469.381 636.118C-392.812 631.582 -310.401 654.656 -246.315 699.669C-229.627 711.291 -213.982 724.489 -200.001 738.572C-188.137 750.185 -177.381 762.936 -167.325 775.633C-143.16 806.459 -118.103 837.72 -91.9995 867.393C-61.13 901.761 -27.4669 937.3 17.0542 958.185C32.6878 965.845 49.2714 971.188 65.4287 977.346C74.8766 981.392 83.7346 986.458 92.3757 991.871C160.149 1035.47 235.223 1115.26 320.308 1079.57C398.661 1050.94 506.451 1066.71 586.706 1104.59C598.892 1110.76 609.663 1119.22 620.379 1127.5C631.062 1135.87 641.535 1144.48 652.054 1153.05C694.207 1187.19 737.097 1221.9 787.491 1245.87C827.914 1264.89 867.422 1272.4 907 1256.94C966.741 1233.98 1015.83 1196.4 1072.89 1169.76C1137.77 1138.13 1213.63 1118.18 1291.17 1151.36C1306.75 1157.94 1323.18 1165.11 1338.32 1172.6C1369.16 1187.56 1398.94 1205.26 1423.01 1228.47C1432.78 1237.71 1442.08 1247.48 1452.84 1255.96C1469.02 1268.82 1488.13 1278.22 1507.53 1286.07C1510.78 1287.34 1514 1288.65 1517.27 1289.87L1527.06 1293.45C1562.25 1306.29 1595.82 1301.22 1622.94 1282.26C1653.6 1261.41 1674.21 1231.83 1700.65 1207.47C1717.8 1191.65 1740.85 1176.28 1769.12 1181.95L1769.17 1181.54C1740.62 1175.48 1717.03 1190.76 1699.5 1206.5C1672.59 1230.53 1651.81 1259.73 1621.09 1280.24C1589.68 1301.17 1557.39 1302.99 1518.41 1286.9C1496.11 1278.34 1473.83 1268.19 1455.4 1253.43C1439.53 1240.69 1426.68 1225.3 1410.78 1212.53C1378.93 1186.53 1340.62 1168.17 1302.43 1151.62C1191.24 1099.14 1088.75 1151.88 1004.22 1201.6C965.643 1222.97 914.71 1258.39 867.416 1261.61C791.041 1263.79 710.317 1196.12 653.718 1151.46C643.139 1142.95 632.596 1134.39 621.812 1126.06C610.979 1117.81 600.116 1109.36 587.535 1103.07C514.099 1069.08 422.955 1053.96 347.485 1070.07C339.577 1071.75 331.526 1074.09 323.965 1076.53C319.993 1077.96 314.418 1079.98 310.377 1081.3C286.223 1089.85 257.521 1088.11 231.838 1078.11C179.582 1058.16 140.024 1019.02 94.2999 989.341C82.6629 981.884 70.2065 974.978 56.9305 970.511C34.1649 962.677 11.8594 953.228 -8.00797 940.009C-27.8523 926.917 -45.3125 910.861 -61.623 894.451C-84.5888 871.065 -106.804 845.095 -127.29 820.138C-143.902 800.104 -160.219 778.66 -176.887 758.635C-194.065 738.375 -214.158 719.864 -236.202 703.578C-280.25 670.948 -333.708 648.936 -388.148 639.853C-408.535 636.43 -429.092 634.596 -449.387 634.748C-456.152 634.813 -462.888 635.037 -469.543 635.704L-469.437 636.127L-469.391 636.144L-469.381 636.118Z" fill="#FFE9E0"/>
<path d="M-466.596 621.577C-390.027 617.041 -307.616 640.115 -243.529 685.128C-226.842 696.751 -211.197 709.948 -197.216 724.031C-185.352 735.645 -174.596 748.395 -164.54 761.092C-140.374 791.918 -115.318 823.179 -89.2143 852.852C-58.3449 887.22 -24.6818 922.759 19.8393 943.645C35.473 951.305 52.0565 956.648 68.2138 962.806C77.6618 966.852 86.5198 971.917 95.1608 977.33C162.934 1020.93 238.008 1100.72 323.093 1065.03C401.446 1036.4 509.236 1052.17 589.491 1090.05C601.677 1096.22 612.448 1104.68 623.164 1112.96C633.847 1121.33 644.32 1129.94 654.839 1138.51C696.993 1172.65 739.882 1207.36 790.277 1231.33C830.699 1250.35 870.207 1257.86 909.785 1242.4C969.526 1219.44 1018.61 1181.86 1075.67 1155.22C1140.55 1123.59 1216.42 1103.64 1293.96 1136.82C1309.54 1143.4 1325.97 1150.57 1341.1 1158.06C1371.95 1173.02 1401.73 1190.72 1425.8 1213.93C1435.56 1223.17 1444.86 1232.94 1455.63 1241.42C1471.8 1254.28 1490.91 1263.68 1510.32 1271.53C1513.57 1272.8 1516.78 1274.11 1520.05 1275.33L1529.85 1278.91C1565.04 1291.75 1598.61 1286.68 1625.73 1267.72C1656.39 1246.87 1677 1217.28 1703.43 1192.93C1720.59 1177.11 1743.63 1161.74 1771.9 1167.41L1771.95 1167C1743.4 1160.94 1719.81 1176.22 1702.28 1191.96C1675.37 1215.99 1654.59 1245.19 1623.88 1265.7C1592.47 1286.63 1560.18 1288.45 1521.19 1272.36C1498.89 1263.8 1476.62 1253.65 1458.18 1238.89C1442.31 1226.15 1429.47 1210.76 1413.56 1197.98C1381.72 1171.99 1343.4 1153.63 1305.22 1137.08C1194.03 1084.6 1091.54 1137.34 1007.01 1187.06C968.428 1208.43 917.495 1243.85 870.201 1247.07C793.826 1249.25 713.102 1181.58 656.503 1136.92C645.925 1128.41 635.381 1119.85 624.597 1111.52C613.764 1103.27 602.901 1094.82 590.32 1088.53C516.884 1054.54 425.74 1039.42 350.271 1055.53C342.363 1057.21 334.311 1059.55 326.751 1061.99C322.779 1063.42 317.203 1065.43 313.162 1066.76C289.008 1075.31 260.306 1073.57 234.623 1063.57C182.367 1043.62 142.809 1004.48 97.0851 974.8C85.4481 967.343 72.9917 960.437 59.7157 955.971C36.9501 948.136 14.6446 938.687 -5.22281 925.469C-25.0671 912.377 -42.5274 896.32 -58.8378 879.91C-81.8036 856.524 -104.019 830.554 -124.505 805.597C-141.117 785.563 -157.433 764.119 -174.102 744.094C-191.28 723.834 -211.372 705.323 -233.416 689.038C-277.465 656.407 -330.923 634.396 -385.363 625.312C-405.75 621.889 -426.307 620.055 -446.602 620.207C-453.367 620.272 -460.103 620.496 -466.758 621.163L-466.652 621.586L-466.605 621.603L-466.596 621.577Z" fill="#FFE9E0"/>
<path d="M-463.811 605.528C-387.242 600.992 -304.831 624.066 -240.744 669.079C-224.057 680.701 -208.412 693.899 -194.43 707.982C-182.567 719.595 -171.811 732.346 -161.754 745.043C-137.589 775.869 -112.533 807.13 -86.4291 836.803C-55.5597 871.17 -21.8966 906.71 22.6245 927.595C38.2581 935.255 54.8417 940.598 70.999 946.756C80.447 950.802 89.3049 955.868 97.946 961.281C165.719 1004.88 240.794 1084.67 325.879 1048.98C404.231 1020.35 512.021 1036.12 592.276 1074C604.462 1080.17 615.233 1088.63 625.95 1096.91C636.632 1105.28 647.106 1113.89 657.629 1122.45C699.783 1156.59 742.672 1191.3 793.067 1215.27C833.489 1234.29 872.997 1241.8 912.575 1226.34C972.316 1203.38 1021.4 1165.8 1078.46 1139.16C1143.34 1107.53 1219.21 1087.57 1296.75 1120.76C1312.33 1127.34 1328.76 1134.51 1343.89 1142C1374.74 1156.95 1404.52 1174.66 1428.59 1197.87C1438.35 1207.1 1447.65 1216.88 1458.42 1225.35C1474.59 1238.22 1493.7 1247.61 1513.11 1255.47C1516.36 1256.73 1519.57 1258.05 1522.84 1259.26L1532.64 1262.85C1567.83 1275.69 1601.4 1270.62 1628.52 1251.66C1659.18 1230.81 1679.79 1201.22 1706.22 1176.87C1723.38 1161.05 1746.42 1145.67 1774.69 1151.35L1774.74 1150.94C1746.19 1144.88 1722.6 1160.15 1705.07 1175.9C1678.16 1199.92 1657.38 1229.12 1626.67 1249.64C1595.26 1270.56 1562.97 1272.39 1523.98 1256.3C1501.68 1247.73 1479.41 1237.59 1460.97 1222.82C1445.1 1210.09 1432.26 1194.7 1416.35 1181.92C1384.51 1155.93 1346.19 1137.57 1308.01 1121.02C1196.82 1068.53 1094.33 1121.28 1009.8 1171C971.218 1192.36 920.29 1227.77 872.991 1231.01C796.621 1233.17 715.892 1165.52 659.293 1120.86C648.715 1112.35 638.171 1103.79 627.387 1095.46C616.554 1087.21 605.691 1078.75 593.11 1072.47C519.674 1038.48 428.53 1023.35 353.061 1039.47C345.153 1041.14 337.101 1043.49 329.54 1045.93C325.569 1047.36 319.993 1049.37 315.952 1050.7C291.798 1059.24 263.096 1057.51 237.413 1047.51C185.157 1027.56 145.599 988.421 99.875 958.738C88.238 951.281 75.7817 944.375 62.5057 939.908C39.7401 932.074 17.4346 922.625 -2.43283 909.406C-22.2771 896.314 -39.7374 880.258 -56.0478 863.848C-79.0137 840.462 -101.229 814.492 -121.715 789.535C-138.327 769.501 -154.643 748.057 -171.312 728.031C-188.49 707.772 -208.582 689.261 -230.626 672.975C-274.675 640.345 -328.133 618.333 -382.573 609.25C-402.96 605.827 -423.517 603.993 -443.812 604.145C-450.577 604.21 -457.313 604.434 -463.968 605.101L-463.862 605.524L-463.815 605.541L-463.811 605.528Z" fill="#FFE9E0"/>
<path d="M-461.021 589.48C-384.452 584.943 -302.041 608.017 -237.954 653.03C-221.267 664.653 -205.622 677.85 -191.64 691.933C-179.777 703.547 -169.021 716.297 -158.964 728.994C-134.799 759.82 -109.743 791.081 -83.6391 820.754C-52.7697 855.122 -19.1066 890.661 25.4145 911.547C41.0482 919.207 57.6317 924.55 73.789 930.708C83.237 934.754 92.095 939.819 100.736 945.232C168.509 988.828 243.584 1068.62 328.669 1032.93C407.021 1004.3 514.811 1020.07 595.066 1057.95C607.252 1064.12 618.023 1072.58 628.74 1080.86C639.422 1089.24 649.896 1097.84 660.419 1106.4C702.573 1140.54 745.462 1175.25 795.857 1199.22C836.279 1218.24 875.787 1225.75 915.365 1210.29C975.106 1187.33 1024.19 1149.75 1081.25 1123.11C1146.13 1091.48 1222 1071.52 1299.54 1104.71C1315.12 1111.29 1331.55 1118.46 1346.68 1125.95C1377.53 1140.91 1407.31 1158.61 1431.38 1181.82C1441.14 1191.05 1450.44 1200.83 1461.21 1209.31C1477.38 1222.17 1496.49 1231.56 1515.9 1239.42C1519.15 1240.69 1522.36 1242 1525.63 1243.22L1535.43 1246.8C1570.62 1259.64 1604.19 1254.57 1631.31 1235.61C1661.97 1214.76 1682.58 1185.17 1709.01 1160.82C1726.17 1145 1749.21 1129.63 1777.48 1135.3L1777.53 1134.89C1748.98 1128.83 1725.39 1144.11 1707.86 1159.85C1680.95 1183.88 1660.17 1213.08 1629.46 1233.59C1598.05 1254.52 1565.76 1256.34 1526.77 1240.25C1504.47 1231.68 1482.2 1221.54 1463.76 1206.77C1447.89 1194.04 1435.05 1178.65 1419.14 1165.87C1387.3 1139.88 1348.98 1121.52 1310.8 1104.97C1199.61 1052.48 1097.12 1105.23 1012.59 1154.95C974.008 1176.32 923.08 1211.73 875.781 1214.96C799.411 1217.12 718.682 1149.47 662.083 1104.81C651.505 1096.3 640.961 1087.74 630.177 1079.41C619.344 1071.16 608.481 1062.71 595.9 1056.42C522.464 1022.43 431.32 1007.31 355.851 1023.42C347.943 1025.1 339.891 1027.44 332.331 1029.88C328.359 1031.31 322.783 1033.32 318.742 1034.65C294.588 1043.2 265.886 1041.46 240.203 1031.46C187.947 1011.51 148.389 972.373 102.665 942.689C91.0281 935.232 78.5717 928.326 65.2957 923.86C42.5301 916.025 20.2246 906.577 0.357208 893.358C-19.4871 880.266 -36.9474 864.21 -53.2578 847.799C-76.2236 824.413 -98.4391 798.443 -118.925 773.486C-135.537 753.452 -151.853 732.008 -168.522 711.983C-185.7 691.724 -205.792 673.213 -227.836 656.927C-271.885 624.296 -325.343 602.285 -379.783 593.202C-400.17 589.778 -420.727 587.944 -441.022 588.096C-447.787 588.162 -454.523 588.385 -461.178 589.052L-461.072 589.475L-461.025 589.493L-461.021 589.48Z" fill="#FFE9E0"/>
<path d="M-458.231 573.431C-381.662 568.895 -299.251 591.969 -235.164 636.982C-218.477 648.605 -202.832 661.802 -188.85 675.885C-176.987 687.499 -166.231 700.249 -156.174 712.946C-132.009 743.772 -106.953 775.033 -80.8491 804.706C-49.9796 839.074 -16.3165 874.613 28.2045 895.499C43.8382 903.159 60.4217 908.502 76.5791 914.66C86.027 918.706 94.885 923.771 103.526 929.184C171.299 972.78 246.374 1052.57 331.459 1016.88C409.811 988.253 517.601 1004.02 597.856 1041.9C610.042 1048.07 620.813 1056.54 631.53 1064.82C642.212 1073.19 652.686 1081.79 663.205 1090.37C705.358 1124.5 748.247 1159.21 798.642 1183.18C839.064 1202.2 878.573 1209.72 918.15 1194.25C977.891 1171.3 1026.98 1133.71 1084.04 1107.08C1148.92 1075.44 1224.78 1055.49 1302.32 1088.67C1317.9 1095.25 1334.33 1102.43 1349.47 1109.92C1380.31 1124.87 1410.09 1142.58 1434.16 1165.78C1443.93 1175.02 1453.23 1184.79 1463.99 1193.27C1480.17 1206.13 1499.28 1215.53 1518.68 1223.38C1521.93 1224.65 1525.15 1225.97 1528.42 1227.18L1538.21 1230.77C1573.4 1243.61 1606.97 1238.54 1634.09 1219.57C1664.75 1198.73 1685.36 1169.14 1711.8 1144.79C1728.95 1128.96 1752 1113.59 1780.27 1119.27L1780.32 1118.86C1751.77 1112.8 1728.18 1128.07 1710.65 1143.81C1683.74 1167.84 1662.96 1197.04 1632.24 1217.56C1600.83 1238.48 1568.54 1240.31 1529.56 1224.21C1507.26 1215.65 1484.98 1205.5 1466.55 1190.74C1450.68 1178 1437.83 1162.62 1421.93 1149.84C1390.08 1123.84 1351.77 1105.49 1313.58 1088.94C1202.39 1036.45 1099.9 1089.19 1015.37 1138.91C976.794 1160.28 925.865 1195.69 878.566 1198.93C802.197 1201.09 721.467 1133.43 664.868 1088.77C654.29 1080.26 643.746 1071.71 632.962 1063.37C622.129 1055.12 611.266 1046.67 598.685 1040.38C525.249 1006.39 434.105 991.27 358.636 1007.38C350.728 1009.06 342.676 1011.41 335.116 1013.85C331.144 1015.28 325.568 1017.29 321.528 1018.62C297.374 1027.16 268.671 1025.42 242.989 1015.43C190.732 995.472 151.174 956.338 105.45 926.654C93.8133 919.197 81.3569 912.291 68.0809 907.825C45.3153 899.99 23.0098 890.541 3.14242 877.323C-16.7019 864.231 -34.1621 848.174 -50.4726 831.764C-73.4384 808.378 -95.6539 782.408 -116.14 757.451C-132.752 737.417 -149.068 715.973 -165.736 695.948C-182.914 675.688 -203.007 657.177 -225.051 640.892C-269.1 608.261 -322.557 586.25 -376.998 577.166C-397.385 573.743 -417.942 571.909 -438.237 572.061C-445.002 572.126 -451.737 572.35 -458.392 573.017L-458.287 573.44L-458.24 573.457L-458.231 573.431Z" fill="#FFE9E0"/>
<path d="M-455.445 557.395C-378.877 552.859 -296.466 575.933 -232.379 620.946C-215.692 632.568 -200.047 645.766 -186.065 659.849C-174.202 671.462 -163.446 684.213 -153.389 696.91C-129.224 727.736 -104.167 758.997 -78.0639 788.67C-47.1945 823.038 -13.5314 858.577 30.9897 879.462C46.6234 887.122 63.2069 892.465 79.3642 898.624C88.8122 902.669 97.6702 907.735 106.311 913.148C174.084 956.744 249.159 1036.53 334.244 1000.85C412.596 972.217 520.386 987.985 600.641 1025.87C612.827 1032.04 623.598 1040.5 634.315 1048.78C644.997 1057.15 655.471 1065.75 665.99 1074.33C708.143 1108.47 751.032 1143.18 801.427 1167.15C841.85 1186.17 881.358 1193.68 920.935 1178.22C980.676 1155.26 1029.76 1117.68 1086.82 1091.04C1151.7 1059.41 1227.57 1039.45 1305.11 1072.64C1320.69 1079.22 1337.12 1086.39 1352.25 1093.88C1383.1 1108.83 1412.88 1126.54 1436.95 1149.75C1446.71 1158.98 1456.01 1168.76 1466.78 1177.23C1482.95 1190.1 1502.06 1199.49 1521.47 1207.35C1524.72 1208.62 1527.93 1209.93 1531.2 1211.15L1541 1214.73C1576.19 1227.57 1609.76 1222.5 1636.88 1203.54C1667.54 1182.69 1688.15 1153.1 1714.58 1128.75C1731.74 1112.93 1754.78 1097.55 1783.05 1103.23L1783.1 1102.82C1754.55 1096.76 1730.96 1112.04 1713.43 1127.78C1686.52 1151.81 1665.74 1181 1635.03 1201.52C1603.62 1222.44 1571.33 1224.27 1532.34 1208.18C1510.04 1199.61 1487.77 1189.47 1469.33 1174.7C1453.46 1161.97 1440.62 1146.58 1424.71 1133.8C1392.87 1107.81 1354.55 1089.45 1316.37 1072.9C1205.18 1020.41 1102.69 1073.16 1018.16 1122.88C979.579 1144.24 928.645 1179.67 881.351 1182.89C804.977 1185.07 724.253 1117.4 667.653 1072.74C657.075 1064.23 646.531 1055.67 635.747 1047.34C624.914 1039.09 614.051 1030.63 601.471 1024.35C528.034 990.358 436.89 975.234 361.421 991.348C353.513 993.025 345.461 995.371 337.901 997.811C333.929 999.24 328.353 1001.25 324.313 1002.58C300.159 1011.12 271.456 1009.39 245.774 999.392C193.517 979.436 153.959 940.301 108.235 910.618C96.5985 903.161 84.1421 896.255 70.8661 891.788C48.1005 883.954 25.795 874.505 5.92758 861.287C-13.9167 848.194 -31.377 832.138 -47.6874 815.728C-70.6532 792.342 -92.8687 766.372 -113.354 741.415C-129.967 721.381 -146.283 699.937 -162.951 679.912C-180.129 659.652 -200.222 641.141 -222.266 624.856C-266.314 592.225 -319.772 570.214 -374.213 561.13C-394.6 557.707 -415.157 555.873 -435.452 556.025C-442.216 556.09 -448.952 556.314 -455.607 556.981L-455.501 557.404L-455.455 557.421L-455.445 557.395Z" fill="#FFE9E0"/>
<path d="M-452.66 541.347C-376.092 536.811 -293.68 559.885 -229.594 604.898C-212.907 616.52 -197.261 629.717 -183.28 643.801C-171.416 655.414 -160.66 668.165 -150.604 680.862C-126.439 711.688 -101.382 742.948 -75.2787 772.622C-44.4093 806.989 -10.7462 842.529 33.7749 863.414C49.4085 871.074 65.9921 876.417 82.1494 882.575C91.5974 886.621 100.455 891.687 109.096 897.1C176.87 940.696 251.944 1020.49 337.029 984.799C415.382 956.168 523.171 971.937 603.426 1009.82C615.612 1015.99 626.383 1024.45 637.1 1032.73C647.783 1041.1 658.256 1049.71 668.775 1058.28C710.928 1092.42 753.818 1127.13 804.212 1151.1C844.635 1170.12 884.143 1177.63 923.72 1162.17C983.461 1139.21 1032.55 1101.63 1089.61 1074.99C1154.49 1043.36 1230.35 1023.41 1307.89 1056.59C1323.47 1063.17 1339.9 1070.34 1355.04 1077.83C1385.88 1092.79 1415.66 1110.49 1439.73 1133.7C1449.5 1142.94 1458.8 1152.71 1469.56 1161.19C1485.74 1174.05 1504.85 1183.45 1524.25 1191.3C1527.5 1192.57 1530.72 1193.88 1533.99 1195.1L1543.78 1198.68C1578.97 1211.52 1612.54 1206.45 1639.66 1187.49C1670.32 1166.64 1690.93 1137.05 1717.37 1112.7C1734.52 1096.88 1757.57 1081.51 1785.84 1087.18L1785.89 1086.77C1757.34 1080.71 1733.75 1095.99 1716.22 1111.73C1689.31 1135.76 1668.53 1164.96 1637.81 1185.47C1606.4 1206.4 1574.11 1208.22 1535.13 1192.13C1512.83 1183.57 1490.55 1173.42 1472.12 1158.65C1456.25 1145.92 1443.4 1130.53 1427.5 1117.75C1395.65 1091.76 1357.34 1073.4 1319.15 1056.85C1207.96 1004.36 1105.47 1057.11 1020.94 1106.83C982.364 1128.2 931.415 1163.61 884.136 1166.84C807.762 1169.02 727.038 1101.35 670.439 1056.69C659.86 1048.18 649.316 1039.62 638.532 1031.29C627.699 1023.04 616.836 1014.59 604.256 1008.3C530.819 974.31 439.676 959.186 364.206 975.3C356.298 976.976 348.246 979.322 340.686 981.762C336.714 983.191 331.138 985.204 327.098 986.534C302.944 995.076 274.241 993.34 248.559 983.343C196.302 963.387 156.745 924.253 111.021 894.57C99.3836 887.113 86.9272 880.207 73.6512 875.74C50.8857 867.906 28.5801 858.457 8.71274 845.238C-11.1316 832.146 -28.5918 816.09 -44.9023 799.68C-67.8681 776.293 -90.0836 750.324 -110.569 725.367C-127.182 705.333 -143.498 683.889 -160.166 663.863C-177.344 643.604 -197.437 625.093 -219.481 608.807C-263.529 576.176 -316.987 554.165 -371.428 545.082C-391.815 541.659 -412.371 539.825 -432.667 539.976C-439.431 540.042 -446.167 540.266 -452.822 540.933L-452.716 541.356L-452.67 541.373L-452.66 541.347Z" fill="#FFE9E0"/>
<path d="M-449.875 525.298C-373.306 520.761 -290.895 543.835 -226.809 588.848C-210.121 600.471 -194.476 613.668 -180.495 627.751C-168.631 639.365 -157.875 652.115 -147.819 664.812C-123.654 695.638 -98.5972 726.899 -72.4936 756.572C-41.6242 790.94 -7.96106 826.48 36.56 847.365C52.1937 855.025 68.7772 860.368 84.9345 866.526C94.3825 870.572 103.24 875.637 111.882 881.05C179.655 924.646 254.729 1004.44 339.814 968.749C418.167 940.119 525.956 955.887 606.212 993.769C618.397 999.94 629.169 1008.4 639.885 1016.68C650.568 1025.05 661.041 1033.66 671.565 1042.22C713.718 1076.36 756.608 1111.07 807.002 1135.04C847.425 1154.06 886.933 1161.57 926.51 1146.1C986.251 1123.15 1035.34 1085.57 1092.4 1058.93C1157.28 1027.29 1233.14 1007.34 1310.68 1040.53C1326.26 1047.11 1342.69 1054.28 1357.83 1061.77C1388.67 1076.72 1418.45 1094.43 1442.52 1117.63C1452.29 1126.87 1461.59 1136.65 1472.35 1145.12C1488.53 1157.99 1507.64 1167.38 1527.04 1175.24C1530.29 1176.5 1533.51 1177.82 1536.78 1179.03L1546.57 1182.62C1581.76 1195.46 1615.33 1190.39 1642.45 1171.43C1673.11 1150.58 1693.72 1120.99 1720.16 1096.64C1737.31 1080.82 1760.36 1065.44 1788.63 1071.12L1788.68 1070.71C1760.13 1064.65 1736.54 1079.92 1719.01 1095.67C1692.1 1119.69 1671.32 1148.89 1640.6 1169.41C1609.19 1190.33 1576.9 1192.16 1537.92 1176.06C1515.62 1167.5 1493.34 1157.36 1474.91 1142.59C1459.04 1129.86 1446.19 1114.47 1430.29 1101.69C1398.44 1075.7 1360.13 1057.34 1321.94 1040.79C1210.75 988.302 1108.26 1041.05 1023.73 1090.77C985.154 1112.13 934.225 1147.54 886.926 1150.78C810.557 1152.94 729.828 1085.29 673.229 1040.62C662.65 1032.12 652.106 1023.56 641.322 1015.23C630.489 1006.98 619.626 998.523 607.046 992.235C533.609 958.247 442.466 943.124 366.996 959.238C359.088 960.914 351.036 963.26 343.476 965.7C339.504 967.129 333.928 969.142 329.888 970.471C305.734 979.014 277.031 977.278 251.349 967.281C199.092 947.325 159.535 908.191 113.811 878.507C102.174 871.05 89.7172 864.144 76.4412 859.678C53.6756 851.843 31.3701 842.395 11.5027 829.176C-8.34158 816.084 -25.8018 800.028 -42.1123 783.617C-65.0781 760.231 -87.2936 734.262 -107.779 709.304C-124.392 689.27 -140.708 667.826 -157.376 647.801C-174.554 627.542 -194.647 609.031 -216.691 592.745C-260.739 560.114 -314.197 538.103 -368.638 529.02C-389.025 525.596 -409.581 523.762 -429.877 523.914C-436.641 523.98 -443.377 524.203 -450.032 524.87L-449.926 525.293L-449.88 525.311L-449.875 525.298Z" fill="#FFE9E0"/>
<path d="M-447.085 509.249C-370.516 504.713 -288.105 527.787 -224.019 572.8C-207.331 584.422 -191.686 597.62 -177.705 611.703C-165.841 623.316 -155.085 636.067 -145.029 648.764C-120.864 679.59 -95.8071 710.851 -69.7036 740.524C-38.8341 774.892 -5.17102 810.431 39.3501 831.316C54.9837 838.976 71.5673 844.319 87.7246 850.478C97.1725 854.523 106.031 859.589 114.672 865.002C182.445 908.598 257.519 988.388 342.604 952.701C420.957 924.071 528.746 939.839 609.002 977.721C621.187 983.892 631.959 992.354 642.675 1000.63C653.358 1009.01 663.831 1017.61 674.355 1026.17C716.508 1060.31 759.398 1095.02 809.792 1118.99C850.215 1138.01 889.723 1145.52 929.3 1130.06C989.041 1107.1 1038.13 1069.52 1095.19 1042.88C1160.07 1011.25 1235.93 991.294 1313.47 1024.48C1329.05 1031.06 1345.48 1038.23 1360.62 1045.72C1391.46 1060.68 1421.24 1078.38 1445.31 1101.59C1455.08 1110.82 1464.38 1120.6 1475.14 1129.08C1491.32 1141.94 1510.43 1151.33 1529.83 1159.19C1533.08 1160.46 1536.3 1161.77 1539.57 1162.99L1549.36 1166.57C1584.55 1179.41 1618.12 1174.34 1645.24 1155.38C1675.9 1134.53 1696.51 1104.94 1722.95 1080.59C1740.1 1064.77 1763.15 1049.4 1791.42 1055.07L1791.47 1054.66C1762.92 1048.6 1739.33 1063.88 1721.8 1079.62C1694.89 1103.65 1674.11 1132.85 1643.39 1153.36C1611.98 1174.29 1579.69 1176.11 1540.71 1160.02C1518.41 1151.45 1496.13 1141.31 1477.7 1126.54C1461.83 1113.81 1448.98 1098.42 1433.08 1085.64C1401.23 1059.65 1362.92 1041.29 1324.73 1024.74C1213.54 972.254 1111.05 1025 1026.52 1074.72C987.944 1096.09 937.015 1131.5 889.716 1134.73C813.347 1136.89 732.618 1069.24 676.019 1024.58C665.44 1016.07 654.896 1007.51 644.112 999.177C633.279 990.928 622.416 982.475 609.836 976.187C536.399 942.199 445.256 927.075 369.786 943.19C361.878 944.866 353.826 947.212 346.266 949.652C342.294 951.081 336.718 953.093 332.678 954.423C308.524 962.966 279.821 961.229 254.139 951.233C201.882 931.277 162.325 892.143 116.601 862.459C104.964 855.002 92.5073 848.096 79.2313 843.629C56.4657 835.795 34.1601 826.346 14.2928 813.128C-5.55153 800.035 -23.0118 783.979 -39.3222 767.569C-62.2881 744.183 -84.5036 718.213 -104.989 693.256C-121.602 673.222 -137.918 651.778 -154.586 631.753C-171.764 611.493 -191.857 592.982 -213.901 576.697C-257.949 544.066 -311.407 522.055 -365.848 512.971C-386.235 509.548 -406.791 507.714 -427.087 507.866C-433.851 507.931 -440.587 508.155 -447.242 508.822L-447.136 509.245L-447.09 509.262L-447.085 509.249Z" fill="#FFE9E0"/>
<path d="M-444.295 493.201C-367.726 488.665 -285.315 511.738 -221.229 556.751C-204.541 568.374 -188.896 581.571 -174.915 595.654C-163.051 607.268 -152.295 620.018 -142.239 632.715C-118.074 663.541 -93.0171 694.802 -66.9135 724.476C-36.0441 758.843 -2.38098 794.383 42.1401 815.268C57.7738 822.928 74.3573 828.271 90.5146 834.429C99.9626 838.475 108.821 843.541 117.462 848.953C185.235 892.549 260.309 972.339 345.394 936.652C423.747 908.022 531.536 923.79 611.792 961.672C623.977 967.843 634.749 976.306 645.465 984.586C656.148 992.957 666.621 1001.56 677.145 1010.12C719.298 1044.26 762.188 1078.97 812.582 1102.94C853.005 1121.96 892.513 1129.47 932.09 1114.01C991.832 1091.05 1040.92 1053.47 1097.98 1026.83C1162.86 995.198 1238.72 975.246 1316.26 1008.43C1331.84 1015.01 1348.27 1022.18 1363.41 1029.67C1394.25 1044.63 1424.03 1062.33 1448.1 1085.54C1457.87 1094.78 1467.17 1104.55 1477.93 1113.03C1494.11 1125.89 1513.22 1135.29 1532.62 1143.14C1535.87 1144.41 1539.09 1145.72 1542.36 1146.94L1552.15 1150.52C1587.34 1163.36 1620.91 1158.29 1648.03 1139.33C1678.69 1118.48 1699.3 1088.89 1725.74 1064.54C1742.89 1048.72 1765.94 1033.35 1794.21 1039.02L1794.26 1038.61C1765.71 1032.55 1742.12 1047.83 1724.59 1063.57C1697.68 1087.6 1676.9 1116.8 1646.18 1137.31C1614.77 1158.24 1582.48 1160.06 1543.5 1143.97C1521.2 1135.41 1498.92 1125.26 1480.49 1110.5C1464.62 1097.76 1451.77 1082.37 1435.87 1069.6C1404.02 1043.6 1365.71 1025.24 1327.52 1008.69C1216.33 956.206 1113.84 1008.95 1029.31 1058.67C990.734 1080.04 939.805 1115.45 892.506 1118.68C816.137 1120.85 735.408 1053.19 678.809 1008.53C668.23 1000.02 657.686 991.464 646.902 983.129C636.069 974.879 625.206 966.427 612.626 960.138C539.189 926.15 448.046 911.027 372.576 927.141C364.668 928.817 356.616 931.163 349.056 933.603C345.084 935.032 339.508 937.045 335.468 938.375C311.314 946.917 282.611 945.181 256.929 935.184C204.672 915.228 165.115 876.094 119.391 846.41C107.754 838.953 95.2973 832.047 82.0213 827.581C59.2557 819.746 36.9502 810.298 17.0828 797.079C-2.7615 783.987 -20.2218 767.931 -36.5322 751.52C-59.498 728.134 -81.7135 702.165 -102.199 677.208C-118.812 657.173 -135.128 635.73 -151.796 615.704C-168.974 595.445 -189.067 576.934 -211.111 560.648C-255.159 528.017 -308.617 506.006 -363.058 496.923C-383.445 493.499 -404.001 491.665 -424.297 491.817C-431.061 491.883 -437.797 492.107 -444.452 492.773L-444.346 493.196L-444.3 493.214L-444.295 493.201Z" fill="#FFE9E0"/>
<path d="M-441.505 477.166C-364.936 472.629 -282.525 495.703 -218.439 540.716C-201.751 552.339 -186.106 565.536 -172.125 579.619C-160.261 591.233 -149.505 603.983 -139.449 616.68C-115.284 647.506 -90.227 678.767 -64.1235 708.44C-33.2541 742.808 0.409055 778.348 44.9301 799.233C60.5638 806.893 77.1473 812.236 93.3046 818.394C102.753 822.44 111.611 827.505 120.252 832.918C188.025 876.514 263.099 956.304 348.184 920.617C426.537 891.987 534.327 907.755 614.582 945.637C626.767 951.808 637.539 960.271 648.255 968.551C658.938 976.922 669.411 985.524 679.93 994.1C722.083 1028.24 764.973 1062.95 815.367 1086.92C855.79 1105.94 895.298 1113.45 934.876 1097.99C994.617 1075.03 1043.7 1037.45 1100.76 1010.81C1165.64 979.176 1241.51 959.224 1319.05 992.408C1334.63 998.986 1351.06 1006.16 1366.19 1013.65C1397.04 1028.6 1426.82 1046.31 1450.89 1069.52C1460.65 1078.75 1469.95 1088.53 1480.72 1097C1496.89 1109.87 1516 1119.26 1535.41 1127.12C1538.66 1128.39 1541.87 1129.7 1545.14 1130.92L1554.94 1134.5C1590.13 1147.34 1623.7 1142.27 1650.82 1123.31C1681.48 1102.46 1702.09 1072.87 1728.52 1048.52C1745.68 1032.7 1768.72 1017.32 1796.99 1023L1797.04 1022.59C1768.49 1016.53 1744.9 1031.81 1727.38 1047.55C1700.46 1071.58 1679.68 1100.78 1648.97 1121.29C1617.56 1142.21 1585.27 1144.04 1546.28 1127.95C1523.98 1119.38 1501.71 1109.24 1483.27 1094.47C1467.4 1081.74 1454.56 1066.35 1438.65 1053.57C1406.81 1027.58 1368.49 1009.22 1330.31 992.672C1219.12 940.183 1116.63 992.929 1032.1 1042.65C993.519 1064.02 942.59 1099.42 895.292 1102.66C818.917 1104.84 738.193 1037.17 681.594 992.506C671.015 983.997 660.472 975.441 649.688 967.107C638.855 958.857 627.992 950.404 615.411 944.116C541.975 910.128 450.831 895.005 375.361 911.119C367.453 912.795 359.402 915.141 351.841 917.581C347.869 919.01 342.293 921.023 338.253 922.352C314.099 930.895 285.397 929.159 259.714 919.162C207.458 899.206 167.9 860.072 122.176 830.388C110.539 822.931 98.0825 816.025 84.8065 811.559C62.0409 803.724 39.7354 794.276 19.868 781.057C0.0237157 767.965 -17.4366 751.909 -33.747 735.498C-56.7128 712.112 -78.9283 686.142 -99.414 661.185C-116.026 641.151 -132.343 619.707 -149.011 599.682C-166.189 579.423 -186.282 560.912 -208.326 544.626C-252.374 511.995 -305.832 489.984 -360.272 480.901C-380.659 477.477 -401.216 475.643 -421.511 475.795C-428.276 475.861 -435.012 476.084 -441.667 476.751L-441.561 477.174L-441.515 477.192L-441.505 477.166Z" fill="#FFE9E0"/>
<path d="M-438.72 461.117C-362.151 456.58 -279.74 479.654 -215.653 524.667C-198.966 536.29 -183.321 549.487 -169.34 563.57C-157.476 575.184 -146.72 587.934 -136.664 600.631C-112.498 631.457 -87.4419 662.718 -61.3383 692.391C-30.4689 726.759 3.19422 762.298 47.7153 783.184C63.349 790.844 79.9325 796.187 96.0898 802.345C105.538 806.391 114.396 811.456 123.037 816.869C190.81 860.465 265.884 940.255 350.969 904.568C429.322 875.938 537.112 891.706 617.367 929.588C629.553 935.759 640.324 944.222 651.04 952.502C661.723 960.873 672.196 969.475 682.715 978.051C724.869 1012.19 767.758 1046.9 818.153 1070.87C858.575 1089.89 898.083 1097.4 937.661 1081.94C997.402 1058.98 1046.49 1021.4 1103.55 994.761C1168.43 963.126 1244.29 943.174 1321.84 976.359C1337.42 982.937 1353.84 990.111 1368.98 997.6C1399.82 1012.56 1429.6 1030.26 1453.67 1053.47C1463.44 1062.7 1472.74 1072.48 1483.5 1080.96C1499.68 1093.82 1518.79 1103.21 1538.2 1111.07C1541.44 1112.34 1544.66 1113.65 1547.93 1114.87L1557.72 1118.45C1592.91 1131.29 1626.48 1126.22 1653.6 1107.26C1684.26 1086.41 1704.87 1056.82 1731.31 1032.47C1748.46 1016.65 1771.51 1001.28 1799.78 1006.95L1799.83 1006.54C1771.28 1000.48 1747.69 1015.76 1730.16 1031.5C1703.25 1055.53 1682.47 1084.73 1651.75 1105.24C1620.34 1126.17 1588.05 1127.99 1549.07 1111.9C1526.77 1103.33 1504.49 1093.19 1486.06 1078.42C1470.19 1065.69 1457.34 1050.3 1441.44 1037.52C1409.59 1011.53 1371.28 993.173 1333.09 976.623C1221.9 924.134 1119.41 976.88 1034.88 1026.6C996.304 1047.97 945.371 1083.39 898.077 1086.61C821.702 1088.79 740.978 1021.12 684.379 976.457C673.801 967.947 663.257 959.392 652.473 951.058C641.64 942.808 630.777 934.355 618.196 928.067C544.76 894.079 453.616 878.956 378.147 895.07C370.239 896.746 362.187 899.092 354.626 901.532C350.655 902.961 345.079 904.973 341.038 906.303C316.884 914.846 288.182 913.11 262.499 903.113C210.243 883.157 170.685 844.023 124.961 814.339C113.324 806.882 100.868 799.976 87.5917 795.51C64.8261 787.675 42.5206 778.226 22.6532 765.008C2.80888 751.916 -14.6514 735.859 -30.9618 719.449C-53.9277 696.063 -76.1432 670.093 -96.6289 645.136C-113.241 625.102 -129.557 603.658 -146.226 583.633C-163.404 563.373 -183.496 544.863 -205.54 528.577C-249.589 495.946 -303.047 473.935 -357.487 464.852C-377.874 461.428 -398.431 459.594 -418.726 459.746C-425.491 459.811 -432.227 460.035 -438.882 460.702L-438.776 461.125L-438.729 461.142L-438.72 461.117Z" fill="#FFE9E0"/>
<path d="M-435.935 445.067C-359.366 440.531 -276.955 463.605 -212.868 508.618C-196.181 520.24 -180.536 533.438 -166.554 547.521C-154.691 559.134 -143.935 571.885 -133.878 584.582C-109.713 615.408 -84.6567 646.669 -58.5532 676.342C-27.6837 710.71 5.97937 746.249 50.5004 767.134C66.1341 774.794 82.7176 780.137 98.875 786.295C108.323 790.341 117.181 795.407 125.822 800.82C193.595 844.416 268.669 924.205 353.754 888.519C432.107 859.888 539.897 875.657 620.152 913.539C632.338 919.71 643.109 928.172 653.826 936.452C664.508 944.823 674.982 953.426 685.501 962.002C727.654 996.14 770.543 1030.85 820.938 1054.82C861.36 1073.84 900.869 1081.35 940.446 1065.89C1000.19 1042.93 1049.27 1005.35 1106.33 978.711C1171.21 947.077 1247.08 927.125 1324.62 960.31C1340.2 966.888 1356.63 974.062 1371.76 981.551C1402.61 996.506 1432.39 1014.21 1456.46 1037.42C1466.22 1046.66 1475.52 1056.43 1486.29 1064.91C1502.46 1077.77 1521.57 1087.17 1540.98 1095.02C1544.23 1096.29 1547.44 1097.6 1550.71 1098.82L1560.51 1102.4C1595.7 1115.24 1629.27 1110.17 1656.39 1091.21C1687.05 1070.36 1707.66 1040.77 1734.09 1016.42C1751.25 1000.6 1774.29 985.226 1802.56 990.904L1802.61 990.494C1774.06 984.432 1750.47 999.707 1732.95 1015.45C1706.03 1039.48 1685.25 1068.68 1654.54 1089.19C1623.13 1110.12 1590.84 1111.94 1551.85 1095.85C1529.55 1087.29 1507.28 1077.14 1488.84 1062.38C1472.98 1049.64 1460.13 1034.25 1444.22 1021.47C1412.38 995.48 1374.06 977.123 1335.88 960.574C1224.69 908.085 1122.2 960.83 1037.67 1010.55C999.09 1031.92 948.14 1067.33 900.862 1070.56C824.488 1072.74 743.763 1005.07 687.164 960.407C676.586 951.898 666.042 943.343 655.258 935.008C644.425 926.759 633.562 918.306 620.981 912.018C547.545 878.03 456.401 862.906 380.932 879.02C373.024 880.697 364.972 883.042 357.412 885.482C353.44 886.911 347.864 888.924 343.823 890.254C319.67 898.797 290.967 897.06 265.284 887.064C213.028 867.108 173.47 827.973 127.746 798.29C116.109 790.833 103.653 783.927 90.3768 779.46C67.6112 771.626 45.3057 762.177 25.4383 748.958C5.59403 735.866 -11.8662 719.81 -28.1767 703.4C-51.1425 680.014 -73.358 654.044 -93.8437 629.087C-110.456 609.053 -126.772 587.609 -143.44 567.584C-160.619 547.324 -180.711 528.813 -202.755 512.527C-246.804 479.897 -300.261 457.885 -354.702 448.802C-375.089 445.379 -395.646 443.545 -415.941 443.697C-422.706 443.762 -429.442 443.986 -436.097 444.653L-435.991 445.076L-435.944 445.093L-435.935 445.067Z" fill="#FFE9E0"/>
<path d="M-433.15 429.019C-356.581 424.483 -274.17 447.556 -210.083 492.569C-193.396 504.192 -177.751 517.389 -163.769 531.473C-151.906 543.086 -141.15 555.837 -131.093 568.533C-106.928 599.359 -81.8716 630.62 -55.768 660.294C-24.8986 694.661 8.76453 730.201 53.2856 751.086C68.9193 758.746 85.5028 764.089 101.66 770.247C111.108 774.293 119.966 779.359 128.607 784.772C196.38 828.368 271.455 908.157 356.54 872.47C434.892 843.84 542.682 859.609 622.937 897.49C635.123 903.661 645.894 912.124 656.611 920.404C667.293 928.775 677.767 937.378 688.29 945.94C730.444 980.079 773.333 1014.79 823.728 1038.76C864.15 1057.78 903.659 1065.29 943.236 1049.83C1002.98 1026.87 1052.06 989.288 1109.12 962.65C1174 931.016 1249.87 911.064 1327.41 944.248C1342.99 950.826 1359.42 958 1374.55 965.49C1405.4 980.445 1435.18 998.149 1459.25 1021.36C1469.01 1030.59 1478.31 1040.37 1489.08 1048.84C1505.25 1061.71 1524.36 1071.1 1543.77 1078.96C1547.02 1080.23 1550.23 1081.54 1553.5 1082.76L1563.3 1086.34C1598.49 1099.18 1632.06 1094.11 1659.18 1075.15C1689.84 1054.3 1710.45 1024.71 1736.88 1000.36C1754.04 984.538 1777.08 969.165 1805.35 974.843L1805.4 974.432C1776.85 968.37 1753.26 983.646 1735.74 999.389C1708.82 1023.42 1688.04 1052.62 1657.33 1073.13C1625.92 1094.05 1593.63 1095.88 1554.64 1079.79C1532.34 1071.22 1510.07 1061.08 1491.63 1046.31C1475.77 1033.58 1462.92 1018.19 1447.01 1005.41C1415.17 979.418 1376.85 961.062 1338.67 944.512C1227.48 892.024 1124.99 944.769 1040.46 994.487C1001.88 1015.86 950.951 1051.26 903.652 1054.5C827.282 1056.66 746.553 989.008 689.954 944.346C679.376 935.837 668.832 927.282 658.048 918.947C647.215 910.697 636.352 902.245 623.771 895.956C550.335 861.969 459.191 846.845 383.722 862.959C375.814 864.635 367.762 866.981 360.202 869.421C356.23 870.85 350.654 872.863 346.613 874.193C322.46 882.735 293.757 880.999 268.074 871.002C215.818 851.046 176.26 811.912 130.536 782.229C118.899 774.772 106.443 767.866 93.1668 763.399C70.4012 755.564 48.0957 746.116 28.2283 732.897C8.38401 719.805 -9.07626 703.749 -25.3867 687.338C-48.3525 663.952 -70.568 637.983 -91.0537 613.026C-107.666 592.991 -123.982 571.548 -140.65 551.522C-157.829 531.263 -177.921 512.752 -199.965 496.466C-244.014 463.835 -297.472 441.824 -351.912 432.741C-372.299 429.318 -392.856 427.484 -413.151 427.635C-419.916 427.701 -426.652 427.925 -433.307 428.592L-433.201 429.015L-433.154 429.032L-433.15 429.019Z" fill="#FFE9E0"/>
<path d="M-430.359 412.971C-353.791 408.434 -271.38 431.508 -207.293 476.521C-190.606 488.144 -174.961 501.341 -160.979 515.424C-149.116 527.038 -138.36 539.788 -128.303 552.485C-104.138 583.311 -79.0815 614.572 -52.978 644.245C-22.1085 678.613 11.5546 714.152 56.0756 735.038C71.7093 742.698 88.2928 748.041 104.45 754.199C113.898 758.245 122.756 763.31 131.397 768.723C199.17 812.319 274.245 892.109 359.33 856.422C437.682 827.792 545.472 843.56 625.727 881.442C637.913 887.613 648.684 896.076 659.401 904.356C670.083 912.727 680.557 921.329 691.081 929.892C733.234 964.031 776.123 998.739 826.518 1022.71C866.94 1041.73 906.449 1049.24 946.026 1033.78C1005.77 1010.82 1054.85 973.239 1111.91 946.602C1176.79 914.968 1252.66 895.016 1330.2 928.2C1345.78 934.778 1362.21 941.952 1377.34 949.441C1408.19 964.397 1437.97 982.101 1462.04 1005.31C1471.8 1014.55 1481.1 1024.32 1491.87 1032.8C1508.04 1045.66 1527.15 1055.06 1546.56 1062.91C1549.81 1064.18 1553.02 1065.49 1556.29 1066.71L1566.09 1070.29C1601.28 1083.13 1634.85 1078.06 1661.97 1059.1C1692.63 1038.25 1713.24 1008.66 1739.67 984.313C1756.83 968.49 1779.87 953.116 1808.14 958.794L1808.19 958.384C1779.64 952.322 1756.05 967.597 1738.53 983.341C1711.61 1007.37 1690.83 1036.57 1660.12 1057.08C1628.71 1078.01 1596.42 1079.83 1557.43 1063.74C1535.13 1055.18 1512.86 1045.03 1494.42 1030.27C1478.56 1017.53 1465.71 1002.14 1449.8 989.365C1417.96 963.37 1379.64 945.014 1341.46 928.464C1230.27 875.975 1127.78 928.721 1043.25 978.439C1004.67 999.807 953.741 1035.22 906.442 1038.45C830.072 1040.61 749.343 972.96 692.744 928.298C682.166 919.789 671.622 911.233 660.838 902.899C650.005 894.649 639.142 886.196 626.561 879.908C553.125 845.92 461.981 830.797 386.512 846.911C378.604 848.587 370.552 850.933 362.992 853.373C359.02 854.802 353.444 856.814 349.403 858.144C325.25 866.687 296.547 864.951 270.864 854.954C218.608 834.998 179.05 795.864 133.326 766.18C121.689 758.723 109.233 751.817 95.9568 747.351C73.1913 739.516 50.8857 730.067 31.0183 716.849C11.1741 703.757 -6.28622 687.701 -22.5967 671.29C-45.5625 647.904 -67.778 621.934 -88.2637 596.977C-104.876 576.943 -121.192 555.499 -137.86 535.474C-155.038 515.214 -175.131 496.704 -197.175 480.418C-241.224 447.787 -294.681 425.776 -349.122 416.693C-369.509 413.269 -390.066 411.435 -410.361 411.587C-417.126 411.653 -423.862 411.876 -430.517 412.543L-430.411 412.966L-430.364 412.983L-430.359 412.971Z" fill="#FFE9E0"/>
<path d="M-427.569 396.934C-351.001 392.398 -268.59 415.472 -204.503 460.485C-187.816 472.107 -172.171 485.305 -158.189 499.388C-146.326 511.001 -135.57 523.752 -125.513 536.449C-101.348 567.275 -76.2915 598.536 -50.1879 628.209C-19.3185 662.576 14.3446 698.116 58.8657 719.001C74.4994 726.661 91.0829 732.004 107.24 738.162C116.688 742.208 125.546 747.274 134.187 752.687C201.96 796.283 277.035 876.072 362.12 840.386C440.472 811.755 548.262 827.524 628.517 865.406C640.703 871.577 651.474 880.039 662.191 888.319C672.873 896.69 683.347 905.293 693.871 913.855C736.024 947.994 778.913 982.702 829.308 1006.67C869.73 1025.69 909.239 1033.21 948.816 1017.74C1008.56 994.787 1057.64 957.203 1114.7 930.565C1179.58 898.931 1255.45 878.979 1332.99 912.164C1348.57 918.742 1365 925.916 1380.13 933.405C1410.98 948.36 1440.76 966.065 1464.83 989.271C1474.59 998.51 1483.89 1008.28 1494.66 1016.76C1510.83 1029.62 1529.94 1039.02 1549.35 1046.87C1552.6 1048.14 1555.81 1049.45 1559.08 1050.67L1568.88 1054.26C1604.07 1067.1 1637.64 1062.03 1664.76 1043.06C1695.42 1022.22 1716.03 992.628 1742.46 968.277C1759.62 952.454 1782.66 937.08 1810.93 942.758L1810.98 942.348C1782.43 936.286 1758.84 951.561 1741.32 967.304C1714.4 991.331 1693.62 1020.53 1662.91 1041.05C1631.5 1061.97 1599.21 1063.8 1560.22 1047.7C1537.92 1039.14 1515.65 1028.99 1497.21 1014.23C1481.35 1001.49 1468.5 986.107 1452.59 973.329C1420.75 947.333 1382.43 928.977 1344.25 912.427C1233.06 859.939 1130.57 912.684 1046.04 962.402C1007.46 983.771 956.531 1019.18 909.232 1022.42C832.862 1024.58 752.133 956.923 695.534 912.261C684.956 903.752 674.412 895.197 663.628 886.862C652.795 878.613 641.932 870.16 629.351 863.872C555.915 829.884 464.771 814.76 389.302 830.874C381.394 832.551 373.342 834.896 365.782 837.336C361.81 838.765 356.234 840.778 352.193 842.108C328.04 850.651 299.337 848.914 273.654 838.918C221.398 818.961 181.84 779.827 136.116 750.144C124.479 742.687 112.023 735.781 98.7469 731.314C75.9813 723.48 53.6758 714.031 33.8084 700.812C13.9641 687.72 -3.49618 671.664 -19.8066 655.254C-42.7724 631.868 -64.9879 605.898 -85.4736 580.941C-102.086 560.907 -118.402 539.463 -135.07 519.437C-152.248 499.178 -172.341 480.667 -194.385 464.381C-238.434 431.751 -291.891 409.739 -346.332 400.656C-366.719 397.233 -387.276 395.399 -407.571 395.551C-414.336 395.616 -421.071 395.84 -427.726 396.507L-427.621 396.93L-427.574 396.947L-427.569 396.934Z" fill="#FFE9E0"/>
<path d="M-424.779 380.886C-348.211 376.35 -265.8 399.423 -201.713 444.436C-185.026 456.059 -169.381 469.256 -155.399 483.34C-143.536 494.953 -132.78 507.704 -122.723 520.4C-98.558 551.226 -73.5014 582.487 -47.3979 612.161C-16.5285 646.528 17.1346 682.068 61.6557 702.953C77.2894 710.613 93.8729 715.956 110.03 722.114C119.478 726.16 128.336 731.226 136.977 736.639C204.75 780.234 279.825 860.024 364.91 824.337C443.262 795.707 551.052 811.476 631.307 849.357C643.493 855.528 654.264 863.991 664.981 872.271C675.663 880.642 686.137 889.245 696.656 897.82C738.809 931.959 781.698 966.667 832.093 990.637C872.516 1009.66 912.024 1017.17 951.601 1001.71C1011.34 978.752 1060.43 941.168 1117.49 914.53C1182.37 882.896 1258.23 862.944 1335.78 896.128C1351.36 902.706 1367.78 909.88 1382.92 917.37C1413.76 932.325 1443.55 950.029 1467.61 973.236C1477.38 982.474 1486.68 992.249 1497.44 1000.72C1513.62 1013.59 1532.73 1022.98 1552.14 1030.84C1555.39 1032.11 1558.6 1033.42 1561.87 1034.64L1571.66 1038.22C1606.86 1051.06 1640.42 1045.99 1667.54 1027.03C1698.2 1006.18 1718.81 976.593 1745.25 952.242C1762.4 936.418 1785.45 921.045 1813.72 926.722L1813.77 926.312C1785.22 920.25 1761.63 935.526 1744.1 951.269C1717.19 975.296 1696.41 1004.5 1665.69 1025.01C1634.28 1045.93 1601.99 1047.76 1563.01 1031.67C1540.71 1023.1 1518.43 1012.96 1500 998.194C1484.13 985.459 1471.28 970.071 1455.38 957.293C1423.53 931.298 1385.22 912.942 1347.03 896.392C1235.84 843.904 1133.35 896.649 1048.82 946.367C1010.24 967.735 959.311 1003.16 912.017 1006.38C835.643 1008.56 754.919 940.888 698.319 896.226C687.741 887.717 677.197 879.162 666.413 870.827C655.58 862.577 644.717 854.125 632.137 847.836C558.7 813.849 467.556 798.725 392.087 814.839C384.179 816.515 376.127 818.861 368.567 821.301C364.595 822.73 359.019 824.743 354.979 826.073C330.825 834.615 302.122 832.879 276.44 822.882C224.183 802.926 184.625 763.792 138.901 734.108C127.264 726.651 114.808 719.745 101.532 715.279C78.7665 707.444 56.461 697.996 36.5936 684.777C16.7493 671.685 -0.710973 655.629 -17.0214 639.218C-39.9872 615.832 -62.2027 589.863 -82.6884 564.906C-99.3008 544.871 -115.617 523.428 -132.285 503.402C-149.463 483.143 -169.556 464.632 -191.6 448.346C-235.648 415.715 -289.106 393.704 -343.547 384.621C-363.934 381.197 -384.491 379.363 -404.786 379.515C-411.55 379.581 -418.286 379.805 -424.941 380.472L-424.835 380.895L-424.789 380.912L-424.779 380.886Z" fill="#FFE9E0"/>
<path d="M-421.994 364.838C-345.426 360.302 -263.014 383.375 -198.928 428.388C-182.241 440.011 -166.595 453.208 -152.614 467.291C-140.75 478.905 -129.994 491.655 -119.938 504.352C-95.7729 535.178 -70.7163 566.439 -44.6127 596.112C-13.7433 630.48 19.9198 666.02 64.4409 686.905C80.0745 694.565 96.6581 699.908 112.815 706.066C122.263 710.112 131.121 715.178 139.762 720.59C207.536 764.186 282.61 843.976 367.695 808.289C446.048 779.659 553.837 795.427 634.092 833.309C646.278 839.48 657.05 847.943 667.766 856.223C678.449 864.594 688.922 873.197 699.441 881.772C741.594 915.911 784.484 950.619 834.878 974.589C875.301 993.61 914.809 1001.12 954.386 985.658C1014.13 962.704 1063.22 925.12 1120.27 898.482C1185.16 866.848 1261.02 846.896 1338.56 880.08C1354.14 886.658 1370.57 893.832 1385.71 901.322C1416.55 916.277 1446.33 933.981 1470.4 957.188C1480.16 966.426 1489.46 976.201 1500.23 984.676C1516.4 997.539 1535.51 1006.94 1554.92 1014.79C1558.17 1016.06 1561.39 1017.37 1564.65 1018.59L1574.45 1022.17C1609.64 1035.01 1643.21 1029.94 1670.33 1010.98C1700.99 990.133 1721.6 960.545 1748.03 936.194C1765.19 920.37 1788.23 904.996 1816.51 910.674L1816.55 910.264C1788 904.202 1764.42 919.477 1746.89 935.221C1719.97 959.247 1699.19 988.447 1668.48 1008.96C1637.07 1029.89 1604.78 1031.71 1565.79 1015.62C1543.49 1007.06 1521.22 996.911 1502.79 982.146C1486.92 969.411 1474.07 954.023 1458.16 941.245C1426.32 915.25 1388 896.894 1349.82 880.344C1238.63 827.856 1136.14 880.601 1051.61 930.319C1013.03 951.687 962.096 987.109 914.802 990.334C838.428 992.508 757.704 924.84 701.105 880.178C690.526 871.669 679.982 863.113 669.198 854.779C658.365 846.529 647.502 838.076 634.922 831.788C561.485 797.8 470.342 782.677 394.872 798.791C386.964 800.467 378.912 802.813 371.352 805.253C367.38 806.682 361.804 808.695 357.764 810.024C333.61 818.567 304.907 816.831 279.225 806.834C226.968 786.878 187.411 747.744 141.687 718.06C130.05 710.603 117.593 703.697 104.317 699.231C81.5517 691.396 59.2461 681.948 39.3788 668.729C19.5345 655.637 2.07419 639.581 -14.2363 623.17C-37.2021 599.784 -59.4176 573.815 -79.9033 548.857C-96.5156 528.823 -112.832 507.38 -129.5 487.354C-146.678 467.095 -166.771 448.584 -188.815 432.298C-232.863 399.667 -286.321 377.656 -340.762 368.573C-361.149 365.149 -381.705 363.315 -402.001 363.467C-408.765 363.533 -415.501 363.756 -422.156 364.423L-422.05 364.846L-422.004 364.864L-421.994 364.838Z" fill="#FFE9E0"/>
<path d="M-419.209 348.788C-342.64 344.252 -260.229 367.326 -196.143 412.339C-179.455 423.962 -163.81 437.159 -149.829 451.242C-137.965 462.856 -127.209 475.606 -117.153 488.303C-92.9877 519.129 -67.9311 550.39 -41.8276 580.063C-10.9582 614.431 22.7049 649.97 67.226 670.855C82.8597 678.516 99.4432 683.858 115.601 690.017C125.049 694.062 133.907 699.128 142.548 704.541C210.321 748.137 285.395 827.927 370.48 792.24C448.833 763.61 556.622 779.378 636.878 817.26C649.063 823.431 659.835 831.894 670.551 840.174C681.234 848.544 691.707 857.147 702.226 865.723C744.379 899.862 787.269 934.569 837.663 958.54C878.086 977.561 917.594 985.073 957.172 969.608C1016.91 946.655 1066 909.07 1123.06 882.433C1187.94 850.798 1263.8 830.846 1341.35 864.031C1356.93 870.609 1373.35 877.783 1388.49 885.272C1419.33 900.228 1449.12 917.932 1473.18 941.138C1482.95 950.377 1492.25 960.151 1503.01 968.627C1519.19 981.49 1538.3 990.887 1557.71 998.74C1560.96 1000.01 1564.17 1001.32 1567.44 1002.54L1577.23 1006.12C1612.43 1018.96 1645.99 1013.89 1673.11 994.93C1703.77 974.084 1724.38 944.496 1750.82 920.144C1767.97 904.321 1791.02 888.947 1819.29 894.625L1819.34 894.215C1790.79 888.153 1767.2 903.428 1749.67 919.171C1722.76 943.198 1701.98 972.398 1671.26 992.915C1639.85 1013.84 1607.56 1015.66 1568.58 999.569C1546.28 991.007 1524 980.861 1505.57 966.096C1489.7 953.361 1476.85 937.974 1460.95 925.196C1429.1 899.201 1390.79 880.845 1352.6 864.295C1241.41 811.806 1138.92 864.551 1054.39 914.269C1015.82 935.638 964.881 971.06 917.588 974.285C841.213 976.459 760.489 908.791 703.89 864.128C693.311 855.619 682.767 847.064 671.984 838.729C661.15 830.48 650.288 822.027 637.707 815.739C564.27 781.751 473.127 766.627 397.657 782.742C389.749 784.418 381.698 786.764 374.137 789.204C370.165 790.633 364.589 792.645 360.549 793.975C336.395 802.518 307.692 800.781 282.01 790.785C229.754 770.829 190.196 731.695 144.472 702.011C132.835 694.554 120.378 687.648 107.102 683.181C84.3368 675.347 62.0313 665.898 42.1639 652.68C22.3196 639.588 4.85935 623.531 -11.4511 607.121C-34.4169 583.735 -56.6324 557.765 -77.1181 532.808C-93.7305 512.774 -110.047 491.33 -126.715 471.305C-143.893 451.045 -163.986 432.534 -186.03 416.249C-230.078 383.618 -283.536 361.607 -337.977 352.523C-358.363 349.1 -378.92 347.266 -399.215 347.418C-405.98 347.483 -412.716 347.707 -419.371 348.374L-419.265 348.797L-419.219 348.814L-419.209 348.788Z" fill="#FFE9E0"/>
<path d="M-416.424 332.752C-339.855 328.216 -257.444 351.29 -193.358 396.303C-176.67 407.926 -161.025 421.123 -147.044 435.206C-135.18 446.82 -124.424 459.57 -114.368 472.267C-90.2025 503.093 -65.146 534.354 -39.0424 564.027C-8.173 598.395 25.4901 633.934 70.0112 654.82C85.6449 662.48 102.228 667.823 118.386 673.981C127.834 678.027 136.692 683.092 145.333 688.505C213.106 732.101 288.18 811.891 373.265 776.204C451.618 747.574 559.408 763.342 639.663 801.224C651.849 807.395 662.62 815.858 673.336 824.138C684.019 832.509 694.492 841.111 705.016 849.674C747.169 883.813 790.059 918.521 840.453 942.491C880.876 961.512 920.384 969.024 959.962 953.559C1019.7 930.606 1068.79 893.021 1125.85 866.384C1190.73 834.749 1266.59 814.797 1344.14 847.982C1359.72 854.56 1376.14 861.734 1391.28 869.223C1422.12 884.179 1451.91 901.883 1475.97 925.089C1485.74 934.328 1495.04 944.103 1505.8 952.578C1521.98 965.441 1541.09 974.838 1560.5 982.691C1563.75 983.959 1566.96 985.273 1570.23 986.489L1580.02 990.074C1615.22 1002.91 1648.78 997.845 1675.9 978.881C1706.56 958.035 1727.17 928.447 1753.61 904.095C1770.76 888.272 1793.81 872.898 1822.08 878.576L1822.13 878.166C1793.58 872.104 1769.99 887.379 1752.46 903.123C1725.55 927.149 1704.77 956.349 1674.05 976.866C1642.64 997.789 1610.35 999.615 1571.37 983.52C1549.07 974.958 1526.79 964.812 1508.36 950.047C1492.49 937.312 1479.64 921.925 1463.74 909.147C1431.89 883.152 1393.58 864.796 1355.39 848.246C1244.2 795.757 1141.71 848.503 1057.18 898.221C1018.61 919.589 967.676 954.998 920.378 958.236C844.008 960.397 763.279 892.742 706.68 848.08C696.101 839.57 685.557 831.015 674.774 822.681C663.94 814.431 653.078 805.978 640.497 799.69C567.06 765.702 475.917 750.579 400.447 766.693C392.539 768.369 384.488 770.715 376.927 773.155C372.955 774.584 367.379 776.596 363.339 777.926C339.185 786.469 310.482 784.733 284.8 774.736C232.544 754.78 192.986 715.646 147.262 685.962C135.625 678.505 123.168 671.599 109.892 667.133C87.1268 659.298 64.8213 649.849 44.9539 636.631C25.1096 623.539 7.64934 607.482 -8.6611 591.072C-31.6269 567.686 -53.8424 541.716 -74.3281 516.759C-90.9405 496.725 -107.257 475.281 -123.925 455.256C-141.103 434.996 -161.196 416.486 -183.24 400.2C-227.288 367.569 -280.746 345.558 -335.187 336.475C-355.573 333.051 -376.13 331.217 -396.425 331.369C-403.19 331.434 -409.926 331.658 -416.581 332.325L-416.475 332.748L-416.429 332.765L-416.424 332.752Z" fill="#FFE9E0"/>
<path d="M-413.634 316.704C-337.065 312.168 -254.654 335.242 -190.568 380.255C-173.88 391.877 -158.235 405.075 -144.254 419.158C-132.39 430.771 -121.634 443.522 -111.578 456.219C-87.4125 487.045 -62.3559 518.306 -36.2524 547.979C-5.38296 582.346 28.2802 617.886 72.8012 638.771C88.4349 646.431 105.018 651.774 121.176 657.932C130.624 661.978 139.482 667.044 148.123 672.457C215.896 716.053 290.97 795.842 376.055 760.156C454.408 731.525 562.198 747.294 642.453 785.176C654.639 791.347 665.41 799.809 676.126 808.089C686.809 816.46 697.282 825.063 707.806 833.625C749.959 867.764 792.849 902.472 843.243 926.442C883.666 945.463 923.174 952.975 962.752 937.511C1022.49 914.557 1071.58 876.973 1128.64 850.335C1193.52 818.701 1269.38 798.749 1346.93 831.934C1362.51 838.512 1378.93 845.685 1394.07 853.175C1424.91 868.13 1454.7 885.835 1478.76 909.041C1488.53 918.28 1497.83 928.054 1508.59 936.53C1524.77 949.393 1543.88 958.789 1563.29 966.643C1566.54 967.911 1569.75 969.225 1573.02 970.441L1582.81 974.026C1618.01 986.866 1651.57 981.796 1678.69 962.833C1709.35 941.986 1729.96 912.398 1756.4 888.047C1773.55 872.224 1796.6 856.85 1824.87 862.528L1824.92 862.118C1796.37 856.056 1772.78 871.331 1755.25 887.074C1728.34 911.101 1707.56 940.301 1676.84 960.818C1645.43 981.74 1613.14 983.567 1574.16 967.471C1551.86 958.909 1529.58 948.764 1511.15 933.999C1495.28 921.264 1482.43 905.877 1466.53 893.098C1434.68 867.103 1396.37 848.747 1358.18 832.197C1246.99 779.709 1144.5 832.454 1059.97 882.172C1021.4 903.541 970.466 938.95 923.168 942.188C846.798 944.349 766.069 876.693 709.47 832.031C698.891 823.522 688.347 814.967 677.564 806.632C666.73 798.382 655.868 789.93 643.287 783.642C569.85 749.654 478.707 734.53 403.237 750.644C395.329 752.321 387.278 754.666 379.717 757.106C375.745 758.535 370.169 760.548 366.129 761.878C341.975 770.421 313.272 768.684 287.59 758.688C235.334 738.731 195.776 699.597 150.052 669.914C138.415 662.457 125.958 655.551 112.682 651.084C89.9169 643.25 67.6113 633.801 47.7439 620.582C27.8996 607.49 10.4394 591.434 -5.87108 575.024C-28.8369 551.638 -51.0524 525.668 -71.5381 500.711C-88.1504 480.677 -104.467 459.233 -121.135 439.207C-138.313 418.948 -158.406 400.437 -180.45 384.151C-224.498 351.521 -277.956 329.509 -332.396 320.426C-352.783 317.003 -373.34 315.169 -393.635 315.321C-400.4 315.386 -407.136 315.61 -413.791 316.277L-413.685 316.7L-413.639 316.717L-413.634 316.704Z" fill="#FFE9E0"/>
<path d="M-410.844 300.656C-334.275 296.119 -251.864 319.193 -187.777 364.206C-171.09 375.829 -155.445 389.026 -141.464 403.109C-129.6 414.723 -118.844 427.473 -108.788 440.17C-84.6225 470.996 -59.5659 502.257 -33.4623 531.93C-2.59292 566.298 31.0702 601.838 75.5913 622.723C91.2249 630.383 107.808 635.726 123.966 641.884C133.414 645.93 142.272 650.995 150.913 656.408C218.686 700.004 293.76 779.794 378.845 744.107C457.198 715.477 564.988 731.245 645.243 769.127C657.429 775.298 668.2 783.761 678.916 792.041C689.599 800.412 700.072 809.014 710.591 817.59C752.745 851.729 795.634 886.437 846.029 910.407C886.451 929.428 925.959 936.94 965.537 921.475C1025.28 898.522 1074.37 860.937 1131.42 834.3C1196.31 802.666 1272.17 782.714 1349.71 815.898C1365.29 822.476 1381.72 829.65 1396.86 837.139C1427.7 852.095 1457.48 869.799 1481.55 893.005C1491.31 902.244 1500.61 912.019 1511.38 920.494C1527.55 933.357 1546.67 942.754 1566.07 950.607C1569.32 951.875 1572.54 953.189 1575.8 954.405L1585.6 957.99C1620.79 970.831 1654.36 965.761 1681.48 946.798C1712.14 925.951 1732.75 896.363 1759.18 872.011C1776.34 856.188 1799.38 840.814 1827.66 846.492L1827.7 846.082C1799.15 840.02 1775.57 855.295 1758.04 871.039C1731.12 895.065 1710.34 924.265 1679.63 944.782C1648.22 965.705 1615.93 967.531 1576.94 951.436C1554.64 942.874 1532.37 932.729 1513.94 917.963C1498.07 905.228 1485.22 889.841 1469.31 877.063C1437.47 851.068 1399.15 832.712 1360.97 816.162C1249.78 763.673 1147.29 816.419 1062.76 866.137C1024.18 887.505 973.252 922.914 925.953 926.152C849.583 928.313 768.854 860.658 712.255 815.996C701.677 807.487 691.133 798.931 680.349 790.597C669.516 782.347 658.653 773.894 646.072 767.606C572.636 733.618 481.492 718.495 406.023 734.609C398.115 736.285 390.063 738.631 382.502 741.071C378.53 742.5 372.955 744.513 368.914 745.842C344.76 754.385 316.058 752.649 290.375 742.652C238.119 722.696 198.561 683.562 152.837 653.878C141.2 646.421 128.744 639.515 115.468 635.049C92.7021 627.214 70.3965 617.766 50.5291 604.547C30.6848 591.455 13.2246 575.399 -3.08585 558.988C-26.0517 535.602 -48.2672 509.632 -68.7529 484.675C-85.3652 464.641 -101.681 443.197 -118.35 423.172C-135.528 402.912 -155.621 384.402 -177.664 368.116C-221.713 335.485 -275.171 313.474 -329.611 304.391C-349.998 300.967 -370.555 299.133 -390.85 299.285C-397.615 299.351 -404.351 299.574 -411.006 300.241L-410.9 300.664L-410.854 300.682L-410.844 300.656Z" fill="#FFE9E0"/>
<path d="M-408.059 284.606C-331.49 280.07 -249.079 303.144 -184.992 348.157C-168.305 359.779 -152.66 372.977 -138.678 387.06C-126.815 398.673 -116.059 411.424 -106.002 424.121C-81.8373 454.947 -56.7807 486.208 -30.6772 515.881C0.192234 550.249 33.8553 585.788 78.3764 606.673C94.0101 614.333 110.594 619.676 126.751 625.835C136.199 629.88 145.057 634.946 153.698 640.359C221.471 683.955 296.545 763.744 381.63 728.058C459.983 699.427 567.773 715.196 648.028 753.078C660.214 759.249 670.985 767.711 681.701 775.992C692.384 784.362 702.858 792.965 713.376 801.541C755.53 835.679 798.419 870.387 848.814 894.357C889.236 913.379 928.745 920.89 968.322 905.426C1028.06 882.472 1077.15 844.888 1134.21 818.251C1199.09 786.616 1274.95 766.664 1352.5 799.849C1368.08 806.427 1384.51 813.601 1399.64 821.09C1430.48 836.045 1460.27 853.75 1484.33 876.956C1494.1 886.195 1503.4 895.969 1514.16 904.445C1530.34 917.308 1549.45 926.705 1568.86 934.558C1572.11 935.826 1575.32 937.14 1578.59 938.356L1588.38 941.941C1623.58 954.781 1657.14 949.712 1684.26 930.748C1714.92 909.902 1735.53 880.313 1761.97 855.962C1779.12 840.139 1802.17 824.765 1830.44 830.443L1830.49 830.033C1801.94 823.971 1778.35 839.246 1760.82 854.989C1733.91 879.016 1713.13 908.216 1682.41 928.733C1651 949.655 1618.71 951.482 1579.73 935.387C1557.43 926.824 1535.15 916.679 1516.72 901.914C1500.85 889.179 1488 873.792 1472.1 861.014C1440.26 835.019 1401.94 816.663 1363.76 800.113C1252.56 747.624 1150.07 800.369 1065.54 850.087C1026.97 871.456 976.032 906.878 928.738 910.103C852.364 912.277 771.639 844.608 715.04 799.946C704.462 791.437 693.918 782.882 683.134 774.547C672.301 766.298 661.438 757.845 648.857 751.557C575.421 717.569 484.277 702.445 408.808 718.559C400.9 720.236 392.848 722.581 385.288 725.022C381.316 726.451 375.74 728.463 371.699 729.793C347.546 738.336 318.843 736.599 293.16 726.603C240.904 706.647 201.346 667.512 155.622 637.829C143.985 630.372 131.529 623.466 118.253 618.999C95.4872 611.165 73.1817 601.716 53.3143 588.497C33.47 575.405 16.0097 559.349 -0.300711 542.939C-23.2665 519.553 -45.482 493.583 -65.9677 468.626C-82.5801 448.592 -98.8962 427.148 -115.565 407.123C-132.743 386.863 -152.835 368.352 -174.879 352.066C-218.928 319.436 -272.386 297.424 -326.826 288.341C-347.213 284.918 -367.77 283.084 -388.065 283.236C-394.83 283.301 -401.566 283.525 -408.221 284.192L-408.115 284.615L-408.068 284.632L-408.059 284.606Z" fill="#FFE9E0"/>
<path d="M-405.274 268.558C-328.705 264.022 -246.294 287.095 -182.207 332.108C-165.52 343.731 -149.875 356.928 -135.893 371.012C-124.03 382.625 -113.274 395.376 -103.217 408.073C-79.0521 438.899 -53.9956 470.159 -27.892 499.833C2.97739 534.2 36.6405 569.74 81.1616 590.625C96.7953 598.285 113.379 603.628 129.536 609.786C138.984 613.832 147.842 618.898 156.483 624.311C224.256 667.907 299.331 747.696 384.416 712.009C462.768 683.379 570.558 699.148 650.813 737.029C662.999 743.2 673.77 751.663 684.487 759.943C695.169 768.314 705.643 776.917 716.162 785.492C758.315 819.631 801.204 854.339 851.599 878.309C892.021 897.33 931.53 904.842 971.107 889.378C1030.85 866.424 1079.94 828.84 1136.99 802.202C1201.88 770.568 1277.74 750.616 1355.28 783.801C1370.86 790.378 1387.29 797.552 1402.43 805.042C1433.27 819.997 1463.05 837.701 1487.12 860.908C1496.88 870.146 1506.18 879.921 1516.95 888.397C1533.12 901.259 1552.24 910.656 1571.64 918.51C1574.89 919.778 1578.11 921.092 1581.37 922.308L1591.17 925.892C1626.36 938.733 1659.93 933.663 1687.05 914.7C1717.71 893.853 1738.32 864.265 1764.75 839.914C1781.91 824.09 1804.95 808.717 1833.23 814.395L1833.27 813.984C1804.72 807.923 1781.14 823.198 1763.61 838.941C1736.69 862.968 1715.91 892.167 1685.2 912.684C1653.79 933.607 1621.5 935.434 1582.51 919.338C1560.21 910.776 1537.94 900.631 1519.51 885.866C1503.64 873.131 1490.79 857.743 1474.88 844.965C1443.04 818.97 1404.72 800.614 1366.54 784.064C1255.35 731.576 1152.86 784.321 1068.33 834.039C1029.75 855.407 978.817 890.829 931.523 894.054C855.149 896.228 774.424 828.56 717.825 783.898C707.247 775.389 696.703 766.834 685.919 758.499C675.086 750.249 664.223 741.797 651.642 735.508C578.206 701.521 487.062 686.397 411.593 702.511C403.685 704.187 395.633 706.533 388.073 708.973C384.101 710.402 378.525 712.415 374.485 713.745C350.331 722.287 321.628 720.551 295.946 710.554C243.689 690.598 204.131 651.464 158.407 621.781C146.77 614.324 134.314 607.418 121.038 602.951C98.2724 595.116 75.9669 585.668 56.0995 572.449C36.2552 559.357 18.7949 543.301 2.48446 526.891C-20.4814 503.504 -42.6969 477.535 -63.1826 452.578C-79.7949 432.543 -96.1111 411.1 -112.779 391.074C-129.957 370.815 -150.05 352.304 -172.094 336.018C-216.143 303.387 -269.6 281.376 -324.041 272.293C-344.428 268.87 -364.985 267.036 -385.28 267.187C-392.045 267.253 -398.78 267.477 -405.435 268.144L-405.329 268.567L-405.283 268.584L-405.274 268.558Z" fill="#FFE9E0"/>
<path d="M-402.488 252.522C-325.92 247.986 -243.509 271.059 -179.422 316.072C-162.735 327.695 -147.09 340.892 -133.108 354.975C-121.244 366.589 -110.488 379.34 -100.432 392.036C-76.267 422.862 -51.2104 454.123 -25.1069 483.797C5.76253 518.164 39.4257 553.704 83.9467 574.589C99.5804 582.249 116.164 587.592 132.321 593.75C141.769 597.796 150.627 602.862 159.268 608.275C227.041 651.87 302.116 731.66 387.201 695.973C465.553 667.343 573.343 683.112 653.598 720.993C665.784 727.164 676.555 735.627 687.272 743.907C697.954 752.278 708.428 760.881 718.947 769.456C761.1 803.595 803.989 838.303 854.384 862.273C894.807 881.294 934.315 888.806 973.892 873.342C1033.63 850.388 1082.72 812.804 1139.78 786.166C1204.66 754.532 1280.52 734.58 1358.07 767.764C1373.65 774.342 1390.08 781.516 1405.21 789.006C1436.05 803.961 1465.84 821.665 1489.9 844.872C1499.67 854.11 1508.97 863.885 1519.73 872.361C1535.91 885.223 1555.02 894.62 1574.43 902.474C1577.68 903.742 1580.89 905.055 1584.16 906.272L1593.95 909.856C1629.15 922.697 1662.72 917.627 1689.83 898.664C1720.49 877.817 1741.1 848.229 1767.54 823.878C1784.69 808.054 1807.74 792.68 1836.01 798.358L1836.06 797.948C1807.51 791.886 1783.92 807.162 1766.39 822.905C1739.48 846.931 1718.7 876.131 1687.98 896.648C1656.58 917.571 1624.28 919.397 1585.3 903.302C1563 894.74 1540.72 884.595 1522.29 869.83C1506.42 857.095 1493.57 841.707 1477.67 828.929C1445.83 802.934 1407.51 784.578 1369.33 768.028C1258.13 715.54 1155.64 768.285 1071.12 818.003C1032.54 839.371 981.607 874.78 934.308 878.018C857.939 880.179 777.21 812.524 720.61 767.862C710.032 759.353 699.488 750.798 688.704 742.463C677.871 734.213 667.008 725.761 654.428 719.472C580.991 685.485 489.847 670.361 414.378 686.475C406.47 688.151 398.418 690.497 390.858 692.937C386.886 694.366 381.31 696.379 377.27 697.709C353.116 706.251 324.413 704.515 298.731 694.518C246.474 674.562 206.916 635.428 161.192 605.744C149.555 598.287 137.099 591.381 123.823 586.915C101.058 579.08 78.752 569.632 58.8846 556.413C39.0403 543.321 21.58 527.265 5.2696 510.854C-17.6962 487.468 -39.9117 461.499 -60.3974 436.542C-77.0098 416.507 -93.3259 395.064 -109.994 375.038C-127.172 354.779 -147.265 336.268 -169.309 319.982C-213.357 287.351 -266.815 265.34 -321.256 256.257C-341.643 252.833 -362.2 250.999 -382.495 251.151C-389.259 251.217 -395.995 251.441 -402.65 252.108L-402.544 252.531L-402.498 252.548L-402.488 252.522Z" fill="#FFE9E0"/>
</g>
<defs>
<clipPath id="clip0_397_2415">
<rect width="2288.64" height="858.25" fill="white" transform="matrix(0.937249 0.348662 0.348662 -0.937249 -607 804.394)"/>
</clipPath>
</defs>
</svg>
