<svg width="313" height="894" viewBox="0 0 313 894" fill="none" xmlns="http://www.w3.org/2000/svg">
<mask id="mask0_496_6070" style="mask-type:alpha" maskUnits="userSpaceOnUse" x="0" y="0" width="313" height="894">
<rect y="0.149658" width="312.55" height="893" fill="#D9D9D9"/>
</mask>
<g mask="url(#mask0_496_6070)">
<path d="M-1.23452 -93.0603C-18.1386 -52.6252 -19.5912 -4.13213 -4.50988 38.393C-0.641718 49.4485 4.3625 60.2228 10.2056 70.2586C14.9621 78.7143 20.6048 86.7757 26.3449 94.4507C40.3274 112.95 54.4052 132.006 67.3383 151.344C82.1994 174.084 97.2447 198.537 101.502 226.232C103.193 236.016 103.32 245.898 104.014 255.696C104.686 261.505 106.078 267.177 107.719 272.794C121.268 317.053 155.139 371.682 118.003 411.164C86.3393 448.274 75.8096 509.138 83.6244 559.103C85.0619 566.764 88.1339 574.071 91.1068 581.316C94.1402 588.559 97.3514 595.731 100.538 602.922C113.171 631.699 126.009 660.974 131.026 692.381C134.926 717.537 132.104 740.153 115.51 758.72C90.6946 786.816 59.0917 806.571 32.5676 832.565C1.60091 861.886 -24.4039 899.199 -18.8997 946.868C-17.8474 956.43 -16.5954 966.555 -14.9148 976.04C-11.6735 995.312 -6.58999 1014.5 2.8474 1031.6C6.57087 1038.5 10.7011 1045.24 13.7819 1052.55C18.4878 1063.55 20.5737 1075.52 21.681 1087.37C21.8382 1089.34 22.0294 1091.31 22.1519 1093.28L22.4837 1099.2C23.6526 1120.44 14.3964 1137.62 -1.98445 1148.85C-20.1499 1161.66 -41.6873 1167.49 -61.1686 1177.4C-73.8231 1183.83 -87.2996 1193.51 -89.138 1209.74L-89.3924 1209.7C-87.7324 1193.24 -74.2144 1183.25 -61.5385 1176.61C-42.1635 1166.39 -20.8268 1160.39 -2.84892 1147.5C15.5005 1134.3 22.5779 1117.23 20.1624 1093.37C19.1675 1079.83 17.2193 1066.03 11.7925 1053.48C7.10677 1042.67 0.272379 1033.01 -4.4324 1022.17C-14.0993 1000.39 -17.9919 976.489 -20.8279 952.98C-31.6578 883.753 18.9193 837.931 64.3556 801.244C84.3006 784.265 114.951 763.131 125.645 738.231C141.099 697.48 115.533 641.964 99.2747 603.534C96.1391 596.323 92.9696 589.122 89.9765 581.831C87.0435 574.529 83.9945 567.174 82.5598 559.279C75.8135 513.679 83.6449 461.897 107.279 424.113C109.748 420.152 112.645 416.232 115.507 412.594C117.098 410.708 119.337 408.063 120.882 406.123C130.473 394.633 134.752 378.864 133.524 363.253C131.256 331.556 115.15 303.289 105.847 273.381C103.537 265.786 101.71 257.849 101.495 249.903C101.022 236.248 99.4963 222.553 95.2616 209.5C91.0984 196.483 84.7184 184.223 77.9133 172.518C68.1638 155.989 56.7284 139.404 45.5787 123.931C36.6594 111.419 26.841 98.8167 17.9373 86.2769C8.98791 73.4208 1.62574 59.3058 -4.04246 44.5356C-15.4215 15.0059 -18.6977 -17.703 -14.0497 -48.6419C-12.3222 -60.2317 -9.61146 -71.6304 -5.75996 -82.5349C-4.4673 -86.167 -3.08517 -89.7553 -1.45264 -93.2212L-1.21897 -93.0889L-1.21719 -93.0609L-1.23452 -93.0603Z" fill="#FAECC8"/>
<path d="M-11.3615 -94.3898C-28.2656 -53.9547 -29.7181 -5.46162 -14.6369 37.0635C-10.7687 48.119 -5.76446 58.8933 0.078665 68.9291C4.83512 77.3848 10.4778 85.4462 16.218 93.1212C30.2005 111.62 44.2782 130.677 57.2113 150.015C72.0724 172.755 87.1178 197.208 91.3754 224.903C93.0658 234.686 93.1926 244.569 93.8866 254.367C94.5588 260.176 95.9511 265.848 97.5915 271.465C111.141 315.724 145.012 370.353 107.876 409.834C76.2123 446.945 65.6826 507.808 73.4974 557.774C74.9349 565.435 78.007 572.742 80.9798 579.987C84.0133 587.23 87.2244 594.401 90.4107 601.592C103.044 630.369 115.882 659.644 120.899 691.052C124.799 716.208 121.977 738.824 105.383 757.391C80.5676 785.486 48.9647 805.241 22.4406 831.236C-8.52606 860.557 -34.5308 897.869 -29.0266 945.539C-27.9744 955.101 -26.7224 965.226 -25.0418 974.71C-21.8005 993.983 -16.7169 1013.17 -7.2796 1030.27C-3.55609 1037.17 0.574135 1043.92 3.6549 1051.22C8.36086 1062.22 10.4468 1074.19 11.5541 1086.04C11.7112 1088.01 11.9024 1089.98 12.0249 1091.95L12.3567 1097.87C13.5256 1119.11 4.26948 1136.29 -12.1114 1147.52C-30.2768 1160.33 -51.8143 1166.17 -71.2955 1176.07C-83.9501 1182.5 -97.4266 1192.18 -99.265 1208.41L-99.5194 1208.37C-97.8594 1191.91 -84.3414 1181.92 -71.6654 1175.28C-52.2904 1165.06 -30.9538 1159.06 -12.9759 1146.17C5.37351 1132.97 12.4509 1115.9 10.0355 1092.04C9.04049 1078.51 7.09228 1064.7 1.6655 1052.15C-3.02023 1041.34 -9.85459 1031.68 -14.5594 1020.84C-24.2263 999.064 -28.1188 975.16 -30.9549 951.65C-41.7847 882.424 8.79233 836.602 54.2287 799.915C74.1737 782.936 104.824 761.802 115.518 736.902C130.972 696.151 105.406 640.635 89.1477 602.205C86.0122 594.993 82.8426 587.792 79.8495 580.501C76.9165 573.199 73.8675 565.845 72.4328 557.95C65.6865 512.35 73.518 460.567 97.1518 422.783C99.621 418.822 102.518 414.902 105.38 411.264C106.971 409.379 109.21 406.734 110.755 404.794C120.346 393.303 124.625 377.535 123.397 361.923C121.129 330.227 105.024 301.959 95.7198 272.051C93.4105 264.457 91.5829 256.519 91.368 248.574C90.8946 234.918 89.3694 221.223 85.1346 208.171C80.9714 195.154 74.5915 182.893 67.7863 171.189C58.0368 154.659 46.6014 138.074 35.4517 122.601C26.5324 110.09 16.7141 97.4873 7.81032 84.9474C-1.13905 72.0913 -8.50126 57.9763 -14.1695 43.2061C-25.5485 13.6764 -28.8246 -19.0325 -24.1766 -49.9714C-22.4491 -61.5612 -19.7384 -72.9599 -15.887 -83.8644C-14.5943 -87.4965 -13.2122 -91.0848 -11.5796 -94.5507L-11.3459 -94.4184L-11.3442 -94.3904L-11.3615 -94.3898Z" fill="#FAECC8"/>
<path d="M-21.4966 -95.722C-38.4007 -55.2868 -39.8532 -6.79378 -24.772 35.7314C-20.9038 46.7869 -15.8996 57.5611 -10.0564 67.5969C-5.29999 76.0527 0.342714 84.1141 6.08288 91.7891C20.0654 110.288 34.1431 129.344 47.0762 148.683C61.9373 171.422 76.9827 195.876 81.2403 223.571C82.9307 233.354 83.0575 243.237 83.7515 253.035C84.4237 258.843 85.816 264.516 87.4564 270.133C101.006 314.392 134.877 369.021 97.7406 408.502C66.0772 445.613 55.5475 506.476 63.3623 556.442C64.7998 564.103 67.8719 571.41 70.8447 578.655C73.8782 585.898 77.0893 593.069 80.2756 600.26C92.909 629.037 105.747 658.312 110.763 689.719C114.664 714.875 111.842 737.492 95.248 756.059C70.4325 784.154 38.8296 803.909 12.3055 829.903C-18.6611 859.225 -44.666 896.537 -39.1617 944.207C-38.1095 953.769 -36.8575 963.894 -35.1769 973.378C-31.9356 992.65 -26.8521 1011.84 -17.4147 1028.93C-13.6912 1035.84 -9.56097 1042.58 -6.48024 1049.89C-1.77428 1060.89 0.311658 1072.86 1.41897 1084.7C1.57613 1086.68 1.76731 1088.65 1.88983 1090.62L2.22164 1096.54C3.39052 1117.78 -5.86563 1134.95 -22.2465 1146.19C-40.4119 1159 -61.9494 1164.83 -81.4306 1174.74C-94.0852 1181.17 -107.562 1190.84 -109.4 1207.08L-109.655 1207.04C-107.994 1190.58 -94.4765 1180.59 -81.8006 1173.95C-62.4256 1163.73 -41.0889 1157.73 -23.111 1144.83C-4.7616 1131.64 2.31581 1114.57 -0.099639 1090.71C-1.09461 1077.17 -3.04283 1063.37 -8.4696 1050.82C-13.1553 1040 -19.9897 1030.35 -24.6945 1019.51C-34.3614 997.732 -38.2539 973.828 -41.09 950.318C-51.9198 881.091 -1.34278 835.27 44.0936 798.583C64.0386 781.604 94.6887 760.47 105.383 735.569C120.837 694.819 95.2711 639.302 79.0126 600.873C75.8771 593.661 72.7075 586.46 69.7144 579.169C66.7814 571.867 63.7324 564.512 62.2977 556.618C55.5514 511.017 63.3829 459.235 87.0167 421.451C89.4859 417.49 92.3826 413.57 95.2447 409.932C96.8364 408.047 99.0748 405.401 100.62 403.462C110.211 391.971 114.49 376.202 113.262 360.591C110.994 328.895 94.8884 300.627 85.5847 270.719C83.2754 263.125 81.4478 255.187 81.2329 247.242C80.7595 233.586 79.2343 219.891 74.9995 206.839C70.8363 193.821 64.4564 181.561 57.6512 169.857C47.9018 153.327 36.4663 136.742 25.3166 121.269C16.3973 108.758 6.57897 96.1551 -2.32478 83.6152C-11.2742 70.7592 -18.6364 56.6441 -24.3045 41.8739C-35.6836 12.3443 -38.9597 -20.3647 -34.3117 -51.3035C-32.5842 -62.8934 -29.8735 -74.2921 -26.0221 -85.1966C-24.7294 -88.8286 -23.3473 -92.4169 -21.7147 -95.8828L-21.481 -95.7505L-21.4793 -95.7226L-21.4966 -95.722Z" fill="#FAECC8"/>
<path d="M-31.6318 -97.0533C-48.5359 -56.6181 -49.9884 -8.1251 -34.9071 34.4C-31.039 45.4556 -26.0347 56.2298 -20.1916 66.2656C-15.4351 74.7213 -9.79243 82.7827 -4.05227 90.4577C9.93023 108.957 24.008 128.013 36.941 147.351C51.8022 170.091 66.8475 194.544 71.1051 222.24C72.7956 232.023 72.9224 241.905 73.6164 251.704C74.2886 257.512 75.6809 263.184 77.3213 268.801C90.8708 313.06 124.742 367.689 87.6054 407.171C55.942 444.281 45.4124 505.145 53.2271 555.11C54.6646 562.771 57.7367 570.078 60.7096 577.323C63.743 584.566 66.9541 591.738 70.1318 598.929C82.7652 627.706 95.6029 656.981 100.62 688.388C104.52 713.544 101.698 736.161 85.1041 754.728C60.2887 782.823 28.6858 802.578 2.1617 828.572C-28.805 857.894 -54.8098 895.206 -49.3055 942.876C-48.2532 952.438 -47.0013 962.563 -45.3207 972.047C-42.0794 991.319 -36.9959 1010.51 -27.5585 1027.6C-23.835 1034.5 -19.7048 1041.25 -16.624 1048.56C-11.918 1059.56 -9.83216 1071.52 -8.72483 1083.37C-8.5677 1085.35 -8.37651 1087.31 -8.25397 1089.29L-7.92215 1095.21C-6.7533 1116.44 -16.0094 1133.62 -32.3903 1144.86C-50.5557 1157.66 -72.0932 1163.5 -91.5744 1173.41C-104.229 1179.84 -117.705 1189.51 -119.544 1205.75L-119.798 1205.7C-118.138 1189.25 -104.62 1179.26 -91.9444 1172.62C-72.5693 1162.4 -51.2327 1156.4 -33.2548 1143.5C-14.9054 1130.31 -7.82798 1113.24 -10.2434 1089.38C-11.2384 1075.84 -13.1866 1062.04 -18.6134 1049.49C-23.2992 1038.67 -30.1335 1029.02 -34.8383 1018.18C-44.5052 996.401 -48.3978 972.497 -51.2338 948.987C-62.0636 879.76 -11.4866 833.938 33.9498 797.252C53.8948 780.272 84.5363 759.139 95.2393 734.238C110.684 693.488 85.1273 637.971 68.8688 599.542C65.7333 592.33 62.5637 585.129 59.5706 577.838C56.6376 570.536 53.5886 563.181 52.1539 555.287C45.4076 509.686 53.239 457.904 76.8729 420.12C79.3421 416.159 82.2388 412.239 85.1009 408.601C86.6926 406.716 88.931 404.07 90.476 402.131C100.067 390.64 104.346 374.871 103.118 359.26C100.85 327.564 84.7445 299.296 75.4409 269.388C73.1316 261.794 71.304 253.856 71.0891 245.911C70.6157 232.255 69.0904 218.56 64.8557 205.508C60.6925 192.49 54.3126 180.23 47.5074 168.526C37.758 151.996 26.3225 135.411 15.1728 119.938C6.25346 107.427 -3.56486 94.8241 -12.4686 82.2842C-21.418 69.4281 -28.7802 55.3131 -34.4483 40.5429C-45.8274 11.0133 -49.1035 -21.6957 -44.4555 -52.6345C-42.7281 -64.2244 -40.0173 -75.6231 -36.1658 -86.5276C-34.8732 -90.1596 -33.4911 -93.7479 -31.8585 -97.2139L-31.6248 -97.0816L-31.6231 -97.0536L-31.6318 -97.0533Z" fill="#FAECC8"/>
<path d="M-41.767 -98.3829C-58.6711 -57.9478 -60.1236 -9.45475 -45.0423 33.0704C-41.1742 44.1259 -36.17 54.9002 -30.3268 64.936C-25.5704 73.3917 -19.9277 81.4531 -14.1876 89.1281C-0.205053 107.627 13.8727 126.684 26.8058 146.022C41.6669 168.762 56.7123 193.215 60.9699 220.91C62.6603 230.693 62.7871 240.576 63.4811 250.374C64.1533 256.182 65.5456 261.855 67.186 267.472C80.7355 311.731 114.607 366.36 77.4702 405.841C45.8068 442.952 35.2771 503.815 43.0919 553.781C44.5294 561.442 47.6014 568.749 50.5743 575.994C53.6077 583.237 56.8189 590.408 59.9965 597.599C72.6299 626.377 85.4676 655.651 90.4844 687.059C94.3851 712.215 91.5631 734.831 74.9689 753.398C50.1534 781.493 18.5506 801.248 -7.97355 827.243C-38.9402 856.564 -64.945 893.876 -59.4408 941.546C-58.3885 951.108 -57.1366 961.233 -55.4559 970.718C-52.2147 989.99 -47.1311 1009.18 -37.6937 1026.27C-33.9703 1033.17 -29.84 1039.92 -26.7592 1047.23C-22.0533 1058.23 -19.9674 1070.19 -18.8601 1082.04C-18.7029 1084.02 -18.5118 1085.99 -18.3892 1087.96L-18.0574 1093.88C-16.8885 1115.11 -26.1447 1132.29 -42.5256 1143.53C-60.691 1156.33 -82.2285 1162.17 -101.71 1172.08C-114.364 1178.51 -127.841 1188.18 -129.679 1204.42L-129.934 1204.37C-128.274 1187.92 -114.756 1177.93 -102.08 1171.29C-82.7046 1161.07 -61.3679 1155.07 -43.3901 1142.17C-25.0406 1128.98 -17.9632 1111.91 -20.3787 1088.05C-21.3737 1074.51 -23.3219 1060.71 -28.7487 1048.16C-33.4344 1037.34 -40.2687 1027.69 -44.9735 1016.85C-54.6405 995.071 -58.533 971.167 -61.369 947.657C-72.1989 878.431 -21.6218 832.609 23.8145 795.922C43.7595 778.943 74.401 757.809 85.104 732.909C100.549 692.158 74.9921 636.642 58.7336 598.212C55.598 591.001 52.4284 583.8 49.4354 576.509C46.5023 569.206 43.4533 561.852 42.0187 553.957C35.2724 508.357 43.1038 456.574 66.7377 418.791C69.2068 414.829 72.1035 410.91 74.9656 407.271C76.5573 405.386 78.7958 402.741 80.3408 400.801C89.9322 389.311 94.2107 373.542 92.983 357.93C90.715 326.234 74.6093 297.966 65.3056 268.058C62.9963 260.464 61.1687 252.526 60.9539 244.581C60.4805 230.925 58.9552 217.23 54.7204 204.178C50.5572 191.161 44.1773 178.9 37.3722 167.196C27.6227 150.666 16.1872 134.081 5.0375 118.608C-3.88182 106.097 -13.7001 93.4944 -22.6039 80.9545C-31.5532 68.0985 -38.9154 53.9834 -44.5836 39.2132C-55.9627 9.68361 -59.2388 -23.0254 -54.5908 -53.9642C-52.8633 -65.5541 -50.1526 -76.9528 -46.3011 -87.8573C-45.0084 -91.4893 -43.6263 -95.0776 -41.9938 -98.5435L-41.7601 -98.4112L-41.7584 -98.3832L-41.767 -98.3829Z" fill="#FAECC8"/>
<path d="M-51.9022 -99.7117C-68.8063 -59.2766 -70.2588 -10.7835 -55.1775 31.7416C-51.3094 42.7971 -46.3052 53.5714 -40.462 63.6072C-35.7056 72.0629 -30.0629 80.1243 -24.3227 87.7993C-10.3402 106.298 3.73757 125.355 16.6706 144.693C31.5317 167.433 46.5771 191.886 50.8347 219.581C52.5252 229.364 52.652 239.247 53.3459 249.045C54.0182 254.854 55.4105 260.526 57.0509 266.143C70.6004 310.402 104.472 365.031 67.335 404.512C35.6716 441.623 25.1419 502.486 32.9567 552.452C34.3942 560.113 37.4663 567.42 40.4391 574.665C43.4726 581.908 46.6837 589.079 49.87 596.27C62.5034 625.047 75.3412 654.322 80.3579 685.73C84.2587 710.886 81.4366 733.502 64.8424 752.069C40.0269 780.164 8.42402 799.919 -18.1001 825.914C-49.0667 855.235 -75.0716 892.547 -69.5673 940.217C-68.5151 949.779 -67.2631 959.904 -65.5825 969.388C-62.3412 988.661 -57.2577 1007.85 -47.8203 1024.94C-44.0968 1031.85 -39.9665 1038.59 -36.8858 1045.9C-32.1798 1056.9 -30.0939 1068.87 -28.9866 1080.71C-28.8294 1082.69 -28.6383 1084.66 -28.5158 1086.63L-28.184 1092.55C-27.0151 1113.79 -36.2712 1130.97 -52.6521 1142.2C-70.8175 1155.01 -92.355 1160.84 -111.836 1170.75C-124.491 1177.18 -137.967 1186.85 -139.806 1203.09L-140.06 1203.05C-138.4 1186.59 -124.882 1176.6 -112.206 1169.96C-92.8311 1159.74 -71.4944 1153.74 -53.5166 1140.84C-35.1672 1127.65 -28.0898 1110.58 -30.5052 1086.72C-31.5002 1073.18 -33.4484 1059.38 -38.8752 1046.83C-43.5609 1036.01 -50.3953 1026.36 -55.1 1015.52C-64.767 993.742 -68.6595 969.838 -71.4956 946.328C-82.3254 877.102 -31.7483 831.28 13.688 794.593C33.633 777.614 64.2745 756.48 74.9775 731.58C90.4224 690.829 64.8656 635.313 48.607 596.883C45.4715 589.671 42.3019 582.471 39.3089 575.18C36.3758 567.877 33.3268 560.523 31.8921 552.628C25.1458 507.028 32.9773 455.245 56.6112 417.461C59.0803 413.5 61.977 409.58 64.8391 405.942C66.4308 404.057 68.6693 401.412 70.2143 399.472C79.8057 387.982 84.0842 372.213 82.8565 356.601C80.5885 324.905 64.4828 296.637 55.1792 266.729C52.8698 259.135 51.0422 251.197 50.8273 243.252C50.3539 229.596 48.8287 215.901 44.5939 202.849C40.4307 189.832 34.0508 177.571 27.2457 165.867C17.4962 149.337 6.06071 132.752 -5.08899 117.279C-14.0083 104.768 -23.8266 92.1653 -32.7304 79.6255C-41.6797 66.7694 -49.0419 52.6543 -54.7101 37.8841C-66.0892 8.35451 -69.3653 -24.3545 -64.7173 -55.2933C-62.9898 -66.8831 -60.2791 -78.2819 -56.4276 -89.1864C-55.135 -92.8184 -53.7528 -96.4067 -52.1203 -99.8726L-51.8866 -99.7403L-51.8849 -99.7123L-51.9022 -99.7117Z" fill="#FAECC8"/>
<path d="M-62.0293 -101.041C-78.9334 -60.6061 -80.3859 -12.1131 -65.3047 30.4121C-61.4365 41.4676 -56.4323 52.2419 -50.5892 62.2776C-45.8327 70.7334 -40.19 78.7948 -34.4498 86.4698C-20.4673 104.969 -6.38958 124.025 6.54348 143.363C21.4046 166.103 36.45 190.556 40.7076 218.252C42.398 228.035 42.5248 237.917 43.2188 247.716C43.891 253.524 45.2833 259.196 46.9237 264.813C60.4732 309.072 94.3444 363.701 57.2079 403.183C25.5445 440.293 15.0148 501.157 22.8296 551.122C24.2671 558.783 27.3392 566.09 30.312 573.335C33.3454 580.578 36.5566 587.75 39.7429 594.941C52.3763 623.718 65.214 652.993 70.2308 684.4C74.1315 709.556 71.3095 732.172 54.7153 750.739C29.8998 778.835 -1.70309 798.59 -28.2272 824.584C-59.1938 853.905 -85.1987 891.218 -79.6944 938.888C-78.6422 948.449 -77.3902 958.574 -75.7096 968.059C-72.4683 987.331 -67.3848 1006.52 -57.9474 1023.61C-54.2239 1030.52 -50.0937 1037.26 -47.013 1044.57C-42.307 1055.57 -40.2211 1067.54 -39.1137 1079.39C-38.9566 1081.36 -38.7654 1083.33 -38.6429 1085.3L-38.3111 1091.22C-37.1422 1112.46 -46.3983 1129.64 -62.7792 1140.87C-80.9446 1153.68 -102.482 1159.51 -121.963 1169.42C-134.618 1175.85 -148.094 1185.53 -149.933 1201.76L-150.187 1201.72C-148.527 1185.26 -135.009 1175.27 -122.333 1168.63C-102.958 1158.41 -81.6216 1152.41 -63.6437 1139.51C-45.2943 1126.32 -38.2169 1109.25 -40.6324 1085.39C-41.6273 1071.85 -43.5755 1058.05 -49.0023 1045.5C-53.688 1034.68 -60.5224 1025.03 -65.2272 1014.19C-74.8941 992.412 -78.7867 968.509 -81.6227 944.999C-92.4525 875.772 -41.8755 829.95 3.56089 793.263C23.5059 776.284 54.156 755.15 64.8503 730.25C80.3039 689.499 54.7384 633.983 38.4799 595.553C35.3444 588.342 32.1748 581.141 29.1817 573.85C26.2487 566.548 23.1996 559.193 21.765 551.298C15.0187 505.698 22.8501 453.916 46.484 416.132C48.9531 412.171 51.8498 408.251 54.7119 404.613C56.3037 402.728 58.5422 400.082 60.0872 398.142C69.6785 386.652 73.9571 370.883 72.7293 355.272C70.4614 323.575 54.3557 295.308 45.052 265.4C42.7427 257.805 40.9151 249.868 40.7002 241.922C40.2268 228.267 38.7016 214.572 34.4668 201.52C30.3036 188.502 23.9237 176.242 17.1185 164.538C7.36906 148.008 -4.06641 131.423 -15.2161 115.95C-24.1355 103.438 -33.9537 90.8358 -42.8575 78.296C-51.8069 65.4399 -59.1691 51.3248 -64.8373 36.5546C-76.2163 7.02502 -79.4924 -25.684 -74.8444 -56.6228C-73.117 -68.2127 -70.4062 -79.6114 -66.5548 -90.5159C-65.2621 -94.1479 -63.88 -97.7362 -62.2474 -101.202L-62.0137 -101.07L-62.012 -101.042L-62.0293 -101.041Z" fill="#FAECC8"/>
<path d="M-72.1637 -102.373C-89.0678 -61.9375 -90.5203 -13.4445 -75.4391 29.0806C-71.5709 40.1362 -66.5667 50.9104 -60.7235 60.9462C-55.9671 69.4019 -50.3244 77.4634 -44.5842 85.1383C-30.6017 103.637 -16.524 122.694 -3.59093 142.032C11.2702 164.772 26.3156 189.225 30.5732 216.92C32.2636 226.703 32.3904 236.586 33.0844 246.384C33.7566 252.193 35.1489 257.865 36.7893 263.482C50.3389 307.741 84.2101 362.37 47.0735 401.852C15.4101 438.962 4.88037 499.825 12.6952 549.791C14.1327 557.452 17.2048 564.759 20.1776 572.004C23.2111 579.247 26.4222 586.418 29.6085 593.609C42.2419 622.386 55.0796 651.661 60.0964 683.069C63.9971 708.225 61.175 730.841 44.5808 749.408C19.7654 777.503 -11.8375 797.258 -38.3616 823.253C-69.3283 852.574 -95.3331 889.886 -89.8288 937.556C-88.7766 947.118 -87.5246 957.243 -85.844 966.728C-82.6027 986 -77.5191 1005.19 -68.0818 1022.28C-64.3583 1029.18 -60.2281 1035.93 -57.1473 1043.24C-52.4414 1054.24 -50.3554 1066.2 -49.2481 1078.05C-49.091 1080.03 -48.8998 1082 -48.7772 1083.97L-48.4455 1089.89C-47.2766 1111.12 -56.5327 1128.3 -72.9136 1139.54C-91.079 1152.34 -112.617 1158.18 -132.098 1168.09C-144.752 1174.52 -158.229 1184.19 -160.067 1200.43L-160.322 1200.38C-158.662 1183.93 -145.144 1173.94 -132.468 1167.3C-113.093 1157.08 -91.756 1151.08 -73.7781 1138.18C-55.4287 1124.99 -48.3513 1107.92 -50.7667 1084.06C-51.7617 1070.52 -53.7099 1056.72 -59.1367 1044.17C-63.8224 1033.35 -70.6568 1023.7 -75.3616 1012.86C-85.0285 991.081 -88.921 967.177 -91.7571 943.667C-102.587 874.441 -52.0099 828.619 -6.57352 791.932C13.3715 774.953 44.021 753.81 54.716 728.919C70.1695 688.168 44.604 632.652 28.3456 594.222C25.21 587.011 22.0404 579.81 19.0473 572.519C16.1143 565.216 13.0653 557.862 11.6306 549.967C4.88434 504.367 12.7158 452.584 36.3496 414.801C38.8188 410.839 41.7154 406.92 44.5776 403.281C46.1693 401.396 48.4078 398.751 49.9528 396.811C59.5441 385.321 63.8227 369.552 62.5949 353.94C60.327 322.244 44.2213 293.976 34.9176 264.068C32.6083 256.474 30.7807 248.536 30.5658 240.591C30.0924 226.935 28.5672 213.24 24.3324 200.188C20.1692 187.171 13.7893 174.91 6.98415 163.206C-2.76532 146.676 -14.2008 130.091 -25.3505 114.618C-34.2698 102.107 -44.0881 89.5044 -52.9919 76.9645C-61.9412 64.1085 -69.3034 49.9934 -74.9716 35.2232C-86.3507 5.69358 -89.6268 -27.0154 -84.9788 -57.9542C-83.2513 -69.5441 -80.5406 -80.9428 -76.6892 -91.8473C-75.3965 -95.4793 -74.0144 -99.0676 -72.3818 -102.534L-72.1481 -102.401L-72.1464 -102.373L-72.1637 -102.373Z" fill="#FAECC8"/>
<path d="M-82.2988 -103.705C-99.2029 -63.2695 -100.655 -14.7764 -85.5742 27.7487C-81.706 38.8042 -76.7018 49.5785 -70.8586 59.6143C-66.1022 68.07 -60.4595 76.1314 -54.7193 83.8064C-40.7368 102.305 -26.6591 121.362 -13.726 140.7C1.13511 163.44 16.1805 187.893 20.4381 215.588C22.1285 225.371 22.2553 235.254 22.9493 245.052C23.6215 250.861 25.0138 256.533 26.6542 262.15C40.2037 306.409 74.075 361.038 36.9384 400.52C5.27495 437.63 -5.25471 498.493 2.56005 548.459C3.99757 556.12 7.06967 563.427 10.0425 570.672C13.0759 577.915 16.2871 585.086 19.4648 592.278C32.0981 621.055 44.9358 650.33 49.9526 681.737C53.8533 706.893 51.0313 729.509 34.4371 748.076C9.62165 776.172 -21.9812 795.927 -48.5054 821.921C-79.472 851.242 -105.477 888.555 -99.9726 936.224C-98.9203 945.786 -97.6683 955.911 -95.9877 965.396C-92.7465 984.668 -87.6629 1003.86 -78.2256 1020.95C-74.5021 1027.85 -70.3718 1034.6 -67.2911 1041.91C-62.5851 1052.91 -60.4992 1064.87 -59.3919 1076.72C-59.2348 1078.7 -59.0435 1080.66 -58.921 1082.64L-58.5892 1088.55C-57.4204 1109.79 -66.6765 1126.97 -83.0574 1138.21C-101.223 1151.01 -122.76 1156.85 -142.241 1166.76C-154.896 1173.18 -168.373 1182.86 -170.211 1199.1L-170.465 1199.05C-168.805 1182.6 -155.287 1172.61 -142.611 1165.97C-123.236 1155.75 -101.9 1149.75 -83.9218 1136.85C-65.5725 1123.66 -58.495 1106.59 -60.9105 1082.73C-61.9055 1069.19 -63.8537 1055.39 -69.2805 1042.83C-73.9662 1032.02 -80.8005 1022.36 -85.5053 1011.52C-95.1722 989.749 -99.0648 965.845 -101.901 942.336C-112.731 873.109 -62.1537 827.287 -16.7173 790.6C3.2277 773.621 33.8692 752.488 44.5722 727.587C60.017 686.837 34.4603 631.32 18.2018 592.89C15.0662 585.679 11.8966 578.478 8.90356 571.187C5.97053 563.885 2.9215 556.53 1.48687 548.635C-5.25945 503.035 2.57198 451.253 26.2058 413.469C28.675 409.508 31.5717 405.588 34.4338 401.95C36.0255 400.064 38.264 397.419 39.809 395.479C49.4003 383.989 53.6789 368.22 52.4512 352.609C50.1832 320.912 34.0775 292.645 24.7738 262.737C22.4645 255.142 20.6369 247.205 20.422 239.259C19.9486 225.604 18.4234 211.909 14.1886 198.856C10.0254 185.839 3.64549 173.579 -3.15965 161.874C-12.9091 145.345 -24.3445 128.76 -35.4943 113.287C-44.4136 100.775 -54.2319 88.1727 -63.1357 75.6329C-72.085 62.7768 -79.4472 48.6618 -85.1154 33.8915C-96.4945 4.36192 -99.7706 -28.3471 -95.1226 -59.2859C-93.3951 -70.8758 -90.6844 -82.2745 -86.8329 -93.179C-85.5402 -96.811 -84.1581 -100.399 -82.5256 -103.865L-82.2919 -103.733L-82.2902 -103.705L-82.2988 -103.705Z" fill="#FAECC8"/>
<path d="M-92.4341 -105.034C-109.338 -64.5985 -110.791 -16.1054 -95.7095 26.4197C-91.8413 37.4752 -86.8371 48.2495 -80.994 58.2852C-76.2375 66.741 -70.5948 74.8024 -64.8546 82.4774C-50.8721 100.976 -36.7944 120.033 -23.8613 139.371C-9.00021 162.111 6.04516 186.564 10.3028 214.259C11.9932 224.042 12.12 233.925 12.814 243.723C13.4862 249.532 14.8785 255.204 16.5189 260.821C30.0684 305.08 63.9397 359.709 26.8031 399.191C-4.86034 436.301 -15.39 497.164 -7.57527 547.13C-6.13774 554.791 -3.06565 562.098 -0.0928005 569.343C2.94063 576.586 6.15177 583.757 9.32944 590.949C21.9629 619.726 34.8006 649.001 39.8173 680.408C43.7181 705.564 40.896 728.18 24.3018 746.747C-0.513659 774.843 -32.1165 794.598 -58.6407 820.592C-89.6073 849.913 -115.612 887.226 -110.108 934.895C-109.056 944.457 -107.804 954.582 -106.123 964.067C-102.882 983.339 -97.7982 1002.53 -88.3609 1019.62C-84.6374 1026.52 -80.5071 1033.27 -77.4264 1040.58C-72.7204 1051.58 -70.6345 1063.54 -69.5272 1075.39C-69.37 1077.37 -69.1789 1079.33 -69.0563 1081.31L-68.7245 1087.22C-67.5556 1108.46 -76.8118 1125.64 -93.1927 1136.88C-111.358 1149.68 -132.896 1155.52 -152.377 1165.43C-165.031 1171.86 -178.508 1181.53 -180.346 1197.77L-180.601 1197.72C-178.941 1181.27 -165.423 1171.28 -152.747 1164.64C-133.372 1154.42 -112.035 1148.42 -94.0571 1135.52C-75.7077 1122.33 -68.6303 1105.26 -71.0458 1081.4C-72.0408 1067.86 -73.989 1054.06 -79.4157 1041.51C-84.1015 1030.69 -90.9358 1021.04 -95.6406 1010.2C-105.308 988.42 -109.2 964.516 -112.036 941.007C-122.866 871.78 -72.2889 825.958 -26.8526 789.271C-6.90758 772.292 23.7339 751.159 34.4369 726.258C49.8818 685.508 24.325 629.991 8.06648 591.561C4.93091 584.35 1.76129 577.149 -1.23176 569.858C-4.16478 562.556 -7.21381 555.201 -8.64844 547.306C-15.3948 501.706 -7.56334 449.924 16.0706 412.14C18.5397 408.179 21.4364 404.259 24.2985 400.621C25.8902 398.735 28.1287 396.09 29.6737 394.15C39.2651 382.66 43.5436 366.891 42.3159 351.28C40.0479 319.583 23.9422 291.316 14.6386 261.408C12.3292 253.813 10.5016 245.876 10.2867 237.93C9.81336 224.275 8.2881 210.58 4.05332 197.527C-0.109882 184.51 -6.48982 172.25 -13.295 160.545C-23.0444 144.016 -34.4799 127.431 -45.6296 111.958C-54.5489 99.4462 -64.3672 86.8437 -73.271 74.3038C-82.2203 61.4478 -89.5825 47.3327 -95.2507 32.5625C-106.63 3.0329 -109.906 -29.6761 -105.258 -60.6149C-103.53 -72.2048 -100.82 -83.6035 -96.9682 -94.508C-95.6755 -98.14 -94.2934 -101.728 -92.6609 -105.194L-92.4272 -105.062L-92.4255 -105.034L-92.4341 -105.034Z" fill="#FAECC8"/>
<path d="M-102.569 -106.363C-119.474 -65.9278 -120.926 -17.4348 -105.845 25.0904C-101.977 36.1459 -96.9724 46.9202 -91.1293 56.9559C-86.3728 65.4117 -80.7302 73.4731 -74.99 81.1481C-61.0075 99.647 -46.9297 118.704 -33.9967 138.042C-19.1356 160.782 -4.0902 185.235 0.167407 212.93C1.85786 222.713 1.98469 232.596 2.67867 242.394C3.35088 248.202 4.74318 253.875 6.38358 259.492C19.9331 303.751 53.8043 358.38 16.6678 397.861C-14.9957 434.972 -25.5254 495.835 -17.7106 545.801C-16.2731 553.462 -13.201 560.769 -10.2282 568.014C-7.19473 575.257 -3.98356 582.428 -0.805888 589.619C11.8275 618.396 24.6652 647.671 29.682 679.079C33.5827 704.235 30.7606 726.851 14.1664 745.418C-10.649 773.513 -42.2519 793.268 -68.776 819.263C-99.7427 848.584 -125.747 885.896 -120.243 933.566C-119.191 943.128 -117.939 953.253 -116.258 962.738C-113.017 982.01 -107.934 1001.2 -98.4962 1018.29C-94.7727 1025.19 -90.6425 1031.94 -87.5617 1039.25C-82.8558 1050.25 -80.7698 1062.21 -79.6625 1074.06C-79.5054 1076.04 -79.3142 1078.01 -79.1916 1079.98L-78.8599 1085.9C-77.691 1107.13 -86.9471 1124.31 -103.328 1135.55C-121.493 1148.35 -143.031 1154.19 -162.512 1164.1C-175.167 1170.53 -188.643 1180.2 -190.482 1196.44L-190.736 1196.39C-189.076 1179.94 -175.558 1169.95 -162.882 1163.31C-143.507 1153.09 -122.17 1147.09 -104.193 1134.19C-85.8431 1121 -78.7657 1103.93 -81.1811 1080.07C-82.1761 1066.53 -84.1243 1052.73 -89.5511 1040.18C-94.2368 1029.36 -101.071 1019.71 -105.776 1008.87C-115.443 987.091 -119.335 963.187 -122.171 939.677C-133.001 870.451 -82.4243 824.629 -36.9879 787.942C-17.0429 770.963 13.5985 749.829 24.3016 724.929C39.7464 684.178 14.1896 628.662 -2.06888 590.232C-5.20445 583.02 -8.37401 575.82 -11.3671 568.529C-14.3001 561.226 -17.3491 553.872 -18.7838 545.977C-25.5301 500.377 -17.6987 448.594 5.93521 410.811C8.40437 406.849 11.301 402.93 14.1632 399.291C15.7549 397.406 17.9934 394.761 19.5384 392.821C29.1297 381.331 33.4082 365.562 32.1805 349.95C29.9126 318.254 13.8069 289.986 4.5032 260.078C2.19386 252.484 0.366276 244.546 0.151397 236.601C-0.322004 222.945 -1.84723 209.25 -6.08198 196.198C-10.2452 183.181 -16.6252 170.92 -23.4303 159.216C-33.1798 142.686 -44.6152 126.101 -55.7649 110.628C-64.6843 98.1169 -74.5026 85.5144 -83.4063 72.9745C-92.3557 60.1185 -99.7179 46.0034 -105.386 31.2332C-116.765 1.70359 -120.041 -31.0054 -115.393 -61.9442C-113.666 -73.5341 -110.955 -84.9328 -107.104 -95.8373C-105.811 -99.4693 -104.429 -103.058 -102.796 -106.524L-102.563 -106.391L-102.561 -106.363L-102.569 -106.363Z" fill="#FAECC8"/>
<path d="M-112.697 -107.69C-129.601 -67.255 -131.053 -18.7619 -115.972 23.7632C-112.104 34.8188 -107.099 45.593 -101.256 55.6288C-96.4999 64.0845 -90.8572 72.1459 -85.1171 79.8209C-71.1346 98.3199 -57.0568 117.376 -44.1238 136.714C-29.2626 159.454 -14.2172 183.908 -9.95964 211.603C-8.26919 221.386 -8.14239 231.269 -7.44841 241.067C-6.7762 246.875 -5.38389 252.547 -3.74349 258.165C9.80602 302.423 43.6773 357.052 6.54068 396.534C-25.1227 433.645 -35.6524 494.508 -27.8376 544.474C-26.4001 552.135 -23.3281 559.442 -20.3552 566.687C-17.3218 573.929 -14.1106 581.101 -10.9243 588.292C1.7091 617.069 14.5468 646.344 19.5635 677.751C23.4643 702.907 20.6422 725.524 4.04801 744.091C-20.7674 772.186 -52.3703 791.941 -78.8944 817.935C-109.861 847.257 -135.866 884.569 -130.362 932.239C-129.309 941.8 -128.057 951.926 -126.377 961.41C-123.136 980.682 -118.052 999.874 -108.615 1016.97C-104.891 1023.87 -100.761 1030.62 -97.6801 1037.92C-92.9742 1048.92 -90.8883 1060.89 -89.7809 1072.74C-89.6238 1074.71 -89.4326 1076.68 -89.3101 1078.65L-88.9783 1084.57C-87.8094 1105.81 -97.0655 1122.99 -113.446 1134.22C-131.612 1147.03 -153.149 1152.86 -172.631 1162.77C-185.285 1169.2 -198.762 1178.88 -200.6 1195.11L-200.854 1195.07C-199.194 1178.61 -185.676 1168.62 -173 1161.98C-153.625 1151.76 -132.289 1145.76 -114.311 1132.87C-95.9615 1119.67 -88.8841 1102.6 -91.2996 1078.74C-92.2945 1065.21 -94.2427 1051.4 -99.6695 1038.85C-104.355 1028.04 -111.19 1018.38 -115.894 1007.54C-125.561 985.764 -129.454 961.86 -132.29 938.35C-143.12 869.123 -92.5427 823.301 -47.1064 786.614C-27.1614 769.635 3.48014 748.502 14.1832 723.601C29.6367 682.851 4.07123 627.334 -12.1873 588.905C-15.3228 581.693 -18.4924 574.492 -21.4855 567.201C-24.4185 559.899 -27.4675 552.544 -28.9022 544.65C-35.6485 499.049 -27.8171 447.267 -4.18319 409.483C-1.71403 405.522 1.18264 401.602 4.04476 397.964C5.63648 396.079 7.87497 393.433 9.41995 391.494C19.0113 380.003 23.2899 364.234 22.0621 348.623C19.7942 316.927 3.68847 288.659 -5.6152 258.751C-7.92454 251.157 -9.75212 243.219 -9.967 235.274C-10.4404 221.618 -11.9657 207.923 -16.2004 194.871C-20.3636 181.853 -26.7436 169.593 -33.5487 157.889C-43.2982 141.359 -54.7336 124.774 -65.8833 109.301C-74.8027 96.7895 -84.621 84.187 -93.5247 71.6471C-102.474 58.791 -109.836 44.676 -115.504 29.9058C-126.884 0.376164 -130.16 -32.3328 -125.512 -63.2716C-123.784 -74.8615 -121.073 -86.2602 -117.222 -97.1647C-115.929 -100.797 -114.547 -104.385 -112.915 -107.851L-112.681 -107.719L-112.679 -107.691L-112.697 -107.69Z" fill="#FAECC8"/>
<path d="M-122.832 -109.022C-139.736 -68.5864 -141.188 -20.0934 -126.107 22.4318C-122.239 33.4873 -117.235 44.2616 -111.391 54.2974C-106.635 62.7531 -100.992 70.8145 -95.2522 78.4895C-81.2697 96.9885 -67.1919 116.045 -54.2589 135.383C-39.3977 158.123 -24.3524 182.576 -20.0947 210.271C-18.4043 220.054 -18.2775 229.937 -17.5835 239.735C-16.9113 245.544 -15.519 251.216 -13.8786 256.833C-0.329086 301.092 33.5421 355.721 -3.59445 395.203C-35.2579 432.313 -45.7875 493.176 -37.9728 543.142C-36.5353 550.803 -33.4632 558.11 -30.4903 565.355C-27.4569 572.598 -24.2457 579.769 -21.0594 586.96C-8.42601 615.738 4.4117 645.012 9.42842 676.42C13.3292 701.576 10.5071 724.192 -6.0871 742.759C-30.9025 770.855 -62.5054 790.609 -89.0295 816.604C-119.996 845.925 -146.001 883.237 -140.497 930.907C-139.444 940.469 -138.193 950.594 -136.512 960.079C-133.271 979.351 -128.187 998.542 -118.75 1015.63C-115.026 1022.54 -110.896 1029.28 -107.815 1036.59C-103.109 1047.59 -101.023 1059.56 -99.9161 1071.41C-99.7589 1073.38 -99.5677 1075.35 -99.4452 1077.32L-99.1134 1083.24C-97.9445 1104.48 -107.201 1121.66 -123.582 1132.89C-141.747 1145.7 -163.284 1151.53 -182.766 1161.44C-195.42 1167.87 -208.897 1177.54 -210.735 1193.78L-210.99 1193.74C-209.33 1177.28 -195.812 1167.29 -183.136 1160.65C-163.761 1150.43 -142.424 1144.43 -124.446 1131.53C-106.097 1118.34 -99.0192 1101.27 -101.435 1077.41C-102.43 1063.87 -104.378 1050.07 -109.805 1037.52C-114.49 1026.7 -121.325 1017.05 -126.03 1006.21C-135.696 984.432 -139.589 960.528 -142.425 937.019C-153.255 867.792 -102.678 821.97 -57.2415 785.283C-37.2964 768.304 -6.64632 747.17 4.04803 722.27C19.5016 681.519 -6.06391 626.003 -22.3224 587.573C-25.458 580.362 -28.6276 573.161 -31.6206 565.87C-34.5536 558.567 -37.6027 551.213 -39.0373 543.318C-45.7836 497.718 -37.9522 445.935 -14.3183 408.152C-11.8492 404.19 -8.95247 400.271 -6.09038 396.633C-4.49863 394.747 -2.26017 392.102 -0.715183 390.162C8.87619 378.672 13.1547 362.903 11.927 347.291C9.65906 315.595 -6.44667 287.327 -15.7503 257.42C-18.0597 249.825 -19.8873 241.887 -20.1021 233.942C-20.5755 220.287 -22.1008 206.592 -26.3355 193.539C-30.4987 180.522 -36.8787 168.261 -43.6838 156.557C-53.4333 140.028 -64.8687 123.443 -76.0184 107.969C-84.9378 95.458 -94.7561 82.8555 -103.66 70.3157C-112.609 57.4596 -119.971 43.3446 -125.64 28.5744C-137.019 -0.955278 -140.295 -33.6643 -135.647 -64.6031C-133.919 -76.1929 -131.209 -87.5917 -127.357 -98.4962C-126.064 -102.128 -124.682 -105.716 -123.05 -109.182L-122.816 -109.05L-122.814 -109.022L-122.832 -109.022Z" fill="#FAECC8"/>
<path d="M-132.967 -110.353C-149.871 -69.9176 -151.323 -21.4245 -136.242 21.1006C-132.374 32.1561 -127.37 42.9304 -121.527 52.9662C-116.77 61.4219 -111.128 69.4833 -105.387 77.1583C-91.4049 95.6573 -77.3271 114.714 -64.3941 134.052C-49.5329 156.792 -34.4876 181.245 -30.23 208.94C-28.5395 218.723 -28.4127 228.606 -27.7187 238.404C-27.0465 244.213 -25.6542 249.885 -24.0138 255.502C-10.4643 299.761 23.4069 354.39 -13.7296 393.871C-45.3931 430.982 -55.9228 491.845 -48.108 541.811C-46.6705 549.472 -43.5984 556.779 -40.6255 564.024C-37.5921 571.267 -34.381 578.438 -31.1946 585.629C-18.5612 614.406 -5.72351 643.681 -0.706796 675.089C3.19398 700.245 0.371913 722.861 -16.2223 741.428C-41.0377 769.523 -72.6406 789.278 -99.1648 815.273C-130.131 844.594 -156.136 881.906 -150.632 929.576C-149.58 939.138 -148.328 949.263 -146.647 958.747C-143.406 978.02 -138.322 997.211 -128.885 1014.3C-125.161 1021.2 -121.031 1027.95 -117.95 1035.26C-113.244 1046.26 -111.159 1058.22 -110.051 1070.07C-109.894 1072.05 -109.703 1074.02 -109.58 1075.99L-109.249 1081.91C-108.08 1103.14 -117.336 1120.32 -133.717 1131.56C-151.882 1144.36 -173.42 1150.2 -192.901 1160.11C-205.555 1166.54 -219.032 1176.21 -220.87 1192.45L-221.125 1192.4C-219.465 1175.95 -205.947 1165.96 -193.271 1159.32C-173.896 1149.1 -152.559 1143.1 -134.581 1130.2C-116.232 1117.01 -109.154 1099.94 -111.57 1076.08C-112.565 1062.54 -114.513 1048.74 -119.94 1036.19C-124.626 1025.37 -131.46 1015.72 -136.165 1004.88C-145.832 983.101 -149.724 959.197 -152.56 935.687C-163.39 866.461 -112.813 820.639 -67.3767 783.952C-47.4317 766.973 -16.7821 745.83 -6.08718 720.939C9.36635 680.188 -16.1991 624.672 -32.4576 586.242C-35.5931 579.03 -38.7628 571.83 -41.7558 564.539C-44.6888 557.236 -47.7379 549.882 -49.1725 541.987C-55.9188 496.387 -48.0874 444.604 -24.4535 406.82C-21.9844 402.859 -19.0877 398.939 -16.2256 395.301C-14.6338 393.416 -12.3953 390.771 -10.8504 388.831C-1.25899 377.341 3.01955 361.572 1.79183 345.96C-0.476157 314.264 -16.5818 285.996 -25.8855 256.088C-28.1949 248.494 -30.0224 240.556 -30.2373 232.611C-30.7107 218.955 -32.236 205.26 -36.4707 192.208C-40.6339 179.191 -47.0139 166.93 -53.819 155.226C-63.5685 138.696 -75.0039 122.111 -86.1537 106.638C-95.073 94.1268 -104.891 81.5243 -113.795 68.9845C-122.744 56.1284 -130.107 42.0133 -135.775 27.2431C-147.154 -2.28648 -150.43 -34.9955 -145.782 -65.9343C-144.054 -77.5241 -141.344 -88.9229 -137.492 -99.8274C-136.2 -103.459 -134.817 -107.048 -133.185 -110.514L-132.951 -110.381L-132.95 -110.353L-132.967 -110.353Z" fill="#FAECC8"/>
<path d="M-143.101 -111.685C-160.005 -71.2495 -161.458 -22.7564 -146.377 19.7687C-142.508 30.8243 -137.504 41.5985 -131.661 51.6343C-126.905 60.09 -121.262 68.1514 -115.522 75.8264C-101.539 94.3254 -87.4615 113.382 -74.5284 132.72C-59.6673 155.46 -44.622 179.913 -40.3643 207.608C-38.6739 217.391 -38.5471 227.274 -37.8531 237.072C-37.1809 242.881 -35.7886 248.553 -34.1482 254.17C-20.5987 298.429 13.2726 353.058 -23.864 392.54C-55.5274 429.65 -66.0571 490.513 -58.2424 540.479C-56.8049 548.14 -53.7328 555.447 -50.7599 562.692C-47.7265 569.935 -44.5153 577.106 -41.3376 584.298C-28.7043 613.075 -15.8665 642.35 -10.8498 673.757C-6.94903 698.913 -9.77109 721.529 -26.3653 740.096C-51.1807 768.192 -82.7836 787.947 -109.308 813.941C-140.274 843.262 -166.279 880.575 -160.775 928.245C-159.723 937.806 -158.471 947.931 -156.79 957.416C-153.549 976.688 -148.465 995.88 -139.028 1012.97C-135.304 1019.87 -131.174 1026.62 -128.093 1033.93C-123.388 1044.93 -121.302 1056.89 -120.194 1068.74C-120.037 1070.72 -119.846 1072.68 -119.723 1074.66L-119.392 1080.57C-118.223 1101.81 -127.479 1118.99 -143.86 1130.23C-162.025 1143.03 -183.563 1148.87 -203.044 1158.78C-215.698 1165.2 -229.175 1174.88 -231.013 1191.12L-231.268 1191.07C-229.608 1174.62 -216.09 1164.63 -203.414 1157.99C-184.039 1147.77 -162.702 1141.77 -144.724 1128.87C-126.375 1115.68 -119.297 1098.61 -121.713 1074.75C-122.708 1061.21 -124.656 1047.41 -130.083 1034.85C-134.769 1024.04 -141.603 1014.38 -146.308 1003.54C-155.975 981.769 -159.867 957.865 -162.703 934.356C-173.533 865.129 -122.956 819.307 -77.5197 782.62C-57.5747 765.641 -26.9332 744.508 -16.2302 719.607C-0.785328 678.857 -26.3422 623.34 -42.6006 584.91C-45.7362 577.699 -48.9058 570.498 -51.8988 563.207C-54.8319 555.905 -57.8809 548.55 -59.3156 540.655C-66.0619 495.055 -58.2304 443.273 -34.5965 405.489C-32.1274 401.528 -29.2307 397.608 -26.3686 393.97C-24.7769 392.084 -22.5384 389.439 -20.9934 387.499C-11.402 376.009 -7.12351 360.24 -8.35123 344.629C-10.6192 312.932 -26.7249 284.665 -36.0286 254.757C-38.3379 247.162 -40.1655 239.225 -40.3804 231.279C-40.8538 217.624 -42.379 203.929 -46.6138 190.876C-50.777 177.859 -57.1569 165.599 -63.962 153.895C-73.7115 137.365 -85.147 120.78 -96.2967 105.307C-105.216 92.7952 -115.034 80.1928 -123.938 67.6529C-132.887 54.7968 -140.25 40.6818 -145.918 25.9116C-157.297 -3.61804 -160.573 -36.327 -155.925 -67.2658C-154.197 -78.8557 -151.487 -90.2544 -147.635 -101.159C-146.343 -104.791 -144.961 -108.379 -143.328 -111.845L-143.094 -111.713L-143.093 -111.685L-143.101 -111.685Z" fill="#FAECC8"/>
<path d="M-153.237 -113.014C-170.141 -72.5785 -171.593 -24.0854 -156.512 18.4397C-152.644 29.4952 -147.639 40.2695 -141.796 50.3053C-137.04 58.761 -131.397 66.8224 -125.657 74.4974C-111.675 92.9964 -97.5968 112.053 -84.6637 131.391C-69.8026 154.131 -54.7572 178.584 -50.4996 206.279C-48.8091 216.062 -48.6824 225.945 -47.9884 235.743C-47.3162 241.552 -45.9239 247.224 -44.2835 252.841C-30.7339 297.1 3.13727 351.729 -33.9993 391.211C-65.6627 428.321 -76.1924 489.184 -68.3776 539.15C-66.9401 546.811 -63.868 554.118 -60.8952 561.363C-57.8617 568.606 -54.6506 575.777 -51.4729 582.969C-38.8395 611.746 -26.0018 641.021 -20.9851 672.428C-17.0843 697.584 -19.9064 720.2 -36.5006 738.767C-61.316 766.863 -92.9189 786.618 -119.443 812.612C-150.41 841.933 -176.415 879.246 -170.91 926.916C-169.858 936.477 -168.606 946.602 -166.925 956.087C-163.684 975.359 -158.601 994.551 -149.163 1011.64C-145.44 1018.54 -141.31 1025.29 -138.229 1032.6C-133.523 1043.6 -131.437 1055.56 -130.33 1067.41C-130.172 1069.39 -129.981 1071.35 -129.859 1073.33L-129.527 1079.24C-128.358 1100.48 -137.614 1117.66 -153.995 1128.9C-172.16 1141.7 -193.698 1147.54 -213.179 1157.45C-225.834 1163.88 -239.31 1173.55 -241.149 1189.79L-241.403 1189.74C-239.743 1173.29 -226.225 1163.3 -213.549 1156.66C-194.174 1146.44 -172.837 1140.44 -154.86 1127.54C-136.51 1114.35 -129.433 1097.28 -131.848 1073.42C-132.843 1059.88 -134.791 1046.08 -140.218 1033.53C-144.904 1022.71 -151.738 1013.06 -156.443 1002.22C-166.11 980.44 -170.002 956.536 -172.839 933.027C-183.668 863.8 -133.091 817.978 -87.655 781.291C-67.71 764.312 -37.0685 743.179 -26.3655 718.278C-10.9206 677.528 -36.4774 622.011 -52.7359 583.581C-55.8715 576.37 -59.0411 569.169 -62.0341 561.878C-64.9671 554.576 -68.0162 547.221 -69.4508 539.326C-76.1971 493.726 -68.3657 441.944 -44.7318 404.16C-42.2627 400.199 -39.366 396.279 -36.5039 392.641C-34.9122 390.755 -32.6737 388.11 -31.1287 386.17C-21.5373 374.68 -17.2588 358.911 -18.4865 343.3C-20.7545 311.603 -36.8602 283.336 -46.1638 253.428C-48.4732 245.833 -50.3008 237.896 -50.5157 229.95C-50.989 216.295 -52.5143 202.6 -56.7491 189.547C-60.9123 176.53 -67.2922 164.27 -74.0973 152.565C-83.8468 136.036 -95.2822 119.451 -106.432 103.978C-115.351 91.4662 -125.17 78.8637 -134.073 66.3239C-143.023 53.4678 -150.385 39.3528 -156.053 24.5826C-167.432 -4.94707 -170.708 -37.656 -166.06 -68.5949C-164.333 -80.1847 -161.622 -91.5835 -157.771 -102.488C-156.478 -106.12 -155.096 -109.708 -153.463 -113.174L-153.23 -113.042L-153.228 -113.014L-153.237 -113.014Z" fill="#FAECC8"/>
<path d="M-163.364 -114.341C-180.268 -73.9062 -181.721 -25.4131 -166.64 17.112C-162.772 28.1675 -157.767 38.9418 -151.924 48.9776C-147.168 57.4333 -141.525 65.4947 -135.785 73.1697C-121.802 91.6687 -107.725 110.725 -94.7916 130.063C-79.9304 152.803 -64.8851 177.256 -60.6275 204.951C-58.937 214.735 -58.8102 224.617 -58.1162 234.415C-57.444 240.224 -56.0517 245.896 -54.4113 251.513C-40.8618 295.772 -6.99057 350.401 -44.1271 389.883C-75.7906 426.993 -86.3202 487.857 -78.5055 537.822C-77.068 545.483 -73.9959 552.79 -71.023 560.035C-67.9896 567.278 -64.7785 574.45 -61.6008 581.641C-48.9674 610.418 -36.1297 639.693 -31.1129 671.1C-27.2122 696.256 -30.0342 718.873 -46.6284 737.44C-71.4439 765.535 -103.047 785.29 -129.571 811.284C-160.538 840.606 -186.542 877.918 -181.038 925.588C-179.986 935.15 -178.734 945.275 -177.053 954.759C-173.812 974.031 -168.728 993.223 -159.291 1010.31C-155.568 1017.22 -151.437 1023.96 -148.357 1031.27C-143.651 1042.27 -141.565 1054.24 -140.457 1066.09C-140.3 1068.06 -140.109 1070.03 -139.987 1072L-139.655 1077.92C-138.486 1099.16 -147.742 1116.34 -164.123 1127.57C-182.288 1140.38 -203.826 1146.21 -223.307 1156.12C-235.962 1162.55 -249.438 1172.23 -251.276 1188.46L-251.531 1188.42C-249.871 1171.96 -236.353 1161.97 -223.677 1155.33C-204.302 1145.11 -182.965 1139.11 -164.987 1126.22C-146.638 1113.02 -139.561 1095.95 -141.976 1072.09C-142.971 1058.55 -144.919 1044.75 -150.346 1032.2C-155.032 1021.38 -161.866 1011.73 -166.571 1000.89C-176.238 979.113 -180.13 955.209 -182.966 931.699C-193.796 862.472 -143.219 816.65 -97.7828 779.964C-77.8378 762.984 -47.1963 741.851 -36.4933 716.95C-21.0485 676.2 -46.6053 620.683 -62.8638 582.254C-65.9993 575.042 -69.1689 567.841 -72.1619 560.55C-75.095 553.248 -78.144 545.893 -79.5787 537.999C-86.325 492.398 -78.4936 440.616 -54.8597 402.832C-52.3905 398.871 -49.4938 394.951 -46.6317 391.313C-45.04 389.428 -42.8015 386.782 -41.2565 384.843C-31.6652 373.352 -27.3866 357.583 -28.6144 341.972C-30.8823 310.276 -46.988 282.008 -56.2917 252.1C-58.601 244.506 -60.4286 236.568 -60.6435 228.623C-61.1169 214.967 -62.6421 201.272 -66.8769 188.22C-71.0401 175.202 -77.42 162.942 -84.2252 151.238C-93.9746 134.708 -105.41 118.123 -116.56 102.65C-125.479 90.1385 -135.297 77.536 -144.201 64.9962C-153.151 52.1401 -160.513 38.0251 -166.181 23.2548C-177.56 -6.27478 -180.836 -38.9838 -176.188 -69.9226C-174.461 -81.5124 -171.75 -92.9112 -167.898 -103.816C-166.606 -107.448 -165.224 -111.036 -163.591 -114.502L-163.357 -114.37L-163.356 -114.342L-163.364 -114.341Z" fill="#FAECC8"/>
<path d="M-173.5 -115.67C-190.404 -75.2353 -191.856 -26.7423 -176.775 15.7829C-172.907 26.8384 -167.903 37.6127 -162.059 47.6484C-157.303 56.1042 -151.66 64.1656 -145.92 71.8405C-131.938 90.3395 -117.86 109.396 -104.927 128.734C-90.0657 151.474 -75.0204 175.927 -70.7627 203.622C-69.0723 213.406 -68.9455 223.288 -68.2515 233.086C-67.5793 238.895 -66.187 244.567 -64.5466 250.184C-50.9971 294.443 -17.1259 349.072 -54.2624 388.554C-85.9259 425.664 -96.4555 486.528 -88.6408 536.493C-87.2033 544.154 -84.1311 551.461 -81.1583 558.706C-78.1249 565.949 -74.9137 573.121 -71.7274 580.312C-59.094 609.089 -46.2563 638.364 -41.2396 669.771C-37.3388 694.927 -40.1609 717.543 -56.7551 736.11C-81.5705 764.206 -113.173 783.961 -139.698 809.955C-170.664 839.276 -196.669 876.589 -191.165 924.258C-190.112 933.82 -188.861 943.945 -187.18 953.43C-183.939 972.702 -178.855 991.893 -169.418 1008.98C-165.694 1015.89 -161.564 1022.63 -158.483 1029.94C-153.777 1040.94 -151.691 1052.91 -150.584 1064.76C-150.427 1066.73 -150.236 1068.7 -150.113 1070.67L-149.781 1076.59C-148.613 1097.83 -157.869 1115.01 -174.25 1126.24C-192.415 1139.05 -213.952 1144.88 -233.434 1154.79C-246.088 1161.22 -259.565 1170.9 -261.403 1187.13L-261.658 1187.09C-259.998 1170.63 -246.48 1160.64 -233.804 1154C-214.429 1143.78 -193.092 1137.78 -175.114 1124.89C-156.765 1111.69 -149.687 1094.62 -152.103 1070.76C-153.098 1057.22 -155.046 1043.42 -160.473 1030.87C-165.158 1020.06 -171.993 1010.4 -176.698 999.558C-186.364 977.783 -190.257 953.879 -193.093 930.37C-203.923 861.143 -153.346 815.321 -107.909 778.634C-87.9644 761.655 -57.3143 740.521 -46.62 715.621C-31.1664 674.87 -56.7319 619.354 -72.9904 580.924C-76.126 573.713 -79.2956 566.512 -82.2886 559.221C-85.2217 551.919 -88.2707 544.564 -89.7053 536.669C-96.4516 491.069 -88.6202 439.286 -64.9863 401.503C-62.5172 397.541 -59.6205 393.622 -56.7584 389.984C-55.1666 388.098 -52.9282 385.453 -51.3832 383.513C-41.7918 372.023 -37.5133 356.254 -38.741 340.643C-41.0089 308.946 -57.1147 280.679 -66.4183 250.771C-68.7277 243.176 -70.5552 235.239 -70.7701 227.293C-71.2435 213.638 -72.7688 199.943 -77.0035 186.89C-81.1667 173.873 -87.5467 161.612 -94.3518 149.908C-104.101 133.379 -115.537 116.794 -126.686 101.32C-135.606 88.8091 -145.424 76.2066 -154.328 63.6667C-163.277 50.8107 -170.639 36.6956 -176.308 21.9254C-187.687 -7.6042 -190.963 -40.3132 -186.315 -71.252C-184.587 -82.8419 -181.877 -94.2406 -178.025 -105.145C-176.732 -108.777 -175.35 -112.365 -173.718 -115.831L-173.484 -115.699L-173.482 -115.671L-173.5 -115.67Z" fill="#FAECC8"/>
<path d="M-183.634 -117.002C-200.538 -76.5664 -201.991 -28.0734 -186.909 14.4517C-183.041 25.5073 -178.037 36.2815 -172.194 46.3173C-167.437 54.773 -161.795 62.8344 -156.055 70.5094C-142.072 89.0084 -127.994 108.065 -115.061 127.403C-100.2 150.143 -85.1548 174.596 -80.8972 202.291C-79.2067 212.074 -79.0799 221.957 -78.3859 231.755C-77.7137 237.564 -76.3214 243.236 -74.681 248.853C-61.1315 293.112 -27.2603 347.741 -64.3968 387.223C-96.0603 424.333 -106.59 485.196 -98.7752 535.162C-97.3377 542.823 -94.2656 550.13 -91.2927 557.375C-88.2593 564.618 -85.0482 571.789 -81.8618 578.98C-69.2284 607.758 -56.3908 637.032 -51.374 668.44C-47.4732 693.596 -50.2953 716.212 -66.8895 734.779C-91.7049 762.875 -123.308 782.629 -149.832 808.624C-180.799 837.945 -206.803 875.257 -201.299 922.927C-200.247 932.489 -198.995 942.614 -197.314 952.099C-194.073 971.371 -188.99 990.562 -179.552 1007.65C-175.829 1014.56 -171.698 1021.3 -168.618 1028.61C-163.912 1039.61 -161.826 1051.58 -160.718 1063.43C-160.561 1065.4 -160.37 1067.37 -160.248 1069.34L-159.916 1075.26C-158.747 1096.5 -168.003 1113.68 -184.384 1124.91C-202.549 1137.72 -224.087 1143.55 -243.568 1153.46C-256.223 1159.89 -269.699 1169.56 -271.538 1185.8L-271.792 1185.76C-270.132 1169.3 -256.614 1159.31 -243.938 1152.67C-224.563 1142.45 -203.226 1136.45 -185.248 1123.55C-166.899 1110.36 -159.822 1093.29 -162.237 1069.43C-163.232 1055.89 -165.18 1042.09 -170.607 1029.54C-175.293 1018.72 -182.127 1009.07 -186.832 998.227C-196.499 976.452 -200.391 952.548 -203.227 929.039C-214.057 859.812 -163.48 813.99 -118.044 777.303C-98.0989 760.324 -67.4487 739.19 -56.7544 714.29C-41.3009 673.539 -66.8663 618.023 -83.1248 579.593C-86.2604 572.382 -89.43 565.181 -92.423 557.89C-95.3561 550.587 -98.4051 543.233 -99.8397 535.338C-106.586 489.738 -98.7546 437.955 -75.1207 400.172C-72.6516 396.21 -69.7549 392.291 -66.8928 388.652C-65.301 386.767 -63.0626 384.122 -61.5176 382.182C-51.9262 370.692 -47.6477 354.923 -48.8754 339.311C-51.1434 307.615 -67.2491 279.347 -76.5527 249.439C-78.8621 241.845 -80.6897 233.907 -80.9046 225.962C-81.3779 212.306 -82.9032 198.611 -87.1379 185.559C-91.3012 172.542 -97.6811 160.281 -104.486 148.577C-114.236 132.048 -125.671 115.463 -136.821 99.9893C-145.74 87.478 -155.558 74.8755 -164.462 62.3356C-173.412 49.4796 -180.774 35.3645 -186.442 20.5943C-197.821 -8.93533 -201.097 -41.6443 -196.449 -72.5831C-194.722 -84.173 -192.011 -95.5717 -188.16 -106.476C-186.867 -110.108 -185.485 -113.697 -183.852 -117.162L-183.618 -117.03L-183.617 -117.002L-183.634 -117.002Z" fill="#FAECC8"/>
<path d="M-193.769 -118.334C-210.673 -77.8986 -212.126 -29.4055 -197.045 13.1196C-193.176 24.1751 -188.172 34.9494 -182.329 44.9851C-177.573 53.4409 -171.93 61.5023 -166.19 69.1773C-152.207 87.6763 -138.129 106.733 -125.196 126.071C-110.335 148.811 -95.2899 173.264 -91.0323 200.959C-89.3418 210.742 -89.215 220.625 -88.521 230.423C-87.8488 236.232 -86.4565 241.904 -84.8161 247.521C-71.2666 291.78 -37.3954 346.409 -74.532 385.89C-106.195 423.001 -116.725 483.864 -108.91 533.83C-107.473 541.491 -104.401 548.798 -101.428 556.043C-98.3944 563.286 -95.1833 570.457 -91.9969 577.648C-79.3635 606.425 -66.5259 635.7 -61.5091 667.108C-57.6083 692.264 -60.4304 714.88 -77.0246 733.447C-101.84 761.542 -133.443 781.297 -159.967 807.292C-190.934 836.613 -216.939 873.925 -211.434 921.595C-210.382 931.157 -209.13 941.282 -207.449 950.766C-204.208 970.039 -199.125 989.23 -189.687 1006.32C-185.964 1013.22 -181.834 1019.97 -178.753 1027.28C-174.047 1038.28 -171.961 1050.24 -170.854 1062.09C-170.696 1064.07 -170.505 1066.03 -170.383 1068.01L-170.051 1073.92C-168.882 1095.16 -178.138 1112.34 -194.519 1123.58C-212.684 1136.38 -234.222 1142.22 -253.703 1152.13C-266.358 1158.56 -279.834 1168.23 -281.673 1184.47L-281.927 1184.42C-280.267 1167.97 -266.749 1157.98 -254.073 1151.34C-234.698 1141.12 -213.361 1135.12 -195.384 1122.22C-177.034 1109.03 -169.957 1091.96 -172.372 1068.1C-173.367 1054.56 -175.315 1040.76 -180.742 1028.21C-185.428 1017.39 -192.262 1007.74 -196.967 996.895C-206.634 975.12 -210.526 951.216 -213.363 927.706C-224.192 858.48 -173.615 812.658 -128.179 775.971C-108.234 758.992 -77.5838 737.858 -66.8895 712.958C-51.436 672.207 -77.0014 616.691 -93.2599 578.261C-96.3955 571.049 -99.5651 563.849 -102.558 556.558C-105.491 549.255 -108.54 541.901 -109.975 534.006C-116.721 488.406 -108.89 436.623 -85.2558 398.839C-82.7867 394.878 -79.89 390.958 -77.0279 387.32C-75.4362 385.435 -73.1977 382.79 -71.6527 380.85C-62.0613 369.36 -57.7828 353.591 -59.0105 337.979C-61.2785 306.283 -77.3842 278.015 -86.6878 248.107C-88.9972 240.513 -90.8248 232.575 -91.0397 224.63C-91.513 210.974 -93.0383 197.279 -97.273 184.227C-101.436 171.21 -107.816 158.949 -114.621 147.245C-124.371 130.715 -135.806 114.13 -146.956 98.6571C-155.875 86.1458 -165.694 73.5433 -174.597 61.0035C-183.547 48.1474 -190.909 34.0324 -196.577 19.2622C-207.956 -10.2675 -211.232 -42.9765 -206.584 -73.9153C-204.857 -85.5051 -202.146 -96.9039 -198.295 -107.808C-197.002 -111.44 -195.62 -115.029 -193.987 -118.495L-193.754 -118.362L-193.752 -118.334L-193.769 -118.334Z" fill="#FAECC8"/>
<path d="M-203.896 -119.663C-220.8 -79.2281 -222.253 -30.735 -207.172 11.7901C-203.303 22.8456 -198.299 33.6199 -192.456 43.6557C-187.7 52.1114 -182.057 60.1728 -176.317 67.8478C-162.334 86.3468 -148.256 105.403 -135.323 124.741C-120.462 147.481 -105.417 171.934 -101.159 199.63C-99.4688 209.413 -99.342 219.295 -98.648 229.094C-97.9758 234.902 -96.5835 240.574 -94.9431 246.191C-81.3936 290.45 -47.5224 345.079 -84.6589 384.561C-116.322 421.671 -126.852 482.535 -119.037 532.5C-117.6 540.161 -114.528 547.468 -111.555 554.713C-108.521 561.956 -105.31 569.128 -102.133 576.319C-89.4992 605.096 -76.6615 634.371 -71.6448 665.779C-67.744 690.934 -70.566 713.551 -87.1603 732.118C-111.976 760.213 -143.579 779.968 -170.103 805.962C-201.069 835.284 -227.074 872.596 -221.57 920.266C-220.518 929.828 -219.266 939.953 -217.585 949.437C-214.344 968.709 -209.26 987.901 -199.823 1004.99C-196.099 1011.89 -191.969 1018.64 -188.888 1025.95C-184.182 1036.95 -182.097 1048.91 -180.989 1060.76C-180.832 1062.74 -180.641 1064.7 -180.518 1066.68L-180.187 1072.6C-179.018 1093.83 -188.274 1111.01 -204.655 1122.25C-222.82 1135.05 -244.358 1140.89 -263.839 1150.8C-276.493 1157.23 -289.97 1166.9 -291.808 1183.14L-292.063 1183.09C-290.403 1166.64 -276.885 1156.65 -264.209 1150.01C-244.834 1139.79 -223.497 1133.79 -205.519 1120.89C-187.17 1107.7 -180.092 1090.63 -182.508 1066.77C-183.503 1053.23 -185.451 1039.43 -190.878 1026.88C-195.564 1016.06 -202.398 1006.41 -207.103 995.566C-216.77 973.791 -220.662 949.887 -223.498 926.377C-234.328 857.15 -183.751 811.329 -138.315 774.642C-118.37 757.663 -87.7281 736.529 -77.0251 711.628C-61.5803 670.878 -87.1371 615.361 -103.396 576.932C-106.531 569.72 -109.701 562.519 -112.694 555.228C-115.627 547.926 -118.676 540.572 -120.11 532.677C-126.857 487.076 -119.025 435.294 -95.3915 397.51C-92.9224 393.549 -90.0257 389.629 -87.1635 385.991C-85.5718 384.106 -83.3333 381.46 -81.7884 379.521C-72.197 368.03 -67.9185 352.261 -69.1462 336.65C-71.4141 304.954 -87.5198 276.686 -96.8235 246.778C-99.1328 239.184 -100.96 231.246 -101.175 223.301C-101.649 209.645 -103.174 195.95 -107.409 182.898C-111.572 169.88 -117.952 157.62 -124.757 145.916C-134.506 129.386 -145.942 112.801 -157.092 97.3279C-166.011 84.8166 -175.829 72.2141 -184.733 59.6743C-193.682 46.8182 -201.045 32.7032 -206.713 17.9329C-218.092 -11.5967 -221.368 -44.3056 -216.72 -75.2445C-214.992 -86.8343 -212.282 -98.2331 -208.43 -109.138C-207.138 -112.77 -205.755 -116.358 -204.123 -119.824L-203.889 -119.692L-203.887 -119.664L-203.896 -119.663Z" fill="#FAECC8"/>
<path d="M-214.031 -120.992C-230.936 -80.5569 -232.388 -32.0638 -217.307 10.4613C-213.439 21.5168 -208.434 32.2911 -202.591 42.3269C-197.835 50.7826 -192.192 58.844 -186.452 66.519C-172.469 85.0179 -158.392 104.074 -145.459 123.412C-130.598 146.152 -115.552 170.606 -111.295 198.301C-109.604 208.084 -109.477 217.967 -108.783 227.765C-108.111 233.573 -106.719 239.245 -105.078 244.863C-91.5289 289.121 -57.6577 343.751 -94.7943 383.232C-126.458 420.343 -136.987 481.206 -129.173 531.172C-127.735 538.833 -124.663 546.14 -121.69 553.385C-118.657 560.627 -115.446 567.799 -112.268 574.99C-99.6345 603.767 -86.7968 633.042 -81.78 664.45C-77.8793 689.606 -80.7013 712.222 -97.2956 730.789C-122.111 758.884 -153.714 778.639 -180.238 804.634C-211.205 833.955 -237.209 871.267 -231.705 918.937C-230.653 928.499 -229.401 938.624 -227.72 948.109C-224.479 967.381 -219.396 986.572 -209.958 1003.66C-206.235 1010.57 -202.104 1017.31 -199.024 1024.62C-194.318 1035.62 -192.232 1047.59 -191.125 1059.43C-190.967 1061.41 -190.776 1063.38 -190.654 1065.35L-190.322 1071.27C-189.153 1092.51 -198.409 1109.69 -214.79 1120.92C-232.955 1133.73 -254.493 1139.56 -273.974 1149.47C-286.629 1155.9 -300.105 1165.57 -301.944 1181.81L-302.198 1181.77C-300.538 1165.31 -287.02 1155.32 -274.344 1148.68C-254.969 1138.46 -233.632 1132.46 -215.654 1119.56C-197.305 1106.37 -190.228 1089.3 -192.643 1065.44C-193.638 1051.9 -195.586 1038.1 -201.013 1025.55C-205.699 1014.73 -212.533 1005.08 -217.238 994.237C-226.905 972.462 -230.797 948.558 -233.633 925.048C-244.463 855.822 -193.886 810 -148.45 773.313C-128.505 756.334 -97.8634 735.2 -87.1604 710.3C-71.7156 669.549 -97.2724 614.033 -113.531 575.603C-116.666 568.391 -119.836 561.191 -122.829 553.9C-125.762 546.597 -128.811 539.243 -130.246 531.348C-136.992 485.748 -129.161 433.965 -105.527 396.181C-103.058 392.22 -100.161 388.3 -97.2989 384.662C-95.7071 382.777 -93.4686 380.132 -91.9236 378.192C-82.3323 366.701 -78.0537 350.933 -79.2814 335.321C-81.5494 303.625 -97.6551 275.357 -106.959 245.449C-109.268 237.855 -111.096 229.917 -111.311 221.972C-111.784 208.316 -113.309 194.621 -117.544 181.569C-121.707 168.552 -128.087 156.291 -134.892 144.587C-144.642 128.057 -156.077 111.472 -167.227 95.9991C-176.146 83.4878 -185.965 70.8853 -194.868 58.3454C-203.818 45.4894 -211.18 31.3743 -216.848 16.6041C-228.227 -12.9255 -231.503 -45.6345 -226.855 -76.5733C-225.128 -88.1632 -222.417 -99.5619 -218.566 -110.466C-217.273 -114.098 -215.891 -117.687 -214.258 -121.153L-214.025 -121.02L-214.023 -120.992L-214.031 -120.992Z" fill="#FAECC8"/>
<path d="M-224.167 -122.322C-241.071 -81.8866 -242.523 -33.3935 -227.442 9.13164C-223.574 20.1872 -218.57 30.9614 -212.727 40.9972C-207.97 49.4529 -202.327 57.5143 -196.587 65.1893C-182.605 83.6883 -168.527 102.745 -155.594 122.083C-140.733 144.823 -125.687 169.276 -121.43 196.971C-119.739 206.754 -119.613 216.637 -118.919 226.435C-118.246 232.244 -116.854 237.916 -115.214 243.533C-101.664 287.792 -67.7929 342.421 -104.93 381.903C-136.593 419.013 -147.123 479.876 -139.308 529.842C-137.87 537.503 -134.798 544.81 -131.825 552.055C-128.792 559.298 -125.581 566.469 -122.394 573.66C-109.761 602.437 -96.9234 631.712 -91.9066 663.12C-88.0059 688.276 -90.8279 710.892 -107.422 729.459C-132.238 757.554 -163.84 777.309 -190.365 803.304C-221.331 832.625 -247.336 869.937 -241.832 917.607C-240.78 927.169 -239.528 937.294 -237.847 946.779C-234.606 966.051 -229.522 985.242 -220.085 1002.33C-216.361 1009.24 -212.231 1015.98 -209.15 1023.29C-204.444 1034.29 -202.358 1046.26 -201.251 1058.1C-201.094 1060.08 -200.903 1062.05 -200.78 1064.02L-200.448 1069.94C-199.28 1091.18 -208.536 1108.36 -224.917 1119.59C-243.082 1132.4 -264.619 1138.23 -284.101 1148.14C-296.755 1154.57 -310.232 1164.24 -312.07 1180.48L-312.325 1180.44C-310.665 1163.98 -297.147 1153.99 -284.471 1147.35C-265.096 1137.13 -243.759 1131.13 -225.781 1118.23C-207.432 1105.04 -200.354 1087.97 -202.77 1064.11C-203.765 1050.57 -205.713 1036.77 -211.14 1024.22C-215.825 1013.4 -222.66 1003.75 -227.365 992.907C-237.031 971.132 -240.924 947.228 -243.76 923.718C-254.59 854.492 -204.013 808.67 -158.577 771.983C-138.632 755.004 -107.99 733.87 -97.287 708.97C-81.8422 668.219 -107.399 612.703 -123.657 574.273C-126.793 567.062 -129.963 559.861 -132.956 552.57C-135.889 545.267 -138.938 537.913 -140.372 530.018C-147.119 484.418 -139.287 432.635 -115.653 394.852C-113.184 390.89 -110.288 386.97 -107.425 383.332C-105.834 381.447 -103.595 378.802 -102.05 376.862C-92.4589 365.372 -88.1803 349.603 -89.4081 333.991C-91.676 302.295 -107.782 274.027 -117.085 244.119C-119.395 236.525 -121.222 228.587 -121.437 220.642C-121.911 206.986 -123.436 193.291 -127.671 180.239C-131.834 167.222 -138.214 154.961 -145.019 143.257C-154.768 126.727 -166.204 110.142 -177.354 94.6692C-186.273 82.1578 -196.091 69.5554 -204.995 57.0155C-213.944 44.1594 -221.306 30.0444 -226.975 15.2742C-238.354 -14.2554 -241.63 -46.9644 -236.982 -77.9032C-235.254 -89.4931 -232.544 -100.892 -228.692 -111.796C-227.399 -115.428 -226.017 -119.017 -224.385 -122.483L-224.151 -122.35L-224.149 -122.322L-224.167 -122.322Z" fill="#FAECC8"/>
<path d="M-234.302 -123.653C-251.206 -83.2178 -252.658 -34.7247 -237.577 7.80042C-233.709 18.8559 -228.705 29.6302 -222.862 39.666C-218.105 48.1217 -212.463 56.1831 -206.722 63.8581C-192.74 82.3571 -178.662 101.414 -165.729 120.752C-150.868 143.492 -135.823 167.945 -131.565 195.64C-129.875 205.423 -129.748 215.306 -129.054 225.104C-128.382 230.912 -126.989 236.585 -125.349 242.202C-111.799 286.461 -77.9281 341.09 -115.065 380.571C-146.728 417.682 -157.258 478.545 -149.443 528.511C-148.005 536.172 -144.933 543.479 -141.961 550.724C-138.927 557.967 -135.716 565.138 -132.53 572.329C-119.896 601.106 -107.059 630.381 -102.042 661.789C-98.141 686.944 -100.963 709.561 -117.557 728.128C-142.373 756.223 -173.976 775.978 -200.5 801.973C-231.466 831.294 -257.471 868.606 -251.967 916.276C-250.915 925.838 -249.663 935.963 -247.982 945.447C-244.741 964.719 -239.657 983.911 -230.22 1001C-226.496 1007.9 -222.366 1014.65 -219.285 1021.96C-214.58 1032.96 -212.494 1044.92 -211.386 1056.77C-211.229 1058.75 -211.038 1060.71 -210.915 1062.69L-210.584 1068.61C-209.415 1089.84 -218.671 1107.02 -235.052 1118.26C-253.217 1131.06 -274.755 1136.9 -294.236 1146.81C-306.89 1153.24 -320.367 1162.91 -322.205 1179.15L-322.46 1179.1C-320.8 1162.65 -307.282 1152.66 -294.606 1146.02C-275.231 1135.8 -253.894 1129.8 -235.916 1116.9C-217.567 1103.71 -210.489 1086.64 -212.905 1062.78C-213.9 1049.24 -215.848 1035.44 -221.275 1022.89C-225.961 1012.07 -232.795 1002.42 -237.5 991.576C-247.167 969.801 -251.059 945.897 -253.895 922.387C-264.725 853.16 -214.148 807.339 -168.712 770.652C-148.767 753.673 -118.117 732.539 -107.422 707.639C-91.9687 666.888 -117.534 611.371 -133.793 572.942C-136.928 565.73 -140.098 558.529 -143.091 551.238C-146.024 543.936 -149.073 536.582 -150.508 528.687C-157.254 483.086 -149.422 431.304 -125.789 393.52C-123.319 389.559 -120.423 385.639 -117.561 382.001C-115.969 380.116 -113.73 377.471 -112.185 375.531C-102.594 364.04 -98.3155 348.271 -99.5432 332.66C-101.811 300.964 -117.917 272.696 -127.221 242.788C-129.53 235.194 -131.357 227.256 -131.572 219.311C-132.046 205.655 -133.571 191.96 -137.806 178.908C-141.969 165.89 -148.349 153.63 -155.154 141.926C-164.903 125.396 -176.339 108.811 -187.489 93.3379C-196.408 80.8266 -206.226 68.2241 -215.13 55.6843C-224.079 42.8282 -231.442 28.7132 -237.11 13.943C-248.489 -15.5867 -251.765 -48.2956 -247.117 -79.2345C-245.389 -90.8243 -242.679 -102.223 -238.827 -113.128C-237.535 -116.76 -236.153 -120.348 -234.52 -123.814L-234.286 -123.681L-234.285 -123.654L-234.302 -123.653Z" fill="#FAECC8"/>
<path d="M-244.436 -124.984C-261.34 -84.5492 -262.793 -36.0562 -247.712 6.46899C-243.843 17.5245 -238.839 28.2988 -232.996 38.3345C-228.24 46.7903 -222.597 54.8517 -216.857 62.5267C-202.874 81.0256 -188.797 100.082 -175.863 119.42C-161.002 142.16 -145.957 166.613 -141.699 194.308C-140.009 204.092 -139.882 213.974 -139.188 223.772C-138.516 229.581 -137.124 235.253 -135.483 240.87C-121.934 285.129 -88.0625 339.758 -125.199 379.24C-156.863 416.35 -167.392 477.214 -159.577 527.179C-158.14 534.84 -155.068 542.147 -152.095 549.392C-149.062 556.635 -145.85 563.807 -142.664 570.998C-130.031 599.775 -117.193 629.05 -112.176 660.457C-108.275 685.613 -111.098 708.229 -127.692 726.796C-152.507 754.892 -184.11 774.647 -210.634 800.641C-241.601 829.962 -267.606 867.275 -262.101 914.945C-261.049 924.506 -259.797 934.631 -258.117 944.116C-254.875 963.388 -249.792 982.58 -240.354 999.671C-236.631 1006.57 -232.501 1013.32 -229.42 1020.63C-224.714 1031.63 -222.628 1043.59 -221.521 1055.44C-221.364 1057.42 -221.172 1059.38 -221.05 1061.36L-220.718 1067.27C-219.549 1088.51 -228.805 1105.69 -245.186 1116.93C-263.352 1129.73 -284.889 1135.57 -304.37 1145.48C-317.025 1151.9 -330.501 1161.58 -332.34 1177.82L-332.594 1177.77C-330.934 1161.32 -317.416 1151.33 -304.74 1144.69C-285.365 1134.47 -264.029 1128.47 -246.051 1115.57C-227.701 1102.38 -220.624 1085.31 -223.039 1061.45C-224.034 1047.91 -225.982 1034.11 -231.409 1021.55C-236.095 1010.74 -242.929 1001.08 -247.634 990.244C-257.301 968.469 -261.194 944.565 -264.03 921.056C-274.859 851.829 -224.282 806.007 -178.846 769.32C-158.901 752.341 -128.251 731.207 -117.557 706.307C-102.103 665.556 -127.669 610.04 -143.927 571.61C-147.063 564.399 -150.232 557.198 -153.225 549.907C-156.158 542.605 -159.207 535.25 -160.642 527.355C-167.388 481.755 -159.557 429.973 -135.923 392.189C-133.454 388.227 -130.557 384.308 -127.695 380.67C-126.103 378.784 -123.865 376.139 -122.32 374.199C-112.728 362.709 -108.45 346.94 -109.678 331.329C-111.946 299.632 -128.051 271.365 -137.355 241.457C-139.664 233.862 -141.492 225.925 -141.707 217.979C-142.18 204.324 -143.705 190.629 -147.94 177.576C-152.103 164.559 -158.483 152.299 -165.288 140.594C-175.038 124.065 -186.473 107.48 -197.623 92.0065C-206.542 79.4952 -216.361 66.8927 -225.264 54.3528C-234.214 41.4968 -241.576 27.3817 -247.244 12.6115C-258.623 -16.9181 -261.899 -49.6271 -257.251 -80.5659C-255.524 -92.1558 -252.813 -103.554 -248.962 -114.459C-247.669 -118.091 -246.287 -121.679 -244.654 -125.145L-244.421 -125.013L-244.419 -124.985L-244.436 -124.984Z" fill="#FAECC8"/>
<path d="M-254.563 -126.314C-271.467 -85.8787 -272.92 -37.3856 -257.839 5.13951C-253.971 16.195 -248.966 26.9693 -243.123 37.0051C-238.367 45.4608 -232.724 53.5222 -226.984 61.1972C-213.001 79.6962 -198.924 98.7526 -185.991 118.091C-171.129 140.831 -156.084 165.284 -151.826 192.979C-150.136 202.762 -150.009 212.645 -149.315 222.443C-148.643 228.252 -147.251 233.924 -145.61 239.541C-132.061 283.8 -98.1896 338.429 -135.326 377.91C-166.99 415.021 -177.519 475.884 -169.704 525.85C-168.267 533.511 -165.195 540.818 -162.222 548.063C-159.189 555.306 -155.977 562.477 -152.791 569.668C-140.158 598.445 -127.32 627.72 -122.303 659.128C-118.402 684.284 -121.225 706.9 -137.819 725.467C-162.634 753.562 -194.237 773.317 -220.761 799.312C-251.728 828.633 -277.733 865.945 -272.228 913.615C-271.176 923.177 -269.924 933.302 -268.244 942.786C-265.002 962.059 -259.919 981.25 -250.481 998.342C-246.758 1005.24 -242.628 1011.99 -239.547 1019.3C-234.841 1030.3 -232.755 1042.26 -231.648 1054.11C-231.491 1056.09 -231.299 1058.05 -231.177 1060.03L-230.845 1065.94C-229.676 1087.18 -238.932 1104.36 -255.313 1115.6C-273.479 1128.4 -295.016 1134.24 -314.497 1144.15C-327.152 1150.58 -340.628 1160.25 -342.467 1176.49L-342.721 1176.44C-341.061 1159.99 -327.543 1150 -314.867 1143.36C-295.492 1133.14 -274.156 1127.14 -256.178 1114.24C-237.828 1101.05 -230.751 1083.98 -233.166 1060.12C-234.161 1046.58 -236.11 1032.78 -241.536 1020.22C-246.222 1009.41 -253.056 999.755 -257.761 988.915C-267.428 967.14 -271.321 943.236 -274.157 919.726C-284.987 850.5 -234.41 804.678 -188.973 767.991C-169.028 751.012 -138.387 729.878 -127.684 704.978C-112.239 664.227 -137.796 608.711 -154.054 570.281C-157.19 563.069 -160.359 555.868 -163.352 548.577C-166.285 541.275 -169.334 533.921 -170.769 526.026C-177.515 480.426 -169.684 428.643 -146.05 390.859C-143.581 386.898 -140.684 382.978 -137.822 379.34C-136.23 377.455 -133.992 374.81 -132.447 372.87C-122.855 361.379 -118.577 345.611 -119.805 329.999C-122.073 298.303 -138.178 270.035 -147.482 240.127C-149.791 232.533 -151.619 224.595 -151.834 216.65C-152.307 202.994 -153.832 189.299 -158.067 176.247C-162.23 163.23 -168.61 150.969 -175.416 139.265C-185.165 122.735 -196.6 106.15 -207.75 90.677C-216.669 78.1657 -226.488 65.5633 -235.392 53.0234C-244.341 40.1673 -251.703 26.0523 -257.371 11.2821C-268.75 -18.2476 -272.026 -50.9565 -267.378 -81.8954C-265.651 -93.4852 -262.94 -104.884 -259.089 -115.788C-257.796 -119.42 -256.414 -123.009 -254.781 -126.475L-254.548 -126.342L-254.546 -126.314L-254.563 -126.314Z" fill="#FAECC8"/>
</g>
</svg>
