<svg width="1280" height="379" viewBox="0 0 1280 379" fill="none" xmlns="http://www.w3.org/2000/svg">
<path d="M455.946 -596.684C321.632 -508.459 195.521 -352.596 343.915 -209.051C374.191 -179.486 410.193 -155.068 447.834 -133.777C503.84 -101.338 567.166 -77.5388 632.668 -74.8856C811.43 -66.1854 946.888 -189.685 1120.22 -201.221C1256.14 -210.466 1373.18 -126.887 1457.91 -34.6815C1536.99 53.0321 1558.61 152.649 1454.11 222.131C1337.61 296.336 1159.67 299.577 1016.86 283.734C821.701 260.708 629.952 193.41 465.253 89.5854C428.677 66.6136 391.044 45.0224 352.089 25.6985C-105.127 -202.196 -167.855 191.703 181.908 394.927C70.9575 331.267 -27.7044 229.219 -41.8732 110.56C-48.6629 50.8248 -23.2048 -9.06744 39.6513 -32.2434C99.5303 -54.5029 169.36 -43.342 231.489 -24.8419C315.43 0.9021 393.073 42.415 466.403 88.0662C630.973 191.415 822.228 258.631 1017.03 281.486C1165.98 299.239 1403.94 293.26 1496.37 180.414C1550.23 111.748 1512.71 29.7114 1455.94 -33.3062C1371.73 -124.967 1255.61 -208.199 1120.53 -199.082C947.307 -187.405 811.578 -64.2299 632.695 -73.2776C566.889 -76.0248 503.305 -99.9818 447.1 -132.637C409.391 -154.047 373.284 -178.557 342.995 -208.289C194.607 -352.601 320.792 -508.369 455.946 -596.684Z" fill="#FAECC8"/>
<path d="M455.946 -596.684C372.278 -536.823 282.312 -438.732 292.07 -334.036C296.935 -284.194 324.807 -239.896 363.948 -203.28C394.836 -174.345 431.059 -150.321 469.027 -129.661C506.858 -108.76 547.277 -91.3253 590.06 -82.2819C769.951 -42.1467 915.257 -157.512 1077.85 -192.269C1204.76 -219.985 1311.74 -177.859 1408.66 -96.4807C1449.3 -62.1595 1487.81 -24.3907 1514.38 19.6733C1595.09 154.56 1488.49 239.85 1353.44 272.381C1109.51 328.31 820.813 265.94 594.365 154.204C515.882 116.361 446.464 64.649 367.995 26.8093C329.368 7.69952 288.56 -9.51184 247.034 -22.0128C183.073 -41.0416 109.708 -52.4061 49.5366 -26.0656C48.3648 -25.5351 47.1318 -25.0966 46.011 -24.4894L39.2247 -20.9384C38.0936 -20.3466 36.9391 -19.7737 35.906 -19.0674L29.4891 -15.0267C28.3886 -14.3889 27.4097 -13.6176 26.4073 -12.8653L20.3926 -8.35126C17.5908 -5.90057 14.7757 -3.45349 12.0915 -0.908203L7.02291 4.45172L5.76321 5.79059L4.62119 7.22394L0.0594101 12.9339C-2.03709 15.9013 -4.03945 18.9443 -5.98844 22.0016L-9.48781 28.3367L-10.3685 29.9157C-11.8965 33.59 -14.1495 37.675 -15.3863 41.4904L-17.816 48.2632C-18.5819 51.335 -20.922 58.7873 -21.3671 62.2098C-28.6983 97.6293 -22.7392 135.06 -10.1623 170.154C24.8755 264.621 106.025 342.844 199.047 396.557C105.781 343.005 24.3807 264.866 -10.9569 170.345C-22.8969 137.463 -28.8214 102.625 -23.8252 69.0885C-23.1501 65.715 -22.5459 61.8057 -21.808 58.4113C-21.5627 57.2291 -21.1841 56.0829 -20.8855 54.9151L-18.9706 47.9286C-17.3517 43.6484 -15.7705 38.3876 -13.7555 34.3901C-12.7856 32.3182 -11.7799 29.7391 -10.6351 27.8149C-7.90839 22.4955 -4.45541 17.0809 -1.03043 12.2512C0.0676727 10.7682 2.44196 7.93823 3.5534 6.45886C4.26805 5.33954 9.89138 -0.48938 11.0788 -1.77191C14.6955 -5.07562 18.4075 -8.68152 22.4753 -11.5871L25.5022 -13.8641C26.5078 -14.6282 27.5032 -15.4075 28.6068 -16.0571L35.0795 -20.1459C37.9569 -21.9713 42.2343 -23.9511 45.2897 -25.6406C103.78 -53.1248 176.249 -43.7018 239.639 -25.7966C273.574 -16.1869 307.308 -3.05145 339.353 11.3202C388.901 33.8606 436.496 60.327 482.238 88.9059C700.826 225.546 968.006 303.112 1226.24 288.841C1290.42 284.508 1354.33 273.942 1412.41 251.086C1521.56 208.364 1576.49 127.392 1512.13 20.6698C1485.71 -23.1489 1447.45 -60.7285 1407.03 -94.8642C1310.77 -175.736 1204.69 -217.697 1078.55 -190.202C915.9 -155.323 769.879 -40.2754 589.789 -80.7914C546.843 -89.9166 506.245 -107.487 468.329 -128.499C430.29 -149.267 393.97 -173.405 363.049 -202.487C323.822 -239.366 295.948 -283.929 291.193 -334.019C281.687 -438.962 371.882 -536.841 455.946 -596.684Z" fill="#FAECC8"/>
<path d="M455.946 -596.684C394.158 -548.19 338.63 -485.011 315.069 -412.662C271.288 -275.689 381.957 -177.569 511.445 -114.778C584.987 -79.0406 660.448 -66.1061 740.149 -77.9622C870.586 -96.7937 977.931 -170.137 1106.6 -193.701C1119.34 -195.985 1133.43 -197.794 1146.49 -198.769C1249.2 -206.853 1338.5 -165.546 1415.87 -102.905C1453.02 -72.7723 1488.36 -39.5314 1515.95 -2.0271C1620.73 141.226 1521.93 237.994 1368.08 274.602C1162.53 321.241 929.979 282.889 729.598 207.619C648.087 176.539 569.902 137.478 497 91.3488C458.235 67.0468 418.127 44.5023 376.726 24.2711C371.518 21.8798 359.828 16.3526 354.609 13.946C350.505 12.0774 336.388 6.05139 332.198 4.18488C315.087 -2.7821 296.35 -10.1346 278.7 -15.7839C206.627 -39.2805 119.568 -54.6169 53.9924 -18.0906L45.9754 -13.0418C42.8936 -10.8804 39.9333 -8.58557 36.9527 -6.32141L31.3961 -1.3822C30.4745 -0.5578 29.5293 0.247681 28.712 1.16309L23.6465 6.51117C22.7586 7.36981 22.0621 8.36798 21.295 9.30945L16.7332 15.0194L14.7239 18.0353C11.4041 22.7925 8.0953 28.5231 5.68513 33.6752L2.72412 40.2426C1.43746 43.6035 0.25753 46.993 -0.938885 50.3906C-1.76392 53.7365 -3.95826 60.6984 -4.43027 64.328L-5.13301 67.8579C-6.04296 72.2146 -6.24369 76.2194 -6.86138 80.3394C-7.03241 83.6462 -7.32986 87.8519 -7.50089 91.1588C-7.55661 93.7151 -7.42216 99.5112 -7.45508 102.036L-7.34212 103.856L-7.09972 107.488C3.10336 228.297 103.951 333.289 216.106 398.166C103.618 333.464 2.41784 228.454 -8.11325 107.481L-8.36584 103.834L-8.4788 102.014C-8.43421 99.6056 -8.58642 93.5021 -8.55516 91.0905C-8.35115 87.7673 -8.14709 83.5365 -7.94307 80.2133C-7.52148 76.7719 -6.90464 71.0006 -6.23584 67.6506C-5.39653 64.1447 -5.0485 60.4441 -3.96513 57.0414L-2.06673 50.0632C-0.626747 45.5964 1.12124 40.8341 3.07845 36.5186C4.13469 34.4446 4.97785 31.885 6.15566 29.9445L9.66764 23.5624C11.3377 20.7455 13.8203 17.1378 15.6536 14.352C17.9328 11.61 20.2243 8.34198 22.6086 5.74158C24.7908 3.41473 28.1426 -0.28772 30.4132 -2.25055L36.0154 -7.25323C39.0188 -9.54907 42.0152 -11.872 45.1198 -14.0651L51.5925 -18.1539C115.259 -55.2419 200.198 -41.7087 271.474 -19.825C277.31 -17.9083 285.169 -15.3234 290.919 -13.4047C292.859 -12.7462 307.739 -7.22144 310.134 -6.39075C317.329 -3.51733 325.667 -0.26239 332.927 2.69128C337.308 4.64673 350.759 10.3809 355.398 12.4431C404.892 34.9186 452.469 61.292 498.17 89.8096C716.344 226.503 982.984 304.213 1240.96 290.604C1305.09 286.474 1368.94 276.08 1427.13 253.632C1571.23 197.523 1597.03 92.6765 1494.46 -25.1656C1468.2 -55.5586 1437.09 -83.3664 1404.93 -108.773C1327.02 -169.076 1239.72 -206.206 1138.87 -195.958C1127.15 -194.926 1114.74 -193.008 1103.31 -190.978C976.506 -166.473 869.8 -94.8236 740.605 -76.3022C657.826 -64.0608 578.962 -78.6509 503.528 -117.253C376.237 -180.451 271.08 -278.757 314.46 -412.9C338.297 -485.315 393.97 -548.291 455.986 -596.724L455.946 -596.684Z" fill="#FAECC8"/>
<path d="M455.946 -596.684C387.789 -538.351 323.459 -452.675 319.284 -363.813C318.636 -346.984 320.055 -329.865 324.057 -313.151C328.611 -294.121 336.376 -275.226 346.903 -257.886C391.331 -183.893 485.154 -128.365 569.182 -96.2198C781.063 -19.3555 930.659 -153.776 1118.9 -191.857C1245.9 -216.788 1352.28 -170.853 1447.32 -89.3989C1502.98 -41.4745 1557.81 15.0383 1573.41 83.474C1582.33 122.442 1571.55 162.898 1545.12 192.672C1479.96 265.332 1358.45 287.965 1256.45 294.743C1041.2 306.048 819.834 252.355 626.037 156.25C596.953 141.663 568.466 126.026 540.711 109.363C494.959 81.0339 449.003 52.826 400.222 29.1299C386.824 22.4519 369.778 14.6578 355.919 8.73853C284.269 -21.7281 196.384 -48.7681 119.679 -34.0043C67.8396 -24.1358 30.1907 6.63892 16.0575 52.4998C4.12315 91.7023 9.85194 134.529 24.2124 174.122C59.4719 268.295 140.358 346.271 233.202 399.848C140.131 346.424 58.9802 268.529 23.4177 174.312C8.88937 134.598 3.01791 91.5574 14.9062 52.1534C29.0492 5.82886 66.926 -25.2629 119.271 -35.311C196.312 -50.262 284.598 -23.2784 356.631 7.25311C370.57 13.1938 387.613 20.9491 401.064 27.6415C449.951 51.3156 496.003 79.4858 541.834 107.786C569.565 124.38 598.012 139.955 627.058 154.469C820.468 250.256 1041.35 303.782 1256.11 292.407C1357.49 285.628 1478.17 263.112 1542.94 191.128C1568.91 161.801 1579.6 122.137 1570.8 83.782C1557.87 25.806 1515.06 -24.1981 1469.35 -66.7212C1457.93 -77.291 1445.48 -88.2527 1433.39 -97.9726C1287.66 -216.125 1163.3 -218.377 999.262 -153.834C861.29 -100.104 727.154 -36.0312 568.647 -94.8633C484.286 -127.261 390.361 -182.993 345.916 -257.457C335.401 -274.895 327.637 -293.903 323.122 -313.023C319.152 -329.804 317.755 -347.005 318.472 -363.879C322.922 -452.857 387.475 -538.41 455.93 -596.676L455.946 -596.684Z" fill="#FAECC8"/>
<path d="M455.946 -596.684C381.256 -526.3 313.04 -418.486 337.933 -314.285C349.125 -265.911 380.793 -222.702 421.193 -188.382C453.453 -160.832 490.721 -138.519 529.405 -119.306C568.002 -99.9266 609.381 -85.0074 652.255 -77.8552C832.783 -46.4985 974.006 -160.664 1138.81 -191.512C1228.37 -207.784 1309.7 -190.834 1388.51 -143.109C1434.52 -115.024 1475.78 -80.4252 1512.57 -42.9388C1631.63 78.7808 1623.47 197.935 1458.86 260.584C1252.05 334.591 970.355 290.343 761.334 209.959C690.225 182.65 621.614 149.38 556.948 110.462C502.237 76.3416 446.645 43.1067 387.186 16.5115C317.484 -14.3407 236.296 -41.7163 159.85 -35.6051L155.851 -35.3029L151.905 -34.7722L144.002 -33.7261C141.383 -33.344 138.816 -32.7333 136.215 -32.2582C130.342 -31.2607 124.728 -29.5255 119.025 -28.0413L117.184 -27.413L109.811 -24.8762C74.9342 -12.0255 49.3946 12.4652 36.6025 44.3544C28.3226 65.5417 25.4266 88.6255 27.1297 111.517C35.4531 211.909 109.063 302.896 196.231 366.448C213.55 378.991 231.632 390.655 250.285 401.476C157.284 348.109 76.2376 270.304 40.6005 176.206C26.9202 138.825 20.8184 98.6714 29.9926 61.124C39.8447 21.3131 65.9189 -9.12207 107.331 -25.4399C109.955 -26.3752 113.939 -27.7403 116.604 -28.6649L118.462 -29.3014L120.375 -29.8223C127.979 -31.9947 135.741 -33.7463 143.633 -35.0726C146.97 -35.5148 152.521 -36.2708 155.562 -36.6786C226.963 -43.2844 299.249 -21.5963 365.455 5.33197C382.608 12.5121 400.78 20.6961 417.37 28.8596C456.315 47.9539 493.966 69.2602 530.532 92.0025C675.784 183.974 841.976 247.537 1013.19 277.52C1141.11 299.344 1274.06 304.806 1397.7 276.463C1458.32 261.765 1519.16 238.111 1558.81 194.132C1629.5 114.146 1571.29 16.6318 1499.59 -52.6804C1399.6 -149.124 1285.29 -216.457 1139.38 -189.442C974.333 -158.471 833.145 -44.7 652.008 -76.3458C608.97 -83.5798 567.383 -98.6304 528.688 -118.124C470.767 -146.992 414.926 -183.407 376.702 -232.999C364.057 -249.319 353.445 -267.25 346.041 -285.783C338.468 -304.273 333.968 -323.881 332.46 -343.178C325.164 -437.85 387.323 -532.451 455.906 -596.695L455.946 -596.684Z" fill="#FAECC8"/>
<path d="M455.946 -596.684C396.645 -534.844 347.544 -451.83 345.859 -366.498C345.148 -320.078 360.437 -274.502 390.5 -234.91C429.847 -183.265 487.977 -145.519 548.588 -116.497C625.985 -77.483 716.307 -62.848 800.103 -78.0309C955.642 -102.803 1090.36 -210.582 1254.88 -194.744C1342.56 -185.86 1421.25 -138.608 1484.78 -83.3439C1512.83 -59.1902 1539.62 -33.0822 1561.75 -4.44019C1675.64 142.98 1575.89 243.833 1414.2 280.784C1171.91 333.687 882.168 270.57 658.428 158.602C619.708 139.202 582.249 117.657 545.837 94.7674C486.591 57.9822 424.565 24.3718 358.591 -0.754761C293.973 -24.7999 220.346 -43.8348 152.867 -30.5187C97.8927 -19.6248 60.3944 13.9506 48.1806 63.3759C43.6534 81.9261 42.8019 101.436 44.8804 120.685C56.623 218.35 128.251 306.059 213.401 368.124C230.709 380.652 248.765 392.309 267.404 403.126C174.524 349.792 93.4715 272.061 57.8028 178.081C44.077 140.762 37.9752 100.609 47.03 63.0801C57.0366 21.7855 85.5988 -10.5165 129.591 -25.5757C144.258 -30.7838 160.281 -33.9017 176.213 -35.292C227.207 -39.7654 279.348 -28.7689 328.385 -13.0204C364.57 -1.34583 399.88 13.6486 433.857 30.2018C472.781 49.2654 510.416 70.5294 546.961 93.241C710.179 196.618 899.842 264.492 1093.46 288.591C1221.58 303.563 1355.56 302.87 1473.34 260.521C1607.11 210.895 1651.08 114.342 1559.64 -3.19012C1537.63 -31.6987 1510.99 -57.7051 1483.08 -81.7452C1419.98 -136.681 1341.86 -183.729 1254.75 -192.587C1200.78 -198.251 1147.33 -189.407 1097.46 -174.421C997.242 -144.481 906.074 -93.9396 800.549 -76.3356C716.391 -61.1868 625.508 -76.0227 547.918 -115.278C487.138 -144.47 428.882 -182.44 389.551 -234.358C359.495 -274.136 344.236 -319.983 345.098 -366.538C347.001 -451.938 396.378 -534.915 455.93 -596.676L455.946 -596.684Z" fill="#FAECC8"/>
<path d="M455.946 -596.684C405.824 -538.838 366.698 -465.617 359.651 -390.217C354.785 -336.882 368.584 -283.133 403.098 -236.829C443.018 -182.572 503.937 -143.385 567.248 -113.98C625.655 -85.9657 690.972 -70.0775 755.49 -71.8096C864.251 -74.165 959.519 -120.797 1056.11 -156.399C1114.45 -177.924 1176.16 -196.302 1241.4 -195.457C1344.61 -194.864 1435.9 -140.595 1509.07 -75.5516C1583.13 -10.9231 1663.54 88.4392 1610.96 177.491C1574.66 236.533 1500.91 265.828 1430.18 282.696C1222.39 326.97 995.494 288.697 793.845 212.608C727.944 187.211 664.198 156.656 603.769 121.243C589.792 113.15 576.127 104.535 562.403 96.0805C507.708 62.1659 450.723 30.9274 390.358 6.64795C312.405 -24.6882 209.313 -51.921 132.642 -16.8427C102.205 -2.5755 79.8035 21.9997 69.423 51.5605L67.5962 56.6169L65.2135 65.2424C64.8646 66.3842 64.6626 67.5652 64.4338 68.7391L63.7342 72.2574C62.6215 76.837 62.2903 81.916 61.6322 86.4536C53.298 194.519 137.059 302.331 230.544 369.793C247.839 382.318 265.898 393.963 284.523 404.777C261.224 391.337 238.75 376.529 217.591 360.386C129.647 293.11 52.8153 190.13 60.5238 86.3204C60.8247 83.4895 61.5156 78.2423 61.9153 75.5765C62.2977 73.7757 62.9313 70.2903 63.2972 68.4977C63.823 65.3615 65.6403 59.4329 66.455 56.2859C74.9435 29.3565 92.699 4.93549 118.453 -10.5867L121.672 -12.6229L125.072 -14.4219C127.361 -15.5984 129.595 -16.8398 131.915 -17.9703L139.06 -21.047C142.4 -22.572 146.555 -23.8282 150.082 -25.0889C154.303 -26.5922 160.902 -28.2145 165.291 -29.3323C167.547 -29.7992 174.608 -31.1719 177.01 -31.65C244.816 -42.1307 315.351 -23.4073 379.667 0.64502C403.698 10.0207 427.396 20.3157 450.468 31.6151C489.372 50.648 526.996 71.8966 563.538 94.5694C744.714 209.275 958.554 280.854 1174.17 296.379C1312.56 306.576 1536.41 291.384 1608.56 176.267C1660.49 88.3798 1580.41 -10.2153 1507.32 -73.9637C1434.69 -138.56 1344.01 -192.68 1241.5 -193.29C1176.57 -194.162 1115.18 -175.838 1057.07 -154.478C960.311 -118.946 864.623 -72.3512 755.62 -70.1613C690.835 -68.5007 625.137 -84.5668 566.589 -112.746C503.109 -142.321 442.04 -181.75 402.153 -236.288C367.658 -282.826 353.926 -336.771 358.966 -390.274C366.241 -465.727 405.591 -538.875 455.927 -596.664L455.946 -596.684Z" fill="#FAECC8"/>
<path d="M455.946 -596.684C393.08 -515.721 348.203 -401.716 383.868 -299.343C416.85 -202.755 515.938 -138.002 615.278 -99.1699C788.005 -32.4564 923.37 -99.0355 1074.43 -156.304C1113.49 -170.529 1153.58 -183.333 1195.73 -189.861C1333.74 -213.357 1448.98 -147.537 1544.49 -57.1599C1694.39 82.4772 1679.44 216.247 1477.07 276.568C1204.88 350.712 848.277 261.489 606.603 114.402C542.981 74.6296 477.765 36.2698 407.14 8.16998C367.102 -7.96539 325.137 -21.0751 282.397 -27.7125C232.266 -35.322 177.52 -33.3409 136.234 -7.776C112.51 6.62646 95.1856 28.6925 86.4817 53.3836L85.2649 56.7506L84.6683 58.4436L84.2051 60.1722L82.2989 67.0727C80.6173 73.8821 79.5327 81.2927 78.7373 88.2639C70.5358 196.315 154.215 304.004 247.69 371.451C264.985 383.975 283.034 395.605 301.646 406.415C282.994 395.645 264.922 384.047 247.588 371.562C156.96 306.088 78.0978 207.215 76.9923 102.568C76.9488 94.3515 77.7891 85.4512 78.9969 77.3679C79.6501 73.8625 80.3577 70.2078 81.1483 66.777C81.5108 65.2104 83.1749 59.4803 83.5201 58.0854C90.2651 36.9154 102.384 17.1981 120.102 2.25781C121.399 0.992065 127.302 -3.42584 129.012 -4.68195C130.652 -5.89355 133.593 -7.68939 135.387 -8.83459C139.563 -11.6609 144.342 -13.8591 148.826 -16.2372L155.971 -19.3138C157.174 -19.7983 158.331 -20.3829 159.575 -20.8061L163.277 -22.0828C165.761 -22.9173 168.196 -23.8401 170.714 -24.5898C175.51 -25.8381 181.302 -27.601 186.082 -28.4126C257.884 -43.0279 339.677 -20.4185 407.822 6.68921C468.323 30.8914 525.474 62.0987 580.308 95.9749C797.293 232.779 1062.34 311.006 1319.58 299.268C1383.54 295.622 1447.24 285.893 1505.73 264.497C1686.54 196.646 1675.75 68.3688 1542.73 -55.6415C1422.43 -168.518 1298.87 -223.443 1134.76 -173.955C958.201 -120.255 816.792 -20.4955 614.772 -97.8686C514.988 -137.021 415.93 -202.044 383.03 -299.151C347.611 -401.749 392.767 -515.729 455.989 -596.685L455.946 -596.684Z" fill="#FAECC8"/>
<path d="M455.946 -596.684C385.096 -494.089 347.107 -349.539 431.573 -235.766C472.896 -179.381 536.407 -138.819 602.902 -109.771C681.687 -73.5864 771.952 -61.8904 855.275 -77.8683C1019.56 -105.164 1164.62 -225.435 1342.55 -185.093C1428.31 -165.215 1500.93 -112.33 1562.02 -55.0986C1621.37 0.935913 1680.24 78.4579 1656.48 155.505C1619.32 264.518 1451.31 297.029 1336.5 303.272C1084.2 314.545 824.044 239.631 609.702 107.481C506.979 42.9001 359.952 -35.934 234.916 -29.5198C226.967 -29.1036 218.948 -28.1014 211.152 -26.9761L199.527 -24.684C198.248 -24.3964 197.004 -24.0238 195.73 -23.6973L188.164 -21.666C183.996 -20.4133 181.116 -19.2188 177.121 -17.9196C175.904 -17.4893 174.753 -16.9282 173.564 -16.4401L166.488 -13.408L159.724 -9.88867C158.603 -9.28149 157.445 -8.74744 156.368 -8.0907L153.171 -6.08618C133.758 5.67749 118.719 22.684 109.054 41.887C106.224 47.8087 103.765 53.9434 101.699 60.1583L101.236 61.887L99.3295 68.7875C97.6676 75.577 96.5734 83.0228 95.7812 89.9823C87.8252 195.729 167.807 300.991 258.317 368.349C277.538 382.65 297.781 395.914 318.702 408.036C300.06 397.281 281.988 385.683 264.654 373.198C174.036 307.739 95.2046 208.912 94.0496 104.29C93.8656 100.334 94.4988 93.861 94.676 89.8373C95.074 87.2845 95.5989 81.5895 96.0377 79.098C96.844 75.6084 97.2886 71.9211 98.1757 68.5036L100.068 61.549C106.195 40.8688 117.584 21.422 134.265 6.45599C139.467 1.6109 146.077 -3.36139 152.308 -7.13666C155.659 -9.50317 161.978 -12.5366 165.736 -14.5546C168.761 -15.8616 173.624 -17.9995 176.458 -19.1306L180.161 -20.4072C182.644 -21.2418 185.08 -22.1647 187.587 -22.9297L195.216 -24.9819C196.491 -25.3085 197.751 -25.6892 199.046 -25.985C272.322 -42.0962 354.866 -19.4619 424.644 8.22205C444.787 16.203 464.651 25.1682 484.077 34.5958C522.961 53.5981 560.581 74.8078 597.099 97.4617C843.227 252.901 1177 343.041 1462.26 283.918C1609.7 250.914 1720.51 160.223 1621.68 16.4961C1604.21 -8.77954 1583.03 -31.9606 1560.17 -53.6017C1485.26 -124.784 1388.04 -189.189 1277.96 -191.27C1213.05 -192.971 1151.4 -175.218 1093.2 -154.148C978.005 -111.81 859.681 -54.3909 727.206 -72.5695C684.067 -78.0406 641.835 -90.844 602.252 -108.572C537.992 -136.73 476.697 -175.527 435.262 -229.093C399.91 -274.033 382.333 -328.466 382.435 -381.578C382.738 -458.924 411.984 -533.166 455.883 -596.714L455.946 -596.684Z" fill="#FAECC8"/>
<path d="M455.946 -596.684C411.517 -523.258 385.116 -435.511 398.156 -348.931C405.6 -300.818 427.713 -253.652 462.523 -214.856C504.055 -167.894 560.622 -133.389 620.09 -108.002C699.297 -72.6995 789.519 -61.91 872.748 -77.9128C1036.87 -105.376 1182.45 -225.219 1360.26 -183.827C1434.95 -166.157 1500.35 -122.972 1555.85 -74.5223C1587.79 -46.7071 1617.78 -16.6642 1641.2 17.2787C1658.62 42.7542 1672.43 70.5672 1677.24 99.7758C1684.35 138.861 1671.14 178.441 1643.61 207.139C1575.76 277.324 1455.48 298.728 1353.37 304.932C1109.12 315.903 857.619 245.678 647.362 121.656C641.201 117.913 632.791 112.899 626.711 109.064C576.812 77.7453 525.235 48.2584 470.934 23.9779C391.315 -11.1197 289.602 -44.2471 205.217 -19.983C202.74 -19.2226 200.311 -18.3231 197.857 -17.4932L194.187 -16.233C192.968 -15.791 191.82 -15.2416 190.631 -14.7535L183.554 -11.7213L176.801 -8.18671C175.68 -7.57953 174.522 -7.04547 173.458 -6.38513L170.261 -4.38068C146.572 10.056 129.287 32.1329 120.626 56.8229C115.694 70.16 113.177 84.6232 112.461 98.8758C109.321 186.276 164.419 271.207 232.628 334.53C263.539 363.005 298.736 388.242 335.831 409.702C317.19 398.947 299.118 387.348 281.797 374.867C192.552 310.155 116.848 216.148 111.239 113.257C110.095 79.2598 118.467 45.2914 141.007 18.7617C144.261 15.2097 147.614 11.3436 151.368 8.1651C153.286 6.56128 155.062 4.68036 157.015 3.26263L163.036 -1.27484C165.802 -3.26898 169.698 -5.59009 172.618 -7.46722C174.365 -8.43604 180.808 -11.8269 182.817 -12.8643C185.917 -14.1887 190.655 -16.2847 193.539 -17.4404C197.228 -18.7206 200.99 -20.0571 204.667 -21.2396L212.296 -23.2917C277.139 -39.2048 347.646 -23.3123 411.2 -1.64478C440.641 8.72693 469.422 21.0269 497.482 34.4189C537.612 53.9445 576.476 75.6891 614.131 99.0635C830.987 235.87 1095.89 314.16 1353.06 302.591C1454.58 296.382 1574.03 275.083 1641.49 205.523C1668.56 177.245 1681.62 138.459 1674.62 99.9789C1664.39 41.8176 1622.38 -8.82532 1577.56 -51.7162C1502.65 -122.872 1405.8 -187.57 1295.74 -190.324C1230.82 -192.407 1169.06 -174.886 1110.8 -153.958C1013.72 -119.03 918.167 -73.1039 809.537 -69.3144C744.943 -66.6574 679.07 -80.5771 619.487 -106.764C546.299 -137.895 477.047 -184.092 435.791 -248.147C364.116 -359.539 394.012 -494.863 455.946 -596.684Z" fill="#FAECC8"/>
<path d="M455.946 -596.684C403.542 -497.817 381.219 -368.342 441.961 -262.261C461.987 -226.999 490.834 -195.624 524.511 -169.786C609.244 -106.698 718.588 -65.8666 825.976 -70.5182C934.356 -74.6017 1029.62 -120.302 1126.64 -155.21C1185.2 -176.222 1247.33 -193.679 1312.61 -191.476C1423.3 -188.437 1520.8 -123.353 1596.21 -51.8475C1619.2 -30.0964 1640.54 -6.78308 1658.11 18.6459C1757.55 163.266 1647.68 255.999 1497.35 289.539C1222.55 347.683 890.723 261.859 650.784 115.023C589.61 76.5235 526.214 40.1766 458.254 13.0178C418.226 -3.10217 376.255 -16.1884 333.525 -22.8105C283.404 -30.4046 228.662 -28.3846 187.423 -2.78192C168.01 8.98175 152.971 25.9882 143.293 45.1876C140.462 51.1093 138.003 57.2442 135.938 63.4591L135.474 65.1877L133.568 72.0883C131.903 78.8895 130.815 86.3118 130.02 93.283C121.864 201.271 205.56 309.002 298.991 376.399C316.276 388.908 334.322 400.55 352.937 411.348C334.299 400.582 316.224 388.995 298.89 376.511C208.272 311.052 129.44 212.224 128.285 107.603C128.078 103.678 128.754 97.1536 128.912 93.1498C129.259 90.5709 129.875 84.9127 130.273 82.4105C130.926 78.9051 131.634 75.2503 132.411 71.816L134.303 64.8613C140.431 44.1812 151.82 24.7345 168.5 9.76849C173.703 4.9234 180.312 -0.0488892 186.557 -3.82062C189.908 -6.18713 196.227 -9.22052 199.985 -11.2385C203.04 -12.5502 207.857 -14.6753 210.707 -15.8146L214.41 -17.0912C216.893 -17.9257 219.329 -18.8487 221.836 -19.6137L229.465 -21.666C230.739 -21.9925 232 -22.3731 233.292 -22.6572C306.568 -38.7683 389.112 -16.1341 458.887 11.5616C479.029 19.5426 498.894 28.5078 518.32 37.9354C557.203 56.9377 594.824 78.1475 631.342 100.801C776.174 192.736 941.822 256.569 1112.64 286.873C1250.67 310.562 1395.45 316.142 1526.93 279.354C1663.72 240.09 1745.6 149.589 1655.91 19.8203C1638.44 -5.45532 1617.26 -28.6245 1594.39 -50.281C1519.43 -121.4 1422.71 -186.203 1312.66 -189.285C1247.71 -191.511 1185.9 -174.105 1127.59 -153.254C1030.42 -118.436 934.752 -72.7689 826.157 -68.8439C718.295 -64.3445 608.632 -105.375 523.664 -168.866C489.945 -194.866 461.065 -226.439 441.067 -261.858C380.542 -368.271 403.16 -497.781 455.946 -596.684Z" fill="#FAECC8"/>
<path d="M455.946 -596.684C424.131 -527.05 408.839 -449.271 418.459 -372.026C433.784 -247.059 524.949 -155.943 652.174 -105.304C712.027 -80.3927 777.737 -67.1468 841.985 -70.0604C972.677 -74.8456 1082.32 -139.57 1202.63 -173.516C1220.33 -178.442 1238.44 -182.576 1256.79 -185.575C1373.88 -205.8 1474.54 -164.776 1564.71 -92.4167C1597.56 -65.8543 1629.56 -36.9266 1655.95 -5.04895C1712.07 61.6412 1739.73 143.806 1678.43 209.725C1637.6 253.374 1576.22 276.592 1515.05 291.043C1307.28 335.107 1080.49 296.788 878.941 220.65C813.073 195.237 749.356 164.677 688.957 129.259C674.98 121.166 661.331 112.543 647.618 104.104C602.062 75.7891 554.853 49.59 505.51 27.4069C418.53 -11.3898 292.704 -50.9153 207.844 -3.25934L201.45 0.749634C200.393 1.43707 199.286 2.04779 198.317 2.83435L192.338 7.32031C191.849 7.70593 191.326 8.05719 190.86 8.46173L189.486 9.69427L186.724 12.1558C183.354 15.0719 179.404 19.2443 176.4 22.6113C165.708 35.1359 158.021 49.6255 153.045 64.9422C151.841 69.4344 149.889 75.9193 149.199 80.5745C148.092 85.0801 147.756 90.2838 147.1 94.759C138.869 202.815 222.568 310.534 316.043 377.981C333.338 390.505 351.384 402.147 369.999 412.945C332.828 391.554 297.516 366.374 266.522 337.941C194.046 271.381 133.911 175.9 147.357 83.8747C151.095 61.3317 160.135 39.6549 175.305 21.8391C177.771 19.0965 180.313 16.3871 182.909 13.7427C184.269 12.456 187.108 10.0278 188.478 8.75647L189.869 7.51569C190.338 7.09937 190.861 6.74805 191.351 6.36243C193.95 4.39954 197.919 1.2782 200.541 -0.287964L203.761 -2.32422C207.936 -5.15057 212.715 -7.34869 217.199 -9.72675C220.33 -11.0558 225.014 -13.166 227.931 -14.2875C231.621 -15.5676 235.389 -16.9276 239.07 -18.0712C242.426 -18.9617 247.436 -20.3671 250.539 -21.1113C252.815 -21.5475 259.848 -22.9778 262.261 -23.4406C331.357 -34.0924 403.304 -14.7134 468.64 10.2297C491.4 19.114 513.78 28.9926 535.649 39.6547C574.543 58.6723 612.16 79.8938 648.689 102.563C829.779 217.27 1043.51 288.895 1259.06 304.515C1396.65 314.953 1621.87 299.374 1693.65 184.99C1746.2 97.2791 1666.39 -1.38086 1593.4 -65.256C1571.85 -84.3269 1548.6 -102.886 1524.55 -119.236C1439.65 -176.797 1350.3 -201.216 1249.48 -182.19C1171.13 -167.664 1100.5 -134.938 1027.09 -109.068C949.28 -80.8752 864.362 -60.3841 777.354 -70.8416C734.351 -75.6461 691.531 -87.5357 651.547 -104.085C523.926 -155.057 432.782 -246.684 417.742 -372.017C408.339 -449.38 423.855 -527.087 455.883 -596.714L455.946 -596.684Z" fill="#FAECC8"/>
</svg>
