<svg width="313" height="893" viewBox="0 0 313 893" fill="none" xmlns="http://www.w3.org/2000/svg">
<g opacity="0.3">
<mask id="mask0_401_7670" style="mask-type:alpha" maskUnits="userSpaceOnUse" x="0" y="0" width="313" height="893">
<rect width="312.55" height="893" transform="matrix(-1 0 0 1 313 0)" fill="#D9D9D9"/>
</mask>
<g mask="url(#mask0_401_7670)">
<path d="M314.235 -93.21C331.139 -52.7749 332.591 -4.28185 317.51 38.2433C313.642 49.2988 308.637 60.0731 302.794 70.1089C298.038 78.5646 292.395 86.626 286.655 94.301C272.673 112.8 258.595 131.856 245.662 151.194C230.801 173.934 215.755 198.388 211.498 226.083C209.807 235.866 209.68 245.749 208.986 255.547C208.314 261.355 206.922 267.028 205.281 272.645C191.732 316.903 157.861 371.533 194.997 411.014C226.661 448.125 237.19 508.988 229.376 558.954C227.938 566.615 224.866 573.922 221.893 581.167C218.86 588.409 215.649 595.581 212.462 602.772C199.829 631.549 186.991 660.824 181.974 692.231C178.074 717.387 180.896 740.004 197.49 758.571C222.305 786.666 253.908 806.421 280.432 832.415C311.399 861.737 337.404 899.049 331.9 946.719C330.847 956.281 329.595 966.406 327.915 975.89C324.674 995.162 319.59 1014.35 310.153 1031.45C306.429 1038.35 302.299 1045.1 299.218 1052.4C294.512 1063.4 292.426 1075.37 291.319 1087.22C291.162 1089.19 290.971 1091.16 290.848 1093.13L290.516 1099.05C289.347 1120.29 298.604 1137.47 314.984 1148.7C333.15 1161.51 354.687 1167.34 374.169 1177.25C386.823 1183.68 400.3 1193.36 402.138 1209.59L402.392 1209.55C400.732 1193.09 387.214 1183.1 374.538 1176.46C355.163 1166.24 333.827 1160.24 315.849 1147.35C297.499 1134.15 290.422 1117.08 292.838 1093.22C293.833 1079.69 295.781 1065.88 301.208 1053.33C305.893 1042.52 312.728 1032.86 317.432 1022.02C327.099 1000.24 330.992 976.34 333.828 952.83C344.658 883.603 294.081 837.781 248.644 801.095C228.699 784.115 198.049 762.982 187.355 738.081C171.901 697.331 197.467 641.814 213.725 603.385C216.861 596.173 220.03 588.972 223.023 581.681C225.957 574.379 229.006 567.024 230.44 559.13C237.186 513.529 229.355 461.747 205.721 423.963C203.252 420.002 200.355 416.082 197.493 412.444C195.902 410.559 193.663 407.913 192.118 405.974C182.527 394.483 178.248 378.714 179.476 363.103C181.744 331.407 197.85 303.139 207.153 273.231C209.463 265.637 211.29 257.699 211.505 249.754C211.978 236.098 213.504 222.403 217.738 209.351C221.902 196.333 228.282 184.073 235.087 172.369C244.836 155.839 256.272 139.254 267.421 123.781C276.341 111.27 286.159 98.667 295.063 86.1272C304.012 73.2711 311.374 59.1561 317.042 44.3858C328.422 14.8562 331.698 -17.8528 327.05 -48.7916C325.322 -60.3814 322.611 -71.7802 318.76 -82.6847C317.467 -86.3167 316.085 -89.905 314.453 -93.3709L314.219 -93.2386L314.217 -93.2106L314.235 -93.21Z" fill="#73206F"/>
<path d="M324.361 -94.5395C341.266 -54.1044 342.718 -5.61134 327.637 36.9138C323.769 47.9693 318.764 58.7436 312.921 68.7794C308.165 77.2351 302.522 85.2965 296.782 92.9715C282.8 111.47 268.722 130.527 255.789 149.865C240.928 172.605 225.882 197.058 221.625 224.753C219.934 234.536 219.807 244.419 219.113 254.217C218.441 260.026 217.049 265.698 215.408 271.315C201.859 315.574 167.988 370.203 205.124 409.685C236.788 446.795 247.317 507.658 239.503 557.624C238.065 565.285 234.993 572.592 232.02 579.837C228.987 587.08 225.776 594.251 222.589 601.442C209.956 630.22 197.118 659.494 192.101 690.902C188.201 716.058 191.023 738.674 207.617 757.241C232.432 785.337 264.035 805.091 290.559 831.086C321.526 860.407 347.531 897.719 342.027 945.389C340.974 954.951 339.722 965.076 338.042 974.561C334.801 993.833 329.717 1013.02 320.28 1030.12C316.556 1037.02 312.426 1043.77 309.345 1051.07C304.639 1062.07 302.553 1074.04 301.446 1085.89C301.289 1087.86 301.098 1089.83 300.975 1091.81L300.643 1097.72C299.474 1118.96 308.731 1136.14 325.111 1147.37C343.277 1160.18 364.814 1166.02 384.296 1175.92C396.95 1182.35 410.427 1192.03 412.265 1208.26L412.519 1208.22C410.859 1191.76 397.341 1181.77 384.665 1175.13C365.29 1164.91 343.954 1158.91 325.976 1146.02C307.626 1132.82 300.549 1115.75 302.965 1091.89C303.96 1078.36 305.908 1064.55 311.334 1052C316.02 1041.19 322.855 1031.53 327.559 1020.69C337.226 998.914 341.119 975.01 343.955 951.501C354.785 882.274 304.208 836.452 258.771 799.765C238.826 782.786 208.176 761.652 197.482 736.752C182.028 696.001 207.594 640.485 223.852 602.055C226.988 594.844 230.157 587.643 233.15 580.352C236.084 573.049 239.133 565.695 240.567 557.8C247.313 512.2 239.482 460.417 215.848 422.634C213.379 418.672 210.482 414.753 207.62 411.114C206.029 409.229 203.79 406.584 202.245 404.644C192.654 393.154 188.375 377.385 189.603 361.773C191.871 330.077 207.976 301.809 217.28 271.902C219.59 264.307 221.417 256.369 221.632 248.424C222.105 234.769 223.631 221.074 227.865 208.021C232.029 195.004 238.409 182.743 245.214 171.039C254.963 154.51 266.399 137.925 277.548 122.451C286.468 109.94 296.286 97.3375 305.19 84.7977C314.139 71.9416 321.501 57.8266 327.169 43.0563C338.549 13.5267 341.825 -19.1822 337.177 -50.1211C335.449 -61.7109 332.738 -73.1097 328.887 -84.0142C327.594 -87.6462 326.212 -91.2345 324.58 -94.7004L324.346 -94.5681L324.344 -94.5401L324.361 -94.5395Z" fill="#73206F"/>
<path d="M334.497 -95.8717C351.401 -55.4365 352.853 -6.9435 337.772 35.5816C333.904 46.6372 328.9 57.4114 323.056 67.4472C318.3 75.9029 312.657 83.9643 306.917 91.6393C292.935 110.138 278.857 129.195 265.924 148.533C251.063 171.273 236.017 195.726 231.76 223.421C230.069 233.204 229.942 243.087 229.248 252.885C228.576 258.694 227.184 264.366 225.544 269.983C211.994 314.242 178.123 368.871 215.259 408.353C246.923 445.463 257.453 506.326 249.638 556.292C248.2 563.953 245.128 571.26 242.155 578.505C239.122 585.748 235.911 592.919 232.724 600.11C220.091 628.887 207.253 658.162 202.237 689.57C198.336 714.726 201.158 737.342 217.752 755.909C242.567 784.004 274.17 803.759 300.695 829.754C331.661 859.075 357.666 896.387 352.162 944.057C351.109 953.619 349.857 963.744 348.177 973.229C344.936 992.501 339.852 1011.69 330.415 1028.78C326.691 1035.69 322.561 1042.43 319.48 1049.74C314.774 1060.74 312.688 1072.71 311.581 1084.56C311.424 1086.53 311.233 1088.5 311.11 1090.47L310.778 1096.39C309.609 1117.63 318.866 1134.81 335.247 1146.04C353.412 1158.85 374.949 1164.68 394.431 1174.59C407.085 1181.02 420.562 1190.69 422.4 1206.93L422.655 1206.89C420.994 1190.43 407.476 1180.44 394.801 1173.8C375.426 1163.58 354.089 1157.58 336.111 1144.68C317.762 1131.49 310.684 1114.42 313.1 1090.56C314.095 1077.02 316.043 1063.22 321.47 1050.67C326.155 1039.85 332.99 1030.2 337.694 1019.36C347.361 997.582 351.254 973.678 354.09 950.168C364.92 880.942 314.343 835.12 268.906 798.433C248.961 781.454 218.311 760.32 207.617 735.42C192.163 694.669 217.729 639.153 233.987 600.723C237.123 593.512 240.293 586.311 243.286 579.02C246.219 571.717 249.268 564.363 250.702 556.468C257.449 510.868 249.617 459.085 225.983 421.302C223.514 417.34 220.617 413.421 217.755 409.782C216.164 407.897 213.925 405.252 212.38 403.312C202.789 391.822 198.51 376.053 199.738 360.441C202.006 328.745 218.112 300.477 227.415 270.569C229.725 262.975 231.552 255.037 231.767 247.092C232.24 233.436 233.766 219.741 238 206.689C242.164 193.672 248.544 181.411 255.349 169.707C265.098 153.177 276.534 136.592 287.683 121.119C296.603 108.608 306.421 96.0054 315.325 83.4655C324.274 70.6095 331.636 56.4944 337.305 41.7242C348.684 12.1946 351.96 -20.5144 347.312 -51.4532C345.584 -63.0431 342.874 -74.4418 339.022 -85.3463C337.729 -88.9783 336.347 -92.5666 334.715 -96.0325L334.481 -95.9002L334.479 -95.8723L334.497 -95.8717Z" fill="#73206F"/>
<path d="M344.632 -97.203C361.536 -56.7679 362.988 -8.27482 347.907 34.2503C344.039 45.3058 339.035 56.0801 333.192 66.1159C328.435 74.5716 322.792 82.633 317.052 90.308C303.07 108.807 288.992 127.863 276.059 147.201C261.198 169.941 246.152 194.395 241.895 222.09C240.204 231.873 240.078 241.756 239.384 251.554C238.711 257.362 237.319 263.035 235.679 268.652C222.129 312.91 188.258 367.54 225.395 407.021C257.058 444.132 267.588 504.995 259.773 554.961C258.335 562.622 255.263 569.929 252.29 577.174C249.257 584.417 246.046 591.588 242.868 598.779C230.235 627.556 217.397 656.831 212.38 688.239C208.48 713.395 211.302 736.011 227.896 754.578C252.711 782.673 284.314 802.428 310.838 828.423C341.805 857.744 367.81 895.056 362.306 942.726C361.253 952.288 360.001 962.413 358.321 971.898C355.079 991.17 349.996 1010.36 340.559 1027.45C336.835 1034.35 332.705 1041.1 329.624 1048.41C324.918 1059.41 322.832 1071.37 321.725 1083.22C321.568 1085.2 321.377 1087.17 321.254 1089.14L320.922 1095.06C319.753 1116.29 329.009 1133.47 345.39 1144.71C363.556 1157.51 385.093 1163.35 404.574 1173.26C417.229 1179.69 430.705 1189.36 432.544 1205.6L432.798 1205.55C431.138 1189.1 417.62 1179.11 404.944 1172.47C385.569 1162.25 364.233 1156.25 346.255 1143.35C327.905 1130.16 320.828 1113.09 323.243 1089.23C324.238 1075.69 326.187 1061.89 331.613 1049.34C336.299 1038.52 343.133 1028.87 347.838 1018.03C357.505 996.251 361.398 972.347 364.234 948.837C375.064 879.611 324.487 833.789 279.05 797.102C259.105 780.123 228.464 758.989 217.761 734.089C202.316 693.338 227.873 637.822 244.131 599.392C247.267 592.18 250.436 584.98 253.429 577.689C256.362 570.386 259.411 563.032 260.846 555.137C267.592 509.537 259.761 457.754 236.127 419.97C233.658 416.009 230.761 412.089 227.899 408.451C226.307 406.566 224.069 403.921 222.524 401.981C212.933 390.491 208.654 374.722 209.882 359.11C212.15 327.414 228.255 299.146 237.559 269.238C239.868 261.644 241.696 253.706 241.911 245.761C242.384 232.105 243.91 218.41 248.144 205.358C252.308 192.341 258.687 180.08 265.493 168.376C275.242 151.846 286.677 135.261 297.827 119.788C306.747 107.277 316.565 94.6743 325.469 82.1345C334.418 69.2784 341.78 55.1634 347.448 40.3932C358.827 10.8635 362.104 -21.8454 357.456 -52.7843C355.728 -64.3741 353.017 -75.7728 349.166 -86.6773C347.873 -90.3094 346.491 -93.8977 344.859 -97.3636L344.625 -97.2313L344.623 -97.2033L344.632 -97.203Z" fill="#73206F"/>
<path d="M354.767 -98.5327C371.671 -58.0975 373.124 -9.60447 358.042 32.9207C354.174 43.9762 349.17 54.7505 343.327 64.7862C338.57 73.242 332.928 81.3034 327.188 88.9784C313.205 107.477 299.127 126.534 286.194 145.872C271.333 168.612 256.288 193.065 252.03 220.76C250.34 230.543 250.213 240.426 249.519 250.224C248.847 256.033 247.454 261.705 245.814 267.322C232.264 311.581 198.393 366.21 235.53 405.692C267.193 442.802 277.723 503.665 269.908 553.631C268.471 561.292 265.399 568.599 262.426 575.844C259.392 583.087 256.181 590.258 253.003 597.45C240.37 626.227 227.532 655.502 222.516 686.909C218.615 712.065 221.437 734.681 238.031 753.248C262.847 781.344 294.449 801.099 320.974 827.093C351.94 856.414 377.945 893.727 372.441 941.396C371.389 950.958 370.137 961.083 368.456 970.568C365.215 989.84 360.131 1009.03 350.694 1026.12C346.97 1033.02 342.84 1039.77 339.759 1047.08C335.053 1058.08 332.967 1070.04 331.86 1081.89C331.703 1083.87 331.512 1085.84 331.389 1087.81L331.057 1093.73C329.889 1114.96 339.145 1132.14 355.526 1143.38C373.691 1156.19 395.228 1162.02 414.71 1171.93C427.364 1178.36 440.841 1188.03 442.679 1204.27L442.934 1204.22C441.274 1187.77 427.756 1177.78 415.08 1171.14C395.705 1160.92 374.368 1154.92 356.39 1142.02C338.041 1128.83 330.963 1111.76 333.379 1087.9C334.374 1074.36 336.322 1060.56 341.749 1048.01C346.434 1037.19 353.269 1027.54 357.974 1016.7C367.64 994.921 371.533 971.017 374.369 947.508C385.199 878.281 334.622 832.459 289.185 795.772C269.241 778.793 238.599 757.66 227.896 732.759C212.451 692.009 238.008 636.492 254.266 598.062C257.402 590.851 260.572 583.65 263.565 576.359C266.498 569.057 269.547 561.702 270.981 553.807C277.728 508.207 269.896 456.425 246.262 418.641C243.793 414.679 240.896 410.76 238.034 407.122C236.443 405.236 234.204 402.591 232.659 400.651C223.068 389.161 218.789 373.392 220.017 357.781C222.285 326.084 238.391 297.817 247.694 267.909C250.004 260.314 251.831 252.377 252.046 244.431C252.52 230.776 254.045 217.081 258.28 204.028C262.443 191.011 268.823 178.751 275.628 167.046C285.377 150.517 296.813 133.932 307.962 118.458C316.882 105.947 326.7 93.3447 335.604 80.8048C344.553 67.9488 351.915 53.8337 357.584 39.0635C368.963 9.5339 372.239 -23.1751 367.591 -54.1139C365.863 -65.7038 363.153 -77.1025 359.301 -88.007C358.008 -91.639 356.626 -95.2273 354.994 -98.6932L354.76 -98.5609L354.758 -98.533L354.767 -98.5327Z" fill="#73206F"/>
<path d="M364.902 -99.8615C381.806 -59.4263 383.259 -10.9333 368.178 31.5919C364.309 42.6474 359.305 53.4217 353.462 63.4574C348.706 71.9132 343.063 79.9746 337.323 87.6496C323.34 106.149 309.262 125.205 296.329 144.543C281.468 167.283 266.423 191.736 262.165 219.431C260.475 229.215 260.348 239.097 259.654 248.895C258.982 254.704 257.59 260.376 255.949 265.993C242.4 310.252 208.528 364.881 245.665 404.363C277.328 441.473 287.858 502.337 280.043 552.302C278.606 559.963 275.534 567.27 272.561 574.515C269.527 581.758 266.316 588.93 263.13 596.121C250.497 624.898 237.659 654.173 232.642 685.58C228.741 710.736 231.563 733.352 248.158 751.919C272.973 780.015 304.576 799.77 331.1 825.764C362.067 855.085 388.072 892.398 382.567 940.067C381.515 949.629 380.263 959.754 378.582 969.239C375.341 988.511 370.258 1007.7 360.82 1024.79C357.097 1031.7 352.967 1038.44 349.886 1045.75C345.18 1056.75 343.094 1068.72 341.987 1080.57C341.829 1082.54 341.638 1084.51 341.516 1086.48L341.184 1092.4C340.015 1113.64 349.271 1130.82 365.652 1142.05C383.818 1154.86 405.355 1160.69 424.836 1170.6C437.491 1177.03 450.967 1186.71 452.806 1202.94L453.06 1202.9C451.4 1186.44 437.882 1176.45 425.206 1169.81C405.831 1159.59 384.494 1153.59 366.517 1140.69C348.167 1127.5 341.09 1110.43 343.505 1086.57C344.5 1073.03 346.448 1059.23 351.875 1046.68C356.561 1035.86 363.395 1026.21 368.1 1015.37C377.767 993.592 381.66 969.688 384.496 946.179C395.325 876.952 344.748 831.13 299.312 794.443C279.367 777.464 248.726 756.33 238.023 731.43C222.578 690.68 248.134 635.163 264.393 596.733C267.529 589.522 270.698 582.321 273.691 575.03C276.624 567.728 279.673 560.373 281.108 552.478C287.854 506.878 280.023 455.095 256.389 417.312C253.92 413.35 251.023 409.431 248.161 405.793C246.569 403.907 244.331 401.262 242.786 399.322C233.194 387.832 228.916 372.063 230.144 356.452C232.411 324.755 248.517 296.488 257.821 266.58C260.13 258.985 261.958 251.048 262.173 243.102C262.646 229.447 264.171 215.752 268.406 202.699C272.569 189.682 278.949 177.421 285.754 165.717C295.504 149.188 306.939 132.603 318.089 117.129C327.008 104.618 336.827 92.0156 345.73 79.4757C354.68 66.6197 362.042 52.5046 367.71 37.7344C379.089 8.2048 382.365 -24.5042 377.717 -55.443C375.99 -67.0329 373.279 -78.4316 369.428 -89.3361C368.135 -92.9681 366.753 -96.5564 365.12 -100.022L364.887 -99.89L364.885 -99.862L364.902 -99.8615Z" fill="#73206F"/>
<path d="M375.029 -101.191C391.933 -60.7558 393.386 -12.2628 378.305 30.2624C374.437 41.3179 369.432 52.0922 363.589 62.1279C358.833 70.5837 353.19 78.6451 347.45 86.32C333.467 104.819 319.39 123.875 306.457 143.213C291.595 165.954 276.55 190.407 272.292 218.102C270.602 227.885 270.475 237.768 269.781 247.566C269.109 253.374 267.717 259.047 266.076 264.664C252.527 308.923 218.656 363.552 255.792 403.033C287.456 440.144 297.985 501.007 290.17 550.973C288.733 558.634 285.661 565.941 282.688 573.186C279.655 580.429 276.443 587.6 273.257 594.791C260.624 623.568 247.786 652.843 242.769 684.25C238.868 709.406 241.691 732.023 258.285 750.59C283.1 778.685 314.703 798.44 341.227 824.434C372.194 853.756 398.199 891.068 392.694 938.738C391.642 948.3 390.39 958.425 388.71 967.909C385.468 987.181 380.385 1006.37 370.947 1023.46C367.224 1030.37 363.094 1037.11 360.013 1044.42C355.307 1055.42 353.221 1067.39 352.114 1079.24C351.957 1081.21 351.765 1083.18 351.643 1085.15L351.311 1091.07C350.142 1112.31 359.398 1129.49 375.779 1140.72C393.945 1153.53 415.482 1159.36 434.963 1169.27C447.618 1175.7 461.094 1185.38 462.933 1201.61L463.187 1201.57C461.527 1185.11 448.009 1175.12 435.333 1168.48C415.958 1158.26 394.622 1152.26 376.644 1139.37C358.294 1126.17 351.217 1109.1 353.632 1085.24C354.627 1071.7 356.576 1057.9 362.002 1045.35C366.688 1034.53 373.522 1024.88 378.227 1014.04C387.894 992.263 391.787 968.359 394.623 944.849C405.453 875.622 354.875 829.8 309.439 793.114C289.494 776.135 258.844 755.001 248.15 730.1C232.696 689.35 258.262 633.833 274.52 595.404C277.656 588.192 280.825 580.991 283.818 573.7C286.751 566.398 289.8 559.043 291.235 551.149C297.981 505.549 290.15 453.766 266.516 415.982C264.047 412.021 261.15 408.101 258.288 404.463C256.696 402.578 254.458 399.932 252.913 397.993C243.321 386.502 239.043 370.733 240.271 355.122C242.539 323.426 258.644 295.158 267.948 265.25C270.257 257.656 272.085 249.718 272.3 241.773C272.773 228.117 274.298 214.422 278.533 201.37C282.696 188.352 289.076 176.092 295.881 164.388C305.631 147.858 317.066 131.273 328.216 115.8C337.135 103.289 346.954 90.6861 355.857 78.1462C364.807 65.2902 372.169 51.1751 377.837 36.4049C389.216 6.8753 392.492 -25.8337 387.844 -56.7725C386.117 -68.3624 383.406 -79.7611 379.555 -90.6656C378.262 -94.2976 376.88 -97.8859 375.247 -101.352L375.014 -101.22L375.012 -101.192L375.029 -101.191Z" fill="#73206F"/>
<path d="M385.164 -102.522C402.068 -62.0873 403.52 -13.5942 388.439 28.9309C384.571 39.9864 379.567 50.7607 373.724 60.7965C368.967 69.2522 363.324 77.3136 357.584 84.9886C343.602 103.488 329.524 122.544 316.591 141.882C301.73 164.622 286.684 189.075 282.427 216.77C280.736 226.554 280.61 236.436 279.916 246.234C279.243 252.043 277.851 257.715 276.211 263.332C262.661 307.591 228.79 362.22 265.926 401.702C297.59 438.812 308.12 499.676 300.305 549.641C298.867 557.302 295.795 564.609 292.822 571.854C289.789 579.097 286.578 586.269 283.391 593.46C270.758 622.237 257.92 651.512 252.904 682.919C249.003 708.075 251.825 730.691 268.419 749.258C293.235 777.354 324.837 797.109 351.362 823.103C382.328 852.424 408.333 889.737 402.829 937.407C401.777 946.968 400.525 957.093 398.844 966.578C395.603 985.85 390.519 1005.04 381.082 1022.13C377.358 1029.03 373.228 1035.78 370.147 1043.09C365.441 1054.09 363.355 1066.05 362.248 1077.9C362.091 1079.88 361.9 1081.85 361.777 1083.82L361.445 1089.74C360.277 1110.97 369.533 1128.15 385.914 1139.39C404.079 1152.19 425.617 1158.03 445.098 1167.94C457.752 1174.37 471.229 1184.04 473.067 1200.28L473.322 1200.23C471.662 1183.78 458.144 1173.79 445.468 1167.15C426.093 1156.93 404.756 1150.93 386.778 1138.03C368.429 1124.84 361.351 1107.77 363.767 1083.91C364.762 1070.37 366.71 1056.57 372.137 1044.02C376.822 1033.2 383.657 1023.55 388.362 1012.71C398.028 990.931 401.921 967.027 404.757 943.518C415.587 874.291 365.01 828.469 319.574 791.782C299.629 774.803 268.979 753.66 258.284 728.769C242.831 688.018 268.396 632.502 284.654 594.072C287.79 586.861 290.96 579.66 293.953 572.369C296.886 565.067 299.935 557.712 301.369 549.817C308.116 504.217 300.284 452.435 276.65 414.651C274.181 410.689 271.285 406.77 268.422 403.132C266.831 401.246 264.592 398.601 263.047 396.661C253.456 385.171 249.177 369.402 250.405 353.791C252.673 322.094 268.779 293.827 278.082 263.919C280.392 256.324 282.219 248.387 282.434 240.441C282.908 226.786 284.433 213.091 288.668 200.038C292.831 187.021 299.211 174.761 306.016 163.056C315.765 146.527 327.201 129.942 338.351 114.468C347.27 101.957 357.088 89.3547 365.992 76.8148C374.941 63.9587 382.303 49.8437 387.972 35.0735C399.351 5.54386 402.627 -27.1651 397.979 -58.104C396.251 -69.6938 393.541 -81.0925 389.689 -91.997C388.396 -95.629 387.014 -99.2174 385.382 -102.683L385.148 -102.551L385.146 -102.523L385.164 -102.522Z" fill="#73206F"/>
<path d="M395.299 -103.854C412.203 -63.4192 413.655 -14.9262 398.574 27.599C394.706 38.6545 389.702 49.4288 383.859 59.4645C379.102 67.9203 373.46 75.9817 367.719 83.6567C353.737 102.156 339.659 121.212 326.726 140.55C311.865 163.29 296.82 187.743 292.562 215.438C290.871 225.222 290.745 235.104 290.051 244.902C289.378 250.711 287.986 256.383 286.346 262C272.796 306.259 238.925 360.888 276.062 400.37C307.725 437.48 318.255 498.344 310.44 548.309C309.002 555.97 305.93 563.277 302.957 570.522C299.924 577.765 296.713 584.937 293.535 592.128C280.902 620.905 268.064 650.18 263.047 681.587C259.147 706.743 261.969 729.36 278.563 747.927C303.378 776.022 334.981 795.777 361.505 821.771C392.472 851.093 418.477 888.405 412.973 936.075C411.92 945.637 410.668 955.762 408.988 965.246C405.747 984.518 400.663 1003.71 391.226 1020.8C387.502 1027.7 383.372 1034.45 380.291 1041.76C375.585 1052.76 373.499 1064.72 372.392 1076.57C372.235 1078.55 372.044 1080.51 371.921 1082.49L371.589 1088.4C370.42 1109.64 379.676 1126.82 396.057 1138.06C414.223 1150.86 435.76 1156.7 455.241 1166.61C467.896 1173.03 481.373 1182.71 483.211 1198.95L483.465 1198.9C481.805 1182.45 468.287 1172.46 455.611 1165.82C436.236 1155.6 414.9 1149.6 396.922 1136.7C378.572 1123.51 371.495 1106.44 373.91 1082.58C374.905 1069.04 376.854 1055.24 382.28 1042.68C386.966 1031.87 393.801 1022.22 398.505 1011.37C408.172 989.6 412.065 965.696 414.901 942.186C425.731 872.959 375.154 827.137 329.717 790.451C309.772 773.472 279.131 752.338 268.428 727.437C252.983 686.687 278.54 631.17 294.798 592.741C297.934 585.529 301.103 578.328 304.096 571.037C307.029 563.735 310.078 556.38 311.513 548.486C318.259 502.885 310.428 451.103 286.794 413.319C284.325 409.358 281.428 405.438 278.566 401.8C276.974 399.915 274.736 397.269 273.191 395.33C263.6 383.839 259.321 368.07 260.549 352.459C262.817 320.763 278.922 292.495 288.226 262.587C290.535 254.993 292.363 247.055 292.578 239.11C293.051 225.454 294.577 211.759 298.811 198.707C302.975 185.689 309.355 173.429 316.16 161.725C325.909 145.195 337.345 128.61 348.494 113.137C357.414 100.625 367.232 88.023 376.136 75.4831C385.085 62.6271 392.447 48.512 398.115 33.7418C409.494 4.2122 412.771 -28.4968 408.123 -59.4356C406.395 -71.0255 403.684 -82.4242 399.833 -93.3287C398.54 -96.9607 397.158 -100.549 395.526 -104.015L395.292 -103.883L395.29 -103.855L395.299 -103.854Z" fill="#73206F"/>
<path d="M405.434 -105.183C422.338 -64.7482 423.791 -16.2552 408.709 26.27C404.841 37.3255 399.837 48.0998 393.994 58.1355C389.237 66.5913 383.595 74.6527 377.855 82.3276C363.872 100.827 349.794 119.883 336.861 139.221C322 161.961 306.955 186.414 302.697 214.109C301.007 223.893 300.88 233.775 300.186 243.573C299.514 249.382 298.121 255.054 296.481 260.671C282.932 304.93 249.06 359.559 286.197 399.041C317.86 436.151 328.39 497.015 320.575 546.98C319.138 554.641 316.066 561.948 313.093 569.193C310.059 576.436 306.848 583.608 303.671 590.799C291.037 619.576 278.199 648.851 273.183 680.258C269.282 705.414 272.104 728.031 288.698 746.598C313.514 774.693 345.117 794.448 371.641 820.442C402.607 849.764 428.612 887.076 423.108 934.746C422.056 944.307 420.804 954.433 419.123 963.917C415.882 983.189 410.798 1002.38 401.361 1019.47C397.637 1026.37 393.507 1033.12 390.426 1040.43C385.72 1051.43 383.635 1063.39 382.527 1075.24C382.37 1077.22 382.179 1079.18 382.056 1081.16L381.725 1087.08C380.556 1108.31 389.812 1125.49 406.193 1136.73C424.358 1149.53 445.896 1155.37 465.377 1165.28C478.031 1171.71 491.508 1181.38 493.346 1197.62L493.601 1197.57C491.941 1181.12 478.423 1171.13 465.747 1164.49C446.372 1154.27 425.035 1148.27 407.057 1135.37C388.708 1122.18 381.63 1105.11 384.046 1081.25C385.041 1067.71 386.989 1053.91 392.416 1041.36C397.101 1030.54 403.936 1020.89 408.641 1010.05C418.308 988.271 422.2 964.367 425.036 940.857C435.866 871.63 385.289 825.808 339.853 789.121C319.908 772.142 289.266 751.009 278.563 726.108C263.118 685.358 288.675 629.841 304.934 591.412C308.069 584.2 311.239 576.999 314.232 569.708C317.165 562.406 320.214 555.051 321.648 547.157C328.395 501.556 320.563 449.774 296.929 411.99C294.46 408.029 291.564 404.109 288.702 400.471C287.11 398.586 284.871 395.94 283.326 394.001C273.735 382.51 269.456 366.741 270.684 351.13C272.952 319.434 289.058 291.166 298.361 261.258C300.671 253.664 302.498 245.726 302.713 237.781C303.187 224.125 304.712 210.43 308.947 197.378C313.11 184.36 319.49 172.1 326.295 160.396C336.044 143.866 347.48 127.281 358.63 111.808C367.549 99.2965 377.367 86.694 386.271 74.1541C395.22 61.2981 402.583 47.183 408.251 32.4128C419.63 2.88318 422.906 -29.8258 418.258 -60.7646C416.53 -72.3545 413.82 -83.7532 409.968 -94.6577C408.676 -98.2897 407.293 -101.878 405.661 -105.344L405.427 -105.212L405.425 -105.184L405.434 -105.183Z" fill="#73206F"/>
<path d="M415.569 -106.513C432.474 -66.0775 433.926 -17.5845 418.845 24.9407C414.977 35.9962 409.972 46.7704 404.129 56.8062C399.373 65.2619 393.73 73.3234 387.99 80.9983C374.007 99.4973 359.93 118.554 346.997 137.892C332.136 160.632 317.09 185.085 312.833 212.78C311.142 222.563 311.015 232.446 310.321 242.244C309.649 248.053 308.257 253.725 306.616 259.342C293.067 303.601 259.196 358.23 296.332 397.712C327.996 434.822 338.525 495.685 330.711 545.651C329.273 553.312 326.201 560.619 323.228 567.864C320.195 575.107 316.984 582.278 313.806 589.47C301.173 618.247 288.335 647.522 283.318 678.929C279.417 704.085 282.239 726.701 298.834 745.268C323.649 773.364 355.252 793.119 381.776 819.113C412.743 848.434 438.747 885.747 433.243 933.416C432.191 942.978 430.939 953.103 429.258 962.588C426.017 981.86 420.934 1001.05 411.496 1018.14C407.773 1025.04 403.643 1031.79 400.562 1039.1C395.856 1050.1 393.77 1062.06 392.663 1073.91C392.505 1075.89 392.314 1077.86 392.192 1079.83L391.86 1085.75C390.691 1106.98 399.947 1124.16 416.328 1135.4C434.493 1148.21 456.031 1154.04 475.512 1163.95C488.167 1170.38 501.643 1180.05 503.482 1196.29L503.736 1196.24C502.076 1179.79 488.558 1169.8 475.882 1163.16C456.507 1152.94 435.17 1146.94 417.193 1134.04C398.843 1120.85 391.766 1103.78 394.181 1079.92C395.176 1066.38 397.124 1052.58 402.551 1040.03C407.237 1029.21 414.071 1019.56 418.776 1008.72C428.443 986.941 432.335 963.037 435.171 939.528C446.001 870.301 395.424 824.479 349.988 787.792C330.043 770.813 299.401 749.679 288.698 724.779C273.254 684.029 298.81 628.512 315.069 590.082C318.204 582.871 321.374 575.67 324.367 568.379C327.3 561.077 330.349 553.722 331.784 545.827C338.53 500.227 330.699 448.445 307.065 410.661C304.596 406.699 301.699 402.78 298.837 399.142C297.245 397.256 295.007 394.611 293.462 392.671C283.87 381.181 279.592 365.412 280.819 349.801C283.087 318.104 299.193 289.837 308.497 259.929C310.806 252.334 312.634 244.397 312.849 236.451C313.322 222.796 314.847 209.101 319.082 196.048C323.245 183.031 329.625 170.771 336.43 159.066C346.18 142.537 357.615 125.952 368.765 110.478C377.684 97.9672 387.503 85.3647 396.406 72.8248C405.356 59.9687 412.718 45.8537 418.386 31.0835C429.765 1.55388 433.041 -31.1551 428.393 -62.0939C426.666 -73.6838 423.955 -85.0825 420.104 -95.987C418.811 -99.619 417.429 -103.207 415.796 -106.673L415.563 -106.541L415.561 -106.513L415.569 -106.513Z" fill="#73206F"/>
<path d="M425.697 -107.84C442.601 -67.4047 444.053 -18.9116 428.972 23.6135C425.104 34.669 420.099 45.4433 414.256 55.4791C409.5 63.9348 403.857 71.9962 398.117 79.6712C384.135 98.1702 370.057 117.227 357.124 136.565C342.263 159.305 327.217 183.758 322.96 211.453C321.269 221.236 321.142 231.119 320.448 240.917C319.776 246.726 318.384 252.398 316.743 258.015C303.194 302.274 269.323 356.903 306.459 396.384C338.123 433.495 348.652 494.358 340.838 544.324C339.4 551.985 336.328 559.292 333.355 566.537C330.322 573.78 327.111 580.951 323.924 588.142C311.291 616.919 298.453 646.194 293.436 677.602C289.536 702.758 292.358 725.374 308.952 743.941C333.767 772.036 365.37 791.791 391.894 817.786C422.861 847.107 448.866 884.419 443.362 932.089C442.309 941.651 441.057 951.776 439.377 961.26C436.136 980.533 431.052 999.724 421.615 1016.82C417.891 1023.72 413.761 1030.47 410.68 1037.77C405.974 1048.77 403.888 1060.74 402.781 1072.59C402.624 1074.56 402.433 1076.53 402.31 1078.51L401.978 1084.42C400.809 1105.66 410.066 1122.84 426.446 1134.07C444.612 1146.88 466.149 1152.72 485.631 1162.62C498.285 1169.05 511.762 1178.73 513.6 1194.96L513.854 1194.92C512.194 1178.46 498.676 1168.47 486 1161.83C466.625 1151.61 445.289 1145.61 427.311 1132.72C408.962 1119.52 401.884 1102.45 404.3 1078.59C405.295 1065.06 407.243 1051.25 412.67 1038.7C417.355 1027.89 424.19 1018.23 428.894 1007.39C438.561 985.614 442.454 961.71 445.29 938.2C456.12 868.974 405.543 823.152 360.106 786.465C340.161 769.486 309.52 748.352 298.817 723.452C283.363 682.701 308.929 627.185 325.187 588.755C328.323 581.543 331.492 574.342 334.485 567.052C337.419 559.749 340.468 552.395 341.902 544.5C348.648 498.9 340.817 447.117 317.183 409.333C314.714 405.372 311.817 401.452 308.955 397.814C307.364 395.929 305.125 393.284 303.58 391.344C293.989 379.853 289.71 364.085 290.938 348.473C293.206 316.777 309.312 288.509 318.615 258.601C320.925 251.007 322.752 243.069 322.967 235.124C323.44 221.468 324.966 207.773 329.2 194.721C333.364 181.704 339.744 169.443 346.549 157.739C356.298 141.209 367.734 124.624 378.883 109.151C387.803 96.6397 397.621 84.0372 406.525 71.4974C415.474 58.6413 422.836 44.5263 428.504 29.7561C439.884 0.226445 443.16 -32.4825 438.512 -63.4214C436.784 -75.0112 434.073 -86.4099 430.222 -97.3144C428.929 -100.946 427.547 -104.535 425.915 -108.001L425.681 -107.868L425.679 -107.84L425.697 -107.84Z" fill="#73206F"/>
<path d="M435.832 -109.171C452.736 -68.7361 454.188 -20.2431 439.107 22.2821C435.239 33.3376 430.235 44.1119 424.391 54.1476C419.635 62.6034 413.992 70.6648 408.252 78.3398C394.27 96.8387 380.192 115.895 367.259 135.233C352.398 157.973 337.352 182.426 333.095 210.122C331.404 219.905 331.277 229.787 330.584 239.586C329.911 245.394 328.519 251.066 326.879 256.683C313.329 300.942 279.458 355.571 316.594 395.053C348.258 432.163 358.788 493.027 350.973 542.992C349.535 550.653 346.463 557.96 343.49 565.205C340.457 572.448 337.246 579.62 334.059 586.811C321.426 615.588 308.588 644.863 303.572 676.27C299.671 701.426 302.493 724.042 319.087 742.609C343.903 770.705 375.505 790.46 402.03 816.454C432.996 845.775 459.001 883.088 453.497 930.758C452.444 940.319 451.193 950.444 449.512 959.929C446.271 979.201 441.187 998.392 431.75 1015.48C428.026 1022.39 423.896 1029.13 420.815 1036.44C416.109 1047.44 414.023 1059.41 412.916 1071.26C412.759 1073.23 412.568 1075.2 412.445 1077.17L412.113 1083.09C410.945 1104.33 420.201 1121.51 436.582 1132.74C454.747 1145.55 476.284 1151.38 495.766 1161.29C508.42 1167.72 521.897 1177.4 523.735 1193.63L523.99 1193.59C522.33 1177.13 508.812 1167.14 496.136 1160.5C476.761 1150.28 455.424 1144.28 437.446 1131.38C419.097 1118.19 412.019 1101.12 414.435 1077.26C415.43 1063.72 417.378 1049.92 422.805 1037.37C427.49 1026.55 434.325 1016.9 439.03 1006.06C448.696 984.282 452.589 960.379 455.425 936.869C466.255 867.642 415.678 821.82 370.241 785.133C350.296 768.154 319.646 747.02 308.952 722.12C293.498 681.369 319.064 625.853 335.322 587.423C338.458 580.212 341.628 573.011 344.621 565.72C347.554 558.418 350.603 551.063 352.037 543.168C358.784 497.568 350.952 445.786 327.318 408.002C324.849 404.041 321.952 400.121 319.09 396.483C317.499 394.598 315.26 391.952 313.715 390.012C304.124 378.522 299.845 362.753 301.073 347.142C303.341 315.445 319.447 287.178 328.75 257.27C331.06 249.675 332.887 241.738 333.102 233.792C333.576 220.137 335.101 206.442 339.336 193.389C343.499 180.372 349.879 168.112 356.684 156.408C366.433 139.878 377.869 123.293 389.018 107.82C397.938 95.3083 407.756 82.7058 416.66 70.1659C425.609 57.3099 432.971 43.1948 438.64 28.4246C450.019 -1.105 453.295 -33.814 448.647 -64.7528C446.919 -76.3427 444.209 -87.7414 440.357 -98.6459C439.064 -102.278 437.682 -105.866 436.05 -109.332L435.816 -109.2L435.814 -109.172L435.832 -109.171Z" fill="#73206F"/>
<path d="M445.967 -110.502C462.871 -70.0673 464.323 -21.5743 449.242 20.9509C445.374 32.0064 440.37 42.7807 434.527 52.8164C429.77 61.2722 424.128 69.3336 418.387 77.0086C404.405 95.5075 390.327 114.564 377.394 133.902C362.533 156.642 347.488 181.095 343.23 208.79C341.54 218.574 341.413 228.456 340.719 238.254C340.047 244.063 338.654 249.735 337.014 255.352C323.464 299.611 289.593 354.24 326.73 393.722C358.393 430.832 368.923 491.696 361.108 541.661C359.67 549.322 356.598 556.629 353.625 563.874C350.592 571.117 347.381 578.289 344.195 585.48C331.561 614.257 318.724 643.531 313.707 674.939C309.806 700.095 312.628 722.711 329.222 741.278C354.038 769.374 385.641 789.129 412.165 815.123C443.131 844.444 469.136 881.756 463.632 929.426C462.58 938.988 461.328 949.113 459.647 958.598C456.406 977.87 451.322 997.061 441.885 1014.15C438.161 1021.05 434.031 1027.8 430.95 1035.11C426.244 1046.11 424.159 1058.07 423.051 1069.92C422.894 1071.9 422.703 1073.87 422.58 1075.84L422.249 1081.76C421.08 1102.99 430.336 1120.17 446.717 1131.41C464.882 1144.22 486.42 1150.05 505.901 1159.96C518.555 1166.39 532.032 1176.06 533.87 1192.3L534.125 1192.25C532.465 1175.8 518.947 1165.81 506.271 1159.17C486.896 1148.95 465.559 1142.95 447.581 1130.05C429.232 1116.86 422.154 1099.79 424.57 1075.93C425.565 1062.39 427.513 1048.59 432.94 1036.04C437.626 1025.22 444.46 1015.57 449.165 1004.73C458.832 982.951 462.724 959.047 465.56 935.538C476.39 866.311 425.813 820.489 380.377 783.802C360.432 766.823 329.782 745.68 319.087 720.789C303.634 680.038 329.199 624.522 345.458 586.092C348.593 578.881 351.763 571.68 354.756 564.389C357.689 557.086 360.738 549.732 362.172 541.837C368.919 496.237 361.087 444.454 337.453 406.671C334.984 402.709 332.088 398.79 329.226 395.152C327.634 393.266 325.395 390.621 323.85 388.681C314.259 377.191 309.98 361.422 311.208 345.811C313.476 314.114 329.582 285.847 338.886 255.939C341.195 248.344 343.022 240.407 343.237 232.461C343.711 218.806 345.236 205.111 349.471 192.058C353.634 179.041 360.014 166.78 366.819 155.076C376.568 138.547 388.004 121.962 399.154 106.488C408.073 93.9771 417.891 81.3746 426.795 68.8347C435.744 55.9787 443.107 41.8636 448.775 27.0934C460.154 -2.4362 463.43 -35.1452 458.782 -66.084C457.054 -77.6739 454.344 -89.0726 450.492 -99.9771C449.2 -103.609 447.817 -107.197 446.185 -110.663L445.951 -110.531L445.95 -110.503L445.967 -110.502Z" fill="#73206F"/>
<path d="M456.101 -111.834C473.005 -71.3992 474.458 -22.9061 459.377 19.619C455.508 30.6745 450.504 41.4488 444.661 51.4846C439.905 59.9403 434.262 68.0017 428.522 75.6767C414.539 94.1757 400.461 113.232 387.528 132.57C372.667 155.31 357.622 179.763 353.364 207.458C351.674 217.242 351.547 227.124 350.853 236.923C350.181 242.731 348.789 248.403 347.148 254.02C333.599 298.279 299.727 352.908 336.864 392.39C368.527 429.5 379.057 490.364 371.242 540.329C369.805 547.99 366.733 555.297 363.76 562.542C360.726 569.785 357.515 576.957 354.338 584.148C341.704 612.925 328.867 642.2 323.85 673.607C319.949 698.763 322.771 721.38 339.365 739.947C364.181 768.042 395.784 787.797 422.308 813.791C453.274 843.113 479.279 880.425 473.775 928.095C472.723 937.657 471.471 947.782 469.79 957.266C466.549 976.538 461.465 995.73 452.028 1012.82C448.304 1019.72 444.174 1026.47 441.093 1033.78C436.388 1044.78 434.302 1056.74 433.194 1068.59C433.037 1070.57 432.846 1072.53 432.723 1074.51L432.392 1080.42C431.223 1101.66 440.479 1118.84 456.86 1130.08C475.025 1142.88 496.563 1148.72 516.044 1158.63C528.698 1165.05 542.175 1174.73 544.013 1190.97L544.268 1190.92C542.608 1174.47 529.09 1164.48 516.414 1157.84C497.039 1147.62 475.702 1141.62 457.724 1128.72C439.375 1115.53 432.297 1098.46 434.713 1074.6C435.708 1061.06 437.656 1047.26 443.083 1034.7C447.769 1023.89 454.603 1014.24 459.308 1003.39C468.975 981.62 472.867 957.716 475.703 934.206C486.533 864.979 435.956 819.157 390.52 782.471C370.575 765.491 339.933 744.358 329.23 719.457C313.785 678.707 339.342 623.19 355.601 584.761C358.736 577.549 361.906 570.348 364.899 563.057C367.832 555.755 370.881 548.4 372.316 540.506C379.062 494.905 371.23 443.123 347.597 405.339C345.127 401.378 342.231 397.458 339.369 393.82C337.777 391.935 335.538 389.289 333.993 387.35C324.402 375.859 320.124 360.09 321.351 344.479C323.619 312.783 339.725 284.515 349.029 254.607C351.338 247.013 353.165 239.075 353.38 231.13C353.854 217.474 355.379 203.779 359.614 190.727C363.777 177.709 370.157 165.449 376.962 153.745C386.712 137.215 398.147 120.63 409.297 105.157C418.216 92.6455 428.034 80.043 436.938 67.5032C445.887 54.6471 453.25 40.5321 458.918 25.7619C470.297 -3.76776 473.573 -36.4767 468.925 -67.4156C467.197 -79.0054 464.487 -90.4041 460.635 -101.309C459.343 -104.941 457.961 -108.529 456.328 -111.995L456.094 -111.863L456.093 -111.835L456.101 -111.834Z" fill="#73206F"/>
<path d="M466.237 -113.163C483.141 -72.7282 484.593 -24.2351 469.512 18.29C465.644 29.3455 460.639 40.1198 454.796 50.1556C450.04 58.6113 444.397 66.6727 438.657 74.3477C424.675 92.8466 410.597 111.903 397.664 131.241C382.803 153.981 367.757 178.434 363.5 206.129C361.809 215.913 361.682 225.795 360.988 235.593C360.316 241.402 358.924 247.074 357.283 252.691C343.734 296.95 309.863 351.579 346.999 391.061C378.663 428.171 389.192 489.035 381.378 539C379.94 546.661 376.868 553.968 373.895 561.213C370.862 568.456 367.651 575.628 364.473 582.819C351.84 611.596 339.002 640.871 333.985 672.278C330.084 697.434 332.906 720.051 349.501 738.618C374.316 766.713 405.919 786.468 432.443 812.462C463.41 841.784 489.415 879.096 483.91 926.766C482.858 936.328 481.606 946.453 479.925 955.937C476.684 975.209 471.601 994.401 462.163 1011.49C458.44 1018.39 454.31 1025.14 451.229 1032.45C446.523 1043.45 444.437 1055.41 443.33 1067.26C443.172 1069.24 442.981 1071.2 442.859 1073.18L442.527 1079.1C441.358 1100.33 450.614 1117.51 466.995 1128.75C485.16 1141.55 506.698 1147.39 526.179 1157.3C538.834 1163.73 552.31 1173.4 554.149 1189.64L554.403 1189.59C552.743 1173.14 539.225 1163.15 526.549 1156.51C507.174 1146.29 485.837 1140.29 467.86 1127.39C449.51 1114.2 442.433 1097.13 444.848 1073.27C445.843 1059.73 447.791 1045.93 453.218 1033.38C457.904 1022.56 464.738 1012.91 469.443 1002.07C479.11 980.291 483.002 956.387 485.839 932.877C496.668 863.65 446.091 817.828 400.655 781.142C380.71 764.163 350.068 743.029 339.366 718.128C323.921 677.378 349.477 621.861 365.736 583.432C368.871 576.22 372.041 569.019 375.034 561.728C377.967 554.426 381.016 547.071 382.451 539.177C389.197 493.576 381.366 441.794 357.732 404.01C355.263 400.049 352.366 396.129 349.504 392.491C347.912 390.606 345.674 387.96 344.129 386.021C334.537 374.53 330.259 358.761 331.487 343.15C333.754 311.454 349.86 283.186 359.164 253.278C361.473 245.684 363.301 237.746 363.516 229.801C363.989 216.145 365.514 202.45 369.749 189.398C373.912 176.38 380.292 164.12 387.097 152.416C396.847 135.886 408.282 119.301 419.432 103.828C428.351 91.3165 438.17 78.714 447.073 66.1741C456.023 53.3181 463.385 39.203 469.053 24.4328C480.432 -5.09679 483.708 -37.8058 479.06 -68.7446C477.333 -80.3345 474.622 -91.7332 470.771 -102.638C469.478 -106.27 468.096 -109.858 466.463 -113.324L466.23 -113.192L466.228 -113.164L466.237 -113.163Z" fill="#73206F"/>
<path d="M476.364 -114.491C493.268 -74.0559 494.721 -25.5628 479.64 16.9623C475.772 28.0178 470.767 38.7921 464.924 48.8279C460.168 57.2836 454.525 65.345 448.785 73.02C434.802 91.519 420.725 110.575 407.792 129.913C392.93 152.653 377.885 177.107 373.627 204.802C371.937 214.585 371.81 224.468 371.116 234.266C370.444 240.074 369.052 245.747 367.411 251.364C353.862 295.622 319.991 350.252 357.127 389.733C388.791 426.844 399.32 487.707 391.505 537.673C390.068 545.334 386.996 552.641 384.023 559.886C380.99 567.128 377.778 574.3 374.601 581.491C361.967 610.268 349.13 639.543 344.113 670.951C340.212 696.107 343.034 718.723 359.628 737.29C384.444 765.385 416.047 785.14 442.571 811.135C473.538 840.456 499.542 877.768 494.038 925.438C492.986 935 491.734 945.125 490.053 954.61C486.812 973.882 481.728 993.073 472.291 1010.16C468.568 1017.07 464.437 1023.81 461.357 1031.12C456.651 1042.12 454.565 1054.09 453.457 1065.94C453.3 1067.91 453.109 1069.88 452.987 1071.85L452.655 1077.77C451.486 1099.01 460.742 1116.19 477.123 1127.42C495.288 1140.23 516.826 1146.06 536.307 1155.97C548.962 1162.4 562.438 1172.08 564.276 1188.31L564.531 1188.27C562.871 1171.81 549.353 1161.82 536.677 1155.18C517.302 1144.96 495.965 1138.96 477.987 1126.07C459.638 1112.87 452.561 1095.8 454.976 1071.94C455.971 1058.4 457.919 1044.6 463.346 1032.05C468.032 1021.23 474.866 1011.58 479.571 1000.74C489.238 978.963 493.13 955.059 495.966 931.549C506.796 862.323 456.219 816.501 410.783 779.814C390.838 762.835 360.196 741.701 349.493 716.801C334.048 676.05 359.605 620.534 375.864 582.104C378.999 574.892 382.169 567.692 385.162 560.401C388.095 553.098 391.144 545.744 392.579 537.849C399.325 492.249 391.494 440.466 367.86 402.682C365.391 398.721 362.494 394.801 359.632 391.163C358.04 389.278 355.802 386.633 354.257 384.693C344.665 373.203 340.387 357.434 341.614 341.822C343.882 310.126 359.988 281.858 369.292 251.95C371.601 244.356 373.429 236.418 373.643 228.473C374.117 214.817 375.642 201.122 379.877 188.07C384.04 175.053 390.42 162.792 397.225 151.088C406.975 134.558 418.41 117.973 429.56 102.5C438.479 89.9888 448.297 77.3863 457.201 64.8464C466.151 51.9904 473.513 37.8753 479.181 23.1051C490.56 -6.4245 493.836 -39.1335 489.188 -70.0723C487.461 -81.6622 484.75 -93.0609 480.898 -103.965C479.606 -107.597 478.224 -111.186 476.591 -114.652L476.357 -114.519L476.356 -114.491L476.364 -114.491Z" fill="#73206F"/>
<path d="M486.5 -115.82C503.404 -75.385 504.856 -26.892 489.775 15.6332C485.907 26.6887 480.903 37.4629 475.059 47.4987C470.303 55.9544 464.66 64.0159 458.92 71.6908C444.938 90.1898 430.86 109.246 417.927 128.584C403.066 151.324 388.02 175.778 383.763 203.473C382.072 213.256 381.945 223.139 381.252 232.937C380.579 238.745 379.187 244.417 377.547 250.034C363.997 294.293 330.126 348.922 367.262 388.404C398.926 425.515 409.456 486.378 401.641 536.343C400.203 544.005 397.131 551.312 394.158 558.556C391.125 565.799 387.914 572.971 384.727 580.162C372.094 608.939 359.256 638.214 354.24 669.621C350.339 694.777 353.161 717.394 369.755 735.96C394.571 764.056 426.173 783.811 452.698 809.805C483.664 839.127 509.669 876.439 504.165 924.109C503.112 933.67 501.861 943.796 500.18 953.28C496.939 972.552 491.855 991.744 482.418 1008.84C478.694 1015.74 474.564 1022.49 471.483 1029.79C466.777 1040.79 464.691 1052.76 463.584 1064.61C463.427 1066.58 463.236 1068.55 463.113 1070.52L462.781 1076.44C461.613 1097.68 470.869 1114.86 487.25 1126.09C505.415 1138.9 526.952 1144.73 546.434 1154.64C559.088 1161.07 572.565 1170.75 574.403 1186.98L574.658 1186.94C572.998 1170.48 559.48 1160.49 546.804 1153.85C527.429 1143.63 506.092 1137.63 488.114 1124.74C469.765 1111.54 462.687 1094.47 465.103 1070.61C466.098 1057.08 468.046 1043.27 473.473 1030.72C478.158 1019.91 484.993 1010.25 489.698 999.408C499.364 977.633 503.257 953.73 506.093 930.22C516.923 860.993 466.346 815.171 420.909 778.484C400.964 761.505 370.314 740.371 359.62 715.471C344.166 674.721 369.732 619.204 385.99 580.774C389.126 573.563 392.296 566.362 395.289 559.071C398.222 551.769 401.271 544.414 402.705 536.519C409.452 490.919 401.62 439.137 377.986 401.353C375.517 397.392 372.62 393.472 369.758 389.834C368.167 387.949 365.928 385.303 364.383 383.364C354.792 371.873 350.513 356.104 351.741 340.493C354.009 308.796 370.115 280.529 379.418 250.621C381.728 243.027 383.555 235.089 383.77 227.144C384.244 213.488 385.769 199.793 390.004 186.741C394.167 173.723 400.547 161.463 407.352 149.759C417.101 133.229 428.537 116.644 439.686 101.171C448.606 88.6594 458.424 76.0569 467.328 63.517C476.277 50.661 483.639 36.5459 489.308 21.7757C500.687 -7.75392 503.963 -40.4629 499.315 -71.4017C497.587 -82.9916 494.877 -94.3903 491.025 -105.295C489.732 -108.927 488.35 -112.515 486.718 -115.981L486.484 -115.849L486.482 -115.821L486.5 -115.82Z" fill="#73206F"/>
<path d="M496.634 -117.151C513.538 -76.7162 514.991 -28.2231 499.909 14.302C496.041 25.3575 491.037 36.1318 485.194 46.1676C480.437 54.6233 474.795 62.6847 469.055 70.3597C455.072 88.8587 440.994 107.915 428.061 127.253C413.2 149.993 398.155 174.446 393.897 202.141C392.207 211.925 392.08 221.807 391.386 231.606C390.714 237.414 389.321 243.086 387.681 248.703C374.132 292.962 340.26 347.591 377.397 387.073C409.06 424.183 419.59 485.047 411.775 535.012C410.338 542.673 407.266 549.98 404.293 557.225C401.259 564.468 398.048 571.64 394.862 578.831C382.228 607.608 369.391 636.883 364.374 668.29C360.473 693.446 363.295 716.062 379.89 734.629C404.705 762.725 436.308 782.48 462.832 808.474C493.799 837.795 519.803 875.108 514.299 922.778C513.247 932.339 511.995 942.464 510.314 951.949C507.073 971.221 501.99 990.412 492.552 1007.5C488.829 1014.41 484.698 1021.15 481.618 1028.46C476.912 1039.46 474.826 1051.43 473.718 1063.28C473.561 1065.25 473.37 1067.22 473.248 1069.19L472.916 1075.11C471.747 1096.35 481.003 1113.53 497.384 1124.76C515.549 1137.57 537.087 1143.4 556.568 1153.31C569.223 1159.74 582.699 1169.42 584.538 1185.65L584.792 1185.61C583.132 1169.15 569.614 1159.16 556.938 1152.52C537.563 1142.3 516.226 1136.3 498.248 1123.4C479.899 1110.21 472.822 1093.14 475.237 1069.28C476.232 1055.74 478.18 1041.94 483.607 1029.39C488.293 1018.57 495.127 1008.92 499.832 998.077C509.499 976.302 513.391 952.399 516.227 928.889C527.057 859.662 476.48 813.84 431.044 777.153C411.099 760.174 380.449 739.04 369.754 714.14C354.301 673.389 379.866 617.873 396.125 579.443C399.26 572.232 402.43 565.031 405.423 557.74C408.356 550.438 411.405 543.083 412.84 535.188C419.586 489.588 411.755 437.806 388.121 400.022C385.652 396.061 382.755 392.141 379.893 388.503C378.301 386.617 376.063 383.972 374.518 382.032C364.926 370.542 360.648 354.773 361.875 339.162C364.143 307.465 380.249 279.198 389.553 249.29C391.862 241.695 393.69 233.758 393.905 225.812C394.378 212.157 395.903 198.462 400.138 185.409C404.301 172.392 410.681 160.132 417.486 148.428C427.236 131.898 438.671 115.313 449.821 99.8396C458.74 87.3283 468.558 74.7258 477.462 62.1859C486.412 49.3298 493.774 35.2148 499.442 20.4446C510.821 -9.08505 514.097 -41.794 509.449 -72.7329C507.722 -84.3227 505.011 -95.7214 501.16 -106.626C499.867 -110.258 498.485 -113.846 496.852 -117.312L496.618 -117.18L496.617 -117.152L496.634 -117.151Z" fill="#73206F"/>
<path d="M506.769 -118.483C523.673 -78.0483 525.126 -29.5553 510.045 12.9699C506.176 24.0254 501.172 34.7997 495.329 44.8354C490.573 53.2912 484.93 61.3526 479.19 69.0276C465.207 87.5265 451.129 106.583 438.196 125.921C423.335 148.661 408.29 173.114 404.032 200.809C402.342 210.593 402.215 220.475 401.521 230.273C400.849 236.082 399.457 241.754 397.816 247.371C384.267 291.63 350.395 346.259 387.532 385.741C419.195 422.851 429.725 483.714 421.91 533.68C420.473 541.341 417.401 548.648 414.428 555.893C411.394 563.136 408.183 570.308 404.997 577.499C392.364 606.276 379.526 635.551 374.509 666.958C370.608 692.114 373.43 714.73 390.025 733.297C414.84 761.393 446.443 781.148 472.967 807.142C503.934 836.463 529.939 873.776 524.434 921.445C523.382 931.007 522.13 941.132 520.449 950.617C517.208 969.889 512.125 989.08 502.687 1006.17C498.964 1013.07 494.834 1019.82 491.753 1027.13C487.047 1038.13 484.961 1050.09 483.854 1061.94C483.696 1063.92 483.505 1065.88 483.383 1067.86L483.051 1073.77C481.882 1095.01 491.138 1112.19 507.519 1123.43C525.684 1136.23 547.222 1142.07 566.703 1151.98C579.358 1158.41 592.834 1168.08 594.673 1184.32L594.927 1184.27C593.267 1167.82 579.749 1157.83 567.073 1151.19C547.698 1140.97 526.361 1134.97 508.384 1122.07C490.034 1108.88 482.957 1091.81 485.372 1067.95C486.367 1054.41 488.315 1040.61 493.742 1028.06C498.428 1017.24 505.262 1007.59 509.967 996.745C519.634 974.97 523.526 951.066 526.363 927.557C537.192 858.33 486.615 812.508 441.179 775.821C421.234 758.842 390.584 737.708 379.889 712.808C364.436 672.057 390.001 616.541 406.26 578.111C409.395 570.9 412.565 563.699 415.558 556.408C418.491 549.106 421.54 541.751 422.975 533.856C429.721 488.256 421.89 436.473 398.256 398.69C395.787 394.728 392.89 390.809 390.028 387.171C388.436 385.285 386.198 382.64 384.653 380.7C375.061 369.21 370.783 353.441 372.011 337.83C374.278 306.133 390.384 277.866 399.688 247.958C401.997 240.363 403.825 232.426 404.04 224.48C404.513 210.825 406.038 197.13 410.273 184.077C414.436 171.06 420.816 158.799 427.621 147.095C437.371 130.566 448.806 113.981 459.956 98.5074C468.875 85.9961 478.694 73.3936 487.597 60.8537C496.547 47.9977 503.909 33.8826 509.577 19.1124C520.956 -10.4172 524.232 -43.1262 519.584 -74.065C517.857 -85.6549 515.146 -97.0536 511.295 -107.958C510.002 -111.59 508.62 -115.178 506.987 -118.644L506.754 -118.512L506.752 -118.484L506.769 -118.483Z" fill="#73206F"/>
<path d="M516.896 -119.813C533.8 -79.3778 535.253 -30.8848 520.172 11.6404C516.303 22.6959 511.299 33.4702 505.456 43.506C500.7 51.9617 495.057 60.0231 489.317 67.6981C475.334 86.197 461.256 105.254 448.323 124.592C433.462 147.332 418.417 171.785 414.159 199.48C412.469 209.263 412.342 219.146 411.648 228.944C410.976 234.752 409.584 240.425 407.943 246.042C394.394 290.301 360.522 344.93 397.659 384.411C429.322 421.522 439.852 482.385 432.037 532.351C430.6 540.012 427.528 547.319 424.555 554.564C421.521 561.807 418.31 568.978 415.133 576.169C402.499 604.946 389.662 634.221 384.645 665.629C380.744 690.785 383.566 713.401 400.16 731.968C424.976 760.063 456.579 779.818 483.103 805.813C514.069 835.134 540.074 872.446 534.57 920.116C533.518 929.678 532.266 939.803 530.585 949.288C527.344 968.56 522.26 987.751 512.823 1004.84C509.099 1011.74 504.969 1018.49 501.888 1025.8C497.182 1036.8 495.097 1048.76 493.989 1060.61C493.832 1062.59 493.641 1064.56 493.518 1066.53L493.187 1072.45C492.018 1093.68 501.274 1110.86 517.655 1122.1C535.82 1134.9 557.358 1140.74 576.839 1150.65C589.493 1157.08 602.97 1166.75 604.808 1182.99L605.063 1182.94C603.403 1166.49 589.885 1156.5 577.209 1149.86C557.834 1139.64 536.497 1133.64 518.519 1120.74C500.17 1107.55 493.092 1090.48 495.508 1066.62C496.503 1053.08 498.451 1039.28 503.878 1026.73C508.564 1015.91 515.398 1006.26 520.103 995.416C529.77 973.641 533.662 949.737 536.498 926.227C547.328 857.001 496.751 811.179 451.315 774.492C431.37 757.513 400.728 736.379 390.025 711.479C374.58 670.728 400.137 615.212 416.396 576.782C419.531 569.571 422.701 562.37 425.694 555.079C428.627 547.776 431.676 540.422 433.11 532.527C439.857 486.927 432.025 435.144 408.391 397.361C405.922 393.399 403.026 389.48 400.164 385.841C398.572 383.956 396.333 381.311 394.788 379.371C385.197 367.881 380.918 352.112 382.146 336.5C384.414 304.804 400.52 276.536 409.824 246.628C412.133 239.034 413.96 231.096 414.175 223.151C414.649 209.495 416.174 195.8 420.409 182.748C424.572 169.731 430.952 157.47 437.757 145.766C447.506 129.236 458.942 112.651 470.092 97.1782C479.011 84.6669 488.829 72.0644 497.733 59.5245C506.682 46.6685 514.045 32.5534 519.713 17.7832C531.092 -11.7464 534.368 -44.4554 529.72 -75.3942C527.992 -86.9841 525.282 -98.3828 521.43 -109.287C520.138 -112.919 518.755 -116.508 517.123 -119.974L516.889 -119.841L516.887 -119.813L516.896 -119.813Z" fill="#73206F"/>
<path d="M527.031 -121.142C543.936 -80.7066 545.388 -32.2136 530.307 10.3116C526.439 21.3671 521.434 32.1414 515.591 42.1771C510.835 50.6329 505.192 58.6943 499.452 66.3692C485.469 84.8682 471.392 103.925 458.459 123.263C443.598 146.003 428.552 170.456 424.295 198.151C422.604 207.934 422.477 217.817 421.783 227.615C421.111 233.424 419.719 239.096 418.078 244.713C404.529 288.972 370.658 343.601 407.794 383.082C439.458 420.193 449.987 481.056 442.173 531.022C440.735 538.683 437.663 545.99 434.69 553.235C431.657 560.478 428.446 567.649 425.268 574.841C412.635 603.618 399.797 632.893 394.78 664.3C390.879 689.456 393.701 712.072 410.296 730.639C435.111 758.735 466.714 778.49 493.238 804.484C524.205 833.805 550.209 871.118 544.705 918.787C543.653 928.349 542.401 938.474 540.72 947.959C537.479 967.231 532.396 986.422 522.958 1003.51C519.235 1010.42 515.104 1017.16 512.024 1024.47C507.318 1035.47 505.232 1047.44 504.125 1059.29C503.967 1061.26 503.776 1063.23 503.654 1065.2L503.322 1071.12C502.153 1092.36 511.409 1109.54 527.79 1120.77C545.955 1133.58 567.493 1139.41 586.974 1149.32C599.629 1155.75 613.105 1165.43 614.944 1181.66L615.198 1181.62C613.538 1165.16 600.02 1155.17 587.344 1148.53C567.969 1138.31 546.632 1132.31 528.654 1119.41C510.305 1106.22 503.228 1089.15 505.643 1065.29C506.638 1051.75 508.586 1037.95 514.013 1025.4C518.699 1014.58 525.533 1004.93 530.238 994.087C539.905 972.312 543.797 948.408 546.633 924.899C557.463 855.672 506.886 809.85 461.45 773.163C441.505 756.184 410.863 735.05 400.16 710.15C384.716 669.4 410.272 613.883 426.531 575.453C429.666 568.242 432.836 561.041 435.829 553.75C438.762 546.447 441.811 539.093 443.246 531.198C449.992 485.598 442.161 433.815 418.527 396.032C416.058 392.07 413.161 388.151 410.299 384.513C408.707 382.627 406.469 379.982 404.924 378.042C395.332 366.552 391.054 350.783 392.281 335.171C394.549 303.475 410.655 275.208 419.959 245.3C422.268 237.705 424.096 229.768 424.311 221.822C424.784 208.167 426.309 194.472 430.544 181.419C434.707 168.402 441.087 156.141 447.892 144.437C457.642 127.908 469.077 111.323 480.227 95.8494C489.146 83.3381 498.965 70.7356 507.868 58.1957C516.818 45.3397 524.18 31.2246 529.848 16.4544C541.227 -13.0752 544.503 -45.7842 539.855 -76.723C538.128 -88.3129 535.417 -99.7116 531.566 -110.616C530.273 -114.248 528.891 -117.836 527.258 -121.302L527.025 -121.17L527.023 -121.142L527.031 -121.142Z" fill="#73206F"/>
<path d="M537.167 -122.471C554.071 -82.0363 555.523 -33.5432 540.442 8.98192C536.574 20.0374 531.57 30.8117 525.727 40.8475C520.97 49.3032 515.327 57.3646 509.587 65.0396C495.605 83.5386 481.527 102.595 468.594 121.933C453.733 144.673 438.687 169.126 434.43 196.821C432.739 206.605 432.613 216.487 431.919 226.285C431.246 232.094 429.854 237.766 428.214 243.383C414.664 287.642 380.793 342.271 417.93 381.753C449.593 418.863 460.123 479.727 452.308 529.692C450.87 537.353 447.798 544.66 444.825 551.905C441.792 559.148 438.581 566.32 435.394 573.511C422.761 602.288 409.923 631.563 404.907 662.97C401.006 688.126 403.828 710.742 420.422 729.309C445.238 757.405 476.84 777.16 503.365 803.154C534.331 832.475 560.336 869.788 554.832 917.457C553.78 927.019 552.528 937.144 550.847 946.629C547.606 965.901 542.522 985.092 533.085 1002.18C529.361 1009.09 525.231 1015.83 522.15 1023.14C517.444 1034.14 515.358 1046.11 514.251 1057.96C514.094 1059.93 513.903 1061.9 513.78 1063.87L513.448 1069.79C512.28 1091.03 521.536 1108.21 537.917 1119.44C556.082 1132.25 577.619 1138.08 597.101 1147.99C609.755 1154.42 623.232 1164.1 625.07 1180.33L625.325 1180.29C623.665 1163.83 610.147 1153.84 597.471 1147.2C578.096 1136.98 556.759 1130.98 538.781 1118.08C520.432 1104.89 513.354 1087.82 515.77 1063.96C516.765 1050.42 518.713 1036.62 524.14 1024.07C528.825 1013.25 535.66 1003.6 540.365 992.757C550.031 970.982 553.924 947.078 556.76 923.569C567.59 854.342 517.013 808.52 471.577 771.833C451.632 754.854 420.99 733.72 410.287 708.82C394.842 668.07 420.399 612.553 436.657 574.123C439.793 566.912 442.963 559.711 445.956 552.42C448.889 545.118 451.938 537.763 453.372 529.868C460.119 484.268 452.287 432.486 428.653 394.702C426.184 390.74 423.288 386.821 420.425 383.183C418.834 381.297 416.595 378.652 415.05 376.712C405.459 365.222 401.18 349.453 402.408 333.842C404.676 302.145 420.782 273.878 430.085 243.97C432.395 236.375 434.222 228.438 434.437 220.492C434.911 206.837 436.436 193.142 440.671 180.089C444.834 167.072 451.214 154.812 458.019 143.107C467.768 126.578 479.204 109.993 490.354 94.5195C499.273 82.0081 509.091 69.4056 517.995 56.8658C526.944 44.0097 534.306 29.8947 539.975 15.1245C551.354 -14.4052 554.63 -47.1141 549.982 -78.053C548.254 -89.6428 545.544 -101.042 541.692 -111.946C540.399 -115.578 539.017 -119.166 537.385 -122.632L537.151 -122.5L537.149 -122.472L537.167 -122.471Z" fill="#73206F"/>
<path d="M547.302 -123.803C564.206 -83.3675 565.658 -34.8744 550.577 7.6507C546.709 18.7062 541.705 29.4805 535.862 39.5163C531.105 47.972 525.463 56.0334 519.722 63.7084C505.74 82.2074 491.662 101.264 478.729 120.602C463.868 143.342 448.823 167.795 444.565 195.49C442.875 205.273 442.748 215.156 442.054 224.954C441.382 230.763 439.989 236.435 438.349 242.052C424.799 286.311 390.928 340.94 428.065 380.422C459.728 417.532 470.258 478.395 462.443 528.361C461.005 536.022 457.933 543.329 454.961 550.574C451.927 557.817 448.716 564.988 445.53 572.179C432.896 600.957 420.059 630.231 415.042 661.639C411.141 686.795 413.963 709.411 430.557 727.978C455.373 756.074 486.976 775.828 513.5 801.823C544.466 831.144 570.471 868.456 564.967 916.126C563.915 925.688 562.663 935.813 560.982 945.298C557.741 964.57 552.657 983.761 543.22 1000.85C539.496 1007.75 535.366 1014.5 532.285 1021.81C527.58 1032.81 525.494 1044.77 524.386 1056.62C524.229 1058.6 524.038 1060.57 523.915 1062.54L523.584 1068.46C522.415 1089.69 531.671 1106.87 548.052 1118.11C566.217 1130.91 587.755 1136.75 607.236 1146.66C619.89 1153.09 633.367 1162.76 635.205 1179L635.46 1178.95C633.8 1162.5 620.282 1152.51 607.606 1145.87C588.231 1135.65 566.894 1129.65 548.916 1116.75C530.567 1103.56 523.489 1086.49 525.905 1062.63C526.9 1049.09 528.848 1035.29 534.275 1022.74C538.961 1011.92 545.795 1002.27 550.5 991.426C560.167 969.651 564.059 945.747 566.895 922.237C577.725 853.011 527.148 807.189 481.712 770.502C461.767 753.523 431.117 732.389 420.422 707.489C404.969 666.738 430.534 611.222 446.793 572.792C449.928 565.581 453.098 558.38 456.091 551.089C459.024 543.786 462.073 536.432 463.508 528.537C470.254 482.937 462.422 431.154 438.789 393.371C436.319 389.409 433.423 385.49 430.561 381.851C428.969 379.966 426.73 377.321 425.185 375.381C415.594 363.891 411.315 348.122 412.543 332.51C414.811 300.814 430.917 272.546 440.221 242.638C442.53 235.044 444.357 227.106 444.572 219.161C445.046 205.505 446.571 191.81 450.806 178.758C454.969 165.741 461.349 153.48 468.154 141.776C477.903 125.246 489.339 108.661 500.489 93.1882C509.408 80.6769 519.226 68.0744 528.13 55.5346C537.079 42.6785 544.442 28.5635 550.11 13.7932C561.489 -15.7364 564.765 -48.4454 560.117 -79.3842C558.389 -90.974 555.679 -102.373 551.827 -113.277C550.535 -116.909 549.153 -120.498 547.52 -123.963L547.286 -123.831L547.285 -123.803L547.302 -123.803Z" fill="#73206F"/>
<path d="M557.436 -125.134C574.34 -84.6989 575.793 -36.2059 560.712 6.31927C556.843 17.3748 551.839 28.149 545.996 38.1848C541.24 46.6406 535.597 54.702 529.857 62.3769C515.874 80.8759 501.797 99.9324 488.863 119.27C474.002 142.01 458.957 166.464 454.699 194.159C453.009 203.942 452.882 213.825 452.188 223.623C451.516 229.431 450.124 235.103 448.483 240.721C434.934 284.979 401.063 339.609 438.199 379.09C469.863 416.201 480.392 477.064 472.577 527.03C471.14 534.691 468.068 541.998 465.095 549.243C462.062 556.485 458.85 563.657 455.664 570.848C443.031 599.625 430.193 628.9 425.176 660.307C421.275 685.463 424.098 708.08 440.692 726.647C465.507 754.742 497.11 774.497 523.634 800.491C554.601 829.813 580.606 867.125 575.101 914.795C574.049 924.357 572.797 934.482 571.117 943.966C567.875 963.238 562.792 982.43 553.354 999.521C549.631 1006.42 545.501 1013.17 542.42 1020.48C537.714 1031.48 535.628 1043.44 534.521 1055.29C534.364 1057.27 534.172 1059.23 534.05 1061.21L533.718 1067.12C532.549 1088.36 541.805 1105.54 558.186 1116.78C576.352 1129.58 597.889 1135.42 617.37 1145.33C630.025 1151.75 643.501 1161.43 645.34 1177.67L645.594 1177.62C643.934 1161.17 630.416 1151.18 617.74 1144.54C598.365 1134.32 577.029 1128.32 559.051 1115.42C540.701 1102.23 533.624 1085.16 536.039 1061.3C537.034 1047.76 538.982 1033.96 544.409 1021.4C549.095 1010.59 555.929 1000.93 560.634 990.094C570.301 968.319 574.194 944.416 577.03 920.906C587.859 851.679 537.282 805.857 491.846 769.171C471.901 752.191 441.251 731.057 430.557 706.157C415.103 665.407 440.669 609.89 456.927 571.46C460.063 564.249 463.232 557.048 466.225 549.757C469.158 542.455 472.207 535.1 473.642 527.206C480.388 481.605 472.557 429.823 448.923 392.039C446.454 388.078 443.557 384.158 440.695 380.52C439.103 378.635 436.865 375.989 435.32 374.05C425.728 362.559 421.45 346.79 422.678 331.179C424.946 299.483 441.051 271.215 450.355 241.307C452.664 233.713 454.492 225.775 454.707 217.83C455.18 204.174 456.705 190.479 460.94 177.427C465.103 164.409 471.483 152.149 478.288 140.445C488.038 123.915 499.473 107.33 510.623 91.8568C519.542 79.3455 529.361 66.743 538.264 54.2031C547.214 41.3471 554.576 27.232 560.244 12.4618C571.623 -17.0678 574.899 -49.7768 570.251 -80.7156C568.524 -92.3055 565.813 -103.704 561.962 -114.609C560.669 -118.241 559.287 -121.829 557.654 -125.295L557.421 -125.163L557.419 -125.135L557.436 -125.134Z" fill="#73206F"/>
<path d="M567.563 -126.464C584.467 -86.0284 585.92 -37.5353 570.839 4.98979C566.971 16.0453 561.966 26.8196 556.123 36.8554C551.367 45.3111 545.724 53.3725 539.984 61.0475C526.001 79.5465 511.924 98.6029 498.991 117.941C484.129 140.681 469.084 165.134 464.826 192.829C463.136 202.612 463.009 212.495 462.315 222.293C461.643 228.102 460.251 233.774 458.61 239.391C445.061 283.65 411.19 338.279 448.326 377.761C479.99 414.871 490.519 475.734 482.704 525.7C481.267 533.361 478.195 540.668 475.222 547.913C472.189 555.156 468.977 562.327 465.791 569.518C453.158 598.296 440.32 627.57 435.303 658.978C431.402 684.134 434.225 706.75 450.819 725.317C475.634 753.413 507.237 773.168 533.761 799.162C564.728 828.483 590.733 865.795 585.228 913.465C584.176 923.027 582.924 933.152 581.244 942.637C578.002 961.909 572.919 981.1 563.481 998.192C559.758 1005.09 555.628 1011.84 552.547 1019.15C547.841 1030.15 545.755 1042.11 544.648 1053.96C544.491 1055.94 544.299 1057.9 544.177 1059.88L543.845 1065.79C542.676 1087.03 551.932 1104.21 568.313 1115.45C586.479 1128.25 608.016 1134.09 627.497 1144C640.152 1150.43 653.628 1160.1 655.467 1176.34L655.721 1176.29C654.061 1159.84 640.543 1149.85 627.867 1143.21C608.492 1132.99 587.156 1126.99 569.178 1114.09C550.828 1100.9 543.751 1083.83 546.166 1059.97C547.161 1046.43 549.11 1032.63 554.536 1020.08C559.222 1009.26 566.056 999.606 570.761 988.765C580.428 966.99 584.321 943.086 587.157 919.577C597.987 850.35 547.41 804.528 501.973 767.841C482.028 750.862 451.387 729.728 440.684 704.828C425.239 664.077 450.796 608.561 467.054 570.131C470.19 562.92 473.359 555.719 476.352 548.428C479.285 541.125 482.334 533.771 483.769 525.876C490.515 480.276 482.684 428.493 459.05 390.71C456.581 386.748 453.684 382.829 450.822 379.19C449.23 377.305 446.992 374.66 445.447 372.72C435.855 361.23 431.577 345.461 432.805 329.849C435.073 298.153 451.178 269.885 460.482 239.978C462.791 232.383 464.619 224.445 464.834 216.5C465.307 202.845 466.832 189.15 471.067 176.097C475.23 163.08 481.61 150.819 488.416 139.115C498.165 122.586 509.6 106.001 520.75 90.5273C529.669 78.016 539.488 65.4135 548.392 52.8737C557.341 40.0176 564.703 25.9026 570.371 11.1324C581.75 -18.3973 585.026 -51.1063 580.378 -82.0451C578.651 -93.6349 575.94 -105.034 572.089 -115.938C570.796 -119.57 569.414 -123.158 567.781 -126.624L567.548 -126.492L567.546 -126.464L567.563 -126.464Z" fill="#73206F"/>
</g>
</g>
</svg>
