<svg width="361" height="374" viewBox="0 0 361 374" fill="none" xmlns="http://www.w3.org/2000/svg">
<g opacity="0.5" clip-path="url(#clip0_536_4079)">
<path d="M361 187.398C359.887 353.713 158.527 435.374 39.6849 319.949C-34.5678 248.583 -34.5867 126.194 39.6849 54.8275C158.527 -60.5788 359.887 21.0826 360.981 187.379L361 187.398ZM356.283 187.398C356.83 56.9918 223.005 -33.948 101.88 17.1115C-47.6257 81.1947 -47.6257 293.62 101.88 357.684C223.005 408.725 356.83 317.804 356.283 187.398Z" fill="#F7E0A1"/>
<path d="M172.604 360.695C18.909 359.641 -56.4571 174.468 50.1008 65.2161C116.032 -3.12046 229.194 -3.12046 295.125 65.2161C401.683 174.487 326.298 359.641 172.622 360.695H172.604ZM172.604 356.047C293.012 356.574 377.077 233.714 329.883 122.43C270.67 -14.8267 74.5183 -14.8079 15.3237 122.43C-31.8697 233.714 52.2142 356.574 172.604 356.047Z" fill="#F7E0A1"/>
<path d="M172.604 346.072C31.9481 345.074 -36.889 175.579 60.4981 75.5861C120.806 12.9709 224.42 12.9709 284.728 75.5861C382.115 175.579 313.259 345.074 172.623 346.053L172.604 346.072ZM172.604 341.499C282.652 341.988 359.622 229.762 316.429 127.982C262.254 2.60091 82.9532 2.61974 28.778 127.982C-14.415 229.762 62.5549 342.007 172.604 341.499Z" fill="#F7E0A1"/>
<path d="M172.604 331.43C45.0066 330.507 -17.3393 176.689 70.896 85.9561C125.581 29.0811 219.628 29.0623 274.331 85.9561C362.548 176.689 300.202 330.507 172.623 331.43H172.604ZM172.604 326.95C272.312 327.421 342.168 225.81 302.976 133.553C253.839 20.0474 91.3697 20.0474 42.2327 133.553C3.04013 225.81 72.8962 327.421 172.604 326.95Z" fill="#F7E0A1"/>
<path d="M172.604 316.806C58.0457 315.94 2.22883 177.799 81.2933 96.3261C130.374 45.1725 214.854 45.1725 263.934 96.3261C342.999 177.799 287.163 315.94 172.623 316.806H172.604ZM172.604 312.402C261.972 312.835 324.714 221.839 289.522 139.105C245.423 37.475 99.8046 37.475 55.7059 139.105C20.5137 221.839 83.2558 312.835 172.623 312.402H172.604Z" fill="#F7E0A1"/>
<path d="M172.603 302.164C71.1023 301.355 21.7766 178.891 91.6892 106.696C135.146 61.2639 210.078 61.2639 253.536 106.696C323.448 178.91 274.104 301.374 172.603 302.164ZM172.603 297.854C251.63 298.268 307.258 217.887 276.047 144.657C236.987 54.8838 108.2 54.9026 69.1587 144.657C37.948 217.868 93.5762 298.268 172.603 297.854Z" fill="#F7E0A1"/>
<path d="M172.605 287.541C84.1619 286.882 41.4217 179.964 102.069 117.066C140.13 77.3176 205.061 77.3176 243.121 117.066C303.788 179.964 261.029 286.882 172.586 287.541H172.605ZM172.605 283.325C241.272 283.57 289.881 213.991 262.576 150.246C228.629 72.4055 116.561 72.4055 82.6145 150.246C55.3288 213.991 103.919 283.588 172.586 283.325H172.605Z" fill="#F7E0A1"/>
<path d="M172.604 272.898C97.219 272.315 60.9512 181.055 112.466 127.436C144.884 93.4278 200.305 93.409 232.742 127.436C284.257 181.074 247.989 272.315 172.604 272.898ZM172.604 268.777C230.93 269.003 272.406 210.001 249.121 155.798C220.212 89.8143 124.995 89.8331 96.0868 155.798C72.8014 210.02 114.277 269.021 172.604 268.777Z" fill="#F7E0A1"/>
<path d="M172.604 258.256C110.277 257.748 80.5009 182.166 122.864 137.806C149.546 109.538 195.663 109.538 222.345 137.806C264.727 182.166 234.931 257.748 172.604 258.256ZM172.604 254.247C220.515 254.53 254.99 205.955 235.667 161.35C211.929 107.28 133.299 107.28 109.56 161.35C90.2189 205.936 124.713 254.53 172.623 254.247H172.604Z" fill="#F7E0A1"/>
<path d="M172.604 243.614C123.392 243.275 100.012 183.144 133.26 148.176C154.225 125.648 190.983 125.648 211.948 148.176C245.196 183.163 221.798 243.275 172.604 243.614ZM172.604 239.718C210.193 239.963 237.516 202.002 222.194 166.921C203.456 124.707 141.752 124.707 123.014 166.921C107.692 202.002 135.015 239.963 172.604 239.718Z" fill="#F7E0A1"/>
<path d="M214.267 187.398C213.966 223.495 169.471 240.32 143.657 216.287C126.844 201.137 126.844 173.678 143.657 158.527C169.471 134.494 213.984 151.319 214.267 187.417V187.398ZM210.493 187.398C210.777 160.259 183.227 140.046 157.639 151.376C127.221 164.983 127.221 209.832 157.639 223.439C183.208 234.75 210.758 214.537 210.493 187.417V187.398Z" fill="#F7E0A1"/>
</g>
<defs>
<clipPath id="clip0_536_4079">
<rect width="377" height="373" fill="white" transform="translate(-16 0.907104)"/>
</clipPath>
</defs>
</svg>
