<svg width="206" height="331" viewBox="0 0 206 331" fill="none" xmlns="http://www.w3.org/2000/svg">
<g opacity="0.5" clip-path="url(#clip0_536_4103)">
<path d="M334.001 165.492C333.014 312.634 154.621 384.881 49.3342 282.763C-16.4494 219.623 -16.4661 111.344 49.3342 48.2045C154.621 -53.8976 333.014 18.3498 333.984 165.475L334.001 165.492ZM329.821 165.492C330.306 50.1193 211.745 -30.3368 104.435 14.8365C-28.0179 71.5321 -28.0179 259.468 104.435 316.147C211.745 361.304 330.306 280.865 329.821 165.492Z" fill="#F7E0A1"/>
<path d="M167.091 318.811C30.9265 317.879 -35.8434 154.053 58.5606 57.3954C116.972 -3.06327 217.227 -3.06327 275.638 57.3954C370.042 154.069 303.255 317.879 167.108 318.811H167.091ZM167.091 314.698C273.766 315.165 348.242 206.469 306.432 108.013C253.972 -13.42 80.1931 -13.4033 27.7502 108.013C-14.0604 206.469 60.433 315.165 167.091 314.698Z" fill="#F7E0A1"/>
<path d="M167.092 305.874C42.4789 304.991 -18.5067 155.035 67.7726 66.5699C121.202 11.1731 212.998 11.1731 266.427 66.5699C352.707 155.035 291.704 304.991 167.108 305.857L167.092 305.874ZM167.092 301.827C264.588 302.26 332.779 202.972 294.513 112.925C246.517 1.99853 87.6665 2.01518 39.6704 112.925C1.4039 202.972 69.5948 302.277 167.092 301.827Z" fill="#F7E0A1"/>
<path d="M167.092 292.919C54.0481 292.104 -1.18673 156.017 76.9845 75.7445C125.432 25.4261 208.752 25.4094 257.216 75.7445C335.371 156.017 280.136 292.104 167.109 292.919H167.092ZM167.092 288.957C255.428 289.373 317.316 199.476 282.594 117.854C239.061 17.4338 95.1231 17.4338 51.5906 117.854C16.8682 199.476 78.7566 289.373 167.092 288.957Z" fill="#F7E0A1"/>
<path d="M167.093 279.982C65.6005 279.216 16.15 157 86.1965 84.919C129.679 39.6624 204.523 39.6624 248.006 84.919C318.052 157 268.585 279.216 167.109 279.982H167.093ZM167.093 276.086C246.267 276.469 301.853 195.962 270.675 122.766C231.606 32.8523 102.596 32.8523 63.5275 122.766C32.3493 195.962 87.9351 276.469 167.109 276.086H167.093Z" fill="#F7E0A1"/>
<path d="M167.091 267.028C77.1677 266.312 33.468 157.966 95.4065 94.0935C133.907 53.8988 200.292 53.8988 238.793 94.0935C300.732 157.982 257.015 266.328 167.091 267.028ZM167.091 263.215C237.105 263.581 286.388 192.466 258.737 127.678C224.132 48.2542 110.034 48.2708 75.4458 127.678C47.7949 192.449 97.0783 263.581 167.091 263.215Z" fill="#F7E0A1"/>
<path d="M167.091 254.09C88.7361 253.507 50.8709 158.915 104.601 103.268C138.32 68.1018 195.846 68.1018 229.565 103.268C283.312 158.915 245.43 253.507 167.075 254.09H167.091ZM167.091 250.36C227.926 250.577 270.991 189.019 246.801 132.623C216.726 63.756 117.44 63.756 87.3653 132.623C63.1917 189.019 106.239 250.593 167.075 250.36H167.091Z" fill="#F7E0A1"/>
<path d="M167.091 241.136C100.305 240.62 68.1738 159.88 113.813 112.443C142.533 82.3548 191.633 82.3381 220.37 112.443C266.009 159.897 233.878 240.62 167.091 241.136ZM167.091 237.489C218.765 237.689 255.511 185.489 234.881 137.535C209.27 79.1578 124.913 79.1745 99.3018 137.535C78.6724 185.506 115.418 237.706 167.091 237.489Z" fill="#F7E0A1"/>
<path d="M167.092 228.182C111.874 227.732 85.4937 160.863 123.025 121.617C146.663 96.6078 187.521 96.6078 211.16 121.617C248.707 160.863 222.31 227.732 167.092 228.182ZM167.092 224.635C209.538 224.885 240.081 181.909 222.962 142.447C201.932 94.6097 132.269 94.6097 111.239 142.447C94.1033 181.893 124.663 224.885 167.109 224.635H167.092Z" fill="#F7E0A1"/>
<path d="M167.091 215.227C123.492 214.928 102.779 161.729 132.235 130.792C150.808 110.861 183.374 110.861 201.947 130.792C231.404 161.745 210.674 214.928 167.091 215.227ZM167.091 211.781C200.393 211.997 224.6 178.413 211.025 147.376C194.424 110.028 139.758 110.028 123.157 147.376C109.583 178.413 133.79 211.997 167.091 211.781Z" fill="#F7E0A1"/>
<path d="M204.004 165.492C203.736 197.428 164.317 212.313 141.447 191.05C126.552 177.647 126.552 153.353 141.447 139.95C164.317 118.687 203.753 133.572 204.004 165.508V165.492ZM200.66 165.492C200.911 141.481 176.504 123.599 153.835 133.622C126.886 145.661 126.886 185.339 153.835 197.378C176.487 207.385 200.895 189.502 200.66 165.508V165.492Z" fill="#F7E0A1"/>
</g>
<defs>
<clipPath id="clip0_536_4103">
<rect width="334" height="330" fill="white" transform="translate(0 0.5)"/>
</clipPath>
</defs>
</svg>
