<svg width="193" height="374" viewBox="0 0 193 374" fill="none" xmlns="http://www.w3.org/2000/svg">
<g clip-path="url(#clip0_536_4091)">
<path d="M193 186.991C191.887 353.752 -9.47299 435.632 -128.315 319.898C-202.568 248.34 -202.587 125.623 -128.315 54.065C-9.47299 -61.6507 191.887 20.2297 192.981 186.972L193 186.991ZM188.283 186.991C188.83 56.2351 55.0052 -34.9485 -66.1202 16.2479C-215.626 80.5029 -215.626 293.497 -66.1202 357.734C55.0052 408.911 188.83 317.746 188.283 186.991Z" fill="#FCF5E3"/>
<path d="M4.60358 360.753C-149.091 359.696 -224.457 174.026 -117.899 64.4815C-51.9681 -4.03834 61.1942 -4.03834 127.125 64.4815C233.683 174.045 158.298 359.696 4.62245 360.753H4.60358ZM4.60358 356.092C125.012 356.62 209.077 233.432 161.883 121.849C102.67 -15.776 -93.4817 -15.7571 -152.676 121.849C-199.87 233.432 -115.786 356.62 4.60358 356.092Z" fill="#FCF5E3"/>
<path d="M4.6037 346.09C-136.052 345.09 -204.889 175.14 -107.502 74.8792C-47.1939 12.0962 56.4202 12.0962 116.728 74.8792C214.115 175.14 145.259 345.09 4.62257 346.071L4.6037 346.09ZM4.6037 341.504C114.652 341.995 191.622 229.469 148.429 127.415C94.2542 1.69835 -85.0468 1.71722 -139.222 127.415C-182.415 229.469 -105.445 342.014 4.6037 341.504Z" fill="#FCF5E3"/>
<path d="M4.60428 331.409C-122.993 330.484 -185.339 176.253 -97.104 85.2771C-42.4193 28.2496 51.6278 28.2307 106.331 85.2771C194.548 176.253 132.202 330.484 4.62315 331.409H4.60428ZM4.60428 326.917C104.312 327.389 174.168 225.506 134.976 133.001C85.8388 19.1916 -76.6303 19.1916 -125.767 133.001C-164.96 225.506 -95.1038 327.389 4.60428 326.917Z" fill="#FCF5E3"/>
<path d="M4.60435 316.746C-109.954 315.878 -165.771 177.366 -86.7067 95.6749C-37.6263 44.3841 46.8539 44.3841 95.9343 95.6749C174.999 177.366 119.163 315.878 4.62323 316.746H4.60435ZM4.60435 312.33C93.9718 312.764 156.714 221.524 121.522 138.568C77.423 36.6659 -68.1954 36.6659 -112.294 138.568C-147.486 221.524 -84.7442 312.764 4.62323 312.33H4.60435Z" fill="#FCF5E3"/>
<path d="M4.603 302.065C-96.8977 301.253 -146.223 178.461 -76.3108 106.073C-32.8536 60.5186 42.0784 60.5186 85.5356 106.073C155.448 178.48 106.104 301.272 4.603 302.065ZM4.603 297.743C83.6298 298.158 139.258 217.561 108.047 144.135C68.9868 54.1214 -59.7997 54.1403 -98.8413 144.135C-130.052 217.542 -74.4238 298.158 4.603 297.743Z" fill="#FCF5E3"/>
<path d="M4.60468 287.402C-83.8381 286.742 -126.578 179.537 -65.9307 116.47C-27.8703 76.6154 37.0608 76.6154 75.1212 116.47C135.788 179.537 93.0286 286.742 4.58582 287.402H4.60468ZM4.60468 283.175C73.2719 283.42 121.881 213.655 94.576 149.74C60.6292 71.6901 -51.4387 71.6901 -85.3855 149.74C-112.671 213.655 -64.0814 283.439 4.58582 283.175H4.60468Z" fill="#FCF5E3"/>
<path d="M4.60388 272.721C-70.781 272.136 -107.049 180.631 -55.5342 126.868C-23.1159 92.7688 32.3048 92.7499 64.742 126.868C116.257 180.65 79.9888 272.136 4.60388 272.721ZM4.60388 268.588C62.9305 268.814 104.406 209.654 81.121 155.307C52.2124 89.1456 -43.0047 89.1644 -71.9132 155.307C-95.1986 209.673 -53.7227 268.833 4.60388 268.588Z" fill="#FCF5E3"/>
<path d="M4.60448 258.039C-57.7225 257.53 -87.4991 181.744 -45.1364 137.266C-18.4544 108.922 27.6634 108.922 54.3453 137.266C96.7269 181.744 66.9315 257.53 4.60448 258.039ZM4.60448 254.02C52.5149 254.303 86.9901 205.597 67.6674 160.873C43.9292 106.658 -34.7013 106.658 -58.4396 160.873C-77.7811 205.578 -43.2871 254.303 4.62335 254.02H4.60448Z" fill="#FCF5E3"/>
<path d="M4.60404 243.358C-44.6084 243.018 -67.9881 182.726 -34.7395 147.664C-13.7752 125.076 22.9833 125.076 43.9476 147.664C77.1962 182.745 53.7976 243.018 4.60404 243.358ZM4.60404 239.451C42.1927 239.697 69.5162 201.634 54.1939 166.459C35.4562 124.132 -26.2481 124.132 -44.9858 166.459C-60.3081 201.634 -32.9846 239.697 4.60404 239.451Z" fill="#FCF5E3"/>
<path d="M46.2675 186.991C45.9655 223.185 1.47054 240.055 -24.3434 215.957C-41.1564 200.766 -41.1564 173.234 -24.3434 158.043C1.47054 133.945 45.9844 150.815 46.2675 187.009V186.991ZM42.4935 186.991C42.7766 159.779 15.2266 139.512 -10.3608 150.872C-40.779 164.515 -40.779 209.485 -10.3608 223.128C15.2077 234.469 42.7577 214.202 42.4935 187.009V186.991Z" fill="#FCF5E3"/>
</g>
<defs>
<clipPath id="clip0_536_4091">
<rect width="377" height="374" fill="white" transform="translate(-184)"/>
</clipPath>
</defs>
</svg>
