<svg width="14" height="18" viewBox="0 0 14 18" fill="none" xmlns="http://www.w3.org/2000/svg">
<path d="M6.99935 9V14M6.99935 14L9.49935 12.3333M6.99935 14L4.49935 12.3333M7.83268 1.50072C7.7531 1.5 7.66375 1.5 7.56161 1.5H3.83285C2.89942 1.5 2.43237 1.5 2.07585 1.68166C1.76224 1.84144 1.50746 2.09623 1.34767 2.40983C1.16602 2.76635 1.16602 3.23341 1.16602 4.16683V13.8335C1.16602 14.7669 1.16602 15.2334 1.34767 15.5899C1.50746 15.9035 1.76224 16.1587 2.07585 16.3185C2.43202 16.5 2.89851 16.5 3.83011 16.5H10.1686C11.1002 16.5 11.566 16.5 11.9222 16.3185C12.2358 16.1587 12.4914 15.9035 12.6512 15.5899C12.8327 15.2337 12.8327 14.7679 12.8327 13.8363V6.7714C12.8327 6.66913 12.8327 6.57967 12.8319 6.5M7.83268 1.50072C8.07071 1.50289 8.2213 1.51154 8.36505 1.54605C8.53511 1.58688 8.69756 1.65439 8.84668 1.74577C9.01482 1.8488 9.1592 1.99318 9.44727 2.28125L12.0518 4.88582C12.3401 5.17407 12.4834 5.3178 12.5865 5.48599C12.6779 5.63511 12.7455 5.79771 12.7863 5.96777C12.8208 6.11147 12.8296 6.26209 12.8319 6.5M7.83268 1.50072V3.83333C7.83268 4.76675 7.83268 5.23314 8.01434 5.58966C8.17413 5.90326 8.42891 6.15873 8.74251 6.31852C9.09868 6.5 9.56518 6.5 10.4968 6.5H12.8319M12.8319 6.5H12.8328" stroke="white" stroke-width="1.5" stroke-linecap="round" stroke-linejoin="round"/>
</svg>
