<svg width="40" height="40" viewBox="0 0 40 40" fill="none" xmlns="http://www.w3.org/2000/svg">
<path d="M20.0455 0H19.9545C8.93393 0 0 8.93391 0 19.9545V20.0455C0 31.0661 8.93393 40 19.9545 40H20.0455C31.0661 40 40 31.0661 40 20.0455V19.9545C40 8.93391 31.0661 0 20.0455 0Z" fill="#FACDF8" fill-opacity="0.1"/>
<path d="M11.6052 14.3691C11.201 13.9939 11 13.5295 11 12.9769C11 12.4244 11.2021 11.9396 11.6052 11.5633C12.0094 11.1881 12.5297 11 13.1672 11C13.8047 11 14.3046 11.1881 14.7077 11.5633C15.1119 11.9385 15.3129 12.4104 15.3129 12.9769C15.3129 13.5435 15.1108 13.9939 14.7077 14.3691C14.3035 14.7442 13.7907 14.9324 13.1672 14.9324C12.5437 14.9324 12.0094 14.7442 11.6052 14.3691ZM14.9732 16.5212V28.0237H11.3386V16.5212H14.9732Z" fill="white"/>
<path d="M27.0721 17.6577C27.8644 18.5177 28.26 19.698 28.26 21.2009V27.8207H24.8082V21.6674C24.8082 20.9096 24.6115 20.3205 24.2191 19.9012C23.8267 19.482 23.2978 19.2713 22.6356 19.2713C21.9734 19.2713 21.4445 19.4809 21.0521 19.9012C20.6597 20.3205 20.463 20.9096 20.463 21.6674V27.8207H16.9908V16.4892H20.463V17.992C20.8145 17.4911 21.2886 17.0955 21.8842 16.8041C22.4797 16.5128 23.1495 16.3677 23.8944 16.3677C25.221 16.3677 26.2809 16.7977 27.0721 17.6566V17.6577Z" fill="white"/>
</svg>
