<svg width="40" height="40" viewBox="0 0 40 40" fill="none" xmlns="http://www.w3.org/2000/svg">
<path d="M20 0C8.95431 0 0 8.95431 0 20C0 31.0457 8.95431 40 20 40C31.0457 40 40 31.0457 40 20C40 8.95431 31.0457 0 20 0Z" fill="#FACDF8" fill-opacity="0.1"/>
<path d="M20 13.8919C21.7556 13.8919 21.9689 13.8986 22.6686 13.9297C23.3214 13.9586 23.6742 14.0697 23.8986 14.1636C24.1986 14.2853 24.4131 14.4319 24.6375 14.6564C24.862 14.8808 25.0086 15.0953 25.1303 15.3953C25.2242 15.6197 25.3353 15.9725 25.3642 16.6253C25.3953 17.325 25.402 17.5383 25.402 19.2939C25.402 21.0495 25.3953 21.2628 25.3642 21.9625C25.3353 22.6153 25.2242 22.9681 25.1303 23.1925C25.0086 23.4925 24.862 23.707 24.6375 23.9314C24.4131 24.1559 24.1986 24.3025 23.8986 24.4242C23.6742 24.5181 23.3214 24.6292 22.6686 24.6581C21.9689 24.6892 21.7556 24.6959 20 24.6959C18.2444 24.6959 18.0311 24.6892 17.3314 24.6581C16.6786 24.6292 16.3258 24.5181 16.1014 24.4242C15.8014 24.3025 15.5869 24.1559 15.3625 23.9314C15.138 23.707 14.9914 23.4925 14.8697 23.1925C14.7758 22.9681 14.6647 22.6153 14.6358 21.9625C14.6047 21.2628 14.598 21.0495 14.598 19.2939C14.598 17.5383 14.6047 17.325 14.6358 16.6253C14.6647 15.9725 14.7758 15.6197 14.8697 15.3953C14.9914 15.0953 15.138 14.8808 15.3625 14.6564C15.5869 14.4319 15.8014 14.2853 16.1014 14.1636C16.3258 14.0697 16.6786 13.9586 17.3314 13.9297C18.0311 13.8986 18.2444 13.8919 20 13.8919ZM20 12.5C18.2111 12.5 17.9778 12.5078 17.2681 12.5392C16.5597 12.5706 16.0781 12.6856 15.6592 12.8503C15.2239 13.0211 14.8517 13.2478 14.4808 13.6186C14.11 13.9895 13.8833 14.3617 13.7125 14.797C13.5478 15.2159 13.4328 15.6975 13.4014 16.4059C13.37 17.1156 13.3622 17.3489 13.3622 19.1378C13.3622 20.9267 13.37 21.16 13.4014 21.8697C13.4328 22.5781 13.5478 23.0597 13.7125 23.4786C13.8833 23.9139 14.11 24.2861 14.4808 24.657C14.8517 25.0278 15.2239 25.2545 15.6592 25.4253C16.0781 25.59 16.5597 25.705 17.2681 25.7364C17.9778 25.7678 18.2111 25.7756 20 25.7756C21.7889 25.7756 22.0222 25.7678 22.7319 25.7364C23.4403 25.705 23.9219 25.59 24.3408 25.4253C24.7761 25.2545 25.1483 25.0278 25.5192 24.657C25.89 24.2861 26.1167 23.9139 26.2875 23.4786C26.4522 23.0597 26.5672 22.5781 26.5986 21.8697C26.63 21.16 26.6378 20.9267 26.6378 19.1378C26.6378 17.3489 26.63 17.1156 26.5986 16.4059C26.5672 15.6975 26.4522 15.2159 26.2875 14.797C26.1167 14.3617 25.89 13.9895 25.5192 13.6186C25.1483 13.2478 24.7761 13.0211 24.3408 12.8503C23.9219 12.6856 23.4403 12.5706 22.7319 12.5392C22.0222 12.5078 21.7889 12.5 20 12.5Z" fill="white"/>
<path d="M20 16.2973C18.1078 16.2973 16.5757 17.8294 16.5757 19.7216C16.5757 21.6138 18.1078 23.1459 20 23.1459C21.8922 23.1459 23.4243 21.6138 23.4243 19.7216C23.4243 17.8294 21.8922 16.2973 20 16.2973ZM20 21.7541C18.876 21.7541 17.9675 20.8456 17.9675 19.7216C17.9675 18.5976 18.876 17.6892 20 17.6892C21.124 17.6892 22.0325 18.5976 22.0325 19.7216C22.0325 20.8456 21.124 21.7541 20 21.7541Z" fill="white"/>
<path d="M24.3379 16.1426C24.3379 16.6103 23.9596 16.9886 23.4919 16.9886C23.0242 16.9886 22.6459 16.6103 22.6459 16.1426C22.6459 15.6749 23.0242 15.2966 23.4919 15.2966C23.9596 15.2966 24.3379 15.6749 24.3379 16.1426Z" fill="white"/>
</svg>
