<svg width="247" height="165" viewBox="0 0 247 165" fill="none" xmlns="http://www.w3.org/2000/svg">
<g opacity="0.5">
<path d="M183.648 214.094C214.603 189.112 259.785 169.701 302.988 189.011C310.108 192.475 317.451 195.694 324.647 197.796C355.799 207.615 379.535 196.318 401.751 178.163C407.229 173.85 412.471 169.26 417.751 164.63C445.962 138.612 474.838 127.471 514.955 133.875C525.953 135.517 537.006 138.553 548.045 141.808C558.972 144.874 569.921 147.072 580.723 148.195C635.644 154.564 671.471 125.948 710.895 94.085C716.356 89.6906 722.061 85.6404 728.042 82.1526C748.851 69.9688 773.499 63.724 799.41 69.9623C803.093 70.9055 806.778 72.0318 810.429 73.7596L810.351 74.2382C808.561 73.4211 806.727 72.783 804.905 72.2112C777.353 64.1127 750.977 71.0195 729.136 84.2621C723.262 87.8342 717.697 91.9298 712.341 96.4036C673.291 128.958 636.33 159.116 581.14 151.826C568.341 150.349 555.423 147.341 542.525 143.441C526.149 138.491 509.661 135.469 493.76 135.613C472.477 135.605 452.775 142.576 436.22 154.963C427.837 161.042 420.101 168.293 412.188 175.194C393.556 191.222 372.703 206.496 346.802 205.388C332.21 205.034 317.113 199.635 302.573 192.197C265.993 175.624 230.451 186.65 201.177 203.051C195.238 206.515 189.411 210.244 183.941 214.548L183.648 214.094Z" fill="#B861B3"/>
<path d="M794.806 52.1255C758.092 46.1401 723.14 55.8781 696.236 78.5418C692.913 81.3494 685.813 87.1794 682.345 90.0736C636.962 128.296 595.805 144.928 532.292 127.137C500.173 118.545 467.719 119.869 441.696 135.747C438.943 137.405 435.861 139.391 433.239 141.289C423.484 148.142 414.896 156.794 405.748 164.635C397.766 171.269 389.797 177.862 380.951 183.075C361.572 194.851 338.48 197.212 314.373 189.49C311.65 188.67 308.925 187.707 306.216 186.661L303.504 185.598C287.515 178.997 271.232 177.404 256.067 179.452C232.318 182.686 210.751 193.426 191.804 207.83C189.1 209.918 186.438 212.094 183.905 214.434L183.596 213.993C186.118 211.587 188.745 209.361 191.427 207.211C210.293 192.362 231.709 181.225 255.556 177.546C269.206 175.516 283.734 176.241 298.278 181.086C300.317 181.848 304.489 183.297 306.392 184.053C309.071 185.041 311.739 185.951 314.414 186.71C338.23 193.924 360.045 191.139 379.169 179.604C390.734 172.736 401.286 163.876 411.548 154.757C420.537 146.589 429.856 138.733 440.159 132.751C470.445 115.038 503.596 115.818 540.321 126.009C564.408 131.812 588.495 132.528 610.448 126.607C636.702 119.806 659.142 103.932 680.489 87.0796C691.055 78.7596 702.029 69.2839 713.847 63.2064C734.793 51.9949 758.944 47.3116 784.013 50.0561C787.582 50.438 791.174 50.982 794.76 51.6002L794.804 52.1205L794.806 52.1255Z" fill="#B861B3"/>
<path d="M779.2 29.9965C752.735 26.673 723.365 34.762 701.346 46.5465C699.913 47.3292 698.32 48.1223 696.998 48.9516C695.153 50.1031 692.291 51.7495 690.65 52.8897L688.592 54.3113C687.278 55.238 685.713 56.2146 684.5 57.1861C668.579 69.6649 653.503 83.6977 636.291 94.1229C608.352 111.74 575.903 119.976 540.869 114.612C539.524 114.39 536.879 113.933 535.534 113.699C530.629 112.818 524.501 111.319 519.589 110.352C513.594 109.245 507.18 108.404 501.238 108.021C471.651 105.953 444.106 115.478 422.233 133.982C415.682 139.271 409.647 145.427 403.283 151.074C391.666 161.066 380.018 171.445 366.066 177.281C349.874 184.388 331.158 185.476 312.336 181.043C307.903 180.082 303.375 178.581 298.961 177.273L296.33 176.496L295.012 176.108L293.698 175.807L291.068 175.213L289.752 174.919L289.094 174.772L288.437 174.666L283.194 173.844L277.981 173.363C244.817 171.504 215.417 186.418 191.262 207.253C188.719 209.503 186.22 211.833 183.858 214.33L183.536 213.907C188.23 208.796 193.325 204.258 198.595 200.006C223.763 179.982 254.698 166.457 288.918 172.181C290.661 172.55 293.198 173.072 294.957 173.446C295.658 173.633 298.218 174.365 298.993 174.574C326.53 183.426 350.817 182.306 373.355 169.342C381.998 164.448 389.799 157.976 397.482 151.383C399.909 149.385 402.903 146.869 405.159 144.756C439.785 110.413 476.479 97.3987 527.418 109.251C567.37 118.459 602.853 110.809 634.524 90.8056C652.036 80.2026 667.341 65.9577 683.891 53.6502C685.813 52.3763 688.286 50.7329 690.228 49.4858L691.315 48.8536L695.669 46.3332C710.291 38.2784 726.286 32.7636 742.953 29.9924C747.908 29.2032 753.096 28.5797 758.198 28.3786C765.06 28.0473 772.054 28.2576 779.142 29.4644L779.186 29.9848L779.2 29.9965Z" fill="#B861B3"/>
<path d="M763.598 7.86352C742.735 5.15936 723.171 10.1322 705.181 17.8004C693.163 22.9571 681.792 29.5754 671.048 37.2555C665.653 41.0935 660.574 45.3578 655.499 49.7211C635.229 67.3564 613.237 82.9947 588.135 91.4467C568.611 98.1985 547.261 100.461 525.344 97.1472C523.791 96.8853 519.105 96.0398 517.461 95.7581C486.161 89.6497 455.771 95.3897 431.102 111.752C425.606 115.308 420.315 119.374 415.315 123.752C410.229 128.15 405.562 132.994 400.627 137.67C398.253 139.679 395.443 142.341 393.204 144.493C388.301 149.191 383.192 153.658 377.743 157.52C357.302 172.508 331.595 177.493 304.9 171.714C299.672 170.589 294.41 169.104 289.217 168.39C261.352 164.098 235.61 172.934 213.854 187.539C205.63 193.057 197.892 199.455 190.736 206.661C188.354 209.072 186.026 211.566 183.844 214.227L183.508 213.822C185.66 211.084 187.952 208.535 190.3 206.056C197.36 198.649 205.014 192.039 213.164 186.31C234.877 171.107 260.827 161.753 288.973 165.632C295.936 166.502 302.96 168.627 309.929 169.589C334.078 173.189 357.211 167.65 375.945 154.37C382.671 149.746 388.923 143.94 394.986 138.217C401.389 132.779 407.187 126.548 413.602 121.105C428.907 107.868 446.601 98.1345 466.132 93.7631C482.339 90.0419 499.782 90.0458 517.323 93.3457C518.609 93.5814 523.789 94.4258 525.139 94.6693C539.815 96.7535 554.316 96.3817 568.06 93.73C594.056 88.6903 617.304 75.8027 638.15 59.4643C648.713 51.3652 658.466 41.8744 669.393 34.3459C691.316 19.4552 715.804 8.17492 742.884 6.26886C749.647 5.8384 756.577 6.15323 763.572 7.35333L763.616 7.87371L763.598 7.86352Z" fill="#B861B3"/>
<path d="M747.993 -14.2695C713.384 -18.8037 682.831 -4.02884 657.43 16.4644C652.34 20.585 647.284 24.9519 642.291 29.2557C622.585 47.3101 600.981 62.8745 576.61 72.3491C558.358 79.4138 538.497 82.9974 517.804 81.0022C511.798 80.3328 505.735 79.2498 499.789 78.8866C464.811 76.3269 433.076 90.406 408.373 113.643C404.176 117.423 400.057 122.201 395.939 126.084C393.062 129.13 390.308 132.402 387.323 135.359C381.961 140.778 376.171 145.612 369.96 149.686C349.972 163.131 325.476 167.751 300.092 163.323L294.908 162.469L292.345 162.058C262.222 157.55 234.466 167.926 211.921 185.435C206.736 189.436 201.725 193.867 197.038 198.625C192.333 203.402 187.82 208.481 183.799 214.112L183.445 213.726C185.408 210.822 187.521 208.102 189.692 205.456C196.227 197.548 203.434 190.427 211.151 184.18C233.649 165.986 261.579 155.042 292.062 159.092C293.544 159.29 298.25 160.003 299.837 160.232C324.145 163.971 347.7 159.411 367.227 147.209C373.725 143.105 379.817 138.229 385.406 132.664C388.404 129.755 391.167 126.526 394.1 123.479C398.341 119.55 402.373 114.94 406.67 111.14C431.222 88.3836 462.533 74.8858 496.921 76.6466C503.759 76.9482 510.751 78.1318 517.539 78.8762C525.194 79.5817 532.758 79.4789 540.146 78.7413C552.444 77.489 564.319 74.2563 575.552 69.7965C600.44 59.9023 622.139 43.2822 642.201 24.6288C646.456 21.0311 651.221 16.9328 655.606 13.504C671.26 1.28929 688.564 -8.56518 707.743 -13.2875C720.496 -16.4452 734.087 -17.2752 747.951 -14.7849L747.995 -14.2645L747.993 -14.2695Z" fill="#B861B3"/>
<path d="M732.389 -36.3958C693.684 -41.249 658.638 -24.7118 633.297 3.21347C631.609 5.11498 629.926 7.07928 628.418 9.11597C624.474 13.2784 620.359 17.088 616.11 20.7782C584.446 47.3834 546.5 68.3407 502.897 64.2399C497.17 63.6215 491.495 63.3835 485.911 63.6337C452.337 65.1418 422.718 81.7938 399.507 106.001C397.593 108.042 395.7 110.169 393.973 112.36L394.052 112.243C393.299 113.483 392.533 114.575 391.739 115.691C370.035 144.882 336.219 159.201 300.247 155.899C297.424 155.667 294.979 155.318 292.296 155.031C268.652 152.504 246.31 158.606 227.301 170.523C214.561 178.49 203.057 188.83 193.108 201.044C189.807 205.14 186.601 209.385 183.761 214.004L183.395 213.642C188.901 204.135 195.549 195.827 202.694 188.246C225.049 164.583 254.642 149.466 287.906 151.425C289.235 151.529 290.563 151.593 291.897 151.73L295.875 152.142C318.138 154.606 339.639 150.6 358.068 140.269C368.878 134.197 378.756 126.17 387.025 116.108C388.661 114.105 390.316 111.957 391.721 109.734C393.593 107.426 395.521 105.338 397.512 103.275C425.181 75.2214 461.964 57.8641 502.698 62.4944C540.205 66.3745 573.251 49.8165 601.496 28.5147C610.053 21.9569 618.981 14.0762 626.211 6.47037C629.376 2.20171 632.81 -1.51948 636.44 -5.13653C654.474 -22.8792 676.727 -35.1147 701.668 -38.0716C711.606 -39.2768 721.947 -38.8962 732.351 -36.9128L732.395 -36.3924L732.389 -36.3958Z" fill="#B861B3"/>
</g>
<path d="M170.362 61.0988C161.399 67.4732 150.691 77.2595 152.323 89.2853C152.774 92.0099 153.771 94.7576 155.763 96.7248C162.1 102.595 172.929 101.343 180.878 100.005L180.997 100.447C172.648 103.117 161.255 104.806 154.173 98.3207C149.563 93.6826 148.906 86.0803 151.159 80.1882C152.255 77.2172 153.962 74.5458 155.931 72.1741C159.881 67.4747 164.822 63.7035 170.222 60.8614L170.353 61.1012L170.362 61.0988Z" fill="#8AA7F2"/>
<path d="M170.441 61.0772C160.341 69.2481 155.637 81.6648 161.613 93.7231C165.131 100.572 174.053 101.609 180.898 100.009L181.026 100.448C173.745 102.717 164.183 101.91 159.903 94.7348C154.277 85.485 157.54 73.3528 164.594 65.9184C166.306 64.0336 168.184 62.3123 170.277 60.8559L170.432 61.0796L170.441 61.0772Z" fill="#8AA7F2"/>
<path d="M170.534 61.0333C164.748 68.4575 164.604 78.6476 167.218 87.3156C168.233 92.0605 170.354 97.2848 175.052 99.3661C176.853 100.17 178.977 100.413 180.931 99.9902L181.068 100.428C178.998 101.053 176.766 100.972 174.695 100.259C164.678 96.397 162.572 81.3116 164.701 72.0467C165.705 67.9243 167.46 63.95 170.33 60.8416L170.525 61.0357L170.534 61.0333Z" fill="#8AA7F2"/>
<path d="M170.637 60.9581C169.922 67.906 171.629 74.9021 173.411 81.5748C174.79 86.5818 175.519 91.8497 177.786 96.5602C178.503 97.8467 179.331 99.8244 180.943 99.9967L181.124 100.422C180.499 100.6 180.067 100.337 179.639 100.121C178.465 99.3561 177.672 98.1755 176.955 97.0312C175.127 93.9478 173.896 90.58 172.755 87.1972C170.993 82.1796 170.391 76.7826 169.927 71.5098C169.712 67.9721 169.608 64.3856 170.383 60.894L170.648 60.9646L170.637 60.9581Z" fill="#8AA7F2"/>
<path d="M170.672 60.8063C173.101 63.4431 174.815 66.5952 176.411 69.7696C179.59 76.1696 181.931 82.9474 182.778 90.0618C183.069 93.1426 183.645 96.5447 182.248 99.4547C181.976 99.8508 181.701 100.276 181.086 100.423L181.029 99.9639C181.29 99.8747 181.581 99.5115 181.734 99.1665C182.75 96.3214 181.896 93.1932 181.356 90.3126C180.615 86.8979 179.315 83.6248 178.452 80.2524C176.631 73.5716 174.594 66.6549 170.476 60.9922L170.67 60.7975L170.672 60.8063Z" fill="#8AA7F2"/>
<path d="M170.687 60.7548C179.85 63.7375 186.457 72.438 188.844 81.5657C190.094 86.6928 190.328 92.901 186.604 97.1028C185.165 98.7338 183.261 99.9023 181.142 100.417L181.04 99.9702C182.948 99.3415 184.68 98.0962 185.862 96.4967C189.684 91.3953 187.634 84.7099 185.847 79.215C183.522 71.4749 178.306 64.135 170.596 61.0164L170.667 60.7507L170.687 60.7548Z" fill="#8AA7F2"/>
<path d="M170.725 60.7254C175.82 61.1818 180.806 62.749 185.212 65.4023C192.894 69.9612 198.855 79.7847 195.982 88.8612C193.778 95.2145 187.353 98.8644 181.174 100.399L181.064 99.9544C187.802 97.8896 195.089 92.5839 194.77 84.862C194.267 77.6546 190.676 70.569 184.538 66.4191C180.475 63.5972 175.653 61.7582 170.695 60.9992L170.717 60.7278L170.725 60.7254Z" fill="#8AA7F2"/>
<path d="M170.779 60.7111C179.843 60.4095 189.718 61.9859 197.041 67.8557C201.953 71.8528 205.181 78.7896 203.448 85.1298C200.429 94.2646 189.788 98.4638 181.203 100.401L181.084 99.9586C188.611 97.1592 198.745 92.736 201.292 84.5255C202.674 78.9917 199.836 73.1164 195.665 69.4699C193.501 67.5682 190.916 66.1119 188.211 64.9446C182.707 62.6538 176.727 61.4494 170.777 60.9867L170.77 60.7135L170.779 60.7111Z" fill="#8AA7F2"/>
<path d="M181.15 100.168C191.875 97.4073 204.202 100.305 208.547 111.484C210.099 115.62 211.072 119.645 213.398 123.344C216.419 128.354 221.823 132.522 227.884 132.062L228.184 134.334C220.875 134.741 214.581 129.523 211.477 123.293C209.506 119.821 208.637 115.578 207.365 111.955C204.654 104.158 197.149 99.8645 189.107 99.7383C186.473 99.6428 183.806 99.8501 181.228 100.422L181.156 100.157L181.15 100.168Z" fill="#8AA7F2"/>
<path d="M181.15 100.168C191.572 97.9729 198.846 105.734 201.676 115.027C202.233 116.632 202.758 118.331 203.271 119.919C203.571 120.711 204.186 122.291 204.494 123.08C206.73 127.989 210.274 134.585 216.161 135.235L216.312 137.519C215.821 137.528 215.549 137.469 215.192 137.413C210.581 136.428 207.381 132.339 205.217 128.464C203.846 125.95 202.762 123.093 201.876 120.372C201.426 118.776 200.93 116.936 200.457 115.394C198.113 106.426 191.257 98.5986 181.226 100.414L181.154 100.148L181.15 100.168Z" fill="#8AA7F2"/>
<path d="M181.15 100.168C188.656 99.6801 192.907 112.659 194.708 118.454C196.434 124.079 198.246 129.775 201.288 134.789C202.034 135.973 202.826 137.078 203.873 137.972C204.121 138.152 204.374 138.349 204.635 138.44C204.635 138.44 204.716 138.456 204.566 138.43L204.297 140.704C203.267 140.507 202.527 139.768 201.819 139.077C197.106 133.318 195.401 125.771 193.459 118.781C191.718 112.648 189.673 104.576 183.957 101.043C183.118 100.605 182.13 100.283 181.202 100.429L181.13 100.164L181.15 100.168Z" fill="#8AA7F2"/>
<path d="M181.319 100.265L193.747 142.459L191.536 143.056C191.743 142.943 180.489 99.9671 181.319 100.265Z" fill="#8AA7F2"/>
<path d="M181.222 100.434C174.976 104.007 178.319 116.785 179.869 122.458C181.706 129.476 184.038 136.854 182.852 144.204C182.588 145.157 182.329 146.166 181.528 146.857L180.152 145.027C180.045 145.122 180.104 145.059 180.098 145.07C180.278 144.86 180.399 144.571 180.521 144.282C180.977 142.983 181.105 141.63 181.154 140.231C181.474 130.269 177.115 120.829 176.866 110.906C176.927 107.123 177.225 102.005 181.144 100.179L181.215 100.445L181.222 100.434Z" fill="#8AA7F2"/>
<path d="M181.221 100.434C176.939 101.931 173.461 105.497 172.078 109.76C170.244 115.198 171.482 120.983 172.967 126.379C173.864 129.704 174.47 133.288 174.585 136.738C174.655 141.179 173.955 146.32 170.465 149.491C170.185 149.718 169.971 149.909 169.551 150.145L168.533 148.096C173.293 144.572 173.045 137.078 172.501 131.722C172.37 130.885 172.108 129.21 171.968 128.375C171.611 126.735 171.213 125.012 170.886 123.344C169.893 118.821 169.702 113.892 171.353 109.5C172.978 105.077 176.712 101.546 181.15 100.168L181.221 100.434Z" fill="#8AA7F2"/>
<path d="M181.222 100.433C172.693 103.143 164.219 110.097 164.131 119.684C163.999 124.33 165.98 128.681 166.447 133.365C167.358 140.927 164.925 149.667 157.677 153.359L156.793 151.244C162.261 148.583 164.828 142.274 164.928 136.422C164.92 134.916 164.859 133.073 164.625 131.571C164.129 127.729 162.676 123.681 162.97 119.636C163.239 112.686 167.893 106.696 173.777 103.362C176.094 101.997 178.551 100.907 181.141 100.171L181.213 100.436L181.222 100.433Z" fill="#8AA7F2"/>
<path d="M42.2284 78.3921C34.76 78.6935 27.3309 79.3816 19.8052 79.4143C16.0539 79.4104 12.2181 79.3084 8.43136 78.022C-1.62319 74.6578 0.918313 63.3874 8.15579 58.3643C17.4002 51.5562 29.0583 49.5026 40.1776 48.3034L40.2216 48.9493C29.2805 49.5263 17.8385 52.6555 9.4829 59.9352C5.77621 63.251 2.60738 68.5548 5.40575 73.0495C8.64983 77.2284 14.7902 77.6275 19.8698 78.2677C27.2948 78.8519 34.7923 78.4057 42.1964 77.7323L42.2405 78.3783L42.2284 78.3921Z" fill="#B861B3"/>
<path d="M42.2284 78.3918C39.4637 78.5803 36.7111 78.7549 33.9384 78.8271C28.3136 78.7562 22.115 79.7887 17.3826 75.6724C12.9356 71.1732 14.2265 63.4535 17.8357 58.8984C23.1506 52.1374 31.8873 49.1148 40.1785 48.316L40.2225 48.962C34.8 49.3835 29.2826 50.8888 24.9704 54.2717C18.901 58.7219 14.3782 67.5835 19.0031 74.1213C24.9144 79.7277 34.6496 78.0258 42.1844 77.7459L42.2284 78.3918Z" fill="#B861B3"/>
<path d="M42.2293 78.3919C38.5171 78.5801 34.2358 78.9887 31.0736 76.5824C25.3012 71.1093 26.8171 60.5967 30.91 54.5679C33.0863 51.4603 36.226 48.5856 40.1784 48.3032L40.2224 48.9492C36.5258 49.1752 33.453 51.8896 31.9902 55.1822C29.7157 60.0876 28.6159 71.1819 31.9448 75.6535C34.3961 78.4846 38.7564 77.9018 42.1844 77.7331L42.2284 78.379L42.2293 78.3919Z" fill="#B861B3"/>
<path d="M41.8842 78.0911C41.9104 73.1442 40.2202 68.3403 39.9252 63.4413C39.6734 58.6043 40.5203 53.5106 39.8782 48.6612L40.5242 48.6172C40.648 50.8152 40.8403 53.8263 41.3362 55.96C42.4339 60.8302 42.9347 65.7022 42.3391 70.6749C42.0672 73.1595 42.3895 75.6036 42.531 78.06L41.885 78.104L41.8842 78.0911Z" fill="#B861B3"/>
<path d="M42.1848 77.7459C45.6049 77.4609 50.0021 77.4207 52.0337 74.2841C54.738 69.4013 52.1456 58.5976 49.2119 54.0212C47.3166 50.9705 43.9272 48.6576 40.222 48.9491L40.178 48.3031C42.1159 48.171 44.0599 48.7004 45.7211 49.6515C53.7406 53.8163 59.0454 67.4723 53.0487 75.0845C50.2431 77.9105 45.9313 78.0616 42.2279 78.3789L42.1839 77.733L42.1848 77.7459Z" fill="#B861B3"/>
<path d="M42.1847 77.7462C49.7266 76.9985 59.5363 77.3422 64.6598 71.0096C68.3678 63.9039 62.6465 55.7535 56.044 52.193C51.3016 49.4531 45.6506 48.6183 40.2237 48.9752L40.1797 48.3292C48.5146 47.9818 57.5891 49.7255 63.7637 55.7682C71.0033 63.1531 70.1148 74.4926 58.8064 76.5354C53.3143 77.6495 47.7943 77.9738 42.2426 78.4042L42.1985 77.7582L42.1847 77.7462Z" fill="#B861B3"/>
<path d="M42.1844 77.7462C51.152 77.161 73.225 76.3314 77.9865 68.1155C80.2266 63.2773 76.1105 58.3013 72.1435 55.7033C62.8586 49.7298 51.1415 48.0623 40.2096 48.9632L40.1655 48.3173C51.3826 47.981 63.2036 48.3175 73.2795 53.8996C81.0946 57.9227 85.1419 68.744 75.6644 73.4654C72.0873 75.2538 68.3025 75.9011 64.5865 76.414C57.1269 77.4157 49.6669 77.6516 42.2284 78.3922L42.1844 77.7462Z" fill="#B861B3"/>
<path d="M18.397 79.1209C20.161 81.96 21.0183 85.5876 20.1403 88.8923C19.4597 91.6643 19.0946 94.1163 20.2303 96.6866L20.6575 97.8127C21.2972 99.3914 21.6722 101.274 21.3527 103.061C21.0599 104.859 20.3428 106.335 19.9367 107.804C19.0737 110.757 19.616 113.952 20.475 117.034L19.8672 117.257C18.4673 114.238 17.6086 110.779 18.353 107.419C19.1347 104.224 20.3315 101.599 18.8488 98.507C18.2695 97.0539 17.6036 95.2822 17.5855 93.4923C17.5535 91.6904 18.06 89.9815 18.5031 88.4847C19.5262 85.4038 18.9419 82.3546 17.7928 79.3958L18.3703 79.1098L18.397 79.1209Z" fill="#B861B3"/>
<path d="M30.4551 78.3638C31.5957 81.3881 32.1606 84.7242 31.9147 87.9727C31.6155 91.199 31.717 94.0215 32.5667 97.1565C33.4422 100.29 32.9573 103.84 32.4408 106.925C32.0655 109.988 32.3828 113.12 32.7923 116.272L32.1655 116.406C30.5739 111.907 30.6635 106.748 31.1889 102.079C31.3358 98.9017 29.992 95.9432 29.9019 92.7175C29.84 91.0474 30.0373 89.3727 30.2435 87.8271C30.7083 84.7453 30.3945 81.6646 29.8179 78.537L30.4422 78.3647L30.4551 78.3638Z" fill="#B861B3"/>
<path d="M42.4999 77.6081C43.8644 86.964 44.5557 96.5344 44.9263 105.971C45.0378 109.13 45.1235 112.291 45.0809 115.474L44.4349 115.518C43.9617 112.384 43.6176 109.24 43.2985 106.082C42.5065 98.2705 42.026 90.2692 41.8533 82.4026C41.8492 80.8194 41.8064 79.2389 41.854 77.6521L42.4999 77.6081Z" fill="#B861B3"/>
<path d="M54.5314 76.8529C53.9851 81.978 55.5838 86.0093 56.3714 90.9007C56.7199 94.1088 55.7891 97.2094 56.3665 100.35C57.5345 104.917 58.3224 110.003 57.3431 114.677L56.7039 114.63C56.899 109.685 55.8649 105.368 54.5323 100.67C53.8092 97.4871 54.7535 94.2039 54.4879 91.068C53.8417 86.3487 52.5297 81.571 53.8766 76.7677L54.5184 76.8538L54.5314 76.8529Z" fill="#B861B3"/>
<path d="M66.5632 76.0842C65.8271 79.1844 65.6611 82.2718 67.0927 85.1854C67.7348 86.6083 68.4685 88.2326 68.6814 90.0222C68.9192 91.7971 68.499 93.6299 68.1102 95.162C67.0607 98.4264 68.6036 100.878 69.8106 103.924C71.0032 107.139 70.6226 110.696 69.6454 113.877L69.0129 113.739C69.4449 110.555 69.5486 107.316 68.2938 104.52C67.7042 103.107 66.7935 101.741 66.2474 100.013C65.3589 97.4521 66.2372 94.9132 66.7176 92.4404C67.1276 90.0762 66.4106 88.1263 65.526 85.8114C64.2215 82.6685 64.5657 78.9589 65.9273 75.8939L66.5383 76.0988L66.5632 76.0842Z" fill="#B861B3"/>
</svg>
