<svg width="40" height="40" viewBox="0 0 40 40" fill="none" xmlns="http://www.w3.org/2000/svg">
<path d="M39.9972 20.0007C39.9972 30.1019 32.5098 38.4529 22.7831 39.808C21.8736 39.9341 20.9431 40 19.9986 40C18.9083 40 17.8377 39.9131 16.7951 39.745C7.27298 38.2118 0 29.9548 0 20.0007C0 8.95491 8.95459 0 20 0C31.0454 0 40 8.95491 40 20.0007H39.9972Z" fill="#FACDF8" fill-opacity="0.1"/>
<path d="M12.0409 12L18.6044 20.7755L12 27.9106H13.4868L19.2695 21.6641L23.9413 27.9106H29L22.0676 18.6415L28.2152 12H26.7284L21.4034 17.753L17.1006 12H12.0419H12.0409ZM14.2267 13.0949H16.5502L26.8122 26.8157H24.4887L14.2267 13.0949Z" fill="white"/>
</svg>
