<svg width="210" height="800" viewBox="0 0 210 800" fill="none" xmlns="http://www.w3.org/2000/svg">
<mask id="mask0_248_3673" style="mask-type:alpha" maskUnits="userSpaceOnUse" x="0" y="0" width="210" height="800">
<rect width="210" height="800" fill="#FFE9E0"/>
</mask>
<g mask="url(#mask0_248_3673)">
<path d="M334.861 -285.884C354.294 -236.812 353.189 -180.217 331.01 -132.547C325.312 -120.148 318.157 -108.212 309.961 -97.2355C303.271 -87.9674 295.456 -79.2643 287.538 -71.0225C268.264 -51.1748 248.832 -30.6899 230.867 -9.7403C210.191 14.9364 189.172 41.5844 181.943 73.297C179.148 84.477 178.375 95.9601 176.871 107.277C175.641 113.955 173.486 120.387 171.012 126.726C150.712 176.597 103.417 236.098 149.148 286.484C187.927 333.456 197.834 405.532 184.62 462.729C182.283 471.471 177.849 479.604 173.546 487.677C169.166 495.741 164.559 503.7 159.984 511.685C141.826 543.652 123.372 576.175 114.931 612.116C108.321 640.917 110.588 667.569 130.966 691.16C161.419 726.822 201.189 753.594 233.987 787.016C272.343 824.842 303.771 871.371 293.695 926.174C291.741 937.173 289.493 948.803 286.729 959.637C281.338 981.672 273.562 1003.39 260.269 1022.15C255.015 1029.73 249.242 1037.09 244.796 1045.22C238.015 1057.45 234.573 1071.12 232.406 1084.78C232.081 1087.06 231.712 1089.32 231.431 1091.61L230.636 1098.45C227.812 1123.02 238.758 1144.12 259.311 1159.15C282.081 1176.23 309.654 1185.6 334.31 1199.46C350.326 1208.46 367.208 1221.33 368.592 1240.44L368.925 1240.42C367.786 1221.07 350.869 1207.83 334.839 1198.59C310.34 1184.37 283.037 1174.83 260.515 1157.68C237.53 1140.12 229.403 1119.42 234.006 1091.95C236.13 1076.32 239.508 1060.49 247.319 1046.54C254.063 1034.52 263.522 1024.1 270.291 1012.05C284.171 987.874 290.692 960.529 295.819 933.516C314.13 854.269 251.358 794.895 194.69 746.766C169.869 724.621 131.419 696.359 119.083 666.106C101.552 616.841 138.13 555.313 161.584 512.549C166.095 504.534 170.65 496.536 174.981 488.411C179.235 480.267 183.642 472.075 185.989 463.062C197.549 410.815 190.582 349.628 162.259 302.836C159.3 297.931 155.785 293.023 152.297 288.447C150.349 286.063 147.609 282.717 145.725 280.275C133.993 265.757 129.416 246.897 131.97 228.88C136.864 192.274 159.494 161.315 173.404 127.633C176.867 119.073 179.726 110.057 180.494 100.839C181.95 85.0072 184.772 69.256 191.068 54.5774C197.27 39.9308 206.3 26.4305 215.847 13.6284C229.51 -4.43527 245.363 -22.3613 260.777 -39.028C273.116 -52.5159 286.626 -66.0021 298.946 -79.525C311.345 -93.4104 321.763 -108.951 330.025 -125.456C346.602 -158.45 352.867 -196.114 348.745 -232.668C347.219 -246.359 344.405 -259.946 340.082 -273.095C338.629 -277.476 337.058 -281.816 335.154 -286.045L334.843 -285.919L334.839 -285.886L334.861 -285.884Z" fill="#FDDBCD"/>
<path d="M348.077 -286.217C367.51 -237.145 366.406 -180.55 344.226 -132.88C338.528 -120.481 331.374 -108.545 323.177 -97.5688C316.487 -88.3007 308.672 -79.5976 300.754 -71.3557C281.48 -51.5081 262.048 -31.0232 244.083 -10.0736C223.408 14.6031 202.388 41.2511 195.159 72.9637C192.364 84.1437 191.591 95.6269 190.087 106.944C188.857 113.621 186.702 120.054 184.228 126.393C163.928 176.264 116.633 235.765 162.364 286.151C201.143 333.123 211.05 405.198 197.836 462.396C195.499 471.137 191.065 479.271 186.763 487.344C182.382 495.407 177.775 503.366 173.2 511.351C155.042 543.319 136.588 575.841 128.147 611.782C121.537 640.583 123.804 667.235 144.182 690.826C174.635 726.489 214.405 753.26 247.203 786.683C285.559 824.509 316.987 871.037 306.911 925.841C304.957 936.84 302.709 948.47 299.945 959.304C294.554 981.338 286.778 1003.06 273.485 1021.81C268.231 1029.4 262.458 1036.75 258.012 1044.89C251.231 1057.12 247.789 1070.79 245.622 1084.44C245.297 1086.72 244.928 1088.99 244.647 1091.27L243.852 1098.11C241.028 1122.69 251.974 1143.78 272.527 1158.82C295.297 1175.89 322.871 1185.27 347.526 1199.13C363.542 1208.12 380.424 1221 381.808 1240.11L382.141 1240.09C381.002 1220.74 364.085 1207.5 348.055 1198.25C323.556 1184.04 296.253 1174.5 273.732 1157.34C250.746 1139.79 242.619 1119.08 247.222 1091.61C249.347 1075.98 252.724 1060.16 260.536 1046.2C267.279 1034.18 276.738 1023.77 283.508 1011.72C297.387 987.541 303.908 960.196 309.035 933.182C327.346 853.936 264.574 794.562 207.906 746.432C183.085 724.287 144.635 696.025 132.3 665.773C114.768 616.508 151.346 554.979 174.8 512.215C179.311 504.201 183.866 496.202 188.197 488.078C192.451 479.934 196.858 471.742 199.205 462.728C210.765 410.482 203.799 349.295 175.475 302.502C172.517 297.597 169.001 292.69 165.513 288.114C163.565 285.73 160.825 282.384 158.941 279.942C147.209 265.423 142.632 246.564 145.186 228.547C150.081 191.941 172.711 160.982 186.62 127.299C190.083 118.74 192.942 109.724 193.71 100.505C195.166 84.6739 197.988 68.9228 204.284 54.2441C210.486 39.5975 219.516 26.0972 229.063 13.2952C242.726 -4.76852 258.579 -22.6945 273.993 -39.3613C286.332 -52.8491 299.842 -66.3353 312.162 -79.8583C324.561 -93.7436 334.979 -109.284 343.241 -125.79C359.819 -158.783 366.083 -196.447 361.961 -233.001C360.435 -246.693 357.621 -260.28 353.298 -273.428C351.845 -277.809 350.274 -282.15 348.37 -286.378L348.059 -286.252L348.055 -286.22L348.077 -286.217Z" fill="#FDDBCD"/>
<path d="M361.304 -286.552C380.736 -237.481 379.632 -180.886 357.452 -133.216C351.754 -120.816 344.6 -108.88 336.404 -97.9042C329.714 -88.6361 321.899 -79.9329 313.981 -71.6911C294.707 -51.8434 275.275 -31.3586 257.31 -10.409C236.634 14.2678 215.615 40.9158 208.386 72.6283C205.591 83.8084 204.817 95.2915 203.314 106.608C202.084 113.286 199.929 119.719 197.455 126.057C177.155 175.928 129.86 235.429 175.591 285.816C214.37 332.788 224.276 404.863 211.062 462.061C208.726 470.802 204.291 478.935 199.989 487.009C195.609 495.072 191.002 503.031 186.427 511.016C168.269 542.984 149.815 575.506 141.373 611.447C134.764 640.248 137.031 666.9 157.408 690.491C187.862 726.153 227.632 752.925 260.43 786.348C298.786 824.174 330.213 870.702 320.137 925.506C318.183 936.505 315.936 948.135 313.172 958.969C307.781 981.003 300.005 1002.72 286.712 1021.48C281.458 1029.06 275.685 1036.42 271.239 1044.55C264.458 1056.78 261.016 1070.46 258.849 1084.11C258.524 1086.39 258.155 1088.65 257.874 1090.94L257.079 1097.78C254.255 1122.35 265.201 1143.45 285.754 1158.48C308.524 1175.56 336.097 1184.93 360.753 1198.79C376.769 1207.79 393.651 1220.66 395.035 1239.77L395.368 1239.75C394.229 1220.4 377.312 1207.16 361.281 1197.92C336.783 1183.7 309.48 1174.17 286.958 1157.01C263.973 1139.46 255.846 1118.75 260.449 1091.28C262.573 1075.65 265.95 1059.82 273.762 1045.87C280.506 1033.85 289.964 1023.43 296.734 1011.38C310.613 987.206 317.135 959.86 322.262 932.847C340.573 853.601 277.801 794.227 221.133 746.097C196.311 723.952 157.862 695.69 145.526 665.437C127.995 616.173 164.573 554.644 188.027 511.88C192.538 503.865 197.092 495.867 201.424 487.743C205.677 479.598 210.085 471.407 212.432 462.393C223.992 410.146 217.025 348.96 188.702 302.167C185.743 297.262 182.228 292.354 178.74 287.778C176.792 285.394 174.052 282.048 172.167 279.606C160.436 265.088 155.859 246.228 158.413 228.212C163.307 191.605 185.937 160.647 199.846 126.964C203.31 118.405 206.169 109.388 206.937 100.17C208.393 84.3385 211.215 68.5874 217.511 53.9087C223.713 39.2621 232.743 25.7618 242.29 12.9598C255.953 -5.10391 271.806 -23.0299 287.22 -39.6967C299.558 -53.1845 313.069 -66.6707 325.389 -80.1937C337.788 -94.079 348.206 -109.619 356.468 -126.125C373.045 -159.119 379.31 -196.782 375.188 -233.336C373.661 -247.028 370.848 -260.615 366.525 -273.764C365.072 -278.144 363.501 -282.485 361.597 -286.713L361.286 -286.587L361.282 -286.555L361.304 -286.552Z" fill="#FDDBCD"/>
<path d="M374.531 -286.887C393.963 -237.815 392.859 -181.22 370.679 -133.55C364.981 -121.151 357.827 -109.215 349.63 -98.2386C342.941 -88.9705 335.126 -80.2673 327.208 -72.0255C307.934 -52.1779 288.501 -31.693 270.536 -10.7434C249.861 13.9333 228.841 40.5814 221.613 72.2939C218.818 83.474 218.044 94.9571 216.54 106.274C215.311 112.952 213.156 119.384 210.682 125.723C190.382 175.594 143.087 235.095 188.818 285.481C227.597 332.453 237.503 404.529 224.289 461.726C221.953 470.468 217.518 478.601 213.216 486.674C208.836 494.738 204.229 502.697 199.665 510.683C181.507 542.651 163.053 575.173 154.611 611.114C148.002 639.915 150.269 666.567 170.646 690.158C201.1 725.82 240.87 752.592 273.668 786.015C312.024 823.841 343.451 870.369 333.375 925.172C331.421 936.171 329.174 947.802 326.41 958.635C321.018 980.67 313.243 1002.39 299.95 1021.14C294.696 1028.73 288.923 1036.08 284.477 1044.22C277.696 1056.45 274.253 1070.12 272.087 1083.78C271.762 1086.06 271.393 1088.32 271.112 1090.61L270.317 1097.45C267.493 1122.02 278.439 1143.11 298.992 1158.15C321.762 1175.23 349.335 1184.6 373.991 1198.46C390.007 1207.45 406.889 1220.33 408.273 1239.44L408.606 1239.42C407.467 1220.07 390.55 1206.83 374.519 1197.58C350.021 1183.37 322.718 1173.83 300.196 1156.68C277.211 1139.12 269.084 1118.42 273.687 1090.94C275.811 1075.31 279.188 1059.49 287 1045.53C293.744 1033.51 303.202 1023.1 309.972 1011.05C323.851 986.873 330.373 959.527 335.5 932.514C353.811 853.268 291.039 793.893 234.371 745.764C209.549 723.619 171.111 695.358 158.764 665.104C141.244 615.841 177.811 554.311 201.265 511.547C205.776 503.532 210.33 495.534 214.661 487.41C218.915 479.265 223.323 471.074 225.67 462.06C237.229 409.813 230.263 348.627 201.94 301.834C198.981 296.929 195.466 292.021 191.978 287.445C190.03 285.061 187.29 281.715 185.405 279.273C173.674 264.755 169.097 245.895 171.651 227.879C176.545 191.272 199.175 160.313 213.084 126.631C216.548 118.072 219.407 109.055 220.175 99.8369C221.631 84.0055 224.453 68.2544 230.749 53.5757C236.951 38.9291 245.98 25.4288 255.528 12.6267C269.191 -5.43695 285.044 -23.363 300.458 -40.0297C312.796 -53.5176 326.307 -67.0038 338.627 -80.5267C351.026 -94.4121 361.444 -109.952 369.706 -126.458C386.283 -159.452 392.548 -197.115 388.426 -233.669C386.899 -247.361 384.086 -260.948 379.763 -274.097C378.31 -278.478 376.739 -282.818 374.835 -287.046L374.524 -286.92L374.52 -286.888L374.531 -286.887Z" fill="#FDDBCD"/>
<path d="M387.758 -287.219C407.19 -238.148 406.086 -181.553 383.906 -133.883C378.208 -121.483 371.054 -109.547 362.857 -98.571C356.167 -89.3029 348.352 -80.5998 340.435 -72.358C321.16 -52.5103 301.728 -32.0255 283.763 -11.0758C263.088 13.6009 242.068 40.2489 234.84 71.9615C232.044 83.1415 231.271 94.6246 229.767 105.941C228.538 112.619 226.382 119.052 223.909 125.391C203.609 175.261 156.313 234.762 202.045 285.149C240.824 332.121 250.73 404.196 237.516 461.394C235.179 470.135 230.745 478.269 226.443 486.342C222.062 494.405 217.456 502.364 212.891 510.35C194.733 542.318 176.28 574.841 167.838 610.781C161.229 639.583 163.496 666.235 183.873 689.825C214.326 725.488 254.096 752.26 286.895 785.682C325.25 823.508 356.678 870.036 346.602 924.84C344.648 935.839 342.401 947.469 339.636 958.303C334.245 980.337 326.47 1002.06 313.177 1020.81C307.922 1028.4 302.15 1035.75 297.704 1043.88C290.923 1056.12 287.48 1069.79 285.314 1083.44C284.988 1085.72 284.619 1087.99 284.339 1090.27L283.544 1097.11C280.719 1121.68 291.665 1142.78 312.218 1157.82C334.989 1174.89 362.562 1184.27 387.218 1198.13C403.234 1207.12 420.116 1220 421.5 1239.11L421.833 1239.08C420.694 1219.74 403.777 1206.5 387.746 1197.25C363.248 1183.04 335.945 1173.5 313.423 1156.34C290.438 1138.79 282.311 1118.08 286.914 1090.61C289.038 1074.98 292.415 1059.16 300.227 1045.2C306.97 1033.18 316.429 1022.77 323.199 1010.72C337.078 986.54 343.6 959.195 348.726 932.182C367.038 852.935 304.265 793.561 247.597 745.432C222.776 723.286 184.338 695.026 171.991 664.772C154.471 615.509 191.037 553.979 214.492 511.214C219.003 503.2 223.557 495.202 227.888 487.077C232.142 478.933 236.55 470.741 238.897 461.728C250.456 409.481 243.49 348.294 215.166 301.501C212.208 296.596 208.693 291.689 205.205 287.113C203.257 284.729 200.517 281.383 198.632 278.941C186.901 264.422 182.323 245.563 184.878 227.546C189.772 190.94 212.402 159.981 226.311 126.298C229.774 117.739 232.634 108.723 233.402 99.5045C234.857 83.673 237.679 67.9219 243.976 53.2432C250.177 38.5966 259.207 25.0963 268.754 12.2943C282.417 -5.76941 298.27 -23.6954 313.684 -40.3622C326.023 -53.85 339.534 -67.3362 351.854 -80.8592C364.253 -94.7445 374.671 -110.285 382.932 -126.791C399.51 -159.784 405.774 -197.448 401.653 -234.002C400.126 -247.693 397.313 -261.28 392.99 -274.429C391.537 -278.81 389.966 -283.151 388.062 -287.379L387.751 -287.253L387.747 -287.22L387.758 -287.219Z" fill="#FDDBCD"/>
<path d="M400.984 -287.551C420.417 -238.479 419.312 -181.884 397.133 -134.214C391.435 -121.815 384.28 -109.879 376.084 -98.9025C369.394 -89.6344 361.579 -80.9313 353.661 -72.6895C334.387 -52.8418 314.955 -32.3569 296.99 -11.4073C276.314 13.2694 255.295 39.9174 248.066 71.63C245.271 82.81 244.498 94.2932 242.994 105.61C241.764 112.288 239.609 118.72 237.135 125.059C216.835 174.93 169.54 234.431 215.271 284.817C254.05 331.789 263.957 403.865 250.743 461.062C248.406 469.804 243.972 477.937 239.67 486.01C235.289 494.074 230.682 502.033 226.107 510.018C207.949 541.985 189.495 574.508 181.054 610.449C174.444 639.25 176.711 665.902 197.089 689.493C227.542 725.155 267.312 751.927 300.11 785.349C338.466 823.175 369.894 869.704 359.818 924.507C357.864 935.506 355.616 947.136 352.852 957.97C347.461 980.005 339.685 1001.72 326.392 1020.48C321.138 1028.06 315.365 1035.42 310.919 1043.55C304.138 1055.78 300.696 1069.46 298.529 1083.11C298.204 1085.39 297.835 1087.65 297.554 1089.94L296.759 1096.78C293.935 1121.35 304.881 1142.45 325.434 1157.48C348.204 1174.56 375.777 1183.93 400.433 1197.8C416.449 1206.79 433.331 1219.66 434.715 1238.78L435.048 1238.75C433.909 1219.41 416.992 1206.17 400.962 1196.92C376.463 1182.7 349.16 1173.17 326.639 1156.01C303.653 1138.46 295.526 1117.75 300.129 1090.28C302.254 1074.65 305.631 1058.82 313.442 1044.87C320.186 1032.85 329.645 1022.43 336.415 1010.38C350.294 986.207 356.815 958.862 361.942 931.849C380.253 852.602 317.481 793.228 260.813 745.099C235.992 722.954 197.553 694.693 185.206 664.439C167.686 615.176 204.253 553.646 227.707 510.882C232.218 502.867 236.773 494.869 241.104 486.744C245.358 478.6 249.765 470.408 252.112 461.395C263.672 409.148 256.705 347.961 228.382 301.169C225.423 296.264 221.908 291.356 218.42 286.78C216.472 284.396 213.732 281.05 211.848 278.608C200.116 264.09 195.539 245.23 198.093 227.213C202.988 190.607 225.618 159.648 239.527 125.966C242.99 117.406 245.849 108.39 246.617 99.1716C248.073 83.3402 250.895 67.5891 257.191 52.9104C263.393 38.2638 272.423 24.7635 281.97 11.9614C295.633 -6.10226 311.486 -24.0283 326.9 -40.695C339.239 -54.1829 352.749 -67.6691 365.069 -81.192C377.468 -95.0774 387.886 -110.618 396.148 -127.123C412.725 -160.117 418.99 -197.781 414.868 -234.335C413.342 -248.026 410.528 -261.613 406.205 -274.762C404.752 -279.143 403.181 -283.483 401.277 -287.712L400.966 -287.586L400.962 -287.553L400.984 -287.551Z" fill="#FDDBCD"/>
<path d="M414.201 -287.884C433.633 -238.812 432.529 -182.217 410.349 -134.547C404.651 -122.148 397.497 -110.212 389.3 -99.2358C382.61 -89.9677 374.795 -81.2646 366.878 -73.0227C347.603 -53.1751 328.171 -32.6902 310.206 -11.7406C289.531 12.9362 268.511 39.5841 261.283 71.2967C258.487 82.4767 257.714 93.9599 256.21 105.277C254.98 111.954 252.825 118.387 250.352 124.726C230.051 174.597 182.756 234.098 228.488 284.484C267.267 331.456 277.173 403.531 263.959 460.729C261.622 469.47 257.188 477.604 252.886 485.677C248.505 493.74 243.899 501.699 239.323 509.684C221.165 541.652 202.712 574.174 194.27 610.115C187.661 638.916 189.927 665.568 210.305 689.159C240.758 724.822 280.528 751.593 313.327 785.016C351.682 822.842 383.11 869.37 373.034 924.174C371.08 935.173 368.832 946.803 366.068 957.637C360.677 979.671 352.901 1001.39 339.608 1020.15C334.354 1027.73 328.582 1035.09 324.136 1043.22C317.355 1055.45 313.912 1069.12 311.746 1082.78C311.42 1085.06 311.051 1087.32 310.77 1089.61L309.976 1096.45C307.151 1121.02 318.097 1142.12 338.65 1157.15C361.421 1174.23 388.994 1183.6 413.649 1197.46C429.666 1206.46 446.548 1219.33 447.931 1238.44L448.264 1238.42C447.125 1219.07 430.209 1205.83 414.178 1196.59C389.679 1182.37 362.377 1172.83 339.855 1155.68C316.87 1138.12 308.742 1117.42 313.345 1089.95C315.47 1074.32 318.847 1058.49 326.659 1044.53C333.402 1032.52 342.861 1022.1 349.631 1010.05C363.51 985.874 370.031 958.529 375.158 931.515C393.469 852.269 330.697 792.895 274.029 744.765C249.208 722.62 210.758 694.358 198.423 664.106C180.891 614.841 217.469 553.312 240.923 510.548C245.434 502.534 249.989 494.535 254.32 486.411C258.574 478.267 262.982 470.075 265.329 461.061C276.888 408.815 269.922 347.628 241.598 300.835C238.64 295.93 235.124 291.023 231.637 286.447C229.688 284.063 226.948 280.717 225.064 278.275C213.332 263.756 208.755 244.897 211.309 226.88C216.204 190.274 238.834 159.315 252.743 125.632C256.206 117.073 259.065 108.057 259.834 98.8383C261.289 83.0069 264.111 67.2558 270.408 52.5771C276.609 37.9305 285.639 24.4302 295.186 11.6282C308.849 -6.43552 324.702 -24.3615 340.116 -41.0283C352.455 -54.5161 365.965 -68.0023 378.286 -81.5253C390.685 -95.4106 401.103 -110.951 409.364 -127.457C425.942 -160.45 432.206 -198.114 428.084 -234.668C426.558 -248.36 423.745 -261.947 419.421 -275.095C417.969 -279.476 416.397 -283.817 414.494 -288.045L414.182 -287.919L414.178 -287.887L414.201 -287.884Z" fill="#FDDBCD"/>
<path d="M427.427 -288.218C446.859 -239.147 445.755 -182.552 423.575 -134.882C417.877 -122.483 410.723 -110.547 402.526 -99.5704C395.836 -90.3023 388.021 -81.5992 380.104 -73.3573C360.829 -53.5097 341.397 -33.0248 323.432 -12.0752C302.757 12.6015 281.737 39.2495 274.508 70.9621C271.713 82.1421 270.94 93.6252 269.436 104.942C268.206 111.62 266.051 118.052 263.577 124.391C243.277 174.262 195.982 233.763 241.713 284.15C280.493 331.121 290.399 403.197 277.185 460.394C274.848 469.136 270.414 477.269 266.112 485.342C261.731 493.406 257.125 501.365 252.549 509.35C234.391 541.318 215.937 573.84 207.496 609.781C200.887 638.582 203.153 665.234 223.531 688.825C253.984 724.487 293.754 751.259 326.552 784.681C364.908 822.507 396.336 869.036 386.26 923.839C384.306 934.838 382.058 946.469 379.294 957.302C373.903 979.337 366.127 1001.06 352.834 1019.81C347.58 1027.4 341.807 1034.75 337.362 1042.88C330.58 1055.12 327.138 1068.79 324.972 1082.44C324.646 1084.72 324.277 1086.99 323.996 1089.27L323.201 1096.11C320.377 1120.68 331.323 1141.78 351.876 1156.81C374.646 1173.89 402.22 1183.27 426.875 1197.13C442.892 1206.12 459.773 1219 461.157 1238.11L461.49 1238.08C460.351 1218.74 443.434 1205.5 427.404 1196.25C402.905 1182.04 375.602 1172.5 353.081 1155.34C330.096 1137.79 321.968 1117.08 326.571 1089.61C328.696 1073.98 332.073 1058.16 339.885 1044.2C346.628 1032.18 356.087 1021.76 362.857 1009.72C376.736 985.539 383.257 958.194 388.384 931.181C406.695 851.934 343.923 792.56 287.255 744.431C262.434 722.286 223.986 694.013 211.649 663.771C194.117 614.507 230.695 552.978 254.149 510.214C258.66 502.199 263.215 494.201 267.546 486.077C271.8 477.932 276.207 469.74 278.554 460.727C290.114 408.48 283.148 347.294 254.824 300.501C251.866 295.596 248.35 290.688 244.862 286.112C242.914 283.728 240.174 280.382 238.29 277.94C226.558 263.422 221.981 244.562 224.535 226.546C229.43 189.939 252.06 158.98 265.969 125.298C269.432 116.739 272.291 107.722 273.059 98.5037C274.515 82.6723 277.337 66.9211 283.633 52.2425C289.835 37.5959 298.865 24.0956 308.412 11.2935C322.075 -6.77017 337.928 -24.6962 353.342 -41.3629C365.681 -54.8508 379.191 -68.337 391.511 -81.8599C403.91 -95.7453 414.329 -111.286 422.59 -127.791C439.168 -160.785 445.432 -198.449 441.31 -235.003C439.784 -248.694 436.97 -262.281 432.647 -275.43C431.194 -279.811 429.623 -284.151 427.719 -288.379L427.408 -288.254L427.404 -288.221L427.427 -288.218Z" fill="#FDDBCD"/>
<path d="M440.653 -288.554C460.085 -239.482 458.981 -182.887 436.801 -135.217C431.103 -122.818 423.949 -110.882 415.753 -99.9056C409.063 -90.6375 401.248 -81.9343 393.33 -73.6925C374.056 -53.8448 354.624 -33.36 336.659 -12.4103C315.983 12.2664 294.964 38.9144 287.735 70.6269C284.94 81.807 284.167 93.2901 282.663 104.607C281.433 111.285 279.278 117.717 276.804 124.056C256.504 173.927 209.209 233.428 254.94 283.814C293.719 330.786 303.625 402.862 290.411 460.059C288.075 468.801 283.64 476.934 279.338 485.007C274.958 493.071 270.351 501.03 265.787 509.016C247.629 540.984 229.175 573.506 220.734 609.447C214.124 638.248 216.391 664.9 236.769 688.491C267.222 724.153 306.992 750.925 339.79 784.348C378.146 822.174 409.574 868.702 399.498 923.505C397.544 934.504 395.296 946.135 392.532 956.969C387.141 979.003 379.365 1000.72 366.072 1019.48C360.818 1027.06 355.045 1034.42 350.599 1042.55C343.818 1054.78 340.376 1068.46 338.209 1082.11C337.884 1084.39 337.515 1086.65 337.234 1088.94L336.439 1095.78C333.615 1120.35 344.561 1141.45 365.114 1156.48C387.884 1173.56 415.458 1182.93 440.113 1196.79C456.129 1205.79 473.011 1218.66 474.395 1237.77L474.728 1237.75C473.589 1218.4 456.672 1205.16 440.642 1195.92C416.143 1181.7 388.84 1172.17 366.318 1155.01C343.333 1137.46 335.206 1116.75 339.809 1089.28C341.934 1073.65 345.311 1057.82 353.123 1043.87C359.866 1031.85 369.325 1021.43 376.095 1009.38C389.974 985.206 396.495 957.86 401.622 930.847C419.933 851.601 357.161 792.227 300.493 744.097C275.672 721.952 237.233 693.691 224.887 663.437C207.366 614.174 243.933 552.644 267.387 509.88C271.898 501.865 276.453 493.867 280.784 485.743C285.038 477.598 289.445 469.407 291.792 460.393C303.352 408.146 296.385 346.96 268.062 300.167C265.104 295.262 261.588 290.354 258.1 285.778C256.152 283.394 253.412 280.048 251.528 277.606C239.796 263.088 235.219 244.228 237.773 226.212C242.668 189.605 265.298 158.646 279.207 124.964C282.67 116.405 285.529 107.388 286.297 98.17C287.753 82.3385 290.575 66.5874 296.871 51.9087C303.073 37.2621 312.103 23.7618 321.65 10.9597C335.313 -7.10394 351.166 -25.03 366.58 -41.6967C378.919 -55.1845 392.429 -68.6707 404.749 -82.1937C417.148 -96.079 427.566 -111.619 435.828 -128.125C452.406 -161.119 458.67 -198.782 454.548 -235.336C453.022 -249.028 450.208 -262.615 445.885 -275.764C444.432 -280.144 442.861 -284.485 440.957 -288.713L440.646 -288.587L440.642 -288.555L440.653 -288.554Z" fill="#FDDBCD"/>
<path d="M453.88 -288.885C473.312 -239.814 472.208 -183.219 450.028 -135.549C444.33 -123.15 437.176 -111.214 428.98 -100.237C422.29 -90.9692 414.475 -82.266 406.557 -74.0242C387.283 -54.1765 367.85 -33.6917 349.885 -12.742C329.21 11.9347 308.19 38.5827 300.962 70.2952C298.167 81.4753 297.393 92.9584 295.89 104.275C294.66 110.953 292.505 117.385 290.031 123.724C269.731 173.595 222.436 233.096 268.167 283.483C306.946 330.455 316.852 402.53 303.638 459.728C301.302 468.469 296.867 476.602 292.565 484.675C288.185 492.739 283.578 500.698 279.014 508.684C260.856 540.652 242.402 573.174 233.96 609.115C227.351 637.916 229.618 664.568 249.996 688.159C280.449 723.822 320.219 750.593 353.017 784.016C391.373 821.842 422.8 868.37 412.724 923.174C410.77 934.173 408.523 945.803 405.759 956.637C400.368 978.671 392.592 1000.39 379.299 1019.15C374.045 1026.73 368.272 1034.09 363.826 1042.22C357.045 1054.45 353.603 1068.12 351.436 1081.78C351.111 1084.06 350.742 1086.32 350.461 1088.61L349.666 1095.45C346.842 1120.02 357.788 1141.12 378.341 1156.15C401.111 1173.23 428.684 1182.6 453.34 1196.46C469.356 1205.45 486.238 1218.33 487.622 1237.44L487.955 1237.42C486.816 1218.07 469.899 1204.83 453.868 1195.59C429.37 1181.37 402.067 1171.83 379.545 1154.68C356.56 1137.12 348.433 1116.42 353.036 1088.95C355.16 1073.32 358.538 1057.49 366.349 1043.53C373.093 1031.52 382.552 1021.1 389.321 1009.05C403.201 984.874 409.722 957.529 414.849 930.515C433.16 851.269 370.388 791.895 313.72 743.765C288.898 721.62 250.46 693.36 238.113 663.106C220.593 613.842 257.16 552.312 280.614 509.548C285.125 501.534 289.679 493.535 294.011 485.411C298.265 477.266 302.672 469.075 305.019 460.061C316.579 407.815 309.612 346.628 281.289 299.835C278.33 294.93 274.815 290.023 271.327 285.447C269.379 283.062 266.639 279.716 264.755 277.274C253.023 262.756 248.446 243.897 251 225.88C255.894 189.274 278.524 158.315 292.434 124.632C295.897 116.073 298.756 107.057 299.524 97.8383C300.98 82.0068 303.802 66.2557 310.098 51.577C316.3 36.9304 325.33 23.4301 334.877 10.6281C348.54 -7.43564 364.393 -25.3617 379.807 -42.0284C392.146 -55.5162 405.656 -69.0024 417.976 -82.5254C430.375 -96.4108 440.793 -111.951 449.055 -128.457C465.632 -161.45 471.897 -199.114 467.775 -235.668C466.249 -249.36 463.435 -262.947 459.112 -276.095C457.659 -280.476 456.088 -284.817 454.184 -289.045L453.873 -288.919L453.869 -288.887L453.88 -288.885Z" fill="#FDDBCD"/>
<path d="M467.107 -289.217C486.539 -240.146 485.435 -183.551 463.255 -135.881C457.557 -123.482 450.403 -111.546 442.206 -100.569C435.517 -91.3012 427.702 -82.5981 419.784 -74.3562C400.51 -54.5086 381.077 -34.0237 363.112 -13.0741C342.437 11.6026 321.417 38.2506 314.189 69.9632C311.394 81.1432 310.62 92.6263 309.116 103.943C307.887 110.621 305.731 117.053 303.258 123.392C282.958 173.263 235.663 232.764 281.394 283.151C320.173 330.122 330.079 402.198 316.865 459.396C314.529 468.137 310.094 476.27 305.792 484.343C301.412 492.407 296.805 500.366 292.241 508.352C274.083 540.32 255.629 572.842 247.187 608.783C240.578 637.584 242.845 664.236 263.222 687.827C293.676 723.49 333.446 750.261 366.244 783.684C404.6 821.51 436.027 868.038 425.951 922.842C423.997 933.841 421.75 945.471 418.986 956.305C413.594 978.339 405.819 1000.06 392.526 1018.81C387.272 1026.4 381.499 1033.75 377.053 1041.89C370.272 1054.12 366.829 1067.79 364.663 1081.45C364.338 1083.73 363.969 1085.99 363.688 1088.27L362.893 1095.12C360.069 1119.69 371.015 1140.78 391.568 1155.82C414.338 1172.89 441.911 1182.27 466.567 1196.13C482.583 1205.12 499.465 1218 500.849 1237.11L501.182 1237.09C500.043 1217.74 483.126 1204.5 467.095 1195.25C442.597 1181.04 415.294 1171.5 392.772 1154.35C369.787 1136.79 361.66 1116.08 366.263 1088.61C368.387 1072.98 371.764 1057.16 379.576 1043.2C386.32 1031.18 395.778 1020.77 402.548 1008.72C416.427 984.542 422.949 957.197 428.076 930.183C446.387 850.937 383.615 791.563 326.947 743.433C302.125 721.288 263.687 693.028 251.34 662.774C233.82 613.51 270.387 551.98 293.841 509.216C298.352 501.202 302.906 493.203 307.237 485.079C311.491 476.934 315.899 468.743 318.246 459.729C329.805 407.483 322.839 346.296 294.515 299.503C291.557 294.598 288.042 289.691 284.554 285.115C282.606 282.73 279.866 279.384 277.981 276.942C266.25 262.424 261.673 243.564 264.227 225.548C269.121 188.942 291.751 157.983 305.66 124.3C309.123 115.741 311.983 106.725 312.751 97.5062C314.206 81.6748 317.029 65.9236 323.325 51.2449C329.527 36.5984 338.556 23.0981 348.104 10.296C361.767 -7.7677 377.62 -25.6937 393.034 -42.3604C405.372 -55.8483 418.883 -69.3345 431.203 -82.8574C443.602 -96.7428 454.02 -112.283 462.282 -128.789C478.859 -161.782 485.124 -199.446 481.002 -236C479.475 -249.692 476.662 -263.279 472.339 -276.428C470.886 -280.808 469.315 -285.149 467.411 -289.377L467.1 -289.251L467.096 -289.219L467.107 -289.217Z" fill="#FDDBCD"/>
<path d="M480.323 -289.548C499.755 -240.476 498.651 -183.882 476.471 -136.211C470.773 -123.812 463.619 -111.876 455.422 -100.9C448.733 -91.6317 440.918 -82.9286 433 -74.6868C413.726 -54.8391 394.293 -34.3542 376.328 -13.4046C355.653 11.2721 334.633 37.9201 327.405 69.6327C324.61 80.8127 323.836 92.2958 322.332 103.613C321.103 110.29 318.948 116.723 316.474 123.062C296.174 172.932 248.879 232.434 294.61 282.82C333.389 329.792 343.295 401.867 330.081 459.065C327.745 467.806 323.31 475.94 319.008 484.013C314.628 492.076 310.021 500.035 305.445 508.02C287.287 539.988 268.834 572.51 260.392 608.451C253.783 637.252 256.05 663.904 276.427 687.495C306.88 723.158 346.65 749.929 379.449 783.352C417.804 821.178 449.232 867.706 439.156 922.51C437.202 933.509 434.955 945.139 432.19 955.973C426.799 978.007 419.024 999.727 405.731 1018.48C400.476 1026.07 394.704 1033.42 390.258 1041.55C383.477 1053.79 380.034 1067.46 377.868 1081.11C377.542 1083.39 377.173 1085.66 376.893 1087.94L376.098 1094.78C373.273 1119.35 384.219 1140.45 404.772 1155.48C427.543 1172.56 455.116 1181.94 479.772 1195.8C495.788 1204.79 512.67 1217.67 514.054 1236.78L514.387 1236.75C513.248 1217.41 496.331 1204.17 480.3 1194.92C455.802 1180.71 428.499 1171.17 405.977 1154.01C382.992 1136.46 374.865 1115.75 379.468 1088.28C381.592 1072.65 384.969 1056.83 392.781 1042.87C399.524 1030.85 408.983 1020.44 415.753 1008.39C429.632 984.21 436.154 956.865 441.28 929.851C459.592 850.605 396.819 791.231 340.151 743.101C315.33 720.956 276.892 692.696 264.545 662.442C247.014 613.177 283.591 551.648 307.046 508.884C311.557 500.87 316.111 492.871 320.442 484.747C324.696 476.602 329.104 468.411 331.451 459.397C343.01 407.151 336.044 345.964 307.72 299.171C304.762 294.266 301.247 289.359 297.759 284.783C295.811 282.399 293.07 279.053 291.186 276.611C279.455 262.092 274.877 243.233 277.432 225.216C282.326 188.61 304.956 157.651 318.865 123.968C322.328 115.409 325.188 106.393 325.956 97.1743C327.411 81.3429 330.233 65.5917 336.53 50.9131C342.731 36.2665 351.761 22.7662 361.308 9.96411C374.971 -8.09958 390.824 -26.0256 406.238 -42.6923C418.577 -56.1802 432.088 -69.6664 444.408 -83.1893C456.807 -97.0747 467.225 -112.615 475.486 -129.121C492.064 -162.114 498.328 -199.778 494.207 -236.332C492.68 -250.024 489.867 -263.611 485.544 -276.759C484.091 -281.14 482.52 -285.481 480.616 -289.709L480.305 -289.583L480.301 -289.551L480.323 -289.548Z" fill="#FDDBCD"/>
<path d="M493.55 -289.882C512.982 -240.811 511.878 -184.216 489.698 -136.546C484 -124.147 476.846 -112.211 468.649 -101.234C461.959 -91.9663 454.144 -83.2632 446.227 -75.0213C426.952 -55.1737 407.52 -34.6888 389.555 -13.7392C368.88 10.9376 347.86 37.5855 340.632 69.2981C337.836 80.4781 337.063 91.9613 335.559 103.278C334.329 109.956 332.174 116.388 329.701 122.727C309.401 172.598 262.105 232.099 307.837 282.486C346.616 329.457 356.522 401.533 343.308 458.73C340.971 467.472 336.537 475.605 332.235 483.678C327.854 491.742 323.248 499.701 318.672 507.686C300.514 539.654 282.061 572.176 273.619 608.117C267.01 636.918 269.276 663.57 289.654 687.161C320.107 722.823 359.877 749.595 392.676 783.017C431.031 820.843 462.459 867.372 452.383 922.175C450.429 933.174 448.181 944.805 445.417 955.638C440.026 977.673 432.25 999.392 418.957 1018.15C413.703 1025.73 407.931 1033.09 403.485 1041.22C396.704 1053.45 393.261 1067.13 391.095 1080.78C390.769 1083.06 390.4 1085.32 390.119 1087.61L389.325 1094.45C386.5 1119.02 397.446 1140.12 417.999 1155.15C440.77 1172.23 468.343 1181.6 492.998 1195.46C509.015 1204.46 525.897 1217.33 527.28 1236.44L527.613 1236.42C526.474 1217.07 509.558 1203.83 493.527 1194.59C469.028 1180.37 441.726 1170.84 419.204 1153.68C396.219 1136.13 388.091 1115.42 392.694 1087.95C394.819 1072.32 398.196 1056.49 406.008 1042.54C412.751 1030.52 422.21 1020.1 428.98 1008.05C442.859 983.875 449.38 956.53 454.507 929.517C472.818 850.27 410.046 790.896 353.378 742.767C328.557 720.622 290.108 692.36 277.772 662.107C260.24 612.843 296.818 551.314 320.272 508.55C324.783 500.535 329.338 492.537 333.669 484.413C337.923 476.268 342.331 468.076 344.678 459.063C356.237 406.816 349.271 345.63 320.947 298.837C317.989 293.932 314.473 289.024 310.986 284.448C309.037 282.064 306.297 278.718 304.413 276.276C292.682 261.758 288.104 242.898 290.658 224.882C295.553 188.275 318.183 157.316 332.092 123.634C335.555 115.075 338.414 106.058 339.183 96.8398C340.638 81.0083 343.46 65.2572 349.757 50.5785C355.958 35.9319 364.988 22.4316 374.535 9.62955C388.198 -8.43414 404.051 -26.3602 419.465 -43.0269C431.804 -56.5147 445.314 -70.0009 457.635 -83.5239C470.034 -97.4092 480.452 -112.95 488.713 -129.455C505.291 -162.449 511.555 -200.113 507.433 -236.667C505.907 -250.358 503.094 -263.945 498.77 -277.094C497.318 -281.475 495.746 -285.815 493.843 -290.043L493.531 -289.918L493.527 -289.885L493.55 -289.882Z" fill="#FDDBCD"/>
<path d="M506.777 -290.217C526.209 -241.145 525.105 -184.55 502.925 -136.88C497.227 -124.481 490.073 -112.545 481.876 -101.569C475.186 -92.3005 467.371 -83.5974 459.454 -75.3556C440.179 -55.5079 420.747 -35.023 402.782 -14.0734C382.107 10.6033 361.087 37.2513 353.858 68.9638C351.063 80.1439 350.29 91.627 348.786 102.944C347.556 109.621 345.401 116.054 342.927 122.393C322.627 172.264 275.332 231.765 321.063 282.151C359.843 329.123 369.749 401.199 356.535 458.396C354.198 467.138 349.764 475.271 345.462 483.344C341.081 491.408 336.475 499.367 331.899 507.351C313.741 539.319 295.287 571.842 286.846 607.782C280.237 636.583 282.503 663.236 302.881 686.826C333.334 722.489 373.104 749.261 405.903 782.683C444.258 820.509 475.686 867.037 465.61 921.841C463.656 932.84 461.408 944.47 458.644 955.304C453.253 977.338 445.477 999.058 432.184 1017.81C426.93 1025.4 421.157 1032.75 416.712 1040.89C409.93 1053.12 406.488 1066.79 404.322 1080.45C403.996 1082.73 403.627 1084.99 403.346 1087.27L402.552 1094.11C399.727 1118.69 410.673 1139.78 431.226 1154.82C453.996 1171.89 481.57 1181.27 506.225 1195.13C522.242 1204.12 539.124 1217 540.507 1236.11L540.84 1236.09C539.701 1216.74 522.785 1203.5 506.754 1194.25C482.255 1180.04 454.952 1170.5 432.431 1153.34C409.446 1135.79 401.318 1115.08 405.921 1087.61C408.046 1071.98 411.423 1056.16 419.235 1042.2C425.978 1030.18 435.437 1019.77 442.207 1007.72C456.086 983.541 462.607 956.196 467.734 929.182C486.045 849.936 423.273 790.562 366.605 742.432C341.784 720.287 303.336 692.015 290.999 661.773C273.467 612.508 310.045 550.98 333.499 508.216C338.01 500.201 342.565 492.203 346.896 484.078C351.15 475.934 355.557 467.742 357.904 458.729C369.464 406.482 362.498 345.295 334.174 298.502C331.216 293.598 327.7 288.69 324.212 284.114C322.264 281.73 319.524 278.384 317.64 275.942C305.908 261.423 301.331 242.564 303.885 224.547C308.78 187.941 331.41 156.982 345.319 123.299C348.782 114.74 351.641 105.724 352.409 96.5055C353.865 80.6741 356.687 64.9229 362.983 50.2442C369.185 35.5977 378.215 22.0974 387.762 9.29529C401.425 -8.7684 417.278 -26.6944 432.692 -43.3611C445.031 -56.849 458.541 -70.3352 470.861 -83.8582C483.26 -97.7435 493.679 -113.284 501.94 -129.79C518.518 -162.783 524.782 -200.447 520.66 -237.001C519.134 -250.692 516.321 -264.279 511.997 -277.428C510.545 -281.809 508.973 -286.15 507.069 -290.378L506.758 -290.252L506.754 -290.219L506.777 -290.217Z" fill="#FDDBCD"/>
<path d="M520.002 -290.552C539.435 -241.48 538.33 -184.885 516.151 -137.215C510.453 -124.816 503.298 -112.88 495.102 -101.904C488.412 -92.6357 480.597 -83.9325 472.679 -75.6907C453.405 -55.843 433.973 -35.3582 416.008 -14.4086C395.332 10.2682 374.313 36.9162 367.084 68.6287C364.289 79.8088 363.516 91.2919 362.012 102.609C360.782 109.286 358.627 115.719 356.153 122.058C335.853 171.929 288.558 231.43 334.289 281.816C373.068 328.788 382.975 400.863 369.76 458.061C367.424 466.802 362.989 474.936 358.687 483.009C354.307 491.072 349.7 499.031 345.136 507.018C326.978 538.985 308.524 571.508 300.083 607.449C293.474 636.25 295.74 662.902 316.118 686.493C346.571 722.155 386.341 748.927 419.14 782.349C457.495 820.175 488.923 866.704 478.847 921.507C476.893 932.506 474.645 944.136 471.881 954.97C466.49 977.005 458.714 998.724 445.421 1017.48C440.167 1025.06 434.394 1032.42 429.949 1040.55C423.167 1052.79 419.725 1066.46 417.559 1080.11C417.233 1082.39 416.864 1084.66 416.583 1086.94L415.789 1093.78C412.964 1118.35 423.91 1139.45 444.463 1154.48C467.233 1171.56 494.807 1180.93 519.462 1194.8C535.479 1203.79 552.36 1216.66 553.744 1235.78L554.077 1235.75C552.938 1216.41 536.021 1203.17 519.991 1193.92C495.492 1179.7 468.189 1170.17 445.668 1153.01C422.683 1135.46 414.555 1114.75 419.158 1087.28C421.283 1071.65 424.66 1055.82 432.472 1041.87C439.215 1029.85 448.674 1019.43 455.444 1007.38C469.323 983.207 475.844 955.862 480.971 928.849C499.282 849.602 436.51 790.228 379.842 742.099C355.021 719.954 316.583 691.693 304.236 661.439C286.715 612.176 323.282 550.646 346.736 507.882C351.247 499.867 355.802 491.869 360.133 483.745C364.387 475.6 368.794 467.408 371.141 458.395C382.701 406.148 375.735 344.962 347.411 298.169C344.453 293.264 340.937 288.356 337.449 283.78C335.501 281.396 332.761 278.05 330.877 275.608C319.145 261.09 314.568 242.23 317.122 224.214C322.017 187.607 344.647 156.648 358.556 122.966C362.019 114.407 364.878 105.39 365.646 96.1717C367.102 80.3403 369.924 64.5892 376.22 49.9105C382.422 35.2639 391.452 21.7636 400.999 8.96155C414.662 -9.10214 430.515 -27.0282 445.929 -43.6949C458.268 -57.1828 471.778 -70.6689 484.099 -84.1919C496.497 -98.0773 506.916 -113.618 515.177 -130.123C531.755 -163.117 538.019 -200.781 533.897 -237.335C532.371 -251.026 529.557 -264.613 525.234 -277.762C523.782 -282.143 522.21 -286.483 520.306 -290.711L519.995 -290.586L519.991 -290.553L520.002 -290.552Z" fill="#FDDBCD"/>
<path d="M533.229 -290.884C552.661 -241.812 551.557 -185.217 529.377 -137.547C523.679 -125.148 516.525 -113.212 508.329 -102.236C501.639 -92.9674 493.824 -84.2643 485.906 -76.0224C466.632 -56.1748 447.199 -35.6899 429.234 -14.7403C408.559 9.93643 387.539 36.5844 380.311 68.297C377.516 79.477 376.742 90.9602 375.239 102.277C374.009 108.955 371.854 115.387 369.38 121.726C349.08 171.597 301.785 231.098 347.516 281.484C386.295 328.456 396.201 400.532 382.987 457.729C380.651 466.471 376.216 474.604 371.914 482.677C367.534 490.741 362.927 498.7 358.363 506.686C340.205 538.654 321.751 571.176 313.309 607.117C306.7 635.918 308.967 662.57 329.345 686.161C359.798 721.823 399.568 748.595 432.366 782.018C470.722 819.844 502.149 866.372 492.073 921.176C490.12 932.175 487.872 943.805 485.108 954.639C479.717 976.673 471.941 998.393 458.648 1017.15C453.394 1024.73 447.621 1032.09 443.175 1040.22C436.394 1052.45 432.952 1066.13 430.785 1079.78C430.46 1082.06 430.091 1084.32 429.81 1086.61L429.015 1093.45C426.191 1118.02 437.137 1139.12 457.69 1154.15C480.46 1171.23 508.033 1180.6 532.689 1194.46C548.705 1203.46 565.587 1216.33 566.971 1235.44L567.304 1235.42C566.165 1216.07 549.248 1202.83 533.218 1193.59C508.719 1179.37 481.416 1169.84 458.894 1152.68C435.909 1135.13 427.782 1114.42 432.385 1086.95C434.509 1071.32 437.887 1055.49 445.698 1041.54C452.442 1029.52 461.901 1019.1 468.67 1007.05C482.55 982.876 489.071 955.53 494.198 928.517C512.509 849.271 449.737 789.897 393.069 741.767C368.247 719.622 329.809 691.361 317.462 661.108C299.942 611.844 336.509 550.314 359.963 507.55C364.474 499.535 369.029 491.537 373.36 483.413C377.614 475.268 382.021 467.077 384.368 458.063C395.928 405.816 388.961 344.63 360.638 297.837C357.679 292.932 354.164 288.024 350.676 283.448C348.728 281.064 345.988 277.718 344.104 275.276C332.372 260.758 327.795 241.898 330.349 223.882C335.243 187.275 357.873 156.317 371.783 122.634C375.246 114.075 378.105 105.058 378.873 95.84C380.329 80.0086 383.151 64.2574 389.447 49.5788C395.649 34.9322 404.679 21.4319 414.226 8.62982C427.889 -9.43387 443.742 -27.3599 459.156 -44.0266C471.495 -57.5145 485.005 -71.0007 497.325 -84.5236C509.724 -98.409 520.142 -113.949 528.404 -130.455C544.981 -163.449 551.246 -201.112 547.124 -237.666C545.598 -251.358 542.784 -264.945 538.461 -278.094C537.008 -282.474 535.437 -286.815 533.533 -291.043L533.222 -290.917L533.218 -290.885L533.229 -290.884Z" fill="#FDDBCD"/>
<path d="M546.446 -291.215C565.878 -242.143 564.774 -185.548 542.594 -137.878C536.896 -125.479 529.742 -113.543 521.546 -102.567C514.856 -93.2985 507.041 -84.5954 499.123 -76.3535C479.849 -56.5059 460.417 -36.021 442.452 -15.0714C421.776 9.60538 400.757 36.2534 393.528 67.9659C390.733 79.146 389.96 90.6291 388.456 101.946C387.226 108.624 385.071 115.056 382.597 121.395C362.297 171.266 315.002 230.767 360.733 281.153C399.512 328.125 409.418 400.201 396.204 457.398C393.868 466.14 389.433 474.273 385.131 482.346C380.751 490.41 376.144 498.369 371.58 506.355C353.422 538.323 334.968 570.845 326.527 606.786C319.917 635.587 322.184 662.239 342.562 685.83C373.015 721.492 412.785 748.264 445.583 781.687C483.939 819.512 515.367 866.041 505.291 920.844C503.337 931.843 501.089 943.474 498.325 954.307C492.934 976.342 485.158 998.062 471.865 1016.82C466.611 1024.4 460.838 1031.76 456.392 1039.89C449.611 1052.12 446.169 1065.79 444.002 1079.45C443.677 1081.73 443.308 1083.99 443.027 1086.28L442.232 1093.12C439.408 1117.69 450.354 1138.79 470.907 1153.82C493.677 1170.9 521.25 1180.27 545.906 1194.13C561.922 1203.13 578.804 1216 580.188 1235.11L580.521 1235.09C579.382 1215.74 562.465 1202.5 546.435 1193.26C521.936 1179.04 494.633 1169.5 472.111 1152.35C449.126 1134.79 440.999 1114.09 445.602 1086.62C447.727 1070.99 451.104 1055.16 458.915 1041.21C465.659 1029.19 475.118 1018.77 481.887 1006.72C495.767 982.545 502.288 955.199 507.415 928.186C525.726 848.94 462.954 789.565 406.286 741.436C381.465 719.291 343.026 691.03 330.68 660.776C313.159 611.513 349.726 549.983 373.18 507.219C377.691 499.204 382.246 491.206 386.577 483.082C390.831 474.937 395.238 466.746 397.585 457.732C409.145 405.485 402.178 344.299 373.855 297.506C370.896 292.601 367.381 287.693 363.893 283.117C361.945 280.733 359.205 277.387 357.321 274.945C345.589 260.427 341.012 241.567 343.566 223.551C348.461 186.944 371.091 155.985 385 122.303C388.463 113.744 391.322 104.727 392.09 95.5089C393.546 79.6775 396.368 63.9264 402.664 49.2477C408.866 34.6011 417.896 21.1008 427.443 8.29874C441.106 -9.76495 456.959 -27.691 472.373 -44.3577C484.712 -57.8456 498.222 -71.3317 510.542 -84.8547C522.941 -98.7401 533.359 -114.28 541.621 -130.786C558.198 -163.78 564.463 -201.443 560.341 -237.997C558.815 -251.689 556.001 -265.276 551.678 -278.425C550.225 -282.806 548.654 -287.146 546.75 -291.374L546.439 -291.248L546.435 -291.216L546.446 -291.215Z" fill="#FDDBCD"/>
<path d="M559.673 -291.546C579.105 -242.475 578.001 -185.88 555.821 -138.21C550.123 -125.811 542.969 -113.875 534.773 -102.898C528.083 -93.6303 520.268 -84.9272 512.35 -76.6854C493.076 -56.8377 473.643 -36.3528 455.678 -15.4032C435.003 9.27353 413.983 35.9215 406.755 67.6341C403.96 78.8141 403.186 90.2972 401.683 101.614C400.453 108.292 398.298 114.724 395.824 121.063C375.524 170.934 328.229 230.435 373.96 280.822C412.739 327.793 422.645 399.869 409.431 457.066C407.095 465.808 402.66 473.941 398.358 482.014C393.978 490.078 389.371 498.037 384.796 506.022C366.638 537.99 348.184 570.512 339.742 606.453C333.133 635.254 335.4 661.906 355.777 685.497C386.23 721.159 426 747.931 458.799 781.353C497.154 819.179 528.582 865.708 518.506 920.511C516.552 931.51 514.305 943.141 511.541 953.974C506.149 976.009 498.374 997.728 485.081 1016.48C479.826 1024.07 474.054 1031.42 469.608 1039.56C462.827 1051.79 459.384 1065.46 457.218 1079.12C456.893 1081.4 456.523 1083.66 456.243 1085.94L455.448 1092.78C452.623 1117.36 463.57 1138.45 484.122 1153.49C506.893 1170.56 534.466 1179.94 559.122 1193.8C575.138 1202.79 592.02 1215.67 593.404 1234.78L593.737 1234.76C592.598 1215.41 575.681 1202.17 559.65 1192.92C535.152 1178.71 507.849 1169.17 485.327 1152.01C462.342 1134.46 454.215 1113.75 458.818 1086.28C460.942 1070.65 464.319 1054.83 472.131 1040.87C478.875 1028.85 488.333 1018.44 495.103 1006.39C508.982 982.211 515.504 954.866 520.63 927.853C538.942 848.606 476.169 789.232 419.502 741.103C394.68 718.958 356.231 690.696 343.895 660.443C326.364 611.179 362.941 549.65 386.396 506.886C390.907 498.871 395.461 490.873 399.792 482.749C404.046 474.604 408.454 466.412 410.801 457.399C422.36 405.152 415.394 343.966 387.07 297.173C384.112 292.268 380.597 287.36 377.109 282.784C375.161 280.4 372.421 277.054 370.536 274.612C358.805 260.094 354.227 241.234 356.782 223.218C361.676 186.611 384.306 155.652 398.215 121.97C401.678 113.411 404.538 104.394 405.306 95.1757C406.761 79.3443 409.583 63.5931 415.88 48.9145C422.081 34.2679 431.111 20.7676 440.658 7.96552C454.321 -10.0982 470.174 -28.0242 485.589 -44.6909C497.927 -58.1788 511.438 -71.665 523.758 -85.1879C536.157 -99.0733 546.575 -114.614 554.837 -131.119C571.414 -164.113 577.678 -201.777 573.557 -238.331C572.03 -252.022 569.217 -265.609 564.894 -278.758C563.441 -283.139 561.87 -287.479 559.966 -291.707L559.655 -291.582L559.651 -291.549L559.673 -291.546Z" fill="#FDDBCD"/>
<path d="M572.899 -291.881C592.331 -242.809 591.227 -186.214 569.047 -138.544C563.349 -126.145 556.195 -114.209 547.998 -103.233C541.308 -93.9646 533.493 -85.2615 525.576 -77.0196C506.301 -57.172 486.869 -36.6871 468.904 -15.7375C448.229 8.93924 427.209 35.5872 419.981 67.2998C417.186 78.4798 416.412 89.963 414.908 101.28C413.679 107.957 411.523 114.39 409.05 120.729C388.75 170.6 341.454 230.101 387.186 280.487C425.965 327.459 435.871 399.534 422.657 456.732C420.321 465.474 415.886 473.607 411.584 481.68C407.203 489.743 402.597 497.703 398.021 505.687C379.863 537.655 361.41 570.178 352.968 606.118C346.359 634.92 348.625 661.572 369.003 685.162C399.456 720.825 439.226 747.597 472.025 781.019C510.38 818.845 541.808 865.373 531.732 920.177C529.778 931.176 527.53 942.806 524.766 953.64C519.375 975.674 511.599 997.394 498.307 1016.15C493.052 1023.73 487.28 1031.09 482.834 1039.22C476.053 1051.45 472.61 1065.13 470.444 1078.78C470.118 1081.06 469.749 1083.32 469.469 1085.61L468.674 1092.45C465.849 1117.02 476.795 1138.12 497.348 1153.15C520.119 1170.23 547.692 1179.6 572.348 1193.47C588.364 1202.46 605.246 1215.33 606.63 1234.45L606.963 1234.42C605.824 1215.08 588.907 1201.84 572.876 1192.59C548.378 1178.37 521.075 1168.84 498.553 1151.68C475.568 1134.13 467.441 1113.42 472.044 1085.95C474.168 1070.32 477.545 1054.49 485.357 1040.54C492.1 1028.52 501.559 1018.1 508.329 1006.05C522.208 981.877 528.729 954.532 533.856 927.518C552.167 848.272 489.395 788.898 432.727 740.768C407.906 718.623 369.457 690.362 357.121 660.109C339.589 610.844 376.167 549.316 399.622 506.551C404.133 498.537 408.687 490.539 413.018 482.414C417.272 474.27 421.68 466.078 424.027 457.065C435.586 404.818 428.62 343.631 400.296 296.838C397.338 291.933 393.823 287.026 390.335 282.45C388.387 280.066 385.646 276.72 383.762 274.278C372.031 259.759 367.453 240.9 370.007 222.883C374.902 186.277 397.532 155.318 411.441 121.635C414.904 113.076 417.764 104.06 418.532 94.8414C419.987 79.01 422.809 63.2589 429.106 48.5802C435.307 33.9336 444.337 20.4333 453.884 7.63126C467.547 -10.4324 483.4 -28.3585 498.814 -45.0252C511.153 -58.513 524.663 -71.9993 536.984 -85.5222C549.383 -99.4076 559.801 -114.948 568.062 -131.454C584.64 -164.447 590.904 -202.111 586.782 -238.665C585.256 -252.356 582.443 -265.944 578.12 -279.092C576.667 -283.473 575.095 -287.814 573.192 -292.042L572.88 -291.916L572.876 -291.883L572.899 -291.881Z" fill="#FDDBCD"/>
<path d="M586.126 -292.216C605.558 -243.145 604.454 -186.55 582.274 -138.88C576.576 -126.48 569.422 -114.544 561.225 -103.568C554.535 -94.3 546.72 -85.5968 538.803 -77.355C519.528 -57.5074 500.096 -37.0225 482.131 -16.0729C461.456 8.60385 440.436 35.2518 433.208 66.9644C430.412 78.1444 429.639 89.6276 428.135 100.944C426.905 107.622 424.75 114.055 422.277 120.393C401.976 170.264 354.681 229.765 400.413 280.152C439.192 327.124 449.098 399.199 435.884 456.397C433.547 465.138 429.113 473.271 424.811 481.345C420.43 489.408 415.824 497.367 411.248 505.352C393.09 537.32 374.636 569.842 366.195 605.783C359.586 634.584 361.852 661.236 382.23 684.827C412.683 720.489 452.453 747.261 485.252 780.684C523.607 818.51 555.035 865.038 544.959 919.842C543.005 930.841 540.757 942.471 537.993 953.305C532.602 975.339 524.826 997.059 511.533 1015.81C506.279 1023.4 500.506 1030.75 496.061 1038.89C489.28 1051.12 485.837 1064.79 483.671 1078.45C483.345 1080.73 482.976 1082.99 482.695 1085.27L481.901 1092.12C479.076 1116.69 490.022 1137.78 510.575 1152.82C533.345 1169.89 560.919 1179.27 585.574 1193.13C601.591 1202.12 618.473 1215 619.856 1234.11L620.189 1234.09C619.05 1214.74 602.134 1201.5 586.103 1192.25C561.604 1178.04 534.301 1168.5 511.78 1151.34C488.795 1133.79 480.667 1113.08 485.27 1085.61C487.395 1069.98 490.772 1054.16 498.584 1040.2C505.327 1028.18 514.786 1017.77 521.556 1005.72C535.435 981.542 541.956 954.196 547.083 927.183C565.394 847.937 502.622 788.563 445.954 740.433C421.133 718.288 382.683 690.026 370.348 659.774C352.816 610.509 389.394 548.98 412.848 506.216C417.359 498.201 421.914 490.203 426.245 482.079C430.499 473.934 434.906 465.743 437.254 456.729C448.813 404.482 441.847 343.296 413.523 296.503C410.565 291.598 407.049 286.69 403.562 282.115C401.613 279.73 398.873 276.384 396.989 273.942C385.257 259.424 380.68 240.564 383.234 222.548C388.129 185.941 410.759 154.983 424.668 121.3C428.131 112.741 430.99 103.725 431.759 94.506C433.214 78.6746 436.036 62.9235 442.332 48.2448C448.534 33.5982 457.564 20.0979 467.111 7.29587C480.774 -10.7678 496.627 -28.6938 512.041 -45.3606C524.38 -58.8484 537.89 -72.3346 550.211 -85.8576C562.61 -99.7429 573.028 -115.283 581.289 -131.789C597.867 -164.783 604.131 -202.446 600.009 -239C598.483 -252.692 595.67 -266.279 591.346 -279.428C589.894 -283.808 588.322 -288.149 586.418 -292.377L586.107 -292.251L586.103 -292.219L586.126 -292.216Z" fill="#FDDBCD"/>
<path d="M599.342 -292.549C618.774 -243.478 617.67 -186.883 595.49 -139.213C589.792 -126.814 582.638 -114.878 574.441 -103.901C567.751 -94.6332 559.936 -85.9301 552.019 -77.6883C532.744 -57.8406 513.312 -37.3557 495.347 -16.4061C474.672 8.2706 453.652 34.9186 446.424 66.6311C443.628 77.8112 442.855 89.2943 441.351 100.611C440.121 107.289 437.966 113.721 435.493 120.06C415.192 169.931 367.897 229.432 413.629 279.819C452.408 326.79 462.314 398.866 449.1 456.064C446.763 464.805 442.329 472.938 438.027 481.011C433.646 489.075 429.04 497.034 424.475 505.02C406.317 536.988 387.864 569.51 379.422 605.451C372.813 634.252 375.079 660.904 395.457 684.495C425.91 720.158 465.68 746.929 498.479 780.352C536.834 818.178 568.262 864.706 558.186 919.51C556.232 930.509 553.984 942.139 551.22 952.973C545.829 975.007 538.054 996.727 524.761 1015.48C519.506 1023.07 513.734 1030.42 509.288 1038.55C502.507 1050.79 499.064 1064.46 496.898 1078.11C496.572 1080.39 496.203 1082.66 495.923 1084.94L495.128 1091.78C492.303 1116.35 503.249 1137.45 523.802 1152.48C546.573 1169.56 574.146 1178.94 598.802 1192.8C614.818 1201.79 631.7 1214.67 633.084 1233.78L633.417 1233.75C632.278 1214.41 615.361 1201.17 599.33 1191.92C574.832 1177.71 547.529 1168.17 525.007 1151.01C502.022 1133.46 493.895 1112.75 498.498 1085.28C500.622 1069.65 503.999 1053.83 511.811 1039.87C518.554 1027.85 528.013 1017.44 534.783 1005.39C548.662 981.21 555.184 953.865 560.31 926.851C578.622 847.605 515.849 788.231 459.181 740.101C434.36 717.956 395.922 689.696 383.575 659.442C366.055 610.178 402.621 548.648 426.076 505.884C430.587 497.87 435.141 489.871 439.472 481.747C443.726 473.602 448.134 465.411 450.481 456.397C462.04 404.151 455.074 342.964 426.75 296.171C423.792 291.266 420.277 286.359 416.789 281.783C414.841 279.398 412.1 276.052 410.216 273.61C398.485 259.092 393.907 240.232 396.462 222.216C401.356 185.61 423.986 154.651 437.895 120.968C441.358 112.409 444.218 103.393 444.986 94.1742C446.441 78.3427 449.263 62.5916 455.56 47.9129C461.761 33.2664 470.791 19.7661 480.338 6.96399C494.001 -11.0997 509.854 -29.0257 525.268 -45.6925C537.607 -59.1803 551.118 -72.6665 563.438 -86.1895C575.837 -100.075 586.255 -115.615 594.516 -132.121C611.094 -165.114 617.358 -202.778 613.236 -239.332C611.71 -253.024 608.897 -266.611 604.574 -279.76C603.121 -284.14 601.549 -288.481 599.646 -292.709L599.334 -292.583L599.331 -292.551L599.342 -292.549Z" fill="#FDDBCD"/>
<path d="M612.569 -292.881C632.001 -243.809 630.897 -187.214 608.717 -139.544C603.019 -127.145 595.865 -115.209 587.668 -104.233C580.978 -94.9647 573.163 -86.2616 565.246 -78.0198C545.971 -58.1721 526.539 -37.6872 508.574 -16.7376C487.899 7.93912 466.879 34.5871 459.65 66.2997C456.855 77.4797 456.082 88.9629 454.578 100.28C453.348 106.957 451.193 113.39 448.719 119.729C428.419 169.599 381.124 229.101 426.855 279.487C465.635 326.459 475.541 398.534 462.327 455.732C459.99 464.473 455.556 472.607 451.254 480.68C446.873 488.743 442.267 496.702 437.702 504.689C419.544 536.656 401.091 569.179 392.649 605.12C386.04 633.921 388.306 660.573 408.684 684.164C439.137 719.826 478.907 746.598 511.706 780.02C550.061 817.846 581.489 864.375 571.413 919.178C569.459 930.177 567.211 941.807 564.447 952.641C559.056 974.676 551.28 996.395 537.987 1015.15C532.733 1022.73 526.961 1030.09 522.515 1038.22C515.734 1050.46 512.291 1064.13 510.125 1077.78C509.799 1080.06 509.43 1082.33 509.149 1084.61L508.355 1091.45C505.53 1116.02 516.476 1137.12 537.029 1152.15C559.8 1169.23 587.373 1178.6 612.028 1192.47C628.045 1201.46 644.927 1214.33 646.31 1233.45L646.643 1233.42C645.504 1214.08 628.588 1200.84 612.557 1191.59C588.058 1177.38 560.756 1167.84 538.234 1150.68C515.249 1133.13 507.121 1112.42 511.724 1084.95C513.849 1069.32 517.226 1053.5 525.038 1039.54C531.781 1027.52 541.24 1017.1 548.01 1005.05C561.889 980.878 568.41 953.533 573.537 926.52C591.848 847.273 529.076 787.899 472.408 739.77C447.587 717.625 409.149 689.364 396.802 659.11C379.282 609.847 415.848 548.317 439.302 505.553C443.813 497.538 448.368 489.54 452.699 481.416C456.953 473.271 461.361 465.079 463.708 456.066C475.267 403.819 468.301 342.633 439.977 295.84C437.019 290.935 433.503 286.027 430.016 281.451C428.067 279.067 425.327 275.721 423.443 273.279C411.711 258.761 407.134 239.901 409.688 221.884C414.583 185.278 437.213 154.319 451.122 120.637C454.585 112.078 457.444 103.061 458.213 93.8427C459.668 78.0113 462.49 62.2601 468.787 47.5815C474.988 32.9349 484.018 19.4346 493.565 6.63251C507.228 -11.4312 523.081 -29.3572 538.495 -46.0239C550.834 -59.5118 564.344 -72.998 576.665 -86.5209C589.064 -100.406 599.482 -115.947 607.743 -132.452C624.321 -165.446 630.585 -203.11 626.463 -239.664C624.937 -253.355 622.124 -266.942 617.8 -280.091C616.348 -284.472 614.776 -288.812 612.873 -293.04L612.561 -292.915L612.557 -292.882L612.569 -292.881Z" fill="#FDDBCD"/>
<path d="M625.795 -293.213C645.228 -244.142 644.123 -187.547 621.943 -139.877C616.245 -127.478 609.091 -115.542 600.895 -104.565C594.205 -95.2972 586.39 -86.5941 578.472 -78.3522C559.198 -58.5046 539.766 -38.0197 521.801 -17.0701C501.125 7.60666 480.106 34.2546 472.877 65.9672C470.082 77.1472 469.309 88.6304 467.805 99.9472C466.575 106.625 464.42 113.057 461.946 119.396C441.646 169.267 394.351 228.768 440.082 279.155C478.861 326.127 488.767 398.202 475.553 455.4C473.217 464.141 468.782 472.274 464.48 480.347C460.1 488.411 455.493 496.37 450.918 504.355C432.76 536.323 414.306 568.845 405.864 604.786C399.255 633.587 401.522 660.239 421.9 683.83C452.353 719.492 492.123 746.264 524.921 779.687C563.277 817.512 594.704 864.041 584.628 918.844C582.674 929.843 580.427 941.474 577.663 952.307C572.272 974.342 564.496 996.062 551.203 1014.82C545.949 1022.4 540.176 1029.76 535.73 1037.89C528.949 1050.12 525.507 1063.79 523.34 1077.45C523.015 1079.73 522.646 1081.99 522.365 1084.28L521.57 1091.12C518.746 1115.69 529.692 1136.79 550.245 1151.82C573.015 1168.9 600.588 1178.27 625.244 1192.13C641.26 1201.13 658.142 1214 659.526 1233.11L659.859 1233.09C658.72 1213.74 641.803 1200.5 625.773 1191.26C601.274 1177.04 573.971 1167.5 551.449 1150.35C528.464 1132.79 520.337 1112.09 524.94 1084.62C527.064 1068.99 530.442 1053.16 538.253 1039.21C544.997 1027.19 554.456 1016.77 561.225 1004.72C575.105 980.544 581.626 953.199 586.753 926.186C605.064 846.94 542.292 787.565 485.624 739.436C460.802 717.291 422.364 689.03 410.017 658.776C392.497 609.513 429.064 547.983 452.518 505.219C457.029 497.204 461.583 489.206 465.915 481.082C470.169 472.937 474.576 464.746 476.923 455.732C488.483 403.485 481.516 342.299 453.193 295.506C450.234 290.601 446.719 285.693 443.231 281.117C441.283 278.733 438.543 275.387 436.659 272.945C424.927 258.427 420.35 239.567 422.904 221.551C427.798 184.944 450.428 153.985 464.338 120.303C467.801 111.744 470.66 102.727 471.428 93.5089C472.884 77.6774 475.706 61.9263 482.002 47.2476C488.204 32.601 497.234 19.1007 506.781 6.29868C520.444 -11.765 536.297 -29.691 551.711 -46.3578C564.05 -59.8456 577.56 -73.3318 589.88 -86.8548C602.279 -100.74 612.697 -116.281 620.959 -132.786C637.536 -165.78 643.801 -203.444 639.679 -239.997C638.153 -253.689 635.339 -267.276 631.016 -280.425C629.563 -284.806 627.992 -289.146 626.088 -293.374L625.777 -293.248L625.773 -293.216L625.795 -293.213Z" fill="#FDDBCD"/>
<path d="M639.022 -293.548C658.454 -244.476 657.35 -187.881 635.17 -140.211C629.472 -127.812 622.318 -115.876 614.122 -104.9C607.432 -95.6315 599.617 -86.9283 591.699 -78.6865C572.425 -58.8389 552.992 -38.354 535.027 -17.4044C514.352 7.27237 493.332 33.9203 486.104 65.6329C483.309 76.813 482.535 88.2961 481.032 99.6129C479.802 106.291 477.647 112.723 475.173 119.062C454.873 168.933 407.578 228.434 453.309 278.82C492.088 325.792 501.994 397.868 488.78 455.065C486.444 463.807 482.009 471.94 477.707 480.013C473.327 488.077 468.72 496.036 464.145 504.021C445.987 535.988 427.533 568.511 419.091 604.452C412.482 633.253 414.749 659.905 435.126 683.496C465.579 719.158 505.349 745.93 538.148 779.352C576.503 817.178 607.931 863.707 597.855 918.51C595.901 929.509 593.654 941.139 590.89 951.973C585.498 974.007 577.723 995.727 564.43 1014.48C559.175 1022.07 553.403 1029.42 548.957 1037.55C542.176 1049.79 538.733 1063.46 536.567 1077.11C536.242 1079.39 535.872 1081.66 535.592 1083.94L534.797 1090.78C531.972 1115.35 542.919 1136.45 563.472 1151.49C586.242 1168.56 613.815 1177.94 638.471 1191.8C654.487 1200.79 671.369 1213.67 672.753 1232.78L673.086 1232.75C671.947 1213.41 655.03 1200.17 638.999 1190.92C614.501 1176.71 587.198 1167.17 564.676 1150.01C541.691 1132.46 533.564 1111.75 538.167 1084.28C540.291 1068.65 543.668 1052.83 551.48 1038.87C558.224 1026.85 567.682 1016.44 574.452 1004.39C588.331 980.21 594.853 952.865 599.979 925.852C618.291 846.605 555.518 787.231 498.851 739.102C474.029 716.957 435.58 688.695 423.244 658.442C405.713 609.177 442.29 547.649 465.745 504.885C470.256 496.87 474.81 488.872 479.141 480.747C483.395 472.603 487.803 464.411 490.15 455.398C501.709 403.151 494.743 341.964 466.419 295.171C463.461 290.267 459.946 285.359 456.458 280.783C454.51 278.399 451.77 275.053 449.885 272.611C438.154 258.092 433.576 239.233 436.131 221.216C441.025 184.61 463.655 153.651 477.564 119.969C481.027 111.409 483.887 102.393 484.655 93.1746C486.11 77.3431 488.932 61.592 495.229 46.9133C501.43 32.2668 510.46 18.7664 520.007 5.96439C533.67 -12.0993 549.524 -30.0254 564.938 -46.6921C577.276 -60.1799 590.787 -73.6661 603.107 -87.1891C615.506 -101.074 625.924 -116.615 634.186 -133.12C650.763 -166.114 657.027 -203.778 652.906 -240.332C651.379 -254.023 648.566 -267.61 644.243 -280.759C642.79 -285.14 641.219 -289.48 639.315 -293.709L639.004 -293.583L639 -293.55L639.022 -293.548Z" fill="#FDDBCD"/>
<path d="M652.248 -293.882C671.68 -244.811 670.576 -188.216 648.396 -140.546C642.698 -128.146 635.544 -116.21 627.347 -105.234C620.658 -95.9661 612.843 -87.263 604.925 -79.0211C585.651 -59.1735 566.218 -38.6886 548.253 -17.739C527.578 6.93774 506.558 33.5857 499.33 65.2983C496.535 76.4783 495.761 87.9615 494.257 99.2783C493.028 105.956 490.872 112.389 488.399 118.727C468.099 168.598 420.803 228.099 466.535 278.486C505.314 325.458 515.22 397.533 502.006 454.731C499.67 463.472 495.235 471.605 490.933 479.678C486.552 487.742 481.946 495.701 477.37 503.686C459.212 535.654 440.759 568.176 432.317 604.117C425.708 632.918 427.974 659.57 448.352 683.161C478.805 718.823 518.575 745.595 551.374 779.018C589.729 816.844 621.157 863.372 611.081 918.176C609.127 929.174 606.879 940.805 604.115 951.638C598.724 973.673 590.949 995.393 577.656 1014.15C572.401 1021.73 566.629 1029.09 562.183 1037.22C555.402 1049.45 551.959 1063.13 549.793 1076.78C549.467 1079.06 549.098 1081.32 548.818 1083.61L548.023 1090.45C545.198 1115.02 556.144 1136.12 576.697 1151.15C599.468 1168.23 627.041 1177.6 651.697 1191.46C667.713 1200.46 684.595 1213.33 685.979 1232.44L686.312 1232.42C685.172 1213.07 668.256 1199.83 652.225 1190.59C627.727 1176.37 600.424 1166.84 577.902 1149.68C554.917 1132.13 546.79 1111.42 551.393 1083.95C553.517 1068.32 556.894 1052.49 564.706 1038.54C571.449 1026.52 580.908 1016.1 587.678 1004.05C601.557 979.875 608.078 952.53 613.205 925.517C631.517 846.271 568.744 786.896 512.076 738.767C487.255 716.622 448.806 688.36 436.47 658.107C418.939 608.843 455.516 547.314 478.971 504.55C483.482 496.535 488.036 488.537 492.367 480.413C496.621 472.268 501.029 464.077 503.376 455.063C514.935 402.816 507.969 341.63 479.645 294.837C476.687 289.932 473.172 285.024 469.684 280.448C467.736 278.064 464.995 274.718 463.111 272.276C451.38 257.758 446.802 238.898 449.357 220.882C454.251 184.275 476.881 153.316 490.79 119.634C494.253 111.075 497.113 102.058 497.881 92.8399C499.336 77.0085 502.158 61.2574 508.455 46.5787C514.656 31.9321 523.686 18.4318 533.233 5.62973C546.896 -12.434 562.749 -30.36 578.163 -47.0267C590.502 -60.5146 604.013 -74.0007 616.333 -87.5237C628.732 -101.409 639.15 -116.949 647.411 -133.455C663.989 -166.449 670.253 -204.112 666.132 -240.666C664.605 -254.358 661.792 -267.945 657.469 -281.094C656.016 -285.475 654.444 -289.815 652.541 -294.043L652.229 -293.917L652.226 -293.885L652.248 -293.882Z" fill="#FDDBCD"/>
<path d="M665.464 -294.215C684.896 -245.144 683.792 -188.549 661.612 -140.879C655.914 -128.48 648.76 -116.544 640.564 -105.567C633.874 -96.2993 626.059 -87.5962 618.141 -79.3544C598.867 -59.5067 579.434 -39.0218 561.469 -18.0722C540.794 6.60452 519.774 33.2525 512.546 64.9651C509.751 76.1451 508.977 87.6283 507.474 98.9451C506.244 105.623 504.089 112.055 501.615 118.394C481.315 168.265 434.02 227.766 479.751 278.153C518.53 325.124 528.436 397.2 515.222 454.397C512.886 463.139 508.451 471.272 504.149 479.345C499.769 487.409 495.162 495.368 490.587 503.353C472.429 535.32 453.975 567.843 445.533 603.784C438.924 632.585 441.191 659.237 461.568 682.828C492.021 718.49 531.791 745.262 564.59 778.684C602.945 816.51 634.373 863.039 624.297 917.842C622.343 928.841 620.096 940.471 617.332 951.305C611.94 973.34 604.165 995.059 590.872 1013.81C585.617 1021.4 579.845 1028.75 575.399 1036.89C568.618 1049.12 565.175 1062.79 563.009 1076.45C562.684 1078.73 562.314 1080.99 562.034 1083.28L561.239 1090.12C558.414 1114.69 569.361 1135.78 589.913 1150.82C612.684 1167.9 640.257 1177.27 664.913 1191.13C680.929 1200.12 697.811 1213 699.195 1232.11L699.528 1232.09C698.389 1212.74 681.472 1199.5 665.441 1190.25C640.943 1176.04 613.64 1166.5 591.118 1149.35C568.133 1131.79 560.006 1111.09 564.609 1083.61C566.733 1067.98 570.11 1052.16 577.922 1038.2C584.666 1026.18 594.124 1015.77 600.894 1003.72C614.773 979.542 621.295 952.197 626.421 925.184C644.733 845.937 581.96 786.563 525.293 738.434C500.471 716.289 462.033 688.028 449.686 657.774C432.166 608.511 468.732 546.981 492.187 504.217C496.698 496.202 501.252 488.204 505.583 480.08C509.837 471.935 514.245 463.743 516.592 454.73C528.151 402.483 521.185 341.297 492.861 294.504C489.903 289.599 486.388 284.691 482.9 280.115C480.952 277.731 478.212 274.385 476.327 271.943C464.596 257.425 460.018 238.565 462.573 220.549C467.467 183.942 490.097 152.983 504.006 119.301C507.469 110.742 510.329 101.725 511.097 92.5067C512.552 76.6753 515.374 60.9242 521.671 46.2455C527.872 31.5989 536.902 18.0986 546.449 5.29651C560.112 -12.7672 575.966 -30.6932 591.38 -47.3599C603.718 -60.8478 617.229 -74.334 629.549 -87.8569C641.948 -101.742 652.366 -117.283 660.628 -133.788C677.205 -166.782 683.469 -204.446 679.348 -241C677.821 -254.691 675.008 -268.278 670.685 -281.427C669.232 -285.808 667.661 -290.148 665.757 -294.376L665.446 -294.251L665.442 -294.218L665.464 -294.215Z" fill="#FDDBCD"/>
</g>
</svg>
