<svg width="191" height="140" viewBox="0 0 191 140" fill="none" xmlns="http://www.w3.org/2000/svg">
<g clip-path="url(#clip0_39_5245)">
<path d="M80.0868 56.411C80.1379 64.325 80.1175 72.2492 80.1072 80.1633C80.0766 81.3925 80.0256 82.7843 80.7092 83.8714C81.8926 86.0455 84.7085 87.0106 87.0244 86.0353C101.94 80.529 116.897 75.1141 131.69 69.2929L132.802 68.856C134.189 68.3684 134.138 66.2146 132.71 65.8083C132.057 65.5848 130.006 64.9346 129.313 64.7009C118.825 61.3077 103.542 56.7157 92.8396 53.4648C91.3603 53.0483 87.5549 51.819 86.1062 51.4634C83.0761 50.7523 79.9338 53.3226 80.097 56.411H80.0868ZM76.5161 56.411C76.5161 50.9453 82.3415 46.841 87.4835 48.7814C88.5853 49.1878 92.4724 50.61 93.6456 51.0469L111.561 57.6199C117.549 59.7635 123.528 61.9376 129.537 64.0304C130.129 64.2437 132.312 64.9752 132.924 65.1885C134.302 65.6152 134.914 67.4033 134.097 68.5919C133.853 68.9779 133.465 69.2827 133.047 69.4554C129.731 70.7964 126.436 72.1883 123.14 73.5699C111.428 78.5378 99.7874 83.6479 88.1262 88.7376C86.453 89.4894 84.3004 89.7231 82.4334 89.1135C79.5767 88.3008 77.2404 85.7712 76.6997 82.8351C76.3426 80.3969 76.5467 77.8673 76.4855 75.4087C76.5773 69.0694 76.4344 62.7402 76.5263 56.4008L76.5161 56.411Z" fill="#F3C545"/>
<path d="M72.5372 52.073C72.5882 61.8462 72.5678 71.6092 72.5576 81.3824C72.6596 84.2574 71.7618 89.3269 73.8941 91.5924C76.057 94.0306 80.1889 94.1017 83.1169 92.6998L88.4833 90.2819C98.8997 85.6086 110.326 80.4681 120.641 75.7339L131.302 70.7558L133.965 69.5164C135.709 68.917 135.893 66.2451 134.526 65.219C134.22 64.9854 133.74 64.8432 133.281 64.6501C120.049 59.4384 101.358 52.6013 87.8405 47.5623L82.3211 45.5101C77.016 43.4681 72.1495 46.1095 72.527 52.0628L72.5372 52.073ZM68.9664 52.073C68.844 43.9761 76.0774 39.7194 83.372 42.9297L88.7893 45.2257C102.113 50.9047 120.314 58.5952 133.567 63.9695L134.25 64.2438C136.75 65.1784 136.709 69.1608 134.25 70.0955C132.649 70.8473 122.875 75.6627 121.039 76.5364C110.898 81.5856 99.6547 87.2239 89.5035 92.3848L84.2493 95.0364C77.6077 98.5413 69.3133 95.3717 69.0888 87.3255C68.7828 75.5815 68.9766 63.8171 68.9664 52.073Z" fill="#F3C545"/>
<path d="M64.6917 47.8463C64.7019 61.8559 64.8345 75.8654 64.5999 89.8649C64.5489 91.9475 64.4979 94.2943 65.1916 96.2652C66.5281 100.999 72.1189 102.351 76.21 100.217C77.1486 99.7396 79.9134 98.3681 80.8929 97.8602C93.0743 91.7342 106.449 84.9986 118.529 78.8319L131.006 72.3707L134.128 70.7553L135.679 69.9324C137.128 69.1502 137.464 67.1691 136.954 65.7062C136.587 64.5684 135.75 64.101 134.638 63.6947C119.743 57.1928 98.002 48.2831 82.8007 41.9031L76.3223 39.2008C69.4664 36.5594 64.2734 40.5723 64.7019 47.8463H64.6917ZM61.1209 47.8463C60.9577 38.3982 68.4971 32.8106 77.4241 36.6508L83.8107 39.597C98.8386 46.5865 120.029 56.3191 134.944 62.9937L135.75 63.3493C138.505 64.5277 138.597 69.1096 135.975 70.4912C135.026 70.9585 132.312 72.4621 131.322 72.9701C119.274 79.3907 106.164 86.5631 94.2884 93.126L81.9845 99.9225C81.0255 100.441 78.2913 101.975 77.3425 102.472C73.3024 104.697 67.5381 104.443 64.3244 100.776C61.6208 97.7992 61.1923 93.6746 61.2127 89.8547C61.1209 85.1815 61.0495 80.5184 61.0699 75.8451C61.1617 66.5088 61.0189 57.1725 61.1107 47.8361L61.1209 47.8463Z" fill="#F3C545"/>
<path d="M56.1114 42.4426C56.2237 54.2375 56.1522 81.2814 56.0196 92.6902C56.0196 94.9963 55.8258 98.6841 56.0196 100.909C56.6216 110.367 63.6509 114.116 71.578 108.701C80.7804 103.398 105.725 89.0227 115.254 83.5266L129.741 75.0131C132.149 73.5908 134.587 72.1889 136.954 70.7259C138.025 70.0453 138.474 68.6433 138.556 67.3531C138.617 65.7581 138.168 63.9599 136.729 63.1776C120.018 54.9487 94.0433 42.7677 77.0362 34.5692L69.4662 30.9627C65.018 28.7378 59.2027 30.1906 57.3153 34.9553C56.3359 37.1903 56.0808 39.8317 56.1012 42.4528L56.1114 42.4426ZM52.5407 42.4426C52.6121 38.0437 53.5507 32.8422 57.1929 29.7131C60.8453 26.4418 66.5585 26.2691 70.6802 28.4534L78.1687 32.3037L108.061 47.6746C115.121 51.3726 127.272 57.5189 134.25 61.0645C135.026 61.4912 136.821 62.2938 137.576 62.8017C138.933 63.9193 139.351 65.7784 139.26 67.3937C139.147 68.8566 138.627 70.4415 137.301 71.2847C134.873 72.7171 132.485 74.1496 130.088 75.6024C120.947 81.0376 96.4511 96.1139 87.0854 101.894L72.7717 110.703L70.9863 111.81C66.3749 114.908 59.4068 114.421 55.9992 109.748C52.1938 104.79 52.7855 98.4505 52.6325 92.6902C52.3978 81.4439 52.5509 54.0648 52.5407 42.4426Z" fill="#F3C545"/>
</g>
<defs>
<clipPath id="clip0_39_5245">
<rect width="86.77" height="86.77" fill="white" transform="translate(52.5 27)"/>
</clipPath>
</defs>
</svg>
