<svg width="731" height="165" viewBox="0 0 731 165" fill="none" xmlns="http://www.w3.org/2000/svg">
<mask id="mask0_1279_1939" style="mask-type:alpha" maskUnits="userSpaceOnUse" x="0" y="0" width="731" height="165">
<rect width="731" height="165" fill="#D9D9D9"/>
</mask>
<g mask="url(#mask0_1279_1939)">
<path d="M96.9824 43.5793L96.5402 42.9735L96.3173 43.1363L96.253 43.4048L96.9824 43.5793ZM84.6479 47.565L85.0605 46.9387L84.8652 46.81L84.6312 46.8152L84.6479 47.565ZM100.664 52.6664L100.602 53.4138L101.031 52.0121L100.664 52.6664ZM102.464 32.2855C102.464 36.4734 100.216 40.2897 96.5402 42.9735L97.4247 44.185C101.406 41.2782 103.964 37.045 103.964 32.2855H102.464ZM84.1069 17.75C94.4099 17.75 102.464 24.4053 102.464 32.2855H103.964C103.964 23.2818 94.9087 16.25 84.1069 16.25V17.75ZM65.75 32.2855C65.75 24.4053 73.8038 17.75 84.1069 17.75V16.25C73.305 16.25 64.25 23.2818 64.25 32.2855H65.75ZM84.1069 46.821C73.8038 46.821 65.75 40.1657 65.75 32.2855H64.25C64.25 41.2892 73.305 48.321 84.1069 48.321V46.821ZM84.6312 46.8152C84.457 46.819 84.2822 46.821 84.1069 46.821V48.321C84.2934 48.321 84.4793 48.3189 84.6646 48.3148L84.6312 46.8152ZM100.727 51.9189C93.4183 51.3099 88.1287 48.9602 85.0605 46.9387L84.2353 48.1913C87.5067 50.3467 93.0361 52.7833 100.602 53.4138L100.727 51.9189ZM96.253 43.4048C95.6245 46.0319 95.8942 48.1251 96.7313 49.7778C97.5624 51.4188 98.911 52.5432 100.298 53.3206L101.031 52.0121C99.8122 51.3288 98.7252 50.3949 98.0695 49.1001C97.4196 47.817 97.1512 46.0971 97.7119 43.7538L96.253 43.4048Z" fill="#B28505"/>
<g opacity="0.5">
<path d="M177.379 60.366C227.97 47.2614 293.58 43.871 338.033 75.5822C345.224 81.068 352.81 86.3993 360.752 90.6534C394.787 109.73 429.785 106.935 466.203 97.3211C475.105 95.1015 483.845 92.5507 492.652 89.9748C540.328 75.031 581.65 74.0316 628.492 92.8389C641.389 97.8905 653.681 104.246 665.851 110.799C677.972 117.142 690.539 122.69 703.443 127.199C768.729 150.733 827.139 135.84 891.593 119.108C900.512 116.807 909.569 114.904 918.697 113.607C950.481 109.052 984.175 111.213 1013.42 125.3C1017.54 127.355 1021.59 129.579 1025.3 132.347L1024.97 132.764C1023.14 131.434 1021.16 130.256 1019.17 129.142C988.785 112.81 952.62 110.705 919.041 115.906C910.004 117.314 901.101 119.305 892.273 121.712C827.951 139.203 767.386 155.155 702.208 130.684C686.99 125.207 672.363 118.278 658.191 110.532C640.196 100.699 621.132 92.6088 601.271 87.6297C574.783 80.7803 546.895 80.8805 520.309 86.9904C506.939 89.906 493.81 94.1108 480.628 97.9357C449.699 106.739 416.368 114.132 384.663 104.782C366.672 99.7647 350.486 89.9283 335.979 78.3894C298.447 51.3337 248.884 50.0833 204.529 55.8093C195.464 57.0969 186.41 58.6656 177.524 60.879L177.379 60.366Z" fill="#B861B3"/>
<path d="M1016.29 107.358C973.485 90.0306 925.278 87.7813 880.849 100.049C875.357 101.572 863.705 104.67 857.991 106.227C783.049 126.913 723.791 129.032 653.323 92.1941C617.491 73.9383 576.457 64.7268 536.399 71.0151C532.173 71.6608 527.377 72.5024 523.197 73.4113C507.746 76.6001 492.88 81.8248 477.708 86.12C464.57 89.6768 451.467 93.1997 437.939 95.1672C408.134 99.8053 378.25 94.5609 351.972 79.6842C348.978 78.0513 346.051 76.2871 343.184 74.4506L340.321 72.5978C323.607 61.3657 304.108 54.6605 284.243 51.6748C253.121 47.0244 221.091 50.0034 190.553 57.2064C186.179 58.2641 181.816 59.4169 177.532 60.7621L177.361 60.2559C181.662 58.846 186.006 57.6357 190.382 56.5141C221.034 48.8743 253.068 45.4804 284.527 49.7511C302.498 52.2662 320.23 57.6062 335.995 66.7534C338.166 68.1124 342.659 70.7903 344.662 72.1C347.52 73.8733 350.401 75.5709 353.365 77.1311C379.526 91.4453 408.026 95.8884 437.397 91.3909C455.109 88.7695 472.521 83.985 489.696 78.868C504.828 74.2189 520.221 69.9648 535.933 67.7556C582.182 61.1448 623.069 72.5224 663.861 93.7335C691.042 106.833 720.678 115.238 750.862 116.83C786.824 118.994 822.419 111.557 857.126 102.867C874.294 98.5845 892.528 93.3671 910.172 91.5573C941.657 87.9436 973.98 91.3856 1003.86 101.978C1008.12 103.478 1012.33 105.135 1016.49 106.858L1016.29 107.352L1016.29 107.358Z" fill="#B861B3"/>
<path d="M1007.55 81.9172C976.217 70.3417 935.754 68.3653 902.657 72.1628C900.496 72.4245 898.129 72.6442 896.084 72.9846C893.231 73.4542 888.875 74.0538 886.281 74.5784L883.034 75.229C880.951 75.6618 878.53 76.0599 876.552 76.5667C850.711 82.9654 825.17 91.07 798.713 95.1583C755.432 102.436 711.065 99.6047 670.047 83.3918C668.48 82.7546 665.409 81.4819 663.847 80.8338C658.167 78.4441 651.264 75.09 645.617 72.6187C638.688 69.67 631.111 66.8312 623.9 64.5677C588.07 53.1475 549.186 53.0834 513.026 63.1292C502.32 65.9046 491.836 69.6458 481.188 72.8113C461.904 78.2987 442.395 84.1333 422.211 85.0348C398.626 86.3881 374.804 81.3757 353.516 71.2335C348.462 68.9211 343.55 66.0801 338.688 63.4543L335.788 61.8906L334.335 61.1089L332.844 60.4091L329.858 59.0149L328.362 58.3206L327.614 57.9735L326.847 57.6646L320.717 55.2197L314.461 53.1006C274.078 40.7227 230.284 45.036 190.158 56.5C185.907 57.7583 181.671 59.1061 177.526 60.651L177.329 60.1568C185.639 56.949 194.172 54.3989 202.785 52.1685C243.779 41.7786 288.814 39.242 328.645 55.5251C330.636 56.4262 333.543 57.7237 335.551 58.6345C336.333 59.0329 339.166 60.5312 340.031 60.9729C370.033 77.9954 400.804 84.77 435.117 80.0503C448.237 78.3124 461.072 74.8466 473.818 71.2315C477.803 70.1685 482.746 68.8086 486.573 67.5841C546.252 47.0193 598.209 46.8046 655.893 74.1193C701.177 95.4623 749.037 99.809 798.115 91.5286C825.032 87.3726 850.959 79.1459 877.502 73.1075C880.509 72.5498 884.38 71.8279 887.399 71.3013L889.057 71.0672L895.694 70.1409C917.783 67.4077 940.355 67.46 962.438 70.2605C968.987 71.125 975.745 72.2173 982.193 73.6721C990.895 75.5723 999.498 78.0149 1007.74 81.4074L1007.54 81.9019L1007.55 81.9172Z" fill="#B861B3"/>
<path d="M998.821 56.4745C974.158 47.2716 947.405 45.5716 921.311 46.8653C903.861 47.7609 886.513 50.2136 869.432 53.8478C860.864 55.6557 852.483 57.9584 844.059 60.3538C810.315 70.1134 775.391 77.4765 740.066 77.2072C712.504 77.1619 684.838 72.3863 659.157 62.2822C657.35 61.5412 651.926 59.2544 650.015 58.4659C614.004 42.7659 573.405 38.2933 534.8 45.4643C526.243 46.9793 517.694 49.0308 509.357 51.4639C500.903 53.8875 492.755 56.8579 484.355 59.5868C480.43 60.6785 475.647 62.2317 471.822 63.4986C463.45 66.2579 454.935 68.738 446.288 70.5503C413.609 77.8119 379.204 74.1488 348.766 60.2332C342.802 57.5135 336.968 54.4518 330.85 52.1232C298.237 39.2035 261.93 39.0836 227.799 45.5688C214.898 48.0176 202.178 51.4345 189.791 55.7848C185.663 57.2437 181.561 58.7968 177.56 60.5517L177.337 60.0696C181.339 58.2349 185.421 56.619 189.54 55.0862C201.905 50.5193 214.623 46.8791 227.533 44.2119C261.899 37.161 298.715 36.8704 331.877 49.4997C340.125 52.541 347.841 56.7596 356.052 59.888C384.372 70.9746 415.841 73.2992 445.57 67.0653C456.175 64.96 466.76 61.6119 477.069 58.2789C487.665 55.3183 497.89 51.4317 508.502 48.4702C533.943 41.1738 560.667 37.8788 587.088 40.1233C609.057 41.8989 630.768 47.5104 651.008 56.195C652.495 56.826 658.535 59.2705 660.098 59.9292C677.358 66.5707 695.588 70.8896 713.977 72.8609C748.767 76.5667 783.926 72.1462 817.762 63.7689C834.819 59.6896 851.541 54.0658 868.777 50.6305C903.253 43.9351 939.18 41.3968 973.807 48.3433C982.433 50.1202 990.907 52.6388 999.034 55.9951L998.838 56.4895L998.821 56.4745Z" fill="#B861B3"/>
<path d="M990.08 31.0302C949.191 15.7192 904.028 19.5332 862.517 30.2809C854.193 32.4476 845.791 34.8524 837.498 37.2194C804.253 47.5471 769.849 54.9668 734.939 55.8761C708.81 56.5286 682.359 53.4512 657.564 44.9572C650.413 42.4087 643.388 39.4599 636.162 37.2132C593.861 23.606 547.562 26.3977 505.596 39.9025C498.546 42.042 491.113 45.1275 484.112 47.3865C479.06 49.2734 474.054 51.4075 468.91 53.1771C459.62 56.4544 450.079 59.0543 440.381 60.8178C409.01 66.8012 376.29 63.1896 346.831 50.9426L340.791 48.4875L337.799 47.285C302.48 33.4396 262.922 34.0927 226.408 43.0045C218.022 45.031 209.645 47.5089 201.514 50.3932C193.352 53.2899 185.283 56.5271 177.559 60.431L177.304 59.9612C181.15 57.9118 185.094 56.0803 189.073 54.3371C201.025 49.1389 213.433 44.8832 226.054 41.5993C262.842 32.04 302.89 30.9189 338.878 44.4566C340.628 45.1158 346.141 47.2861 348.006 48.008C376.458 59.2735 407.979 62.6371 438.175 57.6534C448.244 55.9547 458.181 53.4128 467.825 50.0737C472.961 48.3524 477.959 46.2612 483.081 44.3918C490.257 42.1285 497.501 39.1704 504.684 37.0448C546.23 23.935 591.721 21.5436 633.674 34.2237C642.04 36.7005 650.171 40.0406 658.261 42.9098C667.449 46.022 676.914 48.359 686.467 50.0533C702.378 52.8511 718.72 53.6852 734.855 53.1804C770.61 52.0495 805.643 43.6865 839.62 32.9201C846.653 30.9675 854.563 28.7171 861.676 26.9622C887.058 20.7214 913.354 17.1894 939.507 18.9968C956.905 20.1824 974.223 23.7856 990.277 30.541L990.081 31.0355L990.08 31.0302Z" fill="#B861B3"/>
<path d="M981.34 5.58911C935.505 -11.3331 883.899 -7.33699 838.875 10.2897C835.856 11.5019 832.813 12.7739 829.953 14.1688C823.034 16.7424 816.073 18.9356 809.002 20.9752C756.746 35.3509 699.396 42.4943 647.101 24.6919C640.271 22.28 633.323 20.2361 626.252 18.6719C583.733 9.27046 538.825 15.117 498.248 29.9969C494.881 31.2654 491.497 32.6198 488.289 34.0869L488.444 34.004C486.908 34.9065 485.428 35.6678 483.901 36.4423C442.794 56.4063 393.79 58.7507 350.608 44.1391C347.205 43.0175 344.33 41.9096 341.13 40.7823C312.92 30.8484 282.164 29.2981 252.75 34.1859C233.046 37.4425 213.734 43.2876 195.454 51.3619C189.368 54.0814 183.328 56.9683 177.563 60.3187L177.283 59.8662C188.727 52.862 201.012 47.3319 213.565 42.6324C252.814 27.9792 296.948 23.5411 337.407 36.0424C339.01 36.566 340.633 37.0514 342.227 37.6074L346.979 39.2665C373.501 48.6973 402.199 51.9123 430.124 48.3019C446.511 46.1728 462.682 41.9399 477.833 35.3123C480.836 33.9894 483.932 32.5391 486.755 30.9389C490.199 29.4111 493.606 28.1033 497.081 26.8396C545.065 9.84306 599.23 5.64853 647.696 23.0169C692.509 38.6556 741.636 33.9976 787.078 23.4177C800.895 20.1162 815.811 15.7127 828.482 11.0174C834.483 8.09532 840.553 5.7648 846.819 3.59372C877.832 -6.98402 911.437 -11.1229 943.909 -5.83392C956.861 -3.75139 969.549 -0.0757256 981.542 5.09968L981.346 5.59412L981.34 5.58911Z" fill="#B861B3"/>
</g>
<path d="M106.012 60.4634C109.324 55.5365 113.747 51.3178 118.937 48.4035C126.273 44.2313 136.05 43.1902 143.107 48.4964C146.05 50.6792 148.188 53.7174 149.564 57.0614C150.001 58.1025 150.451 59.488 150.64 60.4517C151.001 61.5161 151.504 62.5843 152.058 63.5944C154.789 68.6645 159.502 72.7051 165.115 74.1448C167.33 74.7022 173.635 74.9266 175.913 74.8028L177.252 76.7379C174.815 76.6025 167.04 76.2038 164.728 75.4491C158.949 73.5914 154.184 69.2837 151.357 63.9737C150.784 62.9016 150.272 61.8141 149.885 60.6336C148.615 55.0759 144.741 50.0019 139.373 47.9932C136.758 46.9483 133.869 46.6812 131.072 46.7625C125.929 46.7315 120.901 48.4384 116.509 51.225C112.6 53.7097 109.099 56.9491 106.333 60.6723L106.008 60.4595L106.012 60.4634Z" fill="#8AA7F2"/>
<path d="M106.042 60.5089C114.676 52.2845 129.894 48.4877 141.274 52.3232C144.268 53.4108 147.119 55.1563 149.078 57.7068C149.694 58.4576 150.395 59.7464 150.608 60.474C151.096 61.2713 151.774 62.0415 152.479 62.7227C156.074 66.1827 161.055 67.874 165.927 68.5126C167.694 68.7487 171.445 68.8106 173.235 68.8029L174.573 70.7381L172.125 70.56C166.965 70.0337 158.367 68.6055 154.168 65.4512C152.491 64.1663 150.98 62.6995 149.927 60.8262C149.198 59.0265 147.723 57.4668 146.135 56.3406C139.662 51.8394 128.875 52.2342 121.435 53.9487C116.035 55.2801 110.833 57.4978 106.305 60.7953L106.042 60.5089Z" fill="#8AA7F2"/>
<path d="M106.117 60.5562C111.447 58.6791 117.063 57.7812 122.672 57.2394C128.296 56.7401 133.955 56.6201 139.583 57.2781C141.457 57.5064 143.328 57.8199 145.176 58.265C146.919 58.6985 148.716 59.1823 150.219 60.2079C150.327 60.293 150.416 60.3472 150.56 60.4827L150.482 60.4169C150.819 60.5988 151.257 60.7768 151.671 60.9161C157.295 62.7042 163.311 62.8126 169.167 62.859L171.898 62.8165V64.7516C170.224 64.6974 168.001 64.6007 166.363 64.4845C162.671 64.2098 158.988 63.7918 155.374 62.9442C153.523 62.4836 151.698 62.0115 150.021 61.0478C149.367 60.4788 148.441 60.2427 147.62 59.9718C144.963 59.2287 142.201 59.0236 139.447 58.8842C132.061 58.6249 124.624 58.7256 117.253 59.399C113.562 59.7512 109.863 60.2002 106.226 60.9316L106.113 60.5601L106.117 60.5562Z" fill="#8AA7F2"/>
<path d="M106.23 60.6403C117.152 62.7225 128.362 63.0437 139.447 62.6877C141.748 62.5716 144.049 62.409 146.295 61.9252C147.554 61.6272 148.929 61.3369 149.979 60.5629C151.636 59.5411 153.515 59.0999 155.374 58.6239C158.988 57.7763 162.672 57.3582 166.363 57.0834C168.001 56.9635 170.244 56.8745 171.898 56.8164V58.7516C170.248 58.7167 168.055 58.6973 166.436 58.7283C162.811 58.8057 159.166 59.0263 155.595 59.6688C153.871 59.9978 152.051 60.3809 150.482 61.155C150.134 61.5265 148.743 62.2271 147.922 62.5018C145.234 63.4462 142.399 63.93 139.583 64.2899C132.084 65.1298 124.515 64.7466 117.075 63.6436C113.36 63.0553 109.669 62.289 106.117 61.0118L106.23 60.6403Z" fill="#8AA7F2"/>
<path d="M106.302 60.7689C112.882 65.5255 120.823 68.1651 128.883 68.7301C134.801 68.9701 141.13 68.6411 146.135 65.2236C147.719 64.0935 149.202 62.5376 149.923 60.7341C150.98 58.857 152.487 57.394 154.168 56.1091C158.367 52.9548 163.619 51.5305 168.778 51.0003L174.573 50.8223L173.235 52.7574L168.902 52.7884C163.026 53.1057 156.829 54.6693 152.479 58.8415C151.828 59.4259 150.941 60.5522 150.635 61.0244C149.9 63.1027 148.505 64.7669 146.84 66.1409C138.988 72.5849 125.416 71.4239 116.55 67.72C112.704 66.0867 109.048 63.9542 106.042 61.0553L106.305 60.7689H106.302Z" fill="#8AA7F2"/>
<path d="M106.498 60.8937C113.474 69.687 124.703 76.6845 136.269 74.3739C143.074 73.1703 148.381 67.6048 150.05 60.9285C150.418 59.7403 150.91 58.6412 151.468 57.5614C154.214 52.1739 159.021 47.7927 164.85 45.9776C167.182 45.2499 176.315 44.8784 178.751 44.8242L177.413 46.7594C175.139 46.7168 167.511 46.9683 165.319 47.5527C158.649 49.3253 153.23 54.7205 150.801 61.1104C149.907 65.6348 147.277 70.3333 143.372 73.2128C139.658 76.0188 134.855 76.9902 130.273 76.6767C122.623 76.1852 115.701 72.1756 110.542 66.7223C108.912 64.9884 107.409 63.1384 106.173 61.1027L106.498 60.8898V60.8937Z" fill="#8AA7F2"/>
</g>
</svg>
