<svg width="731" height="165" viewBox="0 0 731 165" fill="none" xmlns="http://www.w3.org/2000/svg">
<mask id="mask0_1279_163" style="mask-type:alpha" maskUnits="userSpaceOnUse" x="0" y="0" width="731" height="165">
<rect width="731" height="165" fill="#D9D9D9"/>
</mask>
<g mask="url(#mask0_1279_163)">
<g opacity="0.5">
<path d="M326.649 214.094C357.604 189.112 402.786 169.701 445.988 189.011C453.108 192.475 460.451 195.694 467.647 197.796C498.8 207.615 522.535 196.318 544.751 178.163C550.23 173.85 555.471 169.26 560.751 164.63C588.963 138.612 617.839 127.471 657.955 133.875C668.953 135.517 680.006 138.553 691.046 141.808C701.973 144.874 712.921 147.072 723.724 148.195C778.644 154.564 814.472 125.948 853.895 94.085C859.356 89.6906 865.062 85.6404 871.042 82.1526C891.852 69.9688 916.5 63.724 942.41 69.9623C946.094 70.9055 949.778 72.0318 953.43 73.7596L953.352 74.2382C951.562 73.4211 949.728 72.783 947.905 72.2112C920.354 64.1127 893.978 71.0195 872.137 84.2621C866.262 87.8342 860.698 91.9298 855.341 96.4036C816.291 128.958 779.331 159.116 724.14 151.826C711.341 150.349 698.423 147.341 685.525 143.441C669.149 138.491 652.661 135.469 636.76 135.613C615.478 135.605 595.776 142.576 579.221 154.963C570.838 161.042 563.102 168.293 555.188 175.194C536.557 191.222 515.703 206.496 489.802 205.388C475.211 205.034 460.113 199.635 445.574 192.197C408.993 175.624 373.451 186.65 344.178 203.051C338.239 206.515 332.411 210.244 326.941 214.548L326.649 214.094Z" fill="#B861B3"/>
<path d="M937.807 52.1255C901.093 46.1401 866.14 55.8781 839.237 78.5418C835.913 81.3494 828.813 87.1794 825.345 90.0736C779.962 128.296 738.805 144.928 675.292 127.137C643.173 118.545 610.72 119.869 584.696 135.747C581.944 137.405 578.862 139.391 576.24 141.289C566.484 148.142 557.897 156.794 548.749 164.635C540.767 171.269 532.797 177.862 523.951 183.075C504.573 194.851 481.48 197.212 457.374 189.49C454.65 188.67 451.925 187.707 449.216 186.661L446.504 185.598C430.516 178.997 414.233 177.404 399.068 179.452C375.318 182.686 353.751 193.426 334.804 207.83C332.1 209.918 329.439 212.094 326.905 214.434L326.596 213.993C329.119 211.587 331.745 209.361 334.427 207.211C353.293 192.362 374.709 181.225 398.556 177.546C412.207 175.516 426.734 176.241 441.278 181.086C443.318 181.848 447.49 183.297 449.392 184.053C452.072 185.041 454.739 185.951 457.414 186.71C481.23 193.924 503.046 191.139 522.169 179.604C533.734 172.736 544.287 163.876 554.549 154.757C563.537 146.589 572.857 138.733 583.16 132.751C613.446 115.038 646.597 115.818 683.321 126.009C707.408 131.812 731.496 132.528 753.449 126.607C779.702 119.806 802.142 103.932 823.489 87.0796C834.055 78.7596 845.029 69.2839 856.847 63.2064C877.793 51.9949 901.945 47.3116 927.013 50.0561C930.583 50.438 934.175 50.982 937.76 51.6002L937.804 52.1205L937.807 52.1255Z" fill="#B861B3"/>
<path d="M922.2 29.9965C895.735 26.673 866.365 34.762 844.346 46.5465C842.913 47.3292 841.32 48.1223 839.998 48.9516C838.153 50.1031 835.291 51.7495 833.65 52.8897L831.592 54.3113C830.278 55.238 828.713 56.2146 827.5 57.1861C811.579 69.6649 796.503 83.6977 779.291 94.1229C751.352 111.74 718.903 119.976 683.869 114.612C682.524 114.39 679.879 113.933 678.534 113.699C673.629 112.818 667.501 111.319 662.589 110.352C656.594 109.245 650.18 108.404 644.238 108.021C614.651 105.953 587.106 115.478 565.233 133.982C558.682 139.271 552.647 145.427 546.283 151.074C534.666 161.066 523.018 171.445 509.066 177.281C492.874 184.388 474.158 185.476 455.336 181.043C450.903 180.082 446.375 178.581 441.961 177.273L439.33 176.496L438.012 176.108L436.698 175.807L434.068 175.213L432.752 174.919L432.094 174.772L431.437 174.666L426.194 173.844L420.981 173.363C387.817 171.504 358.417 186.418 334.262 207.253C331.719 209.503 329.22 211.833 326.858 214.33L326.536 213.907C331.23 208.796 336.325 204.258 341.595 200.006C366.763 179.982 397.698 166.457 431.918 172.181C433.661 172.55 436.198 173.072 437.957 173.446C438.658 173.633 441.218 174.365 441.993 174.574C469.53 183.426 493.817 182.306 516.355 169.342C524.998 164.448 532.799 157.976 540.482 151.383C542.909 149.385 545.903 146.869 548.159 144.756C582.785 110.413 619.479 97.3987 670.418 109.251C710.37 118.459 745.853 110.809 777.524 90.8056C795.036 80.2026 810.341 65.9577 826.891 53.6502C828.813 52.3763 831.286 50.7329 833.228 49.4858L834.315 48.8536L838.669 46.3332C853.291 38.2784 869.286 32.7636 885.953 29.9924C890.908 29.2032 896.096 28.5797 901.198 28.3786C908.06 28.0473 915.054 28.2576 922.142 29.4644L922.186 29.9848L922.2 29.9965Z" fill="#B861B3"/>
<path d="M906.598 7.86352C885.735 5.15936 866.171 10.1322 848.181 17.8004C836.162 22.9571 824.792 29.5754 814.048 37.2555C808.653 41.0935 803.574 45.3578 798.498 49.7211C778.228 67.3564 756.237 82.9947 731.135 91.4467C711.611 98.1985 690.261 100.461 668.344 97.1472C666.791 96.8853 662.105 96.0398 660.461 95.7581C629.161 89.6497 598.77 95.3897 574.102 111.752C568.606 115.308 563.315 119.374 558.315 123.752C553.229 128.15 548.562 132.994 543.627 137.67C541.253 139.679 538.442 142.341 536.204 144.493C531.3 149.191 526.192 153.658 520.742 157.52C500.302 172.508 474.595 177.493 447.9 171.714C442.672 170.589 437.409 169.104 432.217 168.39C404.351 164.098 378.61 172.934 356.854 187.539C348.63 193.057 340.892 199.455 333.736 206.661C331.354 209.072 329.026 211.566 326.844 214.227L326.507 213.822C328.66 211.084 330.951 208.535 333.299 206.056C340.36 198.649 348.014 192.039 356.163 186.31C377.876 171.107 403.826 161.753 431.972 165.632C438.936 166.502 445.96 168.627 452.929 169.589C477.078 173.189 500.211 167.65 518.944 154.37C525.671 149.746 531.923 143.94 537.986 138.217C544.389 132.779 550.187 126.548 556.601 121.105C571.906 107.868 589.601 98.1345 609.132 93.7631C625.339 90.0419 642.782 90.0458 660.323 93.3457C661.609 93.5814 666.789 94.4258 668.139 94.6693C682.814 96.7535 697.316 96.3817 711.06 93.73C737.056 88.6903 760.304 75.8027 781.15 59.4643C791.712 51.3652 801.466 41.8744 812.393 34.3459C834.315 19.4552 858.804 8.17492 885.883 6.26886C892.646 5.8384 899.577 6.15323 906.572 7.35333L906.616 7.87371L906.598 7.86352Z" fill="#B861B3"/>
<path d="M890.993 -14.2695C856.384 -18.8037 825.831 -4.02884 800.43 16.4644C795.34 20.585 790.284 24.9519 785.291 29.2557C765.585 47.3101 743.981 62.8745 719.61 72.3491C701.358 79.4138 681.498 82.9974 660.804 81.0022C654.799 80.3328 648.735 79.2498 642.789 78.8866C607.812 76.3269 576.076 90.406 551.374 113.643C547.176 117.423 543.057 122.201 538.939 126.084C536.062 129.13 533.309 132.402 530.323 135.359C524.961 140.778 519.171 145.612 512.96 149.686C492.972 163.131 468.476 167.751 443.092 163.323L437.908 162.469L435.345 162.058C405.222 157.55 377.466 167.926 354.921 185.435C349.736 189.436 344.725 193.867 340.038 198.625C335.333 203.402 330.821 208.481 326.799 214.112L326.445 213.726C328.408 210.822 330.521 208.102 332.693 205.456C339.227 197.548 346.434 190.427 354.151 184.18C376.649 165.986 404.579 155.042 435.062 159.092C436.544 159.29 441.25 160.003 442.837 160.232C467.146 163.971 490.7 159.411 510.227 147.209C516.725 143.105 522.817 138.229 528.406 132.664C531.404 129.755 534.167 126.526 537.101 123.479C541.341 119.55 545.373 114.94 549.67 111.14C574.222 88.3836 605.533 74.8858 639.921 76.6466C646.759 76.9482 653.751 78.1318 660.539 78.8762C668.194 79.5817 675.759 79.4789 683.147 78.7413C695.444 77.489 707.319 74.2563 718.553 69.7965C743.44 59.9023 765.139 43.2822 785.201 24.6288C789.456 21.0311 794.221 16.9328 798.606 13.504C814.26 1.28929 831.564 -8.56518 850.743 -13.2875C863.496 -16.4452 877.087 -17.2752 890.951 -14.7849L890.995 -14.2645L890.993 -14.2695Z" fill="#B861B3"/>
<path d="M875.39 -36.3958C836.684 -41.249 801.638 -24.7118 776.297 3.21347C774.609 5.11498 772.927 7.07928 771.418 9.11597C767.474 13.2784 763.359 17.088 759.11 20.7782C727.447 47.3834 689.5 68.3407 645.897 64.2399C640.17 63.6215 634.495 63.3835 628.912 63.6337C595.338 65.1418 565.718 81.7938 542.507 106.001C540.594 108.042 538.7 110.169 536.973 112.36L537.052 112.243C536.299 113.483 535.533 114.575 534.739 115.691C513.036 144.882 479.219 159.201 443.247 155.899C440.424 155.667 437.979 155.318 435.296 155.031C411.653 152.504 389.31 158.606 370.301 170.523C357.561 178.49 346.057 188.83 336.108 201.044C332.807 205.14 329.601 209.385 326.761 214.004L326.395 213.642C331.902 204.135 338.549 195.827 345.695 188.246C368.049 164.583 397.642 149.466 430.906 151.425C432.235 151.529 433.563 151.593 434.898 151.73L438.875 152.142C461.138 154.606 482.64 150.6 501.068 140.269C511.878 134.197 521.756 126.17 530.026 116.108C531.661 114.105 533.316 111.957 534.721 109.734C536.593 107.426 538.521 105.338 540.512 103.275C568.181 75.2214 604.965 57.8641 645.698 62.4944C683.205 66.3745 716.252 49.8165 744.497 28.5147C753.054 21.9569 761.981 14.0762 769.211 6.47037C772.376 2.20171 775.81 -1.51948 779.441 -5.13653C797.475 -22.8792 819.727 -35.1147 844.668 -38.0716C854.606 -39.2768 864.947 -38.8962 875.351 -36.9128L875.395 -36.3924L875.39 -36.3958Z" fill="#B861B3"/>
</g>
<path d="M313.361 61.0988C304.398 67.4732 293.69 77.2595 295.322 89.2853C295.773 92.0099 296.77 94.7576 298.762 96.7248C305.099 102.595 315.928 101.343 323.877 100.005L323.997 100.447C315.647 103.117 304.254 104.806 297.172 98.3207C292.562 93.6826 291.906 86.0803 294.158 80.1882C295.254 77.2172 296.962 74.5458 298.931 72.1741C302.881 67.4747 307.821 63.7035 313.221 60.8614L313.352 61.1012L313.361 61.0988Z" fill="#8AA7F2"/>
<path d="M313.44 61.0772C303.34 69.2481 298.636 81.6648 304.612 93.7231C308.13 100.572 317.053 101.609 323.898 100.009L324.026 100.448C316.744 102.717 307.182 101.91 302.903 94.7348C297.276 85.485 300.539 73.3528 307.593 65.9184C309.305 64.0336 311.184 62.3123 313.276 60.8559L313.432 61.0796L313.44 61.0772Z" fill="#8AA7F2"/>
<path d="M313.533 61.0333C307.747 68.4575 307.603 78.6476 310.217 87.3156C311.231 92.0605 313.353 97.2848 318.051 99.3661C319.852 100.17 321.976 100.413 323.93 99.9902L324.067 100.428C321.997 101.053 319.765 100.972 317.694 100.259C307.677 96.397 305.57 81.3116 307.7 72.0467C308.703 67.9243 310.458 63.95 313.329 60.8416L313.524 61.0357L313.533 61.0333Z" fill="#8AA7F2"/>
<path d="M313.637 60.9581C312.921 67.906 314.629 74.9021 316.41 81.5748C317.79 86.5818 318.519 91.8497 320.786 96.5602C321.503 97.8467 322.331 99.8244 323.942 99.9967L324.124 100.422C323.498 100.6 323.067 100.337 322.638 100.121C321.464 99.3561 320.671 98.1755 319.955 97.0312C318.126 93.9478 316.895 90.58 315.755 87.1972C313.993 82.1796 313.391 76.7826 312.926 71.5098C312.712 67.9721 312.607 64.3856 313.382 60.894L313.648 60.9646L313.637 60.9581Z" fill="#8AA7F2"/>
<path d="M313.671 60.8063C316.1 63.4431 317.813 66.5952 319.41 69.7696C322.588 76.1696 324.929 82.9474 325.777 90.0618C326.067 93.1426 326.644 96.5447 325.247 99.4547C324.974 99.8508 324.7 100.276 324.085 100.423L324.028 99.9639C324.288 99.8747 324.579 99.5115 324.733 99.1665C325.749 96.3214 324.895 93.1932 324.355 90.3126C323.614 86.8979 322.313 83.6248 321.451 80.2524C319.629 73.5716 317.592 66.6549 313.474 60.9922L313.669 60.7975L313.671 60.8063Z" fill="#8AA7F2"/>
<path d="M313.686 60.7548C322.849 63.7375 329.457 72.438 331.844 81.5657C333.094 86.6928 333.327 92.901 329.604 97.1028C328.165 98.7338 326.261 99.9023 324.142 100.417L324.04 99.9702C325.948 99.3415 327.68 98.0962 328.861 96.4967C332.684 91.3953 330.633 84.7099 328.847 79.215C326.521 71.4749 321.306 64.135 313.596 61.0164L313.666 60.7507L313.686 60.7548Z" fill="#8AA7F2"/>
<path d="M313.725 60.7254C318.82 61.1818 323.806 62.749 328.212 65.4023C335.893 69.9612 341.855 79.7847 338.982 88.8612C336.778 95.2145 330.353 98.8644 324.174 100.399L324.063 99.9544C330.802 97.8896 338.089 92.5839 337.77 84.862C337.267 77.6546 333.676 70.569 327.538 66.4191C323.475 63.5972 318.652 61.7582 313.695 60.9992L313.716 60.7278L313.725 60.7254Z" fill="#8AA7F2"/>
<path d="M313.778 60.7111C322.842 60.4095 332.717 61.9859 340.04 67.8557C344.952 71.8528 348.18 78.7896 346.447 85.1298C343.428 94.2646 332.787 98.4638 324.202 100.401L324.083 99.9586C331.61 97.1592 341.744 92.736 344.291 84.5255C345.673 78.9917 342.835 73.1164 338.664 69.4699C336.5 67.5682 333.915 66.1119 331.21 64.9446C325.706 62.6538 319.726 61.4494 313.776 60.9867L313.769 60.7135L313.778 60.7111Z" fill="#8AA7F2"/>
<path d="M324.149 100.168C334.874 97.4073 347.201 100.305 351.546 111.484C353.098 115.62 354.071 119.645 356.397 123.344C359.418 128.354 364.822 132.522 370.883 132.062L371.183 134.334C363.874 134.741 357.58 129.523 354.476 123.293C352.505 119.821 351.636 115.578 350.364 111.955C347.653 104.158 340.148 99.8645 332.106 99.7383C329.472 99.6428 326.805 99.8501 324.227 100.422L324.155 100.157L324.149 100.168Z" fill="#8AA7F2"/>
<path d="M324.149 100.168C334.571 97.9729 341.846 105.734 344.676 115.027C345.232 116.632 345.757 118.331 346.271 119.919C346.57 120.711 347.186 122.291 347.494 123.08C349.729 127.989 353.273 134.585 359.16 135.235L359.311 137.519C358.82 137.528 358.548 137.469 358.192 137.413C353.581 136.428 350.381 132.339 348.216 128.464C346.845 125.95 345.761 123.093 344.875 120.372C344.425 118.776 343.929 116.936 343.456 115.394C341.112 106.426 334.256 98.5986 324.225 100.414L324.153 100.148L324.149 100.168Z" fill="#8AA7F2"/>
<path d="M324.15 100.168C331.655 99.6801 335.907 112.659 337.708 118.454C339.434 124.079 341.246 129.775 344.288 134.789C345.034 135.973 345.826 137.078 346.873 137.972C347.121 138.152 347.373 138.349 347.635 138.44C347.635 138.44 347.715 138.456 347.566 138.43L347.297 140.704C346.267 140.507 345.527 139.768 344.818 139.077C340.106 133.318 338.401 125.771 336.458 118.781C334.718 112.648 332.673 104.576 326.957 101.043C326.118 100.605 325.13 100.283 324.201 100.429L324.13 100.164L324.15 100.168Z" fill="#8AA7F2"/>
<path d="M324.318 100.265L336.747 142.459L334.536 143.056C334.743 142.943 323.488 99.9671 324.318 100.265Z" fill="#8AA7F2"/>
<path d="M324.221 100.434C317.975 104.007 321.319 116.785 322.868 122.458C324.705 129.476 327.037 136.854 325.852 144.204C325.587 145.157 325.328 146.166 324.528 146.857L323.152 145.027C323.045 145.122 323.103 145.059 323.097 145.07C323.277 144.86 323.399 144.571 323.52 144.282C323.976 142.983 324.104 141.63 324.154 140.231C324.473 130.269 320.114 120.829 319.865 110.906C319.926 107.123 320.224 102.005 324.143 100.179L324.215 100.445L324.221 100.434Z" fill="#8AA7F2"/>
<path d="M324.221 100.434C319.938 101.931 316.46 105.497 315.077 109.76C313.243 115.198 314.481 120.983 315.966 126.379C316.863 129.704 317.469 133.288 317.585 136.738C317.654 141.179 316.954 146.32 313.464 149.491C313.184 149.718 312.97 149.909 312.55 150.145L311.532 148.096C316.293 144.572 316.045 137.078 315.501 131.722C315.37 130.885 315.107 129.21 314.967 128.375C314.61 126.735 314.212 125.012 313.885 123.344C312.893 118.821 312.701 113.892 314.353 109.5C315.977 105.077 319.711 101.546 324.149 100.168L324.221 100.434Z" fill="#8AA7F2"/>
<path d="M324.221 100.433C315.693 103.143 307.219 110.097 307.13 119.684C306.999 124.33 308.979 128.681 309.446 133.365C310.358 140.927 307.925 149.667 300.676 153.359L299.793 151.244C305.26 148.583 307.827 142.274 307.928 136.422C307.92 134.916 307.859 133.073 307.624 131.571C307.128 127.729 305.676 123.681 305.969 119.636C306.238 112.686 310.893 106.696 316.777 103.362C319.093 101.997 321.55 100.907 324.141 100.171L324.212 100.436L324.221 100.433Z" fill="#8AA7F2"/>
<path d="M447.83 60.002C443.021 59.4614 438.199 59.1721 433.38 58.4539C430.98 58.083 428.535 57.6411 426.239 56.446C420.135 53.3057 422.868 46.343 427.993 43.8395C434.577 40.3906 442.239 40.2214 449.472 40.5461L449.437 40.9637C442.379 40.2585 434.75 41.1371 428.688 44.975C425.99 46.7328 423.441 49.8157 424.791 52.9668C426.456 55.9595 430.346 56.818 433.534 57.7266C438.228 58.8296 443.07 59.2804 447.874 59.5767L447.839 59.9944L447.83 60.002Z" fill="#BF910F"/>
<path d="M447.829 60.002C446.042 59.851 444.263 59.6924 442.482 59.4663C438.889 58.8686 434.821 58.9205 432.197 55.8216C429.793 52.5057 431.377 47.6925 434.134 45.132C438.199 41.3274 444.087 40.2512 449.471 40.5544L449.436 40.9721C445.925 40.7092 442.246 41.1306 439.154 42.872C434.833 45.1237 431.069 50.3503 433.386 54.9882C436.619 59.1564 443.015 59.0234 447.865 59.5843L447.829 60.002Z" fill="#BF910F"/>
<path d="M447.83 60.0021C445.436 59.7579 442.656 59.5989 440.869 57.7485C437.713 53.6792 439.715 47.1008 442.927 43.6448C444.624 41.8699 446.916 40.3386 449.473 40.5461L449.438 40.9638C447.05 40.7454 444.817 42.1806 443.557 44.144C441.62 47.0597 439.827 54.0512 441.518 57.2396C442.809 59.292 445.656 59.3474 447.866 59.576L447.831 59.9937L447.83 60.0021Z" fill="#BF910F"/>
<path d="M447.639 59.7754C448.142 56.6123 447.532 53.3722 447.824 50.2082C448.138 47.0882 449.18 43.9118 449.246 40.7455L449.663 40.7807C449.527 42.1995 449.354 44.1452 449.462 45.5593C449.686 48.7837 449.528 51.9506 448.658 55.0743C448.24 56.6375 448.207 58.2332 448.056 59.819L447.638 59.7837L447.639 59.7754Z" fill="#BF910F"/>
<path d="M447.865 59.5842C450.082 59.7376 452.9 60.1438 454.508 58.3361C456.718 55.4771 456.12 48.3089 454.692 45.0923C453.779 42.9539 451.837 41.1409 449.437 40.9636L449.473 40.5459C450.726 40.6517 451.918 41.1814 452.887 41.9532C457.61 45.406 459.664 54.6657 455.079 58.948C453.006 60.4809 450.232 60.1541 447.831 59.9935L447.866 59.5758L447.865 59.5842Z" fill="#BF910F"/>
<path d="M447.866 59.5843C452.765 59.8465 459.009 61.0299 462.91 57.4807C465.98 53.2977 463.12 47.5202 459.244 44.5933C456.478 42.3742 452.944 41.285 449.436 40.9804L449.472 40.5627C454.84 41.159 460.475 43.166 463.833 47.6393C467.741 53.0761 466.058 60.2453 458.621 60.4419C454.997 60.6155 451.433 60.2809 447.838 60.011L447.873 59.5934L447.866 59.5843Z" fill="#BF910F"/>
<path d="M447.865 59.5843C453.661 60.0905 467.867 61.7274 471.721 56.9375C473.63 54.0614 471.484 50.4729 469.201 48.4208C463.846 43.6863 456.512 41.4685 449.428 40.9714L449.463 40.5537C456.674 41.4402 464.206 42.8164 470.105 47.3781C474.711 50.7201 476.238 58.0424 469.71 60.133C467.245 60.9261 464.759 60.9687 462.331 60.9319C457.459 60.8403 452.662 60.2586 447.829 60.002L447.865 59.5843Z" fill="#BF910F"/>
<path d="M432.507 58.1278C433.357 60.1178 433.55 62.5234 432.663 64.5519C431.956 66.259 431.481 67.7922 431.955 69.5486L432.118 70.3111C432.373 71.3843 432.428 72.6257 432.048 73.7378C431.684 74.8597 431.08 75.7342 430.676 76.6339C429.833 78.439 429.867 80.5367 430.114 82.5936L429.703 82.6767C429.104 80.6069 428.894 78.3092 429.7 76.2319C430.514 74.2646 431.538 72.702 430.893 70.5778C430.665 69.591 430.413 68.3919 430.577 67.2447C430.733 66.0885 431.225 65.0447 431.656 64.1303C432.613 62.2593 432.539 60.2506 432.094 58.2443L432.491 58.1181L432.507 58.1278Z" fill="#BF910F"/>
<path d="M440.298 58.8275C440.731 60.8748 440.765 63.0652 440.289 65.1199C439.78 67.155 439.568 68.9712 439.804 71.0608C440.056 73.1518 439.397 75.3762 438.764 77.2998C438.223 79.2229 438.118 81.2585 438.071 83.3157L437.657 83.3397C437.08 80.3042 437.644 77.0118 438.439 74.0753C438.845 72.0567 438.275 70.0315 438.534 67.9585C438.659 66.8837 438.95 65.8313 439.233 64.8625C439.833 62.936 439.935 60.9339 439.873 58.8758L440.29 58.8268L440.298 58.8275Z" fill="#BF910F"/>
<path d="M448.081 59.5267C448.035 65.6477 447.537 71.84 446.848 77.9151C446.609 79.9478 446.353 81.979 446.013 84.0116L445.596 83.9763C445.601 81.9239 445.689 79.8785 445.795 77.8262C446.056 72.7497 446.534 67.5823 447.196 62.5313C447.349 61.5177 447.477 60.5021 447.663 59.4914L448.081 59.5267Z" fill="#BF910F"/>
<path d="M455.854 60.225C455.001 63.451 455.628 66.1878 455.651 69.3953C455.559 71.4824 454.659 73.3752 454.72 75.4416C455.019 78.4788 455.024 81.8109 453.938 84.7059L453.534 84.6129C454.144 81.4674 453.907 78.6036 453.515 75.466C453.365 73.3584 454.292 71.3502 454.43 69.3174C454.48 66.2339 454.109 63.0477 455.443 60.1062L455.845 60.2243L455.854 60.225Z" fill="#BF910F"/>
<path d="M463.629 60.915C462.853 62.8267 462.444 64.7861 463.074 66.7911C463.345 67.7647 463.655 68.8762 463.615 70.0424C463.593 71.2015 463.144 72.3331 462.745 73.2753C461.753 75.2612 462.499 76.9817 462.972 79.0492C463.42 81.224 462.827 83.4624 461.889 85.4024L461.498 85.2516C462.087 83.2569 462.472 81.1944 461.943 79.2821C461.705 78.3196 461.256 77.3563 461.076 76.1969C460.759 74.4706 461.571 72.9322 462.121 71.3969C462.615 69.9243 462.348 68.6061 462.009 67.0378C461.483 64.8985 462.068 62.5585 463.24 60.7308L463.611 60.922L463.629 60.915Z" fill="#BF910F"/>
<path d="M185.228 78.3921C177.76 78.6935 170.331 79.3816 162.805 79.4143C159.054 79.4104 155.218 79.3084 151.431 78.022C141.377 74.6578 143.918 63.3874 151.156 58.3643C160.4 51.5562 172.058 49.5026 183.177 48.3034L183.221 48.9493C172.28 49.5263 160.838 52.6555 152.483 59.9352C148.776 63.251 145.607 68.5548 148.406 73.0495C151.65 77.2284 157.79 77.6275 162.87 78.2677C170.295 78.8519 177.792 78.4057 185.196 77.7323L185.24 78.3783L185.228 78.3921Z" fill="#B861B3"/>
<path d="M185.228 78.3918C182.463 78.5803 179.711 78.7549 176.938 78.8271C171.313 78.7562 165.115 79.7887 160.382 75.6724C155.935 71.1732 157.226 63.4535 160.835 58.8984C166.15 52.1374 174.887 49.1148 183.178 48.316L183.222 48.962C177.8 49.3835 172.282 50.8888 167.97 54.2717C161.901 58.7219 157.378 67.5835 162.003 74.1213C167.914 79.7277 177.649 78.0258 185.184 77.7459L185.228 78.3918Z" fill="#B861B3"/>
<path d="M185.229 78.3919C181.516 78.5801 177.235 78.9887 174.073 76.5824C168.3 71.1093 169.816 60.5967 173.909 54.5679C176.086 51.4603 179.225 48.5856 183.178 48.3032L183.222 48.9492C179.525 49.1752 176.452 51.8896 174.989 55.1822C172.715 60.0876 171.615 71.1819 174.944 75.6535C177.395 78.4846 181.756 77.9018 185.184 77.7331L185.228 78.379L185.229 78.3919Z" fill="#B861B3"/>
<path d="M184.884 78.0911C184.91 73.1442 183.22 68.3403 182.925 63.4413C182.673 58.6043 183.52 53.5106 182.878 48.6612L183.524 48.6172C183.648 50.8152 183.84 53.8263 184.336 55.96C185.433 60.8302 185.934 65.7022 185.339 70.6749C185.067 73.1595 185.389 75.6036 185.531 78.06L184.885 78.104L184.884 78.0911Z" fill="#B861B3"/>
<path d="M185.185 77.7459C188.605 77.4609 193.002 77.4207 195.033 74.2841C197.738 69.4013 195.145 58.5976 192.212 54.0212C190.316 50.9705 186.927 48.6576 183.222 48.9491L183.178 48.3031C185.116 48.171 187.06 48.7004 188.721 49.6515C196.74 53.8163 202.045 67.4723 196.048 75.0845C193.243 77.9105 188.931 78.0616 185.228 78.3789L185.184 77.733L185.185 77.7459Z" fill="#B861B3"/>
<path d="M185.185 77.7462C192.727 76.9985 202.536 77.3422 207.66 71.0096C211.368 63.9039 205.647 55.7535 199.044 52.193C194.302 49.4531 188.651 48.6183 183.224 48.9752L183.18 48.3292C191.515 47.9818 200.589 49.7255 206.764 55.7682C214.003 63.1531 213.115 74.4926 201.806 76.5354C196.314 77.6495 190.794 77.9738 185.243 78.4042L185.199 77.7582L185.185 77.7462Z" fill="#B861B3"/>
<path d="M185.184 77.7462C194.152 77.161 216.225 76.3314 220.986 68.1155C223.226 63.2773 219.11 58.3013 215.143 55.7033C205.858 49.7298 194.141 48.0623 183.209 48.9632L183.165 48.3173C194.382 47.981 206.203 48.3175 216.279 53.8996C224.094 57.9227 228.141 68.744 218.664 73.4654C215.087 75.2538 211.302 75.9011 207.586 76.414C200.126 77.4157 192.666 77.6516 185.228 78.3922L185.184 77.7462Z" fill="#B861B3"/>
<path d="M161.397 79.1209C163.161 81.96 164.018 85.5876 163.14 88.8923C162.46 91.6643 162.095 94.1163 163.23 96.6866L163.657 97.8127C164.297 99.3914 164.672 101.274 164.353 103.061C164.06 104.859 163.343 106.335 162.937 107.804C162.074 110.757 162.616 113.952 163.475 117.034L162.867 117.257C161.467 114.238 160.609 110.779 161.353 107.419C162.135 104.224 163.331 101.599 161.849 98.507C161.27 97.0539 160.604 95.2822 160.585 93.4923C160.554 91.6904 161.06 89.9815 161.503 88.4847C162.526 85.4038 161.942 82.3546 160.793 79.3958L161.37 79.1098L161.397 79.1209Z" fill="#B861B3"/>
<path d="M173.455 78.3638C174.595 81.3881 175.16 84.7242 174.914 87.9727C174.615 91.199 174.717 94.0215 175.566 97.1565C176.442 100.29 175.957 103.84 175.441 106.925C175.065 109.988 175.383 113.12 175.792 116.272L175.165 116.406C173.574 111.907 173.663 106.748 174.189 102.079C174.336 98.9017 172.992 95.9432 172.902 92.7175C172.84 91.0474 173.037 89.3727 173.243 87.8271C173.708 84.7453 173.394 81.6646 172.818 78.537L173.442 78.3647L173.455 78.3638Z" fill="#B861B3"/>
<path d="M185.5 77.6081C186.864 86.964 187.555 96.5344 187.926 105.971C188.038 109.13 188.123 112.291 188.081 115.474L187.435 115.518C186.961 112.384 186.617 109.24 186.298 106.082C185.506 98.2705 185.026 90.2692 184.853 82.4026C184.849 80.8194 184.806 79.2389 184.854 77.6521L185.5 77.6081Z" fill="#B861B3"/>
<path d="M197.532 76.8529C196.986 81.978 198.584 86.0093 199.372 90.9007C199.72 94.1088 198.79 97.2094 199.367 100.35C200.535 104.917 201.323 110.003 200.344 114.677L199.704 114.63C199.899 109.685 198.865 105.368 197.533 100.67C196.81 97.4871 197.754 94.2039 197.488 91.068C196.842 86.3487 195.53 81.571 196.877 76.7677L197.519 76.8538L197.532 76.8529Z" fill="#B861B3"/>
<path d="M209.563 76.0842C208.827 79.1844 208.661 82.2718 210.092 85.1854C210.734 86.6083 211.468 88.2326 211.681 90.0222C211.919 91.7971 211.498 93.6299 211.11 95.162C210.06 98.4264 211.603 100.878 212.81 103.924C214.003 107.139 213.622 110.696 212.645 113.877L212.012 113.739C212.444 110.555 212.548 107.316 211.293 104.52C210.704 103.107 209.793 101.741 209.247 100.013C208.358 97.4521 209.237 94.9132 209.717 92.4404C210.127 90.0762 209.41 88.1263 208.525 85.8114C207.221 82.6685 207.565 78.9589 208.927 75.8939L209.538 76.0988L209.563 76.0842Z" fill="#B861B3"/>
</g>
</svg>
