<svg width="731" height="165" viewBox="0 0 731 165" fill="none" xmlns="http://www.w3.org/2000/svg">
<mask id="mask0_1279_1424" style="mask-type:alpha" maskUnits="userSpaceOnUse" x="0" y="0" width="731" height="165">
<rect width="731" height="165" fill="#D9D9D9"/>
</mask>
<g mask="url(#mask0_1279_1424)">
<g clip-path="url(#clip0_1279_1424)">
<path d="M267.481 99.4029C264.177 97.9226 260.262 98.0488 256.957 99.5011C253.639 101.017 250.377 102.679 247.163 104.419C243.964 106.18 240.814 108.039 237.776 110.06C233.917 112.754 222.215 120.479 227.365 125.663C233.826 131.03 250.419 130.673 258.873 130.883C266.176 130.883 273.431 130.897 280.699 130.273C289.448 129.508 309.801 127.193 295.973 115.532C287.518 108.58 277.43 103.851 267.481 99.4099V99.4029ZM267.628 99.0591C274.287 102.104 280.931 105.191 287.35 108.748C292.1 111.519 297.088 114.347 300.498 118.823C310.039 133.57 266.429 133.233 258.845 132.876C250.075 132.574 213.431 131.992 228.662 116.241C234.002 111.098 240.519 107.548 246.988 104.089C250.229 102.385 253.506 100.757 256.831 99.2065C260.199 97.7051 264.219 97.5437 267.635 99.0591H267.628Z" fill="#BF910F"/>
<path d="M261.314 98.4773C256.003 101.27 226.621 117.904 233.251 124.92C233.847 125.58 234.612 126.127 235.405 126.653C234.478 126.421 233.573 126.05 232.767 125.446C225 118.395 246.118 106.56 251.204 103.529C254.467 101.634 257.778 99.8384 261.153 98.1686L261.314 98.4843V98.4773Z" fill="#BF910F"/>
<path d="M261.77 98.4631C255.231 103.557 241.775 114.291 241.164 122.829C241.192 124.288 242.055 125.678 243.318 126.646C242.596 126.316 241.915 125.839 241.368 125.207C236.141 118.627 249.408 107.892 253.996 103.928C256.445 101.915 258.964 99.9855 261.566 98.1754L261.77 98.4631Z" fill="#BF910F"/>
<path d="M262.24 98.435C257.02 105.423 250.874 114.073 250.25 122.955C250.236 124.218 250.531 125.481 251.246 126.646C245.269 121.349 253.646 109.555 257.041 104.56C258.599 102.371 260.233 100.252 261.973 98.2035L262.24 98.428V98.435Z" fill="#BF910F"/>
<path d="M262.717 98.3648C260.858 106.496 259.722 114.768 259.301 123.075C259.23 124.274 259.237 125.425 259.167 126.646C257.196 122.121 258.515 116.971 259.209 112.305C260.079 107.584 261.132 102.911 262.374 98.2806L262.71 98.3648H262.717Z" fill="#BF910F"/>
<path d="M263.145 98.2666C265.145 104.363 271.031 121.426 267.088 126.653C267.158 125.397 267.2 124.253 267.193 123.075C267.123 114.684 265.236 106.405 262.815 98.3859L263.145 98.2736V98.2666Z" fill="#BF910F"/>
<path d="M263.546 98.2035C268.211 103.136 283.442 120.809 275.009 126.653C275.669 125.383 276.055 124.204 276.153 122.934C276.321 116.227 272.105 110.158 268.408 104.819C266.801 102.623 265.096 100.477 263.293 98.442L263.546 98.2035Z" fill="#BF910F"/>
<path d="M263.945 98.1754C269.937 102.111 292.254 117.139 285.14 125.362C284.516 125.993 283.751 126.428 282.93 126.653C283.477 126 283.99 125.404 284.382 124.765C288.353 118.227 276.118 108.152 271.543 104.286C269.032 102.252 266.436 100.301 263.756 98.4771L263.945 98.1824V98.1754Z" fill="#BF910F"/>
<path d="M264.359 98.1614C270.596 101.101 303.935 116.704 293.643 125.502C292.794 126.12 291.84 126.491 290.851 126.646C291.602 125.972 292.338 125.376 292.942 124.709C299.27 118.206 279.191 106.742 274.434 103.893C271.087 101.978 267.685 100.161 264.219 98.4771L264.366 98.1614H264.359Z" fill="#BF910F"/>
<path d="M229.273 127.677C243.361 138.776 271.613 138.853 287.778 132.329C290.444 131.241 293.082 129.894 295.292 128.119L295.776 128.624C293.559 130.687 290.935 132.104 288.227 133.381C273.08 139.983 251.246 140.06 236.211 133.086C233.531 131.76 230.942 130.273 228.768 128.161L229.266 127.67L229.273 127.677Z" fill="#BF910F"/>
</g>
<g clip-path="url(#clip1_1279_1424)">
<path d="M571.87 89.8055C569.275 88.8468 566.298 89.1441 563.853 90.4209C561.402 91.7465 559 93.1815 556.64 94.6728C554.292 96.1795 551.986 97.7585 549.774 99.4547C546.971 101.707 538.448 108.196 542.639 111.883C547.84 115.643 560.47 114.518 566.925 114.244C572.492 113.869 578.023 113.507 583.531 112.658C590.161 111.626 605.557 108.815 594.417 100.637C587.615 95.7716 579.682 92.6852 571.871 89.8109L571.87 89.8055ZM571.965 89.5359C577.197 91.515 582.42 93.5269 587.496 95.9086C591.259 97.7772 595.206 99.6762 598.035 102.913C606.066 113.665 572.806 115.648 567.006 115.764C560.306 115.985 532.343 117.423 543.145 104.634C546.95 100.44 551.736 97.3992 556.49 94.4305C558.873 92.9645 561.287 91.5555 563.742 90.2028C566.232 88.8853 569.288 88.5559 571.97 89.5356L571.965 89.5359Z" fill="#B2C8FF"/>
<path d="M567.121 89.4171C563.216 91.8184 541.673 106.007 547.087 111.015C547.576 111.487 548.187 111.865 548.818 112.225C548.1 112.096 547.391 111.859 546.745 111.441C540.463 106.465 555.953 96.3585 559.674 93.7869C562.064 92.1754 564.496 90.6362 566.983 89.1901L567.122 89.4225L567.121 89.4171Z" fill="#B2C8FF"/>
<path d="M567.469 89.3826C562.746 93.601 553.04 102.475 553.013 109.014C553.109 110.125 553.838 111.14 554.851 111.813C554.283 111.599 553.74 111.27 553.29 110.817C548.968 106.069 558.53 97.2051 561.824 93.9479C563.587 92.2872 565.408 90.6872 567.299 89.1737L567.469 89.3826Z" fill="#B2C8FF"/>
<path d="M567.825 89.337C564.205 94.9316 559.965 101.841 559.945 108.644C559.999 109.607 560.288 110.555 560.894 111.406C556.065 107.675 561.845 98.2549 564.177 94.2728C565.252 92.5242 566.389 90.8252 567.61 89.1742L567.825 89.3316L567.825 89.337Z" fill="#B2C8FF"/>
<path d="M568.186 89.259C567.186 95.5528 566.745 101.916 566.85 108.27C566.858 109.188 566.923 110.065 566.932 110.999C565.197 107.651 565.938 103.658 566.228 100.066C566.648 96.4217 567.211 92.8059 567.919 89.2125L568.18 89.2594L568.186 89.259Z" fill="#B2C8FF"/>
<path d="M568.507 89.1621C570.345 93.7069 575.708 106.411 572.971 110.598C572.96 109.637 572.933 108.763 572.867 107.865C572.383 101.472 570.519 95.2584 568.262 89.27L568.508 89.1675L568.507 89.1621Z" fill="#B2C8FF"/>
<path d="M568.809 89.0935C572.618 92.6135 585.137 105.303 579.008 110.191C579.446 109.189 579.68 108.271 579.689 107.298C579.473 102.176 575.947 97.7669 572.855 93.8869C571.517 92.2955 570.107 90.7466 568.628 89.2883L568.809 89.0935Z" fill="#B2C8FF"/>
<path d="M569.112 89.0516C573.881 91.7441 591.665 102.053 586.665 108.686C586.221 109.2 585.661 109.571 585.046 109.784C585.43 109.259 585.79 108.778 586.056 108.271C588.748 103.083 578.903 96.0312 575.218 93.3194C573.199 91.8975 571.12 90.5441 568.983 89.2912L569.113 89.0569L569.112 89.0516Z" fill="#B2C8FF"/>
<path d="M569.426 89.0195C574.332 90.94 600.547 101.122 593.153 108.357C592.538 108.871 591.829 109.203 591.083 109.372C591.621 108.82 592.152 108.327 592.577 107.788C597.067 102.506 581.173 94.7984 577.4 92.8714C574.751 91.5833 572.064 90.3729 569.336 89.2674L569.432 89.0192L569.426 89.0195Z" fill="#B2C8FF"/>
<path d="M544.197 113.32C555.506 121.057 577.046 119.665 589.033 113.862C591.009 112.896 592.951 111.733 594.544 110.267L594.939 110.627C593.355 112.313 591.428 113.528 589.429 114.641C578.222 120.451 561.583 121.631 549.764 117.087C547.653 116.214 545.603 115.213 543.837 113.715L544.191 113.315L544.197 113.32Z" fill="#B2C8FF"/>
</g>
<g opacity="0.5">
<path d="M177.289 176.637C213.688 160.592 262.369 153.634 299.041 183.542C305.011 188.743 311.261 193.765 317.66 197.672C345.174 215.274 371.034 210.558 397.216 198.824C403.629 196.089 409.886 193.025 416.191 189.932C450.211 172.17 480.993 168.945 518.052 185.588C528.241 190.042 538.12 195.855 547.929 201.876C557.678 207.686 567.675 212.663 577.811 216.563C629.17 237.034 671.22 218.751 717.589 198.271C724.007 195.452 730.571 193.03 737.254 191.223C760.521 184.887 785.944 185.286 809.332 198.065C812.642 199.936 815.905 201.984 818.98 204.604L818.779 205.046C817.264 203.79 815.66 202.696 814.05 201.669C789.564 186.666 762.299 186.456 737.761 193.545C731.158 195.461 724.718 197.964 718.38 200.886C672.192 222.131 628.646 241.607 577.266 220.178C565.295 215.415 553.608 209.142 542.173 202.014C527.655 192.964 512.525 185.747 497.137 181.74C476.593 176.182 455.755 177.774 436.543 185.416C426.864 189.098 417.505 194.081 408.066 198.679C385.9 209.294 361.784 218.602 337.068 210.778C323.074 206.631 309.907 197.482 297.81 186.51C266.817 160.971 229.629 162.347 197.092 170.547C190.455 172.342 183.856 174.423 177.454 177.152L177.289 176.637Z" fill="#B861B3"/>
<path d="M809.539 179.645C775.656 164.292 739.373 164.579 707.491 179.443C703.55 181.287 695.176 185.063 691.073 186.953C637.293 212.019 593.223 217.342 536.546 183.605C507.779 166.934 476.104 159.749 446.84 168.292C443.75 169.175 440.257 170.288 437.231 171.437C426.026 175.509 415.479 181.623 404.603 186.806C395.167 191.129 385.754 195.416 375.854 198.142C354.076 204.457 331.166 200.715 309.908 186.974C307.492 185.471 305.113 183.832 302.77 182.115L300.429 180.382C286.716 169.84 271.411 164.056 256.237 162.078C232.466 159.007 208.845 163.751 186.797 172.717C183.642 174.027 180.505 175.434 177.449 177.032L177.266 176.526C180.328 174.861 183.445 173.397 186.594 172.021C208.68 162.605 232.259 157.438 256.24 160.104C269.948 161.705 283.783 166.193 296.561 174.663C298.331 175.931 301.981 178.417 303.62 179.643C305.949 181.296 308.287 182.87 310.672 184.3C331.783 197.475 353.57 200.475 375.04 194.327C387.996 190.711 400.493 184.91 412.778 178.783C423.586 173.241 434.631 168.087 446.138 164.999C479.995 155.797 511.795 165.195 544.592 184.609C566.332 196.493 589.4 203.466 612.137 203.473C639.256 203.755 665.059 194.281 690.062 183.579C702.432 178.302 715.497 172.016 728.491 169.23C751.636 163.869 776.173 165.645 799.659 174.832C803.005 176.132 806.331 177.594 809.631 179.125L809.538 179.639L809.539 179.645Z" fill="#B861B3"/>
<path d="M800.244 154.212C775.561 144.102 745.098 144.252 720.768 149.887C719.18 150.269 717.435 150.619 715.943 151.075C713.861 151.705 710.669 152.549 708.787 153.221L706.43 154.057C704.92 154.609 703.154 155.144 701.73 155.766C683.106 163.661 664.892 173.277 645.557 178.853C613.991 188.575 580.516 188.064 548.093 173.75C546.852 173.185 544.419 172.053 543.18 171.477C538.675 169.348 533.151 166.302 528.661 164.088C523.161 161.456 517.189 158.971 511.553 157.052C483.528 147.34 454.453 149.353 428.51 161.513C420.807 164.911 413.376 169.28 405.759 173.071C391.939 179.688 377.987 186.671 362.996 188.667C345.512 191.306 327.159 187.476 310.144 178.288C306.116 176.204 302.135 173.574 298.215 171.161L295.877 169.724L294.707 169.006L293.516 168.373L291.132 167.113L289.939 166.486L289.342 166.173L288.735 165.899L283.887 163.738L278.981 161.915C247.449 151.471 215.177 158.203 186.424 172.019C183.383 173.527 180.362 175.125 177.431 176.92L177.23 176.427C183.095 172.717 189.197 169.665 195.394 166.934C224.912 154.166 258.304 149.176 289.847 163.625C291.434 164.436 293.747 165.602 295.347 166.422C295.975 166.785 298.256 168.159 298.95 168.563C323.226 184.289 346.964 189.542 372.103 182.903C381.723 180.433 390.942 176.218 400.078 171.857C402.942 170.562 406.49 168.913 409.218 167.462C451.602 143.336 490.42 140.341 536.506 165.066C572.675 184.375 608.925 186.242 644.716 175.19C664.387 169.52 682.877 159.759 702.064 152.193C704.252 151.465 707.067 150.523 709.268 149.825L710.482 149.498L715.343 148.201C731.559 144.238 748.439 143.085 765.252 144.756C770.241 145.286 775.412 146.037 780.39 147.173C787.101 148.643 793.798 150.669 800.327 153.683L800.234 154.197L800.244 154.212Z" fill="#B861B3"/>
<path d="M790.953 128.776C771.517 120.725 751.333 120.424 731.966 123.135C719.018 124.98 706.315 128.404 693.94 133.017C687.731 135.315 681.715 138.107 675.678 140.996C651.511 152.735 626.202 162.098 599.764 163.711C579.155 165.138 557.954 161.755 537.66 152.841C536.228 152.183 531.925 150.145 530.411 149.444C501.787 135.385 470.951 133.001 442.869 142.365C436.637 144.365 430.468 146.91 424.5 149.833C418.443 152.752 412.674 156.211 406.69 159.438C403.874 160.76 400.467 162.596 397.745 164.091C391.786 167.347 385.689 170.327 379.421 172.634C355.78 181.774 329.662 179.883 305.398 167.343C300.644 164.893 295.951 162.087 291.124 160.044C265.342 148.633 238.187 150.452 213.375 158.878C203.997 162.06 194.858 166.219 186.07 171.31C183.142 173.016 180.244 174.816 177.444 176.816L177.225 176.338C180.017 174.256 182.894 172.393 185.807 170.612C194.555 165.302 203.668 160.916 213.029 157.511C237.955 148.496 265.447 146.233 291.607 157.318C298.103 159.973 304.33 163.856 310.807 166.602C333.181 176.375 356.959 177.06 378.507 169.125C386.207 166.415 393.756 162.44 401.102 158.496C408.701 154.916 415.924 150.413 423.535 146.831C441.763 138.043 461.384 133.26 481.379 134.133C497.995 134.767 514.834 139.319 530.907 147.079C532.087 147.642 536.868 149.808 538.107 150.395C551.732 156.234 565.828 159.657 579.789 160.681C606.199 162.594 632.003 156.215 656.389 145.878C668.698 140.814 680.589 134.195 693.101 129.776C718.148 121.117 744.731 116.613 771.371 121.835C778.012 123.183 784.621 125.294 791.06 128.276L790.967 128.79L790.953 128.776Z" fill="#B861B3"/>
<path d="M781.658 103.339C749.429 89.9369 716.081 96.2333 686.215 109.394C680.226 112.044 674.206 114.942 668.264 117.795C644.531 130.085 619.617 139.478 593.618 142.269C574.155 144.33 554.047 142.611 534.59 135.288C528.967 133.076 523.396 130.449 517.75 128.548C484.65 116.956 450.342 122.272 420.434 138.264C415.396 140.818 410.174 144.357 405.186 147.031C401.614 149.222 398.102 151.662 394.449 153.738C387.859 157.572 381.009 160.728 373.95 163.042C351.148 170.81 326.295 168.882 302.944 157.988L298.162 155.811L295.795 154.747C267.889 142.539 238.388 145.318 212.058 156.342C206.009 158.853 200.015 161.823 194.25 165.194C188.462 168.58 182.781 172.307 177.43 176.694L177.189 176.229C179.842 173.937 182.591 171.862 185.377 169.875C193.748 163.944 202.562 158.948 211.641 154.93C238.105 143.232 267.922 139.951 296.295 151.81C297.674 152.387 302.031 154.302 303.504 154.937C325.996 164.886 349.925 166.626 371.958 159.938C379.301 157.671 386.454 154.552 393.301 150.637C396.954 148.61 400.463 146.214 404.09 144.037C409.208 141.35 414.303 137.951 419.442 135.403C449.079 119.836 482.827 114.97 515.565 125.638C522.088 127.712 528.53 130.678 534.888 133.167C542.095 135.844 549.424 137.717 556.749 138.932C568.948 140.93 581.255 140.905 593.263 139.529C619.869 136.467 645.152 126.081 669.383 113.304C674.429 110.941 680.099 108.227 685.226 106.06C703.523 98.35 722.798 93.3489 742.545 93.7913C755.681 94.0685 769.018 96.8113 781.752 102.831L781.659 103.345L781.658 103.339Z" fill="#B861B3"/>
<path d="M772.365 77.9095C736.264 63.1309 698.119 69.957 666.373 90.3081C664.247 91.7035 662.11 93.1611 660.123 94.734C655.23 97.7239 650.264 100.329 645.199 102.783C607.694 120.211 565.596 130.548 524.571 115.218C519.203 113.128 513.786 111.418 508.331 110.204C475.525 102.905 442.588 111.257 413.868 128.574C411.488 130.045 409.105 131.605 406.866 133.27L406.973 133.177C405.923 134.178 404.899 135.032 403.841 135.902C375.277 158.424 338.897 163.429 305.03 150.861C302.365 149.901 300.095 148.927 297.58 147.95C275.414 139.344 252.253 139.409 230.794 145.957C216.418 150.326 202.615 157.308 189.825 166.505C185.57 169.599 181.368 172.861 177.422 176.58L177.163 176.134C184.958 168.392 193.542 162.106 202.417 156.65C230.169 139.635 262.68 132.758 294.283 143.323C295.538 143.771 296.804 144.178 298.056 144.659L301.788 146.094C322.639 154.278 344.441 156.018 364.926 150.85C376.945 147.806 388.575 142.633 399.182 135.076C401.283 133.569 403.441 131.927 405.378 130.147C407.786 128.408 410.192 126.894 412.652 125.422C446.68 105.554 486.717 98.3893 524.833 113.481C560.031 127.008 596.252 119.64 629.075 106.441C639.045 102.342 649.719 97.0616 658.682 91.6043C662.851 88.3088 667.136 85.6118 671.585 83.0666C693.621 70.6406 718.295 64.6311 743.144 68.2804C753.052 69.7084 762.936 72.7725 772.463 77.4005L772.37 77.9143L772.365 77.9095Z" fill="#B861B3"/>
</g>
</g>
<defs>
<clipPath id="clip0_1279_1424">
<rect width="76.8516" height="40.3341" fill="white" transform="translate(225 98)"/>
</clipPath>
<clipPath id="clip1_1279_1424">
<rect width="58.7146" height="30.8153" fill="white" transform="translate(539.416 90.918) rotate(-3.85442)"/>
</clipPath>
</defs>
</svg>
