<svg width="731" height="165" viewBox="0 0 731 165" fill="none" xmlns="http://www.w3.org/2000/svg">
<mask id="mask0_1279_298" style="mask-type:alpha" maskUnits="userSpaceOnUse" x="0" y="0" width="731" height="165">
<rect width="731" height="165" fill="#D9D9D9"/>
</mask>
<g mask="url(#mask0_1279_298)">
<path fill-rule="evenodd" clip-rule="evenodd" d="M68.9197 96.3376C68.0465 96.3376 67.3386 97.0449 67.3386 97.9175C67.3386 98.79 68.0465 99.4973 68.9197 99.4973C69.7929 99.4973 70.5008 98.79 70.5008 97.9175C70.5008 97.0449 69.7929 96.3376 68.9197 96.3376ZM66 97.9175C66 96.3062 67.3072 95 68.9197 95C70.5322 95 71.8394 96.3062 71.8394 97.9175C71.8394 99.5287 70.5322 100.835 68.9197 100.835C67.3072 100.835 66 99.5287 66 97.9175Z" fill="#8AA7F2"/>
<path fill-rule="evenodd" clip-rule="evenodd" d="M65 79.8339C63.8037 79.8339 62.8339 80.8037 62.8339 82C62.8339 83.1963 63.8037 84.1661 65 84.1661C66.1963 84.1661 67.1661 83.1963 67.1661 82C67.1661 80.8037 66.1963 79.8339 65 79.8339ZM61 82C61 79.7909 62.7908 78 65 78C67.2091 78 69 79.7909 69 82C69 84.2092 67.2091 86 65 86C62.7909 86 61 84.2092 61 82Z" fill="#8AA7F2"/>
<path fill-rule="evenodd" clip-rule="evenodd" d="M77 62.7509C75.2056 62.7509 73.7509 64.2056 73.7509 66C73.7509 67.7945 75.2055 69.2491 77 69.2491C78.7945 69.2491 80.2491 67.7945 80.2491 66C80.2491 64.2056 78.7944 62.7509 77 62.7509ZM71 66C71 62.6864 73.6863 60 77 60C80.3137 60 83 62.6864 83 66C83 69.3138 80.3137 72 77 72C73.6863 72 71 69.3138 71 66Z" fill="#8AA7F2"/>
<g clip-path="url(#clip0_1279_298)">
<path d="M69 112.34C74.22 104.59 84.37 102.23 93.12 101.3C102.14 100.39 111.52 101.54 119.79 105.35C127.98 109.08 135.37 114.27 143.75 117.57C152.03 120.93 161 122.29 169.87 122.07L169.83 124.07C160.8 123.48 151.8 121.73 143.52 118.14C135.2 114.7 127.78 109.39 119.39 106.35C107.26 101.96 92.62 101.91 80.31 105.63C76.21 107.04 72.02 109.03 69.26 112.49L69 112.34Z" fill="#D18ACE"/>
<path d="M69.02 112.34C77.5 105.14 96.05 104.72 106.83 105.59C115.51 106.3 123.78 109.2 131.94 111.98C144.09 116.26 156.97 118.41 169.85 117.86L169.82 119.86C162.28 119.33 154.69 118.59 147.32 116.93C135.74 114.43 124.85 109.28 113.05 107.99C102.5 106.9 91.67 106.84 81.18 108.5C77.07 109.28 72.71 110.11 69.24 112.56L69.02 112.35V112.34Z" fill="#D18ACE"/>
<path d="M69.0801 112.34C77.2301 109.98 85.8201 109.83 94.2401 109.5C102.68 109.26 111.14 109.65 119.53 110.66C136.21 112.9 153 114.51 169.84 113.64V115.64C161.41 115.21 152.99 114.75 144.59 113.99C136.19 113.28 127.85 112.04 119.44 111.73C107.35 111.29 93.7701 111.34 81.6801 111.63C77.5201 111.81 73.2701 111.87 69.1801 112.62L69.0801 112.34Z" fill="#D18ACE"/>
<path d="M69.1798 112.38C77.4398 113.73 85.9098 113.49 94.2598 113.64C101.7 113.59 112.11 113.71 119.44 113.34C127.85 113.03 136.19 111.79 144.59 111.08C152.98 110.31 161.41 109.86 169.84 109.43V111.43C157.23 110.86 144.6 111.41 132.07 112.88C119.53 114.47 106.91 116.09 94.2298 115.57C87.8998 115.41 81.5498 115.08 75.2798 114.09C73.1898 113.73 71.0998 113.4 69.0698 112.67L69.1698 112.39H69.1798V112.38Z" fill="#D18ACE"/>
<path d="M69.2398 112.45C78.7498 118.66 98.5898 118.14 109.86 117.41C122.83 116.62 134.72 110.93 147.32 108.15C154.7 106.48 162.29 105.74 169.83 105.22L169.86 107.22C156.98 106.67 144.1 108.82 131.94 113.1C123.78 115.88 115.5 118.78 106.82 119.49C102.49 119.94 98.1298 119.89 93.7998 119.69C86.2698 119.23 78.4198 118.25 71.6798 114.61C70.7198 114.08 69.8098 113.47 69.0298 112.66L69.2498 112.45H69.2398Z" fill="#D18ACE"/>
<path d="M69.2602 112.52C78.4402 123.49 103.43 123.65 116.2 119.76C128.05 116.28 137.94 108.08 149.84 104.62C153.99 103.18 158.72 102.37 163.05 101.68L169.81 101L169.85 103C160.97 102.76 152.04 104.25 143.72 107.51C128.4 113.87 117.63 124.22 99.8802 124.03C90.9002 124.01 81.3102 122.75 73.7502 117.53C71.9102 116.19 70.1502 114.67 68.9902 112.66L69.2502 112.51H69.2602V112.52Z" fill="#D18ACE"/>
</g>
<path fill-rule="evenodd" clip-rule="evenodd" d="M286 104.375C285.103 104.375 284.375 105.103 284.375 106C284.375 106.897 285.103 107.625 286 107.625C286.897 107.625 287.625 106.897 287.625 106C287.625 105.103 286.897 104.375 286 104.375ZM283 106C283 104.343 284.343 103 286 103C287.657 103 289 104.343 289 106C289 107.657 287.657 109 286 109C284.343 109 283 107.657 283 106Z" fill="#B861B3"/>
<path fill-rule="evenodd" clip-rule="evenodd" d="M288 89.2924C286.505 89.2924 285.292 90.5046 285.292 92C285.292 93.4954 286.505 94.7076 288 94.7076C289.495 94.7076 290.708 93.4954 290.708 92C290.708 90.5046 289.495 89.2924 288 89.2924ZM283 92C283 89.2386 285.239 87 288 87C290.761 87 293 89.2386 293 92C293 94.7615 290.761 97 288 97C285.239 97 283 94.7615 283 92Z" fill="#B861B3"/>
<g opacity="0.5">
<path d="M245.376 74.4075C295.967 61.3029 361.577 57.9125 406.03 89.6237C413.221 95.1095 420.807 100.441 428.749 104.695C462.784 123.772 497.782 120.976 534.2 111.363C543.102 109.143 551.842 106.592 560.649 104.016C608.325 89.0725 649.647 88.0731 696.489 106.88C709.386 111.932 721.678 118.287 733.848 124.84C745.969 131.183 758.536 136.731 771.44 141.24C836.726 164.775 895.136 149.882 959.59 133.149C968.509 130.849 977.566 128.945 986.694 127.649C1018.48 123.094 1052.17 125.254 1081.41 139.342C1085.54 141.396 1089.58 143.62 1093.3 146.389L1092.97 146.805C1091.13 145.476 1089.16 144.297 1087.17 143.184C1056.78 126.852 1020.62 124.747 987.038 129.947C978.001 131.356 969.098 133.347 960.27 135.754C895.948 153.245 835.383 169.196 770.205 144.726C754.987 139.248 740.36 132.319 726.188 124.573C708.194 114.74 689.13 106.65 669.268 101.671C642.781 94.8218 614.892 94.922 588.306 101.032C574.936 103.948 561.807 108.152 548.625 111.977C517.696 120.78 484.365 128.173 452.66 118.824C434.669 113.806 418.483 103.97 403.976 92.4309C366.444 65.3752 316.881 64.1248 272.526 69.8508C263.461 71.1384 254.407 72.7071 245.521 74.9205L245.376 74.4075Z" fill="#B861B3"/>
<path d="M1084.29 121.399C1041.48 104.072 993.276 101.823 948.847 114.091C943.355 115.614 931.703 118.712 925.989 120.268C851.047 140.955 791.789 143.073 721.321 106.236C685.489 87.9799 644.455 78.7684 604.397 85.0567C600.171 85.7024 595.375 86.544 591.195 87.4529C575.744 90.6418 560.878 95.8664 545.706 100.162C532.568 103.718 519.466 107.241 505.937 109.209C476.132 113.847 446.248 108.602 419.97 93.7259C416.976 92.0929 414.049 90.3287 411.182 88.4922L408.319 86.6394C391.605 75.4073 372.106 68.7021 352.242 65.7164C321.119 61.066 289.089 64.045 258.551 71.248C254.177 72.3058 249.814 73.4586 245.53 74.8037L245.359 74.2975C249.66 72.8876 254.004 71.6773 258.38 70.5557C289.032 62.9159 321.066 59.5221 352.525 63.7927C370.496 66.3078 388.228 71.6478 403.993 80.795C406.164 82.1541 410.657 84.8319 412.66 86.1416C415.518 87.9149 418.399 89.6125 421.363 91.1727C447.524 105.487 476.024 109.93 505.395 105.433C523.107 102.811 540.519 98.0267 557.694 92.9096C572.826 88.2605 588.219 84.0064 603.931 81.7972C650.18 75.1864 691.067 86.564 731.859 107.775C759.04 120.875 788.676 129.28 818.86 130.872C854.822 133.036 890.417 125.599 925.124 116.908C942.292 112.626 960.526 107.409 978.171 105.599C1009.65 101.985 1041.98 105.427 1071.86 116.019C1076.12 117.519 1080.32 119.176 1084.49 120.899L1084.29 121.394L1084.29 121.399Z" fill="#B861B3"/>
<path d="M1075.55 95.9588C1044.21 84.3833 1003.75 82.4069 970.655 86.2044C968.494 86.4661 966.128 86.6858 964.082 87.0262C961.229 87.4958 956.873 88.0954 954.279 88.62L951.032 89.2706C948.949 89.7034 946.528 90.1015 944.55 90.6083C918.709 97.0071 893.169 105.112 866.711 109.2C823.43 116.478 779.064 113.646 738.045 97.4334C736.478 96.7962 733.407 95.5236 731.845 94.8754C726.165 92.4857 719.262 89.1316 713.615 86.6604C706.686 83.7117 699.109 80.8729 691.898 78.6093C656.068 67.1891 617.184 67.125 581.024 77.1709C570.318 79.9462 559.834 83.6874 549.186 86.8529C529.902 92.3403 510.393 98.175 490.209 99.0765C466.624 100.43 442.802 95.4173 421.514 85.2751C416.46 82.9627 411.549 80.1217 406.686 77.4959L403.786 75.9323L402.333 75.1506L400.842 74.4507L397.856 73.0565L396.36 72.3622L395.612 72.0151L394.845 71.7062L388.715 69.2613L382.459 67.1423C342.076 54.7644 298.282 59.0776 258.156 70.5416C253.905 71.7999 249.669 73.1478 245.524 74.6926L245.327 74.1984C253.637 70.9907 262.17 68.4405 270.783 66.2101C311.777 55.8203 356.812 53.2836 396.643 69.5668C398.634 70.4678 401.541 71.7654 403.549 72.6762C404.331 73.0746 407.164 74.5728 408.029 75.0146C438.031 92.037 468.802 98.8117 503.115 94.0919C516.235 92.354 529.07 88.8883 541.816 85.2732C545.801 84.2101 550.744 82.8502 554.571 81.6257C614.25 61.0609 666.207 60.8462 723.891 88.161C769.175 109.504 817.035 113.851 866.113 105.57C893.03 101.414 918.957 93.1876 945.5 87.1492C948.507 86.5914 952.378 85.8695 955.397 85.3429L957.055 85.1088L963.692 84.1825C985.781 81.4493 1008.35 81.5016 1030.44 84.3021C1036.98 85.1667 1043.74 86.2589 1050.19 87.7137C1058.89 89.614 1067.5 92.0565 1075.74 95.4491L1075.54 95.9435L1075.55 95.9588Z" fill="#B861B3"/>
<path d="M1066.82 70.5161C1042.15 61.3133 1015.4 59.6132 989.307 60.9069C971.857 61.8025 954.509 64.2552 937.428 67.8894C928.86 69.6973 920.479 72 912.055 74.3954C878.311 84.1551 843.387 91.5181 808.062 91.2488C780.5 91.2036 752.834 86.4279 727.153 76.3239C725.346 75.5828 719.922 73.296 718.011 72.5075C682.001 56.8075 641.401 52.335 602.796 59.506C594.239 61.021 585.69 63.0724 577.353 65.5055C568.899 67.9292 560.751 70.8995 552.351 73.6285C548.426 74.7201 543.643 76.2733 539.818 77.5402C531.446 80.2995 522.931 82.7796 514.284 84.5919C481.605 91.8535 447.2 88.1904 416.762 74.2748C410.798 71.5551 404.964 68.4934 398.846 66.1648C366.233 53.2452 329.926 53.1252 295.795 59.6104C282.894 62.0592 270.174 65.4762 257.787 69.8264C253.659 71.2853 249.557 72.8384 245.556 74.5933L245.333 74.1112C249.335 72.2765 253.417 70.6607 257.536 69.1278C269.901 64.5609 282.619 60.9208 295.529 58.2535C329.895 51.2027 366.711 50.9121 399.873 63.5413C408.121 66.5826 415.837 70.8012 424.048 73.9296C452.368 85.0162 483.837 87.3409 513.566 81.107C524.171 79.0016 534.756 75.6535 545.065 72.3205C555.661 69.3599 565.886 65.4733 576.498 62.5118C601.939 55.2154 628.663 51.9205 655.084 54.1649C677.053 55.9405 698.764 61.5521 719.004 70.2366C720.491 70.8676 726.531 73.3121 728.094 73.9708C745.355 80.6124 763.584 84.9312 781.973 86.9025C816.763 90.6083 851.922 86.1878 885.758 77.8105C902.815 73.7312 919.537 68.1074 936.773 64.6721C971.249 57.9767 1007.18 55.4384 1041.8 62.3849C1050.43 64.1618 1058.9 66.6805 1067.03 70.0367L1066.83 70.5312L1066.82 70.5161Z" fill="#B861B3"/>
<path d="M1058.08 45.0718C1017.19 29.7608 972.024 33.5748 930.514 44.3225C922.189 46.4892 913.787 48.8941 905.494 51.261C872.25 61.5887 837.845 69.0085 802.935 69.9177C776.806 70.5702 750.355 67.4929 725.56 58.9988C718.409 56.4503 711.384 53.5016 704.159 51.2548C661.857 37.6476 615.558 40.4393 573.592 53.9441C566.542 56.0836 559.109 59.1691 552.108 61.4282C547.056 63.315 542.05 65.4491 536.906 67.2187C527.616 70.496 518.075 73.096 508.377 74.8594C477.006 80.8428 444.286 77.2312 414.827 64.9843L408.787 62.5292L405.795 61.3266C370.476 47.4812 330.918 48.1343 294.404 57.0461C286.018 59.0726 277.642 61.5505 269.511 64.4349C261.348 67.3316 253.279 70.5687 245.555 74.4726L245.3 74.0028C249.146 71.9534 253.09 70.1219 257.07 68.3788C269.022 63.1806 281.43 58.9249 294.05 55.6409C330.838 46.0816 370.886 44.9605 406.874 58.4982C408.624 59.1574 414.137 61.3277 416.002 62.0497C444.454 73.3151 475.975 76.6787 506.171 71.695C516.24 69.9964 526.178 67.4544 535.821 64.1153C540.957 62.394 545.955 60.3028 551.077 58.4334C558.253 56.1701 565.497 53.212 572.68 51.0864C614.226 37.9766 659.717 35.5852 701.67 48.2653C710.036 50.7421 718.167 54.0822 726.257 56.9515C735.445 60.0637 744.91 62.4006 754.463 64.0949C770.375 66.8927 786.716 67.7268 802.852 67.222C838.606 66.0912 873.639 57.7281 907.616 46.9617C914.649 45.0092 922.559 42.7588 929.672 41.0038C955.054 34.7631 981.35 31.2311 1007.5 33.0384C1024.9 34.224 1042.22 37.8273 1058.27 44.5826L1058.08 45.0771L1058.08 45.0718Z" fill="#B861B3"/>
<path d="M1049.34 19.6307C1003.5 2.70849 951.895 6.70464 906.871 24.3313C903.852 25.5435 900.809 26.8155 897.949 28.2104C891.03 30.784 884.069 32.9772 876.998 35.0169C824.742 49.3925 767.392 56.5359 715.098 38.7336C708.267 36.3217 701.319 34.2777 694.248 32.7135C651.729 23.3121 606.821 29.1586 566.244 44.0386C562.877 45.307 559.493 46.6615 556.285 48.1285L556.44 48.0456C554.904 48.9482 553.425 49.7095 551.897 50.484C510.79 70.448 461.786 72.7923 418.604 58.1807C415.202 57.0591 412.326 55.9512 409.126 54.8239C380.916 44.89 350.16 43.3397 320.746 48.2275C301.042 51.4841 281.73 57.3292 263.45 65.4036C257.364 68.123 251.324 71.01 245.559 74.3603L245.279 73.9078C256.723 66.9036 269.008 61.3736 281.562 56.674C320.81 42.0208 364.944 37.5827 405.403 50.084C407.006 50.6077 408.629 51.093 410.224 51.649L414.975 53.3081C441.497 62.739 470.195 65.9539 498.12 62.3435C514.507 60.2144 530.678 55.9815 545.829 49.354C548.832 48.031 551.928 46.5807 554.751 44.9805C558.195 43.4528 561.603 42.1449 565.077 40.8812C613.061 23.8847 667.226 19.6902 715.692 37.0586C760.505 52.6972 809.633 48.0392 855.074 37.4593C868.891 34.1578 883.807 29.7543 896.478 25.059C902.479 22.1369 908.55 19.8064 914.815 17.6354C945.828 7.05761 979.433 2.91872 1011.9 8.20771C1024.86 10.2902 1037.54 13.9659 1049.54 19.1413L1049.34 19.6357L1049.34 19.6307Z" fill="#B861B3"/>
</g>
<path d="M169.012 72.504C172.324 67.5771 176.747 63.3585 181.937 60.4442C189.274 56.272 199.05 55.2309 206.107 60.537C209.051 62.7199 211.189 65.7581 212.564 69.102C213.001 70.1431 213.451 71.5287 213.641 72.4924C214.001 73.5567 214.504 74.6249 215.058 75.6351C217.789 80.7052 222.503 84.7457 228.115 86.1855C230.331 86.7428 236.636 86.9673 238.913 86.8434L240.252 88.7786C237.815 88.6431 230.04 88.2445 227.728 87.4898C221.949 85.632 217.185 81.3244 214.357 76.0144C213.784 74.9423 213.273 73.8547 212.885 72.6743C211.615 67.1165 207.741 62.0426 202.373 60.0339C199.759 58.9889 196.869 58.7219 194.073 58.8032C188.929 58.7722 183.901 60.479 179.509 63.2656C175.601 65.7503 172.099 68.9898 169.334 72.713L169.008 72.5001L169.012 72.504Z" fill="#8AA7F2"/>
<path d="M169.042 72.5495C177.676 64.3252 192.894 60.5284 204.274 64.3639C207.268 65.4514 210.119 67.1969 212.079 69.7474C212.695 70.4983 213.396 71.7871 213.609 72.5147C214.097 73.312 214.775 74.0822 215.48 74.7633C219.074 78.2234 224.055 79.9147 228.928 80.5533C230.694 80.7894 234.446 80.8513 236.235 80.8436L237.574 82.7787L235.125 82.6007C229.966 82.0743 221.367 80.6462 217.168 77.4919C215.491 76.2069 213.981 74.7401 212.927 72.8669C212.199 71.0672 210.723 69.5075 209.135 68.3812C202.663 63.8801 191.876 64.2748 184.435 65.9894C179.036 67.3207 173.834 69.5384 169.306 72.8359L169.042 72.5495Z" fill="#8AA7F2"/>
<path d="M169.118 72.5969C174.447 70.7198 180.064 69.8219 185.672 69.28C191.296 68.7807 196.955 68.6608 202.583 69.3187C204.458 69.5471 206.329 69.8606 208.176 70.3056C209.919 70.7391 211.716 71.2229 213.219 72.2485C213.328 72.3337 213.417 72.3879 213.56 72.5233L213.483 72.4576C213.82 72.6395 214.257 72.8175 214.672 72.9568C220.296 74.7449 226.311 74.8532 232.168 74.8997L234.898 74.8571V76.7923C233.225 76.7381 231.002 76.6413 229.363 76.5252C225.672 76.2504 221.988 75.8324 218.375 74.9848C216.523 74.5243 214.699 74.0521 213.022 73.0884C212.367 72.5195 211.441 72.2834 210.62 72.0125C207.963 71.2694 205.201 71.0642 202.448 70.9249C195.061 70.6656 187.624 70.7662 180.253 71.4397C176.562 71.7919 172.863 72.2408 169.226 72.9723L169.114 72.6008L169.118 72.5969Z" fill="#8AA7F2"/>
<path d="M169.23 72.6809C180.153 74.7631 191.362 75.0844 202.448 74.7283C204.748 74.6122 207.049 74.4496 209.296 73.9658C210.554 73.6678 211.929 73.3776 212.979 72.6035C214.637 71.5818 216.515 71.1405 218.375 70.6645C221.988 69.8169 225.672 69.3989 229.363 69.1241C231.002 69.0041 233.244 68.9151 234.898 68.8571V70.7922C233.248 70.7574 231.056 70.738 229.437 70.769C225.811 70.8464 222.167 71.067 218.595 71.7095C216.872 72.0384 215.051 72.4216 213.483 73.1956C213.134 73.5672 211.744 74.2677 210.922 74.5425C208.234 75.4869 205.399 75.9706 202.583 76.3306C195.084 77.1704 187.516 76.7873 180.075 75.6843C176.361 75.096 172.67 74.3296 169.118 73.0524L169.23 72.6809Z" fill="#8AA7F2"/>
<path d="M169.302 72.8096C175.883 77.5662 183.823 80.2057 191.883 80.7708C197.802 81.0107 204.131 80.6817 209.135 77.2643C210.719 76.1341 212.203 74.5783 212.923 72.7747C213.981 70.8976 215.487 69.4347 217.168 68.1498C221.367 64.9955 226.619 63.5712 231.779 63.0409L237.574 62.8629L236.235 64.7981L231.903 64.829C226.027 65.1464 219.829 66.71 215.48 70.8822C214.829 71.4666 213.942 72.5928 213.636 73.065C212.9 75.1434 211.506 76.8076 209.84 78.1815C201.989 84.6256 188.417 83.4645 179.551 79.7606C175.705 78.1274 172.048 75.9948 169.042 73.096L169.306 72.8096H169.302Z" fill="#8AA7F2"/>
<path d="M169.499 72.9343C176.475 81.7277 187.703 88.7251 199.269 86.4146C206.074 85.2109 211.381 79.6454 213.05 72.9692C213.418 71.781 213.91 70.6818 214.468 69.602C217.214 64.2146 222.021 59.8334 227.85 58.0182C230.182 57.2906 239.315 56.9191 241.752 56.8649L240.413 58.8C238.139 58.7574 230.511 59.009 228.319 59.5934C221.649 61.366 216.23 66.7612 213.802 73.1511C212.907 77.6754 210.277 82.374 206.373 85.2535C202.658 88.0594 197.855 89.0309 193.273 88.7174C185.623 88.2259 178.702 84.2162 173.542 78.763C171.912 77.0291 170.409 75.1791 169.173 73.1433L169.499 72.9305V72.9343Z" fill="#8AA7F2"/>
<path fill-rule="evenodd" clip-rule="evenodd" d="M166.92 59.2591C166.047 59.2591 165.339 59.9664 165.339 60.839C165.339 61.7115 166.047 62.4188 166.92 62.4188C167.793 62.4188 168.501 61.7115 168.501 60.839C168.501 59.9664 167.793 59.2591 166.92 59.2591ZM164 60.839C164 59.2277 165.308 57.9215 166.92 57.9215C168.533 57.9215 169.84 59.2277 169.84 60.839C169.84 62.4502 168.533 63.7564 166.92 63.7564C165.308 63.7564 164 62.4502 164 60.839Z" fill="#B28505"/>
<path fill-rule="evenodd" clip-rule="evenodd" d="M171.425 42.2962C170.025 42.2962 168.891 43.4298 168.891 44.8281C168.891 46.2265 170.025 47.3601 171.425 47.3601C172.824 47.3601 173.959 46.2265 173.959 44.8281C173.959 43.4298 172.824 42.2962 171.425 42.2962ZM167.552 44.8281C167.552 42.6911 169.286 40.9586 171.425 40.9586C173.564 40.9586 175.297 42.6911 175.297 44.8281C175.297 46.9652 173.564 48.6977 171.425 48.6977C169.286 48.6977 167.552 46.9652 167.552 44.8281Z" fill="#B28505"/>
<g clip-path="url(#clip1_1279_298)">
<path d="M292 106.98C293.06 100.59 295.81 93.86 301.16 89.81C304.89 87.12 310.11 85.9 314.4 88.25C318.61 90.87 319.23 96.17 319.02 100.59C318.88 102.78 318.55 104.95 317.94 107.04L317.65 106.96C319.12 102.87 323.56 100.64 327.73 100.42V102.42C326.79 102.39 325.83 102.36 324.9 102.5C322.06 102.86 319.28 104.5 317.92 107.08C317.84 107.23 317.6 107.14 317.65 106.97C317.86 104.84 317.95 102.69 317.85 100.57C317.64 96.73 316.93 91.95 313.42 89.91C310.01 88.08 305.36 89.18 302.24 91.33C297.11 95.02 294.23 101.14 292.29 107.04L292 106.98Z" fill="#B28505"/>
<path d="M292 106.96C293.83 100.37 300.18 95.38 306.99 94.78C313.81 93.83 319.93 96.91 318.51 104.63C318.4 105.46 318.21 106.26 317.94 107.06L317.67 106.93C320.14 104.03 324.2 103.47 327.73 102.66L327.75 104.66C324.42 104.08 320.27 104.39 317.93 107.09C317.88 107.16 317.78 107.18 317.71 107.13C320.47 95.93 310.94 95.27 302.66 97.77C298.17 99.4 294.53 102.76 292.29 107.05L292.01 106.95H292V106.96Z" fill="#B28505"/>
<path d="M292.04 106.9C295.78 103.45 301.24 102.71 306.11 102.32C308.52 102.04 319.93 102.23 318.51 106.33C318.36 106.64 318.16 106.89 317.92 107.13L317.72 106.84C319.17 106.35 321.2 106.13 322.7 105.87C324.36 105.59 326.03 105.35 327.71 104.89L327.75 106.89C324.51 106.22 321.01 106.12 317.87 107.17C317.69 107.25 317.54 107.01 317.67 106.88C319.71 104.33 315.05 104.11 313.42 104.13C308.65 104.21 303.77 104.2 299.05 104.99C296.72 105.41 294.3 105.91 292.25 107.12L292.04 106.91V106.9Z" fill="#B28505"/>
<path d="M292.25 106.9C296.48 109.18 301.49 109.42 306.21 109.73C308.05 109.54 320.8 111.23 317.68 107.14C317.53 107 317.73 106.75 317.9 106.86C320.93 108.19 324.54 107.93 327.71 107.13L327.77 109.13C326.31 108.78 324.18 108.53 322.69 108.3C320.99 108.01 319.32 107.88 317.71 107.16L317.93 106.88C318.42 107.36 318.82 108.01 318.65 108.73C317.85 110.66 315.32 110.92 313.58 111.36C307.42 112.29 300.92 111.73 295.18 109.24C294.05 108.68 292.93 108.07 292.05 107.11L292.26 106.9H292.25Z" fill="#B28505"/>
<path d="M292.29 106.96C294.53 111.25 298.17 114.62 302.66 116.25C305.58 117.25 308.8 117.61 311.86 117.29C313.39 117.16 314.84 116.7 315.99 115.79C318.5 113.82 318.57 109.94 317.65 107.07C317.62 106.99 317.67 106.9 317.75 106.88C320.09 109.67 324.25 110.24 327.69 109.38L327.76 111.38C324.18 110.75 319.98 110.22 317.65 107.1L317.93 106.97C318.46 108.57 318.72 110.22 318.68 111.9C318.09 122.31 303.27 120.36 297.55 115.38C294.93 113.18 292.92 110.28 292 107.05L292.28 106.95H292.29V106.96Z" fill="#B28505"/>
<path d="M292.29 106.98C294.22 112.87 297.11 119 302.24 122.69C305.36 124.83 310.01 125.93 313.42 124.1C316.94 122.05 317.65 117.28 317.85 113.44C317.95 111.31 317.85 109.16 317.64 107.01C317.64 106.93 317.69 106.86 317.77 106.85C317.84 106.85 317.91 106.89 317.93 106.96C318.78 108.71 320.33 110.13 322.09 110.91C323.85 111.68 325.79 111.83 327.68 111.6L327.77 113.6C323.51 113.64 318.97 111.31 317.64 107.06L317.93 106.98C319.08 111.23 319.54 115.72 318.4 120.08C316.41 128.24 306.95 128.59 301.14 124.22C295.81 120.16 293.06 113.42 292 107.04L292.29 106.98Z" fill="#B28505"/>
</g>
</g>
<defs>
<clipPath id="clip0_1279_298">
<rect width="100.86" height="23.07" fill="white" transform="translate(69 101)"/>
</clipPath>
<clipPath id="clip1_1279_298">
<rect width="35.78" height="39.99" fill="white" transform="translate(292 87)"/>
</clipPath>
</defs>
</svg>
