<svg width="390" height="853" viewBox="0 0 390 853" fill="none" xmlns="http://www.w3.org/2000/svg">
<g opacity="0.3">
<mask id="mask0_2876_22389" style="mask-type:alpha" maskUnits="userSpaceOnUse" x="-1067" y="-52" width="1683" height="906">
<rect x="-944.162" y="-51.0068" width="1596.32" height="579" transform="rotate(12.2296 -944.162 -51.0068)" fill="#D9D9D9"/>
</mask>
<g mask="url(#mask0_2876_22389)">
<path d="M-537.211 -453.59C-654.835 -356.318 -763.914 -192.514 -629.471 -60.7997C-602.036 -33.6507 -569.612 -12.0228 -535.791 6.38244C-485.455 34.5212 -428.78 53.5573 -370.566 51.4504C-211.669 47.1487 -93.6867 -85.2137 60.0101 -109.204C180.531 -128.215 286.015 -53.7402 362.979 31.6315C434.832 112.956 455.882 210.251 364.388 286.765C262.322 368.836 104.374 384.929 -22.7341 379.54C-196.459 370.812 -367.98 317.901 -516.163 226.785C-549.069 206.634 -582.888 187.931 -617.839 171.573C-1028.08 -21.5024 -1076.44 373.939 -762.077 550.307C-861.783 495.16 -951.293 401.027 -966.086 284.297C-973.227 225.507 -951.737 164.229 -896.354 136.68C-843.598 110.257 -781.383 116.28 -725.87 130.144C-650.853 149.618 -581.135 185.196 -515.169 225.194C-367.11 315.847 -196.029 368.713 -22.6222 377.297C109.972 384.137 321.157 360.984 401.131 242.309C447.683 170.267 412.834 91.5695 361.255 33.1389C284.769 -51.7307 180.109 -125.927 60.3285 -107.105C-93.2725 -82.9813 -211.501 49.0786 -370.513 53.0441C-428.998 55.0797 -485.905 35.9061 -536.422 7.5662C-570.305 -10.9523 -602.824 -32.6629 -630.273 -59.9769C-764.726 -192.453 -655.579 -356.167 -537.211 -453.59Z" fill="#73206F"/>
<path d="M-537.211 -453.59C-610.392 -388.13 -688.451 -284.275 -677.836 -181.082C-672.588 -131.971 -647.012 -90.0273 -611.574 -56.522C-583.607 -30.0426 -550.995 -8.82233 -516.896 8.93312C-482.913 26.9374 -446.697 41.3148 -408.539 47.1936C-248.053 74.0061 -121.175 -50.9966 22.5535 -97.254C134.731 -133.944 230.512 -99.8788 318.091 -26.1334C354.82 4.98572 389.713 39.681 414.134 81.4866C488.315 209.507 395.246 301.862 275.931 343.919C60.3694 417.073 -197.149 376.069 -400.31 281.569C-470.706 249.693 -533.311 203.398 -603.695 171.524C-638.35 155.355 -674.907 141.227 -712.014 131.827C-769.164 117.571 -834.521 111.602 -887.461 142.096C-888.492 142.707 -889.579 143.232 -890.563 143.915L-896.523 147.93C-897.516 148.599 -898.531 149.252 -899.435 150.027L-905.057 154.502C-906.023 155.214 -906.878 156.05 -907.754 156.87L-913.01 161.784C-915.453 164.419 -917.907 167.051 -920.243 169.772L-924.644 175.457L-925.738 176.877L-926.725 178.382L-930.669 184.379C-932.476 187.476 -934.197 190.64 -935.871 193.815L-938.86 200.356L-939.613 201.986C-940.901 205.743 -942.825 209.96 -943.853 213.836L-945.884 220.733C-946.507 223.837 -948.446 231.402 -948.777 234.831C-954.627 270.511 -948.639 307.226 -936.817 341.143C-903.944 432.356 -830.429 504.111 -746.827 550.685C-830.642 504.289 -904.379 432.635 -937.519 341.39C-948.734 309.622 -954.644 275.478 -950.832 241.835C-950.295 238.438 -949.832 234.515 -949.24 231.093C-949.044 229.902 -948.729 228.737 -948.486 227.556L-946.915 220.485C-945.558 216.12 -944.252 210.785 -942.537 206.672C-941.714 204.545 -940.869 201.913 -939.888 199.921C-937.566 194.445 -934.601 188.821 -931.65 183.78C-930.702 182.229 -928.647 179.249 -927.687 177.7C-927.074 176.538 -922.189 170.346 -921.158 168.988C-918.008 165.447 -914.779 161.6 -911.221 158.422L-908.576 155.944C-907.697 155.113 -906.828 154.267 -905.86 153.543L-900.189 149.017C-897.668 146.997 -893.906 144.723 -891.225 142.825C-839.799 111.317 -775.273 115.425 -718.651 128.607C-688.338 135.688 -658.139 146.282 -629.416 158.225C-584.999 177.009 -542.243 199.83 -501.093 224.881C-304.447 344.665 -65.7535 402.306 163.288 369.458C220.19 360.514 276.744 345.403 327.891 318.519C424.019 268.223 471.288 183.892 412.15 82.6387C387.879 41.0648 353.198 6.54018 316.67 -24.4109C229.691 -97.7023 134.712 -131.668 23.2177 -95.2539C-120.563 -48.8708 -248.082 75.8683 -408.752 48.6923C-447.057 42.7442 -483.434 28.2448 -517.494 10.1365C-551.658 -7.7203 -584.359 -29.047 -612.357 -55.6702C-647.878 -89.43 -673.459 -131.637 -678.614 -181.002C-689.01 -284.459 -610.743 -388.119 -537.211 -453.59Z" fill="#73206F"/>
<path d="M-537.211 -453.59C-591.174 -400.994 -639.304 -334.278 -658.878 -260.774C-695.203 -121.675 -595.104 -32.3102 -478.952 20.633C-412.984 50.7773 -345.735 58.1529 -275.184 40.6196C-159.71 12.4926 -65.7569 -68.0605 48.0621 -100.757C59.3315 -103.945 71.8049 -106.76 83.3842 -108.672C174.443 -124.128 254.504 -89.5958 324.376 -33.0304C357.922 -5.81518 389.922 24.6155 415.121 59.8379C510.833 194.419 424.899 297.601 288.968 345.063C107.318 406.221 -99.8977 384.989 -279.232 324.792C-352.191 299.847 -422.345 266.74 -487.939 226.238C-522.814 204.925 -558.849 185.455 -595.988 168.373C-600.658 166.377 -611.141 161.738 -615.82 159.727C-619.499 158.17 -632.147 153.211 -635.903 151.662C-651.226 145.986 -668.002 140.046 -683.779 135.717C-748.216 117.614 -825.808 108.694 -883.356 149.688L-890.381 155.278C-893.077 157.646 -895.663 160.138 -898.268 162.6L-903.11 167.904C-903.913 168.789 -904.737 169.657 -905.446 170.624L-909.844 176.298C-910.617 177.215 -911.217 178.256 -911.88 179.245L-915.825 185.242L-917.553 188.381C-920.412 193.342 -923.243 199.268 -925.287 204.556L-927.794 211.287C-928.874 214.716 -929.859 218.165 -930.858 221.623C-931.528 225.003 -933.347 232.071 -933.699 235.707L-934.257 239.261C-934.984 243.65 -935.087 247.639 -935.559 251.772C-935.649 255.067 -935.835 259.262 -935.925 262.556C-935.927 265.097 -935.7 270.839 -935.682 273.347L-935.548 275.145L-935.265 278.732C-923.954 397.884 -832.448 494.779 -731.65 551.047C-832.741 494.977 -924.56 398.089 -936.165 278.798L-936.457 275.197L-936.591 273.399C-936.597 271.006 -936.846 264.96 -936.863 262.564C-936.744 259.252 -936.641 255.038 -936.522 251.726C-936.212 248.28 -935.771 242.508 -935.24 239.135C-934.56 235.595 -934.32 231.897 -933.421 228.442L-931.866 221.38C-930.67 216.843 -929.207 211.99 -927.549 207.566C-926.65 205.431 -925.949 202.83 -924.939 200.819L-921.939 194.231C-920.509 191.315 -918.372 187.555 -916.796 184.658C-914.823 181.772 -912.849 178.363 -910.78 175.61C-908.886 173.143 -905.979 169.226 -903.999 167.114L-899.117 161.744C-896.493 159.248 -893.876 156.726 -891.16 154.325L-885.488 149.799C-829.645 108.386 -753.969 115.669 -690.271 132.229C-685.053 133.709 -678.026 135.705 -672.885 137.193C-671.15 137.707 -657.834 142.112 -655.692 142.764C-649.249 145.094 -641.785 147.721 -635.283 150.127C-631.356 151.751 -619.305 156.468 -615.148 158.179C-570.78 176.902 -528.041 199.632 -486.928 224.625C-290.65 344.491 -52.4327 402.316 176.388 370.142C233.258 361.403 289.761 346.468 341.01 319.98C467.921 253.87 488.883 147.954 395.61 38.4303C371.722 10.169 343.584 -15.1764 314.552 -38.0624C244.243 -92.2683 166.034 -122.799 76.6723 -105.331C66.2868 -103.459 55.3009 -100.658 45.1919 -97.816C-66.9541 -64.3211 -160.371 14.5045 -274.748 42.2339C-348.025 60.3723 -418.326 51.6 -486.029 18.7503C-600.237 -34.7557 -695.444 -124.705 -659.423 -260.967C-639.606 -334.555 -591.343 -401.081 -537.177 -453.633L-537.211 -453.59Z" fill="#73206F"/>
<path d="M-537.211 -453.59C-596.647 -390.769 -652.173 -301.09 -654.226 -212.602C-654.488 -195.853 -652.908 -178.968 -649.043 -162.67C-644.645 -144.115 -637.398 -125.926 -627.727 -109.479C-586.898 -39.2641 -502.551 9.0526 -427.338 34.8725C-237.762 95.8197 -107.429 -48.4033 59.0106 -99.8162C171.326 -133.748 266.64 -95.86 352.552 -21.903C402.87 21.6291 452.612 73.7442 467.738 140.531C476.386 178.556 467.565 219.485 444.654 250.945C388.147 327.767 280.665 359.022 190.224 373.128C-0.706383 399.924 -198.272 362.658 -372.148 281.307C-398.246 268.936 -423.833 255.48 -448.79 240.952C-489.944 216.149 -531.277 191.481 -575.034 171.495C-587.056 165.837 -602.338 159.336 -614.754 154.465C-678.945 129.415 -757.488 108.94 -825.325 129.142C-871.173 142.687 -904.031 175.952 -915.726 222.486C-925.593 262.254 -919.709 304.34 -906.219 342.593C-873.155 433.498 -799.878 505.028 -716.437 551.479C-800.077 505.197 -873.588 433.766 -906.921 342.839C-920.562 304.479 -926.577 262.19 -916.755 222.226C-905.06 175.23 -872.005 141.634 -825.711 127.875C-757.579 107.463 -678.681 127.852 -614.149 152.939C-601.661 157.826 -586.383 164.289 -574.314 169.957C-530.463 189.913 -489.046 214.537 -447.822 239.305C-422.888 253.766 -397.338 267.165 -371.275 279.466C-197.748 360.529 -0.615658 397.664 189.873 370.835C279.768 356.772 386.513 325.694 442.682 249.571C465.202 218.587 473.951 178.452 465.423 141.025C452.866 84.4255 413.913 37.9003 372.532 -0.991605C362.202 -10.6552 350.942 -20.6325 340.019 -29.4031C208.414 -136.111 97.945 -129.347 -46.5123 -53.425C-168.026 9.88047 -285.941 83.1719 -427.787 36.2574C-503.301 10.2105 -587.743 -38.3011 -628.596 -108.982C-638.257 -125.527 -645.505 -143.828 -649.871 -162.476C-653.709 -178.842 -655.27 -195.811 -654.948 -212.609C-652.654 -301.232 -596.926 -390.805 -537.226 -453.581L-537.211 -453.59Z" fill="#73206F"/>
<path d="M-537.211 -453.59C-602.223 -378.337 -660.789 -266.408 -636.743 -164.8C-625.903 -117.604 -596.978 -77.0148 -560.465 -45.8801C-531.305 -20.8738 -497.797 -1.42761 -463.089 14.8405C-428.455 31.2792 -391.433 43.0907 -353.229 47.086C-192.341 65.1407 -69.066 -58.3757 76.7007 -100.915C155.929 -123.544 228.455 -112.607 299.325 -70.9489C340.711 -46.407 377.988 -15.0568 411.356 19.4822C519.347 131.66 514.322 250.498 369.315 324.582C187.06 412.991 -63.9056 389.465 -251.008 324.818C-314.66 302.862 -376.204 274.81 -434.351 240.867C-483.568 210.965 -533.552 182.006 -586.845 159.916C-649.313 134.342 -721.916 113.05 -789.684 124.646L-793.229 125.236L-796.724 126.048L-803.722 127.658C-806.04 128.227 -808.308 129.018 -810.609 129.678C-815.805 131.093 -820.758 133.221 -825.794 135.107L-827.418 135.864L-833.917 138.915C-864.648 154.191 -886.87 180.344 -897.635 212.916C-904.592 234.542 -906.734 257.659 -904.795 280.254C-895.534 379.279 -828.475 464.248 -749.888 521.008C-734.276 532.203 -718.002 542.47 -701.238 551.858C-784.814 505.627 -858.23 434.279 -891.628 343.476C-904.472 307.368 -910.639 267.962 -903.192 230.037C-895.185 189.816 -872.599 157.725 -836.13 138.535C-833.817 137.417 -830.305 135.774 -827.956 134.663L-826.318 133.897L-824.629 133.242C-817.918 130.536 -811.057 128.236 -804.074 126.348C-801.12 125.668 -796.205 124.516 -793.512 123.891C-730.232 112.169 -665.64 128.461 -606.35 150.394C-590.984 156.278 -574.696 163.085 -559.812 169.986C-524.875 186.117 -491.044 204.536 -458.151 224.46C-327.458 305.22 -178.7 356.274 -26.1082 373.639C87.8908 386.04 206.049 381.841 315.304 344.766C368.865 325.793 422.448 297.917 456.83 251.404C518.118 166.91 464.606 74.3507 399.651 10.7537C309.064 -77.7203 206.302 -136.27 77.2499 -98.9024C-68.7342 -56.2234 -191.986 66.8993 -353.42 48.6017C-391.772 44.5371 -428.98 32.6104 -463.703 16.0651C-515.673 -8.39159 -565.937 -40.4886 -600.803 -86.9376C-612.335 -102.219 -622.092 -119.245 -629.012 -137.101C-636.082 -154.903 -640.442 -174.036 -642.141 -193.078C-650.383 -286.501 -596.95 -384.881 -537.247 -453.598L-537.211 -453.59Z" fill="#73206F"/>
<path d="M-537.211 -453.59C-588.717 -387.93 -630.771 -301.995 -630.677 -217.189C-630.444 -171.072 -616.019 -126.948 -588.586 -89.8333C-552.685 -41.4282 -500.364 -8.17521 -446.002 16.2393C-376.549 49.3563 -296.073 57.3441 -221.948 36.213C-84.2947 0.373706 33.3255 -116.333 179.711 -112.522C257.728 -110.05 328.486 -68.8516 385.93 -18.6049C411.288 3.33515 435.557 27.3065 455.741 54.1293C559.619 192.187 472.928 299.49 330.039 347.861C115.878 417.893 -142.582 376.224 -343.343 281.298C-378.086 264.847 -411.75 246.177 -444.509 226.096C-497.803 193.878 -553.507 165.012 -612.558 144.85C-670.386 125.664 -736.118 112.102 -795.79 130.199C-844.403 144.988 -877.075 181.022 -886.999 230.955C-890.674 249.692 -891.066 269.115 -888.862 288.067C-876.616 384.139 -811.378 465.998 -734.611 521.429C-719.008 532.609 -702.758 542.871 -686.006 552.257C-769.474 506.049 -842.895 434.775 -876.318 344.091C-889.202 308.05 -895.368 268.644 -888.027 230.745C-879.91 189.04 -855.15 154.917 -816.366 136.789C-803.44 130.559 -789.27 126.306 -775.149 123.773C-729.95 115.644 -683.446 122.783 -639.609 134.864C-607.26 143.831 -575.627 156.156 -545.148 170.125C-510.228 186.227 -476.414 204.606 -443.54 224.5C-296.681 315.28 -127.001 368.912 45.3713 378.818C159.425 384.404 278.375 374.022 382.18 323.472C500.038 264.544 537.276 165.544 453.892 55.5225C433.819 28.8232 409.68 4.94238 384.449 -16.8953C327.39 -66.8468 257.146 -107.884 179.632 -110.371C131.602 -112.086 84.3028 -99.4417 40.3039 -80.9617C-48.1315 -43.9969 -128.145 12.7569 -221.52 37.863C-295.968 58.9865 -376.946 50.84 -446.575 17.498C-501.089 -7.07423 -553.526 -40.5393 -589.418 -89.2165C-616.849 -126.517 -631.252 -170.91 -631.354 -217.174C-631.255 -302.062 -588.956 -387.981 -537.226 -453.581L-537.211 -453.59Z" fill="#73206F"/>
<path d="M-537.211 -453.59C-580.641 -392.557 -614.02 -317.062 -618.872 -241.726C-622.2 -188.444 -608.945 -136.103 -577.435 -92.6484C-540.976 -41.6933 -486.152 -7.21258 -429.386 17.3869C-377 40.962 -318.705 52.0029 -261.447 45.6152C-164.914 35.4075 -81.1869 -17.7633 3.91864 -60.084C55.3202 -85.6672 109.778 -108.371 167.728 -112.254C259.385 -119.133 341.455 -71.883 407.638 -12.6291C474.611 46.1482 547.858 138.936 502.83 231.115C471.697 292.335 406.757 326.743 344.262 348.601C160.578 407.575 -41.6137 386.012 -222.09 325.094C-281.081 304.659 -338.255 278.949 -392.574 248.178C-405.136 241.158 -417.431 233.597 -429.775 226.2C-478.974 196.502 -530.157 169.624 -584.212 149.898C-654.016 124.441 -746.066 104.875 -813.494 145.235C-840.256 161.596 -859.69 187.605 -868.357 217.692L-869.885 222.843L-871.84 231.575C-872.128 232.733 -872.286 233.92 -872.467 235.101L-873.023 238.644C-873.925 243.269 -874.125 248.333 -874.625 252.884C-880.012 360.731 -803.626 461.661 -719.357 521.845C-703.767 533.023 -687.514 543.273 -670.773 552.656C-691.713 541.005 -711.945 527.936 -731.034 513.447C-810.379 453.047 -880.522 356.41 -875.611 252.832C-875.397 250.001 -874.881 244.743 -874.576 242.069C-874.27 240.254 -873.772 236.749 -873.481 234.944C-873.072 231.794 -871.569 225.779 -870.904 222.597C-863.868 195.258 -848.557 169.738 -825.978 152.47L-823.156 150.216L-820.171 148.185C-818.161 146.852 -816.2 145.458 -814.161 144.169L-807.874 140.598C-804.936 138.843 -801.27 137.296 -798.161 135.789C-794.441 133.992 -788.612 131.905 -784.735 130.478C-782.741 129.851 -776.497 127.978 -774.373 127.33C-714.358 112.022 -651.376 125.499 -593.817 144.714C-572.304 152.28 -551.069 160.781 -530.371 170.325C-495.471 186.398 -461.666 204.763 -428.796 224.619C-265.779 325.341 -74.5615 380.901 117.19 380.706C240.266 380.811 438.753 349.537 500.673 230.075C545.154 139.098 472.208 47.0475 406.122 -10.9273C340.425 -69.7768 258.893 -116.923 167.849 -110.11C110.184 -106.277 56.0057 -83.65 4.80545 -58.2474C-80.4497 -15.9841 -164.55 37.1806 -261.3 47.2415C-318.796 53.5775 -377.434 42.3877 -429.948 18.6601C-486.868 -6.0971 -541.829 -40.8069 -578.265 -92.0434C-609.762 -135.732 -622.961 -188.273 -619.482 -241.733C-614.427 -317.138 -580.849 -392.577 -537.228 -453.569L-537.211 -453.59Z" fill="#73206F"/>
<path d="M-537.211 -453.59C-591.527 -368.694 -629.252 -252.309 -595.676 -153.296C-564.589 -59.8294 -475.396 -2.73852 -386.461 28.6092C-231.841 82.3161 -112.881 6.44822 20.1904 -61.3159C54.6125 -78.259 89.9676 -93.8662 127.274 -103.395C249.383 -136.699 352.946 -79.7196 439.441 3.05894C575.148 130.787 564.364 264.621 385.785 339.127C145.466 432.404 -172.845 369.664 -390.185 241.184C-447.42 206.318 -506.045 172.969 -569.282 150.194C-605.135 137.079 -642.643 127.105 -680.719 123.611C-725.375 119.687 -773.951 125.615 -810.136 153.973C-830.933 169.982 -845.906 193.134 -853.175 218.267L-854.193 221.697L-854.691 223.42L-855.07 225.169L-856.634 232.155C-858.001 239.034 -858.826 246.467 -859.402 253.443C-864.672 361.265 -788.361 462.08 -704.101 522.249C-688.511 533.427 -672.267 543.662 -655.539 553.043C-672.301 543.705 -688.565 533.502 -704.189 522.367C-785.885 463.949 -857.754 371.535 -860.685 267.765C-860.877 259.613 -860.296 250.72 -859.375 242.611C-858.86 239.085 -858.3 235.407 -857.662 231.945C-857.369 230.364 -855.998 224.557 -855.717 223.148C-850.122 201.651 -839.728 181.206 -824.274 165.098C-823.145 163.748 -817.986 158.936 -816.491 157.566C-815.057 156.245 -812.479 154.25 -810.907 152.983C-807.252 149.876 -803.05 147.349 -799.112 144.665L-792.825 141.094C-791.766 140.527 -790.749 139.863 -789.653 139.353L-786.389 137.818C-784.199 136.81 -782.054 135.718 -779.832 134.792C-775.596 133.206 -770.486 131.037 -766.257 129.886C-702.77 110.186 -629.72 126.705 -568.703 148.675C-514.53 168.315 -463.2 195.149 -413.878 224.8C-218.652 344.861 18.1563 403.315 246.364 373.051C303.089 364.804 359.472 350.54 411.01 325.074C570.301 244.656 558.33 118.135 437.901 4.69354C328.974 -98.6185 218.235 -144.185 73.4344 -83.1985C-82.347 -17.1303 -206.057 92.103 -386.886 29.9372C-476.22 -1.69645 -565.393 -59.0568 -596.416 -153.045C-629.779 -252.299 -591.804 -368.679 -537.173 -453.595L-537.211 -453.59Z" fill="#73206F"/>
<path d="M-537.211 -453.59C-598.213 -346.649 -629.253 -200.45 -552.131 -93.6541C-514.386 -40.6888 -457.235 -5.0309 -397.647 18.9841C-327.015 49.1926 -246.644 54.2676 -172.953 32.3819C-27.5847 -6.59367 98.9848 -136.447 257.737 -109.288C334.257 -95.7668 399.728 -48.539 455.04 3.8365C508.786 55.15 562.505 127.822 542.84 206.003C511.872 316.876 363.29 361.297 261.461 375.8C37.6349 405.245 -194.77 349.726 -387.562 234.092C-479.981 177.435 -612.005 109.84 -722.914 125.253C-729.964 126.242 -737.067 127.817 -743.968 129.497L-754.249 132.613C-755.379 132.991 -756.476 133.451 -757.602 133.867L-764.282 136.431C-767.96 137.975 -770.495 139.369 -774.019 140.948C-775.091 141.463 -776.103 142.103 -777.149 142.673L-783.376 146.194L-789.317 150.176C-790.301 150.86 -791.319 151.474 -792.263 152.204L-795.065 154.424C-812.083 167.503 -825.121 185.468 -833.345 205.225C-835.749 211.306 -837.818 217.572 -839.536 223.889L-839.916 225.638L-841.48 232.624C-842.829 239.482 -843.662 246.951 -844.236 253.915C-849.33 359.433 -776.348 458.106 -694.722 518.402C-677.388 531.204 -659.166 542.902 -640.363 553.418C-657.116 544.093 -673.38 533.891 -689.005 522.756C-770.691 464.352 -842.532 371.981 -845.507 268.239C-845.744 264.326 -845.302 257.857 -845.22 253.851C-844.914 251.289 -844.554 245.599 -844.211 243.095C-843.56 239.573 -843.234 235.882 -842.51 232.426L-840.959 225.387C-835.903 204.421 -826.152 184.298 -811.619 168.239C-807.09 163.054 -801.314 157.642 -795.851 153.444C-792.919 150.853 -787.365 147.385 -784.065 145.111C-781.403 143.595 -777.125 141.121 -774.629 139.794L-771.365 138.259C-769.176 137.251 -767.03 136.159 -764.818 135.218L-758.082 132.63C-756.956 132.213 -755.844 131.744 -754.7 131.357C-689.933 110.066 -616.215 126.555 -553.737 148.979C-535.703 155.442 -517.897 162.901 -500.472 170.851C-465.59 186.895 -431.789 205.221 -398.94 225.06C-177.489 361.507 120.57 426.808 372.769 347.493C503.084 304.071 599.788 206.051 509.348 70.5696C493.366 46.7502 474.132 25.2779 453.429 5.4556C385.583 -59.7647 298.053 -116.644 200.271 -110.744C142.597 -107.735 88.1881 -85.6563 36.8991 -60.5346C-64.6047 -10.1829 -168.603 55.3619 -286.576 46.9079C-324.984 44.6 -362.724 34.95 -398.202 20.2216C-455.788 -3.07297 -510.939 -37.1387 -548.73 -87.2988C-580.959 -129.339 -597.581 -182.087 -598.48 -234.802C-599.652 -311.581 -575.066 -387.375 -537.268 -453.615L-537.211 -453.59Z" fill="#73206F"/>
<path d="M-537.211 -453.59C-575.295 -377.509 -597.104 -288.519 -583.912 -203.54C-576.406 -156.332 -555.891 -111.125 -524.258 -75.1429C-486.504 -31.5435 -435.631 -1.39478 -382.352 19.4964C-311.361 48.7984 -231.045 52.977 -157.438 31.0732C-12.2106 -8.05743 114.824 -137.523 273.485 -109.313C340.14 -97.1825 399.014 -59.0583 449.204 -14.9934C478.077 10.2996 505.267 37.9437 526.701 69.9333C542.638 93.9549 555.422 120.557 560.243 149.195C567.278 187.469 556.287 227.703 532.38 258.175C473.431 332.736 367.032 362.681 276.475 376.226C59.7886 404.789 -164.844 353.298 -353.857 245.433C-359.398 242.164 -366.959 237.797 -372.429 234.432C-417.322 206.962 -463.67 181.432 -512.34 161.265C-583.694 132.196 -674.629 106.681 -749.108 136.867C-751.294 137.801 -753.434 138.869 -755.597 139.87L-758.832 141.386C-759.907 141.913 -760.916 142.542 -761.963 143.112L-768.19 146.633L-774.121 150.63C-775.105 151.313 -776.124 151.927 -777.056 152.659L-779.858 154.88C-800.624 170.921 -815.561 194.081 -822.792 219.21C-826.923 232.802 -828.888 247.337 -829.258 261.533C-830.418 348.496 -779.911 428.794 -718.164 486.7C-690.185 512.721 -658.461 535.219 -625.122 553.831C-641.875 544.507 -658.138 534.305 -673.751 523.172C-754.204 465.409 -823.179 377.596 -830.076 275.894C-831.725 242.238 -824.923 207.922 -805.403 179.963C-802.58 176.203 -799.675 172.123 -796.4 168.697C-794.727 166.967 -793.185 164.972 -791.477 163.424L-786.215 158.485C-783.797 156.306 -780.38 153.72 -777.822 151.646C-776.289 150.558 -770.631 146.727 -768.867 145.552C-766.138 144.014 -761.97 141.591 -759.431 140.235C-756.179 138.698 -752.863 137.099 -749.62 135.66L-742.884 133.071C-685.602 112.587 -622.697 123.256 -565.86 140.16C-539.524 148.322 -513.738 158.446 -488.572 169.706C-452.573 186.179 -417.658 204.946 -383.786 225.418C-188.675 345.491 48.0054 404.017 276.15 373.926C366.188 360.417 471.853 330.638 530.461 256.725C553.971 226.703 564.852 187.267 557.912 149.586C547.746 92.6077 509.504 45.3896 468.902 6.06867C401.062 -59.1252 313.851 -116.322 216.077 -111.092C158.385 -108.461 103.875 -86.604 52.5279 -61.6193C-33.0267 -19.9316 -117.018 32.559 -213.408 44.1804C-270.717 51.4914 -329.469 42.4443 -382.865 20.768C-448.434 -4.83001 -510.788 -45.6641 -548.615 -106.246C-614.336 -211.605 -590.31 -348.062 -537.211 -453.59Z" fill="#73206F"/>
<path d="M-537.211 -453.59C-581.903 -351.684 -599.313 -221.578 -543.399 -120.7C-524.96 -87.1545 -498.76 -58.1057 -468.375 -34.9015C-391.959 21.5749 -294.104 54.1834 -198.833 41.7962C-102.67 29.9011 -18.9312 -22.3452 66.568 -64.0075C118.175 -89.0978 173.027 -110.918 231.035 -113.456C329.381 -118.45 417.169 -60.9162 485.465 4.58844C506.283 24.5105 525.666 46.1023 541.741 70.0665C632.735 206.39 536.904 306.368 404.033 350.532C161.102 428.119 -135.147 366.96 -350.942 238.603C-405.98 204.823 -462.951 173.341 -523.804 151.306C-559.648 138.205 -597.16 128.256 -635.227 124.776C-679.874 120.867 -728.446 126.832 -764.589 155.225C-781.607 168.304 -794.645 186.269 -802.881 206.023C-805.284 212.104 -807.353 218.37 -809.072 224.687L-809.451 226.436L-811.015 233.422C-812.367 240.292 -813.195 247.737 -813.771 254.713C-819.002 362.469 -742.675 463.324 -658.455 523.448C-642.874 534.611 -626.632 544.858 -609.901 554.227C-626.652 544.891 -642.918 534.701 -658.543 523.566C-740.229 465.162 -812.07 372.791 -815.045 269.049C-815.301 265.169 -814.823 258.645 -814.758 254.661C-814.497 252.076 -814.056 246.417 -813.749 243.904C-813.234 240.378 -812.674 236.7 -812.048 233.236L-810.497 226.197C-805.441 205.231 -795.691 185.108 -781.157 169.049C-776.628 163.864 -770.852 158.451 -765.377 154.257C-762.445 151.666 -756.891 148.198 -753.591 145.923C-750.903 144.401 -746.666 141.943 -744.155 140.606L-740.891 139.071C-738.702 138.063 -736.556 136.971 -734.344 136.031L-727.608 133.442C-726.482 133.026 -725.37 132.557 -724.229 132.181C-659.462 110.89 -585.743 127.379 -523.269 149.815C-505.234 156.278 -487.428 163.737 -470.003 171.688C-435.121 187.732 -401.32 206.058 -368.471 225.897C-238.151 306.651 -89.8715 358.012 62.3707 375.725C185.383 389.245 314.043 384.307 430.115 338.284C550.844 289.421 621.867 193.683 539.807 71.3914C523.826 47.572 504.588 26.1115 483.877 6.2748C415.991 -58.8792 328.891 -116.189 231.113 -111.284C173.402 -108.794 118.84 -87.0475 67.4469 -62.1353C-18.1849 -20.5516 -102.285 31.6913 -198.641 43.4447C-294.336 55.7151 -392.478 22.9324 -469.11 -33.9272C-499.536 -57.2897 -525.769 -86.5325 -544.186 -120.235C-599.913 -221.459 -582.241 -351.62 -537.211 -453.59Z" fill="#73206F"/>
<path d="M-537.211 -453.59C-564.165 -382.184 -576.295 -303.89 -566.313 -227.929C-550.378 -105.021 -467.728 -21.1952 -353.813 19.8522C-300.201 40.2425 -241.605 48.6327 -184.609 41.0922C-68.6473 26.8861 27.5051 -45.2799 133.709 -87.6742C149.329 -93.8433 165.335 -99.2563 181.574 -103.56C285.174 -132.105 375.318 -98.6766 456.735 -33.3925C486.403 -9.40957 515.349 16.9831 539.382 46.7082C590.46 108.83 616.545 188.368 563.344 258.221C527.904 304.493 473.833 331.976 419.78 350.744C236.104 409.507 34.0114 387.891 -146.377 326.917C-205.34 306.463 -262.488 280.747 -316.78 249.969C-329.342 242.949 -341.623 235.379 -353.957 227.996C-394.936 203.194 -437.345 180.61 -481.574 162.166C-559.532 129.959 -671.998 99.839 -746.464 153.273L-752.067 157.714C-752.993 158.473 -753.965 159.159 -754.81 160.01L-760.036 164.894C-760.463 165.312 -760.921 165.699 -761.327 166.134L-762.525 167.457L-764.931 170.099C-767.869 173.237 -771.298 177.664 -773.904 181.222C-783.165 194.425 -789.72 209.361 -793.854 224.921C-794.839 229.467 -796.452 236.043 -796.977 240.713C-797.876 245.264 -798.078 250.453 -798.577 254.941C-803.873 362.771 -727.543 463.614 -643.284 523.784C-627.693 534.961 -611.452 545.209 -594.721 554.578C-628.126 536.038 -659.952 513.606 -688.003 487.631C-753.6 426.823 -808.777 336.419 -798.552 244.121C-795.653 221.479 -788.029 199.313 -774.89 180.535C-772.752 177.635 -770.545 174.762 -768.289 171.95C-767.105 170.575 -764.629 167.96 -763.436 166.599L-762.225 165.267C-761.816 164.82 -761.358 164.433 -760.93 164.015C-758.658 161.879 -755.193 158.494 -752.894 156.75L-750.073 154.497C-746.418 151.39 -742.215 148.862 -738.277 146.178C-735.522 144.632 -731.402 142.199 -728.833 140.875C-725.58 139.338 -722.26 137.716 -719.012 136.314C-716.048 135.188 -711.626 133.431 -708.885 132.468C-706.871 131.87 -700.653 129.942 -698.519 129.308C-637.362 113.737 -573.115 127.762 -514.633 147.788C-494.257 154.957 -474.201 163.141 -454.583 172.14C-419.691 188.198 -385.893 206.536 -353.035 226.39C-190.095 327.12 1.02377 382.734 192.716 382.638C315.091 383.039 514.794 351.281 576.401 232.574C621.427 141.727 548.724 49.5926 482.716 -8.51451C463.228 -25.8811 442.23 -42.6156 420.571 -57.1018C344.111 -108.081 264.321 -125.849 175.142 -99.6717C105.846 -79.5866 43.7345 -41.9988 -20.9632 -11.0134C-89.5353 22.5954 -164.559 49.0755 -242.014 44.9937C-280.289 43.3376 -318.533 34.637 -354.347 21.1067C-468.62 -20.2426 -551.26 -104.577 -566.95 -227.868C-576.741 -303.962 -564.411 -382.2 -537.268 -453.615L-537.211 -453.59Z" fill="#73206F"/>
</g>
</g>
</svg>
