<svg width="16" height="21" viewBox="0 0 16 21" fill="none" xmlns="http://www.w3.org/2000/svg">
<path d="M8 10.5V16.5M8 16.5L11 14.5M8 16.5L5 14.5M9 1.50087C8.90451 1.5 8.79728 1.5 8.67471 1.5H4.2002C3.08009 1.5 2.51962 1.5 2.0918 1.71799C1.71547 1.90973 1.40973 2.21547 1.21799 2.5918C1 3.01962 1 3.58009 1 4.7002V16.3002C1 17.4203 1 17.9801 1.21799 18.4079C1.40973 18.7842 1.71547 19.0905 2.0918 19.2822C2.5192 19.5 3.07899 19.5 4.19691 19.5H11.8031C12.921 19.5 13.48 19.5 13.9074 19.2822C14.2837 19.0905 14.5905 18.7842 14.7822 18.4079C15 17.9805 15 17.4215 15 16.3036V7.82568C15 7.70296 15 7.59561 14.9991 7.5M9 1.50087C9.28564 1.50347 9.46634 1.51385 9.63884 1.55526C9.84291 1.60425 10.0379 1.68526 10.2168 1.79492C10.4186 1.91857 10.5918 2.09182 10.9375 2.4375L14.063 5.56298C14.4089 5.90889 14.5809 6.08136 14.7046 6.28319C14.8142 6.46214 14.8953 6.65726 14.9443 6.86133C14.9857 7.03376 14.9963 7.21451 14.9991 7.5M9 1.50087V4.3C9 5.4201 9 5.97977 9.21799 6.40759C9.40973 6.78392 9.71547 7.09048 10.0918 7.28223C10.5192 7.5 11.079 7.5 12.1969 7.5H14.9991M14.9991 7.5H15.0002" stroke="#91298C" stroke-width="2" stroke-linecap="round" stroke-linejoin="round"/>
</svg>
