<svg width="20" height="14" viewBox="0 0 20 14" fill="none" xmlns="http://www.w3.org/2000/svg">
<path d="M19.8295 3.73816C19.7067 2.55245 19.4424 1.24169 18.4694 0.552862C17.7159 0.018688 16.7254 -0.00105991 15.8008 3.69543e-05C13.8461 3.69543e-05 11.8904 0.00333184 9.93581 0.00442871C8.05578 0.00662244 6.17574 0.00771797 4.29571 0.0099117C3.51035 0.0099117 2.74693 -0.0504173 2.01751 0.289611C1.3912 0.581378 0.900903 1.1364 0.605845 1.75393C0.196714 2.61278 0.111162 3.5857 0.0618033 4.53558C-0.0292367 6.26534 -0.0193649 7.99949 0.089225 9.72815C0.169296 10.9895 0.372214 12.3837 1.34733 13.1877C2.21166 13.8995 3.43137 13.9346 4.55237 13.9357C8.11061 13.939 11.67 13.9423 15.2293 13.9445C15.6856 13.9456 16.1616 13.9368 16.6267 13.8864C17.5415 13.7877 18.4135 13.5255 19.0014 12.8476C19.5948 12.1643 19.7473 11.2133 19.8372 10.3128C20.0566 8.12782 20.0544 5.92202 19.8295 3.73816ZM7.87808 10.0353V3.90927L13.1825 6.97172L7.87808 10.0353Z" fill="white"/>
</svg>
