<svg width="1280" height="2080" viewBox="0 0 1280 2080" fill="none" xmlns="http://www.w3.org/2000/svg">
<path d="M161 395.71C91.4 396.91 18 435.889 -10 461.73L-90 2048.12C-80.6667 2073.96 -40.2 2108.44 47 2039.61C156 1953.59 200 1850.56 468.5 1869.56C613.469 1879.83 792.5 1907.07 863.5 1829.55C934.5 1752.03 1101.5 1859.06 1215.5 1753.03C1306.7 1668.2 1305.5 1501.62 1303.5 1428.93L1309 0.090484C1088.5 -5.91135 1179 288.677 970.5 284.176C816.5 277.173 737.5 287.676 677 362.199C602.504 453.963 554.884 402.291 461.5 428.219C330 464.73 248 394.209 161 395.71Z" fill="url(#paint0_linear_159_4831)"/>
<defs>
<linearGradient id="paint0_linear_159_4831" x1="609.5" y1="0" x2="609.5" y2="2080" gradientUnits="userSpaceOnUse">
<stop stop-color="#91298C"/>
<stop offset="1" stop-color="#224193"/>
</linearGradient>
</defs>
</svg>
