<svg width="40" height="40" viewBox="0 0 40 40" fill="none" xmlns="http://www.w3.org/2000/svg">
<path d="M20.0455 0H19.9545C8.93393 0 0 8.93391 0 19.9545V20.0455C0 31.0661 8.93393 40 19.9545 40H20.0455C31.0661 40 40 31.0661 40 20.0455V19.9545C40 8.93391 31.0661 0 20.0455 0Z" fill="#DFE0E5"/>
<path d="M11.6111 14.3694C11.2069 13.9942 11.0059 13.5298 11.0059 12.9773C11.0059 12.4247 11.2079 11.9399 11.6111 11.5636C12.0153 11.1885 12.5356 11.0003 13.1731 11.0003C13.8105 11.0003 14.3104 11.1885 14.7135 11.5636C15.1177 11.9388 15.3188 12.4107 15.3188 12.9773C15.3188 13.5438 15.1167 13.9942 14.7135 14.3694C14.3093 14.7446 13.7966 14.9327 13.1731 14.9327C12.5496 14.9327 12.0153 14.7446 11.6111 14.3694ZM14.9791 16.5215V28.0241H11.3445V16.5215H14.9791Z" fill="#81848F"/>
<path d="M27.0794 17.6578C27.8717 18.5178 28.2673 19.6981 28.2673 21.201V27.8209H24.8155V21.6675C24.8155 20.9097 24.6187 20.3206 24.2264 19.9013C23.834 19.4821 23.3051 19.2714 22.6429 19.2714C21.9807 19.2714 21.4518 19.481 21.0594 19.9013C20.667 20.3206 20.4703 20.9097 20.4703 21.6675V27.8209H16.998V16.4893H20.4703V17.9921C20.8218 17.4912 21.2959 17.0956 21.8915 16.8042C22.487 16.5129 23.1567 16.3678 23.9017 16.3678C25.2283 16.3678 26.2882 16.7978 27.0794 17.6567V17.6578Z" fill="#81848F"/>
</svg>
