<svg width="1280" height="800" viewBox="0 0 1280 800" fill="none" xmlns="http://www.w3.org/2000/svg">
<g opacity="0.5" clip-path="url(#clip0_39_5203)">
<path d="M634.833 391.973C644 445.993 640.226 505.719 613.682 554.516C593.591 591.676 558.773 618.202 518.764 630.806C479.161 643.499 436.272 646.185 395.425 638.302C312.233 621.99 247.14 563.3 172.431 527.138C109.589 495.354 38.6905 483.457 -30.9724 494.302C-116.877 505.762 -190.126 552.027 -232.343 628.519C-266.158 689.506 -280.693 760.352 -279.794 829.753C-280.418 774.173 -270.31 718.165 -249.489 666.602C-211 570.598 -133.173 509.83 -30.7074 496.159C38.6322 485.455 109.001 497.363 171.499 529.044C246.313 565.18 311.661 623.881 395.072 640.1C436.218 648.014 479.384 645.114 519.223 632.21C575.346 614.176 614.453 573.073 630.281 516.285C641.471 475.987 642.23 433.016 634.833 391.973Z" fill="#B861B3"/>
<path d="M634.832 391.973C645.649 445.586 644.404 505.105 621.217 555.372C603.405 594.054 571.642 622.667 532.146 638.063C480.521 658.21 421.978 659.992 369.186 643.158C302.519 622.153 246.608 578.437 184.782 547.112C108.429 506.727 26.111 493.968 -58.2224 514.506C-143.136 534.069 -209.254 588.309 -245.34 667.667C-268.331 718.308 -279.888 774.172 -279.784 829.741C-279.48 770.833 -266.237 711.483 -239.828 658.742C-202.814 584.559 -138.396 534.783 -57.7908 516.283C26.137 495.952 107.937 508.753 183.828 548.997C245.705 580.278 301.819 624.007 368.632 644.953C421.82 661.878 480.771 659.941 532.7 639.432C572.387 623.805 604.412 594.811 622.147 555.802C645.11 505.247 646.003 445.668 634.832 391.973Z" fill="#B861B3"/>
<path d="M634.833 391.973C648.595 451.606 648.652 519.565 619.667 574.766C600.672 610.651 568.939 636.587 531.168 650.778C469.663 674.09 404.293 670.995 343.989 645.629C292.525 624.58 246.4 592.905 197.233 567.19C120.681 525.804 41.822 507.982 -44.3858 526.482C-161.196 548.952 -241.644 632.626 -268.937 747.303C-275.512 774.275 -279.639 801.976 -279.794 829.764C-279.732 815.876 -278.385 802.011 -276.482 788.273C-263.626 692.335 -211.641 598.437 -122.418 554.954C-60.4435 524.532 11.7557 513.957 79.7696 526.161C148.646 538.426 209.026 575.541 268.81 609.931C316.774 637.425 368.044 663.194 424.035 667.661C462.199 670.789 501.133 664.736 536.592 650.297C572.514 635.499 602.509 609.898 620.665 575.31C649.416 520.363 648.98 451.144 634.833 391.973Z" fill="#B861B3"/>
<path d="M634.833 391.973C650.231 450.839 652.771 519.072 627.625 575.552C607.365 621.243 567.803 652.269 520.66 666.929C365.891 716.189 267.524 600.555 133.942 552.855C81.6024 533.795 24.3631 528.359 -30.4573 538.623C-85.1106 548.286 -138.394 570.474 -180.154 607.584C-243.034 662.958 -276.505 746.957 -279.783 829.753C-278.915 802.021 -273.678 774.488 -265.888 747.903C-246.55 681.495 -205.196 620.621 -146.046 583.762C-87.3399 547.462 -16.1948 530.942 52.5238 536.599C93.9644 540.191 134.077 553.051 171.678 570.533C288.45 625.337 382.567 713.146 521.178 668.469C576.715 650.894 618.495 612.711 636.119 556.519C652.535 503.582 649.045 445.037 634.833 391.973Z" fill="#B861B3"/>
<path d="M634.833 391.973C650.08 444.677 655.164 502.734 641.468 556.285C626.984 612.711 589.082 653.968 534.812 674.581C323.525 754.066 205.847 516.293 -16.4904 550.953C-98.773 562.779 -178.965 604.161 -226.284 674.031C-257.618 719.813 -276.473 774.376 -279.783 829.763C-278.277 802.059 -271.982 774.706 -262.988 748.52C-230.681 653.155 -153.943 585.552 -56.8499 561.172C27.9139 537.591 106.747 551.826 184.528 590.233C300.316 646.997 399.551 728.509 535.414 676.107C589.927 655.197 628.158 613.429 642.476 556.563C655.867 502.78 650.431 444.695 634.833 391.973Z" fill="#B861B3"/>
<path d="M634.833 391.973C657.049 462.446 663.858 550.997 624.149 616.391C591.816 669.846 529.362 697.039 468.99 702.46C413.335 707.482 358.777 689.455 309.273 665.398C234.654 629.36 163.61 581.353 80.6703 566.581C39.5853 559.132 -3.11025 560.526 -43.5584 570.918C-48.9352 572.321 -58.3663 574.502 -63.6936 576.349C-106.92 589.176 -148.29 609.987 -182.464 639.608C-186.207 642.613 -187.036 643.644 -190.219 646.574C-195.303 651.076 -200.381 656.501 -204.964 661.323C-207.423 663.788 -209.607 666.497 -211.879 669.125L-215.265 673.092C-215.822 673.751 -216.401 674.401 -216.947 675.081L-218.541 677.151C-244.426 709.764 -262.9 748.336 -272.995 788.696C-276.256 802.18 -278.861 815.883 -279.794 829.742C-276.107 788.342 -262.026 747.897 -241.248 712.026C-203.591 647.308 -143.815 603.789 -73.1202 581.035C-22.7702 564.569 27.9722 558.745 80.343 568.484C191.143 587.942 278.715 668.092 386.327 696.753C470.189 719.759 577.98 694.612 625.247 617.059C664.943 551.315 657.53 462.523 634.833 391.973Z" fill="#B861B3"/>
<path d="M634.833 391.973C661.411 470.702 670.934 571.724 617.937 641.565C594.681 671.972 560.64 692.448 524.48 703.943C456.89 727.105 386.302 712.901 322.97 683.717C193.197 623.784 91.306 542.718 -60.2031 590.18C-103.317 603.438 -145.022 623.296 -179.87 652.255C-184.967 656.163 -190.822 661.789 -195.578 666.002L-202.966 673.377C-204.179 674.625 -205.458 675.802 -206.616 677.1C-208.748 679.521 -213.132 684.26 -215.355 686.791L-217.004 688.81L-223.611 696.886L-229.846 705.256C-256.016 741.883 -274.549 784.841 -279.805 829.743C-274.29 784.947 -255.517 742.161 -229.168 705.76L-222.91 697.453L-216.268 689.438L-214.608 687.44L-212.86 685.513L-209.352 681.679C-205.652 677.327 -198.913 670.965 -194.813 666.821C-191.772 664.046 -186.096 658.979 -183.172 656.452C-179.109 653.254 -175.066 649.792 -170.997 646.71C-165.837 643.075 -159.249 637.983 -153.975 634.789C-125.126 615.582 -92.7758 601.957 -59.746 591.797C55.9812 555.729 145.987 594.965 247.381 648.641C320.171 686.716 399.585 728.009 484.353 715.203C538.18 707.155 592.159 681.903 623.628 636.073C671.503 565.502 661.209 468.852 634.833 391.973Z" fill="#B861B3"/>
<path d="M634.833 391.973C660.442 462.375 672.821 550.651 640.866 620.768C627.206 650.761 604.229 676.199 576.237 693.472C529.034 722.615 471.3 734.057 416.568 724.965C361.435 716.207 310.869 691.057 261.469 666.148C163.351 615.579 65.828 567.439 -46.8084 601.186C-105.357 617.469 -161.54 645.994 -204.851 689.185C-242.319 726.942 -271.474 776.799 -279.794 829.753C-273.14 788.522 -253.742 749.967 -228.376 717.098L-221.823 709.002C-220.024 707.03 -214.729 700.906 -213.204 699.242C-212.614 698.603 -212.001 697.995 -211.4 697.366C-209.513 695.465 -206.01 691.779 -204.143 689.89C-160.787 647.057 -104.773 618.805 -46.3522 602.781C180.174 535.842 327.639 795.772 539.708 713.549C583.849 696.513 620.446 666.964 640.95 623.684C674.218 552.676 661.233 463.31 634.833 391.973Z" fill="#B861B3"/>
</g>
<g opacity="0.5" clip-path="url(#clip1_39_5203)">
<path d="M636.086 397.79C634.706 342.144 650.746 282.969 690.868 242.834C725.975 207.337 776.921 193.575 825.706 193.202C951.217 190.704 1007.22 272.197 1107.97 323.362C1133.26 335.985 1160.19 345.336 1187.91 350.887C1220.83 357.483 1254.63 358.843 1288.08 356.724C1463.26 346.524 1537.48 203.575 1549.89 44.5015C1552.08 16.4098 1552.72 -11.8751 1550.7 -39.9899C1552.57 -11.8687 1551.76 16.4013 1549.41 44.4675C1540.81 140.787 1510.1 244.635 1430.07 305.394C1387.95 337.477 1335.15 352.83 1282.69 355.091C1237.16 357.575 1190.89 352.902 1147.7 337.819C1026.64 296.201 966.969 187.645 825.674 191.6C776.567 192.146 725.305 206.217 690.095 242.079C650.083 282.571 634.36 341.988 636.086 397.79Z" fill="#B861B3"/>
<path d="M636.087 397.79C632.597 342.451 645.112 282.971 682.042 240.203C709.587 207.98 750.415 190.099 791.873 184.54C867.321 174.016 927.862 194.129 990.269 235.506C1037.12 266.176 1082.22 301.161 1135.07 321.231C1211.52 350.614 1306.96 351.3 1382.72 319.49C1462.47 286.087 1512.46 208.362 1533.7 127.037C1548.14 72.7562 1553.76 16.0667 1550.72 -39.9907C1553.42 16.0272 1547.45 72.6565 1532.7 126.769C1501.71 242.612 1423.88 326.437 1301 338.629C1245.43 344.708 1188.08 339.882 1135.83 319.258C1083.06 299.26 1038.2 264.487 991.319 233.882C928.372 192.273 867.61 172.211 791.666 183.073C749.971 188.811 708.856 206.958 681.272 239.523C644.474 282.656 632.251 342.305 636.087 397.79Z" fill="#B861B3"/>
<path d="M636.086 397.789C633.005 369.993 634.571 341.682 640.218 314.312C652.46 253.813 689.26 204.341 748.527 183.72C797.89 166.72 852.921 166.002 902.835 181.178C956.68 197.566 1002.14 231.943 1049.11 261.801C1084.44 284.427 1121.96 304.64 1162.58 315.993C1176.07 319.85 1189.84 322.794 1203.72 324.81C1286.22 335.916 1377.21 322.31 1442.01 266.765C1523.2 197.031 1550.21 84.2126 1551.27 -18.9939C1551.27 -25.9895 1551.16 -32.9916 1550.72 -39.9805C1554.13 67.1668 1526.02 193.659 1440.95 265.522C1398.25 301.938 1342.98 320.713 1287.5 324.973C1231.92 329.97 1175.06 322.364 1123.77 299.972C1033.88 262.536 962.534 182.046 862.231 170.641C807.331 164.528 746.737 173.165 702.014 207.527C645.176 251.29 628.642 329.497 636.086 397.789Z" fill="#B861B3"/>
<path d="M636.087 397.789C626.854 330.142 639.234 252.345 692.144 204.821C710.244 188.526 732.311 176.988 755.47 169.706C798.688 156.646 845.526 155.107 889.372 166.056C971.563 186.814 1034.68 247.949 1110.76 282.401C1186.78 318.479 1276.28 323.255 1356.41 298.256C1470.96 262.394 1529.71 156.867 1545.78 43.5187C1549.78 15.9067 1551.84 -12.0841 1550.72 -39.9805C1551.28 -26.0323 1550.81 -12.0644 1549.89 1.85774C1536.26 191.054 1431.55 321.354 1232.18 311.319C1123.92 305.858 1055.95 247.112 967.263 196.062C942.797 182.536 917.001 171.08 889.811 164.287C845.666 153.287 798.497 155.05 755.034 168.333C717.695 180.055 685.414 202.626 664.288 235.91C634.457 283.448 628.346 343.087 636.087 397.789Z" fill="#B861B3"/>
<path d="M636.086 397.789C626.919 343.77 630.693 284.044 657.237 235.246C677.328 198.086 712.146 171.56 752.155 158.957C791.758 146.263 834.647 143.577 875.494 151.46C958.686 167.772 1023.78 226.462 1098.49 262.624C1161.33 294.408 1232.23 306.306 1301.89 295.461C1387.8 284 1461.05 237.736 1503.26 161.243C1537.08 100.256 1551.61 29.4108 1550.71 -39.9911C1551.34 15.5894 1541.23 71.5977 1520.41 123.161C1481.92 219.165 1404.09 279.932 1301.63 293.603C1232.29 304.308 1161.92 292.399 1099.42 260.719C1024.61 224.582 959.258 165.881 875.847 149.663C834.701 141.749 791.535 144.648 751.696 157.552C695.573 175.586 656.466 216.689 640.638 273.477C629.448 313.775 628.689 356.746 636.086 397.789Z" fill="#B861B3"/>
<path d="M636.087 397.79C625.27 344.176 626.515 284.657 649.702 234.39C667.514 195.708 699.277 167.095 738.773 151.699C790.398 131.552 848.941 129.77 901.733 146.604C968.4 167.609 1024.31 211.325 1086.14 242.65C1162.49 283.036 1244.81 295.795 1329.14 275.256C1414.05 255.693 1480.17 201.454 1516.26 122.095C1539.25 71.4547 1550.81 15.5903 1550.7 -39.9791C1550.4 18.9293 1537.16 78.2791 1510.75 131.02C1473.73 205.203 1409.32 254.979 1328.71 273.479C1244.78 293.81 1162.98 281.01 1087.09 240.765C1025.21 209.484 969.1 165.755 902.287 144.809C849.099 127.885 790.148 129.821 738.219 150.331C698.532 165.957 666.507 194.952 648.772 233.96C625.809 284.515 624.916 344.095 636.087 397.79Z" fill="#B861B3"/>
<path d="M636.087 397.789C622.324 338.157 622.267 270.197 651.252 214.996C670.247 179.112 701.98 153.176 739.751 138.984C801.256 115.672 866.626 118.767 926.93 144.134C978.394 165.182 1024.52 196.857 1073.69 222.572C1150.24 263.958 1229.1 281.781 1315.3 263.28C1432.12 240.81 1512.56 157.136 1539.86 42.4592C1546.43 15.4878 1550.56 -12.214 1550.71 -40.0017C1550.65 -26.1138 1549.3 -12.249 1547.4 1.48935C1534.55 97.427 1482.56 191.326 1393.34 234.809C1331.36 265.23 1259.16 275.805 1191.15 263.601C1122.27 251.336 1061.89 214.221 1002.11 179.831C954.145 152.337 902.875 126.568 846.884 122.102C808.72 118.973 769.786 125.026 734.327 139.466C698.405 154.263 668.41 179.864 650.254 214.452C621.503 269.399 621.939 338.618 636.087 397.789Z" fill="#B861B3"/>
<path d="M636.086 397.789C620.688 338.923 618.148 270.69 643.294 214.21C663.554 168.519 703.116 137.494 750.259 122.833C905.028 73.5736 1003.4 189.207 1136.98 236.907C1189.32 255.968 1246.56 261.403 1301.38 251.139C1356.03 241.477 1409.31 219.289 1451.07 182.178C1513.95 126.805 1547.42 42.8053 1550.7 -39.9904C1549.83 -12.2592 1544.6 15.2746 1536.81 41.8591C1517.47 108.267 1476.12 169.141 1416.96 206.001C1358.26 242.301 1287.11 258.821 1218.4 253.163C1176.95 249.571 1136.84 236.711 1099.24 219.229C982.469 164.425 888.352 76.6163 749.741 121.293C694.204 138.868 652.424 177.052 634.8 233.243C618.384 286.18 621.874 344.725 636.086 397.789Z" fill="#B861B3"/>
<path d="M636.086 397.79C620.839 345.085 615.755 287.028 629.451 233.478C643.935 177.051 681.837 135.794 736.107 115.181C947.394 35.6959 1065.07 273.469 1287.41 238.809C1369.69 226.983 1449.88 185.601 1497.2 115.732C1528.54 69.9494 1547.39 15.3865 1550.7 -40.0006C1549.2 -12.2971 1542.9 15.0559 1533.91 41.2426C1501.6 136.607 1424.86 204.21 1327.77 228.591C1243.01 252.172 1164.17 237.936 1086.39 199.529C970.603 142.765 871.368 61.2533 735.505 113.655C680.992 134.565 642.761 176.333 628.443 233.199C615.052 286.982 620.488 345.067 636.086 397.79Z" fill="#B861B3"/>
<path d="M636.086 397.79C613.87 327.316 607.061 238.765 646.77 173.371C679.103 119.916 741.557 92.7235 801.929 87.3019C857.584 82.2807 912.142 100.308 961.646 124.364C1036.27 160.402 1107.31 208.409 1190.25 223.181C1231.33 230.631 1274.03 229.236 1314.48 218.845C1319.85 217.441 1329.29 215.261 1334.61 213.413C1377.84 200.586 1419.21 179.776 1453.38 150.154C1457.13 147.149 1457.95 146.118 1461.14 143.189C1466.22 138.687 1471.3 133.261 1475.88 128.44C1478.34 125.974 1480.53 123.265 1482.8 120.637L1486.18 116.67C1486.74 116.011 1487.32 115.361 1487.87 114.681L1489.46 112.612C1515.34 79.9978 1533.82 41.4267 1543.91 1.0665C1547.18 -12.4181 1549.78 -26.1208 1550.71 -39.9797C1547.03 1.42015 1532.95 41.8649 1512.17 77.7359C1474.51 142.454 1414.73 185.973 1344.04 208.728C1293.69 225.194 1242.95 231.017 1190.58 221.279C1079.78 201.821 992.204 121.67 884.592 93.0088C800.73 70.0036 692.939 95.15 645.672 172.704C605.976 238.448 613.389 327.24 636.086 397.79Z" fill="#B861B3"/>
<path d="M636.086 397.789C609.508 319.061 599.985 218.038 652.982 148.197C676.238 117.79 710.279 97.314 746.439 85.8194C814.029 62.6577 884.617 76.8608 947.949 106.045C1077.72 165.979 1179.61 247.044 1331.12 199.582C1374.24 186.324 1415.94 166.466 1450.79 137.507C1455.89 133.599 1461.74 127.973 1466.5 123.76L1473.88 116.385C1475.1 115.137 1476.38 113.961 1477.54 112.662C1479.67 110.241 1484.05 105.502 1486.27 102.972L1487.92 100.953L1494.53 92.876L1500.76 84.5064C1526.94 47.8791 1545.47 4.92137 1550.72 -39.9805C1545.21 4.81492 1526.44 47.6017 1500.09 84.0026L1493.83 92.3095L1487.19 100.324L1485.53 102.322L1483.78 104.249L1480.27 108.084C1476.57 112.435 1469.83 118.797 1465.73 122.941C1462.69 125.717 1457.01 130.784 1454.09 133.31C1450.03 136.508 1445.98 139.971 1441.92 143.052C1436.76 146.687 1430.17 151.78 1424.89 154.973C1396.05 174.18 1363.69 187.806 1330.67 197.965C1214.94 234.033 1124.93 194.797 1023.54 141.121C950.748 103.046 871.334 61.7533 786.566 74.5594C732.739 82.6075 678.76 107.859 647.291 153.689C599.416 224.261 609.71 320.91 636.086 397.789Z" fill="#B861B3"/>
<path d="M636.086 397.789C610.477 327.387 598.098 239.111 630.053 168.994C643.713 139.002 666.69 113.563 694.682 96.29C741.885 67.147 799.619 55.7053 854.351 64.7973C909.484 73.5549 960.05 98.7049 1009.45 123.615C1107.57 174.183 1205.09 222.324 1317.73 188.576C1376.28 172.293 1432.46 143.769 1475.77 100.577C1513.24 62.8198 1542.39 12.963 1550.71 -39.991C1544.06 1.2405 1524.66 39.7953 1499.3 72.6644L1492.74 80.7601C1490.94 82.7321 1485.65 88.8561 1484.12 90.5199C1483.53 91.1591 1482.92 91.7674 1482.32 92.3965C1480.43 94.2976 1476.93 97.983 1475.06 99.8726C1431.71 142.705 1375.69 170.958 1317.27 186.981C1090.75 253.92 943.28 -6.00933 731.211 76.2137C687.07 93.2495 650.473 122.798 629.969 166.078C596.701 237.086 609.686 326.452 636.086 397.789Z" fill="#B861B3"/>
<path d="M636.086 397.789C590.894 280.928 584.784 129.536 717.431 70.4682C844.943 11.6586 958.075 88.2956 1071.46 141.133C1147.59 177.28 1231.45 200.615 1314.68 175.057C1354.86 163.328 1393.78 146.68 1428.93 123.835C1481.4 89.7796 1525.45 40.1464 1545.46 -19.76C1547.62 -26.3852 1549.53 -33.1071 1550.71 -39.9907C1548.13 -26.2889 1543.29 -13.0915 1537.67 -0.372876C1509.03 63.5822 1454.02 112.591 1391.94 143.304C1310.01 182.971 1238.48 197.065 1149.98 169.669C1043.27 137.989 951.89 61.992 839.439 48.736C757.314 39.7593 664.299 76.4823 626.832 153.422C590.802 228.585 606.795 322.863 636.086 397.789Z" fill="#B861B3"/>
</g>
<defs>
<clipPath id="clip0_39_5203">
<rect width="956" height="401" fill="white" transform="matrix(-0.999206 0.0398332 0.0398332 0.999206 659.241 391)"/>
</clipPath>
<clipPath id="clip1_39_5203">
<rect width="956" height="401" fill="white" transform="matrix(0.999206 -0.0398332 -0.0398332 -0.999206 611.678 398.762)"/>
</clipPath>
</defs>
</svg>
