<svg width="73" height="44" viewBox="0 0 73 44" fill="none" xmlns="http://www.w3.org/2000/svg">
<path fill-rule="evenodd" clip-rule="evenodd" d="M31.1751 16.1741L31.1751 16.1649C31.1799 14.6632 31.1853 12.9849 30.8824 11.7227C28.7411 1.24026 15.7568 -3.08185 7.01035 2.35836C-5.29354 10.0239 -0.335434 27.5005 13.6065 29.1939C14.7342 29.3328 16.1018 29.325 17.4069 29.3172L17.4618 29.3168H17.462H17.4621H17.4622H17.4622H17.4623C18.1977 29.3127 18.9113 29.3087 19.5487 29.3328L25.4235 29.3508L25.4229 29.3502H26.8464C26.8578 26.7281 26.8512 23.9419 26.8446 21.1755V21.1737L26.8458 21.1743V21.1707L26.8457 21.1473C26.8409 19.1312 26.8362 17.1267 26.8386 15.2045C26.8277 14.7927 26.8289 14.3304 26.8307 13.8483C26.835 12.6761 26.8392 11.3843 26.6648 10.4057C25.3105 1.68029 15.0414 -2.61357 8.13266 3.15365C2.81868 7.49019 2.5061 15.8116 7.09331 20.807C8.78668 22.653 11.1167 23.9791 13.6143 24.3548C14.76 24.5279 16.7017 24.5022 18.3811 24.4799L18.3843 24.4799H18.3855L18.4105 24.4795H18.4106H18.4107H18.4108H18.4109H18.411H18.4112C19.2188 24.4688 19.964 24.459 20.5291 24.4733L20.5315 24.4763V24.4733H20.5291C19.7567 23.568 18.6259 23.0492 17.4345 23.0516C15.9413 23.0576 14.691 23.0372 13.8398 22.9043C10.1585 22.3639 7.07587 19.5963 5.78465 16.1116C3.59354 10.4604 6.38638 3.0178 12.4067 1.14529C18.9019 -0.888932 24.722 4.20503 25.3706 10.5818C25.4692 11.4685 25.4524 12.6755 25.4367 13.7744C25.4295 14.2896 25.4229 14.7813 25.4283 15.2051L25.4223 19.9203C25.4223 20.7057 25.4213 21.4911 25.4203 22.2766L25.4193 23.0636V23.0648L25.4189 23.3368C25.416 25.3409 25.4131 27.3455 25.4223 29.3496L23.9658 27.9087L19.5577 27.8624C18.989 27.8445 18.3178 27.8479 17.6164 27.8515H17.6163L17.601 27.8516L17.5819 27.8517C16.2504 27.8583 14.817 27.8654 13.7803 27.7296C11.9306 27.5132 10.1188 26.9613 8.48071 26.0771C1.42707 22.329 -0.986456 13.6091 3.3056 6.83677C6.37917 1.84139 12.6081 -0.741656 18.3476 0.443168C25.0598 1.6857 30.1273 8.00416 29.7889 14.7536C29.7733 16.0839 29.7709 21.3735 29.7691 25.3056L29.7691 25.3275V25.3287C29.7685 27.1591 29.7673 28.6926 29.7655 29.3905H31.1895L31.1835 17.6805C31.1716 17.221 31.1733 16.7139 31.1751 16.184V16.184V16.1839V16.1838V16.1837V16.1837L31.1751 16.1747V16.1741ZM36.774 0.0794852H35.3271V29.3881H36.774V0.0794852ZM27.7968 8.07389C24.7977 1.27874 16.0657 -1.65657 9.46656 1.58772C-2.13642 7.1205 0.147272 23.803 12.5522 26.5538C13.7439 26.8511 15.3174 26.8423 16.716 26.8345H16.7161L16.7192 26.8345L16.7326 26.8344H16.7326H16.7327H16.7328H16.7329H16.7329H16.733H16.7331H16.7331H16.7332C17.176 26.832 17.6009 26.8298 17.9906 26.8369L22.8272 26.8255L21.3857 25.381L17.9906 25.3695C17.6432 25.3636 17.2557 25.3664 16.8476 25.3694L16.8262 25.3695C15.4959 25.3798 13.9504 25.3912 12.8569 25.1093C5.93073 23.7194 1.60681 16.5919 3.4649 9.80213C5.21238 2.72926 12.9315 -1.48946 19.7849 1.29617C24.63 3.21737 27.7589 8.31975 27.5617 13.463C27.5389 16.8696 27.5389 25.8174 27.5389 29.3478H28.9599V18.7559L28.9395 13.46C28.9365 11.6284 28.5578 9.75043 27.7962 8.07449L27.7968 8.07389ZM33.1204 0.0794852H34.5673V29.3881H33.1204V0.0794852ZM37.5771 0.0794852H39.024V29.3881H37.5771V0.0794852ZM65.1268 2.35896C56.3804 -3.08125 43.396 1.24086 41.2542 11.7227C40.9513 12.9849 40.9566 14.6632 40.9614 16.1648V16.1649L40.9615 16.1741L40.9615 16.1837C40.9633 16.7134 40.965 17.221 40.9531 17.6799L40.947 43.9979L42.3711 42.5822C42.3696 41.9857 42.3689 39.8087 42.3681 36.9137V36.9007L42.368 36.8648L42.3675 35.0868V35.082L42.3674 34.8319V34.8254C42.3657 27.0131 42.3631 16.0528 42.3477 14.7506C42.0092 8.00115 47.0767 1.68269 53.7889 0.440162C59.5285 -0.744661 65.7568 1.83839 68.831 6.83376C73.123 13.6061 70.7095 22.326 63.6559 26.0735C62.0178 26.9577 60.206 27.5096 58.3563 27.726C57.3157 27.8617 55.8741 27.8546 54.5378 27.848H54.5377L54.5355 27.848L54.5202 27.8479H54.5201C53.8188 27.8443 53.1476 27.8409 52.5789 27.8588L48.1708 27.9051L46.7152 29.3583C46.7143 27.7484 46.7131 26.1227 46.7121 24.66L46.7121 24.6396L46.7119 24.3536L46.7111 23.0976C46.7102 21.7166 46.7095 20.5886 46.7095 19.9203L46.7101 19.9197L46.704 15.2045C46.7095 14.7807 46.7028 14.2896 46.6956 13.7738L46.6955 13.7644C46.6805 12.6686 46.664 11.4659 46.7618 10.5812C47.4104 4.19902 53.2335 -0.891938 59.7281 1.13927C65.7484 3.01179 68.5412 10.4544 66.3501 16.1056C65.0595 19.5897 61.9769 22.3579 58.295 22.8983C57.4438 23.0312 56.2139 23.0516 54.7207 23.0456C53.528 23.0426 52.3967 23.5626 51.6237 24.4703L51.6207 24.4733C52.1872 24.459 52.9324 24.4689 53.7393 24.4796L53.7397 24.4796L53.7637 24.4799C55.4384 24.5021 57.3717 24.5274 58.518 24.3548C61.0157 23.9791 63.3457 22.653 65.039 20.807C69.6263 15.8116 69.3137 7.49079 63.9997 3.15365C57.0909 -2.61297 46.8219 1.68029 45.4675 10.4057C45.2932 11.3843 45.2974 12.6761 45.3016 13.8483C45.3034 14.3304 45.3046 14.7927 45.2938 15.2045C45.2962 17.0199 45.292 20.5341 45.2872 24.3951V24.4053L45.2868 24.7405C45.2803 30.5078 45.273 36.9531 45.2848 39.6361C46.1823 38.9803 46.7149 37.9403 46.7149 36.8307C46.7175 35.0767 46.7168 32.2431 46.7152 29.3586L52.5873 29.3328C53.2247 29.3087 53.9382 29.3127 54.6737 29.3168H54.6737H54.6738H54.674L54.7291 29.3172C56.0336 29.325 57.4017 29.3328 58.5294 29.1939C72.4684 27.5011 77.4265 10.0239 65.1256 2.35896H65.1268ZM52.3144 1.29256C59.1678 -1.49006 66.8875 2.72866 68.6356 9.80453C70.4937 16.5943 66.1698 23.7219 59.2436 25.1117C58.1507 25.3934 56.6063 25.3816 55.2759 25.3714H55.2759L55.2737 25.3713L55.2521 25.3712C54.844 25.3682 54.4567 25.3654 54.1093 25.3713L50.7142 25.3828L49.2552 26.8243L54.1063 26.8357C54.5001 26.8279 54.9299 26.8303 55.3777 26.8333L55.389 26.8334C56.7856 26.8412 58.3553 26.8499 59.5447 26.5526C71.9526 23.8048 74.2363 7.1193 62.6327 1.58651C56.0336 -1.65838 47.3016 1.27753 44.3031 8.07268C43.5421 9.74863 43.1628 11.6266 43.1598 13.4582L43.1394 18.7541V41.8158L44.5604 40.3797C44.5604 36.8493 44.5604 16.8672 44.5376 13.4576C44.341 8.31494 47.4693 3.21256 52.3144 1.29076V1.29256ZM49.2552 26.8249L49.2522 26.8279L49.2462 26.8249H49.2552Z" fill="white"/>
</svg>
