<svg width="80" height="49" viewBox="0 0 80 49" fill="none" xmlns="http://www.w3.org/2000/svg">
<g clip-path="url(#clip0_643_1199)">
<path d="M30.8273 8.95401C27.5013 1.41801 17.8173 -1.83732 10.4987 1.76068C-2.36932 7.89667 0.163342 26.398 13.9207 29.4487C15.2433 29.7787 16.99 29.7687 18.542 29.76C19.0387 29.7573 19.5153 29.7547 19.952 29.7627L25.316 29.75L23.7173 28.148L19.952 28.1353C19.56 28.1287 19.122 28.132 18.6607 28.1353C17.1853 28.1467 15.4713 28.1593 14.2587 27.8467C6.57734 26.3053 1.78201 18.4007 3.84267 10.8707C5.78067 3.02668 14.3413 -1.65199 21.942 1.43734C27.3153 3.56801 30.7853 9.22667 30.5667 14.9307C30.5413 18.7087 30.5413 28.632 30.5413 32.5473H32.1173V20.8007L32.0947 14.9273C32.0913 12.896 31.6713 10.8133 30.8267 8.95467L30.8273 8.95401Z" fill="url(#paint0_linear_643_1199)"/>
<path d="M40.7833 0.0880127H39.1786V32.592H40.7833V0.0880127Z" fill="url(#paint1_linear_643_1199)"/>
<path d="M38.336 0.0880127H36.7313V32.592H38.336V0.0880127Z" fill="url(#paint2_linear_643_1199)"/>
<path d="M22.77 27.1413H22.7673L22.77 27.1447V27.1413Z" fill="url(#paint3_linear_643_1199)"/>
<path d="M29.7727 23.4826V23.4786C29.7673 21.234 29.762 19.002 29.7647 16.862C29.7527 16.4053 29.754 15.8927 29.756 15.358C29.7607 14.058 29.7653 12.6253 29.572 11.54C28.07 1.86333 16.6813 -2.89867 9.01934 3.49732C3.12601 8.30666 2.77934 17.5353 7.86667 23.0753C9.74467 25.1226 12.3287 26.5933 15.0987 27.01C16.37 27.202 18.5253 27.1733 20.3887 27.1486H20.39C21.2967 27.1366 22.134 27.1253 22.7673 27.1413C21.9107 26.1373 20.6567 25.562 19.3353 25.5646C17.6793 25.5713 16.2927 25.5486 15.3487 25.4013C11.266 24.802 7.84734 21.7326 6.41534 17.868C3.98534 11.6007 7.08267 3.34666 13.7593 1.26999C20.9627 -0.986007 27.4173 4.66332 28.1367 11.7353C28.246 12.7187 28.2273 14.0573 28.21 15.276C28.202 15.8473 28.1947 16.3927 28.2007 16.8627L28.194 22.092C28.194 23.254 28.192 24.416 28.1907 25.578V25.5793C28.1873 27.9026 28.1833 30.2266 28.194 32.55H29.7733C29.786 29.642 29.7787 26.552 29.7713 23.484V23.482L29.7727 23.4826Z" fill="url(#paint4_linear_643_1199)"/>
<path d="M34.574 17.9373C34.5793 16.2693 34.586 14.4033 34.2493 13.0007C31.8747 1.37533 17.4747 -3.418 7.77467 2.61533C-5.87065 11.1167 -0.371991 30.4986 15.09 32.3766C16.3407 32.5306 17.8573 32.522 19.3047 32.5133C20.142 32.5086 20.9553 32.5033 21.68 32.5306L28.1953 32.5506L26.5787 30.9513L21.69 30.9C21.0547 30.88 20.304 30.884 19.52 30.888C18.0373 30.8953 16.438 30.904 15.2827 30.7526C13.2313 30.5126 11.222 29.9006 9.40534 28.92C1.58267 24.7633 -1.09399 15.0927 3.66601 7.582C7.07467 2.042 13.9827 -0.822668 20.348 0.491331C27.792 1.86933 33.412 8.87666 33.0367 16.362C33.0193 17.84 33.0167 23.7253 33.0147 28.0886V28.09C33.014 30.12 33.0127 31.8207 33.0107 32.5947H34.59L34.5833 19.608C34.57 19.0953 34.572 18.5293 34.574 17.938V17.9373Z" fill="url(#paint5_linear_643_1199)"/>
<path d="M43.2786 0.0880127H41.674V32.592H43.2786V0.0880127Z" fill="url(#paint6_linear_643_1199)"/>
<path d="M72.2273 2.61599C62.5273 -3.41734 48.1273 1.37599 45.752 13.0006C45.4153 14.4033 45.422 16.2693 45.4273 17.9373C45.4293 18.5286 45.4313 19.0953 45.418 19.6073L45.4113 48.7946L46.9906 47.2246C46.9886 46.43 46.988 43.1066 46.9866 38.912V38.9066C46.9846 30.2266 46.982 17.8186 46.9646 16.3586C46.5893 8.87332 52.2093 1.86599 59.6533 0.487989C66.0186 -0.82601 72.926 2.03865 76.3353 7.57865C81.0953 15.0893 78.4186 24.76 70.596 28.916C68.7793 29.8966 66.77 30.5086 64.7186 30.7486C63.564 30.8993 61.964 30.8913 60.4813 30.884C59.6973 30.88 58.9466 30.876 58.3113 30.896L53.4226 30.9473L51.808 32.5593L58.3206 32.5306C59.0453 32.5033 59.8586 32.5086 60.696 32.5133C62.1426 32.522 63.66 32.5306 64.9106 32.3766C80.3693 30.4993 85.868 11.1166 72.226 2.61599H72.2273Z" fill="url(#paint7_linear_643_1199)"/>
<path d="M51.8026 22.0913L51.796 16.862C51.802 16.392 51.7946 15.8473 51.7866 15.2753C51.77 14.0573 51.7513 12.7187 51.86 11.7347C52.5793 4.65667 59.0373 -0.98933 66.24 1.26334C72.9166 3.34 76.014 11.594 73.584 17.8613C72.1526 21.7253 68.734 24.7953 64.6506 25.3947C63.7066 25.542 62.3426 25.5647 60.6866 25.558C59.364 25.5547 58.1093 26.1313 57.252 27.138L57.2486 27.1413C57.8833 27.1253 58.72 27.1367 59.6253 27.1487C61.4826 27.1733 63.6266 27.2013 64.898 27.01C67.668 26.5933 70.252 25.1227 72.13 23.0753C77.2173 17.5353 76.8706 8.30733 70.9773 3.49733C63.3153 -2.898 51.9266 1.86334 50.4246 11.54C50.2313 12.6253 50.236 14.058 50.2406 15.358C50.2426 15.8927 50.244 16.4053 50.232 16.862C50.2346 18.8753 50.23 22.7727 50.2246 27.0547V27.066C50.2173 33.5547 50.2086 40.924 50.222 43.9573C51.2173 43.23 51.808 42.0766 51.808 40.846C51.8126 37.7387 51.808 31.576 51.8046 27.0087C51.8033 24.85 51.802 23.0473 51.802 22.092L51.8026 22.0913Z" fill="url(#paint8_linear_643_1199)"/>
<path d="M58.018 1.43332C65.6186 -1.65268 74.18 3.02599 76.1186 10.8733C78.1793 18.4033 73.384 26.308 65.7026 27.8493C64.49 28.162 62.776 28.1486 61.3 28.1373C60.8386 28.134 60.4006 28.1306 60.0086 28.1373L56.2433 28.15L54.6253 29.7486L60.0053 29.7613C60.442 29.7526 60.9186 29.7553 61.4153 29.7586C62.9673 29.7673 64.714 29.778 66.0366 29.4473C79.7973 26.4 82.33 7.89532 69.4613 1.75932C62.1426 -1.83934 52.4586 1.41665 49.1333 8.95265C48.2893 10.8113 47.8686 12.894 47.8653 14.9253L47.8427 20.7986V46.3746L49.4187 44.782C49.4187 40.8666 49.4187 18.706 49.3933 14.9246C49.1753 9.22131 52.6446 3.56265 58.018 1.43132V1.43332Z" fill="url(#paint9_linear_643_1199)"/>
<path d="M54.622 29.7527L54.6253 29.7493H54.6153L54.622 29.7527Z" fill="url(#paint10_linear_643_1199)"/>
</g>
<defs>
<linearGradient id="paint0_linear_643_1199" x1="17.1093" y1="32.204" x2="17.1093" y2="0.946679" gradientUnits="userSpaceOnUse">
<stop stop-color="#243F93"/>
<stop offset="0.5" stop-color="#662D91"/>
<stop offset="1" stop-color="#91288D"/>
</linearGradient>
<linearGradient id="paint1_linear_643_1199" x1="39.9813" y1="32.4047" x2="39.9813" y2="0.724678" gradientUnits="userSpaceOnUse">
<stop stop-color="#243F93"/>
<stop offset="0.51" stop-color="#662D91"/>
<stop offset="1" stop-color="#91288D"/>
</linearGradient>
<linearGradient id="paint2_linear_643_1199" x1="37.5333" y1="32.294" x2="37.5333" y2="0.635345" gradientUnits="userSpaceOnUse">
<stop stop-color="#243F93"/>
<stop offset="0.51" stop-color="#662D91"/>
<stop offset="1" stop-color="#91288D"/>
</linearGradient>
<linearGradient id="paint3_linear_643_1199" x1="22.7687" y1="32.2413" x2="22.7687" y2="6.44107" gradientUnits="userSpaceOnUse">
<stop stop-color="#243F93"/>
<stop offset="1" stop-color="#243F93"/>
</linearGradient>
<linearGradient id="paint4_linear_643_1199" x1="17.044" y1="32.2673" x2="17.044" y2="1.06666" gradientUnits="userSpaceOnUse">
<stop stop-color="#243F93"/>
<stop offset="0.51" stop-color="#662D91"/>
<stop offset="1" stop-color="#91288D"/>
</linearGradient>
<linearGradient id="paint5_linear_643_1199" x1="17.2947" y1="32.306" x2="17.2947" y2="0.997999" gradientUnits="userSpaceOnUse">
<stop stop-color="#243F93"/>
<stop offset="0.51" stop-color="#662D91"/>
<stop offset="1" stop-color="#91288D"/>
</linearGradient>
<linearGradient id="paint6_linear_643_1199" x1="42.476" y1="32.4187" x2="42.476" y2="0.752013" gradientUnits="userSpaceOnUse">
<stop stop-color="#243F93"/>
<stop offset="0.51" stop-color="#662D91"/>
<stop offset="1" stop-color="#91288D"/>
</linearGradient>
<linearGradient id="paint7_linear_643_1199" x1="62.706" y1="32.4126" x2="62.706" y2="0.833323" gradientUnits="userSpaceOnUse">
<stop stop-color="#243F93"/>
<stop offset="0.51" stop-color="#662D91"/>
<stop offset="1" stop-color="#91288D"/>
</linearGradient>
<linearGradient id="paint8_linear_643_1199" x1="62.954" y1="32.1147" x2="62.954" y2="0.889337" gradientUnits="userSpaceOnUse">
<stop stop-color="#243F93"/>
<stop offset="0.51" stop-color="#662D91"/>
<stop offset="1" stop-color="#91288D"/>
</linearGradient>
<linearGradient id="paint9_linear_643_1199" x1="62.8506" y1="32.464" x2="62.8506" y2="0.823319" gradientUnits="userSpaceOnUse">
<stop stop-color="#243F93"/>
<stop offset="0.51" stop-color="#662D91"/>
<stop offset="1" stop-color="#91288D"/>
</linearGradient>
<linearGradient id="paint10_linear_643_1199" x1="54.62" y1="31.8878" x2="54.62" y2="6.10228" gradientUnits="userSpaceOnUse">
<stop stop-color="#243F93"/>
<stop offset="1" stop-color="#91288D"/>
</linearGradient>
<clipPath id="clip0_643_1199">
<rect width="80" height="48.7953" fill="white"/>
</clipPath>
</defs>
</svg>
