<?xml version="1.0" encoding="utf-8"?>
<!-- Generator: Adobe Illustrator 28.0.0, SVG Export Plug-In . SVG Version: 6.00 Build 0)  -->
<svg version="1.1" id="Layer_1" xmlns="http://www.w3.org/2000/svg" xmlns:xlink="http://www.w3.org/1999/xlink" x="0px" y="0px"
	 viewBox="0 0 470 676.8" style="enable-background:new 0 0 470 676.8;" xml:space="preserve">
<style type="text/css">
	.st0{clip-path:url(#SVGID_00000134931723420122387790000012184069153051810985_);}
	.st1{fill:#FAECC8;}
</style>
<g>
	<defs>
		
			<rect id="SVGID_1_" x="-1530" y="-36.1" transform="matrix(0.9608 -0.2773 0.2773 0.9608 -188.933 -142.9234)" width="1860.5" height="1265"/>
	</defs>
	<clipPath id="SVGID_00000124136055312658075710000005789395700697804943_">
		<use xlink:href="#SVGID_1_"  style="overflow:visible;"/>
	</clipPath>
	<g style="clip-path:url(#SVGID_00000124136055312658075710000005789395700697804943_);">
		<path class="st1" d="M-1346.7,153.7c-70.6,173.9-93,414.9,129.4,479c45.5,13.4,93.2,17.9,140.6,18.1
			c70.9,1.1,143.4-11.4,205.1-47.6c169.5-97.4,219.9-309.5,372.3-425.2c119.4-90.9,277-71.9,410.1-24.4
			C36,199.7,115.6,292.7,61.2,429C-1.4,577.4-163,687-303.7,755.3c-193.1,91.9-409.7,134.8-623.2,122.6
			c-47.4-2.6-94.9-3.1-142.3-0.4c-556.7,30.4-378.3,486.7,64.9,494.1c-140.1-1.5-291.9-51.2-376.1-168.9
			c-42-59.5-54.5-138.3-10.7-200.5c41.7-59.4,112.5-89.2,180.7-106.6c92.6-22.7,188.8-24.9,283.5-20.1
			c213.2,11.7,429.2-30.9,621.9-122.8c147.5-70,362.6-218.3,379.9-393.4c8.3-105.1-75.3-170-165.2-203.1
			c-132.3-47.2-288.9-66.5-407.6,23.8c-152.2,115.7-203.1,327.7-372.9,424.8c-62.1,36.3-134.9,48.8-206.1,47.6
			c-47.5-0.3-95.3-4.8-141-18.3C-1440.6,569.2-1418,328.3-1346.7,153.7z"/>
		<path class="st1" d="M-1346.7,153.7c-41,113.6-64.9,271.5,6.8,377c34.3,50.1,86.5,80.6,144.4,96.2c45.7,12.3,93.4,16.3,140.7,15.6
			c47.3-0.3,94.9-5.9,139.6-21.8c189.4-64.6,253.7-274,382.3-407.9c100-105.2,223.6-124.2,361.4-95.5
			c57.9,12.2,115.9,29.4,166.8,60.4c155,95.3,108.2,249.6,3.6,364.7c-190.6,205-493.3,310.9-768.4,327.1
			c-94.8,6.6-189.6-7-284.4-0.4c-46.9,2.7-94.8,8.8-140.4,20.2c-70.2,17.9-144.4,49.6-183.9,113.5c-0.8,1.3-1.6,2.5-2.3,3.8l-2,3.9
			l-2.1,3.9c-0.7,1.3-1.4,2.6-1.9,4l-3.5,8.1c-0.6,1.3-1.1,2.7-1.5,4.1l-1.4,4.2l-1.4,4.2c-1.1,4.3-2.2,8.6-3.2,12.9l-1.4,8.7
			l-0.4,2.2l-0.2,2.2l-0.4,4.4l-0.4,4.4c-0.2,4.4-0.2,8.8-0.1,13.2l0.6,8.8l0.1,2.2c0.8,4.8,1.2,10.5,2.3,15.3l1.8,8.7
			c1.1,3.7,3.4,13.1,5.1,17c14.5,42,42.4,78.3,75,108.1c88.8,79.5,210.3,114.3,327.9,115.9c-117.8-1.3-239.4-35.8-328.5-115.3
			c-30.7-27.8-57-61.3-72.5-100c-1.4-4-3.2-8.5-4.6-12.5c-0.5-1.4-0.8-2.9-1.2-4.3l-2.4-8.6c-1.1-5.5-2.8-12.1-3.3-17.5
			c-0.3-2.8-1-6.1-1.1-8.8c-0.7-7.3-0.8-15.1-0.5-22.3c0.1-2.2,0.6-6.7,0.7-8.9c0-1.6,1.7-11.2,2-13.2c1.3-5.7,2.6-11.7,4.6-17.2
			l1.4-4.2c0.5-1.4,0.9-2.8,1.5-4.2l3.5-8.2c1.5-3.7,4.3-8.3,6.1-11.9c37.3-64.1,109.5-97.3,178.5-116.1c36.9-10,75.8-16.2,113.9-20
			c59-5.6,118.6-5.8,177.8-2.7C-629,881.9-337,805-108.2,635.8c56.4-42.9,108.8-92.2,148.4-151.2c74.7-110.5,76.7-229.4-46.4-304.5
			c-50.5-30.8-108.2-48-165.8-60.2c-136.9-28.6-259.5-9.9-359,94.6c-128.6,134.1-193.8,343.5-383.6,407.9
			c-44.9,15.9-92.8,21.4-140.2,21.7c-47.4,0.6-95.2-3.4-141.1-15.9c-58.2-15.8-110.5-46.6-144.8-97
			C-1412.4,425.4-1388.1,267.5-1346.7,153.7z"/>
		<path class="st1" d="M-1346.7,153.7c-27.7,88.4-40.9,188.7-19.2,279.7c41.9,171.8,202.4,210.1,359,199.6
			c89-5.9,166.1-37.1,232.2-97.3c108.6-97.8,163.3-239.9,267.4-341.7c10.3-10,22.2-20.4,33.6-29.2c89.5-69.9,196.4-79.2,305-58.8
			c52.2,9.9,104.6,24.1,152.4,47.6C165.8,243.5,133,405.4,13.6,536.1C-147.3,708.3-384,806.2-613.3,845.7
			c-93.5,15.6-188.8,20.7-283.4,15.1c-50.2-2.7-100.6-2.8-150.7,0.4c-6.2,0.6-20.3,1.7-26.5,2.2c-4.9,0.5-21.5,2.5-26.4,3
			c-19.9,2.8-41.5,6.2-61.1,10.7c-80.3,18-169.5,53.6-207.9,131.6l-0.9,2l-3.5,8.1c-1.5,4.1-2.9,8.4-4.3,12.5l-1.1,4.3l-1.1,4.3
			c-0.4,1.4-0.7,2.8-0.9,4.3l-1.4,8.7c-0.3,1.4-0.3,2.9-0.5,4.4l-0.4,4.4l-0.4,4.4l0,4.4c-0.2,7,0.2,15.1,1.1,22l0.6,4.4l0.6,4.4
			c0.8,4.3,1.8,8.7,2.7,13c1.2,4,3.4,12.8,5.1,16.9l1.5,4.2c1.8,5.2,4,9.6,5.9,14.3c1.8,3.6,4.1,8.3,5.9,11.9
			c1.5,2.8,5.1,8.8,6.6,11.5l1.2,1.9l2.4,3.7c81.8,122.4,237.4,173.9,379.3,175.9c-142.1-1.7-298.1-53-380.2-175.3l-2.4-3.7
			l-1.2-1.9c-1.4-2.6-5.2-9-6.6-11.6c-1.8-3.7-4.1-8.3-5.9-11.9c-1.7-3.9-4.6-10.4-6-14.4c-1.3-4.2-3.2-8.4-4.3-12.6l-2.4-8.6
			c-1.4-5.6-2.6-11.7-3.4-17.5c-0.3-2.8-1-6.1-1.1-8.8l-0.6-8.9c-0.2-4,0-9.3,0-13.4c0.5-4.3,0.6-9.1,1.2-13.3
			c0.6-3.8,1.5-9.7,2.4-13.2l1.1-4.3l1.1-4.3c1.4-4.2,2.8-8.5,4.3-12.7l3.5-8.2c36.3-77.4,122.4-113.7,201-132.9
			c6.5-1.4,15.3-3.4,21.7-4.8c2.2-0.5,19.2-3.5,21.9-4c8.3-1.2,17.9-2.8,26.4-3.9c5.2-0.5,21-2.5,26.5-3c59-5.6,118.5-6,177.6-2.9
			c282.4,15.2,574-61.2,802.9-229.6c56.5-42.6,108.9-91.8,148.9-150.4C154.1,332.9,115,206.1-49.9,141.9
			c-42.3-16.6-87.6-27.7-132.4-35.5c-107.7-17.6-210.2-5.1-296.7,66c-10.1,8.1-20.4,17.5-29.7,26.5
			c-101.8,101.7-157,241.5-264.6,338.3c-68.7,62.4-149.9,93.9-242.4,97.9c-154.8,8.7-310.4-33.1-350.9-201.6
			C-1388.1,342.3-1374.7,242.2-1346.7,153.7L-1346.7,153.7z"/>
		<path class="st1" d="M-1346.7,153.7c-27.7,102.7-35.4,232.2,14,329.1c9.5,18.3,21.1,35.6,34.7,51c15.6,17.5,34.1,33,54.1,45.1
			c85.2,52.2,204.7,55.3,301.1,39.3c240.8-44.7,297.7-276.8,447.8-429.6c101.8-102.3,227.1-116.9,363.2-87
			c79.9,17.8,164.1,45.1,219.5,108.6c31.6,36.1,45.9,85.6,39.4,133C110.8,459.5,12.7,556-76.9,624.1
			c-191,140.4-426.6,215.4-662.3,228.8c-35.5,1.8-71,2.2-106.5,1c-59-2.8-118.2-5.4-177.2-1.5c-16.3,0.9-36.7,2.8-52.9,4.8
			c-84.1,10.3-181.1,34-242.7,95.5c-41.7,41.4-57.9,96.6-43.4,153.8c12.5,48.8,43.5,90.9,80.4,124.5
			c88.8,79.1,209.9,113.8,327.3,115.3c-117.5-1.3-238.8-35.7-327.9-114.7c-37.2-33.6-68.3-75.8-81-124.8
			c-14.8-57.7,1.4-113.4,43.5-155.3c61.8-61.8,159.1-85.8,243.6-96.3c16.4-2,36.7-3.9,53-4.8c59.1-4,118.3-1.5,177.4,1.2
			c35.4,1.1,70.9,0.7,106.3-1.2c235.1-13.5,470.2-88.4,660.7-228.6C10.5,554.1,107.9,458.2,124.2,343c6.3-46.7-7.7-95.2-38.7-130.8
			c-46.6-53.9-115.9-81.6-183.4-99.5c-16.8-4.4-34.8-8.7-51.8-11.8C-354.4,62.3-470,134-582.1,300.5
			C-676.7,440-761.5,588.1-942.4,620.1c-96.9,15.9-216.7,12.6-302.1-40c-20.1-12.3-38.6-27.8-54.2-45.5
			c-13.7-15.5-25.3-32.9-34.8-51.3C-1382.8,386-1374.7,256.5-1346.7,153.7L-1346.7,153.7z"/>
		<path class="st1" d="M-1346.7,153.7c-26.4,119.4-24.5,274.7,60.8,370.7c39.3,44.8,94.3,71.8,152,84.2
			c46.2,10.1,93.8,11.5,140.8,8.9c47.1-2.4,94-11.2,137.7-29.2c184.7-74.3,246-280,379-411.1C-403.9,106.5-319,76-218,79.7
			c59.1,2.4,117.8,14.6,174,32.5c182.4,58.4,246.3,190,132.5,354.8c-145.7,202.1-431.1,323-671.3,362.2
			c-81.7,13.4-164.7,18.9-247.4,16.1c-70.7-3.7-141.7-5.8-212.3,1.4c-82.5,8.8-173.6,28.1-240.1,80.2l-3.5,2.7l-3.3,2.9l-6.6,5.8
			c-2.2,2-4.2,4.2-6.3,6.2c-4.8,4.6-8.9,9.8-13.3,14.7l-1.3,1.8l-2.6,3.5l-2.6,3.5c-24.3,34.5-33.1,75.8-25.8,117.3
			c5.1,27.5,16.3,53.7,31.6,77.1c67.8,101.8,190,154.6,308.2,170.2c23.4,3,47,4.6,70.7,5c-117.4-1.3-238.5-35.7-327.7-114.4
			c-35-31.6-64.6-70.6-78.7-116c-14.8-48.2-9.1-96.1,19.2-138.2c1.8-2.6,4.7-6.4,6.6-9l1.3-1.8l1.4-1.7c5.7-6.8,11.8-13.3,18.2-19.5
			c2.8-2.5,7.4-6.6,10-8.8c61.7-49.6,141.1-69.7,218.1-80.5c20.1-2.6,41.7-4.7,61.8-5.9c47.2-2.9,94.6-2.7,141.8-0.4
			c188.6,11.2,379.4-20.4,554.7-90.6c130.6-53.1,256.1-126.6,352.7-230.5c46.9-51.8,88.6-113.2,98.7-183.6
			c17-127.2-94.9-196.2-202.3-227.1c-149.7-42.9-295.1-46.3-413,69.4c-133.1,131.4-194.7,336.6-380.1,411
			c-43.9,18-91.1,26.8-138.4,29.1c-70.5,3.9-143.7-1.6-208.5-31.5c-21.4-9.8-41.9-22.5-59.8-37.8c-18-15.1-33.9-33.3-46.9-52.9
			C-1371.7,400.6-1371.3,263-1346.7,153.7L-1346.7,153.7z"/>
		<path class="st1" d="M-1346.7,153.7c-17.4,101.1-12.8,218.7,36.8,310.4c27.2,49.8,68.5,89.1,119.9,113.3
			c67.1,31.4,143.1,36.9,216.2,31.6c94.5-4.7,186.3-43,254.2-109.1c128.1-119.1,187.3-314.1,348-395.4
			c85.9-42.9,186.5-39.5,278-18.7c40.3,9,80.5,20.7,118,38c193,88.8,161.8,255.6,35.3,391.3c-190.9,200.8-495,306.5-767.7,320.9
			c-47.2,2.5-94.5,1.9-141.7-0.7c-76.5-3.8-153.6-2.5-229.3,10.1c-73.8,13-152.9,36.7-206.9,91.1c-44,44.4-58.3,102.4-39.9,162.3
			c7,22.4,17.9,43.7,31.3,62.9c69.3,96.8,187.7,147.4,303.1,162.6c23.4,3,47,4.6,70.6,5c-117.3-1.3-238.4-35.6-327.5-114.3
			c-35-31.5-64.6-70.6-78.8-115.9c-15.6-49.9-8.7-101.3,22.7-143.5c10.4-14.3,23.2-27.2,37-38.1c44.2-35.2,98.7-54.6,153.2-67.1
			c40.2-9.2,81.7-14.3,122.8-17c47.2-2.9,94.5-2.8,141.7-0.4c211.9,12.6,426.9-28.4,619.3-118.3C-103.7,654.3,19,573.6,101.9,458.3
			c93.2-132.6,75.7-261.5-78.7-331.9c-37.3-17.2-77.4-28.9-117.4-37.9c-90.9-20.8-190.9-24.2-276.2,18.3
			c-53,26.2-96.8,67.5-133.6,113.1c-74.2,91.6-127.6,199.7-214.1,281.4c-68.3,66.3-160.7,104.7-255.5,109.3
			c-73.3,5.2-149.6-0.4-216.9-32.2c-51.5-24.4-93-64-120.1-114C-1360.1,372.6-1364.5,254.9-1346.7,153.7L-1346.7,153.7z"/>
		<path class="st1" d="M-1346.7,153.7c-11.4,91.4-3.5,192.6,35.2,277c27.5,59.6,72.4,108.5,131.8,137.2
			c69.2,33.9,148.7,39.2,224.5,32.7c70.5-5.1,140-27.1,198.3-67.4c98.5-67.4,158.1-173.8,225.6-269.3
			c40.7-57.7,86.4-114,146.9-152.1c95.2-60.9,211.6-57.7,317.8-32.2c106.8,24.5,240.2,82.2,245.3,208.3
			c2,84.4-48.2,159.6-103.1,219.7c-164.4,171-395.8,265.7-626.7,305.1c-75.8,12.3-152.7,17.8-229.4,16.2
			c-17.7-0.3-35.4-1.3-53.1-2.1c-70.6-3.4-141.7-2.7-211.7,7.5c-90.4,13.2-201.5,45.7-250.9,128.8c-19.4,33.3-25.3,72.8-17.1,110.4
			l0.9,4.3l0.5,2.2l0.6,2.1l2.4,8.5c0.4,1.4,0.9,2.8,1.4,4.2l1.5,4.2c1.7,5.5,4.5,11.1,6.6,16.3c57.1,119.9,198.7,184.6,325,200.5
			c23.4,3,47,4.6,70.6,5c-29.5-0.4-59-2.7-88.1-7.3c-121.1-19.1-253.5-82.7-308.6-197.7c-1.4-3.2-3.9-9.2-5.2-12.2
			c-0.7-2.2-2.2-6.2-3-8.4c-1.4-3.6-3.3-11-4.4-14.9c-8.3-33.7-6.7-70.3,7.7-102.1l1.7-4.1l2-4c1.4-2.6,2.7-5.3,4.2-7.8l4.7-7.5
			c2.2-3.6,5.2-7.4,7.7-10.9c3-4.1,8.1-9.8,11.4-13.6c1.8-1.8,7.5-7.5,9.4-9.5c56-51.6,132.1-73.8,205.6-86.5
			c27.7-4.4,55.7-7.6,83.6-9.3c47.2-3,94.5-2.8,141.6-0.5C-598.4,838.5-359,787-151.5,674.9c133.3-71.7,329.9-221.4,327.2-386.8
			C170.7,163.6,38,106.6-67.3,82.4C-172.8,57-288.6,53.6-383.1,114.1c-60.2,37.8-105.6,93.9-146.2,151.3
			C-597,360.9-657,467.5-755.8,534.8c-58.5,40.4-128.5,62.5-199.2,67.5c-76.1,6.4-155.8,0.9-225.1-33.3
			c-59.6-28.9-104.5-78.1-132-138C-1350.7,346.5-1358.4,245.2-1346.7,153.7L-1346.7,153.7z"/>
		<path class="st1" d="M-1346.7,153.7c-9.2,123.6,17.8,271.6,112,359.2c88.2,83,218.1,92.8,332.6,74.8
			c198.7-32.1,283.2-183.6,387.7-334.6c27.4-38.4,56.5-76,91.4-108C-310.4,37.7-165,38.9-23.1,78.1
			c221.4,59.1,287.9,210.2,138,395.1C-90.8,714.4-471.9,832.2-782.2,820c-82.3-4.3-165.2-6.2-247,6c-46.5,6.7-92.9,17.8-136.1,36.3
			c-50.6,21.8-99.8,56.6-122.4,108.4c-13.2,29.5-15.9,63.3-9.1,94.7l0.9,4.3l0.5,2.2l0.6,2.1l2.4,8.5c2.5,8.2,6,16.8,9.4,24.7
			c57.2,119.8,198.7,184.4,325,200.3c23.4,3,47,4.6,70.5,5c-23.6-0.3-47.2-1.9-70.6-4.8c-122.5-15.6-254.2-73.7-318-184.3
			c-5-8.7-9.5-18.7-13.3-28c-1.5-4.1-3-8.4-4.4-12.5c-0.6-1.9-2.5-9-3-10.7c-6.5-26.5-7.2-54.7,0.2-81.2c0.4-2.1,3.2-10.3,4-12.7
			c0.8-2.3,2.4-5.9,3.4-8.2c2.2-5.5,5.2-10.7,7.9-15.9l4.7-7.5c0.8-1.2,1.5-2.5,2.4-3.7l2.6-3.6c1.8-2.4,3.5-4.8,5.3-7.1
			c3.7-4.2,7.9-9.5,11.8-13.2c57.2-58.4,145.9-83.1,224.8-94.9c70.1-10.4,141.3-11.3,212-7.9c281.4,16,571.8-58.9,801.2-224.8
			c56.6-42,109.3-90.4,150.2-148c125.5-180,38.7-310-157.9-362.5c-178.2-48.3-324.7-33-445.8,117.6
			c-130.1,162.4-200.2,352.8-432.2,391.1c-115.2,17.9-245.2,7.8-333.6-75.8C-1329.5,425.6-1356.3,277.5-1346.7,153.7L-1346.7,153.7z
			"/>
		<path class="st1" d="M-1346.7,153.7c-3.6,151.4,48.1,327.7,193.9,398.3c71.8,35.3,154.4,40.6,232.9,31.8
			c94.1-8.5,184-49.9,251-116.6c134.6-127,195.8-341.4,383.5-404.7c90.7-30,189.1-17.1,279.6,7.3c88.1,24.2,188.7,71.5,213,167.6
			c31.2,138.1-103.7,272.9-205.5,348c-225.1,162.5-509,238-785.2,225.4c-133.1-7.4-315.5-3.5-426.5,77.9c-7.1,5.2-13.8,11-20.3,16.9
			l-6.2,6.2l-3.1,3.1c-1,1.1-1.9,2.2-2.9,3.3l-5.7,6.7c-3.1,3.8-5,6.8-7.9,10.6c-0.9,1.2-1.6,2.5-2.4,3.7l-4.7,7.4l-4.1,7.8
			c-0.7,1.3-1.4,2.6-2,3.9l-1.7,4c-10.8,24.1-14.4,51.1-11.8,77.3c0.9,8,2.4,16,4.2,23.8l0.6,2.1l2.4,8.5c2.5,8.2,6,16.8,9.4,24.6
			c56.1,117.2,192.6,181.4,316.2,199c26.2,3.7,52.8,5.8,79.3,6.2c-23.6-0.3-47.1-1.9-70.5-4.8c-122.5-15.5-254.2-73.6-317.9-184.2
			c-2.5-4.1-5.8-11.4-8.1-15.7c-1.2-2.9-4.1-9.3-5.2-12.2c-1.3-4.2-3.2-8.4-4.4-12.6l-2.4-8.5c-6.8-25.6-8-53.1-1.6-79
			c1.9-8.2,5-17.5,8.4-25.2c1.7-4.5,5.6-11.5,7.9-15.9c2-3.2,5.2-8.4,7.1-11.3l2.6-3.6c1.8-2.4,3.5-4.8,5.3-7.1l5.8-6.7
			c1-1.1,1.9-2.3,2.9-3.3c57.7-60.8,147.1-86,227.8-98.2c23.3-3.5,46.9-5.8,70.4-7.4c47.1-3,94.4-2.9,141.5-0.6
			c319.3,18.5,680.1-84.8,906.8-317.8c115.7-123,163.2-285.6-13.8-379.5C60.7,93.9,27.4,81.9-6.6,72.5
			c-111.5-31-239.4-41.5-341.8,22c-60.7,36.9-106.7,92.6-147.5,149.7c-80.5,113.7-154.8,245.4-287.4,305.1
			c-42.9,19.9-89.4,31.5-136.4,36.3c-75.9,8.4-155.5,3.7-225.7-28.5c-59.4-26.7-108.2-74.1-139.9-130.6
			C-1331.5,343.9-1349.1,247.5-1346.7,153.7L-1346.7,153.7z"/>
		<path class="st1" d="M-1346.7,153.7c3.2,104.6,31.5,213.6,95.4,297.9c35.7,46.7,84.3,83.7,139.5,104.2
			c66.3,25.2,139,28.1,208.8,19.6c93.9-9.7,183.3-52.1,250.2-118.7c134.4-127.1,196.3-341.4,384.5-403.4
			c79.2-25.8,165.2-18.9,245.2-0.4c46,10.5,91.6,24.6,133.4,46.7c31.3,16.7,60.6,38,82.6,66.2c30,37.3,41.5,87.3,33.4,134.2
			c-20.3,115.1-118,209.6-208.1,277.1c-217.9,157.4-491.1,232.7-758.6,226.3c-7.9-0.3-18.6-0.6-26.5-1.1
			c-64.6-3.5-129.7-4.1-194.1,2.4c-94.2,10.2-207.5,35.6-270.5,111.8c-1.8,2.3-3.5,4.7-5.3,7l-2.6,3.5c-0.8,1.2-1.6,2.5-2.4,3.7
			l-4.7,7.4l-4.1,7.8c-0.7,1.3-1.4,2.6-2,3.9l-1.7,4c-13.1,29.5-15.8,63.3-8.9,94.7c3.5,17.1,9.8,34,17.7,49.6
			c49.5,94.8,151,152.2,251.7,178.9c45.5,11.8,92.9,17.7,139.9,18.4c-23.6-0.3-47.1-1.9-70.5-4.8
			c-120.8-15.6-246.7-70.4-313.5-176.4c-21.4-35.5-34.1-76.6-29.3-118.2c0.9-5.7,1.6-11.8,3.2-17.4c0.8-2.9,1.3-5.9,2.2-8.6l2.8-8.4
			c1.3-3.8,3.5-8.6,5.1-12.3c1-2.1,4.9-9.5,6.1-11.8c2.1-3.3,5.2-8.3,7.1-11.3c2.6-3.6,5.3-7.2,7.9-10.7l5.8-6.7
			c50.1-55.6,124.4-80.8,195.8-95.6c33.3-6.5,67.1-10.6,100.9-13.1c48.6-3.2,97.3-3.2,145.9-0.8c281.3,16.1,571.6-58.7,801-224.4
			c89.6-67.2,186.6-161.1,206.9-275.3c7.9-46.2-3.3-95.3-32.8-132C146.4,111.8,77.4,83,10.5,64.1c-111.5-31-239.3-42-342,20.7
			c-60.9,36.5-107.2,92-148.2,149c-68.3,95.1-128.6,200.9-226.1,269.7c-57.8,41.4-126.6,65.8-197.1,73.5
			c-85.9,10.6-177.2,2.7-253.5-40.8C-1289,460.7-1342.6,298.9-1346.7,153.7z"/>
		<path class="st1" d="M-1346.7,153.7c11.1,136.4,68.2,287.4,187.6,363.9c39.5,25.6,84.8,41.7,131.3,49.1
			c115.7,16.5,240.6-5.3,336.5-74.3c97.1-69,157.3-174.4,225.5-269.4c41.2-57.3,87.9-112.9,149.2-149.5
			C-213.2,10.8-84.6,21.8,27.6,52.9c34.2,9.4,67.7,21.5,99.1,38c178,94.5,132.7,258.6,14.6,383.9
			c-217.7,225.7-574,332.4-882.5,319.4c-79.3-4.4-159.3-5.3-238.1,6.4c-46.4,6.7-92.9,17.9-136.1,36.3
			c-50.6,21.8-99.7,56.6-122.2,108.5c-10.8,24.1-14.4,51.1-11.8,77.3c1,8,2.4,16,4.2,23.8l0.6,2.1l2.4,8.5c2.5,8.2,6,16.8,9.4,24.7
			c57.2,119.7,198.7,184.3,324.9,200.2c23.4,3,46.9,4.6,70.5,5c-23.6-0.3-47.1-1.9-70.5-4.8c-122.5-15.5-254.2-73.6-317.9-184.2
			c-2.5-4.1-5.8-11.4-8.1-15.7c-1.2-2.9-4.1-9.3-5.2-12.2c-1.5-4.1-3-8.4-4.4-12.5l-2.4-8.5c-6.8-25.6-8-53.1-1.6-79
			c1.9-8.2,5-17.5,8.4-25.2c1.7-4.5,5.7-11.5,7.9-15.9c2-3.2,5.2-8.4,7.1-11.3l2.6-3.6c1.8-2.4,3.5-4.8,5.3-7.1l5.8-6.7
			c1-1.1,1.9-2.3,2.9-3.3c57.7-60.8,147.1-86,227.8-98.2c23.3-3.5,46.9-5.8,70.4-7.4c47.1-3,94.4-2.9,141.5-0.6
			c188.2,11.4,378.7-19.6,553.8-89.2c141-57.2,277.4-137.6,376.2-255.1C264.6,323,285.6,178,125.4,93.5C94.2,77,60.9,65,26.9,55.6
			C-84.6,24.7-212.4,13.5-315.3,75.9c-61,36.4-107.4,91.8-148.5,148.7c-68.4,95-129,200.6-226.4,269.6
			c-96.4,69.1-221.8,90.9-337.9,74.1c-46.6-7.5-92-23.9-131.6-49.6C-1279.1,441.6-1336,290.4-1346.7,153.7z"/>
		<path class="st1" d="M-1346.7,153.7c12.5,93,45.1,184.8,100.2,261.2c89,123.7,227.4,166.2,374.6,144.2
			c69.9-9.2,138.3-34.3,195.5-75.7c117.2-83,179.2-217.3,269.4-325.1c13.3-15.8,27.5-31,42.5-45.1C-269,21.8-151.9,5.4-25.7,28.5
			C20.4,37.2,67.2,48.8,110.5,67c91.5,37.4,166.2,108.3,149.4,215c-11.4,70.8-53.8,132.1-101.4,183.9
			C-6,636.7-237.4,731.2-468.2,770.5c-75.8,12.3-152.6,17.8-229.4,16.2c-17.7-0.3-35.4-1.3-53.1-2.1c-58.8-2.9-117.9-2.6-176.6,3.2
			c-103.2,10.6-242.5,43.7-291.9,144.9l-1.7,4l-1.7,4c-0.6,1.4-1.2,2.7-1.6,4.1l-2.8,8.3c-0.2,0.7-0.5,1.4-0.7,2.1l-0.5,2.1
			l-1.1,4.3c-1.3,5.1-2.5,11.9-3.2,17.3c-2.3,19.7-0.7,39.7,3.9,58.9c1.6,5.5,3.7,13.5,5.8,18.9c1.7,5.5,4.5,11.2,6.6,16.3
			c57.2,119.8,198.7,184.4,325,200.4c23.4,3,47,4.6,70.5,5c-47-0.6-94.5-6.3-140-18c-106.5-27.5-219-93.2-261.8-199.1
			c-10.1-26.2-14.8-54.6-11.5-82.6c0.6-4.4,1.3-8.8,2.1-13.1c0.5-2.2,1.6-6.5,2.1-8.6l0.5-2.2c0.2-0.7,0.5-1.4,0.7-2.1
			c1.2-3.6,3-9.3,4.5-12.6l1.7-4.1c2.2-5.5,5.2-10.7,7.9-15.9c2.1-3.3,5.1-8.3,7.1-11.2c2.6-3.6,5.3-7.2,8-10.7
			c2.6-2.9,6.3-7.4,8.7-10.1c1.8-1.8,7.4-7.5,9.4-9.5c57.1-52.5,134.8-74.9,209.8-87.3c26.2-4.1,52.7-7,79.2-8.7
			c47.1-3,94.4-2.9,141.6-0.5c235.2,13.9,474.5-37.4,681.9-149.4C64,561.9,261.7,411,259.1,246.6C254.8,122,122.3,64.7,17,40.3
			C-14.3,32.9-46.8,27-78.6,24c-112.5-10.6-209.2,16.8-290.5,97.1c-63.3,62.2-108.6,139.1-160.5,210.4
			c-54.6,76.4-120.4,148.8-206.6,189.6c-42.4,20.5-88.9,33.4-135.5,39.7c-147.8,21.9-286.5-21.1-375.4-145.4
			C-1302.2,338.8-1334.5,246.9-1346.7,153.7L-1346.7,153.7z"/>
	</g>
</g>
</svg>
