<svg width="1280" height="939" viewBox="0 0 1280 939" fill="none" xmlns="http://www.w3.org/2000/svg">
<g clip-path="url(#clip0_39_4606)">
<path d="M-111.39 439.873C-61.3445 432.129 -5.74107 442.17 39.1821 467.77C50.8735 474.372 61.9777 482.073 72.0435 490.461C80.5637 497.356 88.4266 505.068 95.8262 512.788C113.627 531.547 132.041 550.536 151.044 568.417C173.472 589.086 197.809 610.352 228.371 621.311C239.123 625.374 250.356 627.854 261.359 630.897C267.821 632.968 273.958 635.747 279.975 638.768C327.233 663.208 381.541 710.983 435.247 682.235C484.967 658.543 556.797 662.204 611.905 682.111C620.298 685.41 627.904 690.302 635.463 695.078C643.005 699.916 650.425 704.919 657.872 709.901C687.702 729.719 718.052 749.864 752.667 762.486C780.419 772.474 806.855 774.954 831.907 762.328C869.747 743.525 899.674 715.768 935.52 694.711C976.2 669.882 1024.82 652.05 1077.86 669.039C1088.51 672.393 1099.75 676.087 1110.16 680.068C1131.37 687.98 1152.04 697.765 1169.31 711.521C1176.3 716.986 1183.02 722.832 1190.62 727.734C1202.05 735.182 1215.2 740.17 1228.45 744.125C1230.66 744.757 1232.86 745.42 1235.08 746.016L1241.74 747.763C1265.67 754.015 1287.42 748.594 1304.06 734.443C1322.92 718.834 1334.63 698.104 1350.49 680.454C1360.78 668.986 1374.97 657.448 1393.91 659.422L1393.91 659.149C1374.77 656.94 1360.22 668.448 1349.67 679.886C1333.48 697.352 1321.64 717.838 1302.72 733.234C1283.38 748.939 1262.27 752.148 1235.64 743.994C1220.45 739.753 1205.18 734.47 1192.15 725.911C1180.92 718.528 1171.52 709.213 1160.27 701.803C1137.73 686.697 1111.4 677.015 1085.27 668.512C1008.92 640.927 944.837 681.971 892.369 719.907C868.34 736.352 837.065 762.803 806.179 767.864C756.114 774.043 698.846 734.586 658.866 708.75C651.384 703.815 643.921 698.847 636.315 694.04C628.681 689.291 621.015 684.411 612.355 681.06C561.972 663.288 501.123 659.016 452.52 674.301C447.426 675.895 442.28 677.938 437.462 680.012C434.94 681.198 431.401 682.868 428.828 683.993C413.483 691.11 394.509 691.754 377.006 686.781C341.417 676.914 312.982 653.652 281.082 636.985C272.969 632.807 264.352 629.043 255.348 626.933C239.897 623.199 224.648 618.376 210.768 610.923C196.91 603.552 184.435 594.084 172.693 584.312C156.143 570.369 139.926 554.681 124.909 539.551C112.744 527.416 100.685 514.336 88.484 502.21C75.9329 489.962 61.5748 479.045 46.0725 469.711C15.0904 451.003 -21.4161 439.86 -57.7644 437.276C-71.3775 436.294 -85.0035 436.367 -98.3338 437.729C-102.776 438.192 -107.19 438.758 -111.522 439.611L-111.427 439.882L-111.395 439.891L-111.39 439.873Z" fill="#FDDBCD"/>
<path d="M-110.53 428.156C-60.484 420.413 -4.88065 430.453 40.0426 456.054C51.7339 462.655 62.8381 470.357 72.904 478.744C81.4241 485.64 89.287 493.352 96.6866 501.072C114.487 519.83 132.901 538.82 151.904 556.7C174.332 577.37 198.669 598.636 229.232 609.594C239.984 613.657 251.216 616.137 262.219 619.18C268.681 621.252 274.819 624.031 280.835 627.051C328.093 651.491 382.402 699.267 436.108 670.518C485.828 646.827 557.658 650.487 612.765 670.395C621.158 673.693 628.765 678.586 636.323 683.362C643.866 688.199 651.285 693.202 658.732 698.185C688.563 718.002 718.912 738.148 753.527 750.769C781.279 760.757 807.715 763.238 832.767 750.611C870.607 731.808 900.534 704.052 936.381 682.994C977.06 658.166 1025.68 640.333 1078.72 657.322C1089.37 660.677 1100.61 664.37 1111.02 668.352C1132.23 676.263 1152.9 686.048 1170.17 699.804C1177.16 705.27 1183.88 711.116 1191.48 716.017C1202.91 723.466 1216.06 728.454 1229.31 732.409C1231.52 733.04 1233.72 733.704 1235.94 734.3L1242.6 736.047C1266.53 742.298 1288.28 736.878 1304.92 722.727C1323.78 707.117 1335.49 686.388 1351.35 668.737C1361.64 657.27 1375.83 645.732 1394.77 647.705L1394.77 647.433C1375.63 645.224 1361.08 656.731 1350.53 668.169C1334.34 685.636 1322.5 706.121 1303.58 721.517C1284.24 737.223 1263.13 740.432 1236.5 732.277C1221.31 728.036 1206.04 722.753 1193.01 714.195C1181.78 706.811 1172.38 697.496 1161.13 690.087C1138.59 674.981 1112.26 665.299 1086.13 656.795C1009.78 629.211 945.698 670.254 893.229 708.191C869.201 724.636 837.925 751.086 807.04 756.147C756.975 762.326 699.707 722.869 659.727 697.033C652.244 692.098 644.782 687.131 637.175 682.323C629.542 677.575 621.876 672.694 613.215 669.344C562.832 651.571 501.984 647.299 453.38 662.585C448.287 664.178 443.14 666.221 438.323 668.295C435.801 669.481 432.261 671.151 429.688 672.277C414.343 679.394 395.369 680.038 377.867 675.064C342.278 665.198 313.843 641.935 281.942 625.268C273.83 621.091 265.213 617.326 256.209 615.216C240.758 611.482 225.509 606.659 211.628 599.206C197.77 591.835 185.295 582.368 173.554 572.596C157.004 558.652 140.787 542.965 125.769 527.835C113.604 515.699 101.546 502.619 89.3444 490.494C76.7933 478.246 62.4352 467.328 46.9329 457.995C15.9508 439.286 -20.5557 428.143 -56.904 425.559C-70.5171 424.577 -84.143 424.65 -97.4734 426.012C-101.916 426.476 -106.329 427.042 -110.662 427.894L-110.566 428.166L-110.535 428.174L-110.53 428.156Z" fill="#FDDBCD"/>
<path d="M-109.669 418.432C-59.6231 410.688 -4.01969 420.729 40.9035 446.329C52.5948 452.931 63.6991 460.632 73.7649 469.02C82.2851 475.915 90.148 483.627 97.5476 491.347C115.348 510.106 133.762 529.095 152.765 546.975C175.193 567.645 199.53 588.911 230.092 599.87C240.845 603.932 252.077 606.413 263.08 609.456C269.542 611.527 275.68 614.306 281.696 617.326C328.954 641.767 383.263 689.542 436.969 660.794C486.689 637.102 558.519 640.762 613.626 660.67C622.019 663.968 629.626 668.861 637.184 673.637C644.727 678.475 652.146 683.478 659.593 688.46C689.424 708.278 719.773 728.423 754.388 741.044C782.14 751.033 808.576 753.513 833.628 740.887C871.468 722.084 901.395 694.327 937.242 673.27C977.921 648.441 1026.54 630.608 1079.58 647.598C1090.23 650.952 1101.47 654.646 1111.89 658.627C1133.09 666.539 1153.77 676.323 1171.03 690.08C1178.02 695.545 1184.74 701.391 1192.35 706.293C1203.78 713.741 1216.92 718.729 1230.17 722.684C1232.38 723.315 1234.58 723.979 1236.8 724.575L1243.46 726.322C1267.39 732.573 1289.14 727.153 1305.79 713.002C1324.64 697.393 1336.35 676.663 1352.21 659.013C1362.5 647.545 1376.69 636.007 1395.63 637.981L1395.63 637.708C1376.49 635.499 1361.94 647.007 1351.4 658.445C1335.2 675.911 1323.36 696.396 1304.45 711.792C1285.1 727.498 1263.99 730.707 1237.37 722.552C1222.17 718.312 1206.9 713.029 1193.87 704.47C1182.65 697.087 1173.24 687.772 1161.99 680.362C1139.45 665.256 1113.12 655.574 1086.99 647.071C1010.64 619.486 946.559 660.529 894.09 698.466C870.061 714.911 838.786 741.361 807.901 746.423C757.836 752.602 700.568 713.145 660.588 687.309C653.105 682.374 645.643 677.406 638.036 672.599C630.403 667.85 622.737 662.97 614.076 659.619C563.693 641.847 502.845 637.575 454.241 652.86C449.148 654.454 444.001 656.496 439.184 658.571C436.662 659.757 433.122 661.427 430.549 662.552C415.204 669.669 396.23 670.313 378.728 665.34C343.139 655.473 314.704 632.211 282.803 615.544C274.691 611.366 266.074 607.602 257.07 605.491C241.619 601.758 226.37 596.935 212.489 589.482C198.631 582.111 186.156 572.643 174.415 562.871C157.865 548.928 141.648 533.24 126.63 518.11C114.465 505.975 102.407 492.895 90.2053 480.769C77.6543 468.521 63.2961 457.604 47.7939 448.27C16.8117 429.562 -19.6947 418.419 -56.0431 415.835C-69.6561 414.852 -83.2821 414.925 -96.6125 416.287C-101.055 416.751 -105.468 417.317 -109.801 418.17L-109.705 418.441L-109.674 418.45L-109.669 418.432Z" fill="#FDDBCD"/>
<path d="M-108.809 407.707C-58.7627 399.963 -3.15934 410.003 41.7639 435.604C53.4552 442.206 64.5594 449.907 74.6253 458.294C83.1454 465.19 91.0083 472.902 98.408 480.622C116.209 499.381 134.623 518.37 153.626 536.25C176.054 556.92 200.391 578.186 230.953 589.145C241.705 593.207 252.938 595.688 263.941 598.731C270.403 600.802 276.54 603.581 282.556 606.601C329.815 631.041 384.123 678.817 437.829 650.069C487.549 626.377 559.379 630.037 614.486 649.945C622.88 653.243 630.486 658.136 638.045 662.912C645.587 667.75 653.006 672.753 660.456 677.726C690.286 697.544 720.636 717.689 755.251 730.31C783.003 740.299 809.439 742.779 834.491 730.153C872.331 711.35 902.258 683.593 938.104 662.536C978.784 637.707 1027.41 619.875 1080.44 636.864C1091.09 640.218 1102.33 643.912 1112.75 647.893C1133.95 655.805 1154.63 665.59 1171.89 679.346C1178.88 684.811 1185.6 690.657 1193.21 695.559C1204.64 703.007 1217.79 707.995 1231.03 711.95C1233.24 712.582 1235.44 713.245 1237.66 713.841L1244.32 715.588C1268.25 721.84 1290 716.419 1306.65 702.268C1325.51 686.659 1337.21 665.929 1353.07 648.279C1363.36 636.811 1377.56 625.273 1396.49 627.247L1396.5 626.974C1377.35 624.765 1362.8 636.273 1352.26 647.711C1336.06 665.177 1324.22 685.663 1305.31 701.059C1285.96 716.764 1264.85 719.973 1238.23 711.819C1223.04 707.578 1207.76 702.295 1194.73 693.736C1183.51 686.353 1174.11 677.038 1162.86 669.628C1140.31 654.522 1113.98 644.84 1087.86 636.337C1011.51 608.752 947.422 649.796 894.953 687.732C870.924 704.177 839.651 730.619 808.764 735.689C758.701 741.859 701.43 702.411 661.45 676.575C653.968 671.64 646.505 666.672 638.899 661.865C631.265 657.116 623.599 652.236 614.939 648.885C564.556 631.113 503.707 626.841 455.104 642.126C450.01 643.72 444.864 645.763 440.046 647.837C437.525 649.023 433.985 650.693 431.412 651.818C416.067 658.935 397.093 659.579 379.59 654.606C344.001 644.739 315.566 621.477 283.666 604.81C275.553 600.632 266.936 596.868 257.932 594.758C242.481 591.024 227.232 586.201 213.352 578.748C199.494 571.377 187.019 561.909 175.277 552.137C158.728 538.194 142.51 522.506 127.493 507.376C115.328 495.241 103.269 482.161 91.0681 470.035C78.517 457.787 64.1588 446.87 48.6566 437.536C17.6745 418.828 -18.832 407.685 -55.1803 405.101C-68.7934 404.118 -82.4194 404.192 -95.7498 405.554C-100.192 406.017 -104.606 406.583 -108.938 407.436L-108.842 407.707L-108.811 407.716L-108.809 407.707Z" fill="#FDDBCD"/>
<path d="M-107.946 396.982C-57.8997 389.238 -2.29631 399.279 42.6269 424.88C54.3182 431.481 65.4225 439.183 75.4883 447.57C84.0085 454.465 91.8714 462.177 99.271 469.897C117.072 488.656 135.486 507.645 154.489 525.526C176.917 546.195 201.254 567.462 231.816 578.42C242.568 582.483 253.801 584.963 264.804 588.006C271.266 590.078 277.403 592.856 283.419 595.877C330.678 620.317 384.986 668.093 438.692 639.344C488.412 615.652 560.242 619.313 615.349 639.221C623.743 642.519 631.349 647.411 638.908 652.187C646.45 657.025 653.869 662.028 661.319 667.002C691.149 686.819 721.499 706.965 756.114 719.586C783.866 729.574 810.302 732.054 835.354 719.428C873.194 700.625 903.121 672.868 938.967 651.811C979.647 626.983 1028.27 609.15 1081.3 626.139C1091.95 629.494 1103.2 633.187 1113.61 637.169C1134.81 645.08 1155.49 654.865 1172.75 668.621C1179.75 674.086 1186.47 679.933 1194.07 684.834C1205.5 692.283 1218.65 697.271 1231.89 701.226C1234.11 701.857 1236.3 702.521 1238.53 703.117L1245.19 704.864C1269.12 711.115 1290.87 705.695 1307.51 691.544C1326.37 675.934 1338.07 655.204 1353.94 637.554C1364.23 626.087 1378.42 614.548 1397.35 616.522L1397.36 616.249C1378.22 614.041 1363.66 625.548 1353.12 636.986C1336.93 654.453 1325.08 674.938 1306.17 690.334C1286.83 706.04 1265.72 709.249 1239.09 701.094C1223.9 696.853 1208.63 691.57 1195.59 683.012C1184.37 675.628 1174.97 666.313 1163.72 658.903C1141.17 643.798 1114.85 634.115 1088.72 625.612C1012.37 598.027 948.285 639.071 895.816 677.008C871.787 693.452 840.514 719.894 809.627 724.964C759.564 731.134 702.293 691.686 662.313 665.85C654.831 660.915 647.368 655.948 639.762 651.14C632.128 646.391 624.462 641.511 615.802 638.16C565.419 620.388 504.57 616.116 455.967 631.402C450.874 632.995 445.727 635.038 440.909 637.112C438.388 638.298 434.848 639.968 432.275 641.093C416.93 648.211 397.956 648.855 380.453 643.881C344.864 634.014 316.429 610.752 284.529 594.085C276.416 589.908 267.799 586.143 258.795 584.033C243.344 580.299 228.095 575.476 214.215 568.023C200.357 560.652 187.882 551.184 176.14 541.413C159.591 527.469 143.373 511.781 128.356 496.651C116.191 484.516 104.133 471.436 91.9311 459.31C79.38 447.062 65.0219 436.145 49.5197 426.812C18.5375 408.103 -17.969 396.96 -54.3173 394.376C-67.9304 393.394 -81.5563 393.467 -94.8867 394.829C-99.329 395.293 -103.743 395.859 -108.075 396.711L-107.979 396.983L-107.948 396.991L-107.946 396.982Z" fill="#FDDBCD"/>
<path d="M-107.082 386.258C-57.0364 378.514 -1.43302 388.554 43.4902 414.155C55.1815 420.757 66.2857 428.458 76.3516 436.845C84.8718 443.741 92.7346 451.453 100.134 459.173C117.935 477.932 136.349 496.921 155.352 514.801C177.78 535.471 202.117 556.737 232.679 567.696C243.432 571.758 254.664 574.239 265.667 577.281C272.129 579.353 278.266 582.132 284.283 585.152C331.541 609.592 385.849 657.368 439.555 628.62C489.275 604.928 561.105 608.588 616.213 628.496C624.606 631.794 632.212 636.687 639.771 641.463C647.313 646.301 654.733 651.304 662.18 656.286C692.01 676.104 722.36 696.249 756.975 708.87C784.727 718.859 811.163 721.339 836.215 708.713C874.055 689.91 903.982 662.153 939.828 641.095C980.508 616.267 1029.13 598.434 1082.16 615.423C1092.81 618.778 1104.06 622.472 1114.47 626.453C1135.67 634.365 1156.35 644.149 1173.62 657.906C1180.61 663.371 1187.33 669.217 1194.93 674.119C1206.36 681.567 1219.51 686.555 1232.75 690.51C1234.97 691.141 1237.16 691.805 1239.39 692.401L1246.05 694.148C1269.98 700.399 1291.73 694.979 1308.37 680.828C1327.23 665.219 1338.94 644.489 1354.8 626.839C1365.09 615.371 1379.28 603.833 1398.22 605.806L1398.22 605.534C1379.08 603.325 1364.52 614.832 1353.98 626.271C1337.79 643.737 1325.94 664.222 1307.03 679.618C1287.69 695.324 1266.58 698.533 1239.95 690.378C1224.76 686.138 1209.49 680.855 1196.45 672.296C1185.23 664.912 1175.83 655.597 1164.58 648.188C1142.03 633.082 1115.71 623.4 1089.58 614.897C1013.23 587.312 949.145 628.355 896.677 666.292C872.648 682.737 841.375 709.179 810.488 714.248C760.425 720.419 703.154 680.97 663.174 655.135C655.692 650.2 648.229 645.232 640.623 640.425C632.989 635.676 625.323 630.796 616.663 627.445C566.28 609.672 505.431 605.4 456.828 620.686C451.734 622.28 446.588 624.322 441.77 626.396C439.249 627.583 435.709 629.252 433.136 630.378C417.791 637.495 398.817 638.139 381.314 633.166C345.725 623.299 317.29 600.037 285.39 583.37C277.277 579.192 268.66 575.427 259.656 573.317C244.205 569.584 228.956 564.76 215.076 557.308C201.218 549.936 188.743 540.469 177.001 530.697C160.451 516.754 144.234 501.066 129.217 485.936C117.052 473.801 104.993 460.721 92.792 448.595C80.241 436.347 65.8828 425.429 50.3806 416.096C19.3984 397.388 -17.108 386.245 -53.4564 383.66C-67.0695 382.678 -80.6954 382.751 -94.0258 384.113C-98.4681 384.577 -102.882 385.143 -107.214 385.995L-107.118 386.267L-107.087 386.275L-107.082 386.258Z" fill="#FDDBCD"/>
<path d="M-106.221 375.541C-56.1755 367.798 -0.57212 377.838 44.3511 403.439C56.0424 410.04 67.1466 417.742 77.2125 426.129C85.7327 433.025 93.5955 440.737 100.995 448.457C118.796 467.215 137.21 486.204 156.213 504.085C178.641 524.755 202.978 546.021 233.54 556.979C244.292 561.042 255.525 563.522 266.528 566.565C272.99 568.637 279.127 571.416 285.143 574.436C332.402 598.876 386.71 646.652 440.416 617.903C490.136 594.212 561.966 597.872 617.074 617.78C625.467 621.078 633.073 625.971 640.632 630.747C648.174 635.584 655.594 640.587 663.041 645.57C692.871 665.387 723.221 685.533 757.836 698.154C785.588 708.142 812.024 710.622 837.076 697.996C874.916 679.193 904.843 651.436 940.689 630.379C981.369 605.551 1029.99 587.718 1083.02 604.707C1093.67 608.062 1104.92 611.755 1115.33 615.737C1136.54 623.648 1157.21 633.433 1174.48 647.189C1181.47 652.655 1188.19 658.501 1195.79 663.402C1207.22 670.851 1220.37 675.839 1233.61 679.794C1235.83 680.425 1238.02 681.089 1240.25 681.685L1246.91 683.432C1270.84 689.683 1292.59 684.263 1309.23 670.112C1328.09 654.502 1339.8 633.773 1355.66 616.122C1365.95 604.655 1380.14 593.116 1399.08 595.09L1399.08 594.818C1379.94 592.609 1365.39 604.116 1354.84 615.554C1338.65 633.021 1326.81 653.506 1307.89 668.902C1288.55 684.608 1267.44 687.817 1240.81 679.662C1225.62 675.421 1210.35 670.138 1197.32 661.58C1186.09 654.196 1176.69 644.881 1165.44 637.472C1142.89 622.366 1116.57 612.684 1090.44 604.18C1014.09 576.595 950.006 617.639 897.538 655.576C873.509 672.021 842.234 698.471 811.348 703.532C761.283 709.711 704.015 670.254 664.035 644.418C656.553 639.483 649.09 634.516 641.484 629.708C633.85 624.96 626.184 620.079 617.524 616.729C567.141 598.956 506.292 594.684 457.689 609.97C452.595 611.563 447.449 613.606 442.631 615.68C440.109 616.866 436.57 618.536 433.997 619.661C418.652 626.779 399.678 627.423 382.175 622.449C346.586 612.582 318.151 589.32 286.251 572.653C278.138 568.476 269.521 564.711 260.517 562.601C245.066 558.867 229.817 554.044 215.936 546.591C202.079 539.22 189.604 529.753 177.862 519.981C161.312 506.037 145.095 490.35 130.078 475.22C117.913 463.084 105.854 450.004 93.6529 437.879C81.1019 425.631 66.7437 414.713 51.2415 405.38C20.2593 386.671 -16.2471 375.528 -52.5955 372.944C-66.2086 371.962 -79.8345 372.035 -93.1649 373.397C-97.6072 373.861 -102.021 374.427 -106.354 375.279L-106.258 375.551L-106.226 375.559L-106.221 375.541Z" fill="#FDDBCD"/>
<path d="M-105.361 364.817C-55.3151 357.073 0.288293 367.114 45.2115 392.715C56.9028 399.316 68.0071 407.018 78.0729 415.405C86.5931 422.3 94.456 430.012 101.856 437.732C119.656 456.491 138.07 475.48 157.073 493.361C179.501 514.03 203.838 535.297 234.4 546.255C245.153 550.318 256.385 552.798 267.388 555.841C273.85 557.913 279.987 560.691 286.004 563.712C333.262 588.152 387.571 635.928 441.277 607.179C490.997 583.487 562.827 587.148 617.934 607.056C626.327 610.354 633.934 615.246 641.492 620.022C649.035 624.86 656.454 629.863 663.901 634.846C693.732 654.663 724.081 674.809 758.696 687.43C786.448 697.418 812.884 699.898 837.936 687.272C875.776 668.469 905.703 640.712 941.55 619.655C982.229 594.826 1030.85 576.994 1083.88 593.983C1094.53 597.337 1105.78 601.031 1116.19 605.012C1137.4 612.924 1158.07 622.709 1175.34 636.465C1182.33 641.93 1189.05 647.777 1196.65 652.678C1208.08 660.127 1221.23 665.114 1234.47 669.07C1236.69 669.701 1238.88 670.365 1241.11 670.961L1247.77 672.708C1271.7 678.959 1293.45 673.539 1310.09 659.388C1328.95 643.778 1340.66 623.048 1356.52 605.398C1366.81 593.931 1381 582.392 1399.94 584.366L1399.94 584.093C1380.8 581.885 1366.25 593.392 1355.7 604.83C1339.51 622.297 1327.67 642.782 1308.75 658.178C1289.41 673.884 1268.3 677.093 1241.67 668.938C1226.48 664.697 1211.21 659.414 1198.18 650.855C1186.95 643.472 1177.55 634.157 1166.3 626.747C1143.76 611.641 1117.43 601.959 1091.3 593.456C1014.95 565.871 950.867 606.915 898.398 644.852C874.369 661.296 843.084 687.744 812.209 692.808C762.144 698.987 704.876 659.53 664.896 633.694C657.413 628.759 649.951 623.792 642.344 618.984C634.711 614.235 627.045 609.355 618.384 606.004C568.001 588.232 507.153 583.96 458.549 599.246C453.456 600.839 448.309 602.882 443.492 604.956C440.97 606.142 437.43 607.812 434.857 608.937C419.512 616.055 400.538 616.699 383.036 611.725C347.447 601.858 319.012 578.596 287.111 561.929C278.999 557.752 270.382 553.987 261.378 551.877C245.927 548.143 230.678 543.32 216.797 535.867C202.939 528.496 190.464 519.028 178.723 509.256C162.173 495.313 145.955 479.625 130.938 464.495C118.773 452.36 106.715 439.28 94.5133 427.154C81.9623 414.906 67.6041 403.989 52.1019 394.655C21.1197 375.947 -15.3867 364.804 -51.7351 362.22C-65.3482 361.238 -78.9741 361.311 -92.3045 362.673C-96.7468 363.137 -101.16 363.703 -105.493 364.555L-105.397 364.826L-105.366 364.835L-105.361 364.817Z" fill="#FDDBCD"/>
<path d="M-104.501 354.092C-54.4547 346.348 1.14864 356.389 46.0719 381.99C57.7632 388.591 68.8674 396.293 78.9333 404.68C87.4534 411.575 95.3163 419.287 102.716 427.007C120.517 445.766 138.931 464.755 157.934 482.636C180.362 503.305 204.698 524.572 235.261 535.53C246.013 539.593 257.246 542.073 268.249 545.116C274.711 547.188 280.848 549.966 286.864 552.987C334.123 577.427 388.431 625.203 442.137 596.454C491.857 572.762 563.687 576.423 618.794 596.331C627.188 599.629 634.794 604.521 642.353 609.297C649.895 614.135 657.314 619.138 664.764 624.112C694.594 643.929 724.944 664.075 759.559 676.696C787.311 686.684 813.747 689.164 838.799 676.538C876.639 657.735 906.566 629.978 942.412 608.921C983.092 584.093 1031.71 566.26 1084.75 583.249C1095.4 586.604 1106.64 590.297 1117.06 594.279C1138.26 602.19 1158.94 611.975 1176.2 625.731C1183.19 631.196 1189.91 637.043 1197.52 641.944C1208.95 649.393 1222.09 654.381 1235.34 658.336C1237.55 658.967 1239.75 659.631 1241.97 660.227L1248.63 661.974C1272.56 668.225 1294.31 662.805 1310.96 648.654C1329.81 633.044 1341.52 612.314 1357.38 594.664C1367.67 583.197 1381.86 571.658 1400.8 573.632L1400.81 573.359C1381.66 571.151 1367.11 582.658 1356.57 594.096C1340.37 611.563 1328.53 632.048 1309.62 647.444C1290.27 663.15 1269.16 666.359 1242.54 658.204C1227.34 653.963 1212.07 648.68 1199.04 640.122C1187.82 632.738 1178.41 623.423 1167.16 616.013C1144.62 600.908 1118.29 591.225 1092.16 582.722C1015.81 555.137 951.73 596.181 899.261 634.118C875.232 650.562 843.959 677.004 813.072 682.074C763.009 688.244 705.738 648.796 665.758 622.96C658.276 618.025 650.813 613.058 643.207 608.25C635.573 603.501 627.907 598.621 619.247 595.27C568.864 577.498 508.015 573.226 459.412 588.512C454.318 590.105 449.172 592.148 444.354 594.222C441.833 595.408 438.293 597.078 435.72 598.203C420.375 605.321 401.401 605.965 383.898 600.991C348.309 591.124 319.874 567.862 287.974 551.195C279.861 547.018 271.244 543.253 262.24 541.143C246.789 537.409 231.54 532.586 217.66 525.133C203.802 517.762 191.327 508.295 179.585 498.523C163.035 484.579 146.818 468.891 131.801 453.761C119.636 441.626 107.577 428.546 95.376 416.42C82.825 404.173 68.4668 393.255 52.9646 383.922C21.9824 365.213 -14.524 354.07 -50.8724 351.486C-64.4854 350.504 -78.1114 350.577 -91.4418 351.939C-95.8841 352.403 -100.298 352.969 -104.63 353.821L-104.534 354.093L-104.503 354.101L-104.501 354.092Z" fill="#FDDBCD"/>
<path d="M-103.638 343.368C-53.5917 335.624 2.01168 345.664 46.9349 371.265C58.6262 377.867 69.7304 385.568 79.7963 393.955C88.3165 400.851 96.1793 408.563 103.579 416.283C121.38 435.041 139.794 454.031 158.797 471.911C181.225 492.581 205.562 513.847 236.124 524.805C246.876 528.868 258.109 531.348 269.112 534.391C275.574 536.463 281.711 539.242 287.727 542.262C334.986 566.702 389.294 614.478 443 585.729C492.72 562.038 564.55 565.698 619.657 585.606C628.051 588.904 635.657 593.797 643.216 598.573C650.758 603.41 658.177 608.413 665.627 613.387C695.457 633.204 725.807 653.35 760.422 665.971C788.174 675.959 814.61 678.44 839.662 665.814C877.502 647.011 907.429 619.254 943.275 598.196C983.955 573.368 1032.58 555.535 1085.61 572.524C1096.26 575.879 1107.5 579.572 1117.92 583.554C1139.12 591.466 1159.8 601.25 1177.06 615.007C1184.05 620.472 1190.78 626.318 1198.38 631.22C1209.81 638.668 1222.96 643.656 1236.2 647.611C1238.42 648.242 1240.61 648.906 1242.83 649.502L1249.5 651.249C1273.43 657.5 1295.17 652.08 1311.82 637.929C1330.68 622.32 1342.38 601.59 1358.24 583.94C1368.54 572.472 1382.73 560.934 1401.66 562.907L1401.67 562.635C1382.52 560.426 1367.97 571.933 1357.43 583.372C1341.23 600.838 1329.39 621.323 1310.48 636.719C1291.14 652.425 1270.02 655.634 1243.4 647.479C1228.21 643.239 1212.94 637.956 1199.9 629.397C1188.68 622.013 1179.28 612.698 1168.03 605.289C1145.48 590.183 1119.15 580.501 1093.03 571.997C1016.68 544.413 952.593 585.456 900.124 623.393C876.095 639.838 844.822 666.279 813.935 671.349C763.872 677.52 706.601 638.071 666.621 612.236C659.139 607.301 651.676 602.333 644.07 597.525C636.436 592.777 628.77 587.897 620.11 584.546C569.727 566.773 508.878 562.501 460.275 577.787C455.181 579.381 450.035 581.423 445.217 583.497C442.696 584.684 439.156 586.353 436.583 587.479C421.238 594.596 402.264 595.24 384.761 590.267C349.172 580.4 320.737 557.138 288.837 540.471C280.724 536.293 272.107 532.528 263.103 530.418C247.652 526.685 232.403 521.861 218.523 514.409C204.665 507.037 192.19 497.57 180.448 487.798C163.899 473.855 147.681 458.167 132.664 443.037C120.499 430.902 108.44 417.822 96.2391 405.696C83.688 393.448 69.3299 382.53 53.8276 373.197C22.8455 354.489 -13.661 343.346 -50.0093 340.761C-63.6224 339.779 -77.2483 339.852 -90.5787 341.214C-95.0211 341.678 -99.4346 342.244 -103.767 343.096L-103.671 343.368L-103.64 343.376L-103.638 343.368Z" fill="#FDDBCD"/>
<path d="M-102.774 332.643C-52.7286 324.899 2.87478 334.94 47.798 360.54C59.4893 367.142 70.5935 374.843 80.6594 383.231C89.1796 390.126 97.0424 397.838 104.442 405.558C122.243 424.317 140.657 443.306 159.66 461.186C182.088 481.856 206.425 503.122 236.987 514.081C247.739 518.143 258.972 520.624 269.975 523.667C276.437 525.738 282.574 528.517 288.59 531.537C335.849 555.978 390.157 603.753 443.863 575.005C493.583 551.313 565.413 554.973 620.52 574.881C628.914 578.179 636.52 583.072 644.079 587.848C651.621 592.686 659.04 597.689 666.49 602.662C696.32 622.48 726.67 642.625 761.285 655.247C789.037 665.235 815.473 667.715 840.525 655.089C878.365 636.286 908.292 608.529 944.138 587.472C984.818 562.643 1033.44 544.811 1086.47 561.8C1097.12 565.154 1108.37 568.848 1118.78 572.829C1139.98 580.741 1160.66 590.526 1177.93 604.282C1184.92 609.747 1191.64 615.593 1199.24 620.495C1210.67 627.943 1223.82 632.931 1237.06 636.886C1239.28 637.518 1241.47 638.181 1243.7 638.777L1250.36 640.524C1274.29 646.776 1296.04 641.355 1312.68 627.204C1331.54 611.595 1343.25 590.865 1359.11 573.215C1369.4 561.747 1383.59 550.209 1402.53 552.183L1402.53 551.91C1383.39 549.701 1368.83 561.209 1358.29 572.647C1342.1 590.113 1330.25 610.599 1311.34 625.995C1292 641.7 1270.89 644.909 1244.26 636.755C1229.07 632.514 1213.8 627.231 1200.77 618.672C1189.54 611.289 1180.14 601.974 1168.89 594.564C1146.34 579.458 1120.02 569.776 1093.89 561.273C1017.54 533.688 953.456 574.732 900.987 612.668C876.958 629.113 845.685 655.555 814.798 660.625C764.735 666.795 707.464 627.347 667.484 601.511C660.002 596.576 652.54 591.608 644.933 586.801C637.299 582.052 629.634 577.172 620.973 573.821C570.59 556.049 509.741 551.777 461.138 567.062C456.045 568.656 450.898 570.699 446.081 572.773C443.559 573.959 440.019 575.629 437.446 576.754C422.101 583.871 403.127 584.515 385.624 579.542C350.035 569.675 321.6 546.413 289.7 529.746C281.587 525.568 272.97 521.804 263.966 519.694C248.515 515.96 233.267 511.137 219.386 503.684C205.528 496.313 193.053 486.845 181.311 477.073C164.762 463.13 148.544 447.442 133.527 432.312C121.362 420.177 109.304 407.097 97.1022 394.971C84.5511 382.723 70.193 371.806 54.6907 362.472C23.7086 343.764 -12.7979 332.621 -49.1462 330.037C-62.7593 329.055 -76.3853 329.128 -89.7156 330.49C-94.158 330.953 -98.5715 331.519 -102.904 332.372L-102.808 332.643L-102.777 332.652L-102.774 332.643Z" fill="#FDDBCD"/>
<path d="M-101.911 321.927C-51.8649 314.183 3.73848 324.224 48.6617 349.824C60.353 356.426 71.4572 364.127 81.5231 372.515C90.0433 379.41 97.9061 387.122 105.306 394.842C123.107 413.601 141.52 432.59 160.524 450.471C182.951 471.14 207.288 492.406 237.851 503.365C248.603 507.428 259.836 509.908 270.839 512.951C277.3 515.022 283.438 517.801 289.454 520.822C336.712 545.262 391.021 593.037 444.727 564.289C494.447 540.597 566.277 544.258 621.384 564.165C629.778 567.464 637.384 572.356 644.943 577.132C652.485 581.97 659.904 586.973 667.351 591.955C697.182 611.773 727.531 631.918 762.146 644.539C789.899 654.528 816.334 657.008 841.386 644.382C879.226 625.579 909.153 597.822 945 576.765C985.68 551.936 1034.3 534.104 1087.33 551.093C1097.98 554.447 1109.23 558.141 1119.64 562.122C1140.85 570.034 1161.52 579.819 1178.79 593.575C1185.78 599.04 1192.5 604.886 1200.1 609.788C1211.53 617.236 1224.68 622.224 1237.92 626.179C1240.14 626.811 1242.33 627.474 1244.56 628.07L1251.22 629.817C1275.15 636.069 1296.9 630.648 1313.54 616.497C1332.4 600.888 1344.11 580.158 1359.97 562.508C1370.26 551.04 1384.45 539.502 1403.39 541.476L1403.39 541.203C1384.25 538.994 1369.7 550.502 1359.15 561.94C1342.96 579.406 1331.12 599.892 1312.2 615.288C1292.86 630.993 1271.75 634.202 1245.12 626.048C1229.93 621.807 1214.66 616.524 1201.63 607.965C1190.4 600.582 1181 591.267 1169.75 583.857C1147.21 568.751 1120.88 559.069 1094.75 550.566C1018.4 522.981 954.317 564.025 901.848 601.961C877.82 618.406 846.547 644.848 815.659 649.918C765.594 656.097 708.326 616.64 668.346 590.804C660.863 585.869 653.401 580.901 645.794 576.094C638.161 571.345 630.495 566.465 621.835 563.114C571.452 545.342 510.603 541.07 462 556.355C456.906 557.949 451.759 559.992 446.942 562.066C444.42 563.252 440.88 564.922 438.307 566.047C422.962 573.164 403.988 573.808 386.486 568.835C350.897 558.968 322.462 535.706 290.561 519.039C282.449 514.861 273.832 511.097 264.828 508.987C249.377 505.253 234.128 500.43 220.247 492.977C206.389 485.606 193.914 476.138 182.173 466.366C165.623 452.423 149.406 436.735 134.388 421.605C122.223 409.47 110.165 396.39 97.9635 384.264C85.4125 372.016 71.0543 361.099 55.5521 351.765C24.5699 333.057 -11.9365 321.914 -48.2849 319.33C-61.898 318.347 -75.5239 318.42 -88.8543 319.783C-93.2966 320.246 -97.7101 320.812 -102.043 321.665L-101.947 321.936L-101.915 321.945L-101.911 321.927Z" fill="#FDDBCD"/>
<path d="M-101.05 311.202C-51.0044 303.458 4.59896 313.499 49.5222 339.1C61.2135 345.701 72.3177 353.403 82.3836 361.79C90.9037 368.685 98.7666 376.397 106.166 384.117C123.967 402.876 142.381 421.865 161.384 439.746C183.812 460.415 208.149 481.682 238.711 492.64C249.463 496.703 260.696 499.183 271.699 502.226C278.161 504.298 284.298 507.076 290.315 510.097C337.573 534.537 391.881 582.313 445.587 553.564C495.307 529.872 567.137 533.533 622.245 553.441C630.638 556.739 638.244 561.631 645.803 566.407C653.345 571.245 660.765 576.248 668.212 581.23C698.042 601.048 728.392 621.194 763.007 633.815C790.759 643.803 817.195 646.283 842.247 633.657C880.087 614.854 910.014 587.097 945.86 566.04C986.54 541.211 1035.16 523.379 1088.2 540.368C1098.85 543.722 1110.09 547.416 1120.5 551.397C1141.71 559.309 1162.38 569.094 1179.65 582.85C1186.64 588.315 1193.36 594.162 1200.96 599.063C1212.39 606.512 1225.54 611.499 1238.79 615.455C1241 616.086 1243.2 616.75 1245.42 617.346L1252.08 619.093C1276.01 625.344 1297.76 619.924 1314.4 605.773C1333.26 590.163 1344.97 569.433 1360.83 551.783C1371.12 540.316 1385.31 528.777 1404.25 530.751L1404.25 530.478C1385.11 528.27 1370.56 539.777 1360.01 551.215C1343.82 568.681 1331.98 589.167 1313.06 604.563C1293.72 620.269 1272.61 623.478 1245.98 615.323C1230.79 611.082 1215.52 605.799 1202.49 597.24C1191.26 589.857 1181.86 580.542 1170.61 573.132C1148.07 558.026 1121.74 548.344 1095.61 539.841C1019.26 512.256 955.177 553.3 902.709 591.236C878.68 607.681 847.405 634.132 816.52 639.193C766.454 645.372 709.186 605.915 669.206 580.079C661.724 575.144 654.261 570.177 646.655 565.369C639.021 560.62 631.355 555.74 622.695 552.389C572.312 534.617 511.463 530.345 462.86 545.631C457.766 547.224 452.62 549.267 447.802 551.341C445.281 552.527 441.741 554.197 439.168 555.322C423.823 562.44 404.849 563.083 387.346 558.11C351.757 548.243 323.322 524.981 291.422 508.314C283.309 504.136 274.692 500.372 265.688 498.262C250.237 494.528 234.988 489.705 221.108 482.252C207.25 474.881 194.775 465.413 183.033 455.641C166.483 441.698 150.266 426.01 135.249 410.88C123.084 398.745 111.025 385.665 98.824 373.539C86.273 361.291 71.9148 350.374 56.4126 341.04C25.4304 322.332 -11.0761 311.189 -47.4244 308.605C-61.0375 307.623 -74.6634 307.696 -87.9938 309.058C-92.4361 309.522 -96.8496 310.088 -101.182 310.94L-101.086 311.211L-101.055 311.22L-101.05 311.202Z" fill="#FDDBCD"/>
<path d="M-100.19 300.477C-50.1439 292.733 5.4595 302.774 50.3827 328.375C62.074 334.976 73.1783 342.678 83.2441 351.065C91.7643 357.96 99.6272 365.672 107.027 373.392C124.828 392.151 143.241 411.14 162.245 429.021C184.672 449.69 209.009 470.957 239.572 481.915C250.324 485.978 261.557 488.458 272.56 491.501C279.021 493.573 285.159 496.351 291.175 499.372C338.433 523.812 392.742 571.588 446.448 542.839C496.168 519.147 567.998 522.808 623.105 542.716C631.499 546.014 639.105 550.906 646.664 555.682C654.206 560.52 661.625 565.523 669.072 570.505C698.903 590.323 729.252 610.469 763.867 623.09C791.62 633.078 818.055 635.558 843.107 622.932C880.947 604.129 910.874 576.372 946.721 555.315C987.401 530.486 1036.02 512.654 1089.06 529.643C1099.71 532.997 1110.95 536.691 1121.36 540.672C1142.57 548.584 1163.24 558.369 1180.51 572.125C1187.5 577.59 1194.22 583.437 1201.82 588.338C1213.26 595.787 1226.4 600.774 1239.65 604.73C1241.86 605.361 1244.06 606.024 1246.28 606.62L1252.94 608.367C1276.87 614.619 1298.62 609.199 1315.26 595.047C1334.12 579.438 1345.83 558.708 1361.69 541.058C1371.98 529.59 1386.17 518.052 1405.11 520.026L1405.11 519.753C1385.97 517.545 1371.42 529.052 1360.87 540.49C1344.68 557.956 1332.84 578.442 1313.92 593.838C1294.58 609.543 1273.47 612.753 1246.84 604.598C1231.65 600.357 1216.38 595.074 1203.35 586.515C1192.12 579.132 1182.72 569.817 1171.47 562.407C1148.93 547.301 1122.6 537.619 1096.47 529.116C1020.12 501.531 956.038 542.575 903.57 580.511C879.541 596.956 848.255 623.404 817.38 628.468C767.315 634.647 710.047 595.19 670.067 569.354C662.584 564.419 655.122 559.452 647.515 554.644C639.882 549.895 632.216 545.015 623.556 541.664C573.173 523.892 512.324 519.62 463.721 534.906C458.627 536.499 453.48 538.542 448.663 540.616C446.141 541.802 442.601 543.472 440.028 544.597C424.683 551.715 405.709 552.358 388.207 547.385C352.618 537.518 324.183 514.256 292.282 497.589C284.17 493.411 275.553 489.647 266.549 487.537C251.098 483.803 235.849 478.98 221.968 471.527C208.11 464.156 195.635 454.688 183.894 444.916C167.344 430.973 151.127 415.285 136.109 400.155C123.944 388.02 111.886 374.94 99.6845 362.814C87.1335 350.566 72.7753 339.649 57.2731 330.315C26.2909 311.607 -10.2155 300.464 -46.5639 297.88C-60.177 296.898 -73.8029 296.971 -87.1333 298.333C-91.5756 298.797 -95.9891 299.363 -100.322 300.215L-100.226 300.486L-100.194 300.495L-100.19 300.477Z" fill="#FDDBCD"/>
<path d="M-99.3295 289.753C-49.2836 282.009 6.31978 292.05 51.243 317.65C62.9343 324.252 74.0385 331.953 84.1044 340.341C92.6246 347.236 100.487 354.948 107.887 362.668C125.688 381.427 144.102 400.416 163.105 418.296C185.533 438.966 209.87 460.232 240.432 471.191C251.184 475.253 262.417 477.734 273.42 480.777C279.882 482.848 286.019 485.627 292.035 488.648C339.294 513.088 393.602 560.863 447.308 532.115C497.028 508.423 568.858 512.084 623.965 531.991C632.359 535.29 639.965 540.182 647.524 544.958C655.066 549.796 662.485 554.799 669.935 559.772C699.765 579.59 730.115 599.736 764.73 612.357C792.482 622.345 818.918 624.825 843.97 612.199C881.81 593.396 911.737 565.639 947.583 544.582C988.263 519.753 1036.89 501.921 1089.92 518.91C1100.57 522.264 1111.81 525.958 1122.23 529.939C1143.43 537.851 1164.11 547.636 1181.37 561.392C1188.36 566.857 1195.08 572.704 1202.69 577.605C1214.12 585.053 1227.26 590.041 1240.51 593.996C1242.72 594.628 1244.92 595.291 1247.14 595.887L1253.8 597.634C1277.73 603.886 1299.48 598.465 1316.13 584.314C1334.98 568.705 1346.69 547.975 1362.55 530.325C1372.84 518.857 1387.03 507.319 1405.97 509.293L1405.98 509.02C1386.83 506.812 1372.28 518.319 1361.74 529.757C1345.54 547.223 1333.7 567.709 1314.79 583.105C1295.44 598.81 1274.33 602.019 1247.71 593.865C1232.52 589.624 1217.24 584.341 1204.21 575.782C1192.99 568.399 1183.59 559.084 1172.34 551.674C1149.79 536.568 1123.46 526.886 1097.34 518.383C1020.99 490.798 956.901 531.842 904.432 569.778C880.403 586.223 849.13 612.665 818.243 617.735C768.18 623.905 710.909 584.457 670.929 558.621C663.447 553.686 655.985 548.718 648.378 543.911C640.744 539.162 633.079 534.282 624.418 530.931C574.035 513.159 513.186 508.887 464.583 524.172C459.49 525.766 454.343 527.809 449.526 529.883C447.004 531.069 443.464 532.739 440.891 533.864C425.546 540.982 406.572 541.625 389.069 536.652C353.48 526.785 325.045 503.523 293.145 486.856C285.032 482.678 276.415 478.914 267.411 476.804C251.96 473.07 236.712 468.247 222.831 460.794C208.973 453.423 196.498 443.955 184.756 434.183C168.207 420.24 151.989 404.552 136.972 389.422C124.807 377.287 112.749 364.207 100.547 352.081C87.9961 339.833 73.638 328.916 58.1357 319.582C27.1536 300.874 -9.35287 289.731 -45.7012 287.147C-59.3143 286.165 -72.9402 286.238 -86.2706 287.6C-90.713 288.063 -95.1264 288.63 -99.4592 289.482L-99.3633 289.753L-99.3318 289.762L-99.3295 289.753Z" fill="#FDDBCD"/>
<path d="M-98.4664 279.028C-48.4206 271.284 7.18282 281.325 52.106 306.926C63.7973 313.527 74.9016 321.229 84.9674 329.616C93.4876 336.511 101.35 344.223 108.75 351.943C126.551 370.702 144.965 389.691 163.968 407.572C186.396 428.241 210.733 449.508 241.295 460.466C252.047 464.529 263.28 467.009 274.283 470.052C280.745 472.124 286.882 474.902 292.898 477.923C340.157 502.363 394.465 550.139 448.171 521.39C497.891 497.698 569.721 501.359 624.829 521.267C633.222 524.565 640.828 529.457 648.387 534.233C655.929 539.071 663.348 544.074 670.798 549.048C700.628 568.865 730.978 589.011 765.593 601.632C793.345 611.62 819.781 614.1 844.833 601.474C882.673 582.671 912.6 554.914 948.446 533.857C989.126 509.029 1037.75 491.196 1090.78 508.185C1101.43 511.54 1112.68 515.233 1123.09 519.215C1144.29 527.126 1164.97 536.911 1182.23 550.667C1189.23 556.133 1195.95 561.979 1203.55 566.88C1214.98 574.329 1228.13 579.317 1241.37 583.272C1243.59 583.903 1245.78 584.567 1248.01 585.163L1254.67 586.91C1278.6 593.161 1300.35 587.741 1316.99 573.59C1335.85 557.98 1347.55 537.251 1363.42 519.6C1373.71 508.133 1387.9 496.594 1406.83 498.568L1406.84 498.296C1387.7 496.087 1373.14 507.594 1362.6 519.032C1346.41 536.499 1334.56 556.984 1315.65 572.38C1296.31 588.086 1275.19 591.295 1248.57 583.14C1233.38 578.899 1218.11 573.616 1205.07 565.058C1193.85 557.674 1184.45 548.359 1173.2 540.95C1150.65 525.844 1124.32 516.162 1098.2 507.658C1021.85 480.073 957.764 521.117 905.295 559.054C881.266 575.499 849.993 601.94 819.106 607.01C769.043 613.18 711.772 573.732 671.792 547.896C664.31 542.961 656.848 537.994 649.241 533.186C641.607 528.438 633.942 523.557 625.281 520.206C574.898 502.434 514.05 498.162 465.446 513.448C460.353 515.041 455.206 517.084 450.389 519.158C447.867 520.344 444.327 522.014 441.754 523.139C426.409 530.257 407.435 530.901 389.932 525.927C354.343 516.06 325.908 492.798 294.008 476.131C285.895 471.954 277.278 468.189 268.274 466.079C252.824 462.345 237.575 457.522 223.694 450.069C209.836 442.698 197.361 433.231 185.619 423.459C169.07 409.515 152.852 393.828 137.835 378.698C125.67 366.562 113.612 353.482 101.41 341.356C88.8592 329.109 74.501 318.191 58.9988 308.858C28.0166 290.149 -8.48983 279.006 -44.8382 276.422C-58.4513 275.44 -72.0772 275.513 -85.4076 276.875C-89.8499 277.339 -94.2634 277.905 -98.5962 278.757L-98.5003 279.029L-98.4688 279.037L-98.4664 279.028Z" fill="#FDDBCD"/>
<path d="M-97.603 268.312C-47.5571 260.568 8.04628 270.608 52.9695 296.209C64.6608 302.811 75.765 310.512 85.8309 318.899C94.3511 325.795 102.214 333.507 109.614 341.227C127.414 359.986 145.828 378.975 164.831 396.855C187.259 417.525 211.596 438.791 242.158 449.75C252.911 453.812 264.143 456.293 275.146 459.335C281.608 461.407 287.745 464.186 293.762 467.206C341.02 491.646 395.329 539.422 449.035 510.674C498.755 486.982 570.585 490.642 625.692 510.55C634.085 513.848 641.692 518.741 649.25 523.517C656.793 528.354 664.212 533.358 671.662 538.331C701.492 558.149 731.841 578.294 766.456 590.915C794.209 600.904 820.644 603.384 845.697 590.758C883.536 571.955 913.464 544.198 949.31 523.141C989.99 498.312 1038.61 480.479 1091.65 497.469C1102.29 500.823 1113.54 504.517 1123.95 508.498C1145.16 516.41 1165.83 526.194 1183.1 539.951C1190.09 545.416 1196.81 551.262 1204.41 556.164C1215.84 563.612 1228.99 568.6 1242.24 572.555C1244.45 573.186 1246.64 573.85 1248.87 574.446L1255.53 576.193C1279.46 582.444 1301.21 577.024 1317.85 562.873C1336.71 547.264 1348.42 526.534 1364.28 508.884C1374.57 497.416 1388.76 485.878 1407.7 487.852L1407.7 487.579C1388.56 485.37 1374.01 496.878 1363.46 508.316C1347.27 525.782 1335.43 546.267 1316.51 561.663C1297.17 577.369 1276.06 580.578 1249.43 572.423C1234.24 568.183 1218.97 562.9 1205.94 554.341C1194.71 546.958 1185.31 537.643 1174.06 530.233C1151.52 515.127 1125.19 505.445 1099.06 496.942C1022.71 469.357 958.627 510.4 906.159 548.337C882.13 564.782 850.857 591.224 819.969 596.294C769.906 602.464 712.636 563.016 672.656 537.18C665.174 532.245 657.711 527.277 650.104 522.47C642.471 517.721 634.805 512.841 626.145 509.49C575.762 491.718 514.913 487.446 466.31 502.731C461.216 504.325 456.07 506.367 451.252 508.442C448.73 509.628 445.19 511.298 442.617 512.423C427.273 519.54 408.299 520.184 390.796 515.211C355.207 505.344 326.772 482.082 294.872 465.415C286.759 461.237 278.142 457.473 269.138 455.362C253.687 451.629 238.438 446.806 224.557 439.353C210.699 431.982 198.224 422.514 186.483 412.742C169.933 398.799 153.716 383.111 138.699 367.981C126.533 355.846 114.475 342.766 102.274 330.64C89.7226 318.392 75.3645 307.475 59.8622 298.141C28.8801 279.433 -7.62637 268.29 -43.9747 265.705C-57.5878 264.723 -71.2137 264.796 -84.5441 266.158C-88.9865 266.622 -93.3999 267.188 -97.7327 268.041L-97.6368 268.312L-97.6053 268.321L-97.603 268.312Z" fill="#FDDBCD"/>
<path d="M-96.7397 257.587C-46.6938 249.843 8.90957 259.884 53.8328 285.485C65.5241 292.086 76.6283 299.787 86.6942 308.175C95.2143 315.07 103.077 322.782 110.477 330.502C128.278 349.261 146.692 368.25 165.695 386.131C188.122 406.8 212.459 428.066 243.022 439.025C253.774 443.088 265.007 445.568 276.01 448.611C282.471 450.683 288.609 453.461 294.625 456.482C341.883 480.922 396.192 528.697 449.898 499.949C499.618 476.257 571.448 479.918 626.555 499.826C634.949 503.124 642.555 508.016 650.114 512.792C657.656 517.63 665.075 522.633 672.522 527.615C702.353 547.433 732.702 567.579 767.317 580.2C795.07 590.188 821.505 592.668 846.557 580.042C884.397 561.239 914.325 533.482 950.171 512.425C990.851 487.596 1039.47 469.764 1092.51 486.753C1103.16 490.107 1114.4 493.801 1124.81 497.782C1146.02 505.694 1166.69 515.479 1183.96 529.235C1190.95 534.7 1197.67 540.547 1205.27 545.448C1216.71 552.897 1229.85 557.884 1243.1 561.839C1245.31 562.471 1247.51 563.134 1249.73 563.73L1256.39 565.477C1280.32 571.729 1302.07 566.308 1318.71 552.157C1337.57 536.548 1349.28 515.818 1365.14 498.168C1375.43 486.7 1389.62 475.162 1408.56 477.136L1408.56 476.863C1389.42 474.655 1374.87 486.162 1364.32 497.6C1348.13 515.066 1336.29 535.552 1317.37 550.948C1298.03 566.653 1276.92 569.862 1250.29 561.708C1235.1 557.467 1219.83 552.184 1206.8 543.625C1195.57 536.242 1186.17 526.927 1174.92 519.517C1152.38 504.411 1126.05 494.729 1099.92 486.226C1023.57 458.641 959.488 499.685 907.02 537.621C882.991 554.066 851.715 580.517 820.83 585.578C770.765 591.757 713.497 552.3 673.517 526.464C666.034 521.529 658.572 516.561 650.965 511.754C643.332 507.005 635.666 502.125 627.006 498.774C576.623 481.002 515.774 476.73 467.171 492.015C462.077 493.609 456.931 495.652 452.113 497.726C449.591 498.912 446.051 500.582 443.478 501.707C428.133 508.825 409.159 509.468 391.657 504.495C356.068 494.628 327.633 471.366 295.733 454.699C287.62 450.521 279.003 446.757 269.999 444.647C254.548 440.913 239.299 436.09 225.418 428.637C211.56 421.266 199.085 411.798 187.344 402.026C170.794 388.083 154.577 372.395 139.559 357.265C127.394 345.13 115.336 332.05 103.135 319.924C90.5836 307.676 76.2254 296.759 60.7232 287.425C29.741 268.717 -6.76545 257.574 -43.1138 254.99C-56.7269 254.008 -70.3528 254.081 -83.6832 255.443C-88.1255 255.906 -92.539 256.473 -96.8718 257.325L-96.7759 257.596L-96.7444 257.605L-96.7397 257.587Z" fill="#FDDBCD"/>
<path d="M-95.8793 246.863C-45.8334 239.119 9.76998 249.16 54.6932 274.76C66.3845 281.362 77.4887 289.063 87.5546 297.451C96.0748 304.346 103.938 312.058 111.337 319.778C129.138 338.537 147.552 357.526 166.555 375.406C188.983 396.076 213.32 417.342 243.882 428.301C254.635 432.363 265.867 434.844 276.87 437.887C283.332 439.958 289.469 442.737 295.486 445.757C342.744 470.198 397.052 517.973 450.758 489.225C500.478 465.533 572.308 469.194 627.416 489.101C635.809 492.4 643.415 497.292 650.974 502.068C658.516 506.906 665.936 511.909 673.383 516.891C703.213 536.709 733.563 556.854 768.178 569.475C795.93 579.464 822.366 581.944 847.418 569.318C885.258 550.515 915.185 522.758 951.031 501.701C991.711 476.872 1040.33 459.04 1093.37 476.029C1104.02 479.383 1115.26 483.077 1125.68 487.058C1146.88 494.97 1167.56 504.754 1184.82 518.511C1191.81 523.976 1198.53 529.822 1206.14 534.724C1217.57 542.172 1230.71 547.16 1243.96 551.115C1246.17 551.746 1248.37 552.41 1250.59 553.006L1257.25 554.753C1281.18 561.004 1302.93 555.584 1319.58 541.433C1338.43 525.824 1350.14 505.094 1366 487.444C1376.29 475.976 1390.48 464.438 1409.42 466.412L1409.42 466.139C1390.28 463.93 1375.73 475.438 1365.18 486.876C1348.99 504.342 1337.15 524.827 1318.24 540.223C1298.89 555.929 1277.78 559.138 1251.15 550.983C1235.96 546.743 1220.69 541.46 1207.66 532.901C1196.43 525.518 1187.03 516.203 1175.78 508.793C1153.24 493.687 1126.91 484.005 1100.78 475.502C1024.43 447.917 960.348 488.96 907.88 526.897C883.851 543.342 852.576 569.792 821.691 574.854C771.625 581.033 714.357 541.576 674.377 515.74C666.895 510.805 659.432 505.837 651.826 501.03C644.192 496.281 636.526 491.401 627.866 488.05C577.483 470.278 516.634 466.006 468.031 481.291C462.937 482.885 457.791 484.928 452.973 487.002C450.452 488.188 446.912 489.858 444.339 490.983C428.994 498.1 410.02 498.744 392.517 493.771C356.928 483.904 328.493 460.642 296.593 443.975C288.48 439.797 279.863 436.033 270.859 433.922C255.408 430.189 240.159 425.366 226.279 417.913C212.421 410.542 199.946 401.074 188.204 391.302C171.654 377.359 155.437 361.671 140.42 346.541C128.255 334.406 116.196 321.326 103.995 309.2C91.444 296.952 77.0858 286.035 61.5836 276.701C30.6014 257.993 -5.90504 246.85 -42.2534 244.266C-55.8665 243.283 -69.4924 243.356 -82.8228 244.719C-87.2651 245.182 -91.6786 245.748 -96.0114 246.601L-95.9155 246.872L-95.884 246.881L-95.8793 246.863Z" fill="#FDDBCD"/>
<path d="M-95.0187 236.138C-44.9728 228.394 10.6306 238.435 55.5538 264.035C67.2451 270.637 78.3493 278.338 88.4152 286.726C96.9354 293.621 104.798 301.333 112.198 309.053C129.999 327.812 148.413 346.801 167.416 364.681C189.843 385.351 214.18 406.617 244.743 417.576C255.495 421.638 266.728 424.119 277.731 427.162C284.192 429.233 290.33 432.012 296.346 435.033C343.604 459.473 397.913 507.248 451.619 478.5C501.339 454.808 573.169 458.469 628.276 478.376C636.67 481.675 644.276 486.567 651.835 491.343C659.377 496.181 666.796 501.184 674.243 506.166C704.074 525.984 734.423 546.129 769.038 558.75C796.791 568.739 823.226 571.219 848.279 558.593C886.118 539.79 916.046 512.033 951.892 490.976C992.572 466.147 1041.19 448.315 1094.23 465.304C1104.88 468.658 1116.12 472.352 1126.54 476.333C1147.74 484.245 1168.42 494.029 1185.68 507.786C1192.67 513.251 1199.39 519.097 1207 523.999C1218.43 531.447 1231.57 536.435 1244.82 540.39C1247.03 541.022 1249.23 541.685 1251.45 542.281L1258.11 544.028C1282.04 550.28 1303.79 544.859 1320.44 530.708C1339.29 515.099 1351 494.369 1366.86 476.719C1377.15 465.251 1391.34 453.713 1410.28 455.687L1410.28 455.414C1391.14 453.205 1376.59 464.713 1366.05 476.151C1349.85 493.617 1338.01 514.102 1319.1 529.498C1299.75 545.204 1278.64 548.413 1252.02 540.259C1236.82 536.018 1221.55 530.735 1208.52 522.176C1197.3 514.793 1187.89 505.478 1176.64 498.068C1154.1 482.962 1127.77 473.28 1101.64 464.777C1025.29 437.192 961.209 478.235 908.741 516.172C884.712 532.617 853.436 559.068 822.551 564.129C772.486 570.308 715.218 530.851 675.238 505.015C667.755 500.08 660.293 495.112 652.686 490.305C645.053 485.556 637.387 480.676 628.727 477.325C578.344 459.553 517.495 455.281 468.892 470.566C463.798 472.16 458.652 474.203 453.834 476.277C451.312 477.463 447.772 479.133 445.199 480.258C429.855 487.375 410.88 488.019 393.378 483.046C357.789 473.179 329.354 449.917 297.454 433.25C289.341 429.072 280.724 425.308 271.72 423.198C256.269 419.464 241.02 414.641 227.139 407.188C213.281 399.817 200.806 390.349 189.065 380.577C172.515 366.634 156.298 350.946 141.28 335.816C129.115 323.681 117.057 310.601 104.856 298.475C92.3046 286.227 77.9464 275.31 62.4442 265.976C31.462 247.268 -5.04444 236.125 -41.3928 233.541C-55.0059 232.558 -68.6318 232.631 -81.9622 233.994C-86.4045 234.457 -90.818 235.023 -95.1508 235.876L-95.0549 236.147L-95.0234 236.156L-95.0187 236.138Z" fill="#FDDBCD"/>
<path d="M-94.158 225.422C-44.1121 217.678 11.4912 227.718 56.4145 253.319C68.1058 259.921 79.21 267.622 89.2759 276.009C97.796 282.905 105.659 290.617 113.059 298.337C130.859 317.096 149.273 336.085 168.276 353.965C190.704 374.635 215.041 395.901 245.603 406.86C256.356 410.922 267.588 413.403 278.591 416.446C285.053 418.517 291.19 421.296 297.207 424.316C344.465 448.756 398.773 496.532 452.48 467.784C502.2 444.092 574.03 447.752 629.137 467.66C637.53 470.958 645.137 475.851 652.695 480.627C660.238 485.465 667.657 490.468 675.106 495.441C704.937 515.259 735.286 535.404 769.901 548.025C797.654 558.014 824.089 560.494 849.142 547.868C886.981 529.065 916.909 501.308 952.755 480.251C993.435 455.422 1042.06 437.59 1095.09 454.579C1105.74 457.933 1116.98 461.627 1127.4 465.608C1148.6 473.52 1169.28 483.305 1186.54 497.061C1193.53 502.526 1200.25 508.372 1207.86 513.274C1219.29 520.722 1232.44 525.71 1245.68 529.665C1247.89 530.297 1250.09 530.96 1252.31 531.556L1258.97 533.303C1282.9 539.555 1304.65 534.134 1321.3 519.983C1340.16 504.374 1351.86 483.644 1367.72 465.994C1378.02 454.526 1392.21 442.988 1411.14 444.962L1411.15 444.689C1392 442.48 1377.45 453.988 1366.91 465.426C1350.71 482.892 1338.87 503.378 1319.96 518.774C1300.61 534.479 1279.5 537.688 1252.88 529.534C1237.69 525.293 1222.42 520.01 1209.38 511.451C1198.16 504.068 1188.76 494.753 1177.51 487.343C1154.96 472.237 1128.63 462.555 1102.51 454.052C1026.16 426.467 962.072 467.511 909.604 505.447C885.575 521.892 854.302 548.334 823.414 553.404C773.351 559.574 716.081 520.126 676.101 494.29C668.618 489.355 661.156 484.387 653.549 479.58C645.916 474.831 638.25 469.951 629.59 466.6C579.207 448.828 518.358 444.556 469.755 459.841C464.661 461.435 459.515 463.478 454.697 465.552C452.175 466.738 448.635 468.408 446.062 469.533C430.718 476.65 411.743 477.294 394.241 472.321C358.652 462.454 330.217 439.192 298.317 422.525C290.204 418.347 281.587 414.583 272.583 412.473C257.132 408.739 241.883 403.916 228.002 396.463C214.144 389.092 201.669 379.624 189.928 369.852C173.378 355.909 157.161 340.221 142.143 325.091C129.978 312.956 117.92 299.876 105.719 287.75C93.1676 275.502 78.8094 264.585 63.3072 255.251C32.325 236.543 -4.18142 225.4 -40.5298 222.816C-54.1429 221.833 -67.7688 221.907 -81.0992 223.269C-85.5415 223.732 -89.955 224.298 -94.2878 225.151L-94.1918 225.422L-94.1604 225.431L-94.158 225.422Z" fill="#FDDBCD"/>
<path d="M-93.2949 214.697C-43.249 206.953 12.3543 216.994 57.2775 242.595C68.9689 249.196 80.0731 256.898 90.1389 265.285C98.6591 272.18 106.522 279.892 113.922 287.612C131.722 306.371 150.136 325.36 169.139 343.241C191.567 363.91 215.904 385.177 246.467 396.135C257.219 400.198 268.451 402.678 279.454 405.721C285.916 407.793 292.054 410.571 298.07 413.592C345.328 438.032 399.637 485.808 453.343 457.059C503.063 433.367 574.893 437.028 630 456.936C638.393 460.234 646 465.126 653.558 469.902C661.101 474.74 668.52 479.743 675.97 484.717C705.8 504.534 736.149 524.68 770.764 537.301C798.517 547.289 824.953 549.769 850.005 537.143C887.844 518.34 917.772 490.583 953.618 469.526C994.298 444.698 1042.92 426.865 1095.95 443.854C1106.6 447.209 1117.85 450.902 1128.26 454.884C1149.46 462.795 1170.14 472.58 1187.41 486.336C1194.4 491.801 1201.12 497.648 1208.72 502.549C1220.15 509.998 1233.3 514.986 1246.54 518.941C1248.76 519.572 1250.95 520.236 1253.18 520.832L1259.84 522.579C1283.77 528.83 1305.52 523.41 1322.16 509.259C1341.02 493.649 1352.72 472.919 1368.59 455.269C1378.88 443.802 1393.07 432.263 1412.01 434.237L1412.01 433.964C1392.87 431.756 1378.31 443.263 1367.77 454.701C1351.58 472.168 1339.73 492.653 1320.82 508.049C1301.48 523.755 1280.37 526.964 1253.74 518.809C1238.55 514.568 1223.28 509.285 1210.24 500.727C1199.02 493.343 1189.62 484.028 1178.37 476.618C1155.82 461.513 1129.5 451.83 1103.37 443.327C1027.02 415.742 962.935 456.786 910.467 494.723C886.438 511.167 855.165 537.609 824.277 542.679C774.214 548.849 716.944 509.401 676.964 483.565C669.482 478.63 662.019 473.663 654.413 468.855C646.779 464.106 639.113 459.226 630.453 455.875C580.07 438.103 519.221 433.831 470.618 449.117C465.524 450.71 460.378 452.753 455.56 454.827C453.038 456.013 449.498 457.683 446.925 458.808C431.581 465.926 412.607 466.57 395.104 461.596C359.515 451.729 331.08 428.467 299.18 411.8C291.067 407.623 282.45 403.858 273.446 401.748C257.995 398.014 242.746 393.191 228.865 385.738C215.008 378.367 202.532 368.899 190.791 359.128C174.241 345.184 158.024 329.496 143.007 314.366C130.841 302.231 118.783 289.151 106.582 277.025C94.0307 264.777 79.6725 253.86 64.1703 244.527C33.1881 225.818 -3.31832 214.675 -39.6667 212.091C-53.2798 211.109 -66.9057 211.182 -80.2361 212.544C-84.6784 213.008 -89.0919 213.574 -93.4247 214.426L-93.3287 214.698L-93.2973 214.706L-93.2949 214.697Z" fill="#FDDBCD"/>
<path d="M-92.4316 203.972C-42.3858 196.229 13.2176 206.269 58.1408 231.87C69.8321 238.472 80.9364 246.173 91.0022 254.56C99.5224 261.456 107.385 269.168 114.785 276.888C132.586 295.646 151 314.636 170.003 332.516C192.431 353.186 216.767 374.452 247.33 385.41C258.082 389.473 269.315 391.953 280.318 394.996C286.779 397.068 292.917 399.847 298.933 402.867C346.191 427.307 400.5 475.083 454.206 446.334C503.926 422.643 575.756 426.303 630.863 446.211C639.257 449.509 646.863 454.402 654.422 459.178C661.964 464.015 669.383 469.018 676.831 474.001C706.661 493.818 737.01 513.964 771.625 526.585C799.378 536.573 825.813 539.054 850.866 526.427C888.705 507.624 918.633 479.868 954.479 458.81C995.159 433.982 1043.78 416.149 1096.81 433.138C1107.46 436.493 1118.71 440.186 1129.12 444.168C1150.32 452.079 1171 461.864 1188.27 475.62C1195.26 481.086 1201.98 486.932 1209.58 491.833C1221.01 499.282 1234.16 504.27 1247.4 508.225C1249.62 508.856 1251.81 509.52 1254.04 510.116L1260.7 511.863C1284.63 518.114 1306.38 512.694 1323.02 498.543C1341.88 482.933 1353.59 462.204 1369.45 444.553C1379.74 433.086 1393.93 421.548 1412.87 423.521L1412.87 423.249C1393.73 421.04 1379.18 432.547 1368.63 443.985C1352.44 461.452 1340.6 481.937 1321.68 497.333C1302.34 513.039 1281.23 516.248 1254.6 508.093C1239.41 503.852 1224.14 498.569 1211.11 490.011C1199.88 482.627 1190.48 473.312 1179.23 465.903C1156.68 450.797 1130.36 441.115 1104.23 432.611C1027.88 405.027 963.796 446.07 911.328 484.007C887.299 500.452 856.026 526.893 825.138 531.963C775.075 538.134 717.805 498.685 677.825 472.849C670.342 467.914 662.88 462.947 655.273 458.139C647.64 453.391 639.974 448.51 631.314 445.16C580.931 427.387 520.082 423.115 471.479 438.401C466.385 439.994 461.239 442.037 456.421 444.111C453.899 445.298 450.359 446.967 447.786 448.093C432.442 455.21 413.467 455.854 395.965 450.88C360.376 441.014 331.941 417.751 300.041 401.084C291.928 396.907 283.311 393.142 274.307 391.032C258.856 387.298 243.607 382.475 229.726 375.022C215.868 367.651 203.393 358.184 191.652 348.412C175.102 334.468 158.885 318.781 143.867 303.651C131.702 291.515 119.644 278.435 107.443 266.31C94.8916 254.062 80.5334 243.144 65.0312 233.811C34.049 215.102 -2.4574 203.959 -38.8058 201.375C-52.4188 200.393 -66.0448 200.466 -79.3752 201.828C-83.8175 202.292 -88.231 202.858 -92.5638 203.71L-92.4678 203.982L-92.4364 203.99L-92.4316 203.972Z" fill="#FDDBCD"/>
<path d="M-91.5711 193.247C-41.5252 185.504 14.0781 195.544 59.0014 221.145C70.6927 227.746 81.7969 235.448 91.8628 243.835C100.383 250.731 108.246 258.443 115.645 266.163C133.446 284.921 151.86 303.911 170.863 321.791C193.291 342.461 217.628 363.727 248.19 374.685C258.943 378.748 270.175 381.228 281.178 384.271C287.64 386.343 293.777 389.122 299.794 392.142C347.052 416.582 401.36 464.358 455.067 435.609C504.786 411.918 576.617 415.578 631.724 435.486C640.117 438.784 647.723 443.677 655.282 448.453C662.825 453.29 670.244 458.293 677.691 463.276C707.521 483.093 737.871 503.239 772.486 515.86C800.238 525.848 826.674 528.329 851.726 515.702C889.566 496.899 919.493 469.143 955.339 448.085C996.019 423.257 1044.64 405.424 1097.67 422.413C1108.32 425.768 1119.57 429.461 1129.98 433.443C1151.19 441.354 1171.86 451.139 1189.13 464.895C1196.12 470.361 1202.84 476.207 1210.44 481.108C1221.87 488.557 1235.02 493.545 1248.26 497.5C1250.48 498.131 1252.67 498.795 1254.9 499.391L1261.56 501.138C1285.49 507.389 1307.24 501.969 1323.88 487.818C1342.74 472.208 1354.45 451.479 1370.31 433.828C1380.6 422.361 1394.79 410.823 1413.73 412.796L1413.73 412.524C1394.59 410.315 1380.04 421.822 1369.49 433.26C1353.3 450.727 1341.46 471.212 1322.54 486.608C1303.2 502.314 1282.09 505.523 1255.46 497.368C1240.27 493.127 1225 487.844 1211.97 479.286C1200.74 471.902 1191.34 462.587 1180.09 455.178C1157.55 440.072 1131.22 430.39 1105.09 421.886C1028.74 394.302 964.657 435.345 912.188 473.282C888.159 489.727 856.884 516.177 825.999 521.238C775.934 527.417 718.665 487.96 678.685 462.124C671.203 457.189 663.741 452.222 656.134 447.414C648.5 442.666 640.835 437.785 632.174 434.435C581.791 416.662 520.942 412.39 472.339 427.676C467.246 429.269 462.099 431.312 457.282 433.386C454.76 434.573 451.22 436.242 448.647 437.368C433.302 444.485 414.328 445.129 396.825 440.155C361.236 430.289 332.801 407.026 300.901 390.359C292.788 386.182 284.171 382.417 275.167 380.307C259.716 376.573 244.468 371.75 230.587 364.297C216.729 356.926 204.254 347.459 192.512 337.687C175.963 323.743 159.745 308.056 144.728 292.926C132.563 280.79 120.505 267.71 108.303 255.585C95.7521 243.337 81.394 232.419 65.8917 223.086C34.9096 204.377 -1.59687 193.234 -37.9452 190.65C-51.5583 189.668 -65.1842 189.741 -78.5146 191.103C-82.957 191.567 -87.3704 192.133 -91.7032 192.985L-91.6073 193.257L-91.5758 193.265L-91.5711 193.247Z" fill="#FDDBCD"/>
<path d="M-90.7106 182.523C-40.6648 174.779 14.9386 184.82 59.8618 210.421C71.5532 217.022 82.6574 224.724 92.7232 233.111C101.243 240.006 109.106 247.718 116.506 255.438C134.307 274.197 152.721 293.186 171.724 311.067C194.152 331.736 218.488 353.002 249.051 363.961C259.803 368.024 271.036 370.504 282.039 373.547C288.5 375.619 294.638 378.397 300.654 381.418C347.912 405.858 402.221 453.634 455.927 424.885C505.647 401.193 577.477 404.854 632.584 424.762C640.978 428.06 648.584 432.952 656.143 437.728C663.685 442.566 671.104 447.569 678.552 452.551C708.382 472.369 738.731 492.515 773.346 505.136C801.099 515.124 827.534 517.604 852.587 504.978C890.426 486.175 920.354 458.418 956.2 437.361C996.88 412.532 1045.5 394.7 1098.54 411.689C1109.18 415.043 1120.43 418.737 1130.84 422.718C1152.05 430.63 1172.72 440.415 1189.99 454.171C1196.98 459.636 1203.7 465.483 1211.3 470.384C1222.73 477.833 1235.88 482.82 1249.13 486.776C1251.34 487.407 1253.53 488.07 1255.76 488.666L1262.42 490.413C1286.35 496.665 1308.1 491.245 1324.74 477.093C1343.6 461.484 1355.31 440.754 1371.17 423.104C1381.46 411.637 1395.65 400.098 1414.59 402.072L1414.59 401.799C1395.45 399.591 1380.9 411.098 1370.35 422.536C1354.16 440.002 1342.32 460.488 1323.4 475.884C1304.06 491.59 1282.95 494.799 1256.32 486.644C1241.13 482.403 1225.86 477.12 1212.83 468.561C1201.6 461.178 1192.2 451.863 1180.95 444.453C1158.41 429.347 1132.08 419.665 1105.95 411.162C1029.6 383.577 965.517 424.621 913.049 462.557C889.02 479.002 857.744 505.453 826.859 510.514C776.794 516.693 719.526 477.236 679.546 451.4C672.063 446.465 664.601 441.498 656.994 436.69C649.361 431.941 641.695 427.061 633.035 423.71C582.652 405.938 521.803 401.666 473.2 416.952C468.106 418.545 462.96 420.588 458.142 422.662C455.62 423.848 452.08 425.518 449.507 426.643C434.163 433.761 415.189 434.404 397.686 429.431C362.097 419.564 333.662 396.302 301.762 379.635C293.649 375.457 285.032 371.693 276.028 369.583C260.577 365.849 245.328 361.026 231.447 353.573C217.589 346.202 205.114 336.734 193.373 326.962C176.823 313.019 160.606 297.331 145.588 282.201C133.423 270.066 121.365 256.986 109.164 244.86C96.6126 232.612 82.2544 221.695 66.7522 212.361C35.7701 193.653 -0.736396 182.51 -37.0847 179.926C-50.6978 178.944 -64.3238 179.017 -77.6542 180.379C-82.0965 180.843 -86.51 181.409 -90.8428 182.261L-90.7468 182.532L-90.7153 182.541L-90.7106 182.523Z" fill="#FDDBCD"/>
<path d="M-89.8497 171.807C-39.8038 164.063 15.7996 174.104 60.7228 199.704C72.4141 206.306 83.5183 214.007 93.5842 222.395C102.104 229.29 109.967 237.002 117.367 244.722C135.168 263.481 153.582 282.47 172.585 300.351C195.012 321.02 219.349 342.286 249.912 353.245C260.664 357.308 271.897 359.788 282.9 362.831C289.361 364.902 295.499 367.681 301.515 370.702C348.773 395.142 403.082 442.917 456.788 414.169C506.508 390.477 578.338 394.138 633.445 414.045C641.839 417.344 649.445 422.236 657.004 427.012C664.546 431.85 671.965 436.853 679.412 441.835C709.243 461.653 739.592 481.798 774.207 494.419C801.96 504.408 828.395 506.888 853.448 494.262C891.287 475.459 921.215 447.702 957.061 426.645C997.741 401.816 1046.36 383.984 1099.4 400.973C1110.05 404.327 1121.29 408.021 1131.7 412.002C1152.91 419.914 1173.58 429.699 1190.85 443.455C1197.84 448.92 1204.56 454.766 1212.16 459.668C1223.6 467.116 1236.74 472.104 1249.99 476.059C1252.2 476.691 1254.4 477.354 1256.62 477.95L1263.28 479.697C1287.21 485.949 1308.96 480.528 1325.6 466.377C1344.46 450.768 1356.17 430.038 1372.03 412.388C1382.32 400.92 1396.51 389.382 1415.45 391.356L1415.45 391.083C1396.31 388.874 1381.76 400.382 1371.21 411.82C1355.02 429.286 1343.18 449.771 1324.26 465.168C1304.92 480.873 1283.81 484.082 1257.18 475.928C1241.99 471.687 1226.72 466.404 1213.69 457.845C1202.46 450.462 1193.06 441.147 1181.81 433.737C1159.27 418.631 1132.94 408.949 1106.81 400.446C1030.46 372.861 966.378 413.905 913.91 451.841C889.881 468.286 858.608 494.728 827.72 499.798C777.657 505.968 720.387 466.52 680.407 440.684C672.924 435.749 665.462 430.781 657.855 425.974C650.222 421.225 642.556 416.345 633.896 412.994C583.513 395.222 522.664 390.95 474.061 406.235C468.967 407.829 463.821 409.872 459.003 411.946C456.481 413.132 452.941 414.802 450.368 415.927C435.024 423.044 416.049 423.688 398.547 418.715C362.958 408.848 334.523 385.586 302.623 368.919C294.51 364.741 285.893 360.977 276.889 358.867C261.438 355.133 246.189 350.31 232.308 342.857C218.45 335.486 205.975 326.018 194.234 316.246C177.684 302.303 161.467 286.615 146.449 271.485C134.284 259.35 122.226 246.27 110.025 234.144C97.4736 221.896 83.1154 210.979 67.6132 201.645C36.631 182.937 0.124566 171.794 -36.2238 169.21C-49.8369 168.227 -63.4628 168.301 -76.7932 169.663C-81.2355 170.126 -85.649 170.692 -89.9818 171.545L-89.8859 171.816L-89.8544 171.825L-89.8497 171.807Z" fill="#FDDBCD"/>
</g>
<defs>
<clipPath id="clip0_39_4606">
<rect width="1511.02" height="566.641" fill="white" transform="matrix(0.965926 0.258819 0.258819 -0.965926 -190.641 547.334)"/>
</clipPath>
</defs>
</svg>
