<svg width="390" height="378" viewBox="0 0 390 378" fill="none" xmlns="http://www.w3.org/2000/svg">
<mask id="mask0_250_9294" style="mask-type:alpha" maskUnits="userSpaceOnUse" x="0" y="0" width="390" height="378">
<rect y="0.564453" width="390" height="376.762" fill="#D9D9D9"/>
</mask>
<g mask="url(#mask0_250_9294)">
<path d="M-258.897 115.607C-219.698 109.539 -176.147 117.406 -140.961 137.467C-131.804 142.64 -123.106 148.674 -115.222 155.246C-108.549 160.649 -102.39 166.692 -96.5947 172.742C-82.6522 187.441 -68.2297 202.32 -53.3455 216.331C-35.779 232.527 -16.7171 249.191 7.22073 257.778C15.6425 260.961 24.4403 262.905 33.0585 265.289C38.1196 266.913 42.9267 269.09 47.6389 271.457C84.6539 290.607 127.191 328.043 169.256 305.517C208.199 286.952 264.46 289.821 307.622 305.42C314.196 308.004 320.154 311.838 326.074 315.58C331.982 319.371 337.793 323.292 343.626 327.196C366.991 342.724 390.762 358.51 417.874 368.4C439.611 376.226 460.316 378.17 479.939 368.276C509.576 353.542 533.017 331.793 561.093 315.292C592.956 295.837 631.039 281.864 672.577 295.176C680.918 297.805 689.726 300.699 697.883 303.819C714.489 310.018 730.685 317.685 744.206 328.465C749.683 332.747 754.947 337.328 760.903 341.169C769.856 347.005 780.153 350.914 790.526 354.013C792.261 354.507 793.98 355.028 795.722 355.495L800.94 356.863C819.682 361.762 836.718 357.515 849.755 346.426C864.524 334.195 873.693 317.952 886.116 304.121C894.178 295.135 905.292 286.094 920.124 287.641L920.128 287.427C905.135 285.697 893.736 294.713 885.478 303.676C872.794 317.362 863.518 333.414 848.705 345.478C833.554 357.785 817.018 360.3 796.164 353.91C784.266 350.587 772.304 346.447 762.096 339.741C753.305 333.955 745.942 326.656 737.13 320.85C719.47 309.013 698.849 301.427 678.386 294.764C618.585 273.149 568.391 305.31 527.295 335.036C508.475 347.922 483.978 368.648 459.788 372.614C420.574 377.456 375.719 346.538 344.405 326.293C338.544 322.426 332.699 318.534 326.742 314.767C320.763 311.046 314.758 307.222 307.975 304.596C268.513 290.67 220.853 287.323 182.785 299.3C178.795 300.549 174.764 302.149 170.991 303.775C169.016 304.704 166.243 306.013 164.228 306.894C152.209 312.471 137.348 312.976 123.639 309.079C95.7638 301.347 73.4921 283.12 48.5063 270.06C42.1521 266.786 35.4028 263.836 28.3505 262.183C16.2486 259.257 4.3049 255.478 -6.56723 249.638C-17.4213 243.862 -27.1924 236.444 -36.3888 228.786C-49.3514 217.861 -62.0536 205.568 -73.8158 193.713C-83.3442 184.204 -92.7888 173.954 -102.346 164.453C-112.176 154.856 -123.422 146.301 -135.564 138.987C-159.831 124.328 -188.424 115.597 -216.894 113.572C-227.557 112.802 -238.229 112.859 -248.67 113.926C-252.15 114.29 -255.606 114.733 -259 115.401L-258.925 115.614L-258.9 115.621L-258.897 115.607Z" fill="#FDDBCD"/>
<path d="M-258.223 106.426C-219.024 100.358 -175.473 108.226 -140.287 128.286C-131.13 133.459 -122.433 139.493 -114.548 146.065C-107.875 151.469 -101.717 157.512 -95.9208 163.561C-81.9783 178.26 -67.5557 193.139 -52.6715 207.15C-35.105 223.346 -16.0432 240.01 7.89465 248.597C16.3164 251.78 25.1143 253.724 33.7324 256.108C38.7935 257.732 43.6006 259.909 48.3129 262.276C85.3279 281.427 127.865 318.863 169.93 296.336C208.873 277.772 265.134 280.64 308.296 296.239C314.87 298.824 320.828 302.657 326.748 306.4C332.656 310.19 338.467 314.111 344.3 318.015C367.664 333.543 391.436 349.329 418.548 359.219C440.285 367.045 460.99 368.989 480.612 359.095C510.25 344.362 533.691 322.612 561.767 306.112C593.63 286.657 631.713 272.683 673.251 285.996C681.592 288.624 690.4 291.518 698.557 294.638C715.163 300.838 731.359 308.505 744.88 319.284C750.357 323.566 755.621 328.147 761.577 331.988C770.53 337.824 780.827 341.733 791.2 344.832C792.935 345.327 794.654 345.847 796.396 346.314L801.614 347.683C820.356 352.581 837.391 348.334 850.428 337.245C865.198 325.014 874.367 308.771 886.79 294.94C894.852 285.955 905.966 276.913 920.798 278.46L920.802 278.246C905.808 276.516 894.41 285.533 886.152 294.495C873.468 308.182 864.192 324.233 849.379 336.297C834.228 348.604 817.692 351.119 796.838 344.729C784.94 341.406 772.978 337.266 762.769 330.56C753.979 324.774 746.615 317.475 737.804 311.669C720.144 299.832 699.523 292.246 679.06 285.583C619.259 263.968 569.065 296.129 527.969 325.855C509.149 338.741 484.652 359.467 460.462 363.433C421.248 368.275 376.393 337.357 345.079 317.113C339.218 313.246 333.373 309.353 327.415 305.586C321.436 301.865 315.432 298.041 308.649 295.415C269.187 281.489 221.527 278.142 183.459 290.119C179.469 291.368 175.438 292.969 171.665 294.594C169.69 295.523 166.917 296.832 164.902 297.714C152.883 303.291 138.022 303.795 124.313 299.898C96.4377 292.167 74.166 273.939 49.1803 260.879C42.826 257.605 36.0768 254.656 29.0244 253.002C16.9225 250.076 4.97882 246.297 -5.89331 240.457C-16.7474 234.681 -26.5185 227.263 -35.7149 219.606C-48.6775 208.68 -61.3796 196.387 -73.1419 184.532C-82.6703 175.023 -92.1148 164.774 -101.672 155.272C-111.502 145.675 -122.748 137.12 -134.89 129.807C-159.157 115.147 -187.751 106.416 -216.22 104.391C-226.883 103.621 -237.555 103.678 -247.996 104.746C-251.476 105.109 -254.932 105.553 -258.326 106.22L-258.251 106.433L-258.226 106.44L-258.223 106.426Z" fill="#FDDBCD"/>
<path d="M-257.548 98.8059C-218.35 92.738 -174.799 100.606 -139.613 120.666C-130.456 125.839 -121.758 131.873 -113.874 138.445C-107.201 143.849 -101.042 149.892 -95.2464 155.941C-81.3039 170.64 -66.8814 185.519 -51.9971 199.53C-34.4307 215.726 -15.3688 232.39 8.569 240.977C16.9908 244.16 25.7886 246.104 34.4068 248.488C39.4679 250.112 44.2749 252.289 48.9872 254.656C86.0022 273.806 128.539 311.243 170.604 288.716C209.547 270.151 265.808 273.02 308.971 288.619C315.545 291.204 321.502 295.037 327.423 298.78C333.33 302.57 339.141 306.491 344.974 310.395C368.339 325.923 392.11 341.709 419.222 351.599C440.959 359.425 461.665 361.369 481.287 351.475C510.925 336.742 534.365 314.992 562.442 298.492C594.304 279.037 632.387 265.063 673.925 278.376C682.267 281.004 691.074 283.898 699.231 287.018C715.837 293.218 732.033 300.885 745.555 311.664C751.031 315.946 756.295 320.527 762.251 324.368C771.204 330.204 781.501 334.113 791.875 337.212C793.609 337.707 795.328 338.227 797.071 338.694L802.288 340.063C821.031 344.961 838.066 340.714 851.103 329.625C865.873 317.394 875.041 301.151 887.465 287.32C895.526 278.335 906.641 269.293 921.472 270.84L921.477 270.626C906.483 268.896 895.084 277.913 886.827 286.875C874.142 300.562 864.866 316.613 850.053 328.677C834.902 340.984 818.366 343.499 797.513 337.109C785.614 333.786 773.652 329.646 763.444 322.94C754.653 317.154 747.29 309.855 738.478 304.049C720.819 292.212 700.198 284.626 679.734 277.963C619.934 256.348 569.739 288.509 528.643 318.235C509.823 331.121 485.327 351.847 461.136 355.813C421.922 360.655 377.067 329.737 345.753 309.493C339.893 305.626 334.048 301.733 328.09 297.966C322.111 294.245 316.107 290.421 309.323 287.795C269.861 273.869 222.201 270.522 184.133 282.499C180.143 283.748 176.113 285.349 172.339 286.974C170.364 287.903 167.591 289.212 165.576 290.094C153.557 295.671 138.696 296.175 124.987 292.278C97.1121 284.547 74.8404 266.319 49.8546 253.259C43.5004 249.985 36.7511 247.036 29.6988 245.382C17.5969 242.456 5.6532 238.677 -5.21895 232.837C-16.073 227.061 -25.8441 219.643 -35.0405 211.986C-48.0031 201.06 -60.7053 188.767 -72.4676 176.912C-81.9959 167.403 -91.4405 157.154 -100.997 147.652C-110.828 138.055 -122.074 129.5 -134.216 122.187C-158.483 107.527 -187.076 98.7957 -215.546 96.7707C-226.208 96.0011 -236.881 96.0583 -247.322 97.1256C-250.801 97.489 -254.258 97.9326 -257.652 98.6004L-257.577 98.8131L-257.552 98.8197L-257.548 98.8059Z" fill="#FDDBCD"/>
<path d="M-256.874 90.402C-217.676 84.334 -174.125 92.2016 -138.939 112.262C-129.782 117.435 -121.084 123.469 -113.2 130.041C-106.527 135.445 -100.368 141.488 -94.5725 147.537C-80.6301 162.236 -66.2075 177.115 -51.3233 191.126C-33.7568 207.322 -14.6949 223.986 9.24289 232.573C17.6646 235.757 26.4625 237.7 35.0806 240.084C40.1418 241.708 44.9488 243.885 49.6611 246.252C86.6761 265.403 129.213 302.839 171.278 280.312C210.221 261.748 266.482 264.616 309.645 280.215C316.219 282.8 322.176 286.633 328.097 290.376C334.004 294.166 339.815 298.087 345.65 301.984C369.015 317.512 392.786 333.298 419.898 343.188C441.635 351.014 462.341 352.958 481.963 343.064C511.6 328.331 535.041 306.581 563.117 290.081C594.98 270.626 633.063 256.652 674.601 269.965C682.942 272.593 691.75 275.487 699.907 278.607C716.513 284.807 732.709 292.474 746.231 303.253C751.707 307.535 756.971 312.116 762.927 315.957C771.88 321.794 782.177 325.702 792.55 328.801C794.285 329.296 796.004 329.816 797.746 330.283L802.964 331.652C821.706 336.55 838.742 332.303 851.779 321.214C866.548 308.983 875.717 292.74 888.14 278.909C896.202 269.924 907.316 260.883 922.148 262.429L922.152 262.215C907.159 260.485 895.76 269.502 887.502 278.464C874.818 292.151 865.542 308.203 850.729 320.267C835.578 332.573 819.042 335.088 798.188 328.698C786.29 325.375 774.328 321.235 764.12 314.529C755.329 308.743 747.966 301.444 739.154 295.638C721.494 283.802 700.874 276.215 680.41 269.552C620.609 247.937 570.415 280.098 529.319 309.824C510.499 322.71 486.004 343.429 461.812 347.402C422.6 352.237 377.743 321.326 346.429 301.082C340.568 297.215 334.723 293.322 328.766 289.555C322.787 285.834 316.782 282.01 309.999 279.384C270.537 265.458 222.877 262.111 184.809 274.088C180.819 275.337 176.788 276.938 173.015 278.563C171.04 279.493 168.267 280.801 166.252 281.683C154.233 287.26 139.372 287.764 125.663 283.867C97.7878 276.136 75.5161 257.908 50.5304 244.848C44.1761 241.575 37.4268 238.625 30.3745 236.971C18.2726 234.046 6.32892 230.266 -4.54321 224.426C-15.3973 218.65 -25.1684 211.232 -34.3648 203.575C-47.3274 192.649 -60.0295 180.356 -71.7918 168.501C-81.3202 158.992 -90.7648 148.743 -100.321 139.241C-110.152 129.644 -121.398 121.089 -133.54 113.776C-157.807 99.1163 -186.4 90.3848 -214.87 88.3598C-225.533 87.5902 -236.205 87.6474 -246.646 88.7148C-250.125 89.0782 -253.582 89.5217 -256.976 90.1896L-256.901 90.4023L-256.876 90.4089L-256.874 90.402Z" fill="#FDDBCD"/>
<path d="M-256.198 81.9984C-217 75.9304 -173.449 83.798 -138.263 103.858C-129.106 109.031 -120.408 115.066 -112.524 121.638C-105.851 127.041 -99.6923 133.084 -93.8966 139.133C-79.9541 153.832 -65.5316 168.712 -50.6473 182.723C-33.0809 198.919 -14.019 215.583 9.91885 224.17C18.3406 227.353 27.1384 229.297 35.7566 231.681C40.8177 233.304 45.6248 235.481 50.3371 237.848C87.352 256.999 129.889 294.435 171.954 271.908C210.897 253.344 267.158 256.212 310.32 271.812C316.895 274.396 322.852 278.23 328.773 281.972C334.68 285.763 340.491 289.683 346.326 293.58C369.691 309.109 393.462 324.895 420.574 334.784C442.311 342.611 463.016 344.554 482.638 334.661C512.276 319.927 535.717 298.177 563.793 281.677C595.656 262.222 633.739 248.249 675.277 261.561C683.618 264.19 692.426 267.084 700.583 270.204C717.189 276.403 733.385 284.07 746.907 294.849C752.383 299.132 757.647 303.713 763.603 307.553C772.556 313.39 782.853 317.298 793.226 320.398C794.961 320.892 796.68 321.412 798.422 321.879L803.64 323.248C822.382 328.147 839.417 323.899 852.454 312.811C867.224 300.58 876.393 284.336 888.816 270.506C896.878 261.52 907.992 252.479 922.824 254.025L922.828 253.812C907.835 252.081 896.436 261.098 888.178 270.061C875.494 283.747 866.218 299.799 851.405 311.863C836.254 324.17 819.718 326.684 798.864 320.294C786.966 316.971 775.004 312.832 764.796 306.125C756.005 300.34 748.642 293.041 739.83 287.235C722.17 275.398 701.549 267.811 681.086 261.148C621.285 239.533 571.091 271.694 529.995 301.421C511.175 314.307 486.68 335.026 462.488 338.998C423.276 343.833 378.419 312.923 347.105 292.678C341.244 288.811 335.399 284.919 329.441 281.151C323.463 277.431 317.458 273.606 310.675 270.981C271.213 257.055 223.553 253.707 185.485 265.685C181.495 266.934 177.464 268.534 173.691 270.159C171.716 271.089 168.943 272.397 166.928 273.279C154.909 278.856 140.048 279.361 126.339 275.464C98.4637 267.732 76.1921 249.504 51.2063 236.444C44.8521 233.171 38.1028 230.221 31.0504 228.568C18.9485 225.642 7.00488 221.863 -3.86726 216.023C-14.7213 210.247 -24.4924 202.828 -33.6889 195.171C-46.6514 184.245 -59.3536 171.953 -71.1159 160.097C-80.6442 150.588 -90.0888 140.339 -99.6455 130.838C-109.476 121.24 -120.722 112.686 -132.864 105.372C-157.131 90.7126 -185.724 81.9812 -214.194 79.9562C-224.857 79.1866 -235.529 79.2439 -245.97 80.3112C-249.45 80.6746 -252.906 81.1181 -256.3 81.786L-256.225 81.9987L-256.2 82.0053L-256.198 81.9984Z" fill="#FDDBCD"/>
<path d="M-255.522 73.5949C-216.324 67.527 -172.773 75.3945 -137.587 95.4548C-128.43 100.628 -119.732 106.662 -111.848 113.234C-105.175 118.638 -99.0162 124.681 -93.2204 130.73C-79.278 145.429 -64.8554 160.308 -49.9712 174.319C-32.4047 190.515 -13.3429 207.179 10.595 215.766C19.0168 218.949 27.8146 220.893 36.4327 223.277C41.4939 224.901 46.3009 227.078 51.0132 229.445C88.0282 248.595 130.565 286.032 172.63 263.505C211.573 244.94 267.834 247.809 310.997 263.408C317.571 265.993 323.528 269.826 329.449 273.569C335.356 277.359 341.167 281.28 347 285.184C370.365 300.712 394.136 316.498 421.248 326.388C442.985 334.214 463.691 336.158 483.313 326.264C512.951 311.531 536.391 289.781 564.468 273.281C596.33 253.826 634.413 239.852 675.951 253.165C684.293 255.793 693.1 258.687 701.257 261.807C717.864 268.007 734.059 275.674 747.581 286.453C753.057 290.735 758.321 295.316 764.277 299.157C773.23 304.993 783.527 308.902 793.901 312.001C795.635 312.496 797.354 313.016 799.096 313.483L804.314 314.852C823.057 319.75 840.092 315.503 853.129 304.414C867.899 292.183 877.067 275.94 889.491 262.109C897.552 253.124 908.667 244.082 923.498 245.629L923.503 245.415C908.509 243.685 897.11 252.702 888.852 261.664C876.168 275.351 866.892 291.402 852.079 303.466C836.928 315.773 820.392 318.288 799.539 311.898C787.64 308.575 775.678 304.435 765.47 297.729C756.679 291.943 749.316 284.644 740.504 278.838C722.845 267.001 702.224 259.415 681.76 252.752C621.96 231.137 571.765 263.298 530.669 293.024C511.849 305.91 487.355 326.629 463.162 330.602C423.95 335.437 379.093 304.526 347.779 284.282C341.919 280.415 336.074 276.522 330.116 272.755C324.137 269.034 318.133 265.21 311.349 262.584C271.887 248.658 224.227 245.311 186.159 257.288C182.169 258.537 178.139 260.138 174.365 261.763C172.39 262.692 169.617 264.001 167.602 264.883C155.583 270.46 140.722 270.964 127.013 267.067C99.138 259.336 76.8664 241.108 51.8806 228.048C45.5263 224.774 38.7771 221.825 31.7247 220.171C19.6228 217.245 7.67914 213.466 -3.19299 207.626C-14.0471 201.85 -23.8181 194.432 -33.0146 186.775C-45.9771 175.849 -58.6793 163.556 -70.4416 151.701C-79.97 142.192 -89.4145 131.943 -98.9713 122.441C-108.802 112.844 -120.048 104.289 -132.19 96.9756C-156.457 82.3161 -185.05 73.5847 -213.52 71.5597C-224.182 70.7901 -234.855 70.8473 -245.296 71.9146C-248.775 72.278 -252.232 72.7216 -255.626 73.3894L-255.551 73.6021L-255.526 73.6087L-255.522 73.5949Z" fill="#FDDBCD"/>
<path d="M-254.848 65.1978C-215.65 59.1299 -172.098 66.9974 -136.912 87.0577C-127.755 92.2306 -119.058 98.2652 -111.174 104.837C-104.5 110.241 -98.3419 116.283 -92.5461 122.333C-78.6037 137.032 -64.1811 151.911 -49.2969 165.922C-31.7304 182.118 -12.6685 198.782 11.2693 207.369C19.6911 210.552 28.4889 212.496 37.107 214.88C42.1682 216.504 46.9752 218.681 51.6875 221.048C88.7025 240.198 131.239 277.635 173.305 255.108C212.248 236.543 268.508 239.412 311.671 255.011C318.245 257.595 324.203 261.429 330.123 265.171C336.03 268.962 341.842 272.883 347.675 276.787C371.039 292.315 394.81 308.101 421.922 317.991C443.659 325.817 464.365 327.761 483.987 317.867C513.625 303.133 537.065 281.384 565.142 264.884C597.004 245.428 635.088 231.455 676.626 244.767C684.967 247.396 693.774 250.29 701.931 253.41C718.538 259.609 734.734 267.276 748.255 278.056C753.731 282.338 758.996 286.919 764.951 290.76C773.904 296.596 784.202 300.505 794.575 303.604C796.31 304.099 798.029 304.619 799.771 305.086L804.988 306.455C823.731 311.353 840.766 307.106 853.803 296.017C868.573 283.786 877.741 267.543 890.165 253.712C898.226 244.727 909.341 235.685 924.172 237.232L924.177 237.018C909.183 235.288 897.784 244.304 889.527 253.267C876.842 266.953 867.567 283.005 852.753 295.069C837.602 307.376 821.066 309.891 800.213 303.501C788.314 300.178 776.353 296.038 766.144 289.332C757.354 283.546 749.99 276.247 741.179 270.441C723.519 258.604 702.898 251.018 682.435 244.355C622.634 222.74 572.44 254.901 531.344 284.627C512.523 297.513 488.027 318.239 463.836 322.205C424.623 327.047 379.768 296.129 348.453 275.884C342.593 272.017 336.748 268.125 330.79 264.358C324.811 260.637 318.807 256.813 312.024 254.187C272.561 240.261 224.902 236.914 186.833 248.891C182.844 250.14 178.813 251.741 175.039 253.366C173.064 254.295 170.292 255.604 168.276 256.485C156.258 262.062 141.396 262.567 127.687 258.67C99.8123 250.938 77.5407 232.711 52.5549 219.651C46.2007 216.377 39.4514 213.427 32.399 211.774C20.2971 208.848 8.35349 205.069 -2.51868 199.229C-13.3727 193.453 -23.1439 186.035 -32.3403 178.377C-45.3028 167.452 -58.005 155.159 -69.7673 143.304C-79.2956 133.795 -88.7402 123.546 -98.2969 114.044C-108.128 104.447 -119.374 95.892 -131.516 88.5785C-155.782 73.919 -184.376 65.1876 -212.846 63.1626C-223.508 62.393 -234.181 62.4502 -244.621 63.5175C-248.101 63.8809 -251.558 64.3245 -254.951 64.9923L-254.876 65.205L-254.852 65.2117L-254.848 65.1978Z" fill="#FDDBCD"/>
<path d="M-254.174 56.7945C-214.976 50.7266 -171.425 58.5941 -136.239 78.6544C-127.081 83.8273 -118.384 89.8619 -110.5 96.434C-103.827 101.837 -97.6679 107.88 -91.8722 113.929C-77.9297 128.628 -63.5072 143.508 -48.623 157.519C-31.0565 173.715 -11.9946 190.379 11.9432 198.966C20.365 202.149 29.1628 204.093 37.781 206.477C42.8421 208.1 47.6492 210.278 52.3615 212.644C89.3764 231.795 131.913 269.231 173.979 246.704C212.921 228.14 269.182 231.008 312.345 246.608C318.919 249.192 324.876 253.026 330.797 256.768C336.704 260.559 342.515 264.479 348.349 268.383C371.713 283.912 395.484 299.698 422.596 309.587C444.333 317.414 465.039 319.357 484.661 309.464C514.299 294.73 537.739 272.98 565.816 256.48C597.678 237.025 635.762 223.052 677.3 236.364C685.641 238.993 694.448 241.887 702.605 245.007C719.212 251.206 735.408 258.873 748.929 269.652C754.405 273.935 759.669 278.516 765.625 282.357C774.578 288.193 784.876 292.101 795.249 295.201C796.983 295.695 798.703 296.215 800.445 296.682L805.662 298.051C824.405 302.95 841.44 298.702 854.477 287.614C869.247 275.383 878.415 259.139 890.839 245.309C898.9 236.323 910.015 227.282 924.846 228.829L924.851 228.615C909.857 226.884 898.458 235.901 890.201 244.864C877.516 258.55 868.241 274.602 853.427 286.666C838.276 298.973 821.74 301.487 800.887 295.097C788.988 291.774 777.027 287.635 766.818 280.928C758.028 275.143 750.664 267.844 741.853 262.038C724.193 250.201 703.572 242.614 683.109 235.951C623.308 214.337 573.114 246.497 532.018 276.224C513.197 289.11 488.693 309.834 464.51 313.802C425.297 318.643 380.442 287.726 349.127 267.481C343.267 263.614 337.422 259.722 331.464 255.955C325.485 252.234 319.481 248.41 312.698 245.784C273.235 231.858 225.576 228.51 187.507 240.488C183.518 241.737 179.487 243.337 175.713 244.962C173.738 245.892 170.966 247.2 168.95 248.082C156.931 253.659 142.07 254.164 128.361 250.267C100.486 242.535 78.2146 224.307 53.2288 211.247C46.8746 207.974 40.1253 205.024 33.073 203.371C20.9711 200.445 9.02737 196.666 -1.84476 190.826C-12.6988 185.05 -22.4699 177.631 -31.6664 169.974C-44.6289 159.049 -57.3311 146.756 -69.0934 134.9C-78.6217 125.391 -88.0663 115.142 -97.623 105.641C-107.454 96.0434 -118.7 87.4887 -130.842 80.1752C-155.108 65.5157 -183.702 56.7843 -212.172 54.7593C-222.834 53.9897 -233.507 54.0469 -243.948 55.1142C-247.427 55.4777 -250.884 55.9212 -254.278 56.589L-254.202 56.8017L-254.178 56.8083L-254.174 56.7945Z" fill="#FDDBCD"/>
<path d="M-253.5 48.3906C-214.302 42.3227 -170.751 50.1902 -135.565 70.2505C-126.407 75.4234 -117.71 81.458 -109.826 88.0301C-103.153 93.4333 -96.9941 99.4762 -91.1983 105.526C-77.2559 120.224 -62.8333 135.104 -47.9491 149.115C-30.3826 165.311 -11.3208 181.975 12.6171 190.562C21.0388 193.745 29.8367 195.689 38.4548 198.073C43.516 199.696 48.323 201.874 53.0353 204.24C90.0503 223.391 132.587 260.827 174.652 238.301C213.595 219.736 269.856 222.604 313.019 238.204C319.593 240.788 325.55 244.622 331.471 248.364C337.378 252.155 343.189 256.075 349.024 259.973C372.389 275.501 396.16 291.287 423.272 301.176C445.009 309.003 465.715 310.947 485.337 301.053C514.975 286.319 538.415 264.57 566.492 248.069C598.354 228.614 636.437 214.641 677.975 227.953C686.317 230.582 695.124 233.476 703.281 236.596C719.887 242.795 736.083 250.462 749.605 261.242C755.081 265.524 760.345 270.105 766.301 273.946C775.254 279.782 785.551 283.691 795.925 286.79C797.659 287.284 799.378 287.804 801.12 288.271L806.338 289.64C825.081 294.539 842.116 290.292 855.153 279.203C869.922 266.972 879.091 250.728 891.515 236.898C899.576 227.912 910.69 218.871 925.522 220.418L925.526 220.204C910.533 218.473 899.134 227.49 890.876 236.453C878.192 250.139 868.916 266.191 854.103 278.255C838.952 290.562 822.416 293.076 801.562 286.687C789.664 283.364 777.702 279.224 767.494 272.518C758.703 266.732 751.34 259.433 742.528 253.627C724.869 241.79 704.248 234.204 683.784 227.54C623.984 205.926 573.789 238.087 532.693 267.813C513.873 280.699 489.379 301.418 465.186 305.391C425.974 310.226 381.117 279.315 349.803 259.07C343.943 255.203 338.098 251.311 332.14 247.544C326.161 243.823 320.156 239.999 313.373 237.373C273.911 223.447 226.251 220.1 188.183 232.077C184.193 233.326 180.162 234.926 176.389 236.552C174.414 237.481 171.641 238.79 169.626 239.671C157.607 245.248 142.746 245.753 129.037 241.856C101.162 234.124 78.8903 215.897 53.9045 202.837C47.5503 199.563 40.8011 196.613 33.7487 194.96C21.6468 192.034 9.70312 188.255 -1.16901 182.415C-12.0231 176.639 -21.7942 169.22 -30.9906 161.563C-43.9532 150.638 -56.6553 138.345 -68.4176 126.489C-77.946 116.981 -87.3906 106.731 -96.9473 97.2298C-106.778 87.6326 -118.024 79.0779 -130.166 71.7644C-154.433 57.1049 -183.026 48.3735 -211.496 46.3485C-222.158 45.5789 -232.831 45.6361 -243.272 46.7034C-246.751 47.0668 -250.208 47.5104 -253.602 48.1782L-253.527 48.3909L-253.502 48.3975L-253.5 48.3906Z" fill="#FDDBCD"/>
<path d="M-252.824 39.987C-213.626 33.9191 -170.075 41.7866 -134.889 61.8469C-125.731 67.0197 -117.034 73.0544 -109.15 79.6265C-102.477 85.0297 -96.3181 91.0726 -90.5223 97.1219C-76.5799 111.821 -62.1573 126.7 -47.2731 140.711C-29.7066 156.907 -10.6448 173.571 13.2931 182.158C21.7148 185.342 30.5127 187.285 39.1308 189.669C44.192 191.293 48.999 193.47 53.7113 195.837C90.7263 214.988 133.263 252.424 175.328 229.897C214.271 211.333 270.532 214.201 313.695 229.8C320.269 232.385 326.226 236.218 332.147 239.961C338.054 243.751 343.865 247.672 349.7 251.569C373.065 267.097 396.836 282.883 423.948 292.773C445.685 300.599 466.391 302.543 486.013 292.649C515.651 277.916 539.091 256.166 567.168 239.666C599.03 220.211 637.113 206.237 678.651 219.55C686.993 222.178 695.8 225.073 703.957 228.192C720.563 234.392 736.759 242.059 750.281 252.838C755.757 257.12 761.021 261.701 766.977 265.542C775.93 271.379 786.227 275.287 796.6 278.386C798.335 278.881 800.054 279.401 801.796 279.868L807.014 281.237C825.757 286.135 842.792 281.888 855.829 270.8C870.599 258.568 879.767 242.325 892.191 228.495C900.252 219.509 911.366 210.468 926.198 212.014L926.203 211.8C911.209 210.07 899.81 219.087 891.552 228.049C878.868 241.736 869.592 257.788 854.779 269.852C839.628 282.158 823.092 284.673 802.239 278.283C790.34 274.96 778.378 270.82 768.17 264.114C759.379 258.328 752.016 251.029 743.204 245.223C725.545 233.387 704.924 225.8 684.46 219.137C624.66 197.522 574.465 229.683 533.369 259.409C514.549 272.295 490.055 293.014 465.862 296.987C426.65 301.822 381.793 270.911 350.479 250.667C344.619 246.8 338.773 242.907 332.816 239.14C326.837 235.419 320.833 231.595 314.049 228.969C274.587 215.043 226.927 211.696 188.859 223.673C184.869 224.922 180.838 226.523 177.065 228.148C175.09 229.078 172.317 230.386 170.302 231.268C158.283 236.845 143.422 237.349 129.713 233.452C101.838 225.721 79.5663 207.493 54.5805 194.433C48.2263 191.16 41.4771 188.21 34.4247 186.556C22.3228 183.631 10.3791 179.851 -0.493011 174.011C-11.3471 168.235 -21.1182 160.817 -30.3146 153.16C-43.2772 142.234 -55.9794 129.941 -67.7416 118.086C-77.27 108.577 -86.7146 98.3278 -96.2713 88.8262C-106.102 79.2289 -117.348 70.6743 -129.49 63.3607C-153.757 48.7013 -182.35 39.9699 -210.82 37.9448C-221.482 37.1752 -232.155 37.2325 -242.596 38.2998C-246.075 38.6632 -249.532 39.1067 -252.926 39.7746L-252.851 39.9873L-252.826 39.9939L-252.824 39.987Z" fill="#FDDBCD"/>
<path d="M-252.148 31.5833C-212.95 25.5154 -169.399 33.383 -134.213 53.4432C-125.055 58.6161 -116.358 64.6507 -108.474 71.2228C-101.801 76.626 -95.6421 82.6689 -89.8463 88.7182C-75.9039 103.417 -61.4813 118.297 -46.5971 132.308C-29.0306 148.504 -9.96877 165.168 13.9691 173.754C22.3908 176.938 31.1887 178.881 39.8068 181.266C44.868 182.889 49.675 185.066 54.3873 187.433C91.4023 206.584 133.939 244.02 176.004 221.493C214.947 202.929 271.208 205.797 314.371 221.397C320.945 223.981 326.902 227.815 332.823 231.557C338.73 235.348 344.541 239.268 350.376 243.165C373.741 258.694 397.512 274.48 424.624 284.369C446.361 292.196 467.067 294.139 486.689 284.246C516.327 269.512 539.767 247.762 567.844 231.262C599.706 211.807 637.789 197.834 679.327 211.146C687.669 213.775 696.476 216.669 704.633 219.789C721.239 225.988 737.435 233.655 750.957 244.434C756.433 248.717 761.697 253.298 767.653 257.138C776.606 262.975 786.903 266.883 797.276 269.982C799.011 270.477 800.73 270.997 802.472 271.464L807.69 272.833C826.432 277.732 843.468 273.484 856.505 262.396C871.275 250.165 880.443 233.921 892.867 220.091C900.928 211.105 912.042 202.064 926.874 203.61L926.878 203.397C911.885 201.666 900.486 210.683 892.228 219.646C879.544 233.332 870.268 249.384 855.455 261.448C840.304 273.755 823.768 276.269 802.915 269.879C791.016 266.556 779.054 262.417 768.846 255.71C760.055 249.925 752.692 242.626 743.88 236.82C726.221 224.983 705.6 217.396 685.136 210.733C625.336 189.118 575.141 221.279 534.045 251.006C515.225 263.892 490.73 284.611 466.538 288.583C427.326 293.418 382.469 262.508 351.155 242.263C345.294 238.396 339.45 234.504 333.492 230.736C327.513 227.015 321.508 223.191 314.725 220.566C275.263 206.64 227.603 203.292 189.535 215.27C185.545 216.519 181.514 218.119 177.741 219.744C175.766 220.674 172.993 221.982 170.978 222.864C158.959 228.441 144.098 228.946 130.389 225.049C102.514 217.317 80.2423 199.089 55.2565 186.029C48.9023 182.756 42.153 179.806 35.1006 178.153C22.9988 175.227 11.0551 171.448 0.182953 165.608C-10.6711 159.832 -20.4422 152.413 -29.6387 144.756C-42.6012 133.83 -55.3034 121.538 -67.0657 109.682C-76.594 100.173 -86.0386 89.9241 -95.5953 80.4225C-105.426 70.8253 -116.672 62.2706 -128.814 54.9571C-153.081 40.2976 -181.674 31.5662 -210.144 29.5412C-220.806 28.7716 -231.479 28.8288 -241.92 29.8961C-245.399 30.2595 -248.856 30.7031 -252.25 31.3709L-252.175 31.5836L-252.15 31.5902L-252.148 31.5833Z" fill="#FDDBCD"/>
<path d="M-251.472 23.1866C-212.273 17.1187 -168.722 24.9862 -133.536 45.0465C-124.379 50.2194 -115.682 56.254 -107.798 62.8261C-101.124 68.2293 -94.9656 74.2722 -89.1699 80.3215C-75.2274 95.0205 -60.8049 109.9 -45.9206 123.911C-28.3541 140.107 -9.2923 156.771 14.6456 165.358C23.0673 168.541 31.8651 170.485 40.4833 172.869C45.5444 174.492 50.3515 176.67 55.0638 179.036C92.0787 198.187 134.616 235.623 176.681 213.097C215.624 194.532 271.885 197.4 315.047 213C321.621 215.584 327.579 219.418 333.499 223.16C339.407 226.951 345.218 230.871 351.051 234.775C374.415 250.304 398.187 266.09 425.299 275.979C447.036 283.806 467.741 285.749 487.363 275.856C517.001 261.122 540.442 239.372 568.518 222.872C600.381 203.417 638.464 189.444 680.002 202.756C688.343 205.385 697.151 208.279 705.308 211.399C721.914 217.598 738.11 225.265 751.631 236.045C757.108 240.327 762.372 244.908 768.328 248.749C777.281 254.585 787.578 258.494 797.951 261.593C799.686 262.087 801.405 262.607 803.147 263.074L808.364 264.443C827.107 269.342 844.142 265.095 857.179 254.006C871.949 241.775 881.118 225.531 893.541 211.701C901.602 202.715 912.717 193.674 927.549 195.221L927.553 195.007C912.559 193.276 901.161 202.293 892.903 211.256C880.218 224.942 870.943 240.994 856.13 253.058C840.979 265.365 824.443 267.879 803.589 261.489C791.691 258.167 779.729 254.027 769.52 247.32C760.73 241.535 753.366 234.236 744.555 228.43C726.895 216.593 706.274 209.006 685.811 202.343C626.01 180.729 575.816 212.889 534.72 242.616C515.9 255.502 491.405 276.221 467.212 280.194C427.999 285.035 383.144 254.118 351.83 233.873C345.969 230.006 340.124 226.114 334.166 222.347C328.187 218.626 322.183 214.802 315.4 212.176C275.938 198.25 228.278 194.902 190.21 206.88C186.22 208.129 182.189 209.729 178.416 211.354C176.44 212.284 173.668 213.592 171.653 214.474C159.634 220.051 144.772 220.556 131.064 216.659C103.189 208.927 80.9169 190.699 55.9312 177.64C49.5769 174.366 42.8277 171.416 35.7753 169.763C23.6734 166.837 11.7297 163.058 0.857605 157.218C-9.99646 151.442 -19.7676 144.023 -28.964 136.366C-41.9266 125.441 -54.6287 113.148 -66.391 101.292C-75.9194 91.7836 -85.3639 81.5343 -94.9207 72.0327C-104.751 62.4355 -115.997 53.8808 -128.139 46.5673C-152.406 31.9078 -181 23.1764 -209.469 21.1514C-220.132 20.3818 -230.804 20.439 -241.245 21.5063C-244.725 21.8697 -248.182 22.3133 -251.575 22.9811L-251.5 23.1938L-251.475 23.2004L-251.472 23.1866Z" fill="#FDDBCD"/>
<path d="M-250.798 14.7829C-211.599 8.71495 -168.048 16.5825 -132.862 36.6428C-123.705 41.8156 -115.008 47.8503 -107.124 54.4224C-100.45 59.8256 -94.2916 65.8685 -88.4959 71.9178C-74.5534 86.6168 -60.1309 101.496 -45.2466 115.507C-27.6802 131.703 -8.6183 148.367 15.3195 156.954C23.7413 160.137 32.5391 162.081 41.1573 164.465C46.2184 166.089 51.0255 168.266 55.7378 170.633C92.7527 189.783 135.29 227.22 177.355 204.693C216.298 186.128 272.559 188.997 315.721 204.596C322.295 207.18 328.253 211.014 334.173 214.757C340.081 218.547 345.892 222.468 351.725 226.372C375.089 241.9 398.861 257.686 425.973 267.576C447.71 275.402 468.415 277.346 488.037 267.452C517.675 252.719 541.116 230.969 569.192 214.469C601.055 195.014 639.138 181.04 680.676 194.353C689.017 196.981 697.825 199.875 705.982 202.995C722.588 209.195 738.784 216.862 752.305 227.641C757.782 231.923 763.046 236.504 769.002 240.345C777.955 246.181 788.252 250.09 798.625 253.189C800.36 253.684 802.079 254.204 803.821 254.671L809.038 256.04C827.781 260.938 844.816 256.691 857.853 245.602C872.623 233.371 881.792 217.128 894.215 203.297C902.276 194.312 913.391 185.27 928.223 186.817L928.227 186.603C913.233 184.873 901.835 193.889 893.577 202.852C880.892 216.539 871.617 232.59 856.804 244.654C841.653 256.961 825.117 259.476 804.263 253.086C792.365 249.763 780.403 245.623 770.194 238.917C761.404 233.131 754.04 225.832 745.229 220.026C727.569 208.189 706.948 200.603 686.485 193.94C626.684 172.325 576.49 204.486 535.394 234.212C516.574 247.098 492.077 267.824 467.886 271.79C428.673 276.632 383.818 245.714 352.504 225.469C346.643 221.602 340.798 217.71 334.84 213.943C328.861 210.222 322.857 206.398 316.074 203.772C276.612 189.846 228.952 186.499 190.884 198.476C186.894 199.725 182.863 201.326 179.09 202.951C177.114 203.88 174.342 205.189 172.327 206.07C160.308 211.648 145.446 212.152 131.738 208.255C103.863 200.524 81.5909 182.296 56.6052 169.236C50.2509 165.962 43.5016 163.013 36.4493 161.359C24.3474 158.433 12.4037 154.654 1.53156 148.814C-9.32251 143.038 -19.0936 135.62 -28.29 127.963C-41.2526 117.037 -53.9547 104.744 -65.717 92.8886C-75.2454 83.3798 -84.69 73.1306 -94.2467 63.629C-104.077 54.0317 -115.323 45.4771 -127.465 38.1635C-151.732 23.5041 -180.326 14.7727 -208.795 12.7476C-219.458 11.9781 -230.13 12.0353 -240.571 13.1026C-244.051 13.466 -247.508 13.9095 -250.901 14.5774L-250.826 14.7901L-250.801 14.7967L-250.798 14.7829Z" fill="#FDDBCD"/>
<path d="M-250.124 6.37895C-210.925 0.311005 -167.374 8.17857 -132.188 28.2388C-123.031 33.4117 -114.334 39.4463 -106.45 46.0184C-99.7762 51.4216 -93.6176 57.4645 -87.8219 63.5139C-73.8794 78.2128 -59.4568 93.0923 -44.5726 107.103C-27.0061 123.299 -7.94429 139.963 15.9936 148.55C24.4153 151.733 33.2131 153.677 41.8313 156.061C46.8924 157.685 51.6995 159.862 56.4117 162.229C93.4267 181.38 135.964 218.816 178.029 196.289C216.972 177.725 273.233 180.593 316.395 196.192C322.969 198.777 328.927 202.61 334.847 206.353C340.755 210.143 346.566 214.064 352.399 217.968C375.763 233.496 399.535 249.282 426.647 259.172C448.384 266.998 469.089 268.942 488.711 259.048C518.349 244.315 541.79 222.565 569.866 206.065C601.729 186.61 639.812 172.636 681.35 185.949C689.691 188.577 698.499 191.471 706.656 194.591C723.262 200.791 739.458 208.458 752.979 219.237C758.456 223.519 763.72 228.1 769.676 231.941C778.629 237.778 788.926 241.686 799.299 244.785C801.034 245.28 802.753 245.8 804.495 246.267L809.712 247.636C828.455 252.534 845.49 248.287 858.527 237.198C873.297 224.967 882.465 208.724 894.889 194.893C902.95 185.908 914.065 176.866 928.897 178.413L928.901 178.199C913.907 176.469 902.509 185.486 894.251 194.448C881.566 208.135 872.291 224.186 857.478 236.25C842.327 248.557 825.791 251.072 804.937 244.682C793.039 241.359 781.077 237.219 770.868 230.513C762.078 224.727 754.714 217.428 745.903 211.622C728.243 199.785 707.622 192.199 687.159 185.536C627.358 163.921 577.164 196.082 536.068 225.808C517.248 238.694 492.743 259.418 468.56 263.386C429.347 268.228 384.492 237.31 353.178 217.066C347.317 213.199 341.472 209.306 335.514 205.539C329.535 201.818 323.531 197.994 316.748 195.368C277.286 181.442 229.626 178.095 191.558 190.072C187.568 191.321 183.537 192.922 179.764 194.547C177.788 195.476 175.016 196.785 173.001 197.667C160.982 203.244 146.12 203.748 132.412 199.851C104.537 192.12 82.2649 173.892 57.2791 160.832C50.9249 157.558 44.1757 154.609 37.1233 152.955C25.0214 150.03 13.0777 146.25 2.2056 140.41C-8.6485 134.634 -18.4196 127.216 -27.616 119.559C-40.5786 108.633 -53.2807 96.3403 -65.043 84.4847C-74.5714 74.9759 -84.016 64.7267 -93.5727 55.225C-103.403 45.6278 -114.649 37.0732 -126.791 29.7596C-151.058 15.1001 -179.652 6.36872 -208.121 4.34369C-218.784 3.5741 -229.456 3.63134 -239.897 4.69865C-243.377 5.06206 -246.834 5.50559 -250.227 6.17345L-250.152 6.38615L-250.127 6.39276L-250.124 6.37895Z" fill="#FDDBCD"/>
<path d="M-249.45 -2.02438C-210.252 -8.09232 -166.7 -0.224754 -131.514 19.8355C-122.357 25.0084 -113.66 31.043 -105.776 37.6151C-99.1024 43.0183 -92.9438 49.0612 -87.148 55.1105C-73.2056 69.8095 -58.783 84.689 -43.8988 98.6998C-26.3323 114.896 -7.27048 131.56 16.6674 140.147C25.0891 143.33 33.887 145.274 42.5051 147.658C47.5663 149.281 52.3733 151.459 57.0856 153.825C94.1006 172.976 136.637 210.412 178.703 187.886C217.646 169.321 273.906 172.189 317.069 187.789C323.643 190.373 329.601 194.207 335.521 197.949C341.429 201.74 347.24 205.66 353.075 209.557C376.439 225.086 400.21 240.872 427.322 250.761C449.059 258.588 469.765 260.532 489.387 250.638C519.025 235.904 542.465 214.155 570.542 197.654C602.404 178.199 640.487 164.226 682.026 177.538C690.367 180.167 699.174 183.061 707.331 186.181C723.938 192.38 740.134 200.047 753.655 210.827C759.131 215.109 764.395 219.69 770.351 223.531C779.304 229.367 789.602 233.276 799.975 236.375C801.709 236.869 803.429 237.389 805.171 237.856L810.388 239.225C829.131 244.124 846.166 239.877 859.203 228.788C873.973 216.557 883.141 200.313 895.565 186.483C903.626 177.497 914.741 168.456 929.572 170.003L929.577 169.789C914.583 168.058 903.184 177.075 894.927 186.038C882.242 199.724 872.967 215.776 858.153 227.84C843.002 240.147 826.466 242.661 805.613 236.272C793.714 232.949 781.753 228.809 771.544 222.103C762.754 216.317 755.39 209.018 746.579 203.212C728.919 191.375 708.298 183.789 687.835 177.125C628.034 155.511 577.84 187.672 536.744 217.398C517.923 230.284 493.429 251.003 469.236 254.976C430.025 259.811 385.168 228.9 353.853 208.655C347.993 204.788 342.148 200.896 336.19 197.129C330.211 193.408 324.207 189.584 317.424 186.958C277.961 173.032 230.302 169.685 192.233 181.662C188.244 182.911 184.213 184.511 180.439 186.137C178.464 187.066 175.692 188.375 173.676 189.256C161.658 194.833 146.796 195.338 133.087 191.441C105.212 183.709 82.9406 165.482 57.9548 152.422C51.6006 149.148 44.8513 146.198 37.799 144.545C25.6971 141.619 13.7534 137.84 2.88126 132C-7.97281 126.224 -17.7439 118.805 -26.9403 111.148C-39.9029 100.223 -52.605 87.93 -64.3673 76.0745C-73.8957 66.5656 -83.3403 56.3164 -92.897 46.8148C-102.728 37.2176 -113.974 28.6629 -126.116 21.3494C-150.382 6.6899 -178.976 -2.0415 -207.446 -4.06654C-218.108 -4.83612 -228.781 -4.77888 -239.222 -3.71158C-242.701 -3.34816 -246.158 -2.90465 -249.551 -2.23679L-249.476 -2.02407L-249.452 -2.01746L-249.45 -2.02438Z" fill="#FDDBCD"/>
<path d="M-248.774 -10.428C-209.576 -16.4959 -166.024 -8.62836 -130.838 11.4319C-121.681 16.6048 -112.984 22.6394 -105.1 29.2115C-98.4264 34.6147 -92.2678 40.6576 -86.4721 46.7069C-72.5296 61.4059 -58.1071 76.2854 -43.2228 90.2962C-25.6564 106.492 -6.59453 123.156 17.3433 131.743C25.7651 134.927 34.5629 136.87 43.1811 139.254C48.2422 140.878 53.0493 143.055 57.7615 145.422C94.7765 164.573 137.313 202.009 179.379 179.482C218.322 160.918 274.582 163.786 317.745 179.385C324.319 181.97 330.277 185.803 336.197 189.546C342.104 193.336 347.916 197.257 353.75 201.154C377.115 216.682 400.886 232.468 427.998 242.358C449.735 250.184 470.441 252.128 490.063 242.234C519.701 227.501 543.141 205.751 571.218 189.251C603.08 169.796 641.163 155.822 682.701 169.135C691.043 171.763 699.85 174.658 708.007 177.777C724.614 183.977 740.81 191.644 754.331 202.423C759.807 206.705 765.071 211.286 771.027 215.127C779.98 220.964 790.278 224.872 800.651 227.971C802.385 228.466 804.104 228.986 805.847 229.453L811.064 230.822C829.807 235.72 846.842 231.473 859.879 220.385C874.649 208.153 883.817 191.91 896.241 178.08C904.302 169.094 915.417 160.053 930.248 161.599L930.253 161.385C915.259 159.655 903.86 168.672 895.603 177.634C882.918 191.321 873.642 207.373 858.829 219.437C843.678 231.743 827.142 234.258 806.289 227.868C794.39 224.545 782.428 220.405 772.22 213.699C763.43 207.913 756.066 200.614 747.255 194.808C729.595 182.972 708.974 175.385 688.511 168.722C628.71 147.107 578.516 179.268 537.42 208.994C518.599 221.88 494.105 242.599 469.912 246.572C430.701 251.407 385.844 220.496 354.529 200.252C348.669 196.385 342.824 192.492 336.866 188.725C330.887 185.004 324.883 181.18 318.1 178.555C278.637 164.628 230.978 161.281 192.909 173.258C188.92 174.507 184.889 176.108 181.115 177.733C179.14 178.663 176.368 179.971 174.352 180.853C162.333 186.43 147.472 186.934 133.763 183.037C105.888 175.306 83.6166 157.078 58.6308 144.018C52.2766 140.745 45.5273 137.795 38.4749 136.141C26.373 133.216 14.4294 129.436 3.55722 123.596C-7.29686 117.821 -17.068 110.402 -26.2644 102.745C-39.227 91.8191 -51.9291 79.5265 -63.6914 67.6709C-73.2198 58.162 -82.6643 47.9128 -92.221 38.4112C-102.052 28.8139 -113.298 20.2593 -125.44 12.9458C-149.706 -1.71371 -178.3 -10.4451 -206.77 -12.4701C-217.432 -13.2397 -228.105 -13.1825 -238.546 -12.1152C-242.025 -11.7518 -245.482 -11.3083 -248.876 -10.6404L-248.8 -10.4277L-248.776 -10.4211L-248.774 -10.428Z" fill="#FDDBCD"/>
<path d="M-248.098 -18.8253C-208.899 -24.8932 -165.348 -17.0256 -130.162 3.03463C-121.005 8.20749 -112.308 14.2421 -104.423 20.8142C-97.7501 26.2174 -91.5915 32.2603 -85.7957 38.3097C-71.8533 53.0086 -57.4307 67.8881 -42.5465 81.8989C-24.98 98.0952 -5.91817 114.759 18.0197 123.346C26.4414 126.529 35.2393 128.473 43.8574 130.857C48.9185 132.48 53.7256 134.658 58.4379 137.025C95.4529 156.175 137.99 193.611 180.055 171.085C218.998 152.52 275.259 155.389 318.421 170.988C324.995 173.572 330.953 177.406 336.873 181.148C342.781 184.939 348.592 188.859 354.427 192.757C377.791 208.285 401.563 224.071 428.675 233.961C450.412 241.787 471.117 243.731 490.739 233.837C520.377 219.103 543.818 197.354 571.894 180.854C603.757 161.398 641.84 147.425 683.378 160.737C691.719 163.366 700.527 166.26 708.684 169.38C725.29 175.579 741.486 183.246 755.007 194.026C760.484 198.308 765.748 202.889 771.703 206.73C780.656 212.566 790.954 216.475 801.327 219.574C803.062 220.069 804.781 220.589 806.523 221.056L811.74 222.425C830.483 227.323 847.518 223.076 860.555 211.987C875.325 199.756 884.494 183.513 896.917 169.682C904.978 160.697 916.093 151.655 930.925 153.202L930.929 152.988C915.935 151.258 904.537 160.274 896.279 169.237C883.594 182.923 874.319 198.975 859.506 211.039C844.354 223.346 827.819 225.861 806.965 219.471C795.067 216.148 783.105 212.008 772.896 205.302C764.106 199.516 756.742 192.217 747.931 186.411C730.271 174.574 709.65 166.988 689.187 160.325C629.386 138.71 579.192 170.871 538.096 200.597C519.276 213.483 494.781 234.202 470.588 238.175C431.377 243.01 386.52 212.099 355.206 191.854C349.345 187.987 343.5 184.095 337.542 180.328C331.563 176.607 325.559 172.783 318.776 170.157C279.313 156.231 231.654 152.884 193.586 164.861C189.596 166.11 185.565 167.711 181.792 169.336C179.816 170.265 177.044 171.574 175.029 172.455C163.01 178.033 148.148 178.537 134.44 174.64C106.565 166.908 84.2929 148.681 59.3071 135.621C52.9529 132.347 46.2036 129.397 39.1512 127.744C27.0493 124.818 15.1057 121.039 4.23358 115.199C-6.6205 109.423 -16.3916 102.005 -25.588 94.3475C-38.5506 83.4218 -51.2528 71.1292 -63.015 59.2736C-72.5434 49.7648 -81.988 39.5155 -91.5447 30.0139C-101.375 20.4167 -112.621 11.862 -124.763 4.54848C-149.03 -10.111 -177.624 -18.8424 -206.093 -20.8674C-216.756 -21.637 -227.428 -21.5798 -237.869 -20.5125C-241.349 -20.1491 -244.806 -19.7055 -248.199 -19.0377L-248.124 -18.825L-248.099 -18.8184L-248.098 -18.8253Z" fill="#FDDBCD"/>
<path d="M-247.421 -27.2288C-208.223 -33.2968 -164.672 -25.4292 -129.486 -5.36894C-120.329 -0.196083 -111.631 5.83856 -103.747 12.4106C-97.0739 17.8139 -90.9153 23.8568 -85.1196 29.9061C-71.1771 44.605 -56.7546 59.4845 -41.8704 73.4953C-24.3039 89.6916 -5.24203 106.355 18.6958 114.942C27.1176 118.126 35.9154 120.069 44.5336 122.454C49.5947 124.077 54.4018 126.254 59.114 128.621C96.129 147.772 138.666 185.208 180.731 162.681C219.674 144.117 275.935 146.985 319.097 162.584C325.672 165.169 331.629 169.003 337.549 172.745C343.457 176.536 349.268 180.456 355.101 184.36C378.466 199.889 402.237 215.674 429.349 225.564C451.086 233.391 471.792 235.334 491.414 225.44C521.051 210.707 544.492 188.957 572.568 172.457C604.431 153.002 642.514 139.029 684.052 152.341C692.393 154.969 701.201 157.864 709.358 160.983C725.964 167.183 742.16 174.85 755.682 185.629C761.158 189.911 766.422 194.493 772.378 198.333C781.331 204.17 791.628 208.078 802.001 211.177C803.736 211.672 805.455 212.192 807.197 212.659L812.415 214.028C831.157 218.926 848.193 214.679 861.23 203.591C875.999 191.359 885.168 175.116 897.592 161.286C905.653 152.3 916.767 143.259 931.599 144.805L931.603 144.592C916.61 142.861 905.211 151.878 896.953 160.84C884.269 174.527 874.993 190.579 860.18 202.643C845.029 214.949 828.493 217.464 807.639 211.074C795.741 207.751 783.779 203.611 773.571 196.905C764.78 191.119 757.417 183.82 748.605 178.014C730.946 166.178 710.325 158.591 689.861 151.928C630.061 130.313 579.866 162.474 538.77 192.2C519.95 205.086 495.454 225.812 471.263 229.778C432.049 234.62 387.194 203.702 355.88 183.458C350.019 179.591 344.174 175.698 338.217 171.931C332.238 168.21 326.233 164.386 319.45 161.761C279.988 147.834 232.328 144.487 194.26 156.465C190.27 157.713 186.239 159.314 182.466 160.939C180.491 161.869 177.718 163.177 175.703 164.059C163.684 169.636 148.823 170.14 135.114 166.243C107.239 158.512 84.9672 140.284 59.9814 127.224C53.6272 123.951 46.8779 121.001 39.8256 119.347C27.7237 116.422 15.78 112.642 4.90784 106.802C-5.94623 101.027 -15.7173 93.6079 -24.9138 85.9508C-37.8763 75.0252 -50.5785 62.7325 -62.3408 50.8769C-71.8691 41.3681 -81.3137 31.1189 -90.8704 21.6173C-100.701 12.02 -111.947 3.46539 -124.089 -3.84818C-148.356 -18.5076 -176.949 -27.2391 -205.419 -29.2641C-216.081 -30.0337 -226.754 -29.9764 -237.195 -28.9091C-240.674 -28.5457 -244.131 -28.1022 -247.525 -27.4343L-247.45 -27.2216L-247.425 -27.215L-247.421 -27.2288Z" fill="#FDDBCD"/>
<path d="M-246.747 -35.6321C-207.549 -41.7001 -163.998 -33.8325 -128.812 -13.7722C-119.655 -8.59938 -110.957 -2.56473 -103.073 4.00735C-96.4 9.41058 -90.2414 15.4535 -84.4457 21.5028C-70.5032 36.2017 -56.0807 51.0812 -41.1965 65.092C-23.63 81.2883 -4.56812 97.9521 19.3698 106.539C27.7915 109.722 36.5893 111.666 45.2075 114.05C50.2686 115.674 55.0757 117.851 59.788 120.218C96.8029 139.368 139.34 176.805 181.405 154.278C220.348 135.713 276.609 138.582 319.771 154.181C326.345 156.765 332.303 160.599 338.223 164.342C344.131 168.132 349.942 172.053 355.775 175.957C379.14 191.485 402.911 207.271 430.023 217.161C451.76 224.987 472.466 226.931 492.088 217.037C521.725 202.303 545.166 180.554 573.242 164.054C605.105 144.598 643.188 130.625 684.726 143.938C693.067 146.566 701.875 149.46 710.032 152.58C726.638 158.78 742.834 166.447 756.356 177.226C761.832 181.508 767.096 186.089 773.052 189.93C782.005 195.766 792.302 199.675 802.675 202.774C804.41 203.269 806.129 203.789 807.871 204.256L813.089 205.625C831.831 210.523 848.867 206.276 861.904 195.187C876.673 182.956 885.842 166.713 898.266 152.882C906.327 143.897 917.441 134.855 932.273 136.402L932.277 136.188C917.284 134.458 905.885 143.474 897.627 152.437C884.943 166.124 875.667 182.175 860.854 194.239C845.703 206.546 829.167 209.061 808.313 202.671C796.415 199.348 784.453 195.208 774.245 188.502C765.454 182.716 758.091 175.417 749.279 169.611C731.62 157.774 710.998 150.188 690.535 143.525C630.734 121.91 580.54 154.071 539.444 183.797C520.624 196.683 496.127 217.409 471.937 221.375C432.723 226.217 387.868 195.299 356.554 175.054C350.693 171.187 344.848 167.295 338.891 163.528C332.911 159.807 326.907 155.983 320.124 153.357C280.662 139.431 233.002 136.084 194.934 148.061C190.944 149.31 186.913 150.911 183.14 152.536C181.165 153.465 178.392 154.774 176.377 155.655C164.358 161.233 149.497 161.737 135.788 157.84C107.913 150.109 85.6411 131.881 60.6553 118.821C54.3011 115.547 47.5519 112.598 40.4995 110.944C28.3976 108.018 16.4539 104.239 5.58179 98.3991C-5.27229 92.6233 -15.0434 85.2046 -24.2398 77.5475C-37.2024 66.6219 -49.9045 54.3292 -61.6668 42.4736C-71.1952 32.9648 -80.6398 22.7156 -90.1965 13.214C-100.027 3.61674 -111.273 -4.93791 -123.415 -12.2515C-147.682 -26.9109 -176.275 -35.6423 -204.745 -37.6674C-215.408 -38.437 -226.08 -38.3797 -236.521 -37.3124C-240 -36.949 -243.457 -36.5055 -246.851 -35.8376L-246.776 -35.6249L-246.751 -35.6183L-246.747 -35.6321Z" fill="#FDDBCD"/>
<path d="M-246.073 -44.036C-206.875 -50.104 -163.324 -42.2364 -128.138 -22.1761C-118.981 -17.0033 -110.283 -10.9686 -102.399 -4.39654C-95.726 1.00668 -89.5674 7.04958 -83.7716 13.0989C-69.8292 27.7979 -55.4066 42.6774 -40.5224 56.6881C-22.9559 72.8844 -3.89409 89.5482 20.0438 98.1351C28.4655 101.319 37.2634 103.262 45.8815 105.646C50.9427 107.27 55.7497 109.447 60.462 111.814C97.477 130.965 140.014 168.401 182.079 145.874C221.022 127.31 277.283 130.178 320.445 145.777C327.019 148.362 332.977 152.195 338.897 155.938C344.805 159.728 350.616 163.649 356.449 167.553C379.814 183.081 403.585 198.867 430.697 208.757C452.434 216.583 473.14 218.527 492.762 208.633C522.399 193.9 545.84 172.15 573.916 155.65C605.779 136.195 643.862 122.221 685.4 135.534C693.741 138.162 702.549 141.056 710.706 144.176C727.312 150.376 743.508 158.043 757.03 168.822C762.506 173.104 767.77 177.685 773.726 181.526C782.679 187.363 792.976 191.271 803.349 194.37C805.084 194.865 806.803 195.385 808.545 195.852L813.763 197.221C832.505 202.119 849.541 197.872 862.578 186.783C877.347 174.552 886.516 158.309 898.94 144.478C907.001 135.493 918.115 126.451 932.947 127.998L932.951 127.784C917.958 126.054 906.559 135.071 898.301 144.033C885.617 157.72 876.341 173.771 861.528 185.835C846.377 198.142 829.841 200.657 808.987 194.267C797.089 190.944 785.127 186.804 774.919 180.098C766.128 174.312 758.765 167.013 749.953 161.207C732.293 149.371 711.673 141.784 691.209 135.121C631.409 113.506 581.214 145.667 540.118 175.393C521.298 188.279 496.802 209.005 472.611 212.971C433.397 217.813 388.542 186.895 357.228 166.651C351.367 162.784 345.522 158.891 339.565 155.124C333.586 151.403 327.581 147.579 320.798 144.953C281.336 131.027 233.676 127.68 195.608 139.657C191.618 140.906 187.587 142.507 183.814 144.132C181.839 145.061 179.066 146.37 177.051 147.252C165.032 152.829 150.171 153.333 136.462 149.436C108.587 141.705 86.3152 123.477 61.3294 110.417C54.9751 107.143 48.2259 104.194 41.1735 102.54C29.0716 99.6145 17.128 95.8352 6.25583 89.9953C-4.59825 84.2194 -14.3694 76.8008 -23.5658 69.1436C-36.5284 58.218 -49.2305 45.9253 -60.9928 34.0698C-70.5212 24.5609 -79.9657 14.3117 -89.5224 4.81009C-99.353 -4.78716 -110.599 -13.3418 -122.741 -20.6554C-147.008 -35.3148 -175.601 -44.0462 -204.071 -46.0713C-214.734 -46.8409 -225.406 -46.7836 -235.847 -45.7163C-239.326 -45.3529 -242.783 -44.9094 -246.177 -44.2415L-246.102 -44.0288L-246.077 -44.0222L-246.073 -44.036Z" fill="#FDDBCD"/>
<path d="M-245.399 -52.4329C-206.201 -58.5009 -162.65 -50.6333 -127.464 -30.573C-118.307 -25.4002 -109.609 -19.3655 -101.725 -12.7934C-95.0518 -7.39021 -88.8932 -1.34732 -83.0975 4.702C-69.155 19.401 -54.7325 34.2805 -39.8483 48.2913C-22.2818 64.4875 -3.21992 81.1513 20.7179 89.7383C29.1397 92.9216 37.9375 94.8652 46.5556 97.2495C51.6168 98.8728 56.4238 101.05 61.1361 103.417C98.1511 122.568 140.688 160.004 182.753 137.477C221.696 118.913 277.957 121.781 321.12 137.38C327.694 139.965 333.651 143.798 339.572 147.541C345.479 151.331 351.29 155.252 357.125 159.149C380.49 174.678 404.261 190.463 431.373 200.353C453.11 208.18 473.815 210.123 493.438 200.229C523.075 185.496 546.516 163.746 574.592 147.246C606.455 127.791 644.538 113.818 686.076 127.13C694.417 129.758 703.225 132.653 711.382 135.772C727.988 141.972 744.184 149.639 757.706 160.418C763.182 164.7 768.446 169.282 774.402 173.122C783.355 178.959 793.652 182.867 804.025 185.966C805.76 186.461 807.479 186.981 809.221 187.448L814.439 188.817C833.181 193.715 850.217 189.468 863.254 178.38C878.023 166.148 887.192 149.905 899.615 136.075C907.677 127.089 918.791 118.048 933.623 119.594L933.627 119.381C918.634 117.65 907.235 126.667 898.977 135.629C886.293 149.316 877.017 165.368 862.204 177.432C847.053 189.738 830.517 192.253 809.663 185.863C797.765 182.54 785.803 178.4 775.595 171.694C766.804 165.908 759.441 158.609 750.629 152.803C732.97 140.967 712.349 133.38 691.885 126.717C632.084 105.102 581.89 137.263 540.794 166.989C521.974 179.875 497.479 200.594 473.287 204.567C434.075 209.402 389.218 178.491 357.904 158.247C352.043 154.38 346.198 150.487 340.241 146.72C334.262 142.999 328.257 139.175 321.474 136.55C282.012 122.623 234.352 119.276 196.284 131.254C192.294 132.502 188.263 134.103 184.49 135.728C182.515 136.658 179.742 137.966 177.727 138.848C165.708 144.425 150.847 144.929 137.138 141.032C109.263 133.301 86.9911 115.073 62.0054 102.013C55.6511 98.7396 48.9019 95.7898 41.8495 94.1364C29.7476 91.2108 17.8039 87.4314 6.93179 81.5915C-3.92229 75.8156 -13.6934 68.397 -22.8898 60.7398C-35.8524 49.8142 -48.5545 37.5215 -60.3168 25.6659C-69.8452 16.1571 -79.2897 5.9079 -88.8465 -3.59372C-98.677 -13.191 -109.923 -21.7456 -122.065 -29.0592C-146.332 -43.7186 -174.925 -52.45 -203.395 -54.4751C-214.058 -55.2446 -224.73 -55.1874 -235.171 -54.1201C-238.65 -53.7567 -242.107 -53.3132 -245.501 -52.6453L-245.426 -52.4326L-245.401 -52.426L-245.399 -52.4329Z" fill="#FDDBCD"/>
<path d="M-244.723 -60.8365C-205.525 -66.9045 -161.974 -59.0369 -126.788 -38.9766C-117.631 -33.8038 -108.933 -27.7691 -101.049 -21.197C-94.3758 -15.7938 -88.2173 -9.75092 -82.4215 -3.70161C-68.479 10.9974 -54.0565 25.8769 -39.1723 39.8876C-21.6058 56.0839 -2.54395 72.7477 21.3939 81.3346C29.8157 84.518 38.6135 86.4616 47.2317 88.8459C52.2928 90.4692 57.0999 92.6466 61.8121 95.0133C98.8271 114.164 141.364 151.6 183.429 129.073C222.372 110.509 278.633 113.377 321.796 128.977C328.37 131.561 334.327 135.395 340.248 139.137C346.155 142.928 351.966 146.848 357.801 150.745C381.166 166.274 404.937 182.06 432.049 191.949C453.786 199.776 474.492 201.719 494.114 191.826C523.751 177.092 547.192 155.342 575.268 138.842C607.131 119.387 645.214 105.414 686.752 118.726C695.093 121.355 703.901 124.249 712.058 127.369C728.664 133.568 744.86 141.235 758.382 152.014C763.858 156.297 769.122 160.878 775.078 164.719C784.031 170.555 794.328 174.464 804.701 177.563C806.436 178.057 808.155 178.577 809.897 179.044L815.115 180.413C833.857 185.312 850.893 181.065 863.93 169.976C878.699 157.745 887.868 141.501 900.292 127.671C908.353 118.685 919.467 109.644 934.299 111.191L934.303 110.977C919.31 109.246 907.911 118.263 899.653 127.226C886.969 140.912 877.693 156.964 862.88 169.028C847.729 181.335 831.193 183.849 810.339 177.459C798.441 174.137 786.479 169.997 776.271 163.29C767.48 157.505 760.117 150.206 751.305 144.4C733.646 132.563 713.025 124.976 692.561 118.313C632.76 96.6985 582.566 128.859 541.47 158.586C522.65 171.472 498.155 192.191 473.963 196.164C434.751 200.999 389.894 170.088 358.58 149.843C352.719 145.976 346.874 142.084 340.917 138.317C334.938 134.596 328.933 130.772 322.15 128.146C282.688 114.22 235.028 110.872 196.96 122.85C192.97 124.099 188.939 125.699 185.166 127.324C183.191 128.254 180.418 129.562 178.403 130.444C166.384 136.021 151.523 136.526 137.814 132.629C109.939 124.897 87.6671 106.669 62.6814 93.6095C56.3271 90.336 49.5779 87.3862 42.5255 85.7327C30.4236 82.8071 18.4799 79.0278 7.60782 73.1878C-3.24626 67.412 -13.0174 59.9933 -22.2138 52.3362C-35.1764 41.4106 -47.8785 29.1179 -59.6408 17.2623C-69.1692 7.75349 -78.6137 -2.49572 -88.1705 -11.9973C-98.001 -21.5946 -109.247 -30.1492 -121.389 -37.4628C-145.656 -52.1222 -174.249 -60.8536 -202.719 -62.8787C-213.382 -63.6483 -224.054 -63.591 -234.495 -62.5237C-237.974 -62.1603 -241.431 -61.7168 -244.825 -61.0489L-244.75 -60.8362L-244.725 -60.8296L-244.723 -60.8365Z" fill="#FDDBCD"/>
<path d="M-244.047 -69.2402C-204.849 -75.3081 -161.298 -67.4405 -126.112 -47.3803C-116.954 -42.2074 -108.257 -36.1728 -100.373 -29.6007C-93.6997 -24.1974 -87.5411 -18.1546 -81.7453 -12.1052C-67.8029 2.59372 -53.3803 17.4732 -38.4961 31.484C-20.9296 47.6803 -1.86777 64.3441 22.0701 72.931C30.4918 76.1144 39.2897 78.058 47.9078 80.4423C52.969 82.0656 57.776 84.2429 62.4883 86.6097C99.5033 105.76 142.04 143.197 184.105 120.67C223.048 102.105 279.309 104.974 322.472 120.573C329.046 123.157 335.003 126.991 340.924 130.733C346.831 134.524 352.642 138.445 358.475 142.349C381.84 157.877 405.611 173.663 432.723 183.553C454.46 191.379 475.166 193.323 494.788 183.429C524.426 168.695 547.866 146.946 575.943 130.446C607.805 110.99 645.888 97.0172 687.426 110.329C695.768 112.958 704.575 115.852 712.732 118.972C729.339 125.172 745.534 132.839 759.056 143.618C764.532 147.9 769.796 152.481 775.752 156.322C784.705 162.158 795.002 166.067 805.376 169.166C807.11 169.661 808.829 170.181 810.572 170.648L815.789 172.017C834.532 176.915 851.567 172.668 864.604 161.579C879.374 149.348 888.542 133.105 900.966 119.274C909.027 110.289 920.141 101.247 934.973 102.794L934.978 102.58C919.984 100.85 908.585 109.866 900.328 118.829C887.643 132.515 878.367 148.567 863.554 160.631C848.403 172.938 831.867 175.453 811.014 169.063C799.115 165.74 787.153 161.6 776.945 154.894C768.154 149.108 760.791 141.809 751.979 136.003C734.32 124.166 713.699 116.58 693.236 109.917C633.435 88.3018 583.24 120.463 542.145 150.189C523.324 163.075 498.83 183.794 474.637 187.767C435.425 192.602 390.568 161.691 359.254 141.446C353.394 137.579 347.549 133.687 341.591 129.92C335.612 126.199 329.608 122.375 322.824 119.749C283.362 105.823 235.703 102.476 197.634 114.453C193.645 115.702 189.614 117.303 185.84 118.928C183.865 119.857 181.092 121.166 179.077 122.047C167.058 127.624 152.197 128.129 138.488 124.232C110.613 116.501 88.3415 98.2727 63.3557 85.2128C57.0014 81.9393 50.2522 78.9895 43.1998 77.336C31.0979 74.4104 19.1543 70.6311 8.28214 64.7911C-2.57193 59.0152 -12.3431 51.5966 -21.5395 43.9395C-34.502 33.0138 -47.2042 20.7212 -58.9665 8.8656C-68.4949 -0.643234 -77.9394 -10.8924 -87.4961 -20.3941C-97.3267 -29.9913 -108.573 -38.5459 -120.715 -45.8595C-144.981 -60.519 -173.575 -69.2504 -202.045 -71.2754C-212.707 -72.045 -223.38 -71.9878 -233.821 -70.9205C-237.3 -70.5571 -240.757 -70.1135 -244.151 -69.4457L-244.075 -69.2329L-244.051 -69.2263L-244.047 -69.2402Z" fill="#FDDBCD"/>
<path d="M-243.373 -77.6441C-204.175 -83.7121 -160.624 -75.8445 -125.438 -55.7842C-116.28 -50.6114 -107.583 -44.5767 -99.699 -38.0046C-93.0256 -32.6014 -86.8671 -26.5585 -81.0713 -20.5092C-67.1289 -5.81023 -52.7063 9.06924 -37.8221 23.08C-20.2556 39.2763 -1.19373 55.9401 22.7441 64.527C31.1659 67.7104 39.9637 69.654 48.5818 72.0383C53.643 73.6616 58.45 75.839 63.1623 78.2057C100.177 97.3565 142.714 134.793 184.779 112.266C223.722 93.7015 279.983 96.5697 323.146 112.169C329.72 114.754 335.677 118.587 341.598 122.33C347.505 126.12 353.316 130.041 359.149 133.945C382.514 149.473 406.285 165.259 433.397 175.149C455.134 182.975 475.84 184.919 495.462 175.025C525.1 160.292 548.54 138.542 576.617 122.042C608.479 102.586 646.562 88.6132 688.1 101.926C696.442 104.554 705.249 107.448 713.406 110.568C730.013 116.768 746.208 124.435 759.73 135.214C765.206 139.496 770.47 144.077 776.426 147.918C785.379 153.754 795.677 157.663 806.05 160.762C807.784 161.257 809.503 161.777 811.246 162.244L816.463 163.613C835.206 168.511 852.241 164.264 865.278 153.175C880.048 140.944 889.216 124.701 901.64 110.87C909.701 101.885 920.816 92.8433 935.647 94.3899L935.652 94.1763C920.658 92.4456 909.259 101.462 901.002 110.425C888.317 124.112 879.042 140.163 864.228 152.227C849.077 164.534 832.541 167.049 811.688 160.659C799.789 157.336 787.828 153.196 777.619 146.49C768.828 140.704 761.465 133.405 752.653 127.599C734.994 115.762 714.373 108.176 693.91 101.513C634.109 79.8979 583.914 112.059 542.819 141.785C523.998 154.671 499.502 175.397 475.311 179.363C436.098 184.205 391.242 153.287 359.928 133.042C354.068 129.175 348.223 125.283 342.265 121.516C336.286 117.795 330.282 113.971 323.498 111.345C284.036 97.4192 236.377 94.0718 198.308 106.049C194.319 107.298 190.288 108.899 186.514 110.524C184.539 111.453 181.766 112.762 179.751 113.644C167.732 119.221 152.871 119.725 139.162 115.828C111.287 108.097 89.0155 89.8687 64.0297 76.8089C57.6754 73.5354 50.9262 70.5855 43.8738 68.9321C31.7719 66.0065 19.8283 62.2271 8.95615 56.3872C-1.89792 50.6113 -11.6691 43.1927 -20.8655 35.5356C-33.828 24.6099 -46.5302 12.3172 -58.2925 0.461662C-67.8208 -9.04716 -77.2654 -19.2964 -86.8221 -28.798C-96.6527 -38.3953 -107.899 -46.9499 -120.041 -54.2635C-144.307 -68.9229 -172.901 -77.6543 -201.371 -79.6794C-212.033 -80.4489 -222.706 -80.3917 -233.147 -79.3244C-236.626 -78.961 -240.083 -78.5175 -243.477 -77.8496L-243.401 -77.6369L-243.377 -77.6303L-243.373 -77.6441Z" fill="#FDDBCD"/>
<path d="M-242.699 -86.0474C-203.501 -92.1154 -159.95 -84.2478 -124.764 -64.1875C-115.607 -59.0147 -106.909 -52.98 -99.0251 -46.4079C-92.3517 -41.0047 -86.1931 -34.9618 -80.3974 -28.9125C-66.4549 -14.2136 -52.0324 0.665947 -37.1481 14.6767C-19.5817 30.873 -0.519806 47.5368 23.418 56.1237C31.8398 59.3071 40.6376 61.2507 49.2558 63.635C54.3169 65.2583 59.124 67.4357 63.8363 69.8024C100.851 88.9532 143.388 126.389 185.453 103.863C224.396 85.2982 280.657 88.1664 323.82 103.766C330.394 106.35 336.351 110.184 342.272 113.926C348.179 117.717 353.99 121.637 359.823 125.541C383.188 141.07 406.959 156.856 434.071 166.745C455.808 174.572 476.514 176.515 496.136 166.622C525.774 151.888 549.214 130.138 577.291 113.638C609.153 94.1832 647.236 80.2099 688.774 93.5222C697.116 96.1508 705.923 99.045 714.08 102.165C730.687 108.364 746.882 116.031 760.404 126.81C765.88 131.093 771.144 135.674 777.1 139.515C786.053 145.351 796.35 149.26 806.724 152.359C808.458 152.853 810.177 153.373 811.92 153.84L817.137 155.209C835.88 160.108 852.915 155.861 865.952 144.772C880.722 132.541 889.89 116.297 902.314 102.467C910.375 93.4812 921.49 84.44 936.321 85.9866L936.326 85.773C921.332 84.0423 909.933 93.0591 901.676 102.022C888.991 115.708 879.715 131.76 864.902 143.824C849.751 156.131 833.215 158.645 812.362 152.255C800.463 148.933 788.501 144.793 778.293 138.086C769.502 132.301 762.139 125.002 753.327 119.196C735.668 107.359 715.047 99.7724 694.583 93.1093C634.783 71.4946 584.588 103.655 543.493 133.382C524.672 146.268 500.176 166.994 475.985 170.96C436.772 175.801 391.916 144.884 360.602 124.639C354.742 120.772 348.897 116.88 342.939 113.113C336.96 109.392 330.956 105.568 324.172 102.942C284.71 89.0159 237.05 85.6685 198.982 97.646C194.992 98.8947 190.962 100.495 187.188 102.12C185.213 103.05 182.44 104.358 180.425 105.24C168.406 110.817 153.545 111.322 139.836 107.425C111.961 99.6932 89.6894 81.4654 64.7036 68.4055C58.3494 65.132 51.6002 62.1822 44.5478 60.5287C32.4459 57.6031 20.5022 53.8238 9.6301 47.9838C-1.224 42.208 -10.9951 34.7893 -20.1915 27.1322C-33.1541 16.2066 -45.8563 3.91391 -57.6185 -7.94166C-67.1469 -17.4505 -76.5915 -27.6997 -86.1482 -37.2013C-95.9788 -46.7986 -107.225 -55.3532 -119.367 -62.6668C-143.634 -77.3262 -172.227 -86.0576 -200.697 -88.0827C-211.359 -88.8523 -222.032 -88.795 -232.473 -87.7277C-235.952 -87.3643 -239.409 -86.9208 -242.803 -86.2529L-242.728 -86.0402L-242.703 -86.0336L-242.699 -86.0474Z" fill="#FDDBCD"/>
<path d="M-242.025 -94.4444C-202.827 -100.512 -159.275 -92.6448 -124.089 -72.5846C-114.932 -67.4117 -106.235 -61.377 -98.3508 -54.805C-91.6774 -49.4017 -85.5188 -43.3588 -79.723 -37.3095C-65.7806 -22.6106 -51.358 -7.73106 -36.4738 6.27973C-18.9073 22.476 0.154541 39.1398 24.0924 47.7267C32.5141 50.9101 41.312 52.8537 49.9301 55.238C54.9913 56.8613 59.7983 59.0387 64.5106 61.4054C101.526 80.5561 144.062 117.992 186.128 95.4655C225.071 76.9012 281.331 79.7694 324.494 95.3688C331.068 97.9532 337.026 101.787 342.946 105.529C348.854 109.32 354.665 113.24 360.498 117.144C383.862 132.673 407.633 148.459 434.745 158.348C456.482 166.175 477.188 168.118 496.81 158.225C526.448 143.491 549.889 121.741 577.965 105.241C609.827 85.7861 647.911 71.8129 689.449 85.1252C697.79 87.7538 706.597 90.648 714.754 93.7678C731.361 99.9673 747.557 107.634 761.078 118.413C766.554 122.696 771.819 127.277 777.774 131.118C786.727 136.954 797.025 140.863 807.398 143.962C809.133 144.456 810.852 144.976 812.594 145.443L817.811 146.812C836.554 151.711 853.589 147.464 866.626 136.375C881.396 124.144 890.564 107.9 902.988 94.07C911.049 85.0842 922.164 76.043 936.996 77.5895L937 77.3759C922.006 75.6453 910.607 84.6621 902.35 93.6248C889.665 107.311 880.39 123.363 865.577 135.427C850.425 147.734 833.89 150.248 813.036 143.858C801.137 140.535 789.176 136.396 778.967 129.689C770.177 123.904 762.813 116.605 754.002 110.799C736.342 98.9621 715.721 91.3754 695.258 84.7123C635.457 63.0975 585.263 95.2584 544.167 124.985C525.346 137.871 500.852 158.59 476.659 162.563C437.448 167.397 392.591 136.487 361.277 116.242C355.416 112.375 349.571 108.483 343.613 104.716C337.634 100.995 331.63 97.1706 324.847 94.545C285.384 80.6189 237.725 77.2715 199.656 89.249C195.667 90.4977 191.636 92.0983 187.863 93.7235C185.887 94.653 183.115 95.9614 181.099 96.8432C169.081 102.42 154.219 102.925 140.51 99.0277C112.635 91.2962 90.3638 73.0684 65.378 60.0085C59.0237 56.735 52.2745 53.7852 45.2221 52.1317C33.1202 49.2061 21.1765 45.4268 10.3044 39.5868C-0.549683 33.811 -10.3208 26.3923 -19.5172 18.7352C-32.4798 7.80958 -45.1819 -4.48309 -56.9442 -16.3387C-66.4726 -25.8475 -75.9171 -36.0967 -85.4738 -45.5983C-95.3044 -55.1956 -106.55 -63.7502 -118.693 -71.0638C-142.959 -85.7233 -171.553 -94.4547 -200.023 -96.4797C-210.685 -97.2493 -221.357 -97.192 -231.798 -96.1247C-235.278 -95.7613 -238.735 -95.3178 -242.128 -94.6499L-242.053 -94.4372L-242.029 -94.4306L-242.025 -94.4444Z" fill="#FDDBCD"/>
</g>
</svg>
