<svg width="206" height="303" viewBox="0 0 206 303" fill="none" xmlns="http://www.w3.org/2000/svg">
<g opacity="0.5" clip-path="url(#clip0_536_4139)">
<path d="M307 151.493C306.093 286.596 142.121 352.932 45.3453 259.169C-15.1204 201.195 -15.1358 101.775 45.3453 43.8014C142.121 -49.9468 306.093 16.3894 306.985 151.477L307 151.493ZM303.158 151.493C303.604 45.5595 194.627 -28.3138 95.9921 13.1635C-25.7538 65.2204 -25.7538 237.78 95.9921 289.822C194.627 331.284 303.604 257.426 303.158 151.493Z" fill="#FAECC8"/>
<path d="M153.585 292.268C28.4274 291.411 -32.945 140.989 53.8276 52.2403C107.517 -3.27171 199.668 -3.27171 253.357 52.2403C340.129 141.005 278.742 291.411 153.6 292.268H153.585ZM153.585 288.491C251.636 288.919 320.092 189.117 281.661 98.7169C233.442 -12.7811 73.7114 -12.7658 25.5078 98.7169C-12.9229 189.117 55.5486 288.919 153.585 288.491Z" fill="#FAECC8"/>
<path d="M153.584 280.389C39.0446 279.578 -17.0111 141.891 62.2935 60.6642C111.404 9.79984 195.779 9.79984 244.889 60.6642C324.194 141.891 268.123 279.578 153.599 280.373L153.584 280.389ZM153.584 276.673C243.199 277.071 305.878 185.906 270.704 103.227C226.588 1.37594 80.5792 1.39123 36.4631 103.227C1.28998 185.906 63.9684 277.086 153.584 276.673Z" fill="#FAECC8"/>
<path d="M153.585 268.494C49.6787 267.745 -1.09096 142.793 70.7611 69.0881C115.292 22.8867 191.877 22.8714 236.423 69.0881C308.26 142.793 257.49 267.745 153.6 268.494H153.585ZM153.585 264.856C234.779 265.238 291.665 182.696 259.749 107.752C219.736 15.5482 87.4333 15.5482 47.4199 107.752C15.5045 182.696 72.3899 265.238 153.585 264.856Z" fill="#FAECC8"/>
<path d="M153.584 256.615C60.2959 255.912 14.8429 143.695 79.227 77.512C119.194 35.9582 187.989 35.9582 227.956 77.512C292.34 143.695 246.872 255.912 153.599 256.615H153.584ZM153.584 253.038C226.358 253.389 277.45 179.47 248.792 112.262C212.882 29.7053 94.3012 29.7053 58.3905 112.262C29.7327 179.47 80.8251 253.389 153.599 253.038H153.584Z" fill="#FAECC8"/>
<path d="M153.585 244.721C70.9301 244.063 30.763 144.582 87.6946 85.9359C123.083 49.0298 184.102 49.0298 219.49 85.9359C276.421 144.597 236.239 244.079 153.585 244.721ZM153.585 241.22C217.938 241.556 263.237 176.259 237.822 116.772C206.014 43.847 101.14 43.8623 69.3474 116.772C43.9318 176.244 89.2312 241.556 153.585 241.22Z" fill="#FAECC8"/>
<path d="M153.585 232.842C81.5643 232.307 46.76 145.453 96.1467 94.3598C127.14 62.0708 180.015 62.0708 211.009 94.3598C260.411 145.453 225.591 232.307 153.57 232.842H153.585ZM153.585 229.417C209.503 229.616 249.086 173.095 226.851 121.313C199.207 58.0805 107.948 58.0805 80.3042 121.313C58.0848 173.095 97.6526 229.631 153.57 229.417H153.585Z" fill="#FAECC8"/>
<path d="M153.585 220.947C92.1974 220.473 62.6637 146.34 104.613 102.784C131.012 75.1576 176.143 75.1423 202.557 102.784C244.507 146.355 214.973 220.473 153.585 220.947ZM153.585 217.599C201.082 217.783 234.857 169.854 215.895 125.823C192.354 72.2222 114.816 72.2375 91.2755 125.823C72.3137 169.869 106.088 217.798 153.585 217.599Z" fill="#FAECC8"/>
<path d="M153.584 209.053C102.83 208.64 78.5819 147.242 113.079 111.208C134.807 88.2444 172.361 88.2444 194.089 111.208C228.602 147.242 204.338 208.64 153.584 209.053ZM153.584 205.797C192.599 206.026 220.673 166.567 204.938 130.333C185.607 86.4098 121.576 86.4098 102.246 130.333C86.4955 166.551 114.585 206.026 153.599 205.797H153.584Z" fill="#FAECC8"/>
<path d="M153.585 197.159C113.51 196.884 94.4714 148.037 121.546 119.631C138.618 101.331 168.552 101.331 185.623 119.631C212.698 148.052 193.644 196.884 153.585 197.159ZM153.585 193.994C184.194 194.193 206.444 163.356 193.967 134.859C178.709 100.567 128.461 100.567 113.203 134.859C100.725 163.356 122.976 194.193 153.585 193.994Z" fill="#FAECC8"/>
<path d="M187.513 151.492C187.267 180.815 151.033 194.483 130.013 174.96C116.321 162.653 116.321 140.347 130.013 128.04C151.033 108.517 187.282 122.185 187.513 151.508V151.492ZM184.439 151.492C184.67 129.447 162.235 113.027 141.399 122.23C116.629 133.284 116.629 169.716 141.399 180.77C162.22 189.958 184.655 173.538 184.439 151.508V151.492Z" fill="#FAECC8"/>
</g>
<defs>
<clipPath id="clip0_536_4139">
<rect width="307" height="303" fill="white"/>
</clipPath>
</defs>
</svg>
