<svg width="315" height="481" viewBox="0 0 315 481" fill="none" xmlns="http://www.w3.org/2000/svg">
<mask id="mask0_536_4175" style="mask-type:alpha" maskUnits="userSpaceOnUse" x="0" y="0" width="315" height="481">
<rect width="315" height="480" transform="matrix(-1 0 0 1 315 0.5)" fill="#D9D9D9"/>
</mask>
<g mask="url(#mask0_536_4175)">
<path d="M-748.83 832.387C-865.349 745.158 -976.795 594.166 -854.81 462.513C-829.93 435.39 -800.044 413.295 -768.678 394.206C-722.031 365.084 -668.927 344.34 -613.382 343.664C-461.837 340.437 -343.36 461.072 -195.861 476.839C-80.191 489.391 16.8485 413.593 86.22 328.731C150.911 247.959 166.476 154.317 75.8032 85.6555C-25.1963 12.1889 -176.381 4.1407 -297.2 15.1319C-462.268 31.4528 -623.2 89.7547 -760.141 183.372C-790.556 204.081 -821.905 223.455 -854.441 240.647C-1236.29 443.456 -1300.58 69.0339 -1009.28 -113.443C-1101.71 -56.3212 -1182.63 37.4644 -1191.34 149.33C-1195.43 205.655 -1172.14 263.032 -1118.11 286.718C-1066.65 309.454 -1007.67 300.85 -955.43 285.086C-884.875 263.08 -820.11 225.979 -759.122 184.841C-622.277 91.671 -461.761 33.4325 -296.99 17.2631C-171.012 4.63728 31.2053 16.9561 112.849 126.306C160.51 192.779 130.944 269.343 84.5086 327.375C15.5687 411.737 -80.6976 487.231 -195.654 474.824C-343.069 458.927 -461.766 338.591 -613.404 342.143C-669.204 342.9 -722.524 363.786 -769.334 393.107C-800.754 412.308 -830.726 434.485 -855.612 461.767C-977.57 594.145 -866.064 745.049 -748.83 832.387Z" fill="#FAECC8"/>
<path d="M-748.83 832.387C-821.551 773.411 -900.688 678.089 -895.333 579.309C-892.598 532.29 -870.171 491.161 -837.961 457.614C-812.544 431.104 -782.459 409.389 -750.799 390.905C-719.261 372.19 -685.428 356.827 -649.355 349.469C-497.73 316.533 -371.119 429.748 -232.088 467.183C-123.55 496.959 -33.8909 460.098 46.128 385.82C79.6772 354.487 111.313 319.832 132.647 278.887C197.402 153.53 104.499 69.8535 -11.0855 35.2951C-219.776 -24.4482 -463.168 26.4776 -652.319 125.851C-717.901 159.457 -775.397 206.438 -840.967 240.041C-873.23 257.039 -907.399 272.18 -942.31 282.845C-996.087 299.057 -1058.06 307.755 -1109.89 281.15C-1110.9 280.615 -1111.96 280.166 -1112.93 279.56L-1118.79 276.011C-1119.77 275.419 -1120.77 274.845 -1121.66 274.147L-1127.23 270.145C-1128.18 269.511 -1129.03 268.754 -1129.9 268.014L-1135.14 263.575C-1137.58 261.178 -1140.04 258.784 -1142.39 256.3L-1146.85 251.087L-1147.95 249.786L-1148.96 248.397L-1153 242.868C-1154.86 240.001 -1156.65 237.066 -1158.39 234.119L-1161.54 228.028L-1162.33 226.509C-1163.73 222.99 -1165.75 219.062 -1166.91 215.418L-1169.16 208.942C-1169.9 206.015 -1172.1 198.898 -1172.57 195.648C-1179.79 161.932 -1175.77 126.687 -1166.08 93.8358C-1138.97 5.44249 -1072.26 -66.2921 -994.775 -114.506C-1072.47 -66.4519 -1139.4 5.19633 -1166.76 93.6334C-1175.98 124.409 -1180.03 157.202 -1174.85 189.071C-1174.18 192.282 -1173.56 195.997 -1172.84 199.229C-1172.6 200.355 -1172.24 201.45 -1171.96 202.563L-1170.14 209.226C-1168.64 213.321 -1167.15 218.343 -1165.33 222.181C-1164.45 224.169 -1163.52 226.637 -1162.49 228.489C-1160.03 233.598 -1156.95 238.818 -1153.9 243.483C-1152.93 244.917 -1150.83 247.661 -1149.85 249.091C-1149.21 250.17 -1144.27 255.843 -1143.23 257.089C-1140.07 260.316 -1136.81 263.832 -1133.28 266.694L-1130.64 268.933C-1129.77 269.684 -1128.9 270.45 -1127.95 271.095L-1122.34 275.145C-1119.84 276.952 -1116.15 278.945 -1113.51 280.629C-1063.08 308.269 -1001.81 301.383 -948.483 286.218C-919.937 278.076 -891.661 266.593 -864.854 253.893C-823.413 233.955 -783.74 210.248 -745.7 184.49C-563.919 61.3346 -339.225 -4.56933 -119.552 16.1613C-64.9423 22.0576 -10.379 33.8438 39.5769 57.093C133.455 100.569 182.365 178.714 130.704 277.881C109.502 318.598 78.0609 353.081 44.695 384.245C-34.7732 458.063 -123.674 494.792 -231.548 465.247C-370.634 427.695 -497.844 314.761 -649.626 348.051C-685.837 355.482 -719.817 370.969 -751.424 389.787C-783.142 408.37 -813.306 430.19 -838.747 456.839C-871.023 490.632 -893.443 532.012 -896.078 579.269C-901.212 678.289 -821.886 773.417 -748.83 832.387Z" fill="#FAECC8"/>
<path d="M-748.83 832.387C-802.654 784.778 -851.571 723.45 -873.604 654.341C-914.613 523.526 -823.389 433.794 -715.197 378.013C-653.753 346.26 -590.04 336.135 -522.033 349.584C-410.75 371.052 -317.548 443.447 -207.63 469.343C-196.749 471.86 -184.739 473.967 -173.622 475.255C-86.1778 485.779 -11.5121 449.198 52.4325 392.099C83.1298 364.631 112.207 334.172 134.585 299.461C219.546 166.864 132.939 72.5456 1.27975 33.6045C-174.558 -16.2757 -370.948 13.4984 -538.987 79.1012C-607.329 106.223 -672.623 140.991 -733.234 182.592C-765.469 204.499 -798.895 224.705 -833.482 242.687C-837.837 244.803 -847.609 249.705 -851.973 251.836C-855.405 253.489 -867.223 258.795 -870.729 260.444C-885.063 266.556 -900.767 272.988 -915.596 277.838C-976.136 298.05 -1049.63 310.123 -1106.33 273.73L-1113.28 268.729C-1115.96 266.597 -1118.54 264.343 -1121.13 262.118L-1125.99 257.289C-1126.79 256.484 -1127.62 255.695 -1128.34 254.806L-1132.79 249.604C-1133.57 248.767 -1134.19 247.803 -1134.86 246.891L-1138.9 241.361L-1140.69 238.452C-1143.64 233.858 -1146.61 228.344 -1148.8 223.402L-1151.5 217.105C-1152.69 213.89 -1153.78 210.65 -1154.89 207.402C-1155.69 204.213 -1157.75 197.565 -1158.25 194.118L-1158.94 190.759C-1159.84 186.612 -1160.12 182.817 -1160.76 178.902C-1161 175.768 -1161.37 171.781 -1161.61 168.648C-1161.73 166.228 -1161.77 160.748 -1161.87 158.358L-1161.83 156.64L-1161.72 153.21C-1156.44 39.1983 -1073.75 -57.3103 -980.335 -115.55C-1074.04 -57.4856 -1157.03 39.0309 -1162.58 153.188L-1162.7 156.632L-1162.74 158.351C-1162.64 160.63 -1162.59 166.4 -1162.5 168.683C-1162.23 171.833 -1161.94 175.841 -1161.68 178.991C-1161.22 182.259 -1160.54 187.736 -1159.87 190.924C-1159.06 194.264 -1158.66 197.775 -1157.65 201.025L-1155.84 207.68C-1154.49 211.946 -1152.88 216.501 -1151.09 220.639C-1150.14 222.631 -1149.35 225.076 -1148.3 226.945L-1145.14 233.081C-1143.64 235.793 -1141.43 239.275 -1139.8 241.962C-1137.78 244.62 -1135.75 247.777 -1133.65 250.304C-1131.73 252.566 -1128.78 256.163 -1126.8 258.083L-1121.9 262.973C-1119.29 265.229 -1116.68 267.511 -1113.98 269.673L-1108.37 273.722C-1053.27 310.594 -981.527 300.168 -921.618 281.459C-916.716 279.809 -910.115 277.584 -905.287 275.929C-903.658 275.361 -891.178 270.55 -889.168 269.832C-883.139 267.314 -876.15 264.468 -870.068 261.877C-866.403 260.15 -855.142 255.101 -851.261 253.28C-809.864 233.402 -770.204 209.782 -732.197 184.081C-550.77 60.8642 -326.537 -5.19244 -107.106 14.9059C-52.5364 20.6085 1.97061 32.2294 52.0047 55.097C175.933 112.215 200.78 212.133 116.988 320.751C95.5376 348.771 69.905 374.209 43.3068 397.345C-21.1624 452.216 -94.2485 484.9 -180.169 472.382C-190.147 471.077 -200.74 468.915 -210.5 466.675C-318.861 439.94 -411.472 369.166 -521.692 348.026C-592.323 334.127 -658.88 345.723 -721.851 380.132C-828.166 436.36 -914.703 526.423 -874.113 654.55C-851.846 723.728 -802.81 784.868 -748.796 832.426L-748.83 832.387Z" fill="#FAECC8"/>
<path d="M-748.83 832.387C-808.337 775.291 -865.359 692.432 -871.392 608.243C-872.413 592.303 -871.688 576.147 -868.757 560.446C-865.423 542.569 -859.359 524.91 -850.906 508.799C-815.253 440.039 -737.141 390.13 -666.692 362.071C-488.933 295.282 -358.146 426.644 -197.246 467.943C-88.7031 495.085 0.335602 454.605 78.7565 380.202C124.677 336.419 169.653 284.488 180.982 220.178C187.467 183.56 177.179 144.983 153.906 116.074C96.5432 45.5067 -7.27151 20.6913 -94.0659 11.4236C-277.159 -5.29842 -463.619 39.3028 -625.483 124.802C-649.771 137.788 -673.522 151.785 -696.623 166.772C-734.678 192.294 -772.91 217.695 -813.667 238.748C-824.857 244.691 -839.113 251.587 -850.715 256.8C-910.701 283.618 -984.568 306.74 -1050.11 290.625C-1094.41 279.837 -1127.24 249.667 -1140.52 205.882C-1151.75 168.459 -1148.09 128.102 -1137 91.0446C-1109.7 2.93521 -1043.2 -68.5732 -965.865 -116.663C-1043.4 -68.7247 -1110.12 2.70025 -1137.68 90.8422C-1148.91 128.009 -1152.69 168.565 -1141.49 206.178C-1128.18 250.401 -1095.15 280.877 -1050.42 291.849C-984.587 308.151 -910.378 285.094 -850.068 258.225C-838.399 252.995 -824.145 246.135 -812.91 240.18C-772.063 219.15 -733.748 193.788 -695.625 168.296C-672.543 153.373 -648.824 139.434 -624.567 126.516C-463.022 41.3063 -276.968 -3.14992 -94.2946 13.6244C-8.02219 22.8757 95.0824 47.5568 152.091 117.474C174.97 145.947 185.153 183.772 178.754 219.813C169.403 274.303 134.445 320.412 96.8233 359.364C87.4295 369.044 77.1643 379.066 67.1647 387.924C-53.269 495.627 -158.8 494.276 -299.892 428.62C-418.55 373.923 -534.24 309.549 -667.184 360.772C-737.909 389.062 -816.102 439.161 -851.756 508.366C-860.196 524.57 -866.256 542.335 -869.555 560.299C-872.456 576.064 -873.161 592.299 -872.079 608.283C-865.81 692.589 -808.601 775.338 -748.845 832.379L-748.83 832.387Z" fill="#FAECC8"/>
<path d="M-748.83 832.387C-814.221 763.706 -875.163 659.795 -856.944 561.908C-848.794 516.454 -823.114 476.46 -789.771 445.122C-763.15 419.96 -732.13 399.893 -699.821 382.799C-667.59 365.545 -632.872 352.588 -596.667 347.022C-444.257 322.41 -321.146 434.375 -180.345 468.174C-103.839 486.076 -35.2627 472.316 30.3197 429.371C68.6073 404.088 102.668 372.509 132.859 338.073C230.548 226.248 220.284 113.289 78.7527 49.4083C-98.9166 -26.3994 -336.873 7.57692 -512.105 77.7756C-571.72 101.622 -629.047 131.177 -682.866 166.187C-728.367 196.937 -774.64 226.824 -824.383 250.321C-882.704 277.559 -950.875 301.186 -1015.96 293.264L-1019.36 292.866L-1022.73 292.253L-1029.47 291.042C-1031.7 290.607 -1033.9 289.958 -1036.12 289.435C-1041.14 288.327 -1045.95 286.529 -1050.83 284.965L-1052.42 284.319L-1058.75 281.712C-1088.72 268.578 -1111.09 244.692 -1122.85 214.164C-1130.47 193.887 -1133.58 171.966 -1132.77 150.356C-1128.51 55.6095 -1068.56 -28.4128 -996.322 -86.098C-981.968 -97.4802 -966.94 -108.009 -951.406 -117.725C-1028.88 -69.8383 -1095.52 1.50355 -1123.14 89.5312C-1133.71 124.515 -1137.77 162.333 -1128.93 198.113C-1119.45 236.054 -1096.46 265.579 -1060.84 282.176C-1058.58 283.134 -1055.16 284.538 -1052.87 285.487L-1051.28 286.141L-1049.64 286.688C-1043.12 288.956 -1036.48 290.83 -1029.74 292.306C-1026.9 292.818 -1022.16 293.688 -1019.57 294.159C-958.756 302.408 -897.984 283.913 -842.522 260.29C-828.158 253.977 -812.957 246.743 -799.099 239.484C-766.565 222.509 -735.191 203.405 -704.779 182.912C-584.019 99.9656 -444.683 44.4814 -300.142 20.9081C-192.131 3.84186 -79.3938 2.39608 26.3777 32.6728C78.2686 48.276 130.59 72.3577 165.482 115.076C227.753 192.73 181.049 283.358 122.112 346.926C39.9073 435.372 -55.2725 495.875 -179.915 466.232C-320.929 432.309 -444 320.718 -596.919 345.587C-633.261 351.226 -668.152 364.301 -700.463 381.661C-748.836 407.351 -795.232 440.239 -826.3 486.088C-836.58 501.174 -845.089 517.841 -850.857 535.168C-856.77 552.45 -860.041 570.875 -860.781 589.09C-864.326 678.454 -808.898 769.696 -748.864 832.396L-748.83 832.387Z" fill="#FAECC8"/>
<path d="M-748.83 832.387C-800.915 772.22 -844.931 692.307 -848.751 611.528C-850.655 567.59 -838.949 524.898 -814.53 488.283C-782.566 440.523 -734.264 406.439 -683.611 380.679C-618.984 345.934 -542.701 334.617 -471.123 351.327C-338.359 379.119 -220.949 484.859 -81.6946 474.481C-7.49927 468.531 57.9974 426.029 110.397 375.522C133.538 353.456 155.549 329.505 173.537 303.027C266.116 166.741 178.599 68.5322 40.2702 29.0464C-166.942 -27.7875 -411.2 23.815 -598.046 123.484C-630.38 140.754 -661.584 160.088 -691.861 180.725C-741.138 213.869 -792.865 243.931 -848.18 265.856C-902.375 286.796 -964.359 302.743 -1022.03 288.256C-1069.01 276.41 -1101.79 243.595 -1113.55 196.492C-1117.91 178.815 -1119.18 160.333 -1117.96 142.18C-1110.72 50.108 -1052.35 -30.8678 -981.79 -87.2034C-967.444 -98.5714 -952.439 -109.095 -936.915 -118.807C-1014.29 -70.9475 -1080.93 0.324051 -1108.59 88.2396C-1119.2 123.162 -1123.26 160.98 -1114.52 196.74C-1104.86 236.088 -1079.71 267.449 -1041.93 282.928C-1029.33 288.266 -1015.64 291.664 -1002.07 293.426C-958.648 299.086 -914.682 290.142 -873.485 276.615C-843.087 266.583 -813.524 253.385 -785.138 238.675C-752.62 221.729 -721.26 202.665 -690.864 182.201C-555.168 88.9657 -396.022 30.0607 -232.298 12.6813C-123.921 2.10337 -10.1447 6.50923 91.0575 49.8733C206.031 100.569 246.063 193.148 171.712 301.785C153.824 328.141 131.932 351.999 108.907 373.962C56.8614 424.17 -8.1532 466.495 -81.8694 472.437C-127.538 476.284 -173.172 466.42 -215.932 450.847C-301.869 419.714 -380.696 369.345 -470.791 349.736C-542.676 333.048 -619.43 344.539 -684.214 379.506C-735.005 405.424 -783.408 439.715 -815.351 487.734C-839.759 524.526 -851.432 567.474 -849.397 611.544C-845.39 692.394 -801.14 772.281 -748.845 832.379L-748.83 832.387Z" fill="#FAECC8"/>
<path d="M-748.83 832.387C-793.01 776.256 -828.282 705.887 -836.376 634.354C-842.002 583.757 -831.789 533.292 -803.779 490.45C-771.401 440.236 -720.772 404.867 -667.836 378.82C-619.027 353.951 -564.01 340.747 -509.179 344.192C-416.763 349.466 -334.563 396.251 -251.551 432.638C-201.413 454.636 -148.497 473.751 -93.1212 474.779C-5.50232 477.107 70.4904 428.319 130.798 368.83C191.879 309.759 257.369 218.004 210.231 132.28C177.756 75.4047 114.316 45.6245 53.7829 27.6853C-123.891 -20.0201 -315.481 9.83786 -484.573 76.1798C-539.82 98.3628 -593.092 125.486 -643.411 157.298C-655.053 164.564 -666.416 172.332 -677.831 179.947C-723.324 210.502 -770.836 238.461 -821.414 259.742C-886.727 287.206 -973.501 310.085 -1039.59 274.751C-1065.83 260.401 -1085.54 236.523 -1095.18 208.265L-1096.87 203.43L-1099.14 195.203C-1099.47 194.113 -1099.67 192.99 -1099.9 191.873L-1100.59 188.525C-1101.66 184.161 -1102.09 179.346 -1102.77 175.035C-1112.88 72.5608 -1044.77 -27.0942 -967.281 -88.3028C-952.946 -99.6678 -937.938 -110.18 -922.425 -119.889C-941.832 -107.826 -960.502 -94.4461 -978.016 -79.7652C-1050.81 -18.5781 -1113.16 76.7002 -1103.71 175.13C-1103.38 177.816 -1102.64 182.8 -1102.23 185.334C-1101.85 187.048 -1101.22 190.363 -1100.86 192.069C-1100.32 195.051 -1098.61 200.711 -1097.83 203.711C-1089.87 229.427 -1074.11 253.028 -1051.81 268.435L-1049.02 270.452L-1046.08 272.249C-1044.11 273.426 -1042.17 274.663 -1040.17 275.797L-1034.02 278.908C-1031.14 280.445 -1027.58 281.749 -1024.55 283.041C-1020.92 284.581 -1015.27 286.301 -1011.51 287.481C-1009.58 287.986 -1003.55 289.483 -1001.5 290.002C-943.629 301.816 -884.261 286.077 -830.323 265.122C-810.181 256.924 -790.347 247.848 -771.073 237.803C-738.571 220.885 -707.219 201.836 -676.826 181.408C-526.198 77.9581 -346.628 16.2244 -163.979 7.57253C-46.7559 1.79987 143.741 22.4393 208.225 133.371C254.786 217.975 189.548 309.013 129.275 367.279C69.4119 426.36 -6.07239 475.024 -93.1042 472.731C-148.206 471.738 -200.853 452.683 -250.791 430.848C-333.943 394.522 -416.497 347.76 -509.114 342.637C-564.17 339.252 -619.506 352.613 -668.431 377.633C-721.505 403.837 -772.255 439.431 -804.597 489.912C-832.584 532.977 -842.734 583.629 -836.957 634.389C-828.667 705.978 -793.207 776.285 -748.848 832.368L-748.83 832.387Z" fill="#FAECC8"/>
<path d="M-748.83 832.387C-804.478 754.028 -845.775 644.913 -818.358 549.057C-793.056 458.599 -710.733 400.11 -627.468 366.152C-482.671 307.871 -365.867 374.651 -235.996 433.061C-202.428 447.613 -168.034 460.849 -132.061 468.205C-14.2196 494.298 81.7965 435.253 160.366 352.422C283.737 224.508 267.298 97.5301 93.7695 34.7956C-139.429 -42.9722 -439.723 31.4578 -640.813 163.85C-693.722 199.697 -748.024 234.164 -807.207 258.771C-840.752 272.916 -876.017 284.144 -912.123 289.227C-954.477 295.023 -1001.02 291.616 -1036.79 266.273C-1057.34 251.983 -1072.67 230.622 -1080.75 207.018L-1081.87 203.798L-1082.43 202.18L-1082.87 200.531L-1084.68 193.95C-1086.3 187.46 -1087.43 180.419 -1088.3 173.801C-1098.29 71.3448 -1030.25 -28.1965 -952.768 -89.3908C-938.434 -100.756 -923.433 -111.254 -907.932 -120.96C-923.468 -111.292 -938.488 -100.825 -952.857 -89.4991C-1027.98 -30.0915 -1092.17 61.2444 -1090.18 160.219C-1089.99 167.991 -1089.03 176.435 -1087.77 184.117C-1087.12 187.452 -1086.42 190.929 -1085.65 194.197C-1085.3 195.689 -1083.73 201.157 -1083.39 202.487C-1077.07 222.704 -1066.23 241.698 -1050.77 256.329C-1049.63 257.563 -1044.5 261.908 -1043.01 263.144C-1041.58 264.336 -1039.03 266.118 -1037.48 267.251C-1033.85 270.042 -1029.73 272.256 -1025.86 274.631L-1019.71 277.742C-1018.67 278.234 -1017.67 278.82 -1016.61 279.255L-1013.43 280.566C-1011.29 281.425 -1009.2 282.367 -1007.04 283.146C-1002.93 284.462 -997.967 286.292 -993.886 287.193C-932.508 303.031 -863.69 283.93 -806.585 260.192C-755.891 238.988 -708.237 211.063 -662.625 180.548C-482.21 57.1933 -259.349 -9.39746 -40.5902 8.90985C13.8199 14.1505 68.1811 25.1375 118.444 47.0182C273.873 116.273 268.302 237.334 158.824 350.936C59.8352 454.359 -43.5424 502.864 -184.273 451.45C-335.697 395.701 -458.563 297.361 -627.934 364.907C-711.566 399.155 -793.857 457.9 -819.075 548.852C-846.277 644.927 -804.743 754.027 -748.794 832.39L-748.83 832.387Z" fill="#FAECC8"/>
<path d="M-748.83 832.387C-811.863 733.339 -848.167 595.517 -779.631 490.242C-746.121 438.054 -693.329 401.456 -637.68 375.836C-571.796 343.807 -495.478 335.269 -424.28 352.718C-284.023 383.141 -157.482 500.99 -7.5253 467.805C64.7352 451.399 124.919 403.398 175.188 350.962C224.015 299.609 271.832 227.914 249.498 154.355C214.892 50.1777 71.3225 14.7163 -26.3371 5.59549C-240.884 -12.1334 -459.687 51.4586 -637.988 170.485C-723.404 228.708 -846.04 299.177 -952.389 289.608C-959.15 288.992 -965.987 287.819 -972.638 286.536L-982.574 284.042C-983.667 283.734 -984.734 283.347 -985.825 283.002L-992.307 280.869C-995.881 279.567 -998.36 278.356 -1001.79 277.015C-1002.83 276.574 -1003.83 276.011 -1004.85 275.516L-1010.94 272.449L-1016.79 268.93C-1017.75 268.324 -1018.75 267.786 -1019.69 267.135L-1022.46 265.149C-1039.27 253.476 -1052.51 236.965 -1061.26 218.527C-1063.83 212.845 -1066.09 206.972 -1068.02 201.034L-1068.46 199.386L-1070.27 192.804C-1071.87 186.334 -1073.01 179.259 -1073.88 172.652C-1083.59 72.3826 -1018.62 -24.9655 -943.657 -86.1589C-927.737 -99.1508 -910.92 -111.133 -893.495 -122.016C-909.023 -112.362 -924.043 -101.895 -938.412 -90.5692C-1013.52 -31.1758 -1077.69 60.1174 -1075.75 159.067C-1075.79 162.805 -1075.07 168.947 -1074.81 172.758C-1074.4 175.185 -1073.8 180.588 -1073.35 182.957C-1072.57 186.281 -1072.09 189.782 -1071.24 193.04L-1069.44 199.673C-1063.66 219.41 -1053.44 238.127 -1038.86 252.754C-1034.31 257.483 -1028.56 262.372 -1023.16 266.119C-1020.25 268.451 -1014.8 271.498 -1011.55 273.513C-1008.94 274.834 -1004.76 276.993 -1002.32 278.142L-999.137 279.454C-997.005 280.313 -994.911 281.254 -992.761 282.048L-986.226 284.203C-985.134 284.548 -984.053 284.943 -982.946 285.26C-920.275 302.554 -850.819 283.45 -792.345 259.212C-775.465 252.225 -758.849 244.3 -742.618 235.924C-710.133 219.035 -678.783 200.021 -648.409 179.611C-443.77 39.4413 -162.884 -36.4951 80.987 27.4273C207.111 62.7794 303.738 151.685 223.84 284.897C209.715 308.321 192.384 329.659 173.579 349.494C111.963 414.742 31.2137 472.954 -62.194 471.84C-117.266 471.633 -170.107 453.111 -220.117 431.547C-319.118 388.266 -421.196 330.629 -533.174 344.119C-569.65 348.088 -605.152 359.019 -638.266 374.683C-692.041 399.524 -743.002 434.513 -776.685 484.032C-805.444 525.56 -818.846 576.567 -817.272 626.819C-814.849 700.004 -787.938 771.063 -748.884 832.414L-748.83 832.387Z" fill="#FAECC8"/>
<path d="M-748.83 832.387C-788.612 761.676 -813.485 677.92 -804.837 596.371C-799.864 551.06 -782.407 507.056 -753.936 471.326C-719.986 428.058 -672.919 396.997 -623.135 374.643C-556.868 343.461 -480.561 335.779 -409.442 353.249C-269.312 383.827 -142.346 501.286 7.4758 467.103C70.4039 452.477 124.724 413.451 170.497 369.166C196.832 343.744 221.457 316.16 240.397 284.703C254.47 261.088 265.421 235.161 268.692 207.662C273.629 170.882 261.305 133.066 237.13 105.145C177.546 36.8431 74.8225 13.2257 -12.056 4.49734C-219.762 -12.7208 -431.348 46.6778 -606.407 158.128C-611.535 161.497 -618.535 166.005 -623.59 169.463C-665.083 197.697 -708.052 224.15 -753.481 245.602C-820.104 276.578 -905.542 305.072 -977.873 279.754C-979.999 278.965 -982.086 278.046 -984.193 277.192L-987.344 275.897C-988.392 275.445 -989.382 274.893 -990.406 274.398L-996.499 271.331L-1002.33 267.798C-1003.3 267.192 -1004.3 266.654 -1005.22 266L-1007.99 264.014C-1028.51 249.692 -1043.81 228.322 -1051.85 204.72C-1056.41 191.964 -1058.95 178.21 -1059.96 164.705C-1065.07 81.9283 -1020.67 3.11833 -964.524 -54.8824C-939.074 -80.9566 -909.895 -103.847 -878.997 -123.112C-894.524 -113.459 -909.545 -102.992 -923.903 -91.6686C-997.87 -32.9426 -1059.52 53.8773 -1061.4 151.065C-1061.42 183.198 -1053.36 215.569 -1033.48 241.3C-1030.62 244.752 -1027.66 248.503 -1024.39 251.615C-1022.71 253.186 -1021.15 255.016 -1019.45 256.412L-1014.21 260.873C-1011.81 262.837 -1008.44 265.142 -1005.9 267C-1004.39 267.966 -998.828 271.354 -997.094 272.392C-994.424 273.732 -990.342 275.847 -987.861 277.021C-984.693 278.336 -981.461 279.705 -978.305 280.927L-971.77 283.082C-916.266 299.953 -856.842 286.891 -803.484 268.171C-778.776 259.182 -754.682 248.351 -731.231 236.467C-697.702 219.117 -665.311 199.633 -633.992 178.573C-453.687 55.2115 -230.95 -11.4419 -12.2592 6.70323C74.1228 15.4204 176.139 38.9148 235.369 106.614C259.146 134.126 271.327 171.186 266.454 207.396C259.397 262.136 225.149 308.873 188.289 348.197C126.677 413.42 46.2458 471.919 -47.1231 471.444C-102.194 471.597 -155.122 453.291 -205.181 431.86C-288.591 396.096 -371.011 349.971 -463.357 343.345C-518.279 339.023 -573.823 350.348 -623.682 373.455C-684.956 400.859 -742.465 442.627 -775.702 502.074C-833.444 605.455 -804.27 734.321 -748.83 832.387Z" fill="#FAECC8"/>
<path d="M-748.83 832.387C-796.096 737.383 -818.675 614.262 -770.068 515.6C-754.051 482.799 -730.435 453.923 -702.563 430.421C-632.381 373.106 -540.679 337.537 -449.364 344.944C-357.223 351.841 -275.054 397.746 -191.698 433.487C-141.387 455.007 -88.1353 473.262 -32.7669 473.006C61.1364 473.229 142.101 414.383 204.132 348.843C223.043 328.908 240.51 307.449 254.717 283.883C335.103 149.843 239.218 59.0323 110.625 23.0916C-124.338 -39.6118 -403.692 32.2961 -603.316 164.5C-654.182 199.211 -706.995 231.824 -763.941 255.616C-797.478 269.746 -832.749 280.952 -868.846 286.021C-911.192 291.803 -957.731 288.359 -993.464 262.982C-1010.28 251.309 -1023.52 234.798 -1032.28 216.362C-1034.85 210.681 -1037.11 204.808 -1039.04 198.87L-1039.48 197.222L-1041.29 190.64C-1042.89 184.159 -1044.02 177.106 -1044.9 170.488C-1054.84 68.0932 -986.793 -31.4877 -909.346 -92.6363C-895.02 -103.987 -880.022 -114.496 -864.518 -124.191C-880.042 -114.527 -895.066 -104.071 -909.435 -92.7446C-984.548 -33.3512 -1048.72 57.942 -1046.77 156.892C-1046.84 160.599 -1046.08 166.791 -1045.83 170.583C-1045.47 173.033 -1044.78 178.403 -1044.38 180.782C-1043.72 184.116 -1043.02 187.594 -1042.26 190.865L-1040.46 197.498C-1034.68 217.234 -1024.47 235.952 -1009.88 250.578C-1005.33 255.308 -999.579 260.197 -994.171 263.94C-991.259 266.273 -985.808 269.32 -982.561 271.334C-979.93 272.661 -975.781 274.806 -973.328 275.964L-970.149 277.275C-968.017 278.134 -965.923 279.076 -963.772 279.87L-957.237 282.025C-956.146 282.37 -955.065 282.765 -953.96 283.07C-891.29 300.364 -821.834 281.261 -763.362 257.011C-746.482 250.025 -729.866 242.099 -713.635 233.723C-681.151 216.834 -649.801 197.821 -619.427 177.41C-499.022 94.4864 -360.155 38.7314 -215.963 14.843C-99.4193 -3.70451 23.3548 -4.93087 136.032 33.5556C253.276 74.5323 325.338 162.448 252.814 282.71C238.689 306.134 221.355 327.462 202.542 347.31C140.885 412.497 60.5654 471.099 -32.7927 470.933C-87.8758 471.222 -140.847 453.023 -190.947 431.664C-274.426 396.003 -356.938 350.119 -449.257 343.365C-540.97 336.088 -632.938 371.837 -703.308 429.527C-731.211 453.181 -754.85 482.244 -770.839 515.194C-819.252 614.176 -796.421 737.338 -748.83 832.387Z" fill="#FAECC8"/>
<path d="M-748.83 832.387C-777.795 765.617 -792.957 691.602 -786.951 618.79C-777.437 500.988 -702.578 417.336 -595.968 372.988C-545.844 351.096 -490.419 340.404 -435.783 344.959C-324.677 353.145 -229.768 417.45 -126.657 452.935C-111.494 458.091 -95.9996 462.509 -80.3339 465.859C19.6598 488.273 103.979 452.278 178.519 386.344C205.671 362.133 232.026 335.66 253.546 306.24C299.334 244.716 320.513 167.755 266.621 103.673C230.733 61.2338 177.964 37.5484 125.614 22.1643C-52.0424 -25.3415 -243.536 4.56276 -412.543 70.9539C-467.761 93.1534 -521.008 120.282 -571.302 152.099C-582.943 159.365 -594.291 167.142 -605.699 174.741C-643.588 200.254 -682.941 223.72 -724.218 243.326C-796.987 277.596 -902.721 311.468 -976.111 264.005L-981.653 260.033C-982.569 259.353 -983.527 258.745 -984.371 257.973L-989.573 253.562C-990 253.183 -990.454 252.836 -990.861 252.44L-992.062 251.236L-994.476 248.83C-997.419 245.976 -1000.89 241.918 -1003.54 238.649C-1012.96 226.5 -1019.9 212.576 -1024.55 197.946C-1025.7 193.662 -1027.54 187.472 -1028.25 183.049C-1029.32 178.755 -1029.75 173.822 -1030.43 169.57C-1040.45 67.1085 -972.394 -32.4612 -894.911 -93.6555C-880.577 -105.021 -865.579 -115.529 -850.075 -125.225C-881.039 -106.026 -910.318 -83.1931 -935.839 -57.1599C-995.516 3.78265 -1043.9 92.4339 -1029.91 179.875C-1026.11 201.307 -1017.82 222.069 -1004.44 239.349C-1002.27 242.012 -1000.04 244.647 -997.76 247.222C-996.569 248.477 -994.09 250.854 -992.891 252.095L-991.676 253.308C-991.266 253.715 -990.812 254.062 -990.385 254.44C-988.123 256.37 -984.666 259.434 -982.396 260.99L-979.605 263.006C-975.98 265.797 -971.861 268.01 -967.987 270.386C-965.291 271.731 -961.255 273.859 -958.746 275.001C-955.578 276.316 -952.34 277.708 -949.182 278.893C-946.307 279.829 -942.014 281.299 -939.359 282.09C-937.414 282.566 -931.401 284.117 -929.34 284.622C-870.372 296.634 -809.823 280.314 -755.044 258.545C-735.966 250.776 -717.24 242.057 -698.969 232.582C-666.476 215.678 -635.129 196.654 -604.747 176.229C-454.192 72.7749 -274.718 10.9949 -92.1304 2.25114C24.4117 -3.77177 216.089 17.2728 280.239 127.5C327.313 211.954 262.311 303.062 202.118 361.45C184.357 378.89 165.128 395.797 145.165 410.593C74.689 462.675 -0.49118 483.276 -86.6387 462.453C-153.568 446.516 -214.461 413.577 -277.512 387.046C-344.375 358.195 -417.054 336.431 -490.641 343.889C-527.02 347.23 -563.047 357.28 -596.535 371.818C-703.472 416.47 -778.298 500.606 -787.56 618.761C-793.378 691.691 -778.028 765.643 -748.884 832.414L-748.83 832.387Z" fill="#FAECC8"/>
</g>
</svg>
