<svg width="315" height="701" viewBox="0 0 315 701" fill="none" xmlns="http://www.w3.org/2000/svg">
<g opacity="0.3">
<mask id="mask0_485_3467" style="mask-type:alpha" maskUnits="userSpaceOnUse" x="0" y="0" width="315" height="701">
<rect y="0.5" width="315" height="700" fill="#D9D9D9"/>
</mask>
<g mask="url(#mask0_485_3467)">
<path d="M373.788 1207.23C525.918 1238.44 726.992 1227.52 751.116 1060.25C756.259 1025.97 753.813 991.127 747.874 957.029C739.644 905.877 720.069 855.135 682.305 814.748C580.407 703.726 399.451 691.266 284.723 594.62C194.599 518.943 189.993 403.348 211.931 302.195C233.733 206.881 300.013 139.156 419.041 162.974C549.145 191.325 660.067 295.282 734.38 388.876C834.837 517.535 897.912 668.557 915.391 823.627C919.34 858.018 925.034 892.276 933.341 926.07C1029.97 1323.32 1382.28 1143.6 1331.4 823.792C1348.18 924.794 1326.87 1039.64 1240.87 1113.43C1197.37 1150.38 1134.11 1168.24 1077.36 1143.66C1023.15 1120.34 989.535 1072.69 966.463 1025.58C935.886 961.516 921.72 892.507 913.479 823.78C895.699 669.049 832.859 518.366 732.482 390.012C655.954 291.718 506.313 153.607 360.048 160.847C272.495 166.665 229.921 234.159 214.227 302.608C192.403 403.148 196.725 518.004 286.238 593.255C401.014 689.761 581.876 702.56 683.571 813.846C721.445 854.465 741.052 905.448 749.23 956.838C755.115 991.042 757.552 1026 752.283 1060.38C727.544 1228.06 526.501 1238.89 373.788 1207.23Z" fill="#73206F"/>
<path d="M373.788 1207.23C472.464 1223.97 605.461 1223.39 683.01 1159.92C719.795 1129.57 738.151 1088.6 743.521 1045.17C747.789 1010.87 744.894 976.113 738.254 942.168C731.888 908.173 721.183 874.548 702.348 844.143C624.83 715.131 444.365 692.339 317.659 614.866C218.288 554.718 186.749 467.937 192.636 365.51C195.261 322.45 201.938 278.763 220.896 238.694C279.324 116.422 412.24 132.782 520.406 195.115C713.518 309.26 839.55 515.18 888.314 711.303C905.918 778.79 906.944 848.53 924.543 916.007C932.821 949.488 943.941 983.22 959.254 1014.78C983.021 1063.28 1018.63 1113.13 1076.26 1134.38C1077.4 1134.78 1078.5 1135.28 1079.67 1135.61L1086.63 1137.68C1087.79 1138.03 1088.95 1138.4 1090.14 1138.62L1097.27 1140.21C1098.45 1140.51 1099.66 1140.67 1100.87 1140.85L1108.13 1141.94C1111.79 1142.25 1115.46 1142.58 1119.12 1142.77L1126.48 1142.83L1128.32 1142.84L1130.16 1142.73L1137.49 1142.3C1141.13 1141.91 1144.78 1141.42 1148.4 1140.9L1155.58 1139.48L1157.38 1139.14C1161.24 1138.02 1165.87 1137.11 1169.66 1135.74L1176.54 1133.46C1179.46 1132.22 1186.83 1129.5 1189.83 1127.88C1222.54 1112.73 1248.76 1088.57 1269.09 1061.76C1323.09 988.894 1336.06 897.578 1322.26 812.709C1336.34 897.634 1323.59 989.053 1269.72 1062.13C1250.77 1087.34 1226.6 1110.05 1196.81 1125.55C1193.71 1127.01 1190.22 1128.81 1187.07 1130.24C1185.98 1130.74 1184.83 1131.15 1183.72 1131.62L1176.98 1134.33C1172.58 1135.72 1167.42 1137.68 1163.01 1138.69C1160.77 1139.25 1158.1 1140.07 1155.87 1140.45C1149.96 1141.76 1143.54 1142.7 1137.61 1143.32C1135.76 1143.49 1132.05 1143.63 1130.2 1143.79C1128.87 1143.98 1120.8 1143.85 1119.05 1143.85C1114.22 1143.52 1109.08 1143.3 1104.29 1142.49L1100.63 1141.94C1099.41 1141.76 1098.18 1141.6 1096.99 1141.3L1089.79 1139.71C1086.58 1139.01 1082.4 1137.55 1079.19 1136.67C1021.66 1117.05 985.054 1068.8 960.739 1021.26C947.742 995.803 937.678 968.52 929.629 941.56C917.438 899.698 909.566 856.834 904.507 813.908C880.389 608.736 779.577 407.232 610.974 261.635C568.449 225.889 521.112 193.731 467.525 171.808C367.001 130.481 268.986 142.445 223.064 239.485C204.202 279.321 197.533 322.765 194.92 365.59C189.032 467.344 220.155 553.499 318.878 613.309C445.719 690.751 626.367 714.143 703.701 843.483C722.571 874.031 733.276 907.836 739.605 941.943C746.203 975.989 749.067 1010.87 744.7 1045.27C739.174 1088.89 720.607 1130.01 683.558 1160.43C605.658 1223.89 472.691 1224.21 373.788 1207.23Z" fill="#73206F"/>
<path d="M373.788 1207.23C450.078 1217.23 534.267 1215.42 606.308 1189.56C742.192 1140.12 753.06 1020.3 724.296 908.762C708.021 845.372 672.393 793.403 614.414 752.572C519.983 685.434 396.14 662.049 299.008 598.567C289.431 592.254 279.413 584.881 270.683 577.657C201.7 521.071 180.275 445.251 183.122 364.762C184.535 326.088 189.527 286.775 202.637 249.718C253.08 108.532 390.405 113.938 513.265 185.195C675.601 281.647 786.603 440.971 848.576 601.514C873.417 667.074 889.869 735.055 897.468 803.79C901.69 840.214 908.131 876.468 917.203 912.216C918.467 916.629 921.177 926.62 922.435 931.047C923.443 934.516 927.232 946.224 928.295 949.743C933.157 963.749 938.702 978.934 944.942 992.535C970.085 1048.31 1010.86 1108.49 1079.91 1127.34L1088.82 1129.32C1092.42 1129.96 1096.05 1130.46 1099.67 1130.98L1106.99 1131.56C1108.21 1131.66 1109.43 1131.77 1110.66 1131.75L1118.01 1131.82C1119.23 1131.87 1120.45 1131.74 1121.67 1131.67L1129 1131.24L1132.63 1130.77C1138.44 1130.12 1145.03 1128.93 1150.6 1127.53L1157.64 1125.67C1161.11 1124.58 1164.53 1123.42 1167.97 1122.26C1171.14 1120.9 1178.02 1118.37 1181.21 1116.65L1184.45 1115.12C1188.48 1113.27 1191.79 1111.18 1195.45 1109.28C1198.2 1107.56 1201.73 1105.42 1204.47 1103.7C1206.54 1102.32 1211.08 1099.05 1213.12 1097.68L1214.5 1096.61L1217.25 1094.46C1307.38 1021.84 1329.7 904.074 1313.16 801.685C1330.05 904.175 1307.92 1022.16 1217.86 1095.07L1215.11 1097.23L1213.72 1098.3C1211.78 1099.6 1207 1103.05 1205.06 1104.36C1202.29 1106.07 1198.79 1108.28 1196.01 1109.99C1193.01 1111.63 1188.03 1114.45 1184.96 1115.89C1181.65 1117.33 1178.49 1119.16 1175.11 1120.39L1168.39 1123.11C1163.95 1124.71 1159.09 1126.3 1154.46 1127.51C1152.16 1128.02 1149.61 1128.93 1147.34 1129.3L1140.11 1130.73C1136.85 1131.29 1132.46 1131.8 1129.12 1132.25C1125.55 1132.4 1121.55 1132.84 1118.02 1132.86C1114.84 1132.84 1109.85 1132.89 1106.9 1132.62L1099.5 1132.05C1095.84 1131.53 1092.16 1131.03 1088.52 1130.39L1081.32 1128.8C1012.98 1111.4 972.062 1053.47 946.119 999.055C944.094 994.531 941.371 988.437 939.4 983.963C938.744 982.447 934.091 970.561 933.295 968.681C931.205 962.822 928.725 956.074 926.66 950.132C925.552 946.452 921.936 935.299 920.756 931.407C908.546 889.613 900.611 846.811 895.528 803.942C871.705 598.987 771.336 397.724 603.42 251.92C561.082 216.085 513.92 183.868 460.593 161.658C328.116 106.937 228.795 149.363 197.267 275.233C189.02 307.584 185.782 341.388 185.103 374.497C184.45 454.018 207.99 526.35 277.563 580.635C285.52 587.029 294.606 593.349 303.183 599.021C399.929 660.877 522.032 684.816 615.46 751.387C675.62 793.834 712 848.738 727.143 914.83C754.245 1025.29 739.872 1141.94 606.488 1190.06C534.228 1215.79 450.112 1217.4 373.732 1207.23L373.788 1207.23Z" fill="#73206F"/>
<path d="M373.788 1207.23C461.802 1215.59 569.29 1206.62 642.696 1160.15C656.511 1151.26 669.298 1140.99 680.191 1129.4C692.594 1116.21 702.933 1101.19 710.353 1085.38C742.309 1018.22 729.469 931.871 703.944 864.228C636.24 695.973 437.967 681.128 292.995 590.247C195.788 528.506 167.654 439.987 174.746 338.635C179.076 279.157 190.759 215.439 235.836 168.468C261.479 141.699 300.307 125.819 340.139 125.12C437.754 123.813 529.786 183.555 597.288 240.432C737.357 362.12 829.312 523.246 870.662 691.355C876.737 716.674 881.611 742.217 885.222 767.89C890.485 810.685 895.97 853.534 906.773 895.577C909.604 907.218 913.767 921.641 917.485 933.138C936.812 992.501 968.755 1059.62 1027.23 1097.07C1066.66 1122.44 1114.12 1127.86 1159.3 1110.99C1197.83 1096.49 1228.49 1069.49 1251.32 1039.14C1304.95 966.311 1317.89 875.287 1304.09 790.598C1318.15 875.337 1305.44 966.475 1251.96 1039.51C1229.13 1070.02 1198.39 1097.22 1159.72 1111.87C1114.17 1128.98 1066.32 1123.6 1026.44 1098.03C967.608 1060.49 935.375 993.159 915.866 933.533C912.117 921.977 907.926 907.577 905.073 895.897C894.188 853.803 888.615 810.918 883.28 768.092C879.629 742.471 874.731 716.986 868.62 691.729C827.253 524.025 735.458 363.279 595.635 241.925C528.507 185.414 437.075 126.102 340.24 127.272C301.037 127.991 262.902 143.492 237.673 169.852C199.309 209.471 185.502 262.464 179.421 313.053C177.94 325.657 176.779 339.095 176.392 351.638C170.896 503.329 244.813 578.47 396.154 640.392C523.003 692.782 655.763 737.194 705.351 863.798C730.877 931.778 743.618 1018.3 711.296 1085.73C703.791 1101.59 693.36 1116.67 680.862 1129.89C669.896 1141.49 657.03 1151.8 643.137 1160.67C569.472 1207.04 461.946 1215.81 373.804 1207.23L373.788 1207.23Z" fill="#73206F"/>
<path d="M373.788 1207.23C475.389 1212.84 602.898 1193.98 670.838 1121.78C702.6 1088.48 717.777 1045.86 720.549 1002.94C722.878 968.595 717.982 934.157 709.751 900.584C701.707 866.971 688.411 834.163 668.011 804.744C583.106 680.191 406.084 659.163 281.146 578.223C213.64 533.962 177.646 476.299 167.722 403.175C162.103 360.357 164.577 316.78 172.071 274.266C196.649 136.457 296.636 75.6631 446.818 138.973C631.743 221.094 767.964 412.871 831.12 581.366C852.636 638.667 867.877 697.768 876.212 757.636C882.312 808.945 889.655 860.29 904.647 910.275C922.48 968.693 950.079 1032.02 1001.49 1074.08L1004.17 1076.29L1007 1078.34L1012.64 1082.46C1014.54 1083.81 1016.59 1085 1018.55 1086.28C1022.93 1089.22 1027.73 1091.6 1032.38 1094.17L1034 1094.92L1040.52 1097.91C1072 1111.55 1107.08 1113.24 1140.3 1103.27C1162.23 1096.52 1182.4 1085.52 1199.62 1071.9C1274.61 1011.65 1302.36 917.779 1299.96 830.969C1299.42 813.767 1297.72 796.596 1294.99 779.55C1309.05 864.216 1296.35 955.241 1243.01 1028.26C1221.53 1056.98 1193.22 1082.73 1157.69 1097.96C1119.95 1114.04 1079.8 1115.31 1041.58 1099.69C1039.23 1098.65 1035.72 1097.03 1033.36 1095.96L1031.72 1095.2L1030.14 1094.35C1023.78 1091.03 1017.66 1087.38 1011.79 1083.42C1009.41 1081.69 1005.43 1078.8 1003.25 1077.22C954.511 1038.43 927.796 983.526 908.962 929.348C904.244 915.199 899.707 899.892 896.117 885.536C887.633 851.874 881.7 817.761 877.574 783.503C862.483 646.52 811.989 512.742 731.659 394.48C671.179 306.438 594.59 224.423 496.717 166.568C448.084 138.638 392.181 115.515 332.974 116.186C226.145 118.237 183.827 206.555 172.203 287.344C156.172 399.896 172.074 504.921 282.446 576.74C407.633 657.761 584.32 678.985 669.366 804.06C689.8 833.62 703.117 866.625 711.13 900.359C723.374 950.682 728.332 1003.93 712.056 1053.96C706.741 1070.47 698.902 1086.65 688.631 1101.26C678.497 1115.95 665.6 1129.42 651.129 1140.95C580.075 1197.44 466.79 1212.62 373.803 1207.26L373.788 1207.23Z" fill="#73206F"/>
<path d="M373.788 1207.23C459.207 1208.4 555.3 1191.84 624.375 1145.84C661.825 1120.69 688.863 1086.49 702.131 1046.82C719.36 994.982 714.07 939.643 700.312 887.637C684.302 820.151 640.983 758.414 577.857 716.983C463.405 638.2 295.435 617.518 207.899 511.026C161.606 454.032 151.376 381.237 156.766 313.037C158.95 283.061 163.463 252.762 172.832 223.833C221.053 74.9389 362.206 78.6514 490.115 154.38C679.815 269.217 805.887 476.169 852.817 670.811C860.921 704.508 866.546 738.637 870.461 772.885C877.197 828.357 888.158 883.733 908.287 936.78C928.454 988.426 958.1 1042.67 1009.8 1075.43C1051.96 1102.1 1101.57 1105.88 1148.42 1085.91C1165.97 1078.38 1182.04 1068.14 1196.13 1056.3C1266.86 995.519 1293.2 904.635 1290.85 819.842C1290.3 802.655 1288.6 785.503 1285.88 768.468C1299.9 853.045 1287.26 944.032 1234.03 1017C1212.63 1045.72 1184.32 1071.46 1148.88 1086.76C1109.86 1103.56 1066.71 1104.38 1027.92 1086.54C1014.83 1080.69 1002.59 1072.89 991.783 1064.19C957.168 1036.35 934.193 999.304 916.896 961.487C904.176 933.553 894.635 904.309 887.15 874.999C878.654 841.366 872.698 807.287 868.559 773.058C851.626 619.114 790.279 469.015 691.619 340.684C625.55 256.294 543.432 177.063 437.947 130.397C316.93 78.244 213.168 105.311 175.112 224.398C165.776 253.181 161.256 283.338 159.077 313.167C153.689 380.932 163.731 453.273 209.701 509.917C238.043 545.109 277.64 572.001 319.949 593.378C404.842 636.44 500.652 662.773 578.937 715.783C642.256 757.449 685.757 819.63 701.692 887.363C715.417 939.564 720.606 995.101 703.149 1047.08C689.727 1086.85 662.457 1121.17 624.806 1146.31C555.545 1192.23 459.312 1208.6 373.804 1207.23L373.788 1207.23Z" fill="#73206F"/>
<path d="M373.788 1207.23C450.433 1205.14 532.645 1188.06 597.063 1150.71C642.559 1124.22 677.019 1086.41 692.932 1040.39C711.894 986.773 706.055 928.983 690.958 875.161C677.739 825.02 650.642 777.452 609.98 740.066C541.885 676.733 446.696 645.809 359.498 608.024C306.815 585.215 254.587 558.666 215.538 519.429C153.175 457.771 140.874 373.627 148.196 294.314C154.641 214.696 184.925 112.176 287.951 94.3616C357.134 83.4059 425.396 111.092 481.912 143.833C643.726 242.919 751.346 398.839 813.439 560.586C833.308 613.74 847.753 668.454 856.303 723.873C858.359 736.638 859.809 749.505 861.422 762.317C867.676 813.503 877.459 864.576 894.85 913.824C917.321 977.411 958.369 1053.68 1033.02 1079.91C1062.93 1090.14 1096.17 1089.91 1126.06 1079.8L1131.2 1078.1L1139.53 1074.76C1140.66 1074.34 1141.72 1073.81 1142.8 1073.3L1146.03 1071.78C1150.36 1069.91 1154.61 1067.31 1158.63 1065.2C1249.88 1010.62 1284.86 901.455 1281.74 808.735C1281.2 791.558 1279.49 774.411 1276.77 757.386C1280.24 778.635 1282.12 800.148 1282.13 821.615C1282.02 910.938 1246.67 1013.33 1159.2 1065.94C1156.76 1067.32 1152.15 1069.8 1149.78 1071.03C1148.11 1071.79 1144.95 1073.34 1143.3 1074.11C1140.48 1075.52 1134.64 1077.71 1131.64 1078.96C1104.99 1088.75 1074.71 1091.65 1046.65 1084.9L1043.07 1084.11L1039.56 1083.08C1037.23 1082.37 1034.88 1081.72 1032.57 1080.97L1025.76 1078.42C1022.51 1077.27 1018.98 1075.49 1015.83 1074.09C1012.06 1072.41 1006.75 1069.38 1003.18 1067.39C1001.44 1066.31 996.045 1062.87 994.202 1061.71C944.561 1027.19 916.549 974.955 896.572 923.484C889.418 904.039 883.199 884.285 878.163 864.349C869.655 830.745 863.694 796.681 859.526 762.475C840.693 591.619 767.582 425.111 648.688 288.427C572.564 200.572 424.164 75.9188 288.438 96.464C186.731 114.018 156.862 215.923 150.523 294.474C143.229 373.221 155.281 456.924 217.21 518.181C256.041 557.241 308.035 583.633 360.446 606.396C447.69 644.319 543.105 675.512 611.215 739.081C651.982 776.665 679.17 824.557 692.344 874.873C707.407 928.89 713.145 986.901 693.938 1040.65C677.827 1086.79 643.17 1124.67 597.435 1151.15C532.835 1188.39 450.546 1205.3 373.815 1207.23L373.788 1207.23Z" fill="#73206F"/>
<path d="M373.788 1207.23C476.627 1199.98 594.863 1163.84 654.787 1086.25C711.731 1013.44 703.042 918.886 673.527 838.46C621.566 699.064 486.058 655.302 348.418 597.083C313.292 581.706 278.677 564.94 247.809 543.489C145.049 474.422 127.37 369.675 141.292 263.128C161.384 97.1237 277.162 32.313 448.477 119.344C673.323 240.249 819.279 501.312 849.122 725.957C856.14 785.676 865.256 845.563 885.846 903.013C897.356 935.695 912.45 967.854 933.179 996.91C957.632 1030.89 992.543 1062.33 1038.07 1072.78C1063.99 1078.95 1092.14 1077.09 1117.13 1068.66L1120.55 1067.52L1122.27 1066.95L1123.93 1066.27L1130.59 1063.6C1137.05 1060.85 1143.62 1057.41 1149.66 1054.04C1240.82 999.391 1275.75 890.338 1272.62 797.633C1272.08 780.456 1270.37 763.323 1267.66 746.308C1270.42 763.325 1272.18 780.454 1272.78 797.632C1275.74 887.559 1244.91 988.892 1162.13 1047.2C1155.6 1051.75 1147.99 1056.16 1140.81 1059.89C1137.62 1061.43 1134.27 1063.03 1131.06 1064.45C1129.59 1065.09 1124 1067.26 1122.68 1067.83C1101.69 1075.48 1078.59 1079.14 1055.89 1076.84C1054.09 1076.77 1046.97 1075.7 1044.93 1075.37C1042.97 1075.06 1039.74 1074.31 1037.74 1073.87C1032.94 1072.95 1028.28 1071.32 1023.65 1069.96L1016.85 1067.41C1015.73 1066.96 1014.56 1066.6 1013.46 1066.09L1010.19 1064.6C1008.01 1063.58 1005.8 1062.64 1003.67 1061.56C999.75 1059.39 994.817 1056.92 991.26 1054.53C935.89 1019.91 904.122 958.852 884.25 903.423C866.715 854.137 856.807 802.983 850.437 751.735C827.424 547.426 728.441 346.827 562.462 200.425C520.614 164.427 474.074 131.932 421.401 108.962C257.21 38.894 161.484 115.975 143.578 263.341C126.808 397.014 158.233 500.697 297.611 570.955C447.93 646.293 613.578 675.369 674.872 838.044C704.402 918.91 712.859 1013.6 655.45 1086.65C595.197 1164.21 476.811 1200.17 373.761 1207.2L373.788 1207.23Z" fill="#73206F"/>
<path d="M373.788 1207.23C498.739 1192.81 637.139 1135.75 676.443 1022.88C696.248 967.26 689.928 907.173 672.607 851.655C653.497 784.903 607.867 724.819 544.396 684.107C422.61 601.519 238.382 581.575 162.221 453.612C125.861 391.7 123.82 319.41 132.267 251.578C140.818 185.44 166.796 107.749 242.705 79.4237C352.263 41.451 480.478 123.381 555.355 188.166C717.953 331.886 816.602 527.753 841.716 727.929C852.757 824.551 879.405 955.352 960.646 1026.12C965.817 1030.62 971.499 1034.83 977.142 1038.84L986.048 1044.49C987.056 1045.09 988.11 1045.62 989.146 1046.2L995.373 1049.58C998.909 1051.36 1001.62 1052.42 1005.08 1054.08C1006.17 1054.56 1007.32 1054.94 1008.43 1055.37L1015.16 1057.91L1022.08 1059.99C1023.25 1060.32 1024.38 1060.71 1025.56 1060.99L1029.1 1061.79C1050.3 1066.84 1073.02 1066.41 1094.22 1061.58C1100.66 1060 1107.05 1058.08 1113.27 1055.88L1114.93 1055.2L1121.59 1052.54C1128.02 1049.78 1134.62 1046.33 1140.65 1042.97C1229.83 989.439 1265.07 883.92 1263.68 793.027C1263.38 773.726 1261.64 754.39 1258.57 735.279C1261.34 752.282 1263.09 769.411 1263.69 786.589C1266.66 876.501 1235.84 977.791 1153.12 1036.11C1150.07 1038.4 1144.53 1041.59 1141.21 1043.7C1138.93 1044.87 1134.07 1047.7 1131.82 1048.81C1128.54 1050.25 1125.33 1052.02 1122.07 1053.38L1115.37 1056.08C1095.15 1063.84 1072.7 1067.78 1050.61 1066.11C1043.58 1065.69 1035.59 1064.5 1028.79 1062.88C1024.86 1062.19 1018.6 1060.11 1014.7 1058.99C1011.81 1057.91 1007.15 1056.2 1004.52 1055.14L1001.25 1053.64C999.071 1052.62 996.853 1051.68 994.716 1050.62L988.435 1047.21C987.398 1046.64 986.327 1046.1 985.303 1045.49C927.843 1010.82 895.637 949.3 875.231 892.582C869.332 876.216 864.387 859.472 860.078 842.735C851.558 809.16 845.567 775.119 841.4 740.938C815.505 509.044 684.177 261.041 463.356 124.097C347.266 54.6573 207.481 38.7724 153.039 176.685C143.518 200.99 137.924 226.343 134.584 251.85C123.428 335.582 131.26 428.838 196.618 495.396C234.782 534.908 286.471 561.762 338.709 584.74C442.607 629.873 560.436 668.554 626.594 757.293C648.495 785.942 663.998 818.092 673.96 851.381C690.628 905.08 697.008 962.878 679.518 1017.01C665.203 1062.78 632.497 1103.21 590.081 1132.41C528.216 1174.84 451.206 1198.36 373.803 1207.28L373.788 1207.23Z" fill="#73206F"/>
<path d="M373.788 1207.23C459.391 1193.18 545.439 1160.53 606.544 1105.08C640.38 1074.15 664.53 1035.03 674.274 992.967C686.439 942.416 679.515 889.792 663.554 840.466C643.483 773.949 597.157 714.391 533.722 673.748C411.897 591.345 227.697 570.859 152.449 442.391C121.064 388.271 115.687 325.618 120.531 265.943C123.271 231.644 128.97 197.271 141.776 164.651C151.489 140.268 165.259 116.737 185.619 97.7845C212.464 72.0311 252.069 58.0754 291.712 58.6224C388.996 60.282 479.289 119.962 546.406 177.225C703.864 316.329 800.983 504.47 830.091 697.74C830.858 703.464 831.98 711.224 832.623 716.949C838.028 763.856 845.915 810.75 859.613 856.395C880.099 923.044 915.607 1001.74 986.332 1038.52C988.447 1039.57 990.643 1040.52 992.799 1041.52L996.038 1043C997.133 1043.49 998.27 1043.87 999.383 1044.3L1006.11 1046.84L1013.04 1048.9C1014.21 1049.23 1015.34 1049.63 1016.51 1049.9L1020.06 1050.69C1045.99 1056.82 1074.12 1054.93 1099.08 1046.47C1112.72 1042.05 1125.79 1035.58 1137.59 1028.16C1209.2 981.873 1243.38 902.342 1252.35 826.924C1256.24 792.868 1254.94 758.049 1249.46 724.183C1252.24 741.185 1253.99 758.314 1254.58 775.483C1257.31 864.167 1228.44 960.943 1149.8 1020.96C1123.39 1040.37 1091.2 1054.11 1056.32 1055.33C1051.51 1055.35 1046.38 1055.49 1041.56 1055.01C1039.12 1054.75 1036.54 1054.73 1034.22 1054.35L1026.93 1053.28C1023.66 1052.73 1019.43 1051.69 1016.16 1050.99C1014.32 1050.49 1007.7 1048.53 1005.65 1047.91C1002.7 1046.79 998.147 1045.13 995.47 1044.06C992.203 1042.57 988.847 1041.07 985.665 1039.53L979.384 1036.13C927.216 1006.37 896.962 955.711 875.548 906.007C865.894 882.798 858.18 858.919 851.776 834.867C842.914 800.262 836.593 765.188 832.307 729.934C809.376 525.7 710.53 325.153 544.732 178.702C477.967 121.79 388.262 62.545 291.718 60.7766C252.687 60.2691 213.802 73.8713 187.382 99.2346C147.229 137.355 132.416 190.215 125.503 240.481C114.365 324.193 121.74 417.393 186.546 484.309C224.414 524.039 275.986 551.085 328.147 574.179C415.107 612.627 509.905 644.108 579.065 706.574C620.51 743.496 649.515 790.309 664.908 840.143C684.642 900.786 689.964 967.389 664.001 1027.19C618.809 1131.15 492.693 1187.94 373.788 1207.23Z" fill="#73206F"/>
<path d="M373.788 1207.23C484.535 1183.9 601.376 1125.84 648.989 1031.3C664.917 999.975 672.374 965.548 672.475 931.302C671.197 846.194 637.186 758.721 568.096 697.468C498.854 635.313 404.411 603.879 317.507 565.457C265.098 542.235 213.345 514.925 175.357 474.919C110.39 407.467 102.932 313.674 114.041 229.467C117.39 203.824 122.989 178.299 132.571 153.849C187.357 15.0855 328.198 29.2869 446.475 100.148C660.148 231.416 793.732 475.884 822.719 699.361C829.262 756.923 838.874 814.62 858.593 869.968C870.108 902.635 885.225 934.785 905.96 963.826C930.419 997.794 965.358 1029.21 1010.88 1039.61C1032.08 1044.67 1054.8 1044.24 1076 1039.41C1082.45 1037.83 1088.84 1035.91 1095.05 1033.72L1096.71 1033.04L1103.38 1030.37C1109.81 1027.61 1116.4 1024.17 1122.44 1020.8C1213.52 966.159 1248.47 857.072 1245.34 764.421C1244.79 747.258 1243.09 730.121 1240.36 713.11C1243.12 730.117 1244.89 747.241 1245.49 764.42C1248.46 854.332 1217.64 955.622 1134.91 1013.94C1131.91 1016.23 1126.3 1019.42 1123.01 1021.53C1120.74 1022.75 1115.85 1025.5 1113.61 1026.64C1110.42 1028.19 1107.08 1029.78 1103.86 1031.21L1097.17 1033.92C1076.94 1041.67 1054.5 1045.61 1032.41 1043.94C1025.38 1043.52 1017.39 1042.33 1010.58 1040.7C1006.65 1040.01 1000.39 1037.93 996.491 1036.81C993.585 1035.71 988.958 1034.02 986.314 1032.96L983.041 1031.46C980.864 1030.44 978.645 1029.5 976.509 1028.44L970.227 1025.03C969.191 1024.46 968.12 1023.92 967.107 1023.31C909.646 988.637 877.441 927.116 857.046 870.394C851.147 854.027 846.202 837.284 841.893 820.546C833.373 786.971 827.383 752.931 823.215 718.75C808.35 582.035 758.403 448.433 678.572 330.232C613.423 235.154 529.73 146.047 420.34 88.1772C305.751 28.5238 183.727 29.7226 134.849 154.511C125.327 178.816 119.745 204.165 116.399 229.686C105.321 313.41 112.536 406.592 177.08 473.687C214.844 513.507 266.357 540.649 318.489 563.816C405.411 602.375 500.075 634.068 569.321 696.438C638.579 758.057 672.625 845.828 673.725 931.298C673.52 965.66 665.925 1000.22 649.855 1031.61C601.845 1126.2 484.796 1184.11 373.788 1207.23Z" fill="#73206F"/>
<path d="M373.788 1207.23C448.687 1187.77 520.023 1154.01 575.765 1105.74C666.091 1027.79 683.248 923.415 646.172 819.914C629.597 770.623 600.154 724.277 558.714 687.703C475.329 612.675 356.961 583.178 256.64 530.382C241.938 522.581 227.615 514.095 214.051 504.842C126.631 446.4 98.064 363.985 100.869 270.538C102.049 236.381 105.64 201.434 114.991 168.186C134.003 98.095 182.691 36.3983 272.576 36.5079C332.241 36.7228 388.127 60.4069 436.896 88.8C598.534 187.994 706.05 343.872 768.043 505.588C787.879 558.731 802.302 613.43 810.831 668.834C812.886 681.598 814.32 694.46 815.939 707.258C821.095 749.928 828.944 792.415 841.296 833.959C863.313 907.02 908.4 1003.57 998.069 1027.74L1005.16 1029.33C1006.35 1029.58 1007.51 1029.9 1008.73 1030.05L1015.95 1031.13C1016.55 1031.21 1017.15 1031.32 1017.76 1031.38L1019.58 1031.51L1023.22 1031.8C1027.6 1032.2 1033.33 1032.24 1037.84 1032.17C1054.34 1031.63 1070.58 1028.21 1085.82 1022.73C1090.14 1020.97 1096.5 1018.56 1100.63 1016.41C1104.89 1014.58 1109.25 1011.92 1113.22 1009.84C1204.4 955.203 1239.34 846.121 1236.22 753.416C1235.67 736.239 1233.97 719.102 1231.25 702.091C1236.82 735.965 1238.24 770.821 1234.44 804.903C1225.48 884.64 1185.95 972.977 1104.38 1015.68C1084.13 1025.88 1061.34 1032.45 1037.89 1033.25C1034.21 1033.3 1030.5 1033.28 1026.81 1033.19C1024.95 1033.09 1021.29 1032.74 1019.44 1032.63L1017.61 1032.49C1016.99 1032.44 1016.39 1032.32 1015.78 1032.24C1012.64 1031.78 1007.73 1031.14 1004.89 1030.44L1001.3 1029.65C996.505 1028.73 991.843 1027.1 987.216 1025.75C984.25 1024.62 979.716 1023 977.045 1021.88C973.778 1020.39 970.399 1018.9 967.246 1017.35C964.493 1015.84 960.322 1013.64 957.839 1012.2C956.105 1011.09 950.683 1007.7 948.845 1006.52C898.283 971.33 869.933 917.899 850.046 865.332C843.273 846.912 837.526 828.171 832.713 809.301C824.199 775.711 818.22 741.666 814.058 707.471C795.279 536.665 722.272 370.198 603.496 233.502C528.048 145.986 378.501 20.7284 243.584 41.0884C141.646 58.1825 111.557 159.96 105.061 238.526C102.972 261.837 102.332 285.882 103.934 309.181C109.72 391.342 144.643 457.888 221.203 507.324C280.485 545.876 349.587 569.823 414.907 599.19C484.765 629.9 552.807 669.075 597.441 726.54C619.791 754.742 636.379 786.738 647.526 819.616C684.577 923.536 666.999 1028.18 576.209 1106.16C520.241 1154.37 448.827 1187.96 373.803 1207.28L373.788 1207.23Z" fill="#73206F"/>
</g>
</g>
</svg>
