<svg width="313" height="800" viewBox="0 0 313 800" fill="none" xmlns="http://www.w3.org/2000/svg">
<mask id="mask0_485_3470" style="mask-type:alpha" maskUnits="userSpaceOnUse" x="0" y="0" width="313" height="800">
<rect width="312.55" height="800" fill="#D9D9D9"/>
</mask>
<g mask="url(#mask0_485_3470)">
<path d="M14.9385 -87.6553C-3.03736 -51.5301 -4.42897 -8.08166 11.8756 30.1276C16.058 40.0608 21.4568 49.7494 27.752 58.7817C32.8774 66.3909 38.9511 73.6525 45.128 80.5685C60.1735 97.239 75.323 114.41 89.2469 131.825C105.248 152.302 121.453 174.316 126.109 199.163C127.954 207.942 128.123 216.799 128.9 225.585C129.64 230.795 131.151 235.887 132.928 240.932C147.597 280.685 184.077 329.865 144.418 365.002C110.616 398.051 99.5401 452.525 108.084 497.354C109.65 504.23 112.967 510.798 116.177 517.31C119.452 523.821 122.917 530.269 126.356 536.735C139.991 562.607 153.846 588.927 159.328 617.107C163.594 639.677 160.647 659.926 142.929 676.456C116.434 701.47 82.6372 718.965 54.3041 742.086C21.222 768.158 -6.5161 801.425 -0.456133 844.181C0.703903 852.757 2.07984 861.839 3.91288 870.35C7.45146 887.643 12.9639 904.875 23.1344 920.254C27.1477 926.464 31.5963 932.539 34.9223 939.107C40.0022 948.995 42.278 959.733 43.5048 970.359C43.6799 972.131 43.8914 973.893 44.0294 975.666L44.4051 980.968C45.7297 1000.01 35.8699 1015.34 18.3554 1025.3C-1.06582 1036.66 -24.1241 1041.75 -44.9651 1050.5C-58.5031 1056.18 -72.9106 1064.76 -74.8253 1079.3L-75.0981 1079.25C-73.3752 1064.52 -58.9243 1055.66 -45.3642 1049.79C-24.638 1040.76 -1.7955 1035.52 17.4245 1024.08C37.0416 1012.38 44.5673 997.128 41.8979 975.73C40.7858 963.593 38.6514 951.211 32.7937 939.925C27.7361 930.203 20.38 921.504 15.3019 911.758C4.86947 892.18 0.617231 870.733 -2.50158 849.645C-14.3413 787.535 39.6978 746.804 88.2596 714.227C109.574 699.142 142.344 680.405 153.719 658.161C170.139 621.743 142.557 571.822 125.005 537.275C121.62 530.792 118.199 524.318 114.967 517.764C111.8 511.201 108.508 504.59 106.944 497.505C99.5597 456.595 107.775 410.241 132.971 376.536C135.604 373.002 138.694 369.509 141.749 366.267C143.448 364.588 145.837 362.232 147.486 360.504C157.725 350.27 162.256 336.167 160.887 322.168C158.349 293.748 140.995 268.309 130.925 241.445C128.424 234.624 126.439 227.498 126.182 220.377C125.628 208.136 123.947 195.853 119.365 184.128C114.86 172.434 107.982 161.405 100.65 150.871C90.1473 135.993 77.8375 121.055 65.8377 107.114C56.2378 95.8433 45.6744 84.4845 36.0911 73.1879C26.4579 61.6076 18.5211 48.9095 12.3973 35.6355C0.103906 9.09682 -3.51766 -20.2376 1.35764 -47.9334C3.16931 -58.3085 6.0352 -68.5058 10.1251 -78.2526C11.4979 -81.499 12.9667 -84.7056 14.7042 -87.8009L14.9551 -87.6808L14.9571 -87.6557L14.9385 -87.6553Z" fill="#FAECC8"/>
<path d="M4.08264 -88.9136C-13.8932 -52.7884 -15.2849 -9.33996 1.01968 28.8693C5.20211 38.8025 10.6009 48.4911 16.8961 57.5234C22.0216 65.1326 28.0953 72.3942 34.2721 79.3102C49.3177 95.9807 64.4672 113.151 78.391 130.567C94.3924 151.044 110.597 173.058 115.253 197.905C117.098 206.684 117.267 215.541 118.044 224.327C118.784 229.536 120.296 234.629 122.072 239.674C136.742 279.426 173.221 328.607 133.562 363.744C99.7602 396.792 88.6842 451.267 97.2278 496.096C98.7942 502.971 102.111 509.54 105.321 516.052C108.596 522.563 112.061 529.011 115.5 535.476C129.135 561.349 142.99 587.669 148.473 615.849C152.738 638.418 149.791 658.668 132.073 675.197C105.578 700.212 71.7813 717.707 43.4482 740.827C10.3662 766.9 -17.372 800.166 -11.312 842.923C-10.152 851.499 -8.77607 860.581 -6.94299 869.092C-3.40441 886.384 2.10802 903.617 12.2785 918.996C16.2918 925.206 20.7404 931.28 24.0664 937.849C29.1463 947.737 31.4221 958.474 32.6489 969.101C32.824 970.872 33.0355 972.635 33.1736 974.408L33.5492 979.709C34.8738 998.751 25.014 1014.09 7.49954 1024.04C-11.9217 1035.4 -34.9799 1040.49 -55.821 1049.24C-69.3589 1054.92 -83.7665 1063.5 -85.6812 1078.04L-85.954 1078C-84.2312 1063.26 -69.7801 1054.4 -56.2201 1048.53C-35.4939 1039.5 -12.6514 1034.26 6.56862 1022.83C26.1857 1011.12 33.7114 995.87 31.0421 974.471C29.9299 962.335 27.7955 949.953 21.9378 938.666C16.8802 928.945 9.52412 920.246 4.44598 910.5C-5.98643 890.922 -10.2386 869.474 -13.3574 848.387C-25.1972 786.277 28.8419 745.546 77.4037 712.968C98.7177 697.884 131.488 679.147 142.863 656.902C159.284 620.485 131.701 570.564 114.149 536.017C110.764 529.534 107.343 523.06 104.112 516.506C100.944 509.942 97.6518 503.331 96.0877 496.247C88.7038 455.337 96.9195 408.983 122.116 375.278C124.748 371.744 127.838 368.251 130.893 365.009C132.592 363.33 134.982 360.974 136.631 359.246C146.869 349.012 151.4 334.908 150.031 320.91C147.493 292.49 130.14 267.051 120.069 240.187C117.569 233.366 115.583 226.24 115.326 219.118C114.772 206.877 113.091 194.594 108.509 182.869C104.004 171.176 97.1261 160.146 89.7945 149.613C79.2915 134.735 66.9816 119.796 54.9818 105.856C45.3819 94.585 34.8185 83.2262 25.2353 71.9296C15.6021 60.3493 7.66526 47.6512 1.54141 34.3772C-10.752 7.83852 -14.3735 -21.4959 -9.49824 -49.1917C-7.68656 -59.5668 -4.8207 -69.7641 -0.730764 -79.5109C0.64203 -82.7573 2.1108 -85.9639 3.84835 -89.0592L4.09923 -88.9391L4.10116 -88.914L4.08264 -88.9136Z" fill="#FAECC8"/>
<path d="M-6.78199 -90.1743C-24.7579 -54.0491 -26.1495 -10.6007 -9.84491 27.6086C-5.66249 37.5418 -0.263665 47.2304 6.03151 56.2627C11.157 63.8719 17.2306 71.1335 23.4075 78.0495C38.453 94.72 53.6026 111.891 67.5264 129.306C83.5279 149.783 99.7325 171.797 104.389 196.644C106.233 205.423 106.403 214.28 107.18 223.066C107.92 228.276 109.431 233.368 111.208 238.413C125.877 278.166 162.357 327.346 122.698 362.483C88.8956 395.532 77.8196 450.006 86.3632 494.835C87.9296 501.71 91.2462 508.279 94.4563 514.791C97.7314 521.302 101.197 527.75 104.635 534.216C118.27 560.088 132.126 586.408 137.608 614.588C141.873 637.158 138.926 657.407 121.208 673.937C94.7131 698.951 60.9167 716.446 32.5836 739.567C-0.498409 765.639 -28.2366 798.906 -22.1766 841.662C-21.0166 850.238 -19.6406 859.32 -17.8076 867.831C-14.269 885.124 -8.75661 902.356 1.41391 917.735C5.42719 923.945 9.8758 930.02 13.2018 936.588C18.2817 946.476 20.5575 957.214 21.7843 967.84C21.9594 969.612 22.1709 971.374 22.309 973.147L22.6846 978.448C24.0092 997.49 14.1494 1012.82 -3.36505 1022.78C-22.7863 1034.14 -45.8446 1039.23 -66.6856 1047.98C-80.2236 1053.66 -94.6311 1062.24 -96.5458 1076.78L-96.8186 1076.74C-95.0957 1062 -80.6448 1053.14 -67.0847 1047.27C-46.3585 1038.24 -23.516 1033 -4.29598 1021.56C15.3211 1009.86 22.8468 994.609 20.1775 973.211C19.0653 961.074 16.9309 948.692 11.0732 937.405C6.01556 927.684 -1.34047 918.985 -6.41861 909.239C-16.851 889.661 -21.1032 868.214 -24.222 847.126C-36.0618 785.016 17.9773 744.285 66.5391 711.708C87.853 696.623 120.624 677.886 131.999 655.642C148.419 619.224 120.836 569.303 103.284 534.756C99.8997 528.273 96.4789 521.799 93.247 515.245C90.0793 508.682 86.7872 502.071 85.2231 494.986C77.8393 454.076 86.0549 407.722 111.251 374.017C113.883 370.483 116.974 366.99 120.028 363.748C121.727 362.069 124.117 359.713 125.766 357.985C136.004 347.751 140.535 333.648 139.167 319.649C136.629 291.229 119.275 265.79 109.204 238.926C106.704 232.105 104.719 224.979 104.461 217.858C103.908 205.617 102.227 193.334 97.6448 181.608C93.1395 169.915 86.2615 158.886 78.9299 148.352C68.4269 133.474 56.1171 118.536 44.1172 104.595C34.5174 93.3243 23.9539 81.9655 14.3707 70.6689C4.73745 59.0886 -3.19934 46.3905 -9.32316 33.1165C-21.6166 6.5778 -25.2381 -22.7566 -20.3628 -50.4524C-18.5511 -60.8275 -15.6853 -71.0248 -11.5954 -80.7717C-10.2226 -84.018 -8.7538 -87.2247 -7.01628 -90.3199L-6.76537 -90.1998L-6.76344 -90.1747L-6.78199 -90.1743Z" fill="#FAECC8"/>
<path d="M-17.6466 -91.4343C-35.6225 -55.3091 -37.0141 -11.8607 -20.7096 26.3486C-16.5271 36.2818 -11.1283 45.9704 -4.83312 55.0027C0.292315 62.6119 6.36601 69.8735 12.5429 76.7895C27.5884 93.46 42.7379 110.631 56.6618 128.046C72.6632 148.523 88.8679 170.537 93.5241 195.384C95.3688 204.163 95.5382 213.02 96.3152 221.806C97.0552 227.016 98.5663 232.108 100.343 237.153C115.012 276.906 151.492 326.086 111.833 361.223C78.031 394.272 66.955 448.746 75.4985 493.575C77.0649 500.45 80.3816 507.019 83.5917 513.531C86.8667 520.042 90.3319 526.49 93.7614 532.956C107.396 558.829 121.252 585.149 126.734 613.328C130.999 635.898 128.052 656.147 110.334 672.677C83.8391 697.691 50.0428 715.187 21.7097 738.307C-11.3723 764.379 -39.1105 797.646 -33.0505 840.403C-31.8905 848.978 -30.5146 858.061 -28.6815 866.571C-25.1429 883.864 -19.6305 901.096 -9.46002 916.475C-5.44671 922.685 -0.998098 928.76 2.32786 935.328C7.40783 945.217 9.68358 955.954 10.9104 966.58C11.0855 968.352 11.297 970.115 11.4351 971.887L11.8107 977.189C13.1353 996.23 3.2755 1011.56 -14.239 1021.52C-33.6602 1032.88 -56.7185 1037.97 -77.5595 1046.72C-91.0975 1052.4 -105.505 1060.98 -107.42 1075.52L-107.693 1075.48C-105.97 1060.74 -91.5187 1051.88 -77.9586 1046.01C-57.2324 1036.98 -34.3899 1031.74 -15.1699 1020.3C4.44721 1008.6 11.9729 993.35 9.30354 971.951C8.1914 959.814 6.05692 947.432 0.199305 936.146C-4.85834 926.425 -12.2144 917.725 -17.2925 907.979C-27.7249 888.402 -31.9772 866.954 -35.096 845.867C-46.9357 783.756 7.1034 743.026 55.6652 710.448C76.9791 695.363 109.741 676.626 121.125 654.382C137.536 617.965 109.962 568.044 92.4101 533.497C89.0258 527.013 85.605 520.539 82.373 513.985C79.2054 507.422 75.9133 500.811 74.3492 493.726C66.9653 452.816 75.181 406.462 100.377 372.757C103.009 369.224 106.1 365.73 109.154 362.488C110.854 360.809 113.243 358.454 114.892 356.725C125.13 346.491 129.661 332.388 128.293 318.389C125.755 289.969 108.401 264.53 98.3303 237.666C95.83 230.845 93.8447 223.72 93.5874 216.598C93.0338 204.357 91.3529 192.074 86.7708 180.349C82.2656 168.655 75.3876 157.626 68.056 147.092C57.5529 132.214 45.2431 117.276 33.2433 103.336C23.6434 92.0645 13.08 80.7057 3.49672 69.4091C-6.13648 57.8288 -14.0733 45.1307 -20.1971 31.8567C-32.4905 5.31802 -36.1121 -24.0164 -31.2368 -51.7122C-29.4251 -62.0873 -26.5592 -72.2846 -22.4693 -82.0314C-21.0965 -85.2778 -19.6277 -88.4844 -17.8902 -91.5797L-17.6393 -91.4596L-17.6373 -91.4345L-17.6466 -91.4343Z" fill="#FAECC8"/>
<path d="M-28.5114 -92.6928C-46.4872 -56.5676 -47.8788 -13.1192 -31.5743 25.0901C-27.3919 35.0233 -21.9931 44.7119 -15.6979 53.7442C-10.5725 61.3534 -4.49877 68.615 1.67809 75.531C16.7236 92.2015 31.8732 109.372 45.797 126.788C61.7985 147.265 78.0031 169.278 82.6594 194.126C84.504 202.905 84.6735 211.762 85.4504 220.547C86.1904 225.757 87.7016 230.85 89.4784 235.894C104.148 275.647 140.627 324.828 100.968 359.965C67.1663 393.013 56.0902 447.488 64.6338 492.317C66.2001 499.192 69.5168 505.761 72.727 512.273C76.002 518.784 79.4672 525.232 82.8966 531.697C96.5314 557.57 110.387 583.89 115.869 612.07C120.135 634.639 117.187 654.889 99.4693 671.418C72.9743 696.433 39.178 713.928 10.845 737.048C-22.2371 763.121 -49.9753 796.387 -43.9153 839.144C-42.7553 847.72 -41.3793 856.802 -39.5463 865.313C-36.0077 882.605 -30.4953 899.838 -20.3247 915.217C-16.3115 921.427 -11.8628 927.501 -8.53689 934.07C-3.45696 943.958 -1.18114 954.695 0.0456462 965.322C0.220755 967.093 0.43229 968.856 0.570281 970.629L0.945911 975.93C2.27057 994.972 -7.58929 1010.31 -25.1037 1020.27C-44.525 1031.62 -67.5832 1036.71 -88.4243 1045.46C-101.962 1051.14 -116.37 1059.72 -118.284 1074.26L-118.557 1074.22C-116.834 1059.48 -102.383 1050.62 -88.8234 1044.75C-68.0972 1035.72 -45.2546 1030.48 -26.0346 1019.05C-6.41754 1007.34 1.10809 992.091 -1.56121 970.692C-2.67335 958.556 -4.8078 946.174 -10.6654 934.887C-15.7231 925.166 -23.0791 916.467 -28.1573 906.721C-38.5897 887.143 -42.8419 865.696 -45.9607 844.608C-57.8004 782.498 -3.76136 741.767 44.8004 709.189C66.1144 694.105 98.8759 675.368 110.26 653.123C126.671 616.706 99.0974 566.785 81.5454 532.238C78.161 525.755 74.7402 519.281 71.5083 512.727C68.3406 506.163 65.0485 499.552 63.4844 492.468C56.1006 451.558 64.3162 405.203 89.5123 371.499C92.1445 367.965 95.2351 364.472 98.2896 361.23C99.9888 359.551 102.378 357.195 104.027 355.467C114.266 345.233 118.797 331.129 117.428 317.131C114.89 288.711 97.5363 263.272 87.4655 236.408C84.9652 229.587 82.9799 222.461 82.7227 215.339C82.169 203.098 80.4881 190.815 75.9061 179.09C71.4009 167.397 64.5229 156.367 57.1912 145.834C46.6882 130.956 34.3784 116.017 22.3785 102.077C12.7787 90.806 2.21524 79.4472 -7.36802 68.1506C-17.0012 56.5703 -24.938 43.8722 -31.0618 30.5982C-43.3552 4.05953 -46.9768 -25.2749 -42.1015 -52.9707C-40.2898 -63.3458 -37.424 -73.5431 -33.334 -83.2899C-31.9612 -86.5363 -30.4925 -89.7429 -28.7549 -92.8382L-28.5041 -92.7181L-28.5021 -92.693L-28.5114 -92.6928Z" fill="#FAECC8"/>
<path d="M-39.376 -93.9505C-57.3519 -57.8253 -58.7435 -14.3769 -42.439 23.8324C-38.2565 33.7656 -32.8577 43.4542 -26.5626 52.4865C-21.4371 60.0957 -15.3634 67.3573 -9.18658 74.2733C5.85898 90.9438 21.0085 108.115 34.9324 125.53C50.9338 146.007 67.1385 168.021 71.7948 192.868C73.6394 201.647 73.8088 210.504 74.5857 219.29C75.3258 224.5 76.8369 229.592 78.6138 234.637C93.2829 274.39 129.763 323.57 90.1038 358.707C56.3016 391.755 45.2256 446.23 53.7691 491.059C55.3355 497.934 58.6522 504.503 61.8623 511.015C65.1373 517.526 68.6025 523.974 72.0412 530.439C85.6761 556.312 99.5316 582.632 105.014 610.812C109.279 633.381 106.332 653.631 88.614 670.16C62.119 695.175 28.3226 712.67 -0.0104238 735.79C-33.0925 761.863 -60.8307 795.129 -54.7707 837.886C-53.6107 846.462 -52.2347 855.544 -50.4017 864.055C-46.8631 881.347 -41.3507 898.58 -31.1801 913.959C-27.1669 920.169 -22.7183 926.243 -19.3923 932.812C-14.3124 942.7 -12.0365 953.437 -10.8098 964.064C-10.6346 965.836 -10.4231 967.598 -10.2851 969.371L-9.90949 974.672C-8.58484 993.714 -18.4447 1009.05 -35.9591 1019.01C-55.3804 1030.36 -78.4386 1035.45 -99.2796 1044.2C-112.818 1049.88 -127.225 1058.46 -129.14 1073L-129.413 1072.96C-127.69 1058.22 -113.239 1049.36 -99.6787 1043.49C-78.9525 1034.46 -56.1101 1029.23 -36.89 1017.79C-17.2729 1006.08 -9.74731 990.833 -12.4166 969.434C-13.5287 957.298 -15.6632 944.916 -21.5208 933.629C-26.5785 923.908 -33.9345 915.209 -39.0127 905.463C-49.4451 885.885 -53.6973 864.438 -56.8161 843.35C-68.6558 781.24 -14.6167 740.509 33.945 707.932C55.259 692.847 88.0205 674.11 99.4045 651.866C115.816 615.448 88.242 565.527 70.69 530.98C67.3056 524.497 63.8848 518.023 60.6529 511.469C57.4853 504.905 54.1931 498.294 52.629 491.21C45.2452 450.3 53.4608 403.946 78.6569 370.241C81.2892 366.707 84.3797 363.214 87.4342 359.972C89.1334 358.293 91.523 355.937 93.1719 354.209C103.41 343.975 107.941 329.872 106.573 315.873C104.035 287.453 86.681 262.014 76.6102 235.15C74.1098 228.329 72.1245 221.203 71.8673 214.081C71.3136 201.84 69.6327 189.557 65.0507 177.832C60.5455 166.139 53.6675 155.109 46.3358 144.576C35.8328 129.698 23.523 114.759 11.5231 100.819C1.92328 89.5481 -8.64014 78.1893 -18.2234 66.8927C-27.8566 55.3124 -35.7934 42.6143 -41.9172 29.3403C-54.2106 2.8016 -57.8322 -26.5328 -52.9569 -54.2286C-51.1452 -64.6037 -48.2794 -74.801 -44.1894 -84.5479C-42.8167 -87.7942 -41.3478 -91.0009 -39.6103 -94.0961L-39.3595 -93.976L-39.3575 -93.9509L-39.376 -93.9505Z" fill="#FAECC8"/>
<path d="M-50.2321 -95.2088C-68.208 -59.0836 -69.5996 -15.6352 -53.295 22.5741C-49.1126 32.5073 -43.7138 42.1959 -37.4186 51.2282C-32.2932 58.8374 -26.2195 66.099 -20.0426 73.015C-4.99705 89.6855 10.1525 106.856 24.0763 124.272C40.0777 144.749 56.2824 166.762 60.9387 191.61C62.7833 200.389 62.9528 209.246 63.7297 218.031C64.4697 223.241 65.9809 228.334 67.7577 233.378C82.4269 273.131 118.907 322.312 79.2477 357.449C45.4455 390.497 34.3695 444.972 42.9131 489.801C44.4795 496.676 47.7961 503.245 51.0062 509.757C54.2813 516.268 57.7465 522.716 61.1852 529.181C74.82 555.054 88.6755 581.374 94.1578 609.553C98.4231 632.123 95.476 652.373 77.7579 668.902C51.2629 693.917 17.4666 711.412 -10.8665 734.532C-43.9485 760.605 -71.6867 793.871 -65.6267 836.628C-64.4667 845.204 -63.0908 854.286 -61.2577 862.797C-57.7191 880.089 -52.2067 897.322 -42.0362 912.701C-38.0229 918.911 -33.5743 924.985 -30.2484 931.554C-25.1684 941.442 -22.8926 952.179 -21.6658 962.806C-21.4907 964.577 -21.2792 966.34 -21.1412 968.112L-20.7655 973.414C-19.4409 992.456 -29.3007 1007.79 -46.8152 1017.75C-66.2364 1029.11 -89.2946 1034.2 -110.136 1042.95C-123.674 1048.62 -138.081 1057.21 -139.996 1071.75L-140.269 1071.7C-138.546 1056.96 -124.095 1048.1 -110.535 1042.24C-89.8086 1033.2 -66.9661 1027.97 -47.7461 1016.53C-28.129 1004.82 -20.6033 989.575 -23.2726 968.176C-24.3848 956.04 -26.5193 943.658 -32.3769 932.371C-37.4345 922.65 -44.7906 913.951 -49.8688 904.205C-60.3011 884.627 -64.5534 863.179 -67.6722 842.092C-79.5119 779.981 -25.4728 739.251 23.089 706.673C44.403 691.589 77.1737 672.851 88.5484 650.607C104.969 614.19 77.386 564.269 59.8339 529.722C56.4496 523.239 53.0288 516.764 49.7968 510.211C46.6292 503.647 43.3371 497.036 41.773 489.952C34.3891 449.042 42.6048 402.687 67.8008 368.983C70.4331 365.449 73.5237 361.955 76.5781 358.714C78.2773 357.035 80.6669 354.679 82.3158 352.951C92.5543 342.717 97.0852 328.613 95.7166 314.615C93.1787 286.194 75.8249 260.756 65.7541 233.891C63.2538 227.07 61.2685 219.945 61.0112 212.823C60.4576 200.582 58.7767 188.299 54.1946 176.574C49.6894 164.881 42.8114 153.851 35.4797 143.317C24.9767 128.44 12.6669 113.501 0.667077 99.5609C-8.93277 88.2898 -19.4962 76.931 -29.0795 65.6344C-38.7127 54.0541 -46.6495 41.356 -52.7733 28.082C-65.0667 1.54329 -68.6883 -27.7911 -63.813 -55.4869C-62.0013 -65.862 -59.1354 -76.0593 -55.0455 -85.8062C-53.6727 -89.0525 -52.2039 -92.2592 -50.4664 -95.3544L-50.2155 -95.2343L-50.2135 -95.2092L-50.2321 -95.2088Z" fill="#FAECC8"/>
<path d="M-61.0959 -96.4689C-79.0718 -60.3437 -80.4634 -16.8953 -64.1589 21.314C-59.9764 31.2472 -54.5776 40.9358 -48.2824 49.9681C-43.157 57.5773 -37.0833 64.8389 -30.9064 71.7549C-15.8609 88.4254 -0.711377 105.596 13.2125 123.012C29.2139 143.489 45.4186 165.502 50.0748 190.35C51.9195 199.128 52.0889 207.986 52.8659 216.771C53.6059 221.981 55.1171 227.074 56.8939 232.118C71.563 271.871 108.043 321.052 68.3839 356.189C34.5817 389.237 23.5057 443.712 32.0492 488.541C33.6156 495.416 36.9323 501.984 40.1424 508.497C43.4174 515.008 46.8826 521.456 50.3213 527.921C63.9562 553.794 77.8117 580.114 83.294 608.293C87.5593 630.863 84.6122 651.112 66.8941 667.642C40.3991 692.657 6.60276 710.152 -21.7303 733.272C-54.8124 759.345 -82.5505 792.611 -76.4906 835.368C-75.3305 843.944 -73.9546 853.026 -72.1215 861.537C-68.583 878.829 -63.0705 896.061 -52.9 911.441C-48.8868 917.651 -44.4381 923.725 -41.1122 930.293C-36.0322 940.182 -33.7564 950.919 -32.5296 961.545C-32.3545 963.317 -32.143 965.08 -32.005 966.852L-31.6294 972.154C-30.3047 991.195 -40.1645 1006.53 -57.679 1016.49C-77.1003 1027.85 -100.159 1032.94 -121 1041.69C-134.538 1047.36 -148.945 1055.95 -150.86 1070.49L-151.133 1070.44C-149.41 1055.7 -134.959 1046.84 -121.399 1040.98C-100.672 1031.94 -77.8299 1026.71 -58.6099 1015.27C-38.9928 1003.56 -31.4672 988.315 -34.1365 966.916C-35.2486 954.78 -37.3831 942.397 -43.2407 931.111C-48.2984 921.39 -55.6544 912.691 -60.7326 902.945C-71.165 883.367 -75.4172 861.919 -78.536 840.832C-90.3757 778.721 -36.3366 737.991 12.2252 705.413C33.5391 690.329 66.3092 671.583 77.6846 649.347C94.105 612.93 66.5222 563.009 48.9701 528.462C45.5857 521.978 42.1649 515.504 38.933 508.951C35.7654 502.387 32.4733 495.776 30.9092 488.691C23.5253 447.781 31.741 401.427 56.937 367.723C59.5693 364.189 62.6598 360.695 65.7143 357.454C67.4135 355.775 69.8031 353.419 71.452 351.691C81.6904 341.457 86.2214 327.353 84.8528 313.355C82.3149 284.934 64.9611 259.495 54.8903 232.631C52.3899 225.81 50.4046 218.685 50.1474 211.563C49.5937 199.322 47.9129 187.039 43.3308 175.314C38.8256 163.621 31.9476 152.591 24.6159 142.057C14.1129 127.18 1.80309 112.241 -10.1968 98.3008C-19.7966 87.0297 -30.36 75.6709 -39.9433 64.3743C-49.5765 52.794 -57.5133 40.0959 -63.6371 26.8219C-75.9305 0.283207 -79.5521 -29.0512 -74.6768 -56.747C-72.8651 -67.1221 -69.9992 -77.3194 -65.9093 -87.0663C-64.5365 -90.3126 -63.0677 -93.5192 -61.3302 -96.6145L-61.0793 -96.4944L-61.0774 -96.4693L-61.0959 -96.4689Z" fill="#FAECC8"/>
<path d="M-71.9605 -97.7295C-89.9364 -61.6043 -91.328 -18.1558 -75.0235 20.0535C-70.841 29.9866 -65.4422 39.6752 -59.147 48.7076C-54.0216 56.3167 -47.9479 63.5784 -41.7711 70.4943C-26.7255 87.1649 -11.576 104.336 2.34788 121.751C18.3493 142.228 34.554 164.242 39.2103 189.089C41.0549 197.868 41.2243 206.725 42.0012 215.511C42.7413 220.721 44.2524 225.813 46.0293 230.858C60.6984 270.611 97.1781 319.791 57.5193 354.928C23.7171 387.977 12.6411 442.451 21.1846 487.28C22.751 494.155 26.0677 500.724 29.2778 507.236C32.5528 513.747 36.018 520.195 39.4474 526.661C53.0823 552.533 66.9378 578.853 72.4201 607.033C76.6854 629.603 73.7383 649.852 56.0202 666.382C29.5252 691.396 -4.27112 708.891 -32.6042 732.012C-65.6862 758.084 -93.4244 791.351 -87.3645 834.107C-86.2044 842.683 -84.8285 851.765 -82.9954 860.276C-79.4568 877.569 -73.9444 894.801 -63.7739 910.18C-59.7606 916.39 -55.312 922.465 -51.986 929.033C-46.9061 938.922 -44.6303 949.659 -43.4035 960.285C-43.2284 962.057 -43.0169 963.819 -42.8789 965.592L-42.5032 970.894C-41.1786 989.935 -51.0384 1005.27 -68.5529 1015.23C-87.9741 1026.59 -111.032 1031.68 -131.873 1040.43C-145.411 1046.1 -159.819 1054.69 -161.734 1069.23L-162.006 1069.18C-160.284 1054.44 -145.833 1045.58 -132.273 1039.71C-111.546 1030.68 -88.7038 1025.45 -69.4838 1014.01C-49.8667 1002.3 -42.341 987.054 -45.0103 965.656C-46.1225 953.519 -48.257 941.137 -54.1146 929.851C-59.1723 920.129 -66.5283 911.43 -71.6064 901.684C-82.0388 882.106 -86.2911 860.659 -89.4099 839.571C-101.25 777.461 -47.2105 736.731 1.35125 704.153C22.6652 689.068 55.4267 670.331 66.8107 648.087C83.2218 611.669 55.6483 561.748 38.0962 527.201C34.7119 520.718 31.2911 514.244 28.0592 507.69C24.8915 501.127 21.5994 494.516 20.0353 487.431C12.6514 446.521 20.867 400.167 46.0631 366.462C48.6954 362.928 51.786 359.435 54.8404 356.193C56.5396 354.514 58.9292 352.158 60.5781 350.43C70.8165 340.196 75.3475 326.093 73.9789 312.094C71.441 283.674 54.0872 258.235 44.0164 231.371C41.516 224.55 39.5308 217.424 39.2735 210.303C38.7198 198.062 37.039 185.779 32.4569 174.054C27.9517 162.36 21.0737 151.331 13.742 140.797C3.23903 125.919 -9.07078 110.981 -21.0706 97.0405C-30.6705 85.7693 -41.2339 74.4106 -50.8172 63.1139C-60.4504 51.5336 -68.3872 38.8356 -74.511 25.5615C-86.8044 -0.977137 -90.426 -30.3116 -85.5507 -58.0074C-83.739 -68.3824 -80.8731 -78.5797 -76.7832 -88.3266C-75.4104 -91.573 -73.9416 -94.7796 -72.2041 -97.8749L-71.9532 -97.7548L-71.9513 -97.7297L-71.9605 -97.7295Z" fill="#FAECC8"/>
<path d="M-82.8253 -98.9874C-100.801 -62.8622 -102.193 -19.4137 -85.8883 18.7956C-81.7058 28.7287 -76.307 38.4173 -70.0118 47.4496C-64.8864 55.0588 -58.8127 62.3205 -52.6359 69.2364C-37.5903 85.907 -22.4408 103.078 -8.51693 120.493C7.48448 140.97 23.6892 162.984 28.3455 187.831C30.1901 196.61 30.3595 205.467 31.1364 214.253C31.8765 219.463 33.3877 224.555 35.1645 229.6C49.8336 269.353 86.3133 318.533 46.6545 353.67C12.8523 386.719 1.77625 441.193 10.3198 486.022C11.8862 492.897 15.2029 499.466 18.413 505.978C21.688 512.489 25.1532 518.937 28.5827 525.403C42.2175 551.275 56.073 577.595 61.5553 605.775C65.8206 628.345 62.8735 648.594 45.1554 665.124C18.6604 690.138 -15.1359 707.633 -43.469 730.754C-76.551 756.826 -104.289 790.093 -98.2292 832.849C-97.0692 841.425 -95.6933 850.507 -93.8602 859.018C-90.3217 876.311 -84.8092 893.543 -74.6387 908.922C-70.6254 915.132 -66.1768 921.207 -62.8508 927.775C-57.7709 937.663 -55.4951 948.401 -54.2683 959.027C-54.0932 960.799 -53.8817 962.561 -53.7436 964.334L-53.368 969.636C-52.0434 988.677 -61.9032 1004.01 -79.4177 1013.97C-98.8389 1025.33 -121.897 1030.42 -142.738 1039.17C-156.276 1044.84 -170.684 1053.43 -172.598 1067.97L-172.871 1067.92C-171.148 1053.19 -156.697 1044.33 -143.137 1038.46C-122.411 1029.42 -99.5686 1024.19 -80.3486 1012.75C-60.7315 1001.05 -53.2058 985.797 -55.8751 964.398C-56.9873 952.261 -59.1218 939.879 -64.9794 928.593C-70.037 918.871 -77.3931 910.172 -82.4712 900.426C-92.9036 880.849 -97.1559 859.401 -100.275 838.313C-112.114 776.203 -58.0753 735.473 -9.51353 702.895C11.8004 687.81 44.5619 669.073 55.9459 646.829C72.357 610.412 44.7835 560.49 27.2314 525.944C23.8471 519.46 20.4262 512.986 17.1943 506.432C14.0267 499.869 10.7346 493.258 9.17046 486.173C1.78662 445.263 10.0023 398.909 35.1983 365.204C37.8306 361.671 40.9212 358.177 43.9756 354.935C45.6748 353.256 48.0644 350.901 49.7133 349.172C59.9517 338.938 64.4827 324.835 63.1141 310.836C60.5762 282.416 43.2224 256.977 33.1516 230.113C30.6513 223.292 28.666 216.166 28.4087 209.045C27.8551 196.804 26.1742 184.521 21.5921 172.796C17.0869 161.102 10.2089 150.073 2.87723 139.539C-7.62578 124.661 -19.9356 109.723 -31.9354 95.7825C-41.5353 84.5114 -52.0987 73.1526 -61.682 61.856C-71.3152 50.2757 -79.252 37.5776 -85.3758 24.3036C-97.6692 -2.23506 -101.291 -31.5695 -96.4154 -59.2653C-94.6038 -69.6404 -91.7379 -79.8377 -87.648 -89.5845C-86.2752 -92.8309 -84.8064 -96.0375 -83.0689 -99.1328L-82.818 -99.0127L-82.8161 -98.9876L-82.8253 -98.9874Z" fill="#FAECC8"/>
<path d="M-93.6902 -100.246C-111.666 -64.1204 -113.058 -20.6719 -96.7531 17.5374C-92.5707 27.4705 -87.1719 37.1591 -80.8767 46.1915C-75.7513 53.8006 -69.6776 61.0623 -63.5007 67.9783C-48.4552 84.6488 -33.3057 101.82 -19.3818 119.235C-3.38034 139.712 12.8243 161.726 17.4806 186.573C19.3252 195.352 19.4947 204.209 20.2716 212.995C21.0117 218.204 22.5228 223.297 24.2996 228.342C38.9688 268.094 75.4485 317.275 35.7897 352.412C1.98745 385.46 -9.08858 439.935 -0.545036 484.764C1.02135 491.639 4.33801 498.208 7.54812 504.72C10.8232 511.231 14.2884 517.679 17.7178 524.145C31.3527 550.017 45.2081 576.337 50.6905 604.517C54.9558 627.087 52.0087 647.336 34.2906 663.866C7.79555 688.88 -26.0008 706.375 -54.3339 729.496C-87.4159 755.568 -115.154 788.835 -109.094 831.591C-107.934 840.167 -106.558 849.249 -104.725 857.76C-101.186 875.053 -95.6741 892.285 -85.5036 907.664C-81.4903 913.874 -77.0417 919.949 -73.7157 926.517C-68.6358 936.405 -66.3599 947.143 -65.1332 957.769C-64.958 959.541 -64.7465 961.303 -64.6085 963.076L-64.2329 968.378C-62.9082 987.419 -72.7681 1002.75 -90.2825 1012.71C-109.704 1024.07 -132.762 1029.16 -153.603 1037.91C-167.141 1043.59 -181.549 1052.17 -183.463 1066.71L-183.736 1066.66C-182.013 1051.93 -167.562 1043.07 -154.002 1037.2C-133.276 1028.17 -110.433 1022.93 -91.2134 1011.49C-71.5963 999.788 -64.0707 984.538 -66.74 963.14C-67.8521 951.003 -69.9866 938.621 -75.8442 927.335C-80.9019 917.613 -88.2579 908.914 -93.3361 899.168C-103.768 879.59 -108.021 858.143 -111.14 837.055C-122.979 774.945 -68.9402 734.214 -20.3784 701.637C0.935585 686.552 33.697 667.815 45.081 645.571C61.4922 609.153 33.9186 559.232 16.3666 524.685C12.9822 518.202 9.56144 511.728 6.32949 505.174C3.16185 498.611 -0.1303 492 -1.6944 484.915C-9.07821 444.005 -0.862594 397.651 24.3334 363.946C26.9657 360.412 30.0563 356.919 33.1108 353.677C34.81 351.998 37.1996 349.642 38.8485 347.914C49.0869 337.68 53.6179 323.577 52.2493 309.578C49.7114 281.158 32.3575 255.719 22.2868 228.855C19.7864 222.034 17.8011 214.908 17.5439 207.787C16.9902 195.546 15.3093 183.263 10.7273 171.537C6.22206 159.844 -0.655939 148.815 -7.98763 138.281C-18.4906 123.403 -30.8004 108.465 -42.8003 94.5243C-52.4001 83.2532 -62.9636 71.8944 -72.5468 60.5978C-82.18 49.0175 -90.1168 36.3195 -96.2406 23.0454C-108.534 -3.49324 -112.156 -32.8277 -107.28 -60.5235C-105.469 -70.8985 -102.603 -81.0958 -98.5128 -90.8427C-97.1401 -94.0891 -95.6713 -97.2957 -93.9337 -100.391L-93.6829 -100.271L-93.6809 -100.246L-93.6902 -100.246Z" fill="#FAECC8"/>
<path d="M-104.546 -101.502C-122.522 -65.3766 -123.914 -21.9281 -107.609 16.2812C-103.427 26.2143 -98.0278 35.903 -91.7327 44.9353C-86.6072 52.5445 -80.5335 59.8061 -74.3567 66.7221C-59.3111 83.3926 -44.1616 100.563 -30.2378 117.979C-14.2363 138.456 1.96836 160.469 6.62464 185.317C8.46926 194.096 8.63868 202.953 9.4156 211.738C10.1556 216.948 11.6668 222.041 13.4437 227.085C28.1128 266.838 64.5925 316.019 24.9337 351.156C-8.86851 384.204 -19.9445 438.679 -11.401 483.508C-9.83461 490.383 -6.51794 496.952 -3.30783 503.464C-0.0327841 509.975 3.43242 516.423 6.87109 522.888C20.5059 548.761 34.3614 575.081 39.8437 603.26C44.109 625.83 41.162 646.08 23.4439 662.609C-3.05114 687.624 -36.8475 705.119 -65.1805 728.239C-98.2626 754.312 -126.001 787.578 -119.941 830.335C-118.781 838.911 -117.405 847.993 -115.572 856.504C-112.033 873.796 -106.521 891.029 -96.3502 906.408C-92.337 912.618 -87.8884 918.692 -84.5624 925.261C-79.4824 935.149 -77.2067 945.886 -75.9799 956.513C-75.8048 958.284 -75.5932 960.047 -75.4552 961.819L-75.0796 967.121C-73.7549 986.163 -83.6148 1001.5 -101.129 1011.46C-120.55 1022.81 -143.609 1027.9 -164.45 1036.65C-177.988 1042.33 -192.395 1050.91 -194.31 1065.45L-194.583 1065.41C-192.86 1050.67 -178.409 1041.81 -164.849 1035.94C-144.123 1026.91 -121.28 1021.67 -102.06 1010.24C-82.443 998.532 -74.9174 983.282 -77.5867 961.883C-78.6988 949.747 -80.8333 937.365 -86.6909 926.078C-91.7486 916.357 -99.1046 907.658 -104.183 897.912C-114.615 878.334 -118.867 856.886 -121.986 835.799C-133.826 773.688 -79.7869 732.958 -31.2251 700.38C-9.91111 685.296 22.8504 666.559 34.2344 644.314C50.6548 607.897 23.0719 557.976 5.51988 523.429C2.13551 516.946 -1.28528 510.471 -4.5172 503.918C-7.68487 497.354 -10.977 490.743 -12.5411 483.659C-19.9249 442.749 -11.7093 396.394 13.4868 362.69C16.119 359.156 19.2096 355.662 22.2641 352.421C23.9633 350.742 26.3529 348.386 28.0018 346.658C38.2402 336.424 42.7712 322.32 41.4026 308.322C38.8647 279.902 21.5109 254.463 11.4401 227.599C8.93974 220.777 6.95445 213.652 6.69717 206.53C6.14354 194.289 4.46264 182.006 -0.119393 170.281C-4.62463 158.588 -11.5026 147.558 -18.8343 137.024C-29.3373 122.147 -41.6471 107.208 -53.647 93.268C-63.2468 81.9968 -73.8103 70.6381 -83.3935 59.3414C-93.0268 47.7612 -100.963 35.0631 -107.087 21.789C-119.381 -4.74963 -123.002 -34.0841 -118.127 -61.7798C-116.315 -72.1549 -113.449 -82.3522 -109.36 -92.0991C-107.987 -95.3455 -106.518 -98.5521 -104.78 -101.647L-104.53 -101.527L-104.528 -101.502L-104.546 -101.502Z" fill="#FAECC8"/>
<path d="M-115.411 -102.762C-133.387 -66.6366 -134.778 -23.1882 -118.474 15.0211C-114.291 24.9542 -108.892 34.6429 -102.597 43.6752C-97.4719 51.2844 -91.3981 58.546 -85.2213 65.462C-70.1757 82.1325 -55.0262 99.3033 -41.1024 116.719C-25.1009 137.196 -8.89625 159.209 -4.23999 184.057C-2.39537 192.836 -2.22589 201.693 -1.449 210.478C-0.708959 215.688 0.80224 220.781 2.57905 225.825C17.2482 265.578 53.7279 314.759 14.0691 349.896C-19.7331 382.944 -30.8092 437.419 -22.2656 482.248C-20.6992 489.123 -17.3825 495.692 -14.1724 502.204C-10.8974 508.715 -7.43218 515.163 -3.99348 521.628C9.64138 547.501 23.4968 573.821 28.9792 602C33.2444 624.57 30.2973 644.82 12.5793 661.349C-13.9158 686.364 -47.7121 703.859 -76.0452 726.979C-109.127 753.052 -136.865 786.318 -130.805 829.075C-129.645 837.651 -128.269 846.733 -126.436 855.244C-122.898 872.536 -117.385 889.768 -107.215 905.148C-103.202 911.358 -98.753 917.432 -95.427 924.001C-90.3471 933.889 -88.0713 944.626 -86.8445 955.253C-86.6694 957.024 -86.4578 958.787 -86.3198 960.559L-85.9442 965.861C-84.6195 984.902 -94.4794 1000.24 -111.994 1010.2C-131.415 1021.55 -154.473 1026.64 -175.314 1035.39C-188.852 1041.07 -203.26 1049.65 -205.175 1064.19L-205.447 1064.15C-203.725 1049.41 -189.274 1040.55 -175.713 1034.68C-154.987 1025.65 -132.145 1020.41 -112.925 1008.98C-93.3076 997.272 -85.782 982.022 -88.4513 960.623C-89.5635 948.487 -91.6979 936.105 -97.5555 924.818C-102.613 915.097 -109.969 906.398 -115.047 896.652C-125.48 877.074 -129.732 855.626 -132.851 834.539C-144.691 772.428 -90.6514 731.698 -42.0897 699.12C-20.7757 684.036 11.995 665.298 23.3697 643.054C39.7901 606.637 12.2073 556.716 -5.34475 522.169C-8.72909 515.685 -12.1499 509.211 -15.3818 502.658C-18.5495 496.094 -21.8416 489.483 -23.4057 482.399C-30.7895 441.489 -22.5739 395.134 2.62214 361.43C5.25442 357.896 8.34499 354.402 11.3995 351.161C13.0987 349.482 15.4883 347.126 17.1372 345.398C27.3756 335.164 31.9066 321.06 30.538 307.062C28.0001 278.641 10.6463 253.203 0.575438 226.338C-1.92489 219.517 -3.91018 212.392 -4.16743 205.27C-4.72109 193.029 -6.40199 180.746 -10.984 169.021C-15.4893 157.328 -22.3672 146.298 -29.6989 135.764C-40.202 120.887 -52.5117 105.948 -64.5116 92.0079C-74.1114 80.7367 -84.6749 69.378 -94.2582 58.0813C-103.891 46.5011 -111.828 33.803 -117.952 20.529C-130.245 -6.00972 -133.867 -35.3442 -128.992 -63.0399C-127.18 -73.415 -124.314 -83.6123 -120.224 -93.3592C-118.851 -96.6056 -117.383 -99.8122 -115.645 -102.907L-115.394 -102.787L-115.392 -102.762L-115.411 -102.762Z" fill="#FAECC8"/>
<path d="M-126.275 -104.022C-144.251 -67.8965 -145.643 -24.4481 -129.338 13.7612C-125.156 23.6944 -119.757 33.383 -113.462 42.4153C-108.337 50.0245 -102.263 57.2861 -96.086 64.2021C-81.0405 80.8726 -65.8909 98.0434 -51.9671 115.459C-35.9656 135.936 -19.761 157.949 -15.1047 182.797C-13.2601 191.576 -13.0906 200.433 -12.3137 209.218C-11.5737 214.428 -10.0625 219.521 -8.28565 224.565C6.38349 264.318 42.8632 313.499 3.2044 348.636C-30.5978 381.684 -41.6739 436.159 -33.1303 480.988C-31.5639 487.863 -28.2473 494.432 -25.0371 500.944C-21.7621 507.455 -18.2969 513.903 -14.8582 520.368C-1.22336 546.241 12.6321 572.561 18.1145 600.74C22.3797 623.31 19.4327 643.56 1.71456 660.089C-24.7804 685.104 -58.5768 702.599 -86.9099 725.719C-119.992 751.792 -147.73 785.058 -141.67 827.815C-140.51 836.391 -139.134 845.473 -137.301 853.984C-133.763 871.276 -128.25 888.509 -118.08 903.888C-114.066 910.098 -109.618 916.172 -106.292 922.741C-101.212 932.629 -98.936 943.366 -97.7092 953.993C-97.5341 955.764 -97.3225 957.527 -97.1845 959.299L-96.8089 964.601C-95.4842 983.643 -105.344 998.977 -122.859 1008.94C-142.28 1020.29 -165.338 1025.38 -186.179 1034.13C-199.717 1039.81 -214.125 1048.39 -216.039 1062.93L-216.312 1062.89C-214.589 1048.15 -200.138 1039.29 -186.578 1033.42C-165.852 1024.39 -143.009 1019.15 -123.789 1007.72C-104.172 996.012 -96.6467 980.762 -99.316 959.363C-100.428 947.227 -102.563 934.845 -108.42 923.558C-113.478 913.837 -120.834 905.138 -125.912 895.392C-136.344 875.814 -140.597 854.366 -143.716 833.279C-155.555 771.169 -101.516 730.438 -52.9544 697.86C-31.6404 682.776 1.12964 664.03 12.505 641.794C28.9254 605.377 1.34264 555.456 -16.2094 520.909C-19.5938 514.426 -23.0146 507.951 -26.2465 501.398C-29.4142 494.834 -32.7063 488.223 -34.2704 481.139C-41.6542 440.229 -33.4386 393.874 -8.24253 360.17C-5.61026 356.636 -2.51968 353.142 0.534787 349.901C2.23396 348.222 4.62357 345.866 6.27249 344.138C16.5109 333.904 21.0419 319.8 19.6733 305.802C17.1354 277.382 -0.218456 251.943 -10.2893 225.079C-12.7896 218.258 -14.7749 211.132 -15.0321 204.01C-15.5858 191.769 -17.2667 179.486 -21.8487 167.761C-26.3539 156.068 -33.2319 145.038 -40.5636 134.504C-51.0666 119.627 -63.3764 104.688 -75.3763 90.748C-84.9761 79.4769 -95.5396 68.1181 -105.123 56.8215C-114.756 45.2412 -122.693 32.5431 -128.817 19.2691C-141.11 -7.2696 -144.732 -36.604 -139.856 -64.2998C-138.045 -74.6749 -135.179 -84.8722 -131.089 -94.6191C-129.716 -97.8654 -128.247 -101.072 -126.51 -104.167L-126.259 -104.047L-126.257 -104.022L-126.275 -104.022Z" fill="#FAECC8"/>
<path d="M-137.139 -105.282C-155.115 -69.157 -156.507 -25.7085 -140.202 12.5008C-136.02 22.4339 -130.621 32.1225 -124.326 41.1549C-119.2 48.764 -113.127 56.0257 -106.95 62.9416C-91.9043 79.6122 -76.7547 96.7829 -62.8309 114.198C-46.8295 134.675 -30.6248 156.689 -25.9685 181.537C-24.1239 190.315 -23.9544 199.173 -23.1775 207.958C-22.4375 213.168 -20.9263 218.26 -19.1495 223.305C-4.48033 263.058 31.9994 312.238 -7.65942 347.376C-41.4616 380.424 -52.5377 434.898 -43.9941 479.727C-42.4278 486.603 -39.1111 493.171 -35.901 499.684C-32.6259 506.194 -29.1607 512.642 -25.7313 519.108C-12.0964 544.981 1.75905 571.301 7.24136 599.48C11.5066 622.05 8.55958 642.299 -9.15853 658.829C-35.6535 683.843 -69.4499 701.339 -97.7829 724.459C-130.865 750.532 -158.603 783.798 -152.543 826.555C-151.383 835.131 -150.007 844.213 -148.174 852.723C-144.636 870.016 -139.123 887.248 -128.953 902.628C-124.939 908.837 -120.491 914.912 -117.165 921.48C-112.085 931.369 -109.809 942.106 -108.582 952.732C-108.407 954.504 -108.196 956.267 -108.058 958.039L-107.682 963.341C-106.357 982.382 -116.217 997.717 -133.732 1007.68C-153.153 1019.03 -176.211 1024.12 -197.052 1032.87C-210.59 1038.55 -224.998 1047.13 -226.912 1061.67L-227.185 1061.63C-225.462 1046.89 -211.011 1038.03 -197.451 1032.16C-176.725 1023.13 -153.883 1017.89 -134.663 1006.46C-115.045 994.752 -107.52 979.502 -110.189 958.103C-111.301 945.966 -113.436 933.584 -119.293 922.298C-124.351 912.577 -131.707 903.878 -136.785 894.132C-147.218 874.554 -151.47 853.106 -154.589 832.019C-166.428 769.908 -112.389 729.178 -63.8275 696.6C-42.5135 681.516 -9.75205 662.779 1.63194 640.534C18.0431 604.117 -9.53047 554.196 -27.0825 519.649C-30.4669 513.165 -33.8877 506.691 -37.1196 500.137C-40.2873 493.574 -43.5794 486.963 -45.1435 479.878C-52.5273 438.968 -44.3117 392.614 -19.1156 358.909C-16.4833 355.376 -13.3928 351.882 -10.3383 348.641C-8.63915 346.962 -6.24955 344.606 -4.60062 342.878C5.63777 332.644 10.1688 318.54 8.80018 304.542C6.26227 276.121 -11.0915 250.682 -21.1624 223.818C-23.6627 216.997 -25.648 209.872 -25.9052 202.75C-26.4589 190.509 -28.1398 178.226 -32.7218 166.501C-37.2271 154.808 -44.105 143.778 -51.4367 133.244C-61.9397 118.366 -74.2495 103.428 -86.2494 89.4877C-95.8492 78.2166 -106.413 66.8578 -115.996 55.5612C-125.629 43.9809 -133.566 31.2829 -139.69 18.0088C-151.983 -8.52985 -155.605 -37.8643 -150.729 -65.5601C-148.918 -75.9351 -146.052 -86.1324 -141.962 -95.8793C-140.589 -99.1257 -139.12 -102.332 -137.383 -105.428L-137.132 -105.307L-137.13 -105.282L-137.139 -105.282Z" fill="#FAECC8"/>
<path d="M-148.004 -106.54C-165.98 -70.4149 -167.372 -26.9665 -151.067 11.2428C-146.885 21.176 -141.486 30.8646 -135.191 39.8969C-130.065 47.5061 -123.991 54.7677 -117.815 61.6837C-102.769 78.3542 -87.6195 95.525 -73.6957 112.94C-57.6942 133.417 -41.4895 155.431 -36.8333 180.279C-34.9886 189.057 -34.8192 197.915 -34.0423 206.7C-33.3023 211.91 -31.7911 217.002 -30.0143 222.047C-15.3451 261.8 21.1346 310.98 -18.5242 346.118C-52.3264 379.166 -63.4025 433.64 -54.8589 478.47C-53.2925 485.345 -49.9758 491.913 -46.7657 498.426C-43.4907 504.936 -40.0255 511.385 -36.5961 517.85C-22.9612 543.723 -9.10576 570.043 -3.62342 598.222C0.641868 620.792 -2.3052 641.041 -20.0233 657.571C-46.5183 682.586 -80.3147 700.081 -108.648 723.201C-141.73 749.274 -169.468 782.54 -163.408 825.297C-162.248 833.873 -160.872 842.955 -159.039 851.466C-155.5 868.758 -149.988 885.99 -139.817 901.37C-135.804 907.579 -131.356 913.654 -128.03 920.223C-122.95 930.111 -120.674 940.848 -119.447 951.475C-119.272 953.246 -119.06 955.009 -118.922 956.781L-118.547 962.083C-117.222 981.124 -127.082 996.459 -144.596 1006.42C-164.018 1017.78 -187.076 1022.86 -207.917 1031.62C-221.455 1037.29 -235.862 1045.87 -237.777 1060.41L-238.05 1060.37C-236.327 1045.63 -221.876 1036.77 -208.316 1030.9C-187.59 1021.87 -164.747 1016.64 -145.527 1005.2C-125.91 993.494 -118.385 978.244 -121.054 956.845C-122.166 944.708 -124.3 932.327 -130.158 921.04C-135.216 911.319 -142.572 902.62 -147.65 892.874C-158.082 873.296 -162.335 851.848 -165.453 830.761C-177.293 768.65 -123.254 727.92 -74.6923 695.342C-53.3783 680.258 -20.6169 661.521 -9.23287 639.276C7.17829 602.859 -20.3953 552.938 -37.9473 518.391C-41.3317 511.907 -44.7524 505.433 -47.9844 498.88C-51.152 492.316 -54.4442 485.705 -56.0083 478.62C-63.3921 437.71 -55.1765 391.356 -29.9805 357.652C-27.3482 354.118 -24.2576 350.624 -21.2031 347.383C-19.5039 345.704 -17.1143 343.348 -15.4654 341.62C-5.22701 331.386 -0.696032 317.282 -2.06463 303.284C-4.60254 274.863 -21.9563 249.424 -32.0271 222.56C-34.5275 215.739 -36.5127 208.614 -36.77 201.492C-37.3237 189.251 -39.0046 176.968 -43.5866 165.243C-48.0918 153.55 -54.9698 142.52 -62.3015 131.986C-72.8045 117.109 -85.1143 102.17 -97.1142 88.2298C-106.714 76.9587 -117.277 65.5999 -126.861 54.3033C-136.494 42.723 -144.431 30.0249 -150.555 16.7509C-162.848 -9.78778 -166.469 -39.1222 -161.594 -66.818C-159.783 -77.1931 -156.917 -87.3904 -152.827 -97.1372C-151.454 -100.384 -149.985 -103.59 -148.248 -106.686L-147.997 -106.565L-147.995 -106.54L-148.004 -106.54Z" fill="#FAECC8"/>
<path d="M-158.861 -107.797C-176.837 -71.6716 -178.228 -28.2232 -161.924 9.98614C-157.741 19.9193 -152.343 29.6079 -146.047 38.6402C-140.922 46.2494 -134.848 53.511 -128.671 60.427C-113.626 77.0975 -98.4763 94.2683 -84.5525 111.684C-68.5511 132.161 -52.3464 154.174 -47.6901 179.022C-45.8455 187.801 -45.676 196.658 -44.8991 205.443C-44.1591 210.653 -42.6479 215.746 -40.8711 220.79C-26.2019 260.543 10.2778 309.724 -29.381 344.861C-63.1832 377.909 -74.2593 432.384 -65.7157 477.213C-64.1493 484.088 -60.8327 490.657 -57.6226 497.169C-54.3475 503.68 -50.8823 510.128 -47.4529 516.593C-33.818 542.466 -19.9625 568.786 -14.4802 596.966C-10.2149 619.535 -13.162 639.785 -30.8801 656.314C-57.3751 681.329 -91.1715 698.824 -119.505 721.944C-152.587 748.017 -180.325 781.283 -174.265 824.04C-173.105 832.616 -171.729 841.698 -169.896 850.209C-166.357 867.501 -160.845 884.734 -150.674 900.113C-146.661 906.323 -142.212 912.397 -138.886 918.966C-133.806 928.854 -131.531 939.591 -130.304 950.218C-130.129 951.99 -129.917 953.752 -129.779 955.525L-129.404 960.826C-128.079 979.868 -137.939 995.202 -155.453 1005.16C-174.874 1016.52 -197.933 1021.61 -218.774 1030.36C-232.312 1036.03 -246.719 1044.62 -248.634 1059.16L-248.907 1059.11C-247.184 1044.38 -232.733 1035.52 -219.173 1029.65C-198.447 1020.61 -175.604 1015.38 -156.384 1003.94C-136.767 992.237 -129.241 976.987 -131.911 955.588C-133.023 943.452 -135.157 931.07 -141.015 919.783C-146.073 910.062 -153.429 901.363 -158.507 891.617C-168.939 872.039 -173.191 850.591 -176.31 829.504C-188.15 767.394 -134.111 726.663 -85.5491 694.085C-64.2351 679.001 -31.4736 660.264 -20.0896 638.019C-3.67849 601.602 -31.2521 551.681 -48.8041 517.134C-52.1885 510.651 -55.6093 504.177 -58.8412 497.623C-62.0088 491.059 -65.301 484.448 -66.8651 477.364C-74.2489 436.454 -66.0333 390.099 -40.8373 356.395C-38.205 352.861 -35.1144 349.368 -32.0599 346.126C-30.3607 344.447 -27.9711 342.091 -26.3222 340.363C-16.0838 330.129 -11.5528 316.025 -12.9214 302.027C-15.4593 273.607 -32.8132 248.168 -42.8839 221.304C-45.3843 214.483 -47.3696 207.357 -47.6268 200.235C-48.1805 187.994 -49.8614 175.711 -54.4434 163.986C-58.9487 152.293 -65.8266 141.263 -73.1583 130.73C-83.6613 115.852 -95.9711 100.913 -107.971 86.9731C-117.571 75.702 -128.134 64.3432 -137.718 53.0466C-147.351 41.4663 -155.287 28.7682 -161.411 15.4942C-173.705 -11.0445 -177.326 -40.3789 -172.451 -68.0747C-170.639 -78.4498 -167.773 -88.6471 -163.684 -98.3939C-162.311 -101.64 -160.842 -104.847 -159.104 -107.942L-158.854 -107.822L-158.852 -107.797L-158.861 -107.797Z" fill="#FAECC8"/>
<path d="M-169.726 -109.055C-187.702 -72.9296 -189.093 -29.4812 -172.789 8.72811C-168.606 18.6613 -163.207 28.3499 -156.912 37.3822C-151.787 44.9914 -145.713 52.253 -139.536 59.169C-124.491 75.8395 -109.341 93.0103 -95.4173 110.426C-79.4158 130.903 -63.2112 152.916 -58.5549 177.764C-56.7103 186.543 -56.5408 195.4 -55.7639 204.185C-55.0238 209.395 -53.5127 214.488 -51.7359 219.532C-37.0668 259.285 -0.587042 308.466 -40.2458 343.603C-74.048 376.651 -85.1241 431.126 -76.5805 475.955C-75.0141 482.83 -71.6974 489.399 -68.4873 495.911C-65.2123 502.422 -61.7471 508.87 -58.3084 515.335C-44.6735 541.208 -30.8181 567.528 -25.3358 595.707C-21.0705 618.277 -24.0175 638.527 -41.7357 655.056C-68.2307 680.071 -102.027 697.566 -130.36 720.686C-163.442 746.759 -191.18 780.025 -185.12 822.782C-183.96 831.358 -182.584 840.44 -180.751 848.951C-177.213 866.243 -171.7 883.475 -161.53 898.855C-157.516 905.065 -153.068 911.139 -149.742 917.708C-144.662 927.596 -142.386 938.333 -141.159 948.96C-140.984 950.731 -140.773 952.494 -140.635 954.266L-140.259 959.568C-138.934 978.609 -148.794 993.944 -166.309 1003.9C-185.73 1015.26 -208.788 1020.35 -229.629 1029.1C-243.167 1034.78 -257.575 1043.36 -259.49 1057.9L-259.762 1057.86C-258.039 1043.12 -243.588 1034.26 -230.028 1028.39C-209.302 1019.36 -186.46 1014.12 -167.24 1002.68C-147.623 990.979 -140.097 975.729 -142.766 954.33C-143.878 942.194 -146.013 929.812 -151.87 918.525C-156.928 908.804 -164.284 900.105 -169.362 890.359C-179.795 870.781 -184.047 849.333 -187.166 828.246C-199.005 766.135 -144.966 725.405 -96.4046 692.827C-75.0906 677.743 -42.3199 659.005 -30.9452 636.761C-14.5247 600.344 -42.1076 550.423 -59.6596 515.876C-63.044 509.393 -66.4648 502.918 -69.6967 496.365C-72.8644 489.801 -76.1565 483.19 -77.7206 476.106C-85.1044 435.195 -76.8888 388.841 -51.6928 355.137C-49.0605 351.603 -45.9699 348.109 -42.9154 344.868C-41.2163 343.189 -38.8266 340.833 -37.1777 339.105C-26.9393 328.871 -22.4084 314.767 -23.777 300.769C-26.3149 272.348 -43.6687 246.91 -53.7395 220.045C-56.2398 213.224 -58.2251 206.099 -58.4823 198.977C-59.036 186.736 -60.7169 174.453 -65.2989 162.728C-69.8042 151.035 -76.6821 140.005 -84.0138 129.471C-94.5168 114.594 -106.827 99.6551 -118.826 85.7149C-128.426 74.4438 -138.99 63.085 -148.573 51.7884C-158.206 40.2081 -166.143 27.51 -172.267 14.236C-184.56 -12.3027 -188.182 -41.6371 -183.307 -69.3329C-181.495 -79.708 -178.629 -89.9053 -174.539 -99.6522C-173.166 -102.899 -171.697 -106.105 -169.96 -109.2L-169.709 -109.08L-169.707 -109.055L-169.726 -109.055Z" fill="#FAECC8"/>
<path d="M-180.59 -110.315C-198.565 -74.1894 -199.957 -30.741 -183.652 7.46831C-179.47 17.4015 -174.071 27.0901 -167.776 36.1224C-162.651 43.7316 -156.577 50.9932 -150.4 57.9092C-135.355 74.5797 -120.205 91.7505 -106.281 109.166C-90.2797 129.643 -74.075 151.657 -69.4187 176.504C-67.5741 185.283 -67.4047 194.14 -66.6277 202.925C-65.8877 208.135 -64.3765 213.228 -62.5997 218.273C-47.9306 258.025 -11.4509 307.206 -51.1097 342.343C-84.9119 375.391 -95.988 429.866 -87.4444 474.695C-85.878 481.57 -82.5613 488.139 -79.3512 494.651C-76.0762 501.162 -72.611 507.61 -69.1723 514.075C-55.5374 539.948 -41.6819 566.268 -36.1996 594.448C-31.9343 617.017 -34.8814 637.267 -52.5995 653.796C-79.0945 678.811 -112.891 696.306 -141.224 719.426C-174.306 745.499 -202.044 778.765 -195.984 821.522C-194.824 830.098 -193.448 839.18 -191.615 847.691C-188.077 864.983 -182.564 882.216 -172.394 897.595C-168.38 903.805 -163.932 909.879 -160.606 916.448C-155.526 926.336 -153.25 937.073 -152.023 947.7C-151.848 949.472 -151.637 951.234 -151.499 953.007L-151.123 958.308C-149.798 977.35 -159.658 992.684 -177.173 1002.64C-196.594 1014 -219.652 1019.09 -240.493 1027.84C-254.031 1033.52 -268.439 1042.1 -270.353 1056.64L-270.626 1056.6C-268.903 1041.86 -254.452 1033 -240.892 1027.13C-220.166 1018.1 -197.324 1012.86 -178.104 1001.42C-158.486 989.719 -150.961 974.469 -153.63 953.07C-154.742 940.934 -156.877 928.552 -162.734 917.265C-167.792 907.544 -175.148 898.845 -180.226 889.099C-190.659 869.521 -194.911 848.073 -198.03 826.986C-209.869 764.876 -155.83 724.145 -107.268 691.567C-85.9545 676.483 -53.1837 657.746 -41.809 635.501C-25.3886 599.084 -52.9715 549.163 -70.5235 514.616C-73.9079 508.133 -77.3287 501.659 -80.5606 495.105C-83.7282 488.541 -87.0203 481.93 -88.5844 474.846C-95.9683 433.936 -87.7527 387.581 -62.5566 353.877C-59.9243 350.343 -56.8337 346.849 -53.7793 343.608C-52.0801 341.929 -49.6905 339.573 -48.0416 337.845C-37.8032 327.611 -33.2722 313.507 -34.6408 299.509C-37.1787 271.089 -54.5325 245.65 -64.6033 218.786C-67.1036 211.965 -69.089 204.839 -69.3462 197.717C-69.8999 185.476 -71.5808 173.193 -76.1628 161.468C-80.668 149.775 -87.546 138.745 -94.8777 128.212C-105.381 113.334 -117.691 98.3953 -129.69 84.4551C-139.29 73.184 -149.854 61.8252 -159.437 50.5285C-169.07 38.9483 -177.007 26.2502 -183.131 12.9762C-195.424 -13.5625 -199.046 -42.8969 -194.17 -70.5927C-192.359 -80.9678 -189.493 -91.1651 -185.403 -100.912C-184.03 -104.158 -182.561 -107.365 -180.824 -110.46L-180.573 -110.34L-180.571 -110.315L-180.59 -110.315Z" fill="#FAECC8"/>
<path d="M-191.454 -111.575C-209.43 -75.4502 -210.822 -32.0017 -194.517 6.20758C-190.335 16.1407 -184.936 25.8293 -178.641 34.8617C-173.515 42.4708 -167.442 49.7325 -161.265 56.6484C-146.219 73.319 -131.07 90.4897 -117.146 107.905C-101.144 128.382 -84.9396 150.396 -80.2833 175.243C-78.4387 184.022 -78.2693 192.879 -77.4924 201.665C-76.7523 206.875 -75.2412 211.967 -73.4643 217.012C-58.7952 256.765 -22.3155 305.945 -61.9743 341.082C-95.7765 374.131 -106.853 428.605 -98.309 473.434C-96.7426 480.309 -93.4259 486.878 -90.2158 493.39C-86.9408 499.901 -83.4756 506.349 -80.0369 512.815C-66.402 538.687 -52.5466 565.007 -47.0642 593.187C-42.7989 615.757 -45.746 636.006 -63.4641 652.536C-89.9591 677.55 -123.755 695.045 -152.089 718.166C-185.171 744.238 -212.909 777.505 -206.849 820.261C-205.689 828.837 -204.313 837.919 -202.48 846.43C-198.941 863.723 -193.429 880.955 -183.258 896.334C-179.245 902.544 -174.796 908.619 -171.47 915.187C-166.39 925.075 -164.115 935.813 -162.888 946.439C-162.713 948.211 -162.501 949.973 -162.363 951.746L-161.988 957.047C-160.663 976.089 -170.523 991.424 -188.037 1001.38C-207.458 1012.74 -230.517 1017.83 -251.358 1026.58C-264.896 1032.26 -279.303 1040.84 -281.218 1055.38L-281.491 1055.33C-279.768 1040.6 -265.317 1031.74 -251.757 1025.87C-231.031 1016.84 -208.188 1011.6 -188.968 1000.16C-169.351 988.458 -161.825 973.208 -164.495 951.81C-165.607 939.673 -167.741 927.291 -173.599 916.005C-178.657 906.283 -186.013 897.584 -191.091 887.838C-201.523 868.26 -205.775 846.813 -208.894 825.725C-220.734 763.615 -166.695 722.884 -118.133 690.307C-96.8191 675.222 -64.0484 656.485 -52.6736 634.241C-36.2532 597.823 -63.836 547.902 -81.3881 513.355C-84.7724 506.872 -88.1933 500.398 -91.4252 493.844C-94.5929 487.281 -97.885 480.67 -99.4491 473.585C-106.833 432.675 -98.6173 386.321 -73.4212 352.616C-70.7889 349.082 -67.6984 345.589 -64.6439 342.347C-62.9447 340.668 -60.5551 338.312 -58.9062 336.584C-48.6678 326.35 -44.1368 312.247 -45.5054 298.248C-48.0433 269.828 -65.3971 244.389 -75.4679 217.525C-77.9683 210.704 -79.9536 203.578 -80.2108 196.457C-80.7645 184.216 -82.4454 171.933 -87.0274 160.207C-91.5326 148.514 -98.4106 137.485 -105.742 126.951C-116.245 112.073 -128.555 97.1346 -140.555 83.1944C-150.155 71.9232 -160.718 60.5645 -170.301 49.2678C-179.935 37.6875 -187.872 24.9895 -193.995 11.7154C-206.289 -14.8232 -209.91 -44.1577 -205.035 -71.8535C-203.223 -82.2285 -200.357 -92.4258 -196.268 -102.173C-194.895 -105.419 -193.426 -108.626 -191.688 -111.721L-191.438 -111.601L-191.436 -111.576L-191.454 -111.575Z" fill="#FAECC8"/>
<path d="M-202.31 -112.834C-220.286 -76.7085 -221.678 -33.26 -205.373 4.94929C-201.191 14.8824 -195.792 24.5711 -189.497 33.6034C-184.371 41.2125 -178.297 48.4742 -172.121 55.3902C-157.075 72.0607 -141.925 89.2314 -128.002 106.647C-112 127.124 -95.7956 149.138 -91.1393 173.985C-89.2946 182.764 -89.1252 191.621 -88.3482 200.406C-87.6082 205.616 -86.097 210.709 -84.3202 215.753C-69.6511 255.506 -33.1714 304.687 -72.8302 339.824C-106.632 372.872 -117.708 427.347 -109.165 472.176C-107.599 479.051 -104.282 485.62 -101.072 492.132C-97.7967 498.643 -94.3315 505.091 -90.9021 511.557C-77.2672 537.429 -63.4117 563.749 -57.9294 591.929C-53.6641 614.498 -56.6112 634.748 -74.3293 651.278C-100.824 676.292 -134.621 693.787 -162.954 716.908C-196.036 742.98 -223.774 776.247 -217.714 819.003C-216.554 827.579 -215.178 836.661 -213.345 845.172C-209.806 862.464 -204.294 879.697 -194.123 895.076C-190.11 901.286 -185.662 907.361 -182.336 913.929C-177.256 923.817 -174.98 934.555 -173.753 945.181C-173.578 946.953 -173.366 948.715 -173.228 950.488L-172.853 955.789C-171.528 974.831 -181.388 990.166 -198.902 1000.12C-218.324 1011.48 -241.382 1016.57 -262.223 1025.32C-275.761 1031 -290.168 1039.58 -292.083 1054.12L-292.356 1054.08C-290.633 1039.34 -276.182 1030.48 -262.622 1024.61C-241.896 1015.58 -219.053 1010.34 -199.833 998.905C-180.216 987.2 -172.691 971.95 -175.36 950.552C-176.472 938.415 -178.606 926.033 -184.464 914.746C-189.522 905.025 -196.878 896.326 -201.956 886.58C-212.388 867.002 -216.641 845.555 -219.759 824.467C-231.599 762.357 -177.56 721.626 -128.998 689.049C-107.684 673.964 -74.9228 655.227 -63.5388 632.983C-47.1277 596.565 -74.7012 546.644 -92.2533 512.097C-95.6376 505.614 -99.0585 499.14 -102.29 492.586C-105.458 486.023 -108.75 479.412 -110.314 472.327C-117.698 431.417 -109.482 385.063 -84.2864 351.358C-81.6541 347.824 -78.5635 344.331 -75.5091 341.089C-73.8099 339.41 -71.4203 337.054 -69.7714 335.326C-59.533 325.092 -55.002 310.989 -56.3706 296.99C-58.9085 268.57 -76.2623 243.131 -86.3331 216.267C-88.8334 209.446 -90.8187 202.32 -91.076 195.198C-91.6296 182.958 -93.3105 170.674 -97.8926 158.949C-102.398 147.256 -109.276 136.227 -116.607 125.693C-127.11 110.815 -139.42 95.8765 -151.42 81.9363C-161.02 70.6651 -171.583 59.3064 -181.167 48.0097C-190.8 36.4295 -198.737 23.7314 -204.86 10.4573C-217.154 -16.0813 -220.775 -45.4158 -215.9 -73.1115C-214.088 -83.4866 -211.223 -93.6839 -207.133 -103.431C-205.76 -106.677 -204.291 -109.884 -202.554 -112.979L-202.303 -112.859L-202.301 -112.834L-202.31 -112.834Z" fill="#FAECC8"/>
<path d="M-213.175 -114.091C-231.151 -77.9662 -232.542 -34.5178 -216.238 3.69155C-212.055 13.6247 -206.657 23.3133 -200.361 32.3457C-195.236 39.9548 -189.162 47.2164 -182.985 54.1324C-167.94 70.8029 -152.79 87.9737 -138.866 105.389C-122.865 125.866 -106.66 147.88 -102.004 172.727C-100.159 181.506 -99.99 190.363 -99.2131 199.149C-98.473 204.359 -96.9618 209.451 -95.185 214.496C-80.5159 254.249 -44.0362 303.429 -83.695 338.566C-117.497 371.615 -128.573 426.089 -120.03 470.918C-118.463 477.793 -115.147 484.362 -111.936 490.874C-108.661 497.385 -105.196 503.833 -101.767 510.299C-88.132 536.171 -74.2765 562.491 -68.7942 590.671C-64.5289 613.241 -67.476 633.49 -85.1941 650.02C-111.689 675.034 -145.485 692.529 -173.818 715.65C-206.901 741.722 -234.639 774.989 -228.579 817.745C-227.419 826.321 -226.043 835.403 -224.21 843.914C-220.671 861.207 -215.159 878.439 -204.988 893.818C-200.975 900.028 -196.526 906.103 -193.2 912.671C-188.12 922.559 -185.845 933.297 -184.618 943.923C-184.443 945.695 -184.231 947.457 -184.093 949.23L-183.718 954.532C-182.393 973.573 -192.253 988.908 -209.767 998.867C-229.188 1010.22 -252.247 1015.31 -273.088 1024.06C-286.626 1029.74 -301.033 1038.32 -302.948 1052.86L-303.221 1052.82C-301.498 1038.08 -287.047 1029.22 -273.487 1023.35C-252.761 1014.32 -229.918 1009.08 -210.698 997.648C-191.081 985.942 -183.555 970.693 -186.225 949.294C-187.337 937.157 -189.471 924.775 -195.329 913.489C-200.387 903.767 -207.743 895.068 -212.821 885.322C-223.253 865.744 -227.505 844.297 -230.624 823.209C-242.464 761.099 -188.425 720.369 -139.863 687.791C-118.549 672.706 -85.7876 653.969 -74.4036 631.725C-57.9924 595.307 -85.566 545.386 -103.118 510.84C-106.502 504.356 -109.923 497.882 -113.155 491.328C-116.323 484.765 -119.615 478.154 -121.179 471.069C-128.563 430.159 -120.347 383.805 -95.1512 350.1C-92.5189 346.567 -89.4283 343.073 -86.3739 339.831C-84.6747 338.152 -82.2851 335.796 -80.6362 334.068C-70.3978 323.834 -65.8668 309.731 -67.2354 295.732C-69.7733 267.312 -87.1271 241.873 -97.1979 215.009C-99.6982 208.188 -101.684 201.062 -101.941 193.941C-102.494 181.7 -104.175 169.417 -108.757 157.692C-113.263 145.998 -120.141 134.969 -127.472 124.435C-137.975 109.557 -150.285 94.6188 -162.285 80.6785C-171.885 69.4074 -182.448 58.0486 -192.031 46.752C-201.665 35.1717 -209.601 22.4736 -215.725 9.19961C-228.019 -17.3391 -231.64 -46.6735 -226.765 -74.3693C-224.953 -84.7444 -222.087 -94.9417 -217.997 -104.689C-216.625 -107.935 -215.156 -111.142 -213.418 -114.237L-213.168 -114.117L-213.166 -114.092L-213.175 -114.091Z" fill="#FAECC8"/>
<path d="M-224.04 -115.35C-242.015 -79.2247 -243.407 -35.7762 -227.103 2.43306C-222.92 12.3662 -217.521 22.0548 -211.226 31.0872C-206.101 38.6963 -200.027 45.9579 -193.85 52.8739C-178.805 69.5444 -163.655 86.7152 -149.731 104.131C-133.73 124.608 -117.525 146.621 -112.869 171.469C-111.024 180.247 -110.855 189.105 -110.078 197.89C-109.338 203.1 -107.827 208.193 -106.05 213.237C-91.3806 252.99 -54.9009 302.171 -94.5597 337.308C-128.362 370.356 -139.438 424.831 -130.894 469.66C-129.328 476.535 -126.011 483.104 -122.801 489.616C-119.526 496.127 -116.061 502.575 -112.622 509.04C-98.9874 534.913 -85.132 561.233 -79.6496 589.412C-75.3844 611.982 -78.3314 632.232 -96.0496 648.761C-122.545 673.776 -156.341 691.271 -184.674 714.391C-217.756 740.464 -245.494 773.73 -239.434 816.487C-238.274 825.063 -236.898 834.145 -235.065 842.656C-231.527 859.948 -226.014 877.181 -215.844 892.56C-211.83 898.77 -207.382 904.844 -204.056 911.413C-198.976 921.301 -196.7 932.038 -195.473 942.665C-195.298 944.436 -195.087 946.199 -194.949 947.971L-194.573 953.273C-193.248 972.314 -203.108 987.649 -220.623 997.608C-240.044 1008.97 -263.102 1014.05 -283.943 1022.81C-297.481 1028.48 -311.889 1037.06 -313.803 1051.6L-314.076 1051.56C-312.353 1036.82 -297.902 1027.96 -284.342 1022.09C-263.616 1013.06 -240.774 1007.83 -221.554 996.389C-201.936 984.684 -194.411 969.434 -197.08 948.035C-198.192 935.899 -200.327 923.517 -206.184 912.23C-211.242 902.509 -218.598 893.81 -223.676 884.064C-234.109 864.486 -238.361 843.038 -241.48 821.951C-253.319 759.84 -199.28 719.11 -150.719 686.532C-129.405 671.448 -96.6431 652.711 -85.2591 630.466C-68.8479 594.049 -96.4215 544.128 -113.974 509.581C-117.358 503.097 -120.779 496.623 -124.011 490.07C-127.178 483.506 -130.47 476.895 -132.035 469.81C-139.418 428.9 -131.203 382.546 -106.007 348.842C-103.374 345.308 -100.284 341.814 -97.2293 338.573C-95.5302 336.894 -93.1405 334.538 -91.4916 332.81C-81.2532 322.576 -76.7222 308.472 -78.0908 294.474C-80.6288 266.053 -97.9826 240.614 -108.053 213.75C-110.554 206.929 -112.539 199.804 -112.796 192.682C-113.35 180.441 -115.031 168.158 -119.613 156.433C-124.118 144.74 -130.996 133.71 -138.328 123.176C-148.831 108.299 -161.141 93.3601 -173.14 79.4198C-182.74 68.1487 -193.304 56.7899 -202.887 45.4933C-212.52 33.913 -220.457 21.2149 -226.581 7.94091C-238.874 -18.5978 -242.496 -47.9322 -237.62 -75.628C-235.809 -86.0031 -232.943 -96.2004 -228.853 -105.947C-227.48 -109.194 -226.011 -112.4 -224.274 -115.495L-224.023 -115.375L-224.021 -115.35L-224.04 -115.35Z" fill="#FAECC8"/>
<path d="M-234.904 -116.61C-252.88 -80.4846 -254.272 -37.0361 -237.967 1.17317C-233.785 11.1063 -228.386 20.7949 -222.091 29.8273C-216.965 37.4364 -210.892 44.6981 -204.715 51.614C-189.669 68.2846 -174.52 85.4553 -160.596 102.871C-144.594 123.348 -128.39 145.361 -123.733 170.209C-121.889 178.988 -121.719 187.845 -120.942 196.63C-120.202 201.84 -118.691 206.933 -116.914 211.977C-102.245 251.73 -65.7656 300.911 -105.424 336.048C-139.227 369.096 -150.303 423.571 -141.759 468.4C-140.193 475.275 -136.876 481.844 -133.666 488.356C-130.391 494.867 -126.926 501.315 -123.487 507.78C-109.852 533.653 -95.9966 559.973 -90.5143 588.152C-86.249 610.722 -89.1961 630.972 -106.914 647.501C-133.409 672.516 -167.206 690.011 -195.539 713.131C-228.621 739.204 -256.359 772.47 -250.299 815.227C-249.139 823.803 -247.763 832.885 -245.93 841.396C-242.391 858.688 -236.879 875.921 -226.708 891.3C-222.695 897.51 -218.246 903.584 -214.92 910.153C-209.841 920.041 -207.565 930.778 -206.338 941.405C-206.163 943.176 -205.951 944.939 -205.813 946.711L-205.438 952.013C-204.113 971.055 -213.973 986.389 -231.487 996.348C-250.909 1007.71 -273.967 1012.8 -294.808 1021.55C-308.346 1027.22 -322.753 1035.8 -324.668 1050.34L-324.941 1050.3C-323.218 1035.56 -308.767 1026.7 -295.207 1020.83C-274.481 1011.8 -251.638 1006.57 -232.418 995.129C-212.801 983.424 -205.275 968.174 -207.945 946.775C-209.057 934.639 -211.191 922.257 -217.049 910.97C-222.107 901.249 -229.463 892.55 -234.541 882.804C-244.973 863.226 -249.225 841.778 -252.344 820.691C-264.184 758.58 -210.145 717.85 -161.583 685.272C-140.269 670.188 -107.498 651.45 -96.1237 629.206C-79.7033 592.789 -107.286 542.868 -124.838 508.321C-128.223 501.838 -131.643 495.363 -134.875 488.81C-138.043 482.246 -141.335 475.635 -142.899 468.551C-150.283 427.641 -142.067 381.286 -116.871 347.582C-114.239 344.048 -111.148 340.554 -108.094 337.313C-106.395 335.634 -104.005 333.278 -102.356 331.55C-92.1179 321.316 -87.5869 307.212 -88.9555 293.214C-91.4934 264.793 -108.847 239.355 -118.918 212.491C-121.418 205.669 -123.404 198.544 -123.661 191.422C-124.215 179.181 -125.895 166.898 -130.477 155.173C-134.983 143.48 -141.861 132.45 -149.192 121.916C-159.695 107.039 -172.005 92.1002 -184.005 78.1599C-193.605 66.8888 -204.168 55.53 -213.752 44.2334C-223.385 32.6531 -231.322 19.955 -237.445 6.68102C-249.739 -19.8577 -253.36 -49.1921 -248.485 -76.8879C-246.673 -87.263 -243.808 -97.4603 -239.718 -107.207C-238.345 -110.453 -236.876 -113.66 -235.139 -116.755L-234.888 -116.635L-234.886 -116.61L-234.904 -116.61Z" fill="#FAECC8"/>
<path d="M-245.768 -117.87C-263.744 -81.7447 -265.136 -38.2962 -248.831 -0.0869131C-244.649 9.84624 -239.25 19.5348 -232.955 28.5672C-227.829 36.1763 -221.755 43.438 -215.579 50.354C-200.533 67.0245 -185.384 84.1952 -171.46 101.611C-155.458 122.088 -139.254 144.101 -134.597 168.949C-132.753 177.727 -132.583 186.585 -131.806 195.37C-131.066 200.58 -129.555 205.673 -127.778 210.717C-113.109 250.47 -76.6294 299.651 -116.288 334.788C-150.09 367.836 -161.167 422.311 -152.623 467.14C-151.057 474.015 -147.74 480.584 -144.53 487.096C-141.255 493.607 -137.79 500.055 -134.351 506.52C-120.716 532.393 -106.861 558.713 -101.378 586.892C-97.1129 609.462 -100.06 629.712 -117.778 646.241C-144.273 671.256 -178.069 688.751 -206.403 711.871C-239.485 737.944 -267.223 771.21 -261.163 813.967C-260.003 822.543 -258.627 831.625 -256.794 840.136C-253.255 857.428 -247.743 874.66 -237.572 890.04C-233.559 896.25 -229.11 902.324 -225.784 908.893C-220.704 918.781 -218.429 929.518 -217.202 940.145C-217.027 941.916 -216.815 943.679 -216.677 945.451L-216.302 950.753C-214.977 969.794 -224.837 985.129 -242.351 995.088C-261.772 1006.45 -284.831 1011.53 -305.672 1020.29C-319.21 1025.96 -333.617 1034.54 -335.532 1049.08L-335.805 1049.04C-334.082 1034.3 -319.631 1025.44 -306.071 1019.57C-285.345 1010.54 -262.502 1005.31 -243.282 993.869C-223.665 982.164 -216.139 966.914 -218.809 945.515C-219.921 933.379 -222.055 920.997 -227.913 909.71C-232.971 899.989 -240.327 891.29 -245.405 881.544C-255.837 861.966 -260.089 840.518 -263.208 819.431C-275.048 757.32 -221.009 716.59 -172.447 684.012C-151.133 668.928 -118.362 650.19 -106.988 627.946C-90.5672 591.529 -118.15 541.608 -135.702 507.061C-139.086 500.578 -142.507 494.103 -145.739 487.55C-148.907 480.986 -152.199 474.375 -153.763 467.291C-161.147 426.38 -152.931 380.026 -127.735 346.322C-125.103 342.788 -122.012 339.294 -118.958 336.053C-117.259 334.374 -114.869 332.018 -113.22 330.29C-102.982 320.056 -98.4508 305.952 -99.8194 291.954C-102.357 263.533 -119.711 238.094 -129.782 211.23C-132.282 204.409 -134.268 197.284 -134.525 190.162C-135.078 177.921 -136.759 165.638 -141.341 153.913C-145.847 142.22 -152.725 131.19 -160.056 120.656C-170.559 105.779 -182.869 90.8401 -194.869 76.8998C-204.469 65.6287 -215.032 54.27 -224.615 42.9733C-234.249 31.3931 -242.185 18.695 -248.309 5.42094C-260.603 -21.1177 -264.224 -50.4522 -259.349 -78.148C-257.537 -88.523 -254.671 -98.7203 -250.581 -108.467C-249.209 -111.714 -247.74 -114.92 -246.002 -118.015L-245.752 -117.895L-245.75 -117.87L-245.768 -117.87Z" fill="#FAECC8"/>
<path d="M-256.624 -119.128C-274.6 -83.0029 -275.992 -39.5545 -259.687 -1.34518C-255.505 8.58798 -250.106 18.2766 -243.811 27.3089C-238.685 34.9181 -232.611 42.1797 -226.435 49.0957C-211.389 65.7662 -196.24 82.937 -182.316 100.352C-166.314 120.829 -150.11 142.843 -145.453 167.691C-143.609 176.469 -143.439 185.327 -142.662 194.112C-141.922 199.322 -140.411 204.414 -138.634 209.459C-123.965 249.212 -87.4854 298.392 -127.144 333.53C-160.946 366.578 -172.022 421.052 -163.479 465.882C-161.913 472.757 -158.596 479.325 -155.386 485.838C-152.111 492.348 -148.646 498.797 -145.207 505.262C-131.572 531.135 -117.716 557.454 -112.234 585.634C-107.969 608.204 -110.916 628.453 -128.634 644.983C-155.129 669.997 -188.925 687.493 -217.258 710.613C-250.341 736.685 -278.079 769.952 -272.019 812.708C-270.859 821.284 -269.483 830.366 -267.65 838.877C-264.111 856.17 -258.599 873.402 -248.428 888.781C-244.415 894.991 -239.966 901.066 -236.64 907.634C-231.56 917.522 -229.285 928.26 -228.058 938.886C-227.883 940.658 -227.671 942.421 -227.533 944.193L-227.157 949.495C-225.833 968.536 -235.693 983.871 -253.207 993.83C-272.628 1005.19 -295.687 1010.28 -316.528 1019.03C-330.066 1024.7 -344.473 1033.29 -346.388 1047.83L-346.661 1047.78C-344.938 1033.05 -330.487 1024.18 -316.927 1018.32C-296.201 1009.28 -273.358 1004.05 -254.138 992.611C-234.521 980.905 -226.995 965.656 -229.665 944.257C-230.777 932.12 -232.911 919.738 -238.769 908.452C-243.827 898.73 -251.183 890.031 -256.261 880.285C-266.693 860.708 -270.945 839.26 -274.064 818.172C-285.904 756.062 -231.865 715.332 -183.303 682.754C-161.989 667.669 -129.228 648.932 -117.844 626.688C-101.432 590.271 -129.006 540.35 -146.558 505.803C-149.942 499.319 -153.363 492.845 -156.595 486.291C-159.763 479.728 -163.055 473.117 -164.619 466.032C-172.003 425.122 -163.787 378.768 -138.591 345.063C-135.959 341.53 -132.868 338.036 -129.814 334.794C-128.115 333.115 -125.725 330.76 -124.076 329.031C-113.838 318.797 -109.307 304.694 -110.675 290.695C-113.213 262.275 -130.567 236.836 -140.638 209.972C-143.138 203.151 -145.123 196.026 -145.381 188.904C-145.934 176.663 -147.615 164.38 -152.197 152.655C-156.703 140.961 -163.581 129.932 -170.912 119.398C-181.415 104.52 -193.725 89.5818 -205.725 75.6416C-215.325 64.3705 -225.888 53.0117 -235.471 41.7151C-245.105 30.1348 -253.041 17.4367 -259.165 4.16268C-271.459 -22.376 -275.08 -51.7104 -270.205 -79.4062C-268.393 -89.7813 -265.527 -99.9786 -261.437 -109.725C-260.065 -112.972 -258.596 -116.178 -256.858 -119.274L-256.607 -119.154L-256.606 -119.129L-256.624 -119.128Z" fill="#FAECC8"/>
</g>
</svg>
