<svg width="315" height="700" viewBox="0 0 315 700" fill="none" xmlns="http://www.w3.org/2000/svg">
<mask id="mask0_489_4680" style="mask-type:alpha" maskUnits="userSpaceOnUse" x="0" y="0" width="315" height="700">
<rect width="315" height="700" fill="#D9D9D9"/>
</mask>
<g mask="url(#mask0_489_4680)">
<path d="M373.788 1206.73C525.918 1237.94 726.992 1227.02 751.116 1059.75C756.259 1025.47 753.813 990.627 747.874 956.529C739.644 905.378 720.069 854.635 682.305 814.248C580.407 703.226 399.451 690.766 284.723 594.12C194.599 518.443 189.993 402.848 211.931 301.695C233.733 206.381 300.013 138.656 419.041 162.474C549.145 190.825 660.067 294.782 734.38 388.377C834.837 517.035 897.912 668.057 915.391 823.127C919.34 857.518 925.034 891.776 933.341 925.57C1029.97 1322.82 1382.28 1143.1 1331.4 823.292C1348.18 924.294 1326.87 1039.14 1240.87 1112.93C1197.37 1149.88 1134.11 1167.74 1077.36 1143.16C1023.15 1119.84 989.535 1072.19 966.463 1025.08C935.886 961.016 921.72 892.007 913.479 823.281C895.699 668.549 832.859 517.866 732.482 389.512C655.954 291.218 506.313 153.107 360.048 160.347C272.495 166.166 229.921 233.659 214.227 302.108C192.403 402.648 196.725 517.504 286.238 592.755C401.014 689.261 581.876 702.06 683.571 813.346C721.445 853.965 741.052 904.948 749.23 956.338C755.115 990.542 757.552 1025.5 752.283 1059.88C727.544 1227.56 526.501 1238.39 373.788 1206.73Z" fill="#FAECC8"/>
<path d="M373.788 1206.73C472.464 1223.47 605.461 1222.89 683.01 1159.42C719.795 1129.07 738.151 1088.1 743.521 1044.67C747.789 1010.37 744.894 975.613 738.254 941.669C731.888 907.673 721.183 874.049 702.348 843.643C624.83 714.631 444.365 691.839 317.659 614.366C218.288 554.219 186.749 467.437 192.636 365.01C195.261 321.95 201.938 278.263 220.896 238.194C279.324 115.922 412.24 132.282 520.406 194.615C713.518 308.76 839.55 514.68 888.314 710.803C905.918 778.29 906.944 848.03 924.543 915.507C932.821 948.988 943.941 982.72 959.254 1014.28C983.021 1062.78 1018.63 1112.63 1076.26 1133.88C1077.4 1134.28 1078.5 1134.78 1079.67 1135.11L1086.63 1137.18C1087.79 1137.53 1088.95 1137.9 1090.14 1138.12L1097.27 1139.71C1098.45 1140.01 1099.66 1140.17 1100.87 1140.35L1108.13 1141.44C1111.79 1141.75 1115.46 1142.08 1119.12 1142.27L1126.48 1142.33L1128.32 1142.34L1130.16 1142.23L1137.49 1141.8C1141.13 1141.41 1144.78 1140.92 1148.4 1140.4L1155.58 1138.99L1157.38 1138.64C1161.24 1137.52 1165.87 1136.61 1169.66 1135.24L1176.54 1132.96C1179.46 1131.72 1186.83 1129 1189.83 1127.38C1222.54 1112.23 1248.76 1088.07 1269.09 1061.26C1323.09 988.394 1336.06 897.078 1322.26 812.209C1336.34 897.134 1323.59 988.553 1269.72 1061.63C1250.77 1086.84 1226.6 1109.55 1196.81 1125.05C1193.71 1126.51 1190.22 1128.31 1187.07 1129.74C1185.98 1130.24 1184.83 1130.65 1183.72 1131.12L1176.98 1133.83C1172.58 1135.22 1167.42 1137.18 1163.01 1138.19C1160.77 1138.75 1158.1 1139.57 1155.87 1139.95C1149.96 1141.26 1143.54 1142.2 1137.61 1142.82C1135.76 1142.99 1132.05 1143.13 1130.2 1143.29C1128.87 1143.48 1120.8 1143.35 1119.05 1143.35C1114.22 1143.02 1109.08 1142.8 1104.29 1141.99L1100.63 1141.44C1099.41 1141.26 1098.18 1141.1 1096.99 1140.8L1089.79 1139.21C1086.58 1138.51 1082.4 1137.05 1079.19 1136.17C1021.66 1116.55 985.054 1068.3 960.739 1020.76C947.742 995.303 937.678 968.02 929.629 941.06C917.438 899.199 909.566 856.335 904.507 813.408C880.389 608.236 779.577 406.732 610.974 261.135C568.449 225.389 521.112 193.231 467.525 171.308C367.001 129.981 268.986 141.945 223.064 238.985C204.202 278.822 197.533 322.265 194.92 365.091C189.032 466.844 220.155 553 318.878 612.809C445.719 690.251 626.367 713.643 703.701 842.983C722.571 873.531 733.276 907.336 739.605 941.443C746.203 975.489 749.067 1010.37 744.7 1044.77C739.174 1088.39 720.607 1129.51 683.558 1159.93C605.658 1223.39 472.691 1223.71 373.788 1206.73Z" fill="#FAECC8"/>
<path d="M373.788 1206.73C450.078 1216.73 534.267 1214.92 606.308 1189.07C742.192 1139.62 753.06 1019.8 724.296 908.262C708.021 844.872 672.393 792.903 614.414 752.072C519.983 684.935 396.14 661.549 299.008 598.067C289.431 591.755 279.413 584.381 270.683 577.157C201.7 520.572 180.275 444.751 183.122 364.262C184.535 325.588 189.527 286.275 202.637 249.218C253.08 108.032 390.405 113.438 513.265 184.695C675.601 281.147 786.603 440.471 848.576 601.014C873.417 666.574 889.869 734.555 897.468 803.29C901.69 839.714 908.131 875.969 917.203 911.716C918.467 916.129 921.177 926.121 922.435 930.548C923.443 934.016 927.232 945.724 928.295 949.243C933.157 963.249 938.702 978.435 944.942 992.035C970.085 1047.81 1010.86 1107.99 1079.91 1126.84L1088.82 1128.82C1092.42 1129.46 1096.05 1129.96 1099.67 1130.48L1106.99 1131.06C1108.21 1131.16 1109.43 1131.27 1110.66 1131.25L1118.01 1131.32C1119.23 1131.37 1120.45 1131.24 1121.67 1131.17L1129 1130.74L1132.63 1130.27C1138.44 1129.62 1145.03 1128.43 1150.6 1127.03L1157.64 1125.17C1161.11 1124.08 1164.53 1122.92 1167.97 1121.76C1171.14 1120.4 1178.02 1117.87 1181.21 1116.15L1184.45 1114.62C1188.48 1112.77 1191.79 1110.68 1195.45 1108.78C1198.2 1107.06 1201.73 1104.92 1204.47 1103.2C1206.54 1101.82 1211.08 1098.55 1213.12 1097.18L1214.5 1096.11L1217.25 1093.96C1307.38 1021.34 1329.7 903.574 1313.16 801.185C1330.05 903.675 1307.92 1021.66 1217.86 1094.57L1215.11 1096.73L1213.72 1097.8C1211.78 1099.1 1207 1102.55 1205.06 1103.86C1202.29 1105.57 1198.79 1107.78 1196.01 1109.49C1193.01 1111.13 1188.03 1113.95 1184.96 1115.39C1181.65 1116.83 1178.49 1118.66 1175.11 1119.89L1168.39 1122.61C1163.95 1124.21 1159.09 1125.8 1154.46 1127.01C1152.16 1127.52 1149.61 1128.43 1147.34 1128.8L1140.11 1130.23C1136.85 1130.79 1132.46 1131.3 1129.12 1131.75C1125.55 1131.91 1121.55 1132.34 1118.02 1132.36C1114.84 1132.34 1109.85 1132.39 1106.9 1132.12L1099.5 1131.55C1095.84 1131.03 1092.16 1130.53 1088.52 1129.89L1081.32 1128.3C1012.98 1110.9 972.062 1052.97 946.119 998.555C944.094 994.031 941.371 987.937 939.4 983.463C938.744 981.947 934.091 970.061 933.295 968.181C931.205 962.322 928.725 955.574 926.66 949.632C925.552 945.952 921.936 934.799 920.756 930.907C908.546 889.113 900.611 846.311 895.528 803.442C871.705 598.487 771.336 397.224 603.42 251.42C561.082 215.585 513.92 183.368 460.593 161.158C328.116 106.437 228.795 148.863 197.267 274.733C189.02 307.085 185.782 340.888 185.103 373.997C184.45 453.518 207.99 525.85 277.563 580.135C285.52 586.53 294.606 592.849 303.183 598.521C399.929 660.378 522.032 684.316 615.46 750.887C675.62 793.335 712 848.238 727.143 914.33C754.245 1024.79 739.872 1141.44 606.488 1189.56C534.228 1215.29 450.112 1216.9 373.732 1206.73L373.788 1206.73Z" fill="#FAECC8"/>
<path d="M373.788 1206.73C461.802 1215.09 569.29 1206.12 642.696 1159.65C656.511 1150.76 669.298 1140.49 680.191 1128.9C692.594 1115.71 702.933 1100.69 710.353 1084.88C742.309 1017.72 729.469 931.371 703.944 863.728C636.24 695.473 437.967 680.628 292.995 589.747C195.788 528.006 167.654 439.487 174.746 338.135C179.076 278.657 190.759 214.939 235.836 167.968C261.479 141.199 300.307 125.319 340.139 124.62C437.754 123.313 529.786 183.056 597.288 239.932C737.357 361.62 829.312 522.746 870.662 690.855C876.737 716.174 881.611 741.717 885.222 767.391C890.485 810.185 895.97 853.035 906.773 895.077C909.604 906.718 913.767 921.142 917.485 932.638C936.812 992.001 968.755 1059.12 1027.23 1096.57C1066.66 1121.94 1114.12 1127.36 1159.3 1110.49C1197.83 1095.99 1228.49 1068.99 1251.32 1038.64C1304.95 965.811 1317.89 874.787 1304.09 790.099C1318.15 874.838 1305.44 965.975 1251.96 1039.01C1229.13 1069.52 1198.39 1096.72 1159.72 1111.37C1114.17 1128.48 1066.32 1123.1 1026.44 1097.53C967.608 1059.99 935.375 992.659 915.866 933.033C912.117 921.477 907.926 907.077 905.073 895.397C894.188 853.303 888.615 810.418 883.28 767.592C879.629 741.971 874.731 716.486 868.62 691.229C827.253 523.525 735.458 362.78 595.635 241.425C528.507 184.914 437.075 125.602 340.24 126.772C301.037 127.491 262.902 142.992 237.673 169.352C199.309 208.971 185.502 261.964 179.421 312.553C177.94 325.157 176.779 338.595 176.392 351.138C170.896 502.83 244.813 577.97 396.154 639.892C523.003 692.282 655.763 736.694 705.351 863.299C730.877 931.279 743.618 1017.8 711.296 1085.23C703.791 1101.09 693.36 1116.17 680.862 1129.39C669.896 1140.99 657.03 1151.3 643.137 1160.17C569.472 1206.54 461.946 1215.31 373.804 1206.73L373.788 1206.73Z" fill="#FAECC8"/>
<path d="M373.788 1206.73C475.389 1212.34 602.898 1193.48 670.838 1121.28C702.6 1087.98 717.777 1045.36 720.549 1002.44C722.878 968.095 717.982 933.657 709.751 900.084C701.707 866.472 688.411 833.663 668.011 804.244C583.106 679.691 406.084 658.663 281.146 577.723C213.64 533.463 177.646 475.799 167.722 402.675C162.103 359.857 164.577 316.28 172.071 273.766C196.649 135.957 296.636 75.1632 446.818 138.473C631.743 220.594 767.964 412.371 831.12 580.866C852.636 638.167 867.877 697.268 876.212 757.136C882.312 808.446 889.655 859.79 904.647 909.775C922.48 968.193 950.079 1031.52 1001.49 1073.58L1004.17 1075.79L1007 1077.84L1012.64 1081.96C1014.54 1083.31 1016.59 1084.5 1018.55 1085.78C1022.93 1088.72 1027.73 1091.1 1032.38 1093.67L1034 1094.42L1040.52 1097.41C1072 1111.05 1107.08 1112.74 1140.3 1102.77C1162.23 1096.02 1182.4 1085.02 1199.62 1071.4C1274.61 1011.15 1302.36 917.28 1299.96 830.469C1299.42 813.268 1297.72 796.096 1294.99 779.05C1309.05 863.716 1296.35 954.742 1243.01 1027.76C1221.53 1056.48 1193.22 1082.23 1157.69 1097.46C1119.95 1113.54 1079.8 1114.81 1041.58 1099.19C1039.23 1098.15 1035.72 1096.53 1033.36 1095.46L1031.72 1094.7L1030.14 1093.85C1023.78 1090.53 1017.66 1086.88 1011.79 1082.92C1009.41 1081.19 1005.43 1078.3 1003.25 1076.72C954.511 1037.93 927.796 983.026 908.962 928.848C904.244 914.699 899.707 899.392 896.117 885.036C887.633 851.374 881.7 817.261 877.574 783.003C862.483 646.02 811.989 512.242 731.659 393.98C671.179 305.939 594.59 223.923 496.717 166.068C448.084 138.138 392.181 115.015 332.974 115.686C226.145 117.738 183.827 206.055 172.203 286.844C156.172 399.396 172.074 504.421 282.446 576.241C407.633 657.261 584.32 678.485 669.366 803.56C689.8 833.121 703.117 866.125 711.13 899.859C723.374 950.182 728.332 1003.43 712.056 1053.46C706.741 1069.97 698.902 1086.15 688.631 1100.76C678.497 1115.45 665.6 1128.92 651.129 1140.45C580.075 1196.94 466.79 1212.12 373.803 1206.76L373.788 1206.73Z" fill="#FAECC8"/>
<path d="M373.788 1206.73C459.207 1207.9 555.3 1191.34 624.375 1145.34C661.825 1120.19 688.863 1085.99 702.131 1046.32C719.36 994.482 714.07 939.143 700.312 887.137C684.302 819.651 640.983 757.914 577.857 716.483C463.405 637.7 295.435 617.018 207.899 510.526C161.606 453.532 151.376 380.737 156.766 312.537C158.95 282.562 163.463 252.263 172.832 223.334C221.053 74.439 362.206 78.1515 490.115 153.88C679.815 268.717 805.887 475.669 852.817 670.311C860.921 704.008 866.546 738.137 870.461 772.385C877.197 827.857 888.158 883.233 908.287 936.28C928.454 987.926 958.1 1042.17 1009.8 1074.93C1051.96 1101.6 1101.57 1105.38 1148.42 1085.41C1165.97 1077.88 1182.04 1067.64 1196.13 1055.8C1266.86 995.019 1293.2 904.135 1290.85 819.342C1290.3 802.155 1288.6 785.004 1285.88 767.968C1299.9 852.545 1287.26 943.532 1234.03 1016.5C1212.63 1045.22 1184.32 1070.96 1148.88 1086.26C1109.86 1103.06 1066.71 1103.88 1027.92 1086.04C1014.83 1080.19 1002.59 1072.39 991.783 1063.69C957.168 1035.85 934.193 998.804 916.896 960.987C904.176 933.053 894.635 903.809 887.15 874.499C878.654 840.866 872.698 806.787 868.559 772.558C851.626 618.614 790.279 468.515 691.619 340.184C625.55 255.794 543.432 176.563 437.947 129.897C316.93 77.7441 213.168 104.811 175.112 223.898C165.776 252.681 161.256 282.838 159.077 312.667C153.689 380.432 163.731 452.774 209.701 509.417C238.043 544.609 277.64 571.502 319.949 592.878C404.842 635.94 500.652 662.273 578.937 715.283C642.256 756.949 685.757 819.13 701.692 886.864C715.417 939.064 720.606 994.601 703.149 1046.58C689.727 1086.35 662.457 1120.67 624.806 1145.81C555.545 1191.73 459.312 1208.1 373.804 1206.73L373.788 1206.73Z" fill="#FAECC8"/>
<path d="M373.788 1206.73C450.433 1204.64 532.645 1187.56 597.063 1150.21C642.559 1123.72 677.019 1085.91 692.932 1039.89C711.894 986.273 706.055 928.483 690.958 874.662C677.739 824.52 650.642 776.952 609.98 739.567C541.885 676.233 446.696 645.309 359.498 607.524C306.815 584.715 254.587 558.166 215.538 518.929C153.175 457.271 140.874 373.127 148.196 293.814C154.641 214.196 184.925 111.676 287.951 93.8617C357.134 82.906 425.396 110.593 481.912 143.333C643.726 242.419 751.346 398.339 813.439 560.087C833.308 613.24 847.753 667.954 856.303 723.373C858.359 736.138 859.809 749.005 861.422 761.817C867.676 813.003 877.459 864.076 894.85 913.324C917.321 976.911 958.369 1053.18 1033.02 1079.41C1062.93 1089.64 1096.17 1089.41 1126.06 1079.3L1131.2 1077.6L1139.53 1074.26C1140.66 1073.84 1141.72 1073.31 1142.8 1072.8L1146.03 1071.28C1150.36 1069.41 1154.61 1066.81 1158.63 1064.7C1249.88 1010.12 1284.86 900.955 1281.74 808.236C1281.2 791.058 1279.49 773.911 1276.77 756.886C1280.24 778.135 1282.12 799.648 1282.13 821.115C1282.02 910.439 1246.67 1012.83 1159.2 1065.44C1156.76 1066.82 1152.15 1069.3 1149.78 1070.53C1148.11 1071.29 1144.95 1072.84 1143.3 1073.61C1140.48 1075.02 1134.64 1077.21 1131.64 1078.46C1104.99 1088.25 1074.71 1091.15 1046.65 1084.4L1043.07 1083.61L1039.56 1082.58C1037.23 1081.87 1034.88 1081.22 1032.57 1080.47L1025.76 1077.92C1022.51 1076.77 1018.98 1074.99 1015.83 1073.59C1012.06 1071.91 1006.75 1068.88 1003.18 1066.89C1001.44 1065.81 996.045 1062.37 994.202 1061.21C944.561 1026.69 916.549 974.455 896.572 922.984C889.418 903.539 883.199 883.785 878.163 863.849C869.655 830.245 863.694 796.181 859.526 761.976C840.693 591.119 767.582 424.611 648.688 287.928C572.564 200.072 424.164 75.4189 288.438 95.9641C186.731 113.518 156.862 215.423 150.523 293.974C143.229 372.721 155.281 456.424 217.21 517.681C256.041 556.741 308.035 583.133 360.446 605.896C447.69 643.819 543.105 675.013 611.215 738.581C651.982 776.165 679.17 824.057 692.344 874.373C707.407 928.39 713.145 986.402 693.938 1040.15C677.827 1086.29 643.17 1124.17 597.435 1150.65C532.835 1187.89 450.546 1204.8 373.815 1206.73L373.788 1206.73Z" fill="#FAECC8"/>
<path d="M373.788 1206.73C476.627 1199.48 594.863 1163.34 654.787 1085.75C711.731 1012.94 703.042 918.387 673.527 837.961C621.566 698.564 486.058 654.802 348.418 596.583C313.292 581.206 278.677 564.44 247.809 542.989C145.049 473.922 127.37 369.175 141.292 262.628C161.384 96.6238 277.162 31.8131 448.477 118.844C673.323 239.749 819.279 500.812 849.122 725.458C856.14 785.176 865.256 845.064 885.846 902.513C897.356 935.195 912.45 967.355 933.179 996.41C957.632 1030.39 992.543 1061.83 1038.07 1072.28C1063.99 1078.45 1092.14 1076.59 1117.13 1068.16L1120.55 1067.02L1122.27 1066.45L1123.93 1065.77L1130.59 1063.1C1137.05 1060.35 1143.62 1056.91 1149.66 1053.54C1240.82 998.891 1275.75 889.838 1272.62 797.133C1272.08 779.956 1270.37 762.824 1267.66 745.808C1270.42 762.825 1272.18 779.954 1272.78 797.132C1275.74 887.059 1244.91 988.392 1162.13 1046.7C1155.6 1051.25 1147.99 1055.66 1140.81 1059.39C1137.62 1060.93 1134.27 1062.53 1131.06 1063.95C1129.59 1064.59 1124 1066.76 1122.68 1067.33C1101.69 1074.98 1078.59 1078.64 1055.89 1076.34C1054.09 1076.27 1046.97 1075.2 1044.93 1074.87C1042.97 1074.56 1039.74 1073.81 1037.74 1073.37C1032.94 1072.45 1028.28 1070.82 1023.65 1069.46L1016.85 1066.91C1015.73 1066.46 1014.56 1066.1 1013.46 1065.59L1010.19 1064.1C1008.01 1063.08 1005.8 1062.14 1003.67 1061.06C999.75 1058.9 994.817 1056.42 991.26 1054.03C935.89 1019.41 904.122 958.353 884.25 902.923C866.715 853.638 856.807 802.483 850.437 751.236C827.424 546.926 728.441 346.327 562.462 199.926C520.614 163.927 474.074 131.432 421.401 108.462C257.21 38.3941 161.484 115.475 143.578 262.841C126.808 396.514 158.233 500.197 297.611 570.455C447.93 645.794 613.578 674.869 674.872 837.544C704.402 918.41 712.859 1013.1 655.45 1086.15C595.197 1163.71 476.811 1199.67 373.761 1206.7L373.788 1206.73Z" fill="#FAECC8"/>
<path d="M373.788 1206.73C498.739 1192.31 637.139 1135.25 676.443 1022.38C696.248 966.76 689.928 906.673 672.607 851.155C653.497 784.403 607.867 724.319 544.396 683.607C422.61 601.02 238.382 581.075 162.221 453.112C125.861 391.201 123.82 318.91 132.267 251.079C140.818 184.94 166.796 107.249 242.705 78.9239C352.263 40.9511 480.478 122.881 555.355 187.666C717.953 331.386 816.602 527.253 841.716 727.429C852.757 824.051 879.405 954.852 960.646 1025.62C965.817 1030.12 971.499 1034.33 977.142 1038.34L986.048 1043.99C987.056 1044.59 988.11 1045.12 989.146 1045.7L995.373 1049.08C998.909 1050.86 1001.62 1051.92 1005.08 1053.58C1006.17 1054.06 1007.32 1054.44 1008.43 1054.87L1015.16 1057.41L1022.08 1059.49C1023.25 1059.82 1024.38 1060.21 1025.56 1060.49L1029.1 1061.29C1050.3 1066.34 1073.02 1065.91 1094.22 1061.08C1100.66 1059.5 1107.05 1057.58 1113.27 1055.38L1114.93 1054.7L1121.59 1052.04C1128.02 1049.28 1134.62 1045.83 1140.65 1042.47C1229.83 988.939 1265.07 883.421 1263.68 792.527C1263.38 773.226 1261.64 753.89 1258.57 734.78C1261.34 751.782 1263.09 768.911 1263.69 786.089C1266.66 876.001 1235.84 977.292 1153.12 1035.61C1150.07 1037.9 1144.53 1041.09 1141.21 1043.2C1138.93 1044.37 1134.07 1047.2 1131.82 1048.31C1128.54 1049.75 1125.33 1051.52 1122.07 1052.88L1115.37 1055.58C1095.15 1063.34 1072.7 1067.28 1050.61 1065.61C1043.58 1065.19 1035.59 1064 1028.79 1062.38C1024.86 1061.69 1018.6 1059.61 1014.7 1058.49C1011.81 1057.41 1007.15 1055.7 1004.52 1054.64L1001.25 1053.14C999.071 1052.12 996.853 1051.18 994.716 1050.12L988.435 1046.71C987.398 1046.14 986.327 1045.6 985.303 1044.99C927.843 1010.32 895.637 948.8 875.231 892.082C869.332 875.716 864.387 858.972 860.078 842.235C851.558 808.66 845.567 774.619 841.4 740.438C815.505 508.544 684.177 260.541 463.356 123.597C347.266 54.1575 207.481 38.2725 153.039 176.185C143.518 200.49 137.924 225.844 134.584 251.351C123.428 335.082 131.26 428.338 196.618 494.896C234.782 534.408 286.471 561.262 338.709 584.24C442.607 629.373 560.436 668.054 626.594 756.793C648.495 785.442 663.998 817.592 673.96 850.881C690.628 904.58 697.008 962.378 679.518 1016.51C665.203 1062.28 632.497 1102.71 590.081 1131.91C528.216 1174.34 451.206 1197.86 373.803 1206.78L373.788 1206.73Z" fill="#FAECC8"/>
<path d="M373.788 1206.73C459.391 1192.68 545.439 1160.03 606.544 1104.58C640.38 1073.65 664.53 1034.53 674.274 992.467C686.439 941.916 679.515 889.292 663.554 839.967C643.483 773.45 597.157 713.891 533.722 673.248C411.897 590.845 227.697 570.359 152.449 441.891C121.064 387.771 115.687 325.118 120.531 265.443C123.271 231.144 128.97 196.771 141.776 164.151C151.489 139.768 165.259 116.237 185.619 97.2846C212.464 71.5312 252.069 57.5755 291.712 58.1225C388.996 59.7821 479.289 119.462 546.406 176.725C703.864 315.829 800.983 503.971 830.091 697.24C830.858 702.964 831.98 710.724 832.623 716.45C838.028 763.356 845.915 810.25 859.613 855.895C880.099 922.544 915.607 1001.24 986.332 1038.02C988.447 1039.07 990.643 1040.02 992.799 1041.02L996.038 1042.5C997.133 1042.99 998.27 1043.37 999.383 1043.8L1006.11 1046.34L1013.04 1048.4C1014.21 1048.74 1015.34 1049.13 1016.51 1049.4L1020.06 1050.19C1045.99 1056.32 1074.12 1054.43 1099.08 1045.97C1112.72 1041.55 1125.79 1035.08 1137.59 1027.66C1209.2 981.373 1243.38 901.842 1252.35 826.424C1256.24 792.368 1254.94 757.549 1249.46 723.683C1252.24 740.685 1253.99 757.814 1254.58 774.983C1257.31 863.667 1228.44 960.444 1149.8 1020.46C1123.39 1039.87 1091.2 1053.61 1056.32 1054.83C1051.51 1054.85 1046.38 1054.99 1041.56 1054.51C1039.12 1054.25 1036.54 1054.23 1034.22 1053.85L1026.93 1052.78C1023.66 1052.23 1019.43 1051.19 1016.16 1050.49C1014.32 1049.99 1007.7 1048.03 1005.65 1047.41C1002.7 1046.29 998.147 1044.63 995.47 1043.56C992.203 1042.07 988.847 1040.57 985.665 1039.03L979.384 1035.63C927.216 1005.87 896.962 955.211 875.548 905.508C865.894 882.298 858.18 858.419 851.776 834.367C842.914 799.762 836.593 764.688 832.307 729.434C809.376 525.2 710.53 324.653 544.732 178.202C477.967 121.29 388.262 62.0451 291.718 60.2768C252.687 59.7693 213.802 73.3715 187.382 98.7348C147.229 136.855 132.416 189.715 125.503 239.981C114.365 323.693 121.74 416.894 186.546 483.809C224.414 523.539 275.986 550.585 328.147 573.679C415.107 612.127 509.905 643.608 579.065 706.074C620.51 742.996 649.515 789.81 664.908 839.643C684.642 900.286 689.964 966.889 664.001 1026.69C618.809 1130.65 492.693 1187.44 373.788 1206.73Z" fill="#FAECC8"/>
<path d="M373.788 1206.73C484.535 1183.4 601.376 1125.34 648.989 1030.8C664.917 999.476 672.374 965.048 672.475 930.802C671.197 845.694 637.186 758.221 568.096 696.968C498.854 634.813 404.411 603.38 317.507 564.957C265.098 541.735 213.345 514.426 175.357 474.419C110.39 406.967 102.932 313.174 114.041 228.967C117.39 203.324 122.989 177.799 132.571 153.349C187.357 14.5856 328.198 28.7871 446.475 99.6483C660.148 230.916 793.732 475.384 822.719 698.861C829.262 756.424 838.874 814.121 858.593 869.468C870.108 902.135 885.225 934.286 905.96 963.326C930.419 997.294 965.358 1028.71 1010.88 1039.11C1032.08 1044.17 1054.8 1043.74 1076 1038.91C1082.45 1037.33 1088.84 1035.41 1095.05 1033.22L1096.71 1032.54L1103.38 1029.87C1109.81 1027.11 1116.4 1023.67 1122.44 1020.3C1213.52 965.659 1248.47 856.572 1245.34 763.921C1244.79 746.759 1243.09 729.621 1240.36 712.61C1243.12 729.617 1244.89 746.742 1245.49 763.92C1248.46 853.832 1217.64 955.122 1134.91 1013.45C1131.91 1015.73 1126.3 1018.92 1123.01 1021.04C1120.74 1022.25 1115.85 1025 1113.61 1026.14C1110.42 1027.69 1107.08 1029.28 1103.86 1030.71L1097.17 1033.42C1076.94 1041.17 1054.5 1045.11 1032.41 1043.44C1025.38 1043.02 1017.39 1041.83 1010.58 1040.2C1006.65 1039.51 1000.39 1037.43 996.491 1036.31C993.585 1035.21 988.958 1033.52 986.314 1032.46L983.041 1030.96C980.864 1029.94 978.645 1029.01 976.509 1027.94L970.227 1024.53C969.191 1023.96 968.12 1023.42 967.107 1022.81C909.646 988.137 877.441 926.616 857.046 869.894C851.147 853.527 846.202 836.784 841.893 820.046C833.373 786.471 827.383 752.431 823.215 718.25C808.35 581.536 758.403 447.933 678.572 329.732C613.423 234.654 529.73 145.547 420.34 87.6774C305.751 28.0239 183.727 29.2227 134.849 154.011C125.327 178.316 119.745 203.665 116.399 229.187C105.321 312.911 112.536 406.092 177.08 473.187C214.844 513.007 266.357 540.149 318.489 563.316C405.411 601.876 500.075 633.568 569.321 695.939C638.579 757.557 672.625 845.328 673.725 930.798C673.52 965.16 665.925 999.715 649.855 1031.11C601.845 1125.7 484.796 1183.61 373.788 1206.73Z" fill="#FAECC8"/>
<path d="M373.788 1206.73C448.687 1187.27 520.023 1153.51 575.765 1105.24C666.091 1027.29 683.248 922.915 646.172 819.415C629.597 770.123 600.154 723.777 558.714 687.203C475.329 612.175 356.961 582.678 256.64 529.882C241.938 522.081 227.615 513.595 214.051 504.342C126.631 445.9 98.064 363.485 100.869 270.038C102.049 235.881 105.64 200.934 114.991 167.687C134.003 97.5951 182.691 35.8984 272.576 36.0081C332.241 36.2229 388.127 59.907 436.896 88.3001C598.534 187.494 706.05 343.372 768.043 505.088C787.879 558.231 802.302 612.93 810.831 668.334C812.886 681.098 814.32 693.96 815.939 706.758C821.095 749.428 828.944 791.916 841.296 833.459C863.313 906.52 908.4 1003.07 998.069 1027.24L1005.16 1028.83C1006.35 1029.08 1007.51 1029.4 1008.73 1029.55L1015.95 1030.63C1016.55 1030.71 1017.15 1030.82 1017.76 1030.88L1019.58 1031.01L1023.22 1031.3C1027.6 1031.7 1033.33 1031.74 1037.84 1031.68C1054.34 1031.13 1070.58 1027.71 1085.82 1022.23C1090.14 1020.47 1096.5 1018.06 1100.63 1015.91C1104.89 1014.08 1109.25 1011.42 1113.22 1009.34C1204.4 954.703 1239.34 845.621 1236.22 752.917C1235.67 735.739 1233.97 718.602 1231.25 701.591C1236.82 735.465 1238.24 770.321 1234.44 804.403C1225.48 884.14 1185.95 972.477 1104.38 1015.18C1084.13 1025.38 1061.34 1031.95 1037.89 1032.75C1034.21 1032.8 1030.5 1032.78 1026.81 1032.69C1024.95 1032.59 1021.29 1032.24 1019.44 1032.13L1017.61 1031.99C1016.99 1031.94 1016.39 1031.82 1015.78 1031.74C1012.64 1031.28 1007.73 1030.64 1004.89 1029.94L1001.3 1029.15C996.505 1028.23 991.843 1026.6 987.216 1025.25C984.25 1024.12 979.716 1022.5 977.045 1021.38C973.778 1019.89 970.399 1018.4 967.246 1016.85C964.493 1015.34 960.322 1013.14 957.839 1011.7C956.105 1010.59 950.683 1007.2 948.845 1006.02C898.283 970.83 869.933 917.399 850.046 864.832C843.273 846.412 837.526 827.671 832.713 808.801C824.199 775.211 818.22 741.166 814.058 706.971C795.279 536.165 722.272 369.698 603.496 233.003C528.048 145.486 378.501 20.2285 243.584 40.5885C141.646 57.6826 111.557 159.46 105.061 238.026C102.972 261.337 102.332 285.382 103.934 308.681C109.72 390.842 144.643 457.388 221.203 506.824C280.485 545.377 349.587 569.323 414.907 598.69C484.765 629.401 552.807 668.575 597.441 726.04C619.791 754.242 636.379 786.238 647.526 819.116C684.577 923.036 666.999 1027.68 576.209 1105.66C520.241 1153.87 448.827 1187.46 373.803 1206.78L373.788 1206.73Z" fill="#FAECC8"/>
</g>
</svg>
