<svg width="1280" height="973" viewBox="0 0 1280 973" fill="none" xmlns="http://www.w3.org/2000/svg">
<mask id="mask0_496_3894" style="mask-type:alpha" maskUnits="userSpaceOnUse" x="-193" y="0" width="1692" height="973">
<rect x="-43.1445" width="1596.32" height="579" transform="rotate(15 -43.1445 0)" fill="#D9D9D9"/>
</mask>
<g mask="url(#mask0_496_3894)">
<path d="M382.789 -382.443C260.601 -290.97 143.732 -132.63 271.652 5.42896C297.743 33.8722 329.083 57.042 361.975 77.0605C410.892 107.599 466.581 129.353 524.828 130.062C683.748 133.445 807.99 6.94015 962.667 -9.59346C1083.97 -22.7565 1185.73 56.7295 1258.47 145.721C1326.31 230.423 1342.64 328.622 1247.55 400.625C1141.64 477.667 983.095 486.106 856.396 474.58C683.296 457.465 514.533 396.326 370.928 298.154C339.034 276.437 306.159 256.12 272.039 238.092C-128.39 25.4139 -195.81 418.055 109.664 609.412C12.7391 549.51 -72.1165 451.161 -81.2492 333.852C-85.5412 274.786 -61.1141 214.618 -4.46469 189.779C49.507 165.936 111.358 174.959 166.136 191.49C240.125 214.567 308.041 253.474 371.997 296.613C515.501 394.317 683.827 455.389 856.616 472.346C988.725 485.586 1200.78 472.667 1286.4 357.996C1336.38 288.289 1305.37 207.999 1256.68 147.144C1184.38 58.6764 1083.43 -20.4915 962.883 -7.48099C808.296 9.19 683.823 135.381 524.805 131.656C466.29 130.863 410.376 108.961 361.288 78.2124C328.339 58.0778 296.908 34.8208 270.811 6.21199C142.918 -132.608 259.851 -290.856 382.789 -382.443Z" fill="#FAECC8"/>
<path d="M382.789 -382.443C306.53 -320.597 223.542 -220.636 229.158 -117.051C232.026 -67.7434 255.544 -24.6123 289.321 10.5667C315.975 38.3669 347.524 61.1386 380.725 80.5215C413.798 100.147 449.276 116.258 487.105 123.975C646.109 158.513 778.88 39.7886 924.676 0.532304C1038.5 -30.6924 1132.52 7.96208 1216.43 85.8543C1251.61 118.712 1284.79 155.054 1307.16 197.991C1375.07 329.447 1277.64 417.196 1156.43 453.436C937.588 516.086 682.353 462.683 483.997 358.474C415.224 323.232 354.93 273.965 286.169 238.727C252.336 220.902 216.505 205.024 179.895 193.84C123.501 176.839 58.5082 167.718 4.15614 195.618C3.09714 196.178 1.98639 196.65 0.970533 197.285L-5.17645 201.007C-6.20096 201.628 -7.24583 202.23 -8.1864 202.961L-14.0189 207.158C-15.0175 207.823 -15.9118 208.617 -16.8265 209.393L-22.3147 214.048C-24.8814 216.562 -27.46 219.072 -29.9247 221.676L-34.5953 227.143L-35.7563 228.508L-36.8153 229.964L-41.0449 235.763C-42.9988 238.769 -44.8711 241.846 -46.6963 244.937L-49.9983 251.325L-50.8288 252.917C-52.2973 256.608 -54.4233 260.727 -55.6366 264.548L-57.999 271.339C-58.7711 274.409 -61.0736 281.872 -61.5704 285.28C-69.1382 320.636 -64.931 357.597 -54.7624 392.047C-26.337 484.741 43.6241 559.967 124.877 610.526C43.4025 560.134 -26.7848 484.999 -55.4756 392.259C-65.1419 359.986 -69.3945 325.597 -63.9611 292.177C-63.2609 288.81 -62.6082 284.914 -61.8515 281.525C-61.5984 280.345 -61.2276 279.196 -60.9274 278.029L-59.0172 271.041C-57.4501 266.747 -55.8876 261.481 -53.9761 257.456C-53.0516 255.372 -52.0804 252.784 -51.0045 250.841C-48.4204 245.483 -45.1868 240.01 -41.9953 235.118C-40.974 233.614 -38.7767 230.737 -37.7436 229.236C-37.0744 228.105 -31.8961 222.157 -30.8012 220.849C-27.4837 217.465 -24.0726 213.779 -20.3652 210.777L-17.6031 208.429C-16.6852 207.641 -15.776 206.839 -14.7742 206.162L-8.89067 201.915C-6.27497 200.02 -2.40816 197.93 0.362125 196.164C53.2506 167.179 117.503 174.4 173.421 190.303C203.356 198.841 233.009 210.883 261.12 224.201C304.578 245.109 346.181 269.97 386.072 296.981C576.698 426.129 812.327 495.24 1042.69 473.501C1099.96 467.318 1157.17 454.958 1209.56 430.577C1308.01 384.986 1359.3 303.039 1305.12 199.046C1282.89 156.347 1249.92 120.187 1214.93 87.5061C1131.59 10.0964 1038.37 -28.4205 925.243 2.56221C779.389 41.9415 645.989 160.371 486.821 125.461C448.848 117.669 413.215 101.428 380.07 81.6946C346.808 62.2073 315.176 39.3249 288.497 11.3795C254.651 -24.0576 231.14 -67.4514 228.376 -117.008C222.992 -220.847 306.178 -320.603 382.789 -382.443Z" fill="#FAECC8"/>
<path d="M382.789 -382.443C326.347 -332.517 275.049 -268.205 251.944 -195.733C208.939 -58.5523 304.602 35.5463 418.059 94.0417C482.493 127.339 549.306 137.957 620.623 123.854C737.321 101.341 835.058 25.4233 950.324 -1.73333C961.735 -4.37303 974.33 -6.58188 985.988 -7.93254C1077.69 -18.9686 1155.99 19.3927 1223.04 79.2692C1255.23 108.074 1285.73 140.016 1309.19 176.415C1398.29 315.465 1307.47 414.373 1169.4 455.209C985.006 507.516 779.059 476.293 602.844 407.498C531.176 379.056 462.705 342.597 399.145 298.971C365.341 275.999 330.289 254.809 294.018 235.952C289.451 233.733 279.204 228.592 274.628 226.358C271.028 224.625 258.635 219.06 254.959 217.332C239.927 210.922 223.459 204.177 207.909 199.091C144.422 177.895 67.3522 165.235 7.88964 203.399L0.602764 208.643C-2.20485 210.878 -4.90812 213.242 -7.62865 215.576L-12.7214 220.639C-13.5662 221.484 -14.4315 222.311 -15.1862 223.244L-19.8536 228.698C-20.6694 229.576 -21.3189 230.587 -22.0296 231.543L-26.2592 237.342L-28.137 240.394C-31.2326 245.211 -34.3472 250.994 -36.6445 256.176L-39.4739 262.779C-40.7183 266.151 -41.8684 269.548 -43.0335 272.954C-43.8664 276.298 -46.0247 283.27 -46.5515 286.885L-47.2809 290.407C-48.219 294.756 -48.5153 298.736 -49.1863 302.841C-49.4357 306.127 -49.824 310.309 -50.0734 313.594C-50.1981 316.132 -50.2485 321.879 -50.352 324.384L-50.3048 326.187L-50.1956 329.783C-44.6573 449.343 42.0585 550.548 140.02 611.622C41.7568 550.732 -45.2723 449.518 -51.0979 329.806L-51.2157 326.195L-51.2629 324.393C-51.1525 322.002 -51.1088 315.951 -51.0102 313.558C-50.7309 310.255 -50.425 306.051 -50.1458 302.748C-49.6694 299.321 -48.9507 293.577 -48.2568 290.234C-47.4065 286.731 -46.988 283.049 -45.9234 279.642L-44.0281 272.663C-42.6148 268.189 -40.9185 263.412 -39.0491 259.073C-38.0477 256.985 -37.2217 254.421 -36.116 252.461L-32.8015 246.026C-31.2317 243.182 -28.9152 239.53 -27.201 236.712C-25.091 233.925 -22.9546 230.615 -20.7553 227.965C-18.7438 225.593 -15.6506 221.821 -13.5711 219.807L-8.43591 214.679C-5.69415 212.313 -2.95788 209.92 -0.129043 207.653L5.75453 203.407C63.534 164.741 138.77 175.674 201.593 195.293C206.733 197.024 213.656 199.357 218.719 201.092C220.427 201.689 233.515 206.733 235.623 207.487C241.945 210.126 249.274 213.111 255.652 215.828C259.496 217.64 271.304 222.934 275.374 224.844C318.785 245.689 360.375 270.458 400.232 297.41C590.487 426.623 825.631 495.894 1055.74 474.817C1112.97 468.837 1170.12 456.651 1222.59 432.671C1352.55 372.773 1378.61 267.993 1290.74 154.089C1268.24 124.707 1241.36 98.0307 1213.47 73.7682C1145.87 16.2273 1069.22 -18.0475 979.122 -4.91956C968.658 -3.55137 957.55 -1.28454 947.315 1.0652C833.682 29.1004 736.564 103.319 620.98 125.487C546.912 140.063 477.117 127.903 411.082 91.8192C299.593 32.8554 208.844 -61.5901 251.41 -195.952C274.761 -268.496 326.182 -332.611 382.825 -382.484L382.789 -382.443Z" fill="#FAECC8"/>
<path d="M382.789 -382.443C320.387 -322.569 260.59 -235.678 254.264 -147.392C253.192 -130.676 253.954 -113.734 257.026 -97.2687C260.523 -78.5222 266.882 -60.0042 275.747 -43.109C313.135 28.9971 395.047 81.3341 468.925 110.759C655.333 180.798 792.485 43.0433 961.215 -0.264752C1075.04 -28.7279 1168.41 13.7224 1250.65 91.7454C1298.8 137.659 1345.97 192.117 1357.85 259.557C1364.65 297.956 1353.86 338.411 1329.45 368.726C1269.3 442.727 1160.43 468.75 1069.41 478.469C877.413 496.005 681.88 449.233 512.138 359.574C486.669 345.956 461.762 331.278 437.537 315.561C397.63 288.798 357.538 262.161 314.797 240.083C303.063 233.851 288.113 226.619 275.947 221.153C213.042 193.03 135.58 168.782 66.8463 185.682C20.397 196.995 -14.0302 228.633 -27.9613 274.548C-39.739 313.792 -35.8952 356.114 -24.2706 394.974C4.3608 487.371 74.0952 562.359 155.193 612.789C73.8885 562.518 3.91614 487.617 -24.9838 395.186C-36.7543 356.211 -40.7188 313.681 -28.9763 274.238C-15.0229 227.863 19.6166 195.904 66.5215 184.398C135.56 167.302 213.381 191.482 276.625 219.658C288.862 225.143 303.81 232.337 315.591 238.582C358.426 260.634 398.605 287.231 438.584 313.963C462.789 329.612 487.662 344.23 513.099 357.777C682.506 447.132 877.613 493.752 1069.18 476.161C1159.65 466.46 1267.77 440.578 1327.55 367.258C1351.54 337.399 1362.22 297.734 1355.51 259.939C1345.7 202.798 1309.05 154.445 1269.59 113.598C1259.74 103.447 1248.98 92.9366 1238.49 83.6483C1112.2 -29.2958 1001.53 -27.8795 853.573 40.9719C729.141 98.33 607.821 165.837 468.409 112.121C394.242 82.4544 312.244 29.9181 274.855 -42.6547C266.004 -59.6471 259.649 -78.2773 256.19 -97.1148C253.148 -113.647 252.409 -130.672 253.543 -147.434C260.117 -235.843 320.109 -322.618 382.774 -382.435L382.789 -382.443Z" fill="#FAECC8"/>
<path d="M382.789 -382.443C314.216 -310.42 250.309 -201.452 269.415 -98.8018C277.961 -51.1369 304.891 -9.19674 339.856 23.6665C367.773 50.0529 400.302 71.096 434.184 89.0226C467.983 107.116 504.39 120.703 542.357 126.54C702.184 152.35 831.285 34.9368 978.937 -0.507248C1059.17 -19.2802 1131.08 -4.85108 1199.85 40.1842C1240 66.6977 1275.72 99.8131 1307.38 135.925C1409.82 253.191 1399.06 371.647 1250.64 438.636C1064.33 518.133 814.793 482.503 631.034 408.888C568.518 383.882 508.401 352.888 451.963 316.174C404.248 283.929 355.723 252.587 303.56 227.947C242.401 199.384 170.912 174.607 102.663 182.914L99.093 183.332L95.5635 183.974L88.496 185.244C86.1524 185.7 83.8495 186.381 81.5192 186.929C76.2602 188.091 71.211 189.978 66.089 191.617L64.4307 192.295L57.7915 195.028C26.3588 208.802 2.89847 233.85 -9.42824 265.863C-17.423 287.127 -20.6794 310.114 -19.835 332.776C-15.3709 432.133 47.5026 520.244 123.254 580.736C138.307 592.672 154.066 603.714 170.356 613.902C89.1127 563.685 19.2306 488.872 -9.7393 396.561C-20.8232 359.875 -25.0776 320.217 -15.8063 282.695C-5.8648 242.908 18.246 211.947 55.5995 194.542C57.9639 193.537 61.5514 192.065 63.9512 191.07L65.6244 190.384L67.343 189.811C74.1775 187.432 81.1412 185.466 88.2074 183.919C91.191 183.382 96.1561 182.469 98.8759 181.975C162.648 173.325 226.377 192.721 284.538 217.493C299.601 224.113 315.542 231.699 330.074 239.312C364.191 257.112 397.092 277.146 428.984 298.636C555.62 385.619 701.737 443.803 853.311 468.523C966.578 486.42 1084.8 487.936 1195.72 456.186C1250.14 439.824 1305 414.57 1341.59 369.773C1406.89 288.34 1357.92 193.303 1296.11 126.64C1209.91 33.8914 1110.1 -29.5563 979.388 1.52951C831.512 37.1026 702.453 154.124 542.092 128.045C503.982 122.132 467.393 108.42 433.51 90.2161C382.784 63.2761 334.13 28.7871 301.55 -19.2928C290.77 -35.1133 281.847 -52.5914 275.798 -70.7614C269.597 -88.8839 266.167 -108.205 265.391 -127.307C261.673 -221.019 319.799 -316.701 382.754 -382.453L382.789 -382.443Z" fill="#FAECC8"/>
<path d="M382.789 -382.443C328.17 -319.349 282.012 -235.547 278.006 -150.836C276.01 -104.761 288.285 -59.9916 313.892 -21.5946C347.412 28.4891 398.065 64.2322 451.182 91.2457C518.954 127.681 598.949 139.549 674.01 122.026C813.234 92.8815 936.358 -18.0041 1082.39 -7.12129C1160.19 -0.881529 1228.88 43.6885 1283.83 96.653C1308.09 119.793 1331.18 144.909 1350.04 172.676C1447.12 315.594 1355.35 418.582 1210.29 459.989C992.993 519.588 736.849 465.475 540.911 360.956C507.003 342.846 474.281 322.57 442.53 300.929C390.856 266.173 336.612 234.648 278.605 211.656C221.773 189.697 156.772 172.974 96.2957 188.166C47.0249 200.588 12.6495 235 0.322856 284.395C-4.25292 302.933 -5.58396 322.314 -4.29828 341.35C3.29036 437.902 64.4955 522.819 138.493 581.896C153.537 593.817 169.273 604.852 185.552 615.037C104.414 564.849 34.5246 490.109 5.52318 397.915C-5.60314 361.294 -9.8575 321.635 -0.693024 284.136C9.42953 242.872 35.8106 209.986 75.4246 193.753C88.6372 188.156 102.996 184.592 117.223 182.745C162.762 176.809 208.867 186.189 252.069 200.374C283.946 210.894 314.947 224.734 344.715 240.159C378.815 257.93 411.702 277.922 443.576 299.382C585.876 397.154 752.765 458.925 924.457 477.15C1038.11 488.243 1157.42 483.623 1263.55 438.149C1384.12 384.986 1426.1 287.902 1348.13 173.979C1329.37 146.34 1306.41 121.321 1282.27 98.289C1227.69 45.638 1159.51 1.25387 1082.21 -4.97726C1034.31 -9.01179 986.459 1.33179 941.618 17.6635C851.5 50.3107 768.837 103.131 674.358 123.694C598.975 141.195 518.486 129.144 450.55 92.4753C397.287 65.2968 346.529 29.3364 313.031 -21.0187C287.436 -59.6016 275.195 -104.639 277.329 -150.854C281.531 -235.638 327.934 -319.412 382.774 -382.435L382.789 -382.443Z" fill="#FAECC8"/>
<path d="M382.789 -382.443C336.46 -323.581 299.471 -249.788 290.983 -174.773C285.084 -121.715 295.793 -68.7942 325.167 -23.8674C359.12 28.7903 412.213 65.8806 467.724 93.1951C518.909 119.275 576.603 133.12 634.103 129.508C731.016 123.978 817.215 74.9158 904.267 36.7581C956.845 13.6893 1012.34 -6.3554 1070.41 -7.43306C1162.29 -9.87435 1241.98 41.2875 1305.22 103.671C1369.27 165.617 1437.95 261.837 1388.52 351.732C1354.46 411.375 1287.94 442.604 1224.46 461.416C1038.14 511.443 837.226 480.132 659.905 410.562C601.971 387.299 546.106 358.857 493.338 325.496C481.13 317.877 469.214 309.73 457.243 301.746C409.537 269.704 359.712 240.384 306.674 218.068C238.182 189.267 147.185 165.275 77.8853 202.328C50.3644 217.377 29.6956 242.416 19.5846 272.049L17.8095 277.119L15.4346 285.747C15.0905 286.89 14.8759 288.068 14.6378 289.239L13.9116 292.75C12.7863 297.327 12.3423 302.375 11.623 306.897C1.02932 414.357 72.4472 518.861 153.709 583.048C168.741 594.966 184.48 605.99 200.747 616.172C180.395 603.522 160.818 589.491 142.451 574.095C66.1187 509.931 0.728351 410.016 10.64 306.797C10.991 303.98 11.7603 298.753 12.1945 296.097C12.5878 294.299 13.2544 290.822 13.6328 289.033C14.193 285.906 15.9853 279.971 16.8031 276.825C25.1521 249.858 41.6792 225.108 65.0667 208.951L67.9936 206.837L71.0734 204.952C73.1459 203.718 75.1721 202.42 77.2706 201.231L83.7234 197.968C86.7425 196.357 90.4791 194.989 93.6566 193.635C97.4593 192.019 103.382 190.216 107.324 188.978C109.346 188.449 115.674 186.88 117.827 186.335C178.511 173.946 240.768 190.451 297.331 212.426C318.453 221.022 339.253 230.541 359.465 241.074C393.547 258.815 426.425 278.792 458.297 300.213C616.255 408.697 804.564 473.435 996.1 482.508C1119.03 488.561 1318.79 466.917 1386.42 350.588C1435.24 261.867 1366.83 166.399 1303.62 105.298C1240.85 43.3415 1161.69 -7.69019 1070.42 -5.28559C1012.64 -4.24435 957.432 15.7373 905.064 38.6355C817.865 76.7286 731.294 125.766 634.17 131.139C576.435 134.689 518.407 120.678 467.101 94.4396C411.444 66.9602 358.225 29.6344 324.309 -23.3033C294.96 -68.4629 284.316 -121.58 290.375 -174.81C299.068 -249.883 336.253 -323.611 382.771 -382.423L382.789 -382.443Z" fill="#FAECC8"/>
<path d="M382.789 -382.443C324.434 -300.271 281.127 -185.846 309.878 -85.3255C336.411 9.53412 422.741 70.8693 510.057 106.479C661.9 167.597 784.388 97.5672 920.579 36.3142C955.78 21.0547 991.848 7.17452 1029.57 -0.539927C1153.15 -27.9026 1253.84 34.0155 1336.23 120.878C1465.6 255.016 1448.36 388.173 1266.39 453.96C1021.84 535.512 706.938 457.46 496.062 318.626C440.579 281.034 383.634 244.89 321.572 219.085C286.395 204.252 249.413 192.478 211.551 187.147C167.136 181.069 118.331 184.642 80.8169 211.218C59.2702 226.204 43.1959 248.605 34.7207 273.357L33.5384 276.733L32.9574 278.431L32.4942 280.159L30.5943 287.061C28.8971 293.867 27.7137 301.251 26.8008 308.19C16.3257 415.632 87.6746 520.017 168.928 584.189C183.96 596.107 199.69 607.116 215.945 617.295C199.654 607.157 183.902 596.18 168.834 584.303C90.0576 522.004 22.7392 426.224 24.8271 322.434C25.0296 314.283 26.0391 305.428 27.3519 297.372C28.0364 293.876 28.7738 290.229 29.5784 286.802C29.9473 285.237 31.5973 279.503 31.9455 278.109C38.5731 256.907 49.9432 236.989 66.1583 221.647C67.3507 220.353 72.7367 215.796 74.2957 214.5C75.7919 213.25 78.4634 211.381 80.0945 210.193C83.8953 207.266 88.2154 204.945 92.278 202.454L98.7308 199.191C99.8157 198.675 100.864 198.062 101.983 197.605L105.318 196.23C107.553 195.329 109.749 194.342 112.013 193.524C116.32 192.145 121.53 190.226 125.809 189.28C190.174 172.672 262.341 192.702 322.224 217.596C375.385 239.832 425.357 269.115 473.189 301.115C662.383 430.472 896.09 500.303 1125.49 481.105C1182.55 475.61 1239.56 464.088 1292.27 441.142C1455.26 368.517 1449.42 241.566 1334.61 122.436C1230.8 13.98 1122.4 -36.8856 974.818 17.0307C816.026 75.492 687.181 178.618 509.568 107.785C421.867 71.8703 335.571 10.2669 309.127 -85.1109C280.601 -185.861 324.156 -300.27 382.827 -382.446L382.789 -382.443Z" fill="#FAECC8"/>
<path d="M382.789 -382.443C316.689 -278.575 278.619 -134.047 350.49 -23.6489C385.63 31.0789 440.991 69.4574 499.348 96.3245C568.438 129.912 648.47 138.865 723.132 120.567C870.215 88.6633 1002.91 -34.9205 1160.17 -0.120051C1235.94 17.0837 1299.06 67.4208 1351.77 122.409C1402.97 176.26 1453.12 251.444 1429.7 328.582C1393.41 437.829 1242.85 475.016 1140.44 484.581C915.452 503.172 686.002 436.486 499.025 311.668C409.452 250.611 280.849 176.713 169.325 186.748C162.235 187.394 155.065 188.624 148.091 189.97L137.671 192.585C136.525 192.908 135.406 193.314 134.262 193.675L127.465 195.913C123.717 197.278 121.117 198.548 117.522 199.954C116.426 200.416 115.384 201.007 114.311 201.526L107.921 204.742L101.796 208.432C100.78 209.068 99.7325 209.631 98.7543 210.315L95.8487 212.397C78.218 224.638 64.3271 241.953 55.1577 261.288C52.4632 267.246 50.0935 273.405 48.0717 279.632L47.6085 281.361L45.7086 288.263C44.0294 295.048 42.8365 302.467 41.9268 309.395C31.7379 414.544 99.8661 516.629 178.481 580.8C195.177 594.424 212.812 606.989 231.085 618.402C214.802 608.279 199.05 597.302 183.982 585.425C105.214 523.141 37.9218 427.406 39.9648 323.641C39.9172 319.721 40.671 313.281 40.9469 309.284C41.3763 306.739 42.0109 301.074 42.4747 298.589C43.2951 295.103 43.7992 291.432 44.6895 288.015L46.5785 281.059C52.6418 260.362 63.3537 240.734 78.6461 225.396C83.4207 220.436 89.4519 215.309 95.1114 211.38C98.165 208.934 103.88 205.739 107.286 203.627C110.018 202.241 114.411 199.977 116.968 198.772L120.302 197.397C122.538 196.496 124.734 195.508 126.989 194.676L133.842 192.416C134.986 192.054 136.12 191.64 137.281 191.308C203.002 173.172 275.837 193.205 337.157 218.623C354.859 225.95 372.283 234.261 389.304 243.044C423.369 260.756 456.245 280.694 488.097 302.097C702.694 449.088 997.248 528.72 1252.99 461.687C1385.25 424.614 1486.58 331.383 1402.79 191.689C1387.98 167.125 1369.8 144.748 1350.08 123.948C1285.47 55.5246 1200.79 -5.51949 1102.84 -4.35184C1045.09 -4.13408 989.674 15.2888 937.23 37.9022C833.411 83.289 726.367 143.73 608.94 129.584C570.688 125.423 533.459 113.96 498.734 97.5337C442.342 71.483 388.901 34.7914 353.579 -17.1367C323.42 -60.6858 309.367 -114.175 311.017 -166.872C313.557 -243.618 341.778 -318.135 382.733 -382.471L382.789 -382.443Z" fill="#FAECC8"/>
<path d="M382.789 -382.443C341.072 -308.291 314.988 -220.459 324.057 -134.943C329.273 -87.4266 347.578 -41.2808 377.435 -3.81211C413.037 41.5611 462.394 74.1335 514.601 97.5754C584.093 130.275 664.113 138.33 738.692 120.01C885.642 87.9443 1018.79 -35.2302 1175.9 0.616354C1241.89 15.954 1298.85 56.8793 1346.85 103.319C1374.47 129.978 1400.29 158.904 1420.15 191.892C1434.91 216.656 1446.39 243.844 1449.83 272.682C1455 311.251 1442.08 350.907 1416.73 380.188C1354.24 451.813 1246.52 476.579 1155.42 485.732C937.602 503.788 715.72 441.5 532.142 324.626C526.766 321.093 519.425 316.365 514.123 312.739C470.611 283.132 425.551 255.391 377.912 232.896C308.047 200.412 218.452 170.531 142.601 197.082C140.372 197.909 138.183 198.873 135.974 199.768L132.669 201.126C131.57 201.6 130.532 202.179 129.459 202.698L123.069 205.914L116.951 209.62C115.936 210.255 114.888 210.819 113.922 211.505L111.016 213.588C89.4987 228.606 73.4597 251.017 65.023 275.767C60.2396 289.144 57.574 303.567 56.5183 317.729C51.1563 404.534 97.7232 487.179 156.6 548.002C183.288 575.345 213.887 599.35 246.288 619.551C230.005 609.428 214.254 598.452 199.198 586.578C121.631 524.994 56.9812 433.95 55.0078 332.033C54.9871 298.337 63.4394 264.39 84.2881 237.407C87.29 233.787 90.3889 229.853 93.8255 226.589C95.5796 224.942 97.2169 223.024 98.9976 221.56L104.492 216.881C107.013 214.822 110.551 212.404 113.206 210.456C114.79 209.444 120.626 205.89 122.445 204.802C125.245 203.397 129.525 201.179 132.127 199.947C135.45 198.569 138.838 197.132 142.148 195.851L149.001 193.591C207.206 175.9 269.521 189.597 325.476 209.228C351.386 218.654 376.653 230.012 401.245 242.475C436.405 260.669 470.373 281.102 503.216 303.187C692.295 432.55 925.87 502.447 1155.2 483.419C1245.79 474.278 1352.77 449.64 1414.88 378.647C1439.81 349.796 1452.59 310.932 1447.48 272.96C1440.08 215.557 1404.16 166.546 1365.51 125.308C1300.9 56.9115 1216.55 -4.43399 1118.64 -3.93611C1060.89 -4.09637 1005.39 15.1005 952.893 37.5742C865.424 75.0779 778.993 123.447 682.154 130.396C624.559 134.929 566.313 123.053 514.027 98.8208C449.772 70.0835 389.465 26.2832 354.61 -36.0566C294.058 -144.468 324.652 -279.605 382.789 -382.443Z" fill="#FAECC8"/>
<path d="M382.789 -382.443C333.224 -282.816 309.546 -153.704 360.518 -50.2413C377.314 -15.8437 402.08 14.4376 431.308 39.0833C504.905 99.1871 601.07 136.487 696.828 128.719C793.453 121.486 879.619 73.3484 967.032 35.8673C1019.79 13.3007 1075.63 -5.84308 1133.7 -5.57408C1232.17 -5.80837 1317.07 55.9011 1382.12 124.63C1401.95 145.535 1420.27 168.039 1435.17 192.752C1519.47 333.314 1418.92 428.544 1284.07 466.233C1037.67 531.988 744.722 456.581 535.384 317.944C482.043 281.544 426.66 247.344 366.943 222.394C331.775 207.576 294.787 195.825 256.933 190.51C212.527 184.447 163.724 188.058 126.251 214.67C108.62 226.911 94.7292 244.225 85.5481 263.558C82.8535 269.516 80.4839 275.675 78.462 281.901L77.9988 283.63L76.0989 290.532C74.4166 297.329 73.2301 304.725 72.3172 311.664C61.8845 419.042 133.247 523.469 214.463 587.593C229.486 599.496 245.213 610.516 261.472 620.683C245.192 610.548 229.438 599.584 214.369 587.706C135.602 525.423 68.309 429.687 70.3521 325.923C70.2832 322.035 71.0763 315.542 71.3341 311.565C71.7195 308.996 72.4334 303.364 72.8619 300.87C73.5465 297.373 74.2838 293.726 75.0767 290.296L76.9657 283.341C83.029 262.643 93.7409 243.015 109.033 227.677C113.808 222.717 119.839 217.59 125.51 213.665C128.564 211.219 134.279 208.024 137.685 205.911C140.443 204.52 144.795 202.27 147.367 201.056L150.701 199.681C152.937 198.78 155.133 197.793 157.388 196.96L164.241 194.7C165.385 194.339 166.519 193.924 167.677 193.604C233.398 175.469 306.233 195.502 367.55 220.931C385.251 228.258 402.676 236.569 419.697 245.352C453.762 263.064 486.637 283.002 518.489 304.405C644.754 391.365 790.378 449.833 941.586 474.883C1063.8 494.333 1192.55 495.619 1310.71 455.26C1433.66 412.29 1509.23 320.096 1433.17 193.982C1418.36 169.418 1400.19 147.052 1380.46 126.238C1315.8 57.8787 1231.57 -3.57399 1133.67 -3.40081C1075.91 -3.70306 1020.36 15.3808 967.82 37.7799C880.278 75.176 793.751 123.293 696.94 130.375C600.764 138.006 504.321 100.518 430.527 40.021C401.265 15.2152 376.477 -15.2614 359.71 -49.815C308.941 -153.614 332.883 -282.769 382.789 -382.443Z" fill="#FAECC8"/>
<path d="M382.789 -382.443C352.415 -312.424 336.515 -234.807 342.814 -158.453C352.79 -34.9183 431.292 52.8049 543.09 99.3103C595.654 122.268 653.775 133.481 711.069 128.704C827.582 120.119 927.11 52.685 1035.24 15.4735C1051.14 10.0666 1067.39 5.4336 1083.82 1.92009C1188.67 -21.5844 1277.1 16.162 1355.26 85.3049C1383.74 110.694 1411.37 138.455 1433.94 169.307C1481.96 233.825 1504.17 314.531 1447.65 381.731C1410.02 426.235 1354.68 451.073 1299.78 467.206C1113.48 517.023 912.672 485.664 735.441 416.042C677.536 392.762 621.698 364.314 568.957 330.948C556.749 323.329 544.848 315.174 532.885 307.204C493.152 280.45 451.885 255.843 408.599 235.283C332.289 199.345 221.41 163.824 144.448 213.597L138.637 217.762C137.676 218.475 136.672 219.113 135.786 219.922L130.331 224.548C129.884 224.945 129.408 225.309 128.981 225.724L127.721 226.987L125.19 229.511C122.104 232.503 118.464 236.758 115.69 240.187C105.802 252.927 98.5319 267.528 93.6511 282.871C92.4474 287.363 90.5188 293.854 89.768 298.493C88.6499 302.995 88.1979 308.168 87.4826 312.627C76.9808 420.075 148.347 524.49 229.6 588.662C244.632 600.58 260.359 611.6 276.618 621.767C244.147 601.635 213.443 577.69 186.68 550.39C124.1 486.482 73.356 393.517 88.0306 301.821C92.0207 279.346 100.707 257.574 114.738 239.453C117.014 236.66 119.357 233.897 121.747 231.197C122.996 229.881 125.594 227.388 126.852 226.087L128.127 224.815C128.557 224.388 129.033 224.024 129.48 223.627C131.852 221.603 135.477 218.39 137.858 216.759L140.785 214.644C144.586 211.718 148.906 209.397 152.968 206.906C155.795 205.495 160.028 203.264 162.659 202.066C165.981 200.687 169.377 199.227 172.688 197.985C175.703 197.003 180.205 195.461 182.99 194.632C185.029 194.132 191.334 192.507 193.495 191.977C255.334 179.38 318.828 196.494 376.273 219.323C396.279 227.469 415.917 236.613 435.077 246.549C469.151 264.275 502.023 284.226 533.884 305.644C691.764 414.132 879.972 478.919 1071.44 488.088C1193.66 494.404 1394.66 472.335 1461.93 356.744C1511.3 268.18 1443.13 172.639 1380.01 111.41C1361.39 93.1214 1341.22 75.3916 1320.29 59.8754C1246.38 5.25973 1167.54 -16.344 1077.2 5.49264C1007.02 22.205 943.162 56.7467 877.042 84.5688C806.926 114.824 730.71 137.647 653.543 129.826C615.393 126.322 577.613 115.783 542.496 100.538C430.354 53.7132 351.887 -34.5173 342.175 -158.422C336.073 -234.901 352.17 -312.451 382.733 -382.471L382.789 -382.443Z" fill="#FAECC8"/>
</g>
</svg>
