<svg width="191" height="140" viewBox="0 0 191 140" fill="none" xmlns="http://www.w3.org/2000/svg">
<g clip-path="url(#clip0_52_1772)">
<path d="M62.0266 115.112C36.7313 115.325 16.2869 93.1507 16.5 68.3316C16.2242 50.3191 27.0794 32.0809 43.9889 24.773C55.3079 19.7466 68.7578 19.7466 80.0768 24.773C96.9738 32.0809 107.841 50.3191 107.553 68.3442C107.766 93.1507 87.3345 115.35 62.0266 115.124V115.112ZM62.0266 111.351C91.0949 111.514 113.407 83.8623 104.194 55.5461C90.6437 16.2243 33.4095 16.2243 19.8593 55.5461C10.6462 83.8623 32.9583 111.514 62.0266 111.351Z" fill="#F3C545"/>
<path d="M62.0266 31.5795C94.1283 31.8552 109.12 71.1395 87.9487 94.2537C74.2481 109.521 49.7926 109.521 36.092 94.2537C14.9331 71.1395 29.9248 31.8552 62.0266 31.5795ZM62.0266 34.8009C38.0098 34.6004 20.2479 58.9431 30.4137 81.4306C42.5725 107.679 81.4932 107.679 93.6395 81.4306C103.805 58.9431 86.0434 34.6004 62.0266 34.8009Z" fill="#F3C545"/>
<path d="M62.0266 41.5823C85.3916 41.8079 96.2091 70.3874 80.9793 87.2844C71.2146 98.5532 52.826 98.5532 43.0614 87.2844C27.8315 70.3748 38.6491 41.7954 62.0141 41.5823H62.0266ZM62.0266 44.3023C44.904 44.0642 31.943 61.7007 39.4012 77.7077C48.0878 96.1841 75.9654 96.1841 84.652 77.7077C92.1103 61.7007 79.1492 44.0642 62.0266 44.3023Z" fill="#F3C545"/>
<path d="M62.0266 85.1032C47.4611 85.0155 40.755 66.9402 50.0433 56.3483C56.0475 49.0405 68.0058 49.0405 74.01 56.3483C83.2983 66.9402 76.5921 85.003 62.0266 85.1032ZM62.0266 82.847C72.2927 83.0977 80.4278 72.2676 75.6771 62.6784C70.4501 51.9486 53.6032 51.9486 48.3762 62.6784C43.638 72.2676 51.7606 83.0977 62.0266 82.847Z" fill="#F3C545"/>
<path d="M100.27 117.017C75.5266 105.009 78.6352 68.9834 103.429 58.9931C119.361 52.2745 138.339 61.262 143.215 77.8581C151.162 103.379 125.227 128.574 100.283 117.017H100.27ZM101.887 113.62C120.025 122.457 142.475 110.637 142.926 89.7788C143.353 65.1979 113.144 50.8706 94.379 66.7522C78.5099 80.3024 83.5614 105.159 101.887 113.62Z" fill="#F3C545"/>
<path d="M123.159 68.7577C139.993 76.9179 137.75 101.511 121.078 108.493C110.223 113.394 96.7732 107.014 93.7022 95.5071C88.5629 78.1714 106.187 60.8733 123.159 68.7577ZM121.868 71.4778C109.922 65.5238 94.6172 73.4583 94.5921 87.3469C94.5671 103.291 114.497 112.755 126.832 102.639C137.587 93.7648 134.052 77.0182 121.868 71.4778Z" fill="#F3C545"/>
<path d="M108.945 98.7412C100.02 94.5044 101.436 81.1924 109.947 77.2815C115.801 74.223 123.585 77.9083 124.914 84.3888C127.27 93.464 117.857 102.978 108.932 98.7412H108.945ZM109.91 96.698C114.36 98.9668 120.677 97.3749 122.72 92.4988C127.095 82.0824 110.348 74.1353 105.046 84.113C102.577 88.776 105.322 94.6799 109.91 96.6855V96.698Z" fill="#F3C545"/>
<path d="M127.045 74.1227C111.414 56.1603 126.23 28.3705 149.407 29.2354C164.073 29.5237 175.868 42.8859 174.351 57.4764C172.358 80.5782 142.939 91.847 127.045 74.1227ZM129.865 71.6408C141.172 84.7021 162.719 83.0099 170.29 66.8525C179.403 47.2981 160.137 25.4875 139.605 32.1059C122.645 37.6338 118.296 58.7926 129.865 71.6283V71.6408Z" fill="#F3C545"/>
<path d="M161.942 43.3121C172.559 55.4207 162.205 74.4361 146.637 73.7968C136.835 73.7467 128.624 64.4458 129.79 54.7188C131.081 39.1881 151.237 31.2786 161.942 43.2995V43.3121ZM159.598 45.3803C152.165 36.6561 137.599 37.5836 132.585 48.4138C126.443 61.4249 139.567 76.3038 153.243 71.8038C164.612 68.1687 167.332 53.8288 159.598 45.3803Z" fill="#F3C545"/>
<path d="M140.094 62.6032C134.44 56.2982 140.357 46.1073 148.342 46.4583C153.456 46.3831 157.843 51.3469 157.128 56.411C156.489 64.3706 145.659 68.9834 140.094 62.5907V62.6032ZM141.974 60.9486C146.75 66.5893 156.063 64.1826 156.289 56.3734C156.376 51.8483 152.791 47.787 148.291 47.3107C140.507 46.5711 136.972 55.5085 141.974 60.9486Z" fill="#F3C545"/>
</g>
<defs>
<clipPath id="clip0_52_1772">
<rect width="157.989" height="98.9" fill="white" transform="translate(16.5 21)"/>
</clipPath>
</defs>
</svg>
