<svg width="195" height="295" viewBox="0 0 195 295" fill="none" xmlns="http://www.w3.org/2000/svg">
<g clip-path="url(#clip0_536_4019)">
<path d="M195 147.493C194.12 279.029 34.9545 343.613 -58.9843 252.326C-117.677 195.883 -117.692 99.0875 -58.9843 42.6447C34.9545 -48.6284 194.12 15.9564 194.985 147.478L195 147.493ZM191.271 147.493C191.703 44.3564 85.9213 -27.5665 -9.8223 12.8157C-127.999 63.4981 -127.999 231.502 -9.8223 282.169C85.9213 322.537 191.703 250.629 191.271 147.493Z" fill="#FAECC8"/>
<path d="M46.0824 284.551C-75.4057 283.717 -134.979 137.267 -50.7501 50.8611C1.36525 -3.1853 90.8145 -3.1853 142.93 50.8611C227.159 137.282 167.57 283.717 46.0973 284.551H46.0824ZM46.0824 280.874C141.259 281.291 207.708 184.124 170.404 96.1106C123.599 -12.4436 -31.4492 -12.4287 -78.2396 96.1106C-115.544 184.124 -49.0795 281.291 46.0824 280.874Z" fill="#FAECC8"/>
<path d="M46.0824 272.986C-65.0989 272.197 -119.511 138.145 -42.5315 59.0626C5.13894 9.54115 87.0408 9.54115 134.711 59.0626C211.691 138.145 157.264 272.197 46.0974 272.971L46.0824 272.986ZM46.0824 269.369C133.071 269.756 193.912 180.998 159.77 100.502C116.947 1.33967 -24.7819 1.35456 -67.6047 100.502C-101.747 180.998 -40.9057 269.77 46.0824 269.369Z" fill="#FAECC8"/>
<path d="M46.082 261.405C-54.7777 260.676 -104.059 139.023 -34.3134 67.264C8.91219 22.2824 83.2518 22.2675 126.492 67.264C196.223 139.023 146.942 260.676 46.0969 261.405H46.082ZM46.082 257.863C124.896 258.235 180.114 177.872 149.134 104.907C110.294 15.1377 -18.1299 15.1377 -56.9703 104.907C-87.9501 177.872 -32.7323 258.235 46.082 257.863Z" fill="#FAECC8"/>
<path d="M46.082 249.84C-44.4709 249.155 -88.5915 139.901 -26.0949 75.4655C12.7008 35.0089 79.4782 35.0089 118.274 75.4655C180.77 139.901 136.635 249.155 46.0969 249.84H46.082ZM46.082 246.357C116.723 246.699 166.317 174.732 138.499 109.298C103.642 28.921 -11.4626 28.921 -46.3205 109.298C-74.1382 174.732 -24.5436 246.699 46.0969 246.357H46.082Z" fill="#FAECC8"/>
<path d="M46.0816 238.259C-34.1497 237.619 -73.1393 140.765 -17.8767 83.6669C16.474 47.7352 75.7041 47.7352 110.055 83.6669C165.317 140.78 126.313 237.634 46.0816 238.259ZM46.0816 234.851C108.548 235.178 152.52 171.606 127.849 113.689C96.9739 42.6893 -4.82553 42.7042 -35.686 113.689C-60.3565 171.591 -16.3852 235.178 46.0816 234.851Z" fill="#FAECC8"/>
<path d="M46.082 226.694C-23.8277 226.173 -57.6117 141.613 -9.67271 91.8684C20.4122 60.4319 71.737 60.4319 101.822 91.8684C149.776 141.613 115.977 226.173 46.0671 226.694H46.082ZM46.082 223.36C100.36 223.553 138.783 168.525 117.2 118.11C90.3667 56.547 1.78252 56.547 -25.0508 118.11C-46.6188 168.525 -8.21097 223.568 46.0671 223.36H46.082Z" fill="#FAECC8"/>
<path d="M46.0824 215.114C-13.5057 214.652 -42.1736 142.476 -1.45382 100.07C24.1713 73.1733 67.9786 73.1584 93.6186 100.07C134.338 142.491 105.67 214.652 46.0824 215.114ZM46.0824 211.854C92.1867 212.033 124.971 165.369 106.565 122.501C83.7146 70.3154 8.45017 70.3303 -14.4006 122.501C-32.8065 165.384 -0.0219269 212.048 46.0824 211.854Z" fill="#FAECC8"/>
<path d="M46.082 203.534C-3.18445 203.132 -26.7214 143.355 6.7643 108.271C27.855 85.9146 64.3089 85.9146 85.3997 108.271C118.9 143.355 95.3484 203.132 46.082 203.534ZM46.082 200.363C83.9529 200.586 111.204 162.169 95.9301 126.892C77.1662 84.1284 15.0127 84.1284 -3.75124 126.892C-19.0398 162.154 8.22603 200.586 46.0969 200.363H46.082Z" fill="#FAECC8"/>
<path d="M46.0815 191.953C7.18144 191.685 -11.2991 144.129 14.9823 116.473C31.5536 98.6559 60.6094 98.6559 77.1807 116.473C103.462 144.144 84.9666 191.685 46.0815 191.953ZM46.0815 188.872C75.7935 189.066 97.3914 159.043 85.2799 131.298C70.4686 97.9116 21.6944 97.9116 6.88313 131.298C-5.22838 159.043 16.3695 189.066 46.0815 188.872Z" fill="#FAECC8"/>
<path d="M79.0162 147.493C78.7775 176.041 43.6064 189.348 23.2018 170.341C9.91191 158.358 9.91191 136.642 23.2018 124.659C43.6064 105.652 78.7924 118.959 79.0162 147.507V147.493ZM76.033 147.493C76.2568 126.029 54.4799 110.043 34.2543 119.003C10.2102 129.765 10.2102 165.235 34.2543 175.997C54.465 184.942 76.2419 168.956 76.033 147.507V147.493Z" fill="#FAECC8"/>
</g>
<defs>
<clipPath id="clip0_536_4019">
<rect width="298" height="295" fill="white" transform="translate(-103)"/>
</clipPath>
</defs>
</svg>
