<svg width="390" height="904" viewBox="0 0 390 904" fill="none" xmlns="http://www.w3.org/2000/svg">
<g opacity="0.3">
<mask id="mask0_549_7489" style="mask-type:alpha" maskUnits="userSpaceOnUse" x="-1067" y="-1" width="1683" height="905">
<rect x="-944.162" y="-0.00708008" width="1596.32" height="579" transform="rotate(12.2296 -944.162 -0.00708008)" fill="#D9D9D9"/>
</mask>
<g mask="url(#mask0_549_7489)">
<path d="M-537.21 -402.591C-654.834 -305.318 -763.913 -141.515 -629.47 -9.80016C-602.035 17.3488 -569.611 38.9767 -535.79 57.382C-485.454 85.5207 -428.779 104.557 -370.565 102.45C-211.668 98.1482 -93.6857 -34.2142 60.0111 -58.2047C180.532 -77.2152 286.016 -2.74066 362.98 82.631C434.833 163.955 455.883 261.25 364.389 337.765C262.323 419.836 104.375 435.928 -22.7331 430.54C-196.458 421.811 -367.979 368.901 -516.162 277.784C-549.068 257.634 -582.887 238.93 -617.838 222.572C-1028.08 29.4971 -1076.44 424.938 -762.076 601.306C-861.782 546.16 -951.292 452.027 -966.085 335.297C-973.226 276.507 -951.736 215.228 -896.353 187.68C-843.597 161.257 -781.382 167.28 -725.869 181.143C-650.852 200.617 -581.134 236.196 -515.168 276.193C-367.109 366.847 -196.028 419.712 -22.6212 428.297C109.973 435.136 321.158 411.983 401.132 293.308C447.684 221.267 412.835 142.569 361.256 84.1384C284.77 -0.731139 180.11 -74.9271 60.3295 -56.1051C-93.2715 -31.9818 -211.5 100.078 -370.512 104.044C-428.997 106.079 -485.904 86.9056 -536.421 58.5657C-570.304 40.0472 -602.823 18.3366 -630.272 -8.97739C-764.725 -141.454 -655.578 -305.168 -537.21 -402.591Z" fill="#73206F"/>
<path d="M-537.21 -402.591C-610.391 -337.131 -688.45 -233.276 -677.835 -130.083C-672.587 -80.9717 -647.011 -39.0278 -611.573 -5.52248C-583.606 20.9569 -550.994 42.1772 -516.895 59.9326C-482.912 77.9369 -446.696 92.3143 -408.538 98.1931C-248.052 125.006 -121.174 0.00286347 22.5545 -46.2545C134.732 -82.9441 230.513 -48.8793 318.092 24.8661C354.821 55.9852 389.714 90.6805 414.135 132.486C488.316 260.507 395.247 352.862 275.932 394.918C60.3704 468.073 -197.148 427.068 -400.309 332.569C-470.705 300.692 -533.31 254.397 -603.694 222.524C-638.349 206.354 -674.906 192.227 -712.013 182.826C-769.163 168.57 -834.52 162.601 -887.46 193.095C-888.491 193.707 -889.578 194.231 -890.562 194.915L-896.522 198.93C-897.515 199.599 -898.53 200.251 -899.434 201.027L-905.056 205.501C-906.022 206.214 -906.877 207.05 -907.753 207.869L-913.01 212.784C-915.452 215.419 -917.906 218.051 -920.242 220.771L-924.643 226.457L-925.737 227.877L-926.724 229.382L-930.668 235.379C-932.475 238.475 -934.196 241.64 -935.87 244.815L-938.859 251.355L-939.612 252.986C-940.9 256.743 -942.824 260.96 -943.852 264.836L-945.883 271.733C-946.506 274.837 -948.445 282.401 -948.776 285.83C-954.626 321.511 -948.638 358.225 -936.816 392.143C-903.943 483.355 -830.428 555.111 -746.826 601.684C-830.641 555.289 -904.378 483.635 -937.518 392.389C-948.733 360.621 -954.643 326.478 -950.831 292.834C-950.294 289.438 -949.831 285.514 -949.239 282.092C-949.043 280.901 -948.728 279.736 -948.485 278.556L-946.914 271.484C-945.557 267.119 -944.251 261.784 -942.536 257.671C-941.713 255.545 -940.868 252.913 -939.888 250.92C-937.565 245.444 -934.6 239.821 -931.649 234.78C-930.701 233.229 -928.646 230.249 -927.686 228.7C-927.073 227.537 -922.188 221.346 -921.157 219.987C-918.007 216.447 -914.778 212.6 -911.22 209.422L-908.575 206.943C-907.696 206.112 -906.827 205.267 -905.859 204.542L-900.188 200.016C-897.667 197.996 -893.905 195.722 -891.224 193.824C-839.798 162.317 -775.272 166.424 -718.65 179.606C-688.337 186.687 -658.138 197.281 -629.415 209.225C-584.998 228.008 -542.242 250.829 -501.092 275.881C-304.446 395.664 -65.7525 453.306 163.289 420.457C220.191 411.513 276.745 396.402 327.892 369.518C424.02 319.222 471.289 234.891 412.151 133.638C387.88 92.0643 353.199 57.5397 316.671 26.5886C229.692 -46.7028 134.713 -80.6685 23.2187 -44.2543C-120.562 2.12871 -248.081 126.868 -408.751 99.6918C-447.056 93.7437 -483.433 79.2443 -517.493 61.136C-551.657 43.2792 -584.358 21.9525 -612.356 -4.67074C-647.877 -38.4305 -673.458 -80.6372 -678.613 -130.002C-689.009 -233.459 -610.742 -337.12 -537.21 -402.591Z" fill="#73206F"/>
<path d="M-537.21 -402.591C-591.173 -349.995 -639.303 -283.278 -658.878 -209.774C-695.202 -70.6754 -595.103 18.6894 -478.951 71.6325C-412.983 101.777 -345.734 109.152 -275.183 91.6191C-159.71 63.4921 -65.7559 -17.0609 48.0631 -49.7572C59.3325 -52.9453 71.8059 -55.7603 83.3852 -57.6729C174.444 -73.1283 254.505 -38.5963 324.377 17.9691C357.923 45.1843 389.923 75.615 415.122 110.837C510.834 245.418 424.9 348.6 288.969 396.062C107.319 457.221 -99.8967 435.989 -279.232 375.791C-352.19 350.847 -422.344 317.74 -487.938 277.237C-522.813 255.925 -558.848 236.454 -595.987 219.373C-600.657 217.377 -611.14 212.737 -615.819 210.727C-619.498 209.169 -632.146 204.211 -635.902 202.662C-651.225 196.986 -668.001 191.045 -683.778 186.716C-748.215 168.614 -825.807 159.694 -883.355 200.687L-890.38 206.278C-893.076 208.646 -895.662 211.137 -898.267 213.6L-903.109 218.904C-903.912 219.789 -904.736 220.656 -905.445 221.624L-909.843 227.298C-910.616 228.214 -911.216 229.255 -911.879 230.245L-915.824 236.242L-917.552 239.38C-920.411 244.341 -923.242 250.268 -925.286 255.555L-927.793 262.287C-928.873 265.715 -929.858 269.164 -930.857 272.623C-931.527 276.003 -933.346 283.07 -933.698 286.707L-934.256 290.261C-934.983 294.65 -935.086 298.639 -935.558 302.772C-935.648 306.066 -935.834 310.261 -935.924 313.555C-935.926 316.096 -935.699 321.839 -935.681 324.346L-935.547 326.144L-935.264 329.731C-923.953 448.884 -832.447 545.779 -731.649 602.046C-832.74 545.977 -924.559 449.089 -936.164 329.798L-936.456 326.196L-936.59 324.398C-936.596 322.006 -936.845 315.96 -936.862 313.564C-936.743 310.251 -936.64 306.038 -936.521 302.725C-936.211 299.279 -935.77 293.507 -935.239 290.135C-934.559 286.595 -934.319 282.897 -933.42 279.442L-931.865 272.379C-930.669 267.842 -929.206 262.99 -927.548 258.565C-926.649 256.431 -925.948 253.83 -924.938 251.819L-921.938 245.231C-920.508 242.315 -918.371 238.555 -916.795 235.657C-914.822 232.771 -912.848 229.362 -910.779 226.609C-908.885 224.142 -905.978 220.225 -903.998 218.113L-899.116 212.743C-896.492 210.247 -893.875 207.725 -891.159 205.324L-885.487 200.798C-829.644 159.385 -753.968 166.669 -690.27 183.229C-685.052 184.708 -678.025 186.705 -672.884 188.193C-671.149 188.706 -657.833 193.112 -655.691 193.763C-649.248 196.094 -641.784 198.721 -635.282 201.127C-631.355 202.75 -619.304 207.467 -615.147 209.178C-570.779 227.901 -528.04 250.631 -486.927 275.625C-290.649 395.491 -52.4317 453.315 176.389 421.141C233.259 412.402 289.762 397.467 341.011 370.979C467.922 304.87 488.884 198.953 395.611 89.4298C371.723 61.1685 343.585 35.8231 314.553 12.9371C244.244 -41.2688 166.035 -71.7992 76.6733 -54.3316C66.2878 -52.4592 55.3018 -49.6581 45.1928 -46.8165C-66.9531 -13.3216 -160.37 65.504 -274.747 93.2334C-348.024 111.372 -418.326 102.6 -486.028 69.7499C-600.236 16.2438 -695.443 -73.7051 -659.422 -209.967C-639.605 -283.555 -591.342 -350.081 -537.176 -402.633L-537.21 -402.591Z" fill="#73206F"/>
<path d="M-537.21 -402.591C-596.646 -339.77 -652.172 -250.091 -654.225 -161.602C-654.487 -144.854 -652.907 -127.968 -649.042 -111.671C-644.644 -93.1153 -637.397 -74.9263 -627.726 -58.4793C-586.897 11.7354 -502.55 60.0521 -427.337 85.872C-237.761 146.819 -107.428 2.59617 59.0116 -48.8167C171.327 -82.7482 266.641 -44.8604 352.553 29.0965C402.87 72.6286 452.613 124.744 467.739 191.53C476.387 229.556 467.566 270.485 444.655 301.944C388.148 378.767 280.666 410.021 190.225 424.128C-0.705406 450.923 -198.271 413.658 -372.148 332.307C-398.245 319.936 -423.833 306.479 -448.789 291.951C-489.943 267.148 -531.276 242.48 -575.033 222.495C-587.055 216.837 -602.337 210.335 -614.753 205.464C-678.944 180.414 -757.487 159.939 -825.324 180.141C-871.172 193.686 -904.03 226.951 -915.725 273.486C-925.592 313.254 -919.708 355.34 -906.218 393.592C-873.154 484.498 -799.877 556.027 -716.436 602.479C-800.076 556.196 -873.587 484.765 -906.92 393.839C-920.561 355.479 -926.577 313.19 -916.754 273.225C-905.059 226.23 -872.004 192.634 -825.71 178.874C-757.578 158.462 -678.68 178.852 -614.148 203.938C-601.66 208.825 -586.383 215.288 -574.313 220.956C-530.462 240.913 -489.045 265.536 -447.821 290.305C-422.887 304.766 -397.337 318.164 -371.274 330.466C-197.747 411.529 -0.614682 448.663 189.874 421.834C279.769 407.771 386.514 376.694 442.683 300.57C465.203 269.587 473.952 229.452 465.424 192.025C452.867 135.425 413.914 88.8998 372.533 50.0079C362.203 40.3443 350.943 30.367 340.02 21.5964C208.415 -85.1114 97.946 -78.3478 -46.5113 -2.42545C-168.025 60.88 -285.94 134.171 -427.786 87.2569C-503.3 61.21 -587.742 12.6984 -628.595 -57.9824C-638.257 -74.5272 -645.504 -92.8284 -649.87 -111.477C-653.708 -127.843 -655.269 -144.812 -654.947 -161.609C-652.653 -250.232 -596.925 -339.805 -537.225 -402.582L-537.21 -402.591Z" fill="#73206F"/>
<path d="M-537.21 -402.591C-602.222 -327.338 -660.788 -215.408 -636.742 -113.801C-625.902 -66.6049 -596.977 -26.0153 -560.464 5.11943C-531.304 30.1257 -497.796 49.5719 -463.088 65.84C-428.454 82.2788 -391.432 94.0902 -353.228 98.0855C-192.34 116.14 -69.065 -7.37621 76.7017 -49.9155C155.93 -72.5443 228.456 -61.6079 299.326 -19.9494C340.712 4.59247 377.989 35.9427 411.357 70.4817C519.348 182.66 514.323 301.498 369.316 375.582C187.061 463.991 -63.9046 440.464 -251.007 375.817C-314.659 353.861 -376.203 325.81 -434.35 291.867C-483.567 261.965 -533.551 233.006 -586.844 210.915C-649.312 185.342 -721.915 164.049 -789.683 175.646L-793.228 176.235L-796.723 177.047L-803.721 178.657C-806.039 179.226 -808.307 180.018 -810.608 180.678C-815.805 182.093 -820.757 184.221 -825.793 186.106L-827.417 186.863L-833.916 189.914C-864.647 205.191 -886.869 231.343 -897.634 263.916C-904.591 285.541 -906.733 308.659 -904.794 331.253C-895.533 430.278 -828.474 515.247 -749.887 572.008C-734.275 583.202 -718.001 593.469 -701.237 602.858C-784.813 556.627 -858.229 485.278 -891.627 394.475C-904.471 358.368 -910.638 318.962 -903.191 281.036C-895.184 240.815 -872.598 208.725 -836.129 189.534C-833.816 188.416 -830.304 186.773 -827.955 185.663L-826.317 184.897L-824.628 184.241C-817.917 181.535 -811.056 179.235 -804.073 177.348C-801.119 176.668 -796.204 175.516 -793.511 174.891C-730.231 163.169 -665.639 179.461 -606.349 201.393C-590.983 207.278 -574.695 214.084 -559.812 220.985C-524.874 237.116 -491.043 255.536 -458.15 275.459C-327.457 356.22 -178.699 407.273 -26.1072 424.639C87.8918 437.04 206.05 432.84 315.305 395.766C368.866 376.792 422.449 348.916 456.831 302.403C518.119 217.91 464.607 125.35 399.652 61.7532C309.065 -26.7208 206.303 -85.27 77.2509 -47.9029C-68.7332 -5.22391 -191.985 117.899 -353.419 99.6012C-391.771 95.5366 -428.979 83.6099 -463.702 67.0646C-515.672 42.6079 -565.936 10.5109 -600.802 -35.9381C-612.334 -51.2191 -622.091 -68.2454 -629.011 -86.1019C-636.081 -103.903 -640.441 -123.036 -642.14 -142.078C-650.382 -235.501 -596.949 -333.881 -537.246 -402.599L-537.21 -402.591Z" fill="#73206F"/>
<path d="M-537.21 -402.591C-588.716 -336.93 -630.77 -250.995 -630.676 -166.19C-630.443 -120.072 -616.018 -75.9482 -588.585 -38.8338C-552.684 9.57126 -500.363 42.8243 -446.001 67.2388C-376.548 100.356 -296.072 108.344 -221.947 87.2125C-84.2937 51.3732 33.3264 -65.3339 179.712 -61.522C257.729 -59.0502 328.487 -17.8521 385.931 32.3946C411.289 54.3347 435.558 78.306 455.742 105.129C559.62 243.186 472.929 350.49 330.04 398.86C115.879 468.893 -142.581 427.223 -343.342 332.297C-378.085 315.847 -411.749 297.177 -444.508 277.096C-497.802 244.877 -553.506 216.011 -612.557 195.85C-670.385 176.663 -736.117 163.101 -795.789 181.199C-844.402 195.988 -877.074 232.021 -886.998 281.955C-890.673 300.691 -891.065 320.114 -888.861 339.067C-876.615 435.139 -811.377 516.997 -734.61 572.429C-719.007 583.609 -702.757 593.871 -686.005 603.257C-769.473 557.049 -842.894 485.775 -876.317 395.091C-889.201 359.049 -895.367 319.643 -888.026 281.744C-879.909 240.04 -855.149 205.917 -816.365 187.789C-803.439 181.559 -789.269 177.305 -775.148 174.773C-729.949 166.643 -683.445 173.783 -639.608 185.863C-607.259 194.831 -575.626 207.156 -545.147 221.124C-510.228 237.226 -476.413 255.605 -443.539 275.5C-296.68 366.279 -127 419.912 45.3723 429.817C159.426 435.404 278.376 425.022 382.181 374.471C500.039 315.543 537.277 216.543 453.893 106.522C433.82 79.8227 409.681 55.9419 384.45 34.1042C327.391 -15.8473 257.147 -56.8842 179.633 -59.3717C131.603 -61.0867 84.3037 -48.4422 40.3048 -29.9622C-48.1305 7.00261 -128.144 63.7564 -221.519 88.8625C-295.967 109.986 -376.945 101.84 -446.574 68.4975C-501.088 43.9253 -553.525 10.4602 -589.417 -38.2169C-616.848 -75.5176 -631.251 -119.911 -631.353 -166.175C-631.254 -251.063 -588.955 -336.982 -537.225 -402.582L-537.21 -402.591Z" fill="#73206F"/>
<path d="M-537.21 -402.591C-580.64 -341.558 -614.019 -266.063 -618.871 -190.726C-622.199 -137.445 -608.944 -85.1034 -577.434 -41.6489C-540.975 9.30617 -486.151 43.7869 -429.385 68.3864C-376.999 91.9615 -318.704 103.002 -261.446 96.6147C-164.913 86.407 -81.1859 33.2362 3.91961 -9.08452C55.3211 -34.6677 109.779 -57.3711 167.729 -61.2543C259.386 -68.1338 341.456 -20.8835 407.639 38.3704C474.612 97.1477 547.859 189.936 502.831 282.115C471.698 343.334 406.758 377.743 344.263 399.601C160.579 458.575 -41.6128 437.012 -222.089 376.093C-281.08 355.658 -338.254 329.949 -392.573 299.178C-405.135 292.157 -417.43 284.597 -429.774 277.2C-478.973 247.501 -530.156 220.624 -584.211 200.897C-654.015 175.44 -746.065 155.875 -813.493 196.234C-840.255 212.596 -859.689 238.605 -868.356 268.692L-869.884 273.842L-871.839 282.574C-872.127 283.733 -872.285 284.919 -872.466 286.101L-873.022 289.643C-873.924 294.268 -874.124 299.333 -874.624 303.883C-880.011 411.73 -803.626 512.661 -719.356 572.845C-703.766 584.022 -687.513 594.272 -670.772 603.656C-691.712 592.004 -711.944 578.936 -731.034 564.446C-810.378 504.046 -880.521 407.409 -875.61 303.831C-875.396 301 -874.88 295.743 -874.575 293.069C-874.269 291.254 -873.771 287.749 -873.48 285.944C-873.071 282.793 -871.568 276.778 -870.903 273.596C-863.867 246.257 -848.556 220.737 -825.977 203.47L-823.155 201.216L-820.17 199.185C-818.16 197.851 -816.199 196.458 -814.16 195.168L-807.873 191.598C-804.935 189.843 -801.269 188.295 -798.16 186.789C-794.44 184.992 -788.611 182.904 -784.734 181.477C-782.74 180.851 -776.496 178.978 -774.372 178.329C-714.357 163.022 -651.375 176.498 -593.816 195.714C-572.303 203.279 -551.068 211.781 -530.37 221.325C-495.47 237.398 -461.665 255.762 -428.795 275.618C-265.778 376.341 -74.5605 431.901 117.191 431.705C240.267 431.81 438.754 400.536 500.674 281.074C545.155 190.097 472.209 98.047 406.123 40.0723C340.426 -18.7773 258.894 -65.9233 167.85 -59.1102C110.185 -55.2773 56.0066 -32.6505 4.80643 -7.2479C-80.4488 35.0154 -164.549 88.1801 -261.299 98.2411C-318.795 104.577 -377.433 93.3872 -429.947 69.6596C-486.867 44.9024 -541.829 10.1926 -578.264 -41.0439C-609.761 -84.7322 -622.96 -137.273 -619.481 -190.734C-614.426 -266.139 -580.848 -341.578 -537.227 -402.57L-537.21 -402.591Z" fill="#73206F"/>
<path d="M-537.21 -402.591C-591.526 -317.694 -629.251 -201.31 -595.675 -102.296C-564.588 -8.82986 -475.395 48.261 -386.46 79.6087C-231.84 133.316 -112.88 57.4477 20.1914 -10.3164C54.6135 -27.2595 89.9685 -42.8667 127.275 -52.3955C249.384 -85.6991 352.947 -28.7201 439.442 54.0585C575.149 181.786 564.365 315.621 385.786 390.127C145.467 483.403 -172.844 420.664 -390.184 292.184C-447.419 257.318 -506.044 223.969 -569.281 201.193C-605.134 188.078 -642.642 178.105 -680.718 174.611C-725.374 170.687 -773.95 176.614 -810.135 204.972C-830.932 220.982 -845.905 244.134 -853.174 269.267L-854.192 272.696L-854.69 274.419L-855.069 276.169L-856.633 283.154C-858 290.034 -858.825 297.466 -859.401 304.442C-864.671 412.265 -788.36 513.079 -704.1 573.249C-688.51 584.426 -672.266 594.662 -655.538 604.043C-672.3 594.704 -688.564 584.502 -704.188 573.367C-785.884 514.949 -857.753 422.534 -860.684 318.764C-860.876 310.613 -860.296 301.719 -859.374 293.61C-858.859 290.084 -858.299 286.406 -857.661 282.944C-857.368 281.363 -855.997 275.556 -855.716 274.147C-850.121 252.65 -839.727 232.206 -824.273 216.097C-823.144 214.747 -817.985 209.936 -816.49 208.565C-815.056 207.244 -812.478 205.249 -810.906 203.983C-807.252 200.876 -803.049 198.349 -799.111 195.664L-792.824 192.094C-791.765 191.526 -790.748 190.862 -789.652 190.352L-786.388 188.817C-784.198 187.81 -782.053 186.717 -779.831 185.791C-775.595 184.205 -770.485 182.037 -766.256 180.885C-702.769 161.186 -629.719 177.704 -568.702 199.675C-514.529 219.315 -463.199 246.149 -413.877 275.8C-218.651 395.861 18.1573 454.314 246.365 424.05C303.09 415.803 359.473 401.54 411.011 376.074C570.302 295.655 558.331 169.134 437.902 55.693C328.975 -47.619 218.236 -93.1853 73.4354 -32.199C-82.3461 33.8692 -206.056 143.102 -386.885 80.9367C-476.219 49.3031 -565.392 -8.0573 -596.415 -102.046C-629.778 -201.299 -591.803 -317.68 -537.172 -402.595L-537.21 -402.591Z" fill="#73206F"/>
<path d="M-537.21 -402.591C-598.212 -295.649 -629.252 -149.45 -552.13 -42.6546C-514.385 10.3108 -457.234 45.9686 -397.646 69.9836C-327.014 100.192 -246.643 105.267 -172.952 83.3814C-27.5838 44.4058 98.9858 -85.4474 257.738 -58.2883C334.258 -44.7673 399.729 2.46049 455.041 54.836C508.787 106.15 562.506 178.822 542.841 257.002C511.873 367.876 363.291 412.296 261.462 426.8C37.6359 456.244 -194.769 400.726 -387.561 285.091C-479.98 228.435 -612.004 160.84 -722.913 176.253C-729.963 177.241 -737.066 178.816 -743.967 180.497L-754.248 183.613C-755.378 183.991 -756.475 184.451 -757.601 184.867L-764.281 187.43C-767.959 188.975 -770.494 190.369 -774.018 191.947C-775.09 192.462 -776.102 193.102 -777.148 193.673L-783.376 197.194L-789.316 201.176C-790.3 201.86 -791.318 202.473 -792.263 203.203L-795.064 205.424C-812.082 218.503 -825.12 236.468 -833.344 256.224C-835.748 262.306 -837.817 268.572 -839.536 274.889L-839.915 276.638L-841.479 283.624C-842.828 290.482 -843.661 297.95 -844.235 304.914C-849.329 410.433 -776.347 509.105 -694.721 569.402C-677.387 582.203 -659.165 593.901 -640.362 604.417C-657.115 595.093 -673.379 584.891 -689.004 573.755C-770.69 515.352 -842.531 422.981 -845.506 319.239C-845.743 315.326 -845.301 308.856 -845.219 304.85C-844.913 302.288 -844.553 296.598 -844.21 294.094C-843.559 290.573 -843.233 286.881 -842.509 283.426L-840.958 276.387C-835.902 255.421 -826.152 235.298 -811.618 219.238C-807.089 214.054 -801.313 208.641 -795.85 204.444C-792.918 201.853 -787.364 198.385 -784.064 196.11C-781.402 194.594 -777.124 192.121 -774.628 190.793L-771.364 189.258C-769.175 188.251 -767.029 187.158 -764.817 186.218L-758.081 183.629C-756.955 183.213 -755.843 182.744 -754.699 182.356C-689.932 161.065 -616.214 177.554 -553.736 199.978C-535.702 206.441 -517.896 213.901 -500.471 221.851C-465.589 237.895 -431.788 256.221 -398.939 276.06C-177.488 412.506 120.571 477.808 372.77 398.492C503.085 355.07 599.789 257.05 509.349 121.569C493.367 97.7497 474.133 76.2774 453.43 56.4551C385.584 -8.76515 298.054 -65.645 200.272 -59.7442C142.598 -56.7354 88.1891 -34.6568 36.9001 -9.53509C-64.6037 40.8167 -168.602 106.361 -286.575 97.9074C-324.983 95.5995 -362.723 85.9495 -398.202 71.2211C-455.787 47.9265 -510.938 13.8608 -548.729 -36.2993C-580.958 -78.3398 -597.58 -131.087 -598.479 -183.802C-599.651 -260.582 -575.065 -336.375 -537.267 -402.616L-537.21 -402.591Z" fill="#73206F"/>
<path d="M-537.21 -402.591C-575.294 -326.509 -597.103 -237.519 -583.911 -152.541C-576.405 -105.332 -555.89 -60.1251 -524.257 -24.1434C-486.503 19.456 -435.63 49.6047 -382.351 70.4959C-311.36 99.7979 -231.044 103.977 -157.437 82.0728C-12.2097 42.9421 114.825 -86.5239 273.486 -58.3131C340.141 -46.183 399.015 -8.05881 449.205 36.0061C478.078 61.2991 505.268 88.9432 526.702 120.933C542.639 144.954 555.423 171.556 560.244 200.194C567.279 238.468 556.288 278.703 532.381 309.174C473.432 383.736 367.033 413.68 276.476 427.226C59.7896 455.789 -164.844 404.297 -353.856 296.433C-359.397 293.164 -366.958 288.797 -372.428 285.431C-417.321 257.962 -463.669 232.431 -512.339 212.265C-583.693 183.196 -674.628 157.68 -749.107 187.866C-751.293 188.8 -753.433 189.869 -755.596 190.87L-758.831 192.386C-759.906 192.913 -760.916 193.541 -761.962 194.112L-768.189 197.633L-774.12 201.629C-775.104 202.313 -776.123 202.927 -777.055 203.659L-779.857 205.879C-800.623 221.921 -815.56 245.08 -822.791 270.209C-826.922 283.802 -828.887 298.337 -829.257 312.533C-830.417 399.496 -779.91 479.793 -718.163 537.699C-690.184 563.721 -658.46 586.218 -625.121 604.831C-641.874 595.506 -658.137 585.304 -673.75 574.172C-754.203 516.409 -823.178 428.596 -830.075 326.894C-831.724 293.237 -824.922 258.922 -805.402 230.963C-802.579 227.202 -799.674 223.123 -796.399 219.697C-794.726 217.967 -793.184 215.971 -791.476 214.423L-786.214 209.484C-783.796 207.305 -780.379 204.72 -777.821 202.646C-776.288 201.558 -770.63 197.727 -768.866 196.552C-766.137 195.013 -761.969 192.59 -759.43 191.235C-756.178 189.697 -752.862 188.099 -749.619 186.659L-742.883 184.07C-685.601 163.586 -622.696 174.256 -565.859 191.16C-539.523 199.322 -513.737 209.446 -488.571 220.705C-452.572 237.178 -417.657 255.945 -383.785 276.417C-188.674 396.491 48.0064 455.016 276.151 424.926C366.189 411.417 471.854 381.637 530.462 307.724C553.972 277.703 564.853 238.266 557.913 200.586C547.747 143.607 509.505 96.3892 468.903 57.0682C401.063 -8.12569 313.852 -65.3227 216.078 -60.0929C158.386 -57.4616 103.876 -35.6044 52.5288 -10.6198C-33.0258 31.0679 -117.017 83.5585 -213.407 95.1799C-270.716 102.491 -329.468 93.4438 -382.864 71.7675C-448.433 46.1695 -510.787 5.33538 -548.614 -55.2469C-614.335 -160.605 -590.309 -297.063 -537.21 -402.591Z" fill="#73206F"/>
<path d="M-537.21 -402.591C-581.902 -300.685 -599.312 -170.579 -543.398 -69.7006C-524.959 -36.155 -498.759 -7.10619 -468.374 16.098C-391.958 72.5744 -294.103 105.183 -198.832 92.7957C-102.669 80.9007 -18.9302 28.6543 66.569 -13.008C118.176 -38.0983 173.028 -59.9189 231.036 -62.4566C329.382 -67.4502 417.17 -9.91665 485.466 55.588C506.284 75.51 525.667 97.1018 541.742 121.066C632.736 257.39 536.905 357.368 404.034 401.531C161.103 479.119 -135.146 417.959 -350.941 289.603C-405.979 255.823 -462.95 224.34 -523.803 202.306C-559.647 189.205 -597.159 179.255 -635.226 175.776C-679.873 171.866 -728.445 177.832 -764.588 206.224C-781.606 219.303 -794.644 237.268 -802.88 257.022C-805.283 263.104 -807.352 269.37 -809.071 275.687L-809.45 277.436L-811.014 284.422C-812.366 291.292 -813.194 298.736 -813.77 305.712C-819.001 413.468 -742.674 514.324 -658.454 574.447C-642.873 585.61 -626.631 595.858 -609.9 605.227C-626.651 595.891 -642.917 585.701 -658.542 574.565C-740.228 516.162 -812.069 423.791 -815.044 320.049C-815.3 316.168 -814.822 309.645 -814.757 305.66C-814.496 303.076 -814.055 297.416 -813.748 294.904C-813.233 291.378 -812.673 287.7 -812.047 284.235L-810.496 277.197C-805.44 256.231 -795.69 236.108 -781.156 220.048C-776.627 214.864 -770.851 209.451 -765.376 205.256C-762.444 202.665 -756.89 199.197 -753.59 196.923C-750.902 195.4 -746.665 192.943 -744.154 191.606L-740.89 190.071C-738.701 189.063 -736.555 187.971 -734.343 187.03L-727.607 184.442C-726.482 184.025 -725.369 183.556 -724.228 183.181C-659.461 161.89 -585.742 178.379 -523.268 200.815C-505.233 207.277 -487.427 214.737 -470.002 222.687C-435.12 238.731 -401.319 257.057 -368.47 276.896C-238.15 357.651 -89.8705 409.012 62.3717 426.725C185.384 440.245 314.044 435.307 430.116 389.283C550.845 340.42 621.868 244.682 539.808 122.391C523.827 98.5715 504.589 77.1111 483.878 57.2743C415.992 -7.87971 328.892 -65.1895 231.114 -60.2845C173.403 -57.7945 118.841 -36.048 67.4479 -11.1358C-18.184 30.4479 -102.284 82.6908 -198.64 94.4442C-294.335 106.715 -392.477 73.9319 -469.109 17.0723C-499.535 -6.29015 -525.768 -35.533 -544.185 -69.2358C-599.912 -170.459 -582.24 -300.621 -537.21 -402.591Z" fill="#73206F"/>
<path d="M-537.21 -402.591C-564.164 -331.185 -576.294 -252.891 -566.312 -176.93C-550.377 -54.022 -467.727 29.8043 -353.812 70.8517C-300.2 91.242 -241.604 99.6322 -184.608 92.0917C-68.6464 77.8856 27.5061 5.71964 133.71 -36.6747C149.33 -42.8438 165.336 -48.2567 181.575 -52.5602C285.175 -81.1055 375.319 -47.6771 456.736 17.607C486.404 41.5899 515.35 67.9826 539.383 97.7077C590.461 159.829 616.546 239.368 563.345 309.221C527.905 355.492 473.834 382.976 419.781 401.743C236.105 460.507 34.0124 438.89 -146.376 377.916C-205.339 357.462 -262.487 331.746 -316.779 300.969C-329.341 293.948 -341.622 286.378 -353.956 278.996C-394.935 254.193 -437.344 231.609 -481.573 213.166C-559.531 180.958 -671.997 150.839 -746.463 204.273L-752.066 208.714C-752.992 209.472 -753.964 210.159 -754.809 211.009L-760.035 215.894C-760.462 216.312 -760.92 216.698 -761.326 217.134L-762.524 218.456L-764.93 221.099C-767.868 224.237 -771.297 228.663 -773.903 232.222C-783.164 245.425 -789.719 260.361 -793.853 275.921C-794.838 280.466 -796.451 287.043 -796.976 291.712C-797.875 296.264 -798.077 301.452 -798.576 305.941C-803.872 413.77 -727.542 514.614 -643.283 574.783C-627.692 585.961 -611.451 596.208 -594.72 605.577C-628.125 587.038 -659.951 564.605 -688.002 538.631C-753.599 477.822 -808.776 387.419 -798.551 295.121C-795.652 272.479 -788.028 250.313 -774.889 231.535C-772.751 228.635 -770.544 225.762 -768.288 222.95C-767.104 221.574 -764.628 218.959 -763.435 217.598L-762.224 216.266C-761.815 215.819 -761.357 215.433 -760.929 215.015C-758.658 212.879 -755.192 209.494 -752.893 207.75L-750.072 205.496C-746.417 202.389 -742.214 199.862 -738.276 197.178C-735.521 195.632 -731.401 193.199 -728.832 191.875C-725.579 190.337 -722.259 188.715 -719.011 187.314C-716.047 186.187 -711.625 184.43 -708.884 183.467C-706.87 182.869 -700.652 180.941 -698.519 180.307C-637.362 164.736 -573.114 178.762 -514.632 198.787C-494.256 205.957 -474.2 214.141 -454.582 223.139C-419.69 239.198 -385.892 257.536 -353.034 277.389C-190.094 378.12 1.02475 433.733 192.717 433.637C315.092 434.039 514.795 402.281 576.401 283.573C621.428 192.727 548.725 100.592 482.717 42.485C463.229 25.1184 442.231 8.38388 420.572 -6.10229C344.112 -57.082 264.322 -74.8498 175.143 -48.6722C105.847 -28.5871 43.7355 9.00069 -20.9622 39.9861C-89.5343 73.5949 -164.558 100.075 -242.013 95.9933C-280.288 94.3371 -318.532 85.6365 -354.346 72.1063C-468.619 30.7569 -551.259 -53.5778 -566.949 -176.869C-576.74 -252.963 -564.41 -331.201 -537.267 -402.616L-537.21 -402.591Z" fill="#73206F"/>
</g>
</g>
</svg>
