<svg width="218" height="567" viewBox="0 0 218 567" fill="none" xmlns="http://www.w3.org/2000/svg">
<path d="M-1253.63 -159.258C-1365.55 -28.5087 -1450.84 171.125 -1261.89 280.368C-1223.26 302.949 -1180.24 318.498 -1136.41 330.293C-1070.98 348.642 -1000.5 355.833 -933.542 340.151C-750.417 298.889 -646.903 130.686 -474.754 69.6563C-339.815 21.5887 -198.817 76.5553 -88.1434 149.711C15.5881 219.736 64.439 318.498 -22.4017 421.108C-120.103 532.076 -299.164 585.676 -447.871 609.279C-651.458 640.086 -863.592 623.329 -1058.27 560.495C-1101.48 546.63 -1145.39 534.517 -1190.01 525.164C-1714.11 414.236 -1670.81 846.552 -1262.06 961.818C-1391.51 926.103 -1518.92 846.512 -1565.4 725.607C-1588.46 664.643 -1578.94 594.419 -1521.66 552.296C-1467.14 511.976 -1393.5 504.029 -1325.66 505.979C-1233.8 509.402 -1144.04 531.2 -1057.52 558.571C-863.101 620.941 -651.487 637.75 -448.304 606.864C-292.873 583.54 -53.8699 510.132 9.02271 365.279C44.887 277.808 -15.2869 202.038 -89.7631 151.715C-199.756 78.9832 -339.728 24.1228 -473.858 71.8189C-645.862 132.968 -749.738 300.906 -933.079 341.836C-1000.37 357.504 -1071.16 350.221 -1136.84 331.699C-1180.77 319.799 -1223.93 304.183 -1262.61 281.43C-1451.77 171.377 -1366.37 -28.177 -1253.63 -159.258Z" fill="#FAECC8"/>
<path d="M-1253.63 -159.258C-1322.02 -72.6492 -1386.42 55.9777 -1348.18 163.43C-1329.76 214.522 -1289.57 253.289 -1240.07 280.793C-1200.99 302.538 -1157.85 317.61 -1113.86 328.648C-1069.94 339.978 -1024.35 346.93 -978.633 344.383C-785.848 335.892 -670.171 173.473 -515.174 91.03C-394.349 26.0598 -274.753 40.2293 -154.695 98.5526C-104.297 123.217 -55.1281 152.113 -16.3136 190.999C101.85 310.22 17.1644 430.063 -110.588 502.397C-342.1 630.069 -650.938 645.843 -910.201 592.097C-999.819 574.399 -1084.03 539.546 -1173.63 521.847C-1217.87 512.626 -1263.8 506.019 -1309.18 504.573C-1379.01 502.583 -1456.28 511.313 -1509.99 556.01C-1511.03 556.899 -1512.16 557.709 -1513.13 558.664L-1519.03 564.316C-1520.01 565.258 -1521.02 566.186 -1521.88 567.221L-1527.27 573.284C-1528.21 574.266 -1528.99 575.354 -1529.8 576.429L-1534.66 582.877C-1536.83 586.247 -1539.01 589.616 -1541.04 593.053L-1544.71 600.124L-1545.62 601.889L-1546.39 603.72L-1549.45 611.017C-1550.77 614.732 -1551.97 618.499 -1553.11 622.267L-1554.93 629.923L-1555.4 631.833C-1555.95 636.132 -1557.12 641.067 -1557.33 645.432L-1557.96 653.247C-1557.9 656.696 -1558.25 665.2 -1557.77 668.929C-1555.58 708.279 -1539.42 745.999 -1517.19 779.392C-1456.16 868.947 -1352.91 928.398 -1244.29 958.701C-1353.11 928.637 -1456.6 869.345 -1517.94 779.817C-1538.93 748.572 -1554.36 713.573 -1558.39 676.863C-1558.62 673.121 -1559.07 668.836 -1559.24 665.055C-1559.32 663.741 -1559.24 662.428 -1559.26 661.114L-1559.21 653.22C-1558.74 648.258 -1558.56 642.275 -1557.61 637.498C-1557.19 635.044 -1556.87 632.045 -1556.24 629.697C-1554.92 623.329 -1552.89 616.655 -1550.74 610.605C-1550.03 608.735 -1548.4 605.086 -1547.67 603.216C-1547.25 601.836 -1543.15 594.114 -1542.29 592.429C-1539.53 587.932 -1536.76 583.089 -1533.43 578.883L-1530.99 575.633C-1530.18 574.545 -1529.38 573.444 -1528.44 572.449L-1523 566.319C-1520.59 563.586 -1516.8 560.296 -1514.17 557.655C-1462.47 512.228 -1386.63 501.707 -1317.68 502.676C-1280.76 503.22 -1243.09 507.531 -1206.79 513.621C-1150.58 523.373 -1095.28 537.807 -1041.28 554.989C-783.216 637.167 -492.021 643.455 -234.753 555.599C-171.036 532.938 -109.271 503.79 -56.7332 463.351C42.0671 387.595 75.6754 286.869 -18.3237 192.684C-56.9067 154.01 -105.786 125.246 -155.91 100.715C-275.158 42.7369 -393.799 28.4877 -513.901 93.0068C-668.928 175.596 -785.414 337.882 -978.503 346.028C-1024.4 348.536 -1070.22 341.491 -1114.25 330.068C-1158.34 318.936 -1201.61 303.772 -1240.76 281.881C-1290.42 254.125 -1330.68 215.08 -1349.06 163.695C-1387.11 55.9113 -1322.42 -72.5563 -1253.63 -159.258Z" fill="#FAECC8"/>
<path d="M-1253.63 -159.258C-1302.97 -90.7856 -1342 -8.621 -1346.23 74.1804C-1353.39 230.708 -1214.89 302.777 -1066.93 332.35C-982.884 349.226 -903.072 341.557 -825.689 306.598C-698.891 249.986 -610.214 142.507 -486.482 81.4111C-474.219 75.4143 -460.466 69.5369 -447.523 64.827C-345.845 27.3468 -244.355 45.6424 -149.141 89.7563C-103.414 110.997 -58.6709 136.02 -20.6085 167.715C124.165 288.952 50.4691 418.68 -95.186 500.606C-290.401 607.673 -535.955 632.894 -758.979 610.181C-849.825 600.456 -939.471 581.391 -1025.69 553.397C-1071.47 538.75 -1118.14 526.331 -1165.49 516.712C-1171.4 515.664 -1184.72 513.144 -1190.65 512.082C-1195.31 511.273 -1211.22 508.911 -1215.96 508.128C-1235.15 505.621 -1256.09 503.167 -1275.47 502.198C-1354.72 497.793 -1446.91 506.205 -1503.32 563.148L-1510.06 570.724C-1512.59 573.868 -1514.96 577.119 -1517.36 580.343L-1521.64 587.109C-1522.35 588.237 -1523.09 589.351 -1523.67 590.545L-1527.34 597.603C-1528.01 598.758 -1528.44 600.005 -1528.96 601.212L-1532.03 608.509L-1533.24 612.25C-1535.31 618.194 -1537.1 625.16 -1538.14 631.263L-1539.36 639.011C-1539.75 642.911 -1540.02 646.812 -1540.31 650.726C-1540.24 654.48 -1540.57 662.428 -1540.07 666.381L-1539.82 670.295C-1539.56 675.138 -1538.68 679.41 -1538.19 683.921C-1537.46 687.45 -1536.63 691.961 -1535.9 695.49C-1535.27 698.196 -1533.56 704.259 -1532.91 706.926L-1532.3 708.81L-1531.07 712.565C-1488.02 836.853 -1357.59 918.925 -1226.6 955.583C-1357.88 919.204 -1488.67 837.211 -1532.1 712.843L-1533.34 709.076L-1533.95 707.192C-1534.56 704.644 -1536.37 698.263 -1536.99 695.715C-1537.68 692.16 -1538.62 687.649 -1539.32 684.093C-1539.82 680.352 -1540.76 674.103 -1540.99 670.388C-1541.09 666.461 -1541.75 662.467 -1541.57 658.58L-1541.54 650.699C-1541.3 645.591 -1540.82 640.085 -1540.01 634.991C-1539.5 632.51 -1539.34 629.578 -1538.68 627.203L-1536.86 619.494C-1535.93 616.058 -1534.4 611.561 -1533.3 608.111C-1531.74 604.582 -1530.31 600.496 -1528.6 597.086C-1527.02 594.021 -1524.64 589.179 -1522.87 586.472L-1518.56 579.626C-1516.15 576.362 -1513.75 573.072 -1511.2 569.888L-1505.77 563.758C-1451.43 506.762 -1361.87 497.05 -1283.87 499.982C-1277.45 500.354 -1268.8 500.858 -1262.47 501.256C-1260.33 501.402 -1243.78 503.021 -1241.14 503.22C-1233.08 504.215 -1223.77 505.289 -1215.63 506.351C-1210.67 507.173 -1195.51 509.415 -1190.26 510.278C-1134.12 519.976 -1078.86 534.318 -1024.92 551.446C-767.265 633.797 -476.576 640.391 -219.395 553.304C-155.664 530.869 -93.9132 501.919 -41.1581 461.879C89.3561 362.175 87.0421 244.533 -48.6057 149.419C-83.3999 124.835 -122.388 104.337 -161.795 86.665C-256.922 45.1648 -355.26 30.7034 -454.465 69.9349C-466.034 74.3264 -478.066 79.8456 -489.071 85.2056C-610.662 146.766 -699.152 252.281 -824.778 308.216C-905.169 344.449 -988.871 351.335 -1075.61 331.978C-1221.45 301.357 -1354.43 227.538 -1346.91 74.1008C-1342.42 -8.84656 -1303.19 -90.8387 -1253.6 -159.311L-1253.63 -159.258Z" fill="#FAECC8"/>
<path d="M-1253.63 -159.258C-1306.75 -78.6327 -1348.58 29.6951 -1328.73 124.411C-1324.82 142.308 -1318.75 159.927 -1310.17 176.392C-1300.41 195.139 -1287.44 212.837 -1272.1 228.121C-1207.12 293.476 -1097.2 325.464 -1003.52 335.6C-768.436 356.748 -653.584 173.062 -473.554 79.8854C-351.876 17.8208 -231.861 36.1696 -113.682 95.1031C-44.4122 129.85 26.3473 173.871 60.6642 241.508C80.245 280.01 80.303 325.636 61.6477 364.43C15.4436 459.292 -101.303 517.389 -202.605 553.291C-417.213 625.903 -655.609 631.82 -877.62 585.318C-910.982 578.167 -944.027 569.742 -976.608 560.03C-1030.55 543.115 -1084.66 526.384 -1140.41 515.2C-1155.77 511.949 -1175.12 508.553 -1190.74 506.231C-1271.45 494.37 -1367.64 490.695 -1441.21 527.87C-1490.96 552.879 -1520.69 595.892 -1522.55 648.152C-1524 692.783 -1506.6 736.247 -1481.35 773.873C-1420.18 863.056 -1317.26 922.322 -1208.86 952.531C-1317.45 922.547 -1420.62 863.441 -1482.11 774.298C-1507.56 736.592 -1525.16 692.943 -1523.81 648.112C-1522.06 595.361 -1492.19 551.951 -1441.98 526.61C-1368.12 489.143 -1271.53 492.646 -1190.42 504.467C-1174.71 506.789 -1155.38 510.145 -1139.96 513.396C-1084.11 524.527 -1029.91 541.191 -975.9 558.053C-943.361 567.699 -910.375 576.071 -877.07 583.155C-655.536 629.432 -417.675 623.475 -203.589 550.929C-102.909 515.2 13.0284 457.461 59.0156 363.422C77.3383 325.225 77.3961 280.461 58.1046 242.57C29.3264 185.188 -27.5212 144.63 -85.2656 112.762C-99.6692 104.855 -115.23 96.8278 -130.096 90.0084C-309.475 6.7426 -435.839 39.4466 -584.227 153.652C-709.188 249.124 -827.468 354.4 -1003.69 337.179C-1097.78 326.87 -1207.86 294.697 -1272.98 228.851C-1288.34 213.461 -1301.34 195.643 -1311.09 176.79C-1319.65 160.246 -1325.72 142.534 -1329.57 124.57C-1349.18 29.6553 -1307.08 -78.6062 -1253.65 -159.245L-1253.63 -159.258Z" fill="#FAECC8"/>
<path d="M-1253.63 -159.258C-1310.09 -64.105 -1349.86 68.6215 -1296.45 171.284C-1272.03 219.047 -1228.29 255.598 -1178.14 280.328C-1138.06 300.229 -1094.32 313.205 -1050 322.519C-1005.72 332.031 -959.833 336.064 -914.54 331.5C-723.49 313.59 -611.617 153.585 -453.323 74.6316C-367.161 32.2424 -280.335 27.1478 -187.71 55.1551C-133.567 71.7393 -82.4745 96.5227 -35.1134 125.605C118.264 220.148 142.299 347.872 -7.18823 460.247C-196.256 596.476 -493.106 629.352 -726.252 603.693C-805.559 595.003 -883.954 579.334 -959.891 556.607C-1024.46 536.123 -1089.68 516.819 -1157.01 505.594C-1235.86 492.778 -1325.37 486.861 -1401.02 514.855L-1404.98 516.301L-1408.83 517.973L-1416.54 521.303C-1419.08 522.444 -1421.51 523.811 -1424.01 525.044C-1429.68 527.751 -1434.89 531.161 -1440.26 534.332L-1441.95 535.512L-1448.71 540.262C-1480.5 563.626 -1499.69 596.608 -1503.99 633.784C-1506.62 658.421 -1503.29 683.536 -1495.37 707.152C-1459.75 810.478 -1360.66 885.491 -1255.29 927.801C-1234.38 936.12 -1212.94 943.297 -1191.14 949.427C-1299.65 919.482 -1402.68 860.443 -1464.22 771.445C-1488.18 735.955 -1505.23 695.41 -1506.13 653.3C-1506.95 608.615 -1488.83 569.225 -1451.38 540.368C-1448.98 538.643 -1445.32 536.083 -1442.87 534.358L-1441.17 533.164L-1439.37 532.076C-1432.27 527.645 -1424.9 523.612 -1417.28 519.99C-1414.02 518.583 -1408.61 516.222 -1405.65 514.935C-1335.24 487.843 -1256.26 490.284 -1182.02 499.956C-1162.73 502.676 -1142.13 506.165 -1123.15 510.079C-1078.59 519.194 -1034.74 531.001 -991.605 544.627C-819.803 600.469 -634.524 620.503 -453.265 603.773C-317.993 590.665 -182.07 558.916 -64.7303 494.211C-7.4054 461.64 47.7072 419.582 75.8779 362.108C125.698 257.973 40.4041 171.749 -50.8762 119.011C-178.122 45.6955 -311.962 7.06102 -452.18 76.6482C-610.691 155.801 -722.637 315.381 -914.381 333.159C-959.862 337.683 -1005.99 333.57 -1050.4 323.965C-1116.8 309.915 -1183.13 287.334 -1235.22 245.913C-1252.43 232.301 -1268.02 216.42 -1280.53 199C-1293.2 181.672 -1303.06 162.302 -1309.81 142.414C-1342.84 44.8199 -1305.62 -72.2909 -1253.67 -159.258H-1253.63Z" fill="#FAECC8"/>
<path d="M-1253.63 -159.258C-1296.84 -77.4387 -1324 23.7911 -1302.58 114.089C-1290.72 163.151 -1262.91 206.814 -1221.79 240.009C-1168 283.274 -1098.99 306.611 -1029.84 320.064C-941.004 339.302 -845.704 329.232 -765.081 289.616C-614.509 219.67 -507.48 68.2234 -336.822 38.4913C-245.758 23.1145 -153.379 50.6575 -74.1591 90.9106C-39.2493 108.423 -5.09155 128.351 25.046 152.259C180.159 275.313 106.623 409.605 -46.8706 494.105C-277.544 618.128 -587.64 633.412 -844.229 578.658C-888.639 569.158 -932.356 557.045 -975.379 543.221C-1045.26 521.21 -1117.09 503.326 -1190.61 495.485C-1262.47 488.4 -1342.08 489.13 -1406.7 522.179C-1459.34 549.151 -1488.17 595.069 -1487.12 650.54C-1486.68 671.343 -1482.25 692.12 -1474.93 711.796C-1436.6 811.287 -1340.4 883.409 -1237.48 924.723C-1216.58 933.028 -1195.16 940.206 -1173.38 946.335C-1281.76 916.391 -1384.78 857.431 -1446.31 768.566C-1470.31 733.156 -1487.36 692.611 -1488.37 650.553C-1489.44 604.264 -1469.31 562.206 -1428.9 533.947C-1415.48 524.328 -1400.12 516.527 -1384.39 510.57C-1334.04 491.478 -1278.33 488.347 -1224.48 491.093C-1184.72 493.176 -1144.95 499.001 -1106.11 506.842C-1061.58 515.93 -1017.77 527.698 -974.656 541.297C-781.596 604.078 -571.414 622.029 -369.099 592.787C-235.476 572.409 -100.19 533.894 7.44666 456.094C129.269 366.128 147.563 252.095 23.2528 154.169C-6.72571 130.368 -40.71 110.506 -75.4462 93.0732C-154.145 53.0456 -245.888 25.5557 -336.373 40.7999C-392.483 50.0605 -444.14 74.4458 -490.503 104.284C-583.735 164.067 -662.232 242.981 -764.17 291.274C-845.169 330.957 -941.091 340.973 -1030.19 321.537C-1099.56 307.951 -1168.76 284.415 -1222.6 240.858C-1263.77 207.464 -1291.62 163.509 -1303.36 114.261C-1324.58 23.8309 -1297.13 -77.4387 -1253.65 -159.245L-1253.63 -159.258Z" fill="#FAECC8"/>
<path d="M-1253.63 -159.258C-1288.64 -84.2315 -1308.37 3.87686 -1295.06 85.2322C-1285.53 142.746 -1257.01 195.431 -1209.57 234.437C-1154.5 280.289 -1082.28 304.356 -1010.29 317.45C-943.636 330.466 -873.281 328.767 -808.509 308.747C-699.166 275.592 -615.464 199.636 -527.437 134.918C-474.277 95.8062 -416.851 59.0557 -350.647 41.5428C-246.12 13.0579 -139.105 44.4351 -47.4923 92.2639C44.916 139.403 153.145 221.315 124.107 329.882C103.398 402.268 36.7598 453.905 -30.1965 491.611C-228.318 596.821 -468.131 620.529 -692.659 597.312C-766.18 589.165 -838.921 574.983 -909.623 554.75C-925.95 550.173 -942.103 544.959 -958.271 539.93C-1022.77 519.658 -1088.86 502.848 -1156.48 494.317C-1243.8 483.319 -1355.42 483.73 -1423.45 542.279C-1450.36 565.881 -1466.36 598.068 -1468.85 632.112L-1469.32 637.949L-1469.39 647.701C-1469.44 649.001 -1469.32 650.301 -1469.24 651.602L-1468.99 655.502C-1468.87 660.637 -1467.83 666.076 -1467.27 671.038C-1446.42 787.141 -1332.5 877 -1219.69 921.645C-1198.81 929.95 -1177.39 937.115 -1155.63 943.244C-1182.83 935.669 -1209.57 926.421 -1235.34 915.396C-1342.5 869.385 -1448.09 782.656 -1468.43 671.211C-1468.89 668.146 -1469.61 662.428 -1469.93 659.509C-1470.03 657.506 -1470.33 653.658 -1470.45 651.668C-1470.77 648.218 -1470.54 641.465 -1470.57 637.923C-1469.28 607.183 -1457.94 576.469 -1436.1 552.866L-1433.4 549.815L-1430.45 546.962C-1428.45 545.078 -1426.53 543.141 -1424.49 541.297L-1418.1 536.043C-1415.14 533.496 -1411.27 531.001 -1408.05 528.68C-1404.19 525.907 -1397.96 522.338 -1393.82 519.923C-1391.66 518.796 -1384.9 515.359 -1382.6 514.178C-1316.87 484.022 -1240.47 483.836 -1168.92 491.014C-1142.08 494.105 -1115.32 498.258 -1088.93 503.644C-1044.43 512.706 -1000.63 524.461 -957.534 538.02C-743.245 607.66 -507.611 622.692 -285.368 578.22C-142.663 549.921 79.5801 470.794 121.344 329.272C150.05 222.111 42.3562 140.915 -48.8229 94.4265C-139.771 46.9161 -246.134 15.5256 -349.967 43.7983C-415.853 61.1918 -472.976 97.7964 -525.948 136.67C-614.162 201.361 -698.299 277.396 -807.93 310.445C-872.992 330.466 -943.781 332.084 -1010.62 318.936C-1082.83 305.709 -1155.26 281.43 -1210.38 235.272C-1257.87 196.014 -1286.37 143.104 -1295.77 85.3649C-1308.86 3.89014 -1288.89 -84.205 -1253.65 -159.232L-1253.63 -159.258Z" fill="#FAECC8"/>
<path d="M-1253.63 -159.258C-1295.26 -56.3038 -1309.76 76.3563 -1245.95 174.057C-1186.43 266.424 -1068.68 306.638 -957.707 319.494C-764.966 341 -646.122 232.738 -508.883 129.85C-473.236 103.859 -436.171 79.0761 -395.318 60.3161C-262.128 -3.34059 -127.753 33.4365 -6.68225 101.631C182.733 206.336 203.861 351.362 15.5593 471.935C-239.598 626.752 -624.372 633.412 -908.611 546.75C-983.723 522.829 -1060.06 500.845 -1139.1 491.186C-1183.96 485.495 -1229.94 483.531 -1274.96 488.599C-1327.72 494.729 -1382.54 512.255 -1417.36 550.81C-1437.45 572.661 -1448.99 600.774 -1451.1 629.22L-1451.42 633.107L-1451.56 635.057V637.007L-1451.62 644.809C-1451.48 652.451 -1450.57 660.557 -1449.48 668.119C-1428.5 784.169 -1314.7 873.922 -1201.9 918.554C-1181.02 926.859 -1159.62 934.01 -1137.87 940.14C-1159.65 934.063 -1181.06 926.952 -1201.97 918.699C-1311.36 875.342 -1417.9 793.509 -1447.37 683.669C-1449.64 675.032 -1451.2 665.426 -1452.17 656.577C-1452.46 652.703 -1452.74 648.656 -1452.87 644.822C-1452.92 643.071 -1452.79 636.57 -1452.82 635.004C-1451.74 610.818 -1444.82 586.645 -1430.96 565.921C-1429.99 564.223 -1425.22 557.908 -1423.83 556.103C-1422.5 554.365 -1420.01 551.645 -1418.51 549.934C-1415.05 545.781 -1410.81 542.12 -1406.92 538.352L-1400.53 533.098C-1399.44 532.249 -1398.43 531.307 -1397.29 530.511L-1393.89 528.122C-1391.61 526.544 -1389.39 524.885 -1387.05 523.386C-1382.54 520.719 -1377.16 517.23 -1372.55 515.028C-1303.9 479.391 -1215.06 480.121 -1138.81 489.435C-1071.07 497.846 -1004.82 514.576 -940.194 534.769C-683.707 617.571 -394.494 625.16 -137.543 540.249C-73.8555 518.371 -12.0763 490.165 41.2717 451.145C205.727 328.728 160.058 196.744 -8.05615 103.727C-160.291 18.8424 -300.119 -4.12335 -452.657 94.254C-616.65 200.578 -732.615 345.471 -957.866 321.006C-1069.38 307.938 -1187.17 267.432 -1246.75 174.495C-1310.36 76.489 -1295.58 -56.2242 -1253.59 -159.272L-1253.63 -159.258Z" fill="#FAECC8"/>
<path d="M-1253.63 -159.258C-1297.48 -31.2816 -1296.73 131.588 -1180.48 227.524C-1123.42 275.22 -1048.21 300.004 -973.094 311.825C-883.621 327.693 -789.174 314.545 -709.246 274.225C-550.517 199.159 -436.417 31.6454 -245.556 23.9238C-153.451 20.66 -65.6847 55.845 11.597 98.8577C86.7963 141.101 167.332 206.098 164.179 293.901C156.139 419.131 -4.9469 500.739 -119.351 539.692C-371.428 622.719 -654.799 617.239 -907.353 538.59C-1028.73 499.584 -1198.76 458.071 -1323.46 500.089C-1331.39 502.769 -1339.23 506.085 -1346.81 509.469L-1357.94 515.16C-1359.16 515.824 -1360.31 516.567 -1361.51 517.27L-1368.61 521.542C-1372.49 524.036 -1375.08 526.106 -1378.77 528.6C-1379.88 529.396 -1380.89 530.312 -1381.96 531.161L-1388.3 536.348L-1394.18 541.96C-1395.15 542.916 -1396.18 543.804 -1397.09 544.799L-1399.78 547.811C-1416.22 565.669 -1426.82 587.812 -1431.39 610.751C-1432.65 617.783 -1433.47 624.934 -1433.88 632.059V634.009L-1433.94 641.81C-1433.78 649.426 -1432.87 657.572 -1431.78 665.121C-1411.17 778.676 -1301.77 866.917 -1192 912.292C-1168.68 921.924 -1144.62 930.176 -1120.18 937.035C-1141.95 930.972 -1163.36 923.861 -1184.27 915.608C-1293.65 872.264 -1400.14 790.471 -1429.65 680.67C-1430.91 676.557 -1432.03 669.566 -1432.94 665.28C-1433.23 662.481 -1434.24 656.338 -1434.47 653.592C-1434.6 649.691 -1435.15 645.684 -1435.18 641.837L-1435.15 633.983C-1434.56 610.486 -1428.31 586.804 -1415.5 566.346C-1411.55 559.778 -1406.21 552.68 -1400.93 546.949C-1398.19 543.513 -1392.62 538.537 -1389.37 535.353C-1386.66 533.124 -1382.32 529.502 -1379.76 527.512L-1376.36 525.124C-1374.08 523.545 -1371.87 521.887 -1369.54 520.374L-1362.38 516.062C-1361.18 515.359 -1360.01 514.603 -1358.78 513.926C-1289.05 476.3 -1199.44 476.844 -1121.38 486.304C-1098.85 489.024 -1076.33 492.858 -1054.14 497.302C-1009.67 506.337 -965.878 518.053 -922.812 531.598C-631.805 625.797 -269.865 626.54 2.57312 483.849C142.733 407.522 230.21 280.806 91.3228 157.393C66.8107 135.714 39.1172 117.286 10.1365 100.954C-84.9038 47.1549 -200.667 6.78238 -312.541 35.6388C-378.644 52.1567 -436.171 88.2306 -489.317 126.825C-594.336 203.882 -698.429 297.695 -837.316 315.925C-882.421 322.333 -928.596 320.767 -973.427 313.271C-1046.04 301.755 -1118.53 278.206 -1174.95 233.508C-1222.87 196.174 -1255.39 143.834 -1269.68 87.8989C-1290.33 6.39763 -1280.88 -79.9993 -1253.7 -159.272L-1253.63 -159.258Z" fill="#FAECC8"/>
<path d="M-1253.63 -159.258C-1278.66 -69.4385 -1281.58 30.3717 -1244.94 117.83C-1224.38 166.375 -1189.23 209.786 -1143.52 240.805C-1088.8 278.524 -1022.25 298.889 -955.234 308.84C-865.574 323.659 -771.415 309.57 -691.589 269.25C-533.063 194.051 -418.326 26.8426 -227.305 20.262C-146.987 17.7943 -69.1555 44.8066 0.100098 80.1508C39.9268 100.423 78.394 123.588 111.279 152.71C135.791 174.614 157.296 199.995 170.079 229.382C187.852 268.52 185.22 313.908 165.162 351.879C115.56 444.896 -0.261475 501.349 -101.838 536.68C-345.86 617.12 -619.209 614.135 -865.429 542.889C-872.674 540.687 -882.537 537.781 -889.724 535.459C-948.669 516.567 -1008.81 500.075 -1070.3 489.833C-1160.33 475.345 -1272.16 469.162 -1350.91 518.504C-1353.21 520.003 -1355.42 521.635 -1357.68 523.2L-1361.05 525.562C-1362.16 526.371 -1363.18 527.273 -1364.25 528.122L-1370.58 533.31L-1376.45 538.935C-1377.42 539.891 -1378.45 540.779 -1379.34 541.775L-1382.03 544.786C-1402.08 566.664 -1413.57 594.778 -1415.64 623.209C-1417.02 638.639 -1415.64 654.573 -1412.5 669.778C-1392 762.662 -1313.27 836.522 -1227.14 883.939C-1188.16 905.193 -1145.73 921.831 -1102.41 933.957C-1124.17 927.894 -1145.59 920.783 -1166.49 912.53C-1274.27 869.584 -1376.29 791.983 -1409.84 685.261C-1420.21 649.797 -1420.95 611.68 -1405.35 577.397C-1403.02 572.74 -1400.67 567.725 -1397.74 563.321C-1396.23 561.092 -1394.95 558.611 -1393.36 556.568L-1388.5 550.093C-1386.24 547.214 -1382.93 543.672 -1380.49 540.872C-1378.98 539.36 -1373.39 533.973 -1371.64 532.315C-1368.86 530.046 -1364.64 526.504 -1362.03 524.474C-1358.65 522.086 -1355.21 519.618 -1351.81 517.336L-1344.65 513.024C-1283.39 477.985 -1207.79 474.828 -1137.65 479.71C-1105.07 482.324 -1072.63 487.153 -1040.63 493.335C-994.757 502.57 -949.565 514.497 -905.154 528.481C-648.797 611.322 -359.714 619.017 -102.793 534.305C-1.80884 499.133 113.203 443.026 162.574 350.778C182.285 313.377 184.989 268.865 167.476 230.337C141.373 172.001 85.1766 130.54 28.2277 98.0352C-66.7982 44.2626 -182.273 3.47882 -294.305 31.6188C-360.524 47.7386 -418.225 83.6003 -471.472 122.062C-560.178 186.21 -644.358 261.502 -753.18 296.13C-817.779 317.145 -888.162 321.072 -955.509 310.313C-1037.95 298.186 -1120.5 269.091 -1179.57 213.302C-1282.24 116.264 -1288.67 -34.6117 -1253.63 -159.258Z" fill="#FAECC8"/>
<path d="M-1253.63 -159.258C-1279.83 -40.4095 -1267.33 102.175 -1177.16 196.704C-1147.35 228.174 -1109.68 253.064 -1068.63 270.763C-965.849 313.271 -844.214 325.411 -736.882 290.226C-628.392 255.359 -544.444 180.385 -455.795 116.278C-402.274 77.6432 -344.168 41.7418 -277.559 25.6485C-164.803 -2.37207 -48.5769 38.6373 47.0563 92.6353C76.1959 109.047 104.092 127.568 128.749 149.38C268.489 273.562 182.516 402.162 39.5797 479.869C-222.548 618.579 -581.349 621.83 -863.766 534.942C-936.058 511.671 -1010.01 491.292 -1086.1 481.872C-1130.94 476.194 -1176.93 474.257 -1221.93 479.338C-1274.67 485.481 -1329.48 503.047 -1364.25 541.629C-1380.69 559.486 -1391.29 581.63 -1395.87 604.569C-1397.13 611.6 -1397.96 618.752 -1398.36 625.876V627.826L-1398.42 635.628C-1398.26 643.256 -1397.35 651.376 -1396.26 658.938C-1375.25 774.908 -1261.43 864.702 -1148.68 909.293C-1127.82 917.585 -1106.41 924.749 -1084.66 930.866C-1106.43 924.789 -1127.85 917.691 -1148.76 909.439C-1258.13 866.094 -1364.62 784.301 -1394.14 674.501C-1395.41 670.428 -1396.49 663.37 -1397.42 659.111C-1397.77 656.298 -1398.68 650.169 -1398.95 647.422C-1399.24 643.548 -1399.52 639.502 -1399.66 635.667L-1399.63 627.813C-1399.04 604.317 -1392.79 580.635 -1379.98 560.176C-1376.03 553.609 -1370.7 546.511 -1365.4 540.779C-1362.66 537.343 -1357.09 532.368 -1353.83 529.184C-1351.1 526.942 -1346.81 523.346 -1344.23 521.343L-1340.83 518.955C-1338.55 517.376 -1336.34 515.717 -1334.01 514.205L-1326.85 509.893C-1325.65 509.19 -1324.48 508.434 -1323.25 507.77C-1253.51 470.144 -1163.91 470.688 -1085.85 480.161C-1063.32 482.881 -1040.8 486.715 -1018.6 491.16C-974.135 500.195 -930.346 511.91 -887.28 525.456C-715.913 581.378 -531.11 601.849 -350.169 585.57C-204.167 571.573 -56.256 536.613 66.7383 460.804C194.418 380.895 252.697 262.537 126.84 151.237C102.328 129.558 74.634 111.143 45.6389 94.7979C-49.4303 41.0785 -164.803 0.148727 -276.922 27.9438C-343.199 43.9177 -400.987 79.6731 -454.306 118.069C-543.128 182.124 -627.496 257.177 -736.245 291.937C-844.098 327.096 -966.109 314.837 -1069.23 271.97C-1110.38 254.112 -1148.13 229.024 -1177.95 197.381C-1267.99 102.44 -1280.21 -40.2636 -1253.63 -159.258Z" fill="#FAECC8"/>
<path d="M-1253.63 -159.258C-1266.94 -76.9876 -1261.32 9.19705 -1230.67 87.7928C-1181.31 215.013 -1064.43 285.211 -922.06 302.631C-854.785 311.971 -784.749 307.38 -720.569 286.193C-589.708 244.294 -496.374 145.24 -383.908 75.5735C-367.349 65.3975 -350.155 55.9379 -332.411 47.606C-219.482 -6.71049 -106.582 8.08257 4.20728 58.8169C44.6268 77.5105 84.8149 98.9373 120.144 125.047C194.967 179.417 245.192 258.106 201.07 344.781C171.612 402.242 115.835 443.994 57.8879 476.459C-140.277 581.444 -379.989 605.073 -604.43 581.776C-677.922 573.603 -750.634 559.407 -821.307 539.161C-837.634 534.584 -853.773 529.356 -869.926 524.341C-923.665 507.386 -978.503 493.123 -1034.41 483.69C-1132.88 467.385 -1270.83 461.268 -1343.73 535.366L-1349.1 541.39C-1349.99 542.411 -1350.94 543.367 -1351.71 544.468L-1356.54 550.876C-1356.93 551.42 -1357.36 551.937 -1357.72 552.495L-1358.78 554.179L-1360.91 557.549C-1363.52 561.569 -1366.39 567.075 -1368.51 571.467C-1375.93 587.666 -1379.78 605.086 -1380.66 622.612C-1380.66 627.681 -1380.88 635.057 -1380.31 640.152C-1380.21 645.207 -1379.14 650.779 -1378.59 655.675C-1357.64 771.737 -1243.81 861.517 -1131.01 906.149C-1110.13 914.454 -1088.73 921.618 -1066.98 927.735C-1110.36 915.701 -1152.89 899.157 -1191.94 877.969C-1283.26 828.349 -1369.94 744.805 -1381.28 644.145C-1383.61 619.362 -1380.34 593.995 -1369.83 570.963C-1368.08 567.38 -1366.24 563.812 -1364.33 560.296C-1363.31 558.558 -1361.09 555.201 -1360.05 553.476L-1358.98 551.778C-1358.62 551.208 -1358.19 550.69 -1357.8 550.146C-1355.7 547.347 -1352.53 542.942 -1350.31 540.554L-1347.6 537.502C-1344.14 533.35 -1339.91 529.688 -1336.02 525.92C-1333.21 523.638 -1329.05 520.096 -1326.4 518.092C-1323.02 515.704 -1319.57 513.21 -1316.16 510.968C-1313.01 509.084 -1308.32 506.192 -1305.39 504.533C-1303.2 503.432 -1296.48 499.943 -1294.17 498.775C-1227.18 468.074 -1149.18 468.181 -1076.35 476.008C-1050.93 478.94 -1025.62 483.027 -1000.61 488.082C-956.131 497.13 -912.342 508.858 -869.261 522.417C-655.059 592.084 -419.526 607.196 -197.327 562.843C-55.3594 535.021 168.17 455.099 209.761 314.452C239.132 207.305 131.699 125.963 40.5775 79.3149C13.6215 65.3179 -14.9253 52.3424 -43.6746 41.9143C-145.121 5.2699 -242.085 4.76575 -338.89 53.2313C-414.176 90.6187 -476.735 144.988 -543.952 192.923C-615.001 244.546 -695.32 290.067 -786.137 303.599C-830.924 310.671 -877.446 310.233 -922.364 304.09C-1065.23 286.431 -1182.22 215.69 -1231.39 88.005C-1261.86 9.22356 -1267.22 -76.9478 -1253.7 -159.272L-1253.63 -159.258Z" fill="#FAECC8"/>
</svg>
