<svg width="1280" height="905" viewBox="0 0 1280 905" fill="none" xmlns="http://www.w3.org/2000/svg">
<g opacity="0.3">
<mask id="mask0_397_6618" style="mask-type:alpha" maskUnits="userSpaceOnUse" x="-189" y="0" width="1684" height="905">
<rect x="-65.832" y="0.634369" width="1596.32" height="579" transform="rotate(12.2296 -65.832 0.634369)" fill="#D9D9D9"/>
</mask>
<g mask="url(#mask0_397_6618)">
<path d="M341.119 -401.949C223.495 -304.677 114.416 -140.873 248.859 -9.1585C276.294 17.9905 308.718 39.6183 342.539 58.0236C392.875 86.1624 449.55 105.198 507.764 103.092C666.661 98.7898 784.643 -33.5725 938.34 -57.563C1058.86 -76.5735 1164.35 -2.099 1241.31 83.2727C1313.16 164.597 1334.21 261.892 1242.72 338.406C1140.65 420.477 982.704 436.57 855.596 431.182C681.871 422.453 510.35 369.543 362.167 278.426C329.261 258.276 295.442 239.572 260.491 223.214C-149.75 30.1388 -198.112 425.58 116.253 601.948C16.5467 546.801 -72.9634 452.669 -87.7555 335.938C-94.8974 277.149 -73.407 215.87 -18.0244 188.322C34.7318 161.898 96.9468 167.921 152.46 181.785C227.477 201.259 297.195 236.837 363.161 276.835C511.22 367.489 682.301 420.354 855.708 428.939C988.302 435.778 1199.49 412.625 1279.46 293.95C1326.01 221.908 1291.16 143.211 1239.58 84.7801C1163.1 -0.0894762 1058.44 -74.2855 938.659 -55.4635C785.058 -31.3401 666.829 100.72 507.818 104.685C449.332 106.721 392.425 87.5473 341.908 59.2074C308.025 40.6889 275.506 18.9782 248.057 -8.33573C113.604 -140.812 222.751 -304.526 341.119 -401.949Z" fill="#73206F"/>
<path d="M341.119 -401.949C267.938 -336.489 189.879 -232.634 200.494 -129.441C205.742 -80.33 231.318 -38.3861 266.756 -4.88081C294.723 21.5986 327.335 42.8188 361.434 60.5743C395.417 78.5786 431.633 92.956 469.791 98.8348C630.277 125.647 757.155 0.644526 900.884 -45.6128C1013.06 -82.3024 1108.84 -48.2376 1196.42 25.5077C1233.15 56.6269 1268.04 91.3221 1292.46 133.128C1366.65 261.148 1273.58 353.504 1154.26 395.56C938.699 468.715 681.181 427.71 478.02 333.21C407.624 301.334 345.019 255.039 274.636 223.165C239.981 206.996 203.424 192.869 166.316 183.468C109.166 169.212 43.8086 163.243 -9.13138 193.737C-10.162 194.348 -11.2487 194.873 -12.2327 195.556L-18.1926 199.571C-19.1859 200.241 -20.2004 200.893 -21.1046 201.668L-26.7274 206.143C-27.6927 206.855 -28.5475 207.692 -29.4237 208.511L-34.6804 213.426C-37.1227 216.06 -39.5769 218.693 -41.9129 221.413L-46.3138 227.099L-47.4075 228.518L-48.3948 230.024L-52.3392 236.02C-54.1456 239.117 -55.8669 242.282 -57.5406 245.457L-60.5299 251.997L-61.2826 253.627C-62.5709 257.384 -64.4954 261.601 -65.5226 265.477L-67.5539 272.374C-68.1768 275.478 -70.1158 283.043 -70.4473 286.472C-76.2974 322.152 -70.3086 358.867 -58.4868 392.784C-25.6143 483.997 47.901 555.753 131.503 602.326C47.6878 555.931 -26.0492 484.276 -59.1889 393.031C-70.4038 361.263 -76.3136 327.119 -72.5019 293.476C-71.9653 290.079 -71.5016 286.156 -70.9096 282.734C-70.7138 281.543 -70.399 280.378 -70.1556 279.198L-68.5853 272.126C-67.2276 267.761 -65.9215 262.426 -64.2067 258.313C-63.3841 256.187 -62.5391 253.554 -61.5584 251.562C-59.2363 246.086 -56.271 240.462 -53.3197 235.422C-52.3722 233.87 -50.3166 230.89 -49.3573 229.342C-48.7435 228.179 -43.8588 221.988 -42.8283 220.629C-39.6783 217.089 -36.4493 213.241 -32.8914 210.064L-30.2459 207.585C-29.3672 206.754 -28.4979 205.908 -27.53 205.184L-21.8586 200.658C-19.3375 198.638 -15.5763 196.364 -12.8946 194.466C38.5312 162.958 103.057 167.066 159.679 180.248C189.992 187.329 220.191 197.923 248.914 209.867C293.331 228.65 336.087 251.471 377.237 276.523C573.883 396.306 812.577 453.947 1041.62 421.099C1098.52 412.155 1155.07 397.044 1206.22 370.16C1302.35 319.864 1349.62 235.533 1290.48 134.28C1266.21 92.706 1231.53 58.1814 1195 27.2302C1108.02 -46.0611 1013.04 -80.0269 901.548 -43.6127C757.767 2.77037 630.248 127.509 469.578 100.333C431.273 94.3854 394.897 79.886 360.836 61.7777C326.672 43.9209 293.971 22.5941 265.973 -4.02907C230.452 -37.7889 204.871 -79.9955 199.716 -129.36C189.32 -232.818 267.587 -336.478 341.119 -401.949Z" fill="#73206F"/>
<path d="M341.119 -401.949C287.156 -349.353 239.026 -282.637 219.452 -209.133C183.127 -70.0338 283.226 19.331 399.378 72.2742C465.346 102.418 532.595 109.794 603.146 92.2608C718.62 64.1337 812.573 -16.4193 926.392 -49.1155C937.662 -52.3036 950.135 -55.1186 961.714 -57.0312C1052.77 -72.4866 1132.83 -37.9546 1202.71 18.6108C1236.25 45.826 1268.25 76.2566 1293.45 111.479C1389.16 246.06 1303.23 349.242 1167.3 396.704C985.648 457.863 778.432 436.63 599.098 376.433C526.139 351.488 455.985 318.381 390.391 277.879C355.516 256.567 319.481 237.096 282.342 220.015C277.672 218.018 267.189 213.379 262.51 211.368C258.831 209.811 246.183 204.852 242.428 203.303C227.104 197.628 210.329 191.687 194.551 187.358C130.114 169.255 52.5223 160.335 -5.02614 201.329L-12.051 206.919C-14.7473 209.287 -17.3332 211.779 -19.9377 214.242L-24.7798 219.545C-25.5828 220.43 -26.4071 221.298 -27.1158 222.266L-31.5141 227.939C-32.2866 228.856 -32.8865 229.897 -33.5501 230.887L-37.4944 236.883L-39.2225 240.022C-42.0817 244.983 -44.9131 250.909 -46.9573 256.197L-49.4642 262.928C-50.5442 266.357 -51.5288 269.806 -52.5279 273.264C-53.1981 276.644 -55.017 283.712 -55.3685 287.348L-55.9267 290.902C-56.6536 295.292 -56.7572 299.28 -57.2289 303.414C-57.3192 306.708 -57.505 310.903 -57.5952 314.197C-57.5971 316.738 -57.3697 322.48 -57.3519 324.988L-57.2177 326.786L-56.9348 330.373C-45.6241 449.525 45.882 546.42 146.68 602.688C45.5895 546.619 -46.2299 449.73 -57.8349 330.439L-58.1272 326.838L-58.2614 325.04C-58.2666 322.647 -58.5155 316.601 -58.5327 314.206C-58.4134 310.893 -58.311 306.68 -58.1918 303.367C-57.8815 299.921 -57.4413 294.149 -56.9099 290.776C-56.2299 287.236 -55.9898 283.539 -55.0912 280.083L-53.5354 273.021C-52.34 268.484 -50.8766 263.631 -49.219 259.207C-48.3197 257.072 -47.6187 254.471 -46.609 252.46L-43.6094 245.873C-42.1789 242.956 -40.0416 239.196 -38.4656 236.299C-36.4928 233.413 -34.5189 230.004 -32.4502 227.251C-30.5557 224.784 -27.6485 220.867 -25.6687 218.755L-20.7874 213.385C-18.1632 210.889 -15.5458 208.367 -12.8298 205.966L-7.15837 201.44C48.6847 160.027 124.361 167.311 188.059 183.87C193.277 185.35 200.304 187.347 205.446 188.835C207.181 189.348 220.496 193.754 222.638 194.405C229.081 196.736 236.545 199.363 243.047 201.768C246.974 203.392 259.025 208.109 263.182 209.82C307.55 228.543 350.289 251.273 391.402 276.266C587.68 396.132 825.897 453.957 1054.72 421.783C1111.59 413.044 1168.09 398.109 1219.34 371.621C1346.25 305.511 1367.21 199.595 1273.94 90.0714C1250.05 61.8102 1221.91 36.4647 1192.88 13.5787C1122.57 -40.6272 1044.36 -71.1575 955.002 -53.6899C944.617 -51.8176 933.631 -49.0165 923.522 -46.1748C811.376 -12.6799 717.959 66.1457 603.582 93.8751C530.305 112.013 460.004 103.241 392.301 70.3915C278.093 16.8854 182.886 -73.0634 218.907 -209.326C238.724 -282.914 286.987 -349.439 341.153 -401.992L341.119 -401.949Z" fill="#73206F"/>
<path d="M341.119 -401.949C281.684 -339.128 226.157 -249.449 224.105 -160.961C223.843 -144.212 225.422 -127.327 229.287 -111.029C233.685 -92.4736 240.933 -74.2846 250.603 -57.8376C291.432 12.3771 375.779 60.6938 450.993 86.5137C640.568 147.461 770.901 3.23783 937.341 -48.175C1049.66 -82.1065 1144.97 -44.2188 1230.88 29.7381C1281.2 73.2703 1330.94 125.385 1346.07 192.172C1354.72 230.198 1345.9 271.127 1322.98 302.586C1266.48 379.408 1159 410.663 1068.55 424.77C877.624 451.565 680.058 414.299 506.182 332.949C480.084 320.578 454.497 307.121 429.54 292.593C388.386 267.79 347.053 243.122 303.296 223.136C291.274 217.479 275.992 210.977 263.576 206.106C199.385 181.056 120.842 160.581 53.0053 180.783C7.15709 194.328 -25.7007 227.593 -37.3962 274.127C-47.2633 313.895 -41.3784 355.981 -27.8891 394.234C5.17469 485.139 78.4521 556.669 161.893 603.12C78.2533 556.838 4.74246 485.407 -28.5912 394.481C-42.2319 356.12 -48.2474 313.832 -38.425 273.867C-26.7294 226.871 6.32484 193.275 52.6188 179.516C120.751 159.104 199.649 179.493 264.181 204.58C276.669 209.467 291.947 215.93 304.016 221.598C347.867 241.555 389.285 266.178 430.508 290.947C455.442 305.407 480.992 318.806 507.055 331.107C680.582 412.17 877.714 449.305 1068.2 422.476C1158.1 408.413 1264.84 377.335 1321.01 301.212C1343.53 270.228 1352.28 230.093 1343.75 192.666C1331.2 136.067 1292.24 89.5415 1250.86 50.6496C1240.53 40.986 1229.27 31.0086 1218.35 22.238C1086.74 -84.4697 976.275 -77.7061 831.818 -1.78379C710.304 61.5216 592.389 134.813 450.543 87.8985C375.029 61.8517 290.587 13.34 249.735 -57.3407C240.073 -73.8855 232.825 -92.1868 228.459 -110.835C224.621 -127.201 223.06 -144.17 223.383 -160.968C225.676 -249.591 281.404 -339.164 341.104 -401.94L341.119 -401.949Z" fill="#73206F"/>
<path d="M341.119 -401.949C276.107 -326.696 217.542 -214.766 241.587 -113.159C252.427 -65.9632 281.352 -25.3737 317.865 5.76109C347.025 30.7674 380.533 50.2136 415.241 66.4816C449.875 82.9204 486.897 94.7318 525.101 98.7272C685.989 116.782 809.264 -6.73455 955.031 -49.2738C1034.26 -71.9026 1106.79 -60.9663 1177.66 -19.3078C1219.04 5.23413 1256.32 36.5844 1289.69 71.1234C1397.68 183.301 1392.65 302.139 1247.64 376.224C1065.39 464.633 814.424 441.106 627.322 376.459C563.67 354.503 502.126 326.451 443.979 292.509C394.762 262.607 344.778 233.647 291.485 211.557C229.017 185.983 156.414 164.691 88.6465 176.288L85.1007 176.877L81.6064 177.689L74.6085 179.299C72.2897 179.868 70.0224 180.66 67.7213 181.319C62.5246 182.734 57.5725 184.863 52.5357 186.748L50.9122 187.505L44.4128 190.556C13.6825 205.833 -8.53968 231.985 -19.3046 264.557C-26.2622 286.183 -28.4038 309.3 -26.465 331.895C-17.2038 430.92 49.855 515.889 128.442 572.649C144.054 583.844 160.328 594.111 177.092 603.5C93.5162 557.268 20.0996 485.92 -13.2982 395.117C-26.1423 359.01 -32.3085 319.603 -24.8616 281.678C-16.8549 241.457 5.73131 209.366 42.1998 190.176C44.513 189.058 48.0251 187.415 50.374 186.304L52.012 185.538L53.7009 184.883C60.4125 182.177 67.273 179.877 74.2562 177.989C77.2104 177.309 82.1256 176.157 84.8183 175.533C148.098 163.81 212.69 180.103 271.98 202.035C287.346 207.919 303.634 214.726 318.518 221.627C353.455 237.758 387.286 256.178 420.179 276.101C550.872 356.861 699.63 407.915 852.222 425.28C966.221 437.682 1084.38 433.482 1193.63 396.408C1247.2 377.434 1300.78 349.558 1335.16 303.045C1396.45 218.551 1342.94 125.992 1277.98 62.3949C1187.39 -26.0791 1084.63 -84.6284 955.58 -47.2613C809.596 -4.58224 686.344 118.541 524.91 100.243C486.558 96.1783 449.35 84.2516 414.627 67.7063C362.657 43.2496 312.393 11.1525 277.528 -35.2965C265.995 -50.5774 256.238 -67.6037 249.318 -85.4602C242.248 -103.262 237.888 -122.395 236.189 -141.436C227.947 -234.86 281.38 -333.239 341.083 -401.957L341.119 -401.949Z" fill="#73206F"/>
<path d="M341.119 -401.949C289.613 -336.288 247.559 -250.354 247.653 -165.548C247.886 -119.43 262.311 -75.3066 289.744 -38.1921C325.645 10.2129 377.966 43.466 432.328 67.8805C501.781 100.998 582.257 108.985 656.382 87.8542C794.035 52.0149 911.656 -64.6922 1058.04 -60.8804C1136.06 -58.4086 1206.82 -17.2105 1264.26 33.0363C1289.62 54.9763 1313.89 78.9476 1334.07 105.771C1437.95 243.828 1351.26 351.132 1208.37 399.502C994.208 469.535 735.748 427.865 534.988 332.939C500.244 316.489 466.58 297.818 433.821 277.737C380.527 245.519 324.823 216.653 265.772 196.491C207.945 177.305 142.212 163.743 82.5404 181.841C33.9275 196.63 1.25557 232.663 -8.66918 282.596C-12.3436 301.333 -12.7363 320.756 -10.532 339.708C1.71449 435.781 66.9525 517.639 143.719 573.07C159.322 584.251 175.572 594.512 192.324 603.899C108.856 557.691 35.4356 486.416 2.01197 395.732C-10.8714 359.691 -17.0377 320.285 -9.69643 282.386C-1.58015 240.681 23.1805 206.558 61.9636 188.43C74.8903 182.201 89.0602 177.947 103.181 175.414C148.38 167.285 194.884 174.425 238.721 186.505C271.07 195.472 302.704 207.797 333.183 221.766C368.102 237.868 401.916 256.247 434.79 276.141C581.649 366.921 751.329 420.554 923.701 430.459C1037.76 436.045 1156.7 425.663 1260.51 375.113C1378.37 316.185 1415.61 217.185 1332.22 107.164C1312.15 80.4643 1288.01 56.5836 1262.78 34.7459C1205.72 -15.2056 1135.48 -56.2425 1057.96 -58.73C1009.93 -60.4451 962.633 -47.8005 918.634 -29.3205C830.199 7.64427 750.185 64.3981 656.811 89.5042C582.362 110.628 501.384 102.481 431.755 69.1392C377.241 44.5669 324.804 11.1019 288.912 -37.5753C261.482 -74.8759 247.078 -119.269 246.976 -165.533C247.075 -250.421 289.375 -336.34 341.104 -401.94L341.119 -401.949Z" fill="#73206F"/>
<path d="M341.119 -401.949C297.689 -340.916 264.31 -265.421 259.458 -190.084C256.13 -136.803 269.385 -84.4617 300.895 -41.0072C337.354 9.94784 392.178 44.4286 448.945 69.0281C501.33 92.6032 559.625 103.644 616.883 97.2564C713.416 87.0487 797.143 33.8778 882.249 -8.44286C933.65 -34.026 988.108 -56.7294 1046.06 -60.6126C1137.71 -67.4921 1219.79 -20.2418 1285.97 39.0121C1352.94 97.7893 1426.19 190.578 1381.16 282.756C1350.03 343.976 1285.09 378.384 1222.59 400.243C1038.91 459.217 836.716 437.653 656.24 376.735C597.249 356.3 540.075 330.591 485.756 299.82C473.194 292.799 460.899 285.238 448.556 277.842C399.356 248.143 348.173 221.266 294.118 201.539C224.314 176.082 132.264 156.517 64.8359 196.876C38.0745 213.237 18.6402 239.247 9.9733 269.334L8.44537 274.484L6.49027 283.216C6.20179 284.374 6.04438 285.561 5.86313 286.743L5.30746 290.285C4.40472 294.91 4.20521 299.974 3.70537 304.525C-1.68195 412.372 74.7036 513.302 158.973 573.486C174.563 584.664 190.816 594.914 207.557 604.298C186.618 592.646 166.385 579.578 147.296 565.088C67.9508 504.688 -2.19238 408.051 2.71864 304.473C2.93311 301.642 3.44889 296.385 3.75413 293.71C4.06015 291.895 4.55785 288.391 4.84938 286.585C5.25778 283.435 6.7611 277.42 7.42585 274.238C14.4617 246.899 29.7732 221.379 52.3525 204.111L55.1737 201.858L58.1588 199.826C60.1693 198.493 62.1304 197.099 64.1689 195.81L70.4565 192.239C73.3942 190.484 77.0603 188.937 80.1686 187.431C83.8889 185.633 89.7179 183.546 93.5949 182.119C95.5894 181.492 101.833 179.619 103.957 178.971C163.972 163.663 226.954 177.14 284.513 196.355C306.026 203.921 327.261 212.423 347.959 221.966C382.859 238.039 416.664 256.404 449.535 276.26C612.551 376.982 803.769 432.542 995.52 432.347C1118.6 432.452 1317.08 401.178 1379 281.716C1423.48 190.739 1350.54 98.6886 1284.45 40.7139C1218.75 -18.1356 1137.22 -65.2816 1046.18 -58.4685C988.515 -54.6356 934.336 -32.0088 883.136 -6.60624C797.88 35.6571 713.78 88.8218 617.03 98.8827C559.534 105.219 500.896 94.0289 448.382 70.3012C391.462 45.5441 336.501 10.8342 300.066 -40.4023C268.568 -84.0906 255.369 -136.632 258.848 -190.092C263.903 -265.497 297.481 -340.936 341.102 -401.928L341.119 -401.949Z" fill="#73206F"/>
<path d="M341.119 -401.949C286.803 -317.053 249.078 -200.668 282.654 -101.654C313.741 -8.1882 402.934 48.9027 491.869 80.2504C646.489 133.957 765.449 58.0894 898.52 -9.67471C932.943 -26.6178 968.298 -42.2251 1005.6 -51.7538C1127.71 -85.0574 1231.28 -28.0784 1317.77 54.7001C1453.48 182.428 1442.69 316.262 1264.11 390.768C1023.8 484.045 705.485 421.305 488.145 292.826C430.91 257.959 372.285 224.611 309.048 201.835C273.195 188.72 235.687 178.746 197.611 175.252C152.955 171.328 104.379 177.256 68.1938 205.614C47.3966 221.623 32.4238 244.775 25.155 269.908L24.1372 273.338L23.6389 275.061L23.2598 276.81L21.6958 283.796C20.3294 290.675 19.5043 298.108 18.9279 305.084C13.6582 412.906 89.969 513.721 174.229 573.891C189.819 585.068 206.063 595.303 222.792 604.685C206.029 595.346 189.765 585.144 174.141 574.008C92.4454 515.59 20.5761 423.176 17.6449 319.406C17.4532 311.254 18.0336 302.361 18.9555 294.252C19.4702 290.726 20.0304 287.048 20.6685 283.586C20.9613 282.005 22.3322 276.198 22.6127 274.789C28.2077 253.292 38.6018 232.847 54.0564 216.739C55.1849 215.389 60.3443 210.577 61.8389 209.207C63.2729 207.886 65.8509 205.891 67.4227 204.625C71.0776 201.518 75.2804 198.99 79.2179 196.306L85.5055 192.736C86.5642 192.168 87.5813 191.504 88.6773 190.994L91.9415 189.459C94.131 188.451 96.2763 187.359 98.4979 186.433C102.734 184.847 107.844 182.678 112.073 181.527C175.56 161.827 248.61 178.346 309.627 200.316C363.801 219.956 415.13 246.791 464.452 276.441C659.678 396.502 896.486 454.956 1124.69 424.692C1181.42 416.445 1237.8 402.182 1289.34 376.715C1448.63 296.297 1436.66 169.776 1316.23 56.3347C1207.3 -46.9773 1096.56 -92.5437 951.765 -31.5573C795.983 34.5108 672.274 143.744 491.444 81.5784C402.11 49.9447 312.937 -7.41564 281.914 -101.404C248.552 -200.658 286.526 -317.038 341.157 -401.953L341.119 -401.949Z" fill="#73206F"/>
<path d="M341.119 -401.949C280.117 -295.007 249.077 -148.808 326.199 -42.0129C363.944 10.9524 421.095 46.6103 480.683 70.6253C551.315 100.834 631.686 105.909 705.377 84.0231C850.745 45.0475 977.315 -84.8057 1136.07 -57.6467C1212.59 -44.1257 1278.06 3.10215 1333.37 55.4777C1387.12 106.791 1440.83 179.463 1421.17 257.644C1390.2 368.517 1241.62 412.938 1139.79 427.441C915.965 456.886 683.56 401.367 490.768 285.733C398.349 229.076 266.325 161.481 155.416 176.895C148.366 177.883 141.263 179.458 134.362 181.139L124.081 184.254C122.952 184.632 121.854 185.092 120.728 185.508L114.048 188.072C110.37 189.616 107.835 191.01 104.312 192.589C103.239 193.104 102.227 193.744 101.181 194.314L94.9536 197.836L89.0133 201.818C88.0294 202.501 87.0106 203.115 86.0666 203.845L83.265 206.065C66.2466 219.144 53.2088 237.11 44.9847 256.866C42.5813 262.947 40.5121 269.213 38.7936 275.531L38.4145 277.28L36.8504 284.265C35.5011 291.124 34.6683 298.592 34.0945 305.556C28.9998 411.074 101.983 509.747 183.608 570.043C200.942 582.845 219.164 594.543 237.967 605.059C221.214 595.735 204.95 585.532 189.325 574.397C107.639 515.994 35.7981 423.622 32.8234 319.88C32.5863 315.967 33.028 309.498 33.1104 305.492C33.4162 302.93 33.7762 297.24 34.1194 294.736C34.7704 291.214 35.0965 287.523 35.8206 284.067L37.3711 277.029C42.427 256.062 52.1776 235.939 66.7108 219.88C71.2402 214.695 77.0165 209.283 82.4795 205.085C85.4112 202.494 90.9655 199.027 94.2653 196.752C96.9266 195.236 101.205 192.763 103.701 191.435L106.965 189.9C109.155 188.892 111.3 187.8 113.512 186.859L120.248 184.271C121.374 183.854 122.486 183.385 123.63 182.998C188.397 161.707 262.115 178.196 324.593 200.62C342.627 207.083 360.433 214.542 377.858 222.493C412.74 238.537 446.541 256.863 479.39 276.702C700.841 413.148 998.9 478.449 1251.1 399.134C1381.41 355.712 1478.12 257.692 1387.68 122.211C1371.7 98.3914 1352.46 76.919 1331.76 57.0968C1263.91 -8.12349 1176.38 -65.0033 1078.6 -59.1026C1020.93 -56.0937 966.518 -34.0151 915.229 -8.89342C813.725 41.4583 709.727 107.003 591.754 98.5491C553.346 96.2411 515.606 86.5911 480.128 71.8628C422.542 48.5682 367.391 14.5025 329.6 -35.6576C297.371 -77.6981 280.749 -130.445 279.85 -183.161C278.678 -259.94 303.265 -335.734 341.062 -401.974L341.119 -401.949Z" fill="#73206F"/>
<path d="M341.119 -401.949C303.035 -325.867 281.226 -236.877 294.418 -151.899C301.924 -104.691 322.439 -59.4835 354.072 -23.5017C391.826 20.0976 442.699 50.2464 495.978 71.1375C566.969 100.44 647.285 104.618 720.892 82.7144C866.119 43.5837 993.154 -85.8822 1151.82 -57.6715C1218.47 -45.5413 1277.34 -7.41715 1327.53 36.6478C1356.41 61.9408 1383.6 89.5849 1405.03 121.574C1420.97 145.596 1433.75 172.198 1438.57 200.836C1445.61 239.11 1434.62 279.344 1410.71 309.816C1351.76 384.377 1245.36 414.322 1154.81 427.868C938.119 456.43 713.486 404.939 524.473 297.075C518.932 293.806 511.371 289.439 505.901 286.073C461.008 258.603 414.66 233.073 365.99 212.906C294.636 183.837 203.701 158.322 129.222 188.508C127.036 189.442 124.896 190.51 122.733 191.511L119.498 193.028C118.423 193.554 117.414 194.183 116.367 194.753L110.14 198.274L104.209 202.271C103.225 202.954 102.206 203.568 101.274 204.301L98.4725 206.521C77.7059 222.562 62.7688 245.722 55.5383 270.851C51.4071 284.443 49.4417 298.979 49.0717 313.175C47.9116 400.137 98.4187 480.435 160.166 538.341C188.145 564.362 219.869 586.86 253.208 605.472C236.455 596.148 220.192 585.946 204.579 574.813C124.126 517.051 55.1516 429.237 48.2544 327.535C46.605 293.879 53.4067 259.563 72.9268 231.604C75.7503 227.844 78.6553 223.765 81.9302 220.339C83.6026 218.608 85.1453 216.613 86.8531 215.065L92.115 210.126C94.5333 207.947 97.9504 205.362 100.508 203.287C102.041 202.2 107.699 198.368 109.463 197.194C112.192 195.655 116.36 193.232 118.899 191.876C122.151 190.339 125.467 188.74 128.71 187.301L135.446 184.712C192.728 164.228 255.633 174.897 312.47 191.801C338.806 199.964 364.592 210.087 389.758 221.347C425.757 237.82 460.672 256.587 494.544 277.059C689.655 397.132 926.335 455.658 1154.48 425.567C1244.52 412.058 1350.18 382.279 1408.79 308.366C1432.3 278.344 1443.18 238.908 1436.24 201.228C1426.08 144.249 1387.83 97.0308 1347.23 57.7098C1279.39 -7.48402 1192.18 -64.681 1094.41 -59.4512C1036.72 -56.8199 982.205 -34.9628 930.858 -9.97811C845.303 31.7095 761.312 84.2002 664.922 95.8216C607.613 103.133 548.861 94.0855 495.465 72.4092C429.896 46.8112 367.542 5.97704 329.715 -54.6053C263.994 -159.963 288.02 -296.421 341.119 -401.949Z" fill="#73206F"/>
<path d="M341.119 -401.949C296.427 -300.043 279.017 -169.937 334.931 -69.0589C353.37 -35.5134 379.57 -6.46453 409.956 16.7397C486.371 73.216 584.227 105.825 679.498 93.4373C775.66 81.5423 859.399 29.296 944.898 -12.3663C996.505 -37.4566 1051.36 -59.2772 1109.36 -61.8149C1207.71 -66.8085 1295.5 -9.27499 1363.79 56.2296C1384.61 76.1517 1404 97.7435 1420.07 121.708C1511.06 258.031 1415.23 358.01 1282.36 402.173C1039.43 479.76 743.183 418.601 527.388 290.244C472.35 256.465 415.379 224.982 354.526 202.947C318.682 189.846 281.17 179.897 243.103 176.417C198.456 172.508 149.884 178.474 113.741 206.866C96.7231 219.945 83.6853 237.91 75.4493 257.664C73.0458 263.745 70.9766 270.011 69.2581 276.329L68.879 278.078L67.3149 285.063C65.9631 291.933 65.1354 299.378 64.559 306.354C59.3285 414.11 135.655 514.965 219.875 575.089C235.457 586.252 251.698 596.499 268.429 605.869C251.678 596.533 235.412 586.342 219.787 575.207C138.101 516.804 66.26 424.432 63.2854 320.69C63.0286 316.81 63.507 310.287 63.5723 306.302C63.8331 303.717 64.2739 298.058 64.5814 295.546C65.0961 292.02 65.6564 288.342 66.2825 284.877L67.8331 277.838C72.8889 256.872 82.6396 236.749 97.1728 220.69C101.702 215.505 107.478 210.093 112.953 205.898C115.885 203.307 121.439 199.839 124.739 197.565C127.427 196.042 131.665 193.584 134.175 192.247L137.439 190.713C139.628 189.705 141.774 188.612 143.986 187.672L150.722 185.083C151.848 184.667 152.96 184.198 154.101 183.823C218.868 162.532 292.587 179.021 355.061 201.456C373.096 207.919 390.902 215.379 408.327 223.329C443.209 239.373 477.01 257.699 509.859 277.538C640.179 358.292 788.459 409.653 940.701 427.366C1063.71 440.887 1192.37 435.948 1308.44 389.925C1429.17 341.062 1500.2 245.324 1418.14 123.033C1402.16 99.2132 1382.92 77.7527 1362.21 57.916C1294.32 -7.23805 1207.22 -64.5478 1109.44 -59.6429C1051.73 -57.1528 997.17 -35.4064 945.777 -10.4941C860.145 31.0896 776.045 83.3325 679.689 95.0859C583.994 107.356 485.852 74.5736 409.22 17.714C378.794 -5.64849 352.561 -34.8913 334.144 -68.5941C278.417 -169.818 296.089 -299.979 341.119 -401.949Z" fill="#73206F"/>
<path d="M341.119 -401.949C314.165 -330.543 302.035 -252.249 312.017 -176.288C327.952 -53.3803 410.602 30.446 524.517 71.4934C578.129 91.8837 636.725 100.274 693.721 92.7333C809.683 78.5273 905.835 6.3613 1012.04 -36.033C1027.66 -42.2021 1043.66 -47.6151 1059.9 -51.9185C1163.5 -80.4638 1253.65 -47.0354 1335.07 18.2486C1364.73 42.2316 1393.68 68.6243 1417.71 98.3494C1468.79 160.471 1494.87 240.009 1441.67 309.862C1406.23 356.134 1352.16 383.617 1298.11 402.385C1114.43 461.149 912.342 439.532 731.953 378.558C672.99 358.104 615.842 332.388 561.55 301.61C548.988 294.59 536.707 287.02 524.373 279.637C483.394 254.835 440.985 232.251 396.756 213.807C318.798 181.6 206.332 151.48 131.866 204.914L126.263 209.355C125.337 210.114 124.365 210.8 123.52 211.651L118.295 216.535C117.867 216.954 117.409 217.34 117.003 217.775L115.806 219.098L113.399 221.74C110.461 224.878 107.032 229.305 104.427 232.863C95.1653 246.067 88.6099 261.002 84.4762 276.562C83.4911 281.108 81.8785 287.684 81.3528 292.354C80.4536 296.905 80.2522 302.094 79.7533 306.583C74.4571 414.412 150.787 515.255 235.046 575.425C250.637 586.603 266.878 596.85 283.609 606.219C250.204 587.68 218.378 565.247 190.327 539.273C124.731 478.464 69.5529 388.06 79.7783 295.763C82.6775 273.121 90.3012 250.954 103.44 232.176C105.578 229.276 107.785 226.404 110.041 223.591C111.225 222.216 113.701 219.601 114.894 218.24L116.106 216.908C116.514 216.461 116.972 216.074 117.4 215.656C119.672 213.52 123.137 210.136 125.436 208.392L128.257 206.138C131.912 203.031 136.115 200.504 140.053 197.819C142.808 196.274 146.928 193.841 149.498 192.516C152.75 190.979 156.07 189.357 159.318 187.955C162.282 186.829 166.704 185.072 169.445 184.109C171.459 183.511 177.677 181.583 179.811 180.949C240.968 165.378 305.215 179.403 363.697 199.429C384.073 206.599 404.129 214.783 423.748 223.781C458.639 239.84 492.437 258.178 525.295 278.031C688.235 378.762 879.354 434.375 1071.05 434.279C1193.42 434.681 1393.12 402.922 1454.73 284.215C1499.76 193.368 1427.05 101.234 1361.05 43.1267C1341.56 25.7601 1320.56 9.02555 1298.9 -5.46063C1222.44 -56.4403 1142.65 -74.2081 1053.47 -48.0306C984.176 -27.9454 922.065 9.64235 857.367 40.6278C788.795 74.2366 713.772 100.717 636.316 96.6349C598.041 94.9787 559.797 86.2781 523.983 72.7479C409.71 31.3986 327.07 -52.9362 311.38 -176.227C301.589 -252.321 313.919 -330.559 341.062 -401.974L341.119 -401.949Z" fill="#73206F"/>
</g>
</g>
</svg>
