<svg width="180" height="177" viewBox="0 0 180 177" fill="none" xmlns="http://www.w3.org/2000/svg">
<path d="M90.0487 170.731C16.6666 170.23 -19.3171 82.36 31.5593 30.5166C63.0383 -1.91121 117.068 -1.91121 148.547 30.5166C199.424 82.369 163.431 170.23 90.0577 170.731H90.0487ZM90.0487 168.525C147.538 168.775 187.675 110.474 165.143 57.6663C136.871 -7.46618 43.2175 -7.45725 14.9548 57.6663C-7.57782 110.474 32.5683 168.775 90.0487 168.525Z" fill="#FAECC8"/>
<path d="M90.0488 156.843C29.1268 156.406 -0.640455 83.4139 41.4878 40.3584C67.5972 13.3695 112.5 13.3605 138.619 40.3584C180.738 83.4139 150.971 156.406 90.0578 156.843H90.0488ZM90.0488 154.718C137.655 154.941 171.008 106.723 152.295 62.9445C128.834 9.08266 51.263 9.08266 27.8024 62.9445C9.08976 106.723 42.4428 154.941 90.0488 154.718Z" fill="#FAECC8"/>
<path d="M90.0488 142.956C41.587 142.572 18.0362 84.4588 51.4163 50.2001C72.1651 28.6411 107.942 28.6411 128.69 50.2001C162.07 84.4677 138.511 142.581 90.0488 142.956ZM90.0488 140.911C127.78 141.107 154.34 102.963 139.439 68.2136C120.789 25.6136 59.2996 25.6225 40.659 68.2136C25.7573 102.955 52.3172 141.107 90.0488 140.911Z" fill="#FAECC8"/>
<path d="M90.0495 129.068C54.0567 128.791 36.7406 85.4858 61.3364 60.0419C76.8146 43.9039 103.275 43.895 118.763 60.0419C143.359 85.4948 126.042 128.791 90.0495 129.068ZM90.0495 127.112C117.898 127.22 137.701 99.2214 126.583 73.5007C112.78 42.1892 67.3187 42.1981 53.5162 73.5007C42.3985 99.2304 62.2013 127.228 90.0495 127.112Z" fill="#FAECC8"/>
<path d="M90.0501 115.172C66.5535 115.011 55.3907 86.4771 71.2654 69.8837C81.2749 59.1935 98.8254 59.1935 108.835 69.8837C124.71 86.4861 113.538 115.011 90.0501 115.172ZM90.0501 113.323C107.997 113.439 121.043 95.4258 113.727 78.7788C104.781 58.7469 75.3197 58.7469 66.3733 78.7788C59.0576 95.4258 72.1033 113.439 90.0501 113.323Z" fill="#FAECC8"/>
</svg>
