<svg width="191" height="140" viewBox="0 0 191 140" fill="none" xmlns="http://www.w3.org/2000/svg">
<g clip-path="url(#clip0_64_2733)">
<path d="M90.7595 69.993C90.7175 88.661 67.7641 97.6519 55.1181 84.1376C47.6677 76.4911 47.6677 63.495 55.1181 55.8625C67.7641 42.3342 90.7175 51.3391 90.7595 70.007V69.993ZM86.5582 69.993C86.6002 54.252 67.6241 45.8493 55.9583 56.6888C48.3819 63.509 48.3819 76.4631 55.9583 83.2833C67.6241 94.1228 86.6002 85.7201 86.5582 69.979V69.993Z" fill="#F3C545"/>
<path d="M105.17 69.993C104.708 95.6633 73.506 108.421 55.5942 89.9914C45.0768 79.278 45.0908 60.7221 55.5942 50.0086C73.52 31.5647 104.694 44.3368 105.17 69.993ZM100.969 69.993C101.333 46.8436 73.3659 35.1219 56.7006 51.115C45.8331 61.3663 45.8471 78.6198 56.7006 88.8711C73.3799 104.864 101.319 93.1425 100.969 69.993Z" fill="#F3C545"/>
<path d="M119.595 69.993C119.119 102.834 79.2197 119.205 56.2103 95.7052C42.57 81.9948 42.584 58.0051 56.2243 44.2947C79.2337 20.7952 119.09 37.1524 119.595 69.993ZM115.393 69.993C115.743 39.6592 79.0937 24.3383 57.3307 45.4011C43.3402 58.6773 43.3402 81.3226 57.3307 94.5849C79.1077 115.634 115.715 100.313 115.393 69.993Z" fill="#F3C545"/>
<path d="M134.005 69.9931C133.851 101.951 100.493 123.994 71.1672 111.25C35.2737 95.8033 35.3297 44.1688 71.1672 28.7358C100.619 16.0337 133.739 37.9928 134.005 69.979V69.9931ZM129.804 69.9931C130.14 32.489 84.7936 13.569 57.933 39.6733C30.3581 66.66 50.0764 112.637 88.2527 112.413C111.01 112.441 130.378 92.6943 129.804 69.9931Z" fill="#F3C545"/>
<path d="M148.43 69.993C148.472 91.1958 134.677 111.446 114.945 119.135C80.3539 133.139 42.0796 107.385 42.4998 69.993C42.1497 32.587 80.3259 6.87473 114.931 20.8652C134.677 28.5537 148.416 48.7902 148.416 69.993H148.43ZM144.228 69.993C144.649 34.3375 108.167 9.78766 75.1722 23.1199C32.7666 40.7096 32.7666 99.2343 75.1722 116.852C108.181 130.17 144.565 105.662 144.214 69.993H144.228Z" fill="#F3C545"/>
</g>
<defs>
<clipPath id="clip0_64_2733">
<rect width="105.93" height="106" fill="white" transform="translate(42.5 17)"/>
</clipPath>
</defs>
</svg>
