<svg width="315" height="800" viewBox="0 0 315 800" fill="none" xmlns="http://www.w3.org/2000/svg">
<mask id="mask0_478_11506" style="mask-type:alpha" maskUnits="userSpaceOnUse" x="0" y="0" width="315" height="800">
<rect width="315" height="800" transform="matrix(1 0 0 -1 0 800)" fill="#D9D9D9"/>
</mask>
<g mask="url(#mask0_478_11506)">
<path d="M373.788 -579.116C525.917 -614.789 726.992 -602.304 751.116 -411.146C756.259 -371.97 753.813 -332.145 747.874 -293.176C739.644 -234.717 720.069 -176.725 682.305 -130.569C580.407 -3.68635 399.451 10.553 284.723 121.006C194.599 207.494 189.993 339.603 211.931 455.206C233.733 564.136 300.013 641.536 419.041 614.315C549.145 581.914 660.067 463.106 734.38 356.141C834.837 209.103 897.912 36.5067 915.391 -140.717C919.34 -180.02 925.034 -219.172 933.341 -257.795C1029.97 -711.795 1382.28 -506.395 1331.4 -140.905C1348.18 -256.336 1326.87 -387.592 1240.87 -471.923C1197.37 -514.144 1134.11 -534.563 1077.36 -506.466C1023.15 -479.814 989.535 -425.363 966.463 -371.521C935.886 -298.304 921.72 -219.436 913.479 -140.892C895.699 35.9438 832.859 208.154 732.482 354.844C655.954 467.18 506.313 625.02 360.048 616.747C272.495 610.097 229.921 532.961 214.227 454.734C192.403 339.831 196.725 208.567 286.238 122.565C401.014 12.2729 581.876 -2.35451 683.571 -129.539C721.445 -175.96 741.052 -234.226 749.23 -292.958C755.115 -332.048 757.552 -372.001 752.283 -411.291C727.544 -602.928 526.5 -615.302 373.788 -579.116Z" fill="#FAECC8"/>
<path d="M373.788 -579.116C472.464 -598.251 605.461 -597.592 683.01 -525.047C719.795 -490.363 738.151 -443.543 743.521 -393.907C747.789 -354.712 744.894 -314.986 738.254 -276.193C731.888 -237.34 721.183 -198.912 702.348 -164.163C624.83 -16.7214 444.365 9.32726 317.659 97.867C218.288 166.607 186.749 265.786 192.636 382.846C195.261 432.057 201.938 481.986 220.896 527.778C279.324 667.518 412.24 648.82 520.406 577.582C713.518 447.132 839.55 211.795 888.313 -12.3461C905.918 -89.4738 906.944 -169.177 924.543 -246.293C932.821 -284.558 943.941 -323.109 959.254 -359.182C983.021 -414.601 1018.63 -471.582 1076.26 -495.863C1077.4 -496.325 1078.5 -496.886 1079.67 -497.265L1086.63 -499.638C1087.79 -500.034 1088.95 -500.457 1090.14 -500.714L1097.27 -502.528C1098.45 -502.874 1099.66 -503.053 1100.87 -503.26L1108.13 -504.503C1111.79 -504.863 1115.46 -505.234 1119.12 -505.454L1126.48 -505.522L1128.32 -505.535L1130.16 -505.408L1137.49 -504.911C1141.13 -504.466 1144.78 -503.91 1148.4 -503.309L1155.58 -501.697L1157.38 -501.301C1161.24 -500.025 1165.87 -498.983 1169.66 -497.421L1176.54 -494.807C1179.46 -493.393 1186.83 -490.291 1189.83 -488.438C1222.54 -471.117 1248.76 -443.503 1269.09 -412.866C1323.09 -329.593 1336.06 -225.232 1322.26 -128.238C1336.34 -225.295 1323.59 -329.775 1269.72 -413.286C1250.77 -442.097 1226.6 -468.055 1196.81 -485.777C1193.71 -487.442 1190.22 -489.493 1187.07 -491.129C1185.98 -491.707 1184.83 -492.171 1183.72 -492.704L1176.98 -495.802C1172.58 -497.397 1167.42 -499.636 1163.01 -500.784C1160.77 -501.43 1158.1 -502.371 1155.87 -502.805C1149.96 -504.302 1143.54 -505.366 1137.61 -506.081C1135.76 -506.269 1132.05 -506.438 1130.2 -506.615C1128.87 -506.834 1120.8 -506.685 1119.05 -506.686C1114.22 -506.31 1109.08 -506.059 1104.29 -505.126L1100.63 -504.504C1099.41 -504.302 1098.18 -504.116 1096.99 -503.776L1089.79 -501.954C1086.58 -501.149 1082.4 -499.491 1079.19 -498.48C1021.66 -476.06 985.054 -420.91 960.739 -366.587C947.742 -337.489 937.678 -306.309 929.629 -275.497C917.438 -227.655 909.566 -178.668 904.507 -129.609C880.389 104.874 779.577 335.163 610.974 501.56C568.449 542.413 521.112 579.165 467.525 604.219C367.001 651.451 268.986 637.777 223.064 526.874C204.202 481.347 197.533 431.697 194.92 382.754C189.032 266.465 220.155 168.001 318.878 99.6469C445.719 11.1423 626.367 -15.5923 703.701 -163.409C722.571 -198.321 733.276 -236.955 739.605 -275.935C746.203 -314.844 749.067 -354.709 744.7 -394.018C739.174 -443.879 720.607 -490.866 683.558 -525.632C605.658 -598.161 472.691 -598.531 373.788 -579.116Z" fill="#FAECC8"/>
<path d="M373.788 -579.116C450.078 -590.548 534.267 -588.481 606.308 -558.931C742.192 -502.426 753.06 -365.489 724.296 -238.014C708.021 -165.568 672.393 -106.175 614.414 -59.5112C519.983 17.2178 396.14 43.9439 299.008 116.495C289.431 123.709 279.413 132.136 270.683 140.392C201.7 205.061 180.275 291.714 183.122 383.7C184.535 427.899 189.527 472.829 202.637 515.18C253.08 676.535 390.405 670.357 513.265 588.92C675.601 478.689 786.603 296.605 848.576 113.127C873.417 38.2012 889.869 -39.4913 897.468 -118.045C901.69 -159.673 908.131 -201.107 917.203 -241.961C918.467 -247.004 921.177 -258.423 922.435 -263.483C923.443 -267.447 927.232 -280.828 928.295 -284.849C933.157 -300.856 938.702 -318.211 944.942 -333.754C970.085 -397.496 1010.86 -466.278 1079.91 -487.816L1088.82 -490.082C1092.42 -490.814 1096.05 -491.379 1099.67 -491.978L1106.99 -492.642C1108.21 -492.749 1109.43 -492.884 1110.66 -492.862L1118.01 -492.936C1119.23 -492.998 1120.45 -492.842 1121.67 -492.771L1129 -492.274L1132.63 -491.74C1138.44 -490.999 1145.03 -489.638 1150.6 -488.031L1157.64 -485.907C1161.11 -484.665 1164.53 -483.332 1167.97 -482.006C1171.14 -480.459 1178.02 -477.566 1181.21 -475.602L1184.45 -473.857C1188.48 -471.732 1191.79 -469.347 1195.45 -467.172C1198.2 -465.206 1201.73 -462.76 1204.47 -460.794C1206.54 -459.223 1211.08 -455.482 1213.12 -453.915L1214.5 -452.693L1217.25 -450.241C1307.38 -367.249 1329.7 -232.656 1313.16 -115.64C1330.05 -232.771 1307.92 -367.616 1217.86 -450.934L1215.11 -453.402L1213.72 -454.624C1211.78 -456.11 1207 -460.056 1205.06 -461.553C1202.29 -463.507 1198.79 -466.032 1196.01 -467.986C1193.01 -469.866 1188.03 -473.081 1184.96 -474.736C1181.65 -476.373 1178.49 -478.467 1175.11 -479.874L1168.39 -482.978C1163.95 -484.812 1159.09 -486.624 1154.46 -488.011C1152.16 -488.6 1149.61 -489.639 1147.34 -490.061L1140.11 -491.694C1136.85 -492.333 1132.46 -492.918 1129.12 -493.427C1125.55 -493.606 1121.55 -494.107 1118.02 -494.125C1114.84 -494.108 1109.85 -494.163 1106.9 -493.856L1099.5 -493.201C1095.84 -492.607 1092.16 -492.035 1088.52 -491.307L1081.32 -489.485C1012.98 -469.597 972.062 -403.391 946.119 -341.206C944.094 -336.036 941.371 -329.071 939.4 -323.958C938.744 -322.225 934.09 -308.641 933.295 -306.492C931.206 -299.796 928.725 -292.084 926.66 -285.294C925.552 -281.087 921.936 -268.342 920.756 -263.893C908.546 -216.129 900.611 -167.212 895.528 -118.22C871.704 116.015 771.336 346.03 603.42 512.663C561.082 553.617 513.92 590.437 460.593 615.819C328.116 678.358 228.795 629.871 197.267 486.019C189.02 449.046 185.782 410.414 185.103 372.575C184.45 281.693 207.99 199.028 277.563 136.988C285.52 129.681 294.606 122.458 303.183 115.976C399.929 45.283 522.032 17.9249 615.46 -58.1562C675.62 -106.668 712 -169.414 727.143 -244.949C754.245 -371.188 739.872 -504.498 606.488 -559.495C534.228 -588.898 450.112 -590.739 373.732 -579.115L373.788 -579.116Z" fill="#FAECC8"/>
<path d="M373.788 -579.116C461.802 -588.679 569.29 -578.426 642.696 -525.313C656.511 -515.157 669.298 -503.415 680.191 -490.174C692.593 -475.1 702.933 -457.93 710.353 -439.863C742.309 -363.104 729.469 -264.424 703.944 -187.118C636.24 5.17431 437.967 22.1399 292.995 126.004C195.788 196.564 167.654 297.729 174.746 413.56C179.076 481.535 190.759 554.355 235.836 608.036C261.479 638.63 300.307 656.779 340.139 657.577C437.754 659.071 529.786 590.794 597.288 525.792C737.357 386.72 829.312 202.576 870.662 10.4517C876.737 -18.4842 881.611 -47.6766 885.222 -77.0177C890.485 -125.926 895.97 -174.897 906.773 -222.945C909.604 -236.249 913.767 -252.733 917.485 -265.872C936.812 -333.715 968.755 -410.426 1027.23 -453.224C1066.66 -482.218 1114.12 -488.411 1159.3 -469.135C1197.83 -452.558 1228.49 -421.703 1251.32 -387.022C1304.95 -303.784 1317.89 -199.757 1304.09 -102.97C1318.15 -199.814 1305.44 -303.971 1251.96 -387.442C1229.13 -422.313 1198.39 -453.4 1159.72 -470.135C1114.17 -489.696 1066.32 -483.548 1026.44 -454.324C967.608 -411.415 935.375 -334.467 915.866 -266.323C912.117 -253.116 907.926 -236.659 905.073 -223.31C894.188 -175.204 888.615 -126.192 883.28 -77.2477C879.629 -47.9669 874.731 -18.8408 868.62 10.0236C827.253 201.685 735.458 385.395 595.635 524.086C528.507 588.669 437.075 656.455 340.24 655.118C301.037 654.296 262.902 636.581 237.673 606.455C199.309 561.176 185.502 500.613 179.421 442.797C177.94 428.392 176.779 413.034 176.392 398.699C170.896 225.338 244.813 139.462 396.154 68.6948C523.002 8.82095 655.763 -41.9363 705.351 -186.627C730.877 -264.318 743.618 -363.196 711.296 -440.264C703.791 -458.384 693.36 -475.624 680.862 -490.729C669.896 -503.99 657.03 -515.769 643.137 -525.906C569.472 -578.905 461.946 -588.928 373.804 -579.122L373.788 -579.116Z" fill="#FAECC8"/>
<path d="M373.788 -579.116C475.389 -585.528 602.898 -563.976 670.838 -481.465C702.6 -443.407 717.777 -394.695 720.549 -345.65C722.878 -306.394 717.982 -267.036 709.751 -228.667C701.706 -190.253 688.411 -152.757 668.011 -119.136C583.106 23.2106 406.084 47.242 281.146 139.746C213.64 190.329 177.646 256.229 167.722 339.8C162.103 388.735 164.577 438.537 172.071 487.125C196.649 644.62 296.636 714.099 446.818 641.745C631.743 547.893 767.964 328.719 831.12 136.154C852.635 70.6662 867.877 3.12266 876.212 -65.2981C882.312 -123.938 889.655 -182.617 904.647 -239.743C922.48 -306.506 950.079 -378.88 1001.49 -426.95L1004.17 -429.476L1007 -431.822L1012.64 -436.53C1014.54 -438.069 1016.59 -439.427 1018.55 -440.895C1022.93 -444.255 1027.73 -446.975 1032.38 -449.914L1034 -450.769L1040.52 -454.179C1072 -469.774 1107.08 -471.7 1140.3 -460.31C1162.23 -452.594 1182.4 -440.027 1199.62 -424.458C1274.61 -355.598 1302.36 -248.319 1299.96 -149.107C1299.42 -129.448 1297.72 -109.824 1294.99 -90.3432C1309.05 -187.104 1296.35 -291.133 1243.01 -374.58C1221.53 -407.407 1193.22 -436.832 1157.69 -454.241C1119.95 -472.615 1079.8 -474.069 1041.58 -456.218C1039.23 -455.025 1035.72 -453.179 1033.36 -451.951L1031.72 -451.09L1030.14 -450.119C1023.78 -446.322 1017.66 -442.153 1011.79 -437.628C1009.41 -435.641 1005.43 -432.347 1003.25 -430.538C954.511 -386.206 927.796 -323.458 908.962 -261.54C904.244 -245.37 899.707 -227.876 896.117 -211.469C887.633 -172.998 881.7 -134.013 877.574 -94.8606C862.483 61.6919 811.989 214.58 731.659 349.737C671.179 450.356 594.59 544.088 496.717 610.208C448.084 642.128 392.181 668.554 332.974 667.788C226.145 665.443 183.827 564.509 172.204 472.178C156.172 343.547 172.074 223.518 282.446 141.439C407.633 48.8452 584.32 24.5887 669.366 -118.354C689.8 -152.138 703.117 -189.857 711.13 -228.41C723.373 -285.922 728.332 -346.773 712.056 -403.956C706.74 -422.819 698.902 -441.316 688.631 -458.013C678.497 -474.798 665.6 -490.199 651.129 -503.373C580.075 -567.933 466.79 -585.28 373.804 -579.15L373.788 -579.116Z" fill="#FAECC8"/>
<path d="M373.788 -579.116C459.207 -580.455 555.3 -561.536 624.375 -508.955C661.825 -480.212 688.863 -441.133 702.131 -395.789C719.36 -336.551 714.07 -273.307 700.312 -213.871C684.302 -136.744 640.983 -66.1877 577.857 -18.8372C463.405 71.1996 295.435 94.8366 207.899 216.542C161.605 281.678 151.376 364.872 156.766 442.815C158.95 477.073 163.463 511.7 172.832 544.762C221.053 714.927 362.206 710.684 490.115 624.137C679.815 492.895 805.887 256.378 852.817 33.9304C860.921 -4.58021 866.546 -43.5849 870.461 -82.7257C877.197 -146.122 888.158 -209.409 908.287 -270.034C928.454 -329.059 958.1 -391.046 1009.8 -428.49C1051.96 -458.967 1101.57 -463.294 1148.42 -440.471C1165.96 -431.866 1182.04 -420.161 1196.13 -406.63C1266.86 -337.165 1293.2 -233.297 1290.85 -136.391C1290.3 -116.749 1288.6 -97.1467 1285.88 -77.6776C1299.9 -174.337 1287.26 -278.323 1234.03 -361.717C1212.63 -394.535 1184.32 -423.96 1148.88 -441.439C1109.86 -460.642 1066.71 -461.582 1027.92 -441.186C1014.83 -434.504 1002.59 -425.585 991.783 -415.641C957.168 -383.824 934.193 -341.49 916.896 -298.271C904.176 -266.346 894.635 -232.925 887.15 -199.427C878.653 -160.989 872.698 -122.042 868.559 -82.9232C851.626 93.0122 790.279 264.555 691.619 411.219C625.55 507.664 543.432 598.213 437.947 651.546C316.93 711.15 213.168 680.216 175.112 544.117C165.776 511.222 161.256 476.757 159.077 442.666C153.689 365.22 163.731 282.545 209.701 217.809C238.043 177.59 277.64 146.856 319.949 122.426C404.842 73.2117 500.652 43.1163 578.937 -17.4665C642.256 -65.0847 685.757 -136.148 701.692 -213.558C715.417 -273.216 720.606 -336.686 703.15 -396.086C689.727 -441.543 662.457 -480.771 624.806 -509.497C555.545 -561.973 459.312 -580.682 373.804 -579.122L373.788 -579.116Z" fill="#FAECC8"/>
<path d="M373.788 -579.116C450.433 -576.736 532.645 -557.208 597.063 -514.522C642.559 -484.247 677.019 -441.034 692.931 -388.441C711.894 -327.169 706.055 -261.124 690.958 -199.613C677.739 -142.308 650.642 -87.9454 609.98 -45.2188C541.885 27.1625 446.696 62.5043 359.498 105.687C306.815 131.755 254.587 162.096 215.538 206.938C153.175 277.405 140.874 373.569 148.196 464.213C154.641 555.205 184.925 672.37 287.951 692.73C357.134 705.25 425.396 673.609 481.912 636.191C643.726 522.949 751.346 344.756 813.439 159.901C833.308 99.1548 847.753 36.6241 856.303 -26.7119C858.359 -41.3001 859.808 -56.0052 861.422 -70.648C867.676 -129.147 877.459 -187.516 894.85 -243.799C917.321 -316.47 958.369 -403.63 1033.02 -433.615C1062.93 -445.304 1096.17 -445.045 1126.06 -433.483L1131.2 -431.54L1139.53 -427.728C1140.66 -427.246 1141.72 -426.64 1142.8 -426.056L1146.03 -424.316C1150.36 -422.188 1154.61 -419.215 1158.63 -416.805C1249.88 -354.427 1284.86 -229.662 1281.74 -123.698C1281.2 -104.067 1279.49 -84.4698 1276.77 -65.0121C1280.24 -89.2972 1282.12 -113.884 1282.13 -138.417C1282.02 -240.501 1246.67 -357.518 1159.2 -417.642C1156.76 -419.22 1152.15 -422.055 1149.78 -423.462C1148.11 -424.336 1144.95 -426.1 1143.3 -426.98C1140.48 -428.597 1134.64 -431.096 1131.64 -432.524C1104.99 -443.714 1074.71 -447.031 1046.65 -439.313L1043.07 -438.409L1039.56 -437.233C1037.23 -436.419 1034.88 -435.683 1032.57 -434.819L1025.76 -431.904C1022.51 -430.595 1018.98 -428.564 1015.83 -426.963C1012.06 -425.042 1006.75 -421.583 1003.18 -419.305C1001.44 -418.067 996.045 -414.136 994.202 -412.806C944.561 -373.354 916.548 -313.663 896.571 -254.839C889.418 -232.616 883.199 -210.04 878.163 -187.256C869.655 -148.852 863.693 -109.921 859.526 -70.8291C840.693 124.435 767.582 314.73 648.688 470.94C572.564 571.347 424.164 713.807 288.438 690.327C186.731 670.265 156.862 553.803 150.523 464.03C143.229 374.033 155.281 278.373 217.21 208.365C256.041 163.725 308.035 133.563 360.446 107.547C447.69 64.2068 543.105 28.5572 611.215 -44.0924C651.982 -87.0453 679.17 -141.779 692.344 -199.284C707.407 -261.017 713.145 -327.316 693.938 -388.743C677.827 -441.47 643.169 -484.761 597.435 -515.023C532.835 -557.588 450.546 -576.918 373.815 -579.117L373.788 -579.116Z" fill="#FAECC8"/>
<path d="M373.788 -579.116C476.627 -570.837 594.863 -529.537 654.787 -440.86C711.731 -357.649 703.042 -249.584 673.527 -157.669C621.566 1.64097 486.058 51.655 348.418 118.191C313.292 135.765 278.677 154.926 247.809 179.441C145.049 258.375 127.37 378.086 141.292 499.854C161.384 689.573 277.162 763.642 448.477 664.178C673.323 526.001 819.279 227.644 849.122 -29.0942C856.14 -97.344 865.256 -165.787 885.846 -231.444C897.356 -268.794 912.45 -305.548 933.179 -338.754C957.632 -377.591 992.543 -413.524 1038.07 -425.468C1063.99 -432.511 1092.14 -430.385 1117.13 -420.75L1120.55 -419.457L1122.27 -418.796L1123.93 -418.022L1130.59 -414.972C1137.05 -411.827 1143.62 -407.898 1149.66 -404.049C1240.82 -341.589 1275.75 -216.958 1272.62 -111.009C1272.08 -91.3784 1270.37 -71.7982 1267.66 -52.3517C1270.42 -71.7997 1272.18 -91.3756 1272.78 -111.008C1275.74 -213.781 1244.91 -329.591 1162.13 -396.228C1155.6 -401.431 1147.99 -406.464 1140.81 -410.733C1137.62 -412.496 1134.27 -414.317 1131.06 -415.94C1129.59 -416.68 1124 -419.157 1122.68 -419.801C1101.69 -428.549 1078.59 -432.733 1055.89 -430.106C1054.09 -430.022 1046.97 -428.794 1044.93 -428.424C1042.97 -428.073 1039.74 -427.206 1037.74 -426.709C1032.94 -425.653 1028.28 -423.791 1023.65 -422.243L1016.85 -419.327C1015.73 -418.816 1014.56 -418.398 1013.46 -417.82L1010.19 -416.109C1008.01 -414.948 1005.8 -413.875 1003.67 -412.637C999.75 -410.165 994.817 -407.342 991.26 -404.607C935.889 -365.044 904.122 -295.26 884.25 -231.912C866.715 -175.586 856.807 -117.124 850.437 -58.5548C827.424 174.942 728.441 404.198 562.462 571.514C520.614 612.655 474.074 649.792 421.401 676.043C257.21 756.121 161.484 668.028 143.578 499.611C126.808 346.842 158.233 228.346 297.611 148.051C447.93 61.9504 613.578 28.7217 674.872 -157.193C704.402 -249.612 712.858 -357.825 655.45 -441.309C595.197 -529.96 476.811 -571.054 373.76 -579.088L373.788 -579.116Z" fill="#FAECC8"/>
<path d="M373.788 -579.116C498.739 -562.64 637.139 -497.43 676.443 -368.433C696.248 -304.869 689.928 -236.198 672.607 -172.749C653.497 -96.4604 607.867 -27.7931 544.396 18.7353C422.61 113.121 238.382 135.915 162.221 282.157C125.861 352.914 123.82 435.532 132.267 513.053C140.818 588.641 166.796 677.43 242.705 709.801C352.263 753.199 480.478 659.565 555.355 585.524C717.953 421.273 816.602 197.425 841.716 -31.3474C852.757 -141.772 879.405 -291.259 960.646 -372.138C965.817 -377.274 971.499 -382.09 977.142 -386.675L986.048 -393.128C987.056 -393.815 988.11 -394.425 989.146 -395.085L995.373 -398.945C998.909 -400.987 1001.62 -402.191 1005.08 -404.086C1006.17 -404.641 1007.32 -405.07 1008.43 -405.57L1015.16 -408.467L1022.08 -410.845C1023.25 -411.223 1024.38 -411.674 1025.56 -411.992L1029.1 -412.901C1050.3 -418.678 1073.02 -418.185 1094.22 -412.658C1100.66 -410.852 1107.05 -408.66 1113.27 -406.15L1114.93 -405.376L1121.59 -402.326C1128.02 -399.18 1134.62 -395.235 1140.65 -391.392C1229.82 -330.216 1265.07 -209.623 1263.68 -105.745C1263.38 -83.6868 1261.64 -61.5881 1258.57 -39.7479C1261.34 -59.1793 1263.09 -78.7552 1263.69 -98.3877C1266.66 -201.144 1235.84 -316.904 1153.12 -383.559C1150.07 -386.175 1144.53 -389.821 1141.21 -392.233C1138.93 -393.57 1134.07 -396.8 1131.82 -398.07C1128.54 -399.72 1125.33 -401.739 1122.07 -403.289L1115.37 -406.382C1095.15 -415.241 1072.7 -419.75 1050.61 -417.844C1043.58 -417.362 1035.59 -416.003 1028.79 -414.148C1024.86 -413.362 1018.6 -410.981 1014.7 -409.699C1011.81 -408.468 1007.15 -406.511 1004.52 -405.298L1001.25 -403.587C999.071 -402.426 996.853 -401.353 994.716 -400.132L988.435 -396.243C987.398 -395.583 986.327 -394.967 985.303 -394.274C927.842 -354.652 895.637 -284.342 875.231 -219.523C869.332 -200.818 864.387 -181.683 860.078 -162.554C851.558 -124.182 845.567 -85.279 841.4 -46.2149C815.505 218.807 684.177 502.239 463.356 658.746C347.267 738.106 207.481 756.26 153.039 598.646C143.518 570.869 137.924 541.893 134.584 512.742C123.428 417.049 131.26 310.471 196.618 234.405C234.782 189.248 286.471 158.558 338.709 132.297C442.607 80.7168 560.436 36.5093 626.594 -64.906C648.495 -97.6481 663.998 -134.391 673.96 -172.435C690.628 -233.806 697.008 -299.861 679.518 -361.726C665.203 -414.03 632.497 -460.239 590.081 -493.609C528.216 -542.101 451.206 -568.982 373.803 -579.178L373.788 -579.116Z" fill="#FAECC8"/>
<path d="M373.788 -579.116C459.391 -563.061 545.439 -525.745 606.544 -462.378C640.38 -427.03 664.53 -382.316 674.274 -334.248C686.439 -276.475 679.515 -216.333 663.554 -159.962C643.483 -83.9422 597.156 -15.8751 533.723 30.5741C411.897 124.748 227.697 148.161 152.449 294.981C121.064 356.834 115.687 428.437 120.531 496.637C123.271 535.836 128.97 575.119 141.776 612.399C151.489 640.265 165.259 667.157 185.62 688.818C212.464 718.25 252.069 734.2 291.712 733.574C388.996 731.678 479.289 663.472 546.406 598.029C703.864 439.053 800.983 224.034 830.091 3.15402C830.858 -3.38756 831.98 -12.2557 832.623 -18.7994C838.028 -72.4064 845.915 -126 859.613 -178.165C880.099 -254.336 915.607 -344.271 986.332 -386.303C988.447 -387.507 990.643 -388.591 992.799 -389.734L996.038 -391.433C997.133 -391.983 998.27 -392.417 999.383 -392.918L1006.11 -395.814L1013.04 -398.175C1014.21 -398.554 1015.34 -399.005 1016.51 -399.311L1020.06 -400.221C1045.99 -407.22 1074.12 -405.059 1099.08 -395.396C1112.72 -390.348 1125.79 -382.951 1137.59 -374.464C1209.2 -321.569 1243.38 -230.677 1252.35 -144.484C1256.24 -105.563 1254.94 -65.7703 1249.46 -27.0658C1252.24 -46.4972 1253.99 -66.073 1254.58 -85.6942C1257.31 -187.048 1228.44 -297.65 1149.8 -366.239C1123.39 -388.421 1091.2 -404.122 1056.32 -405.518C1051.51 -405.544 1046.38 -405.701 1041.56 -405.152C1039.12 -404.86 1036.54 -404.838 1034.22 -404.404L1026.93 -403.172C1023.66 -402.549 1019.43 -401.364 1016.16 -400.563C1014.32 -399.987 1007.7 -397.746 1005.65 -397.035C1002.7 -395.763 998.147 -393.865 995.47 -392.634C992.203 -390.935 988.847 -389.221 985.665 -387.468L979.384 -383.579C927.216 -349.56 896.962 -291.67 875.548 -234.866C865.894 -208.341 858.18 -181.05 851.776 -153.562C842.914 -114.014 836.593 -73.929 832.307 -33.6391C809.376 199.772 710.53 428.968 544.732 596.34C477.967 661.383 388.262 729.091 291.718 731.112C252.687 731.692 213.802 716.147 187.382 687.16C147.229 643.595 132.416 583.183 125.503 525.736C114.365 430.065 121.74 323.55 186.546 247.075C224.414 201.67 275.986 170.76 328.147 144.367C415.107 100.426 509.905 64.4476 579.064 -6.94205C620.51 -49.1381 649.515 -102.639 664.908 -159.592C684.642 -228.898 689.964 -305.015 664.001 -373.364C618.809 -492.174 492.692 -557.071 373.788 -579.116Z" fill="#FAECC8"/>
<path d="M373.788 -579.116C484.534 -552.46 601.376 -486.101 648.989 -378.06C664.917 -342.258 672.374 -302.912 672.475 -263.773C671.197 -166.507 637.186 -66.5384 568.096 3.46494C498.854 74.4996 404.411 110.423 317.507 154.335C265.098 180.875 213.345 212.085 175.357 257.807C110.39 334.895 102.932 442.087 114.041 538.323C117.39 567.63 122.989 596.801 132.571 624.744C187.357 783.331 328.198 767.101 446.475 686.116C660.148 536.096 793.732 256.704 822.719 1.30187C829.262 -64.484 838.874 -130.423 858.593 -193.677C870.108 -231.011 885.225 -267.755 905.96 -300.944C930.419 -339.765 965.358 -375.671 1010.88 -387.559C1032.08 -393.336 1054.8 -392.842 1076 -387.327C1082.45 -385.521 1088.84 -383.329 1095.05 -380.819L1096.71 -380.045L1103.38 -376.995C1109.81 -373.844 1116.4 -369.909 1122.44 -366.06C1213.52 -303.61 1248.47 -178.94 1245.34 -73.0526C1244.79 -53.4382 1243.09 -33.8527 1240.36 -14.4115C1243.12 -33.8482 1244.89 -53.4187 1245.49 -73.0512C1248.46 -175.808 1217.64 -291.568 1134.91 -358.223C1131.91 -360.834 1126.3 -364.483 1123.01 -366.897C1120.74 -368.285 1115.85 -371.429 1113.61 -372.734C1110.42 -374.497 1107.08 -376.318 1103.86 -377.952L1097.17 -381.046C1076.94 -389.905 1054.5 -394.414 1032.41 -392.508C1025.38 -392.025 1017.39 -390.667 1010.58 -388.801C1006.65 -388.014 1000.39 -385.633 996.491 -384.351C993.585 -383.103 988.958 -381.169 986.314 -379.95L983.041 -378.24C980.864 -377.078 978.645 -376.006 976.508 -374.784L970.227 -370.895C969.191 -370.235 968.12 -369.619 967.107 -368.921C909.646 -329.299 877.441 -258.989 857.046 -194.164C851.147 -175.46 846.202 -156.324 841.893 -137.196C833.373 -98.8241 827.383 -59.9207 823.215 -20.8566C808.35 135.388 758.403 288.077 678.572 423.164C613.423 531.824 529.73 633.661 420.34 699.797C305.751 767.973 183.727 766.603 134.849 623.987C125.327 596.211 119.745 567.24 116.399 538.073C105.321 442.388 112.536 335.895 177.08 259.215C214.844 213.706 266.357 182.687 318.489 156.211C405.411 112.142 500.075 75.9222 569.321 4.64174C638.579 -65.7794 672.625 -166.09 673.725 -263.769C673.52 -303.04 665.925 -342.532 649.855 -378.413C601.845 -486.516 484.796 -552.696 373.788 -579.116Z" fill="#FAECC8"/>
<path d="M373.788 -579.116C448.687 -556.882 520.023 -518.297 575.765 -463.13C666.091 -374.042 683.248 -254.76 646.172 -136.474C629.597 -80.1405 600.154 -27.174 558.714 14.6255C475.329 100.371 356.961 134.083 256.64 194.421C241.938 203.336 227.615 213.034 214.052 223.609C126.631 290.4 98.064 384.588 100.869 491.385C102.049 530.422 105.64 570.361 114.991 608.358C134.003 688.463 182.691 758.973 272.576 758.848C332.241 758.602 388.127 731.535 436.896 699.086C598.534 585.721 706.05 407.575 768.043 222.756C787.879 162.022 802.302 99.5088 810.831 36.1902C812.886 21.6019 814.319 6.90281 815.939 -7.72339C821.095 -56.4892 828.944 -105.046 841.296 -152.524C863.313 -236.023 908.4 -346.362 998.069 -373.99L1005.16 -375.809C1006.35 -376.094 1007.51 -376.461 1008.73 -376.624L1015.95 -377.86C1016.55 -377.949 1017.15 -378.084 1017.76 -378.145L1019.58 -378.303L1023.22 -378.628C1027.6 -379.081 1033.33 -379.136 1037.84 -379.057C1054.34 -378.433 1070.58 -374.531 1085.82 -368.267C1090.14 -366.256 1096.5 -363.499 1100.63 -361.036C1104.89 -358.952 1109.25 -355.903 1113.22 -353.531C1204.4 -291.089 1239.34 -166.424 1236.22 -60.476C1235.67 -40.845 1233.97 -21.2594 1231.25 -1.81823C1236.82 -40.5311 1238.24 -80.3665 1234.44 -119.318C1225.48 -210.446 1185.95 -311.402 1104.38 -360.21C1084.13 -371.864 1061.34 -379.373 1037.89 -380.287C1034.21 -380.339 1030.5 -380.318 1026.81 -380.22C1024.95 -380.106 1021.29 -379.707 1019.44 -379.577L1017.61 -379.414C1016.99 -379.357 1016.39 -379.223 1015.78 -379.134C1012.64 -378.604 1007.73 -377.874 1004.89 -377.079L1001.3 -376.175C996.505 -375.119 991.843 -373.257 987.216 -371.709C984.25 -370.419 979.716 -368.567 977.045 -367.291C973.778 -365.592 970.399 -363.889 967.246 -362.109C964.492 -360.39 960.322 -357.872 957.839 -356.234C956.105 -354.962 950.683 -351.086 948.845 -349.74C898.283 -309.52 869.933 -248.456 850.046 -188.379C843.273 -167.328 837.526 -145.909 832.713 -124.344C824.199 -85.9556 818.22 -47.0471 814.058 -7.96633C795.279 187.24 722.272 377.488 603.496 533.711C528.048 633.731 378.501 776.882 243.584 753.613C141.646 734.077 111.557 617.76 105.061 527.97C102.972 501.329 102.332 473.85 103.934 447.222C109.72 353.324 144.643 277.271 221.203 220.773C280.485 176.713 349.587 149.345 414.907 115.783C484.765 80.6852 552.807 35.9148 597.44 -29.7603C619.79 -61.9903 636.379 -98.5573 647.526 -136.132C684.577 -254.898 666.999 -374.486 576.209 -463.611C520.241 -518.705 448.827 -557.092 373.803 -579.178L373.788 -579.116Z" fill="#FAECC8"/>
</g>
</svg>
