<svg width="305" height="641" viewBox="0 0 305 641" fill="none" xmlns="http://www.w3.org/2000/svg">
<mask id="mask0_551_9725" style="mask-type:alpha" maskUnits="userSpaceOnUse" x="0" y="0" width="421" height="641">
<rect width="420" height="640" transform="matrix(1 0 0 -1 0.912109 640.229)" fill="#D9D9D9"/>
</mask>
<g mask="url(#mask0_551_9725)">
<path d="M1419.35 -468.954C1574.71 -352.649 1723.31 -151.325 1560.66 24.2111C1527.49 60.3757 1487.64 89.8353 1445.82 115.288C1383.62 154.117 1312.82 181.775 1238.76 182.677C1036.7 186.979 878.726 26.1326 682.061 5.11072C527.834 -11.6256 398.448 89.4379 305.953 202.588C219.699 310.283 198.944 435.14 319.842 526.688C454.508 624.644 656.087 635.375 817.18 620.72C1037.27 598.959 1251.85 521.223 1434.43 396.4C1474.99 368.787 1516.79 342.956 1560.17 320.034C2069.3 49.6212 2155.02 548.85 1766.62 792.153C1889.86 715.991 1997.75 590.943 2009.36 441.789C2014.82 366.689 1983.76 290.187 1911.73 258.605C1843.11 228.29 1764.47 239.763 1694.82 260.781C1600.75 290.122 1514.39 339.591 1433.08 394.441C1250.62 518.668 1036.59 596.319 816.9 617.878C648.929 634.713 379.306 618.288 270.447 472.487C206.9 383.857 246.321 281.771 308.235 204.396C400.154 91.9133 528.51 -8.74567 681.785 7.79669C878.337 28.9932 1036.6 189.44 1238.79 184.704C1313.19 183.695 1384.28 155.848 1446.69 116.753C1488.58 91.1521 1528.55 61.5817 1561.73 25.2067C1724.34 -151.298 1575.66 -352.504 1419.35 -468.954Z" fill="#FAECC8"/>
<path d="M1419.35 -468.954C1516.31 -390.319 1621.83 -263.222 1614.69 -131.517C1611.04 -68.8248 1581.14 -13.9852 1538.19 30.7436C1504.3 66.0905 1464.19 95.0439 1421.98 119.689C1379.93 144.642 1334.82 165.127 1286.72 174.938C1084.55 218.851 915.738 67.8982 730.364 17.9853C585.647 -21.7158 466.101 27.432 359.409 126.469C314.676 168.247 272.495 214.453 244.051 269.046C157.71 436.188 281.581 547.758 435.693 593.835C713.947 673.493 1038.47 605.592 1290.67 473.095C1378.11 428.286 1454.78 365.645 1542.2 320.841C1585.22 298.177 1630.78 277.989 1677.33 263.769C1749.03 242.153 1831.66 230.555 1900.77 266.029C1902.12 266.742 1903.53 267.341 1904.82 268.149L1912.64 272.882C1913.94 273.67 1915.27 274.436 1916.46 275.366L1923.88 280.703C1925.15 281.548 1926.29 282.558 1927.45 283.544L1934.43 289.463C1937.69 292.659 1940.97 295.851 1944.1 299.162L1950.04 306.112L1951.52 307.848L1952.86 309.699L1958.24 317.072C1960.73 320.894 1963.11 324.807 1965.43 328.737L1969.63 336.859L1970.68 338.883C1972.55 343.575 1975.25 348.813 1976.8 353.672L1979.8 362.306C1980.78 366.21 1983.71 375.698 1984.34 380.032C1993.96 424.986 1988.61 471.98 1975.68 515.781C1939.54 633.639 1850.59 729.285 1747.28 793.57C1850.87 729.498 1940.11 633.967 1976.59 516.051C1988.88 475.017 1994.29 431.293 1987.38 388.801C1986.49 384.52 1985.66 379.566 1984.7 375.256C1984.38 373.756 1983.9 372.296 1983.52 370.812L1981.09 361.927C1979.1 356.467 1977.11 349.772 1974.68 344.654C1973.51 342.004 1972.27 338.713 1970.91 336.243C1967.62 329.431 1963.51 322.472 1959.45 316.252C1958.15 314.34 1955.36 310.681 1954.05 308.774C1953.19 307.335 1946.61 299.772 1945.22 298.11C1941 293.808 1936.66 289.12 1931.95 285.303L1928.44 282.318C1927.27 281.317 1926.11 280.296 1924.84 279.436L1917.36 274.036C1914.03 271.626 1909.12 268.969 1905.59 266.724C1838.35 229.87 1756.65 239.052 1685.56 259.272C1647.5 270.128 1609.79 285.438 1574.05 302.371C1518.8 328.956 1465.9 360.565 1415.18 394.909C1172.81 559.116 873.212 646.988 580.316 619.347C507.502 611.486 434.751 595.771 368.144 564.772C242.973 506.804 177.759 402.611 246.641 270.388C274.909 216.098 316.832 170.121 361.319 128.569C467.277 30.1456 585.811 -18.8271 729.643 20.5662C915.092 70.6356 1084.7 221.215 1287.08 176.828C1335.36 166.92 1380.67 146.27 1422.81 121.18C1465.1 96.4027 1505.32 67.3086 1539.24 31.7772C1582.28 -13.2799 1612.17 -68.4534 1615.68 -131.463C1622.53 -263.49 1516.76 -390.326 1419.35 -468.954Z" fill="#FAECC8"/>
<path d="M1419.35 -468.954C1491.12 -405.475 1556.34 -323.704 1585.72 -231.559C1640.4 -57.1385 1518.77 62.5042 1374.51 136.879C1292.58 179.216 1207.63 192.715 1116.96 174.784C968.579 146.16 844.31 49.6333 697.753 15.1047C683.245 11.7484 667.231 8.93994 652.408 7.2226C535.817 -6.80933 436.262 41.9656 351.003 118.096C310.073 154.721 271.303 195.333 241.466 241.614C128.184 418.411 243.661 544.168 419.206 596.09C653.656 662.597 915.51 622.898 1139.56 535.427C1230.68 499.264 1317.74 452.908 1398.56 397.44C1441.54 368.231 1486.11 341.289 1532.22 317.313C1538.03 314.491 1551.06 307.955 1556.88 305.114C1561.45 302.91 1577.21 295.836 1581.88 293.638C1601 285.488 1621.94 276.912 1641.71 270.445C1722.43 243.495 1820.42 227.399 1896.02 275.923L1905.29 282.591C1908.86 285.433 1912.3 288.438 1915.76 291.405L1922.23 297.843C1923.3 298.918 1924.4 299.969 1925.36 301.154L1931.3 308.09C1932.34 309.206 1933.16 310.491 1934.07 311.707L1939.44 319.081L1941.83 322.96C1945.77 329.085 1949.73 336.438 1952.65 343.027L1956.24 351.422C1957.83 355.709 1959.29 360.029 1960.77 364.36C1961.83 368.611 1964.57 377.475 1965.24 382.071L1966.17 386.551C1967.36 392.08 1967.74 397.14 1968.59 402.36C1968.91 406.538 1969.4 411.854 1969.72 416.032C1969.88 419.259 1969.94 426.565 1970.08 429.751L1970.02 432.043L1969.88 436.616C1962.84 588.631 1852.58 717.309 1728.03 794.963C1852.96 717.543 1963.62 588.855 1971.02 436.645L1971.17 432.053L1971.23 429.762C1971.09 426.722 1971.04 419.029 1970.91 415.985C1970.56 411.786 1970.17 406.441 1969.81 402.241C1969.21 397.884 1968.29 390.581 1967.41 386.33C1966.33 381.876 1965.8 377.195 1964.45 372.862L1962.04 363.989C1960.24 358.3 1958.08 352.228 1955.7 346.711C1954.43 344.055 1953.38 340.795 1951.98 338.303L1947.76 330.121C1945.77 326.505 1942.82 321.862 1940.64 318.279C1937.96 314.735 1935.24 310.527 1932.44 307.158C1929.89 304.141 1925.95 299.345 1923.31 296.785L1916.78 290.265C1913.3 287.257 1909.82 284.214 1906.22 281.332L1898.74 275.933C1825.27 226.771 1729.61 240.672 1649.74 265.617C1643.2 267.817 1634.4 270.784 1627.96 272.99C1625.79 273.748 1609.15 280.162 1606.47 281.12C1598.43 284.476 1589.11 288.271 1581 291.726C1576.12 294.029 1561.1 300.761 1555.93 303.189C1500.73 329.693 1447.85 361.186 1397.18 395.454C1155.27 559.743 856.296 647.819 563.721 621.021C490.961 613.418 418.285 597.923 351.573 567.433C186.335 491.275 153.206 358.052 264.929 213.227C293.529 175.868 327.706 141.951 363.17 111.102C449.129 37.941 546.577 -5.63818 661.138 11.0535C674.442 12.7932 688.566 15.6753 701.579 18.6629C846.06 54.3086 969.542 148.674 1116.5 176.861C1210.68 195.393 1299.42 179.932 1383.38 134.053C1525.13 59.0829 1640.52 -61.001 1586.4 -231.837C1556.71 -324.074 1491.33 -405.595 1419.31 -469.006L1419.35 -468.954Z" fill="#FAECC8"/>
<path d="M1419.35 -468.954C1498.7 -392.825 1574.72 -282.347 1582.77 -170.095C1584.13 -148.841 1583.16 -127.3 1579.26 -106.365C1574.81 -82.5296 1566.72 -58.9847 1555.45 -37.5031C1507.92 54.1772 1403.77 120.722 1309.83 158.135C1072.82 247.187 898.44 72.0364 683.907 16.9719C539.184 -19.218 420.465 34.7561 315.904 133.959C254.677 192.336 194.709 261.578 179.603 347.325C170.957 396.148 184.675 447.585 215.704 486.13C292.189 580.22 430.608 613.307 546.334 625.664C790.457 647.96 1039.07 588.492 1254.89 474.493C1287.27 457.178 1318.94 438.516 1349.74 418.532C1400.48 384.504 1451.46 350.636 1505.8 322.565C1520.72 314.641 1539.73 305.446 1555.2 298.496C1635.18 262.738 1733.67 231.909 1821.06 253.396C1880.12 267.78 1923.89 308.007 1941.61 366.386C1956.58 416.284 1951.69 470.094 1936.91 519.503C1900.51 636.982 1811.85 732.327 1708.73 796.446C1812.11 732.529 1901.08 637.295 1937.82 519.773C1952.79 470.218 1957.83 416.142 1942.9 365.992C1925.16 307.027 1881.11 266.392 1821.48 251.763C1733.7 230.027 1634.75 260.77 1554.34 296.596C1538.78 303.569 1519.77 312.716 1504.79 320.656C1450.33 348.695 1399.24 382.512 1348.41 416.501C1317.64 436.398 1286.01 454.984 1253.67 472.208C1038.27 585.821 790.203 645.096 546.639 622.73C431.609 610.395 294.136 577.487 218.125 484.263C187.62 446.299 174.042 395.866 182.574 347.811C195.042 275.159 241.652 213.679 291.815 161.744C304.34 148.837 318.027 135.474 331.36 123.664C491.938 -19.9401 632.646 -18.1393 820.769 69.4026C978.98 142.331 1133.23 228.163 1310.49 159.866C1404.79 122.146 1509.05 55.3482 1556.59 -36.9254C1567.84 -58.5306 1575.92 -82.2182 1580.32 -106.169C1584.19 -127.19 1585.13 -148.836 1583.69 -170.148C1575.33 -282.557 1499.05 -392.888 1419.37 -468.943L1419.35 -468.954Z" fill="#FAECC8"/>
<path d="M1419.35 -468.954C1506.54 -377.38 1587.8 -238.831 1563.5 -108.314C1552.64 -47.7103 1518.4 5.61517 1473.94 47.3995C1438.45 80.9489 1397.09 107.704 1354.01 130.497C1311.03 153.503 1264.74 170.778 1216.47 178.2C1013.25 211.016 849.108 61.7292 661.373 16.6635C559.365 -7.20557 467.93 11.1405 380.487 68.4012C329.436 102.112 284.021 144.217 243.768 190.131C113.516 339.232 127.201 489.844 315.909 575.018C552.802 676.095 870.076 630.793 1103.72 537.195C1183.21 505.4 1259.64 465.992 1331.4 419.312C1392.07 378.313 1453.77 338.464 1520.09 307.134C1597.85 270.817 1688.75 239.315 1775.52 249.877L1780.06 250.408L1784.55 251.225L1793.54 252.839C1796.52 253.419 1799.44 254.285 1802.41 254.982C1809.09 256.459 1815.51 258.858 1822.03 260.943L1824.13 261.804L1832.58 265.279C1872.54 282.792 1902.37 314.639 1918.04 355.344C1928.21 382.38 1932.35 411.607 1931.27 440.421C1925.6 566.75 1845.66 678.779 1749.34 755.693C1730.2 770.869 1710.17 784.908 1689.45 797.862C1792.75 734.013 1881.6 638.891 1918.44 521.521C1932.53 474.876 1937.94 424.452 1926.15 376.745C1913.51 326.157 1882.86 286.791 1835.36 264.661C1832.36 263.383 1827.79 261.512 1824.74 260.247L1822.62 259.374L1820.43 258.646C1811.74 255.622 1802.89 253.122 1793.9 251.154C1790.11 250.472 1783.8 249.311 1780.34 248.683C1699.25 237.685 1618.23 262.346 1544.28 293.843C1525.12 302.26 1504.86 311.906 1486.38 321.584C1443 344.217 1401.17 369.689 1360.62 397.012C1199.6 507.608 1013.82 581.587 821.102 613.018C677.088 635.773 526.771 637.701 385.743 597.332C316.555 576.528 246.793 544.419 200.27 487.461C117.242 383.922 179.514 263.086 258.097 178.327C367.703 60.4002 494.609 -20.2712 660.799 19.2532C848.819 64.483 1012.91 213.272 1216.81 180.113C1265.26 172.594 1311.78 155.161 1354.86 132.015C1419.36 97.7616 1481.22 53.9102 1522.65 -7.22162C1536.35 -27.3368 1547.7 -49.5596 1555.39 -72.6621C1563.27 -95.7042 1567.63 -120.271 1568.62 -144.557C1573.35 -263.709 1499.44 -385.365 1419.4 -468.966L1419.35 -468.954Z" fill="#FAECC8"/>
<path d="M1419.35 -468.954C1488.8 -388.732 1547.49 -282.181 1552.58 -174.474C1555.12 -115.891 1539.51 -58.9687 1506.95 -10.1483C1464.33 53.5312 1399.93 98.9772 1332.39 133.324C1246.23 179.65 1144.51 194.74 1049.08 172.459C872.058 135.404 715.511 -5.58313 529.839 8.25397C430.912 16.1876 343.583 72.8568 273.717 140.199C242.862 169.621 213.514 201.555 189.53 236.86C66.0912 418.574 182.781 549.519 367.219 602.167C643.502 677.946 969.179 609.142 1218.31 476.251C1261.42 453.224 1303.03 427.445 1343.39 399.929C1409.1 355.737 1478.07 315.655 1551.82 286.421C1624.08 258.501 1706.73 237.238 1783.62 256.554C1846.26 272.349 1889.97 316.102 1905.64 378.906C1911.46 402.476 1913.16 427.119 1911.52 451.323C1901.87 574.085 1824.05 682.053 1729.97 757.167C1710.84 772.324 1690.83 786.355 1670.13 799.305C1773.3 735.492 1862.16 640.464 1899.03 523.243C1913.18 476.68 1918.59 426.256 1906.94 378.576C1894.07 326.111 1860.52 284.297 1810.16 263.659C1793.36 256.541 1775.1 252.01 1757.01 249.662C1699.11 242.115 1640.49 254.04 1585.56 272.076C1545.03 285.452 1505.61 303.049 1467.76 322.662C1424.41 345.257 1382.59 370.676 1342.06 397.961C1161.14 522.275 948.942 600.815 730.643 623.987C586.14 638.091 434.439 632.217 299.503 574.398C146.204 506.804 92.8286 383.365 191.963 238.516C215.814 203.375 245.003 171.563 275.703 142.279C345.098 75.3355 431.784 18.9027 530.072 10.98C590.963 5.85028 651.809 19.0018 708.823 39.767C823.405 81.2766 928.508 148.435 1048.63 174.581C1144.48 196.832 1246.82 181.51 1333.2 134.887C1400.92 100.331 1465.46 54.6085 1508.05 -9.41602C1540.59 -58.4727 1556.16 -115.736 1553.44 -174.497C1548.1 -282.296 1489.1 -388.812 1419.37 -468.943L1419.35 -468.954Z" fill="#FAECC8"/>
<path d="M1419.35 -468.954C1478.26 -394.112 1525.29 -300.287 1536.08 -204.909C1543.58 -137.448 1529.96 -70.1608 1492.62 -13.0381C1449.45 53.9142 1381.94 101.073 1311.36 135.802C1246.28 168.962 1172.93 186.566 1099.82 181.973C976.596 174.941 866.997 112.561 756.314 64.045C689.463 34.7139 618.908 9.22778 545.074 7.8576C428.249 4.7536 326.926 69.804 246.516 149.122C165.075 227.884 77.7542 350.224 140.604 464.522C183.904 540.356 268.492 580.063 349.202 603.982C586.101 667.589 841.554 627.779 1067.01 539.323C1140.67 509.745 1211.7 473.581 1278.79 431.165C1294.32 421.477 1309.47 411.119 1324.69 400.967C1385.34 360.227 1448.69 322.948 1516.13 294.573C1603.22 257.954 1718.91 227.449 1807.03 274.561C1842.02 293.695 1868.3 325.532 1881.15 363.209L1883.41 369.655L1886.43 380.625C1886.87 382.079 1887.14 383.576 1887.44 385.065L1888.37 389.529C1889.8 395.348 1890.36 401.767 1891.28 407.516C1904.75 544.148 1813.94 677.021 1710.62 758.633C1691.51 773.786 1671.5 787.802 1650.81 800.748C1676.69 784.664 1701.58 766.824 1724.93 747.249C1821.99 665.666 1905.13 538.629 1892.53 407.389C1892.08 403.807 1891.1 397.162 1890.55 393.784C1890.05 391.498 1889.2 387.078 1888.72 384.803C1888.01 380.827 1885.73 373.281 1884.69 369.281C1874.08 334.993 1853.06 303.524 1823.33 282.982L1819.6 280.294L1815.69 277.897C1813.05 276.328 1810.48 274.678 1807.81 273.166L1799.6 269.018C1795.77 266.97 1791.01 265.23 1786.97 263.508C1782.14 261.454 1774.61 259.161 1769.6 257.587C1767.03 256.914 1758.98 254.919 1756.24 254.226C1679.09 238.474 1599.93 259.46 1528.01 287.4C1501.15 298.33 1474.71 310.432 1449.01 323.825C1405.67 346.382 1363.87 371.782 1323.35 399.018C1122.51 536.952 883.083 619.263 639.551 630.799C483.254 638.496 229.258 610.977 143.28 463.068C81.1986 350.263 168.182 228.878 248.547 151.19C328.364 72.4155 429.009 7.5307 545.052 10.588C618.52 11.9119 688.716 37.3179 755.301 66.432C866.17 114.866 976.243 177.216 1099.73 184.047C1173.14 188.56 1246.92 170.746 1312.15 137.385C1382.92 102.446 1450.59 54.9874 1493.71 -12.3208C1531.02 -69.7396 1544.56 -137.277 1536.85 -204.956C1525.8 -300.409 1478.52 -394.151 1419.38 -468.928L1419.35 -468.954Z" fill="#FAECC8"/>
<path d="M1419.35 -468.954C1493.55 -364.475 1548.61 -218.988 1512.06 -91.1797C1478.32 29.4307 1368.56 107.416 1257.54 152.693C1064.47 230.401 908.735 141.362 735.574 63.4807C690.817 44.0787 644.958 26.4307 596.995 16.622C439.872 -18.1686 311.851 60.5579 207.091 171C42.5965 341.552 64.5156 510.856 295.887 594.502C606.818 698.192 1007.21 598.952 1275.33 422.429C1345.88 374.632 1418.28 328.678 1497.19 295.867C1541.92 277.008 1588.94 262.037 1637.08 255.259C1693.55 247.531 1755.6 252.074 1803.3 285.864C1830.7 304.918 1851.13 333.4 1861.91 364.872L1863.41 369.165L1864.15 371.323L1864.74 373.52L1867.16 382.296C1869.31 390.949 1870.82 400.337 1871.98 409.161C1885.3 545.769 1794.58 678.491 1691.27 760.083C1672.16 775.237 1652.16 789.234 1631.49 802.176C1652.2 789.285 1672.23 775.329 1691.39 760.228C1791.55 681.018 1877.14 559.236 1874.49 427.271C1874.23 416.907 1872.95 405.648 1871.28 395.406C1870.41 390.96 1869.47 386.324 1868.45 381.966C1867.98 379.977 1865.88 372.686 1865.44 370.914C1857.01 343.957 1842.55 318.632 1821.94 299.124C1820.42 297.479 1813.57 291.685 1811.59 290.037C1809.69 288.447 1806.29 286.072 1804.22 284.56C1799.39 280.839 1793.89 277.888 1788.73 274.721L1780.52 270.573C1779.14 269.917 1777.81 269.136 1776.39 268.556L1772.15 266.807C1769.31 265.662 1766.51 264.407 1763.64 263.367C1758.16 261.614 1751.54 259.174 1746.09 257.971C1664.26 236.854 1572.5 262.322 1496.36 293.974C1428.77 322.245 1365.23 359.479 1304.41 400.165C1063.86 564.638 766.711 653.426 475.033 629.016C402.486 622.028 330.005 607.379 262.987 578.205C55.7491 485.865 63.1774 324.45 209.147 172.982C341.133 35.0836 478.969 -29.5901 666.61 38.9623C868.509 113.294 1032.33 244.415 1258.16 154.353C1369.67 108.689 1479.39 30.3624 1513.01 -90.9069C1549.28 -219.007 1493.9 -364.474 1419.3 -468.957L1419.35 -468.954Z" fill="#FAECC8"/>
<path d="M1419.35 -468.954C1503.4 -336.889 1551.8 -153.128 1460.42 -12.7602C1415.74 56.8242 1345.35 105.621 1271.15 139.781C1183.31 182.486 1081.55 193.871 986.62 170.605C799.61 130.041 630.889 -27.0916 430.946 17.1559C334.599 39.0298 254.354 103.032 187.328 172.946C122.226 241.416 58.4703 337.01 88.2489 435.089C134.391 573.992 325.816 621.274 456.029 633.435C742.092 657.074 1033.83 572.284 1271.56 413.583C1385.45 335.951 1548.97 241.993 1690.76 254.752C1699.78 255.573 1708.9 257.137 1717.76 258.848L1731.01 262.173C1732.47 262.583 1733.89 263.1 1735.35 263.559L1743.99 266.404C1748.75 268.14 1752.06 269.754 1756.63 271.542C1758.02 272.13 1759.35 272.881 1760.71 273.541L1768.84 277.63L1776.63 282.322C1777.92 283.13 1779.25 283.847 1780.49 284.716L1784.19 287.364C1806.6 302.928 1824.27 324.942 1835.92 349.527C1839.35 357.102 1842.36 364.933 1844.93 372.85L1845.52 375.048L1847.94 383.824C1850.07 392.45 1851.59 401.884 1852.75 410.693C1865.7 544.385 1779.08 674.183 1679.12 755.774C1657.9 773.097 1635.47 789.073 1612.24 803.583C1632.94 790.712 1652.97 776.756 1672.13 761.655C1772.28 682.463 1857.84 560.739 1855.24 428.806C1855.3 423.822 1854.34 415.633 1853.99 410.551C1853.45 407.316 1852.64 400.112 1852.05 396.953C1851.01 392.521 1850.37 387.853 1849.23 383.509L1846.83 374.665C1839.12 348.349 1825.5 323.393 1806.06 303.891C1799.99 297.585 1792.32 291.066 1785.12 286.071C1781.24 282.96 1773.98 278.898 1769.64 276.212C1766.17 274.45 1760.59 271.572 1757.34 270.039L1753.1 268.291C1750.25 267.145 1747.46 265.89 1744.59 264.832L1735.88 261.958C1734.43 261.499 1732.98 260.971 1731.51 260.55C1647.95 237.491 1555.34 262.962 1477.37 295.279C1454.87 304.595 1432.71 315.163 1411.07 326.33C1367.76 348.849 1325.96 374.2 1285.46 401.414C1012.61 588.307 638.092 689.556 312.93 604.326C144.765 557.19 15.9288 438.65 122.46 261.033C141.292 229.801 164.4 201.35 189.474 174.904C271.629 87.906 379.295 10.2907 503.838 11.7753C577.267 12.0522 647.722 36.7477 714.402 65.4998C846.404 123.207 982.507 200.056 1131.81 182.07C1180.45 176.779 1227.78 162.204 1271.93 141.319C1343.63 108.196 1411.58 61.5444 1456.49 -4.48016C1494.84 -59.8513 1512.71 -127.861 1510.61 -194.863C1507.38 -292.443 1471.5 -387.188 1419.42 -468.989L1419.35 -468.954Z" fill="#FAECC8"/>
<path d="M1419.35 -468.954C1472.39 -374.672 1505.56 -262.997 1494.03 -154.266C1487.4 -93.8511 1464.12 -35.1785 1426.16 12.4615C1380.89 70.1518 1318.14 111.566 1251.76 141.372C1163.4 182.948 1061.66 193.19 966.836 169.896C779.995 129.126 610.708 -27.4854 410.945 18.0922C327.041 37.5934 254.615 89.6284 193.583 148.674C158.47 182.57 125.637 219.348 100.383 261.292C81.619 292.778 67.0187 327.347 62.657 364.013C56.0744 413.053 72.5055 463.474 104.739 500.703C184.185 591.772 321.149 623.261 436.987 634.899C713.929 657.857 996.044 578.659 1229.46 430.058C1236.29 425.566 1245.63 419.555 1252.37 414.945C1307.69 377.3 1364.98 342.029 1425.55 313.427C1514.38 272.125 1628.3 234.132 1724.74 267.891C1727.58 268.942 1730.36 270.168 1733.17 271.306L1737.37 273.033C1738.77 273.636 1740.09 274.372 1741.45 275.032L1749.58 279.121L1757.36 283.832C1758.65 284.64 1759.98 285.357 1761.21 286.229L1764.9 288.877C1792.26 307.973 1812.65 336.467 1823.38 367.936C1829.46 384.944 1832.85 403.283 1834.19 421.289C1841.01 531.658 1781.8 636.738 1706.94 714.072C1673.01 748.838 1634.11 779.359 1592.91 805.045C1613.61 792.174 1633.64 778.218 1652.78 763.12C1751.41 684.819 1833.61 569.059 1836.11 439.476C1836.14 396.632 1825.39 353.47 1798.89 319.162C1795.07 314.56 1791.13 309.558 1786.76 305.408C1784.53 303.314 1782.45 300.875 1780.18 299.013L1773.2 293.065C1769.99 290.446 1765.49 287.372 1762.12 284.896C1760.1 283.608 1752.68 279.09 1750.37 277.707C1746.81 275.92 1741.37 273.099 1738.06 271.534C1733.84 269.781 1729.53 267.955 1725.32 266.326L1716.61 263.453C1642.6 240.958 1563.37 258.374 1492.23 283.335C1459.28 295.319 1427.16 309.761 1395.89 325.607C1351.18 348.739 1307.99 374.719 1266.24 402.799C1025.83 567.28 728.846 656.152 437.258 631.958C322.082 620.335 186.061 589.009 107.087 498.743C75.3848 462.061 59.1433 412.647 65.6407 364.367C75.0503 291.381 120.714 229.065 169.861 176.633C252.01 89.6693 359.252 11.6708 483.744 12.3038C557.172 12.1 627.743 36.5082 694.487 65.0826C805.701 112.767 915.594 174.267 1038.72 183.103C1111.95 188.866 1186.01 173.765 1252.49 142.955C1334.19 106.417 1410.87 50.7266 1455.18 -28.5363C1532.17 -166.377 1493.27 -338.199 1419.35 -468.954Z" fill="#FAECC8"/>
<path d="M1419.35 -468.954C1482.37 -342.282 1512.48 -178.12 1447.67 -46.5715C1426.31 -2.83624 1394.83 35.6653 1357.66 67.0015C1264.09 143.421 1141.82 190.847 1020.06 180.97C897.21 171.774 787.652 110.568 676.51 62.9124C609.429 34.2198 538.427 9.87921 464.602 10.2213C339.398 9.92334 231.445 88.3846 148.736 175.771C123.522 202.351 100.232 230.963 81.2903 262.385C-25.8917 441.105 101.956 562.186 273.413 610.107C586.697 693.711 959.169 597.834 1225.33 421.563C1293.16 375.281 1363.57 331.797 1439.5 300.074C1484.22 281.234 1531.24 266.293 1579.37 259.534C1635.84 251.826 1697.89 256.417 1745.53 290.253C1767.95 305.817 1785.61 327.832 1797.28 352.412C1800.71 359.988 1803.72 367.819 1806.29 375.736L1806.88 377.934L1809.3 386.709C1811.44 395.351 1812.95 404.755 1814.11 413.578C1827.37 550.105 1736.64 682.879 1633.37 764.411C1614.27 779.545 1594.28 793.557 1573.6 806.484C1594.3 793.598 1614.33 779.657 1633.49 764.555C1733.64 685.364 1819.2 563.64 1816.61 431.707C1816.69 426.763 1815.68 418.508 1815.36 413.452C1814.87 410.185 1813.96 403.025 1813.41 399.853C1812.54 395.407 1811.61 390.77 1810.6 386.409L1808.2 377.566C1800.49 351.25 1786.87 326.293 1767.42 306.791C1761.35 300.485 1753.68 293.966 1746.47 288.975C1742.59 285.865 1735.32 281.803 1730.99 279.117C1727.49 277.348 1721.95 274.488 1718.68 272.944L1714.44 271.195C1711.6 270.05 1708.81 268.795 1705.94 267.736L1697.23 264.862C1695.77 264.403 1694.33 263.876 1692.86 263.469C1609.3 240.41 1516.69 265.881 1438.73 298.214C1416.22 307.53 1394.07 318.097 1372.43 329.265C1329.11 351.784 1287.31 377.135 1246.82 404.349C1086.27 514.914 901.119 589.254 708.864 621.105C553.472 645.835 389.773 647.47 239.537 596.155C83.211 541.519 -12.8706 424.299 83.8277 263.949C102.66 232.717 125.772 204.28 150.857 177.815C233.066 90.8991 340.159 12.7643 464.636 12.9845C538.08 12.6002 608.709 36.8646 675.508 65.3442C786.814 112.892 896.83 174.071 1019.92 183.076C1142.21 192.778 1264.83 145.113 1358.66 68.1936C1395.86 36.6539 1427.38 -2.09589 1448.7 -46.0295C1513.25 -178.006 1482.81 -342.222 1419.35 -468.954Z" fill="#FAECC8"/>
<path d="M1419.35 -468.954C1457.97 -379.927 1478.19 -281.24 1470.18 -184.158C1457.5 -27.0888 1357.68 84.4479 1215.54 143.578C1148.7 172.768 1074.8 187.024 1001.96 180.951C853.816 170.036 727.269 84.2955 589.788 36.9825C569.571 30.1078 548.912 24.2171 528.025 19.7498C394.7 -10.1352 282.274 37.8578 182.888 125.771C146.684 158.052 111.545 193.349 82.8514 232.576C21.8004 314.608 -6.43806 417.223 65.4179 502.665C113.269 559.251 183.628 590.831 253.427 611.343C490.303 674.684 745.627 634.812 970.97 546.29C1044.59 516.691 1115.59 480.52 1182.65 438.097C1198.17 428.409 1213.3 418.04 1228.51 407.907C1279.03 373.89 1331.5 342.603 1386.54 316.462C1483.56 270.768 1624.54 225.605 1722.39 288.889L1729.78 294.185C1731.01 295.091 1732.28 295.903 1733.41 296.931L1740.34 302.813C1740.91 303.318 1741.52 303.781 1742.06 304.309L1743.66 305.915L1746.88 309.123C1750.81 312.927 1755.43 318.338 1758.96 322.697C1771.53 338.896 1780.78 357.461 1786.98 376.968C1788.51 382.68 1790.96 390.933 1791.92 396.831C1793.34 402.556 1793.91 409.133 1794.82 414.803C1808.18 551.418 1717.44 684.177 1614.13 765.77C1595.01 780.923 1575.02 794.935 1554.35 807.862C1595.63 782.264 1634.67 751.82 1668.7 717.109C1748.27 635.852 1812.79 517.651 1794.13 401.063C1789.05 372.486 1778.01 344.804 1760.17 321.764C1757.28 318.212 1754.3 314.7 1751.26 311.267C1749.67 309.593 1746.37 306.424 1744.77 304.769L1743.15 303.152C1742.6 302.609 1741.99 302.147 1741.43 301.642C1738.41 299.069 1733.8 294.983 1730.77 292.91L1727.05 290.221C1722.22 286.5 1716.73 283.548 1711.56 280.381C1707.97 278.588 1702.59 275.751 1699.24 274.227C1695.02 272.475 1690.7 270.619 1686.49 269.039C1682.66 267.79 1676.93 265.83 1673.39 264.776C1670.8 264.14 1662.78 262.073 1660.03 261.4C1581.41 245.384 1500.68 267.144 1427.64 296.17C1402.2 306.527 1377.23 318.153 1352.87 330.787C1309.55 353.325 1267.75 378.691 1227.24 405.923C1026.5 543.863 787.204 626.236 543.753 637.894C388.364 645.925 132.795 617.865 47.2608 470.895C-15.5049 358.29 71.1646 236.813 151.422 158.962C175.104 135.709 200.742 113.166 227.359 93.4379C321.327 23.9961 421.568 -3.47223 536.431 24.2922C625.67 45.5413 706.86 89.4597 790.929 124.834C880.079 163.303 976.984 192.321 1075.1 182.378C1123.61 177.922 1171.64 164.522 1216.29 145.138C1358.88 85.6028 1458.64 -26.579 1470.99 -184.12C1478.75 -281.359 1458.28 -379.962 1419.42 -468.989L1419.35 -468.954Z" fill="#FAECC8"/>
</g>
</svg>
