<svg width="270" height="568" viewBox="0 0 270 568" fill="none" xmlns="http://www.w3.org/2000/svg">
<mask id="mask0_478_11509" style="mask-type:alpha" maskUnits="userSpaceOnUse" x="0" y="0" width="270" height="568">
<rect y="0.643799" width="269.835" height="566.466" fill="#D9D9D9"/>
</mask>
<g mask="url(#mask0_478_11509)">
<path d="M-1253.63 -159.015C-1365.55 -28.2653 -1450.84 171.368 -1261.89 280.612C-1223.26 303.193 -1180.24 318.742 -1136.41 330.537C-1070.98 348.885 -1000.5 356.076 -933.542 340.394C-750.417 299.133 -646.903 130.929 -474.754 69.8997C-339.815 21.8321 -198.817 76.7987 -88.1434 149.955C15.5881 219.98 64.439 318.742 -22.4017 421.351C-120.103 532.319 -299.164 585.92 -447.871 609.522C-651.458 640.329 -863.592 623.572 -1058.27 560.738C-1101.48 546.874 -1145.39 534.761 -1190.01 525.407C-1714.11 414.479 -1670.81 846.795 -1262.06 962.062C-1391.51 926.346 -1518.92 846.755 -1565.4 725.85C-1588.46 664.887 -1578.94 594.663 -1521.66 552.539C-1467.14 512.219 -1393.5 504.272 -1325.66 506.223C-1233.8 509.646 -1144.04 531.444 -1057.52 558.814C-863.101 621.184 -651.487 637.994 -448.304 607.107C-292.873 583.784 -53.8699 510.375 9.02271 365.523C44.887 278.051 -15.2869 202.281 -89.7631 151.958C-199.756 79.2267 -339.728 24.3662 -473.858 72.0623C-645.862 133.211 -749.738 301.149 -933.079 342.079C-1000.37 357.748 -1071.16 350.464 -1136.84 331.943C-1180.77 320.042 -1223.93 304.426 -1262.61 281.673C-1451.77 171.62 -1366.37 -27.9336 -1253.63 -159.015Z" fill="#FAECC8"/>
<path d="M-1253.63 -159.015C-1322.02 -72.4058 -1386.42 56.2211 -1348.18 163.673C-1329.76 214.766 -1289.57 253.533 -1240.07 281.036C-1200.99 302.781 -1157.85 317.853 -1113.86 328.891C-1069.94 340.222 -1024.35 347.174 -978.633 344.626C-785.848 336.135 -670.171 173.717 -515.174 91.2734C-394.349 26.3032 -274.753 40.4727 -154.695 98.796C-104.297 123.46 -55.1281 152.356 -16.3136 191.243C101.85 310.463 17.1644 430.307 -110.588 502.64C-342.1 630.312 -650.938 646.087 -910.201 592.341C-999.819 574.642 -1084.03 539.789 -1173.63 522.09C-1217.87 512.87 -1263.8 506.262 -1309.18 504.816C-1379.01 502.826 -1456.28 511.556 -1509.99 556.254C-1511.03 557.143 -1512.16 557.952 -1513.13 558.907L-1519.03 564.559C-1520.01 565.501 -1521.02 566.43 -1521.88 567.465L-1527.27 573.528C-1528.21 574.51 -1528.99 575.597 -1529.8 576.672L-1534.66 583.12C-1536.83 586.49 -1539.01 589.86 -1541.04 593.296L-1544.71 600.368L-1545.62 602.132L-1546.39 603.963L-1549.45 611.26C-1550.77 614.975 -1551.97 618.743 -1553.11 622.511L-1554.93 630.166L-1555.4 632.077C-1555.95 636.375 -1557.12 641.311 -1557.33 645.676L-1557.96 653.49C-1557.9 656.94 -1558.25 665.444 -1557.77 669.172C-1555.58 708.523 -1539.42 746.242 -1517.19 779.636C-1456.16 869.19 -1352.91 928.641 -1244.29 958.944C-1353.11 928.88 -1456.6 869.588 -1517.94 780.06C-1538.93 748.816 -1554.36 713.817 -1558.39 677.106C-1558.62 673.365 -1559.07 669.079 -1559.24 665.298C-1559.32 663.984 -1559.24 662.671 -1559.26 661.358L-1559.21 653.464C-1558.74 648.501 -1558.56 642.518 -1557.61 637.742C-1557.19 635.287 -1556.87 632.289 -1556.24 629.94C-1554.92 623.572 -1552.89 616.899 -1550.74 610.849C-1550.03 608.978 -1548.4 605.33 -1547.67 603.459C-1547.25 602.079 -1543.15 594.358 -1542.29 592.673C-1539.53 588.175 -1536.76 583.332 -1533.43 579.127L-1530.99 575.876C-1530.18 574.788 -1529.38 573.687 -1528.44 572.692L-1523 566.562C-1520.59 563.829 -1516.8 560.539 -1514.17 557.899C-1462.47 512.471 -1386.63 501.951 -1317.68 502.919C-1280.76 503.463 -1243.09 507.775 -1206.79 513.865C-1150.58 523.616 -1095.28 538.051 -1041.28 555.232C-783.216 637.41 -492.021 643.699 -234.753 555.842C-171.036 533.182 -109.271 504.033 -56.7332 463.595C42.0671 387.838 75.6754 287.113 -18.3237 192.928C-56.9067 154.253 -105.786 125.49 -155.91 100.959C-275.158 42.9803 -393.799 28.7312 -513.901 93.2502C-668.928 175.839 -785.414 338.125 -978.503 346.272C-1024.4 348.779 -1070.22 341.734 -1114.25 330.311C-1158.34 319.18 -1201.61 304.015 -1240.76 282.124C-1290.42 254.369 -1330.68 215.323 -1349.06 163.939C-1387.11 56.1547 -1322.42 -72.3129 -1253.63 -159.015Z" fill="#FAECC8"/>
<path d="M-1253.63 -159.015C-1302.97 -90.5422 -1342 -8.37759 -1346.23 74.4238C-1353.39 230.952 -1214.89 303.02 -1066.93 332.593C-982.884 349.469 -903.072 341.801 -825.689 306.841C-698.891 250.229 -610.214 142.751 -486.482 81.6545C-474.219 75.6577 -460.466 69.7803 -447.523 65.0704C-345.845 27.5902 -244.355 45.8858 -149.141 89.9997C-103.414 111.241 -58.6709 136.263 -20.6085 167.959C124.165 289.195 50.4691 418.924 -95.186 500.849C-290.401 607.917 -535.955 633.138 -758.979 610.424C-849.825 600.699 -939.471 581.634 -1025.69 553.64C-1071.47 538.993 -1118.14 526.575 -1165.49 516.956C-1171.4 515.908 -1184.72 513.387 -1190.65 512.326C-1195.31 511.516 -1211.22 509.155 -1215.96 508.372C-1235.15 505.864 -1256.09 503.41 -1275.47 502.441C-1354.72 498.037 -1446.91 506.448 -1503.32 563.391L-1510.06 570.967C-1512.59 574.112 -1514.96 577.362 -1517.36 580.586L-1521.64 587.352C-1522.35 588.48 -1523.09 589.595 -1523.67 590.789L-1527.34 597.847C-1528.01 599.001 -1528.44 600.248 -1528.96 601.456L-1532.03 608.753L-1533.24 612.494C-1535.31 618.438 -1537.1 625.403 -1538.14 631.506L-1539.36 639.254C-1539.75 643.155 -1540.02 647.055 -1540.31 650.969C-1540.24 654.724 -1540.57 662.671 -1540.07 666.625L-1539.82 670.539C-1539.56 675.381 -1538.68 679.653 -1538.19 684.164C-1537.46 687.693 -1536.63 692.204 -1535.9 695.733C-1535.27 698.44 -1533.56 704.503 -1532.91 707.17L-1532.3 709.054L-1531.07 712.808C-1488.02 837.097 -1357.59 919.168 -1226.6 955.826C-1357.88 919.447 -1488.67 837.455 -1532.1 713.087L-1533.34 709.319L-1533.95 707.435C-1534.56 704.888 -1536.37 698.506 -1536.99 695.959C-1537.68 692.403 -1538.62 687.892 -1539.32 684.336C-1539.82 680.595 -1540.76 674.346 -1540.99 670.631C-1541.09 666.704 -1541.75 662.711 -1541.57 658.823L-1541.54 650.943C-1541.3 645.835 -1540.82 640.329 -1540.01 635.234C-1539.5 632.753 -1539.34 629.821 -1538.68 627.446L-1536.86 619.738C-1535.93 616.302 -1534.4 611.804 -1533.3 608.354C-1531.74 604.825 -1530.31 600.739 -1528.6 597.329C-1527.02 594.265 -1524.64 589.422 -1522.87 586.716L-1518.56 579.87C-1516.15 576.606 -1513.75 573.315 -1511.2 570.131L-1505.77 564.002C-1451.43 507.005 -1361.87 497.294 -1283.87 500.226C-1277.45 500.597 -1268.8 501.101 -1262.47 501.499C-1260.33 501.645 -1243.78 503.264 -1241.14 503.463C-1233.08 504.458 -1223.77 505.533 -1215.63 506.594C-1210.67 507.417 -1195.51 509.659 -1190.26 510.521C-1134.12 520.22 -1078.86 534.562 -1024.92 551.69C-767.265 634.04 -476.576 640.634 -219.395 553.547C-155.664 531.112 -93.9132 502.163 -41.1581 462.122C89.3561 362.418 87.0421 244.776 -48.6057 149.663C-83.3999 125.079 -122.388 104.581 -161.795 86.9084C-256.922 45.4082 -355.26 30.9468 -454.465 70.1783C-466.034 74.5698 -478.066 80.089 -489.071 85.449C-610.662 147.009 -699.152 252.525 -824.778 308.46C-905.169 344.693 -988.871 351.579 -1075.61 332.222C-1221.45 301.6 -1354.43 227.781 -1346.91 74.3442C-1342.42 -8.60315 -1303.19 -90.5953 -1253.6 -159.068L-1253.63 -159.015Z" fill="#FAECC8"/>
<path d="M-1253.63 -159.015C-1306.75 -78.3893 -1348.58 29.9385 -1328.73 124.654C-1324.82 142.552 -1318.75 160.171 -1310.17 176.635C-1300.41 195.382 -1287.44 213.081 -1272.1 228.365C-1207.12 293.72 -1097.2 325.707 -1003.52 335.843C-768.436 356.992 -653.584 173.305 -473.554 80.1288C-351.876 18.0642 -231.861 36.413 -113.682 95.3465C-44.4122 130.094 26.3473 174.115 60.6642 241.752C80.245 280.253 80.303 325.88 61.6477 364.673C15.4436 459.535 -101.303 517.633 -202.605 553.534C-417.213 626.146 -655.609 632.063 -877.62 585.561C-910.982 578.41 -944.027 569.985 -976.608 560.274C-1030.55 543.358 -1084.66 526.628 -1140.41 515.443C-1155.77 512.193 -1175.12 508.797 -1190.74 506.475C-1271.45 494.614 -1367.64 490.939 -1441.21 528.114C-1490.96 553.123 -1520.69 596.135 -1522.55 648.395C-1524 693.027 -1506.6 736.491 -1481.35 774.117C-1420.18 863.3 -1317.26 922.565 -1208.86 952.775C-1317.45 922.791 -1420.62 863.685 -1482.11 774.541C-1507.56 736.836 -1525.16 693.186 -1523.81 648.356C-1522.06 595.605 -1492.19 552.194 -1441.98 526.853C-1368.12 489.386 -1271.53 492.889 -1190.42 504.71C-1174.71 507.032 -1155.38 510.389 -1139.96 513.639C-1084.11 524.77 -1029.91 541.434 -975.9 558.297C-943.361 567.942 -910.375 576.314 -877.07 583.399C-655.536 629.675 -417.675 623.718 -203.589 551.172C-102.909 515.443 13.0284 457.704 59.0156 363.665C77.3383 325.468 77.3961 280.704 58.1046 242.813C29.3264 185.432 -27.5212 144.873 -85.2656 113.005C-99.6692 105.098 -115.23 97.0712 -130.096 90.2518C-309.475 6.98601 -435.839 39.69 -584.227 153.895C-709.188 249.367 -827.468 354.643 -1003.69 337.422C-1097.78 327.114 -1207.86 294.94 -1272.98 229.094C-1288.34 213.704 -1301.34 195.886 -1311.09 177.033C-1319.65 160.489 -1325.72 142.777 -1329.57 124.813C-1349.18 29.8987 -1307.08 -78.3628 -1253.65 -159.002L-1253.63 -159.015Z" fill="#FAECC8"/>
<path d="M-1253.63 -159.015C-1310.09 -63.8616 -1349.86 68.8649 -1296.45 171.528C-1272.03 219.29 -1228.29 255.841 -1178.14 280.572C-1138.06 300.473 -1094.32 313.448 -1050 322.762C-1005.72 332.275 -959.833 336.308 -914.54 331.744C-723.49 313.833 -611.617 153.829 -453.323 74.875C-367.161 32.4858 -280.335 27.3912 -187.71 55.3985C-133.567 71.9827 -82.4745 96.7661 -35.1134 125.848C118.264 220.391 142.299 348.116 -7.18823 460.49C-196.256 596.719 -493.106 629.596 -726.252 603.937C-805.559 595.247 -883.954 579.578 -959.891 556.851C-1024.46 536.366 -1089.68 517.062 -1157.01 505.838C-1235.86 493.022 -1325.37 487.104 -1401.02 515.099L-1404.98 516.545L-1408.83 518.216L-1416.54 521.546C-1419.08 522.687 -1421.51 524.054 -1424.01 525.288C-1429.68 527.994 -1434.89 531.404 -1440.26 534.575L-1441.95 535.756L-1448.71 540.505C-1480.5 563.869 -1499.69 596.852 -1503.99 634.027C-1506.62 658.664 -1503.29 683.779 -1495.37 707.395C-1459.75 810.721 -1360.66 885.735 -1255.29 928.044C-1234.38 936.363 -1212.94 943.541 -1191.14 949.67C-1299.65 919.726 -1402.68 860.686 -1464.22 771.689C-1488.18 736.199 -1505.23 695.654 -1506.13 653.543C-1506.95 608.859 -1488.83 569.468 -1451.38 540.612C-1448.98 538.887 -1445.32 536.326 -1442.87 534.602L-1441.17 533.408L-1439.37 532.32C-1432.27 527.888 -1424.9 523.855 -1417.28 520.233C-1414.02 518.827 -1408.61 516.465 -1405.65 515.178C-1335.24 488.086 -1256.26 490.527 -1182.02 500.199C-1162.73 502.919 -1142.13 506.408 -1123.15 510.322C-1078.59 519.437 -1034.74 531.245 -991.605 544.87C-819.803 600.713 -634.524 620.746 -453.265 604.016C-317.993 590.908 -182.07 559.159 -64.7303 494.455C-7.4054 461.883 47.7072 419.826 75.8779 362.352C125.698 258.216 40.4041 171.992 -50.8762 119.254C-178.122 45.9389 -311.962 7.30443 -452.18 76.8916C-610.691 156.045 -722.637 315.624 -914.381 333.402C-959.862 337.926 -1005.99 333.814 -1050.4 324.208C-1116.8 310.158 -1183.13 287.577 -1235.22 246.156C-1252.43 232.544 -1268.02 216.663 -1280.53 199.243C-1293.2 181.916 -1303.06 162.546 -1309.81 142.658C-1342.84 45.0633 -1305.62 -72.0475 -1253.67 -159.015H-1253.63Z" fill="#FAECC8"/>
<path d="M-1253.63 -159.015C-1296.84 -77.1953 -1324 24.0345 -1302.58 114.332C-1290.72 163.395 -1262.91 207.057 -1221.79 240.252C-1168 283.517 -1098.99 306.854 -1029.84 320.307C-941.004 339.545 -845.704 329.475 -765.081 289.859C-614.509 219.914 -507.48 68.4669 -336.822 38.7348C-245.758 23.3579 -153.379 50.9009 -74.1591 91.154C-39.2493 108.667 -5.09155 128.594 25.046 152.502C180.159 275.557 106.623 409.849 -46.8706 494.348C-277.544 618.371 -587.64 633.655 -844.229 578.901C-888.639 569.402 -932.356 557.289 -975.379 543.464C-1045.26 521.454 -1117.09 503.569 -1190.61 495.728C-1262.47 488.643 -1342.08 489.373 -1406.7 522.422C-1459.34 549.395 -1488.17 595.313 -1487.12 650.784C-1486.68 671.587 -1482.25 692.363 -1474.93 712.039C-1436.6 811.531 -1340.4 883.652 -1237.48 924.966C-1216.58 933.272 -1195.16 940.449 -1173.38 946.579C-1281.76 916.635 -1384.78 857.674 -1446.31 768.81C-1470.31 733.399 -1487.36 692.854 -1488.37 650.797C-1489.44 604.507 -1469.31 562.45 -1428.9 534.19C-1415.48 524.571 -1400.12 516.77 -1384.39 510.813C-1334.04 491.721 -1278.33 488.59 -1224.48 491.337C-1184.72 493.42 -1144.95 499.244 -1106.11 507.085C-1061.58 516.173 -1017.77 527.941 -974.656 541.54C-781.596 604.321 -571.414 622.272 -369.099 593.031C-235.476 572.652 -100.19 534.137 7.44666 456.337C129.269 366.372 147.563 252.339 23.2528 154.413C-6.72571 130.611 -40.71 110.75 -75.4462 93.3166C-154.145 53.289 -245.888 25.7991 -336.373 41.0433C-392.483 50.3039 -444.14 74.6892 -490.503 104.527C-583.735 164.31 -662.232 243.224 -764.17 291.517C-845.169 331.2 -941.091 341.217 -1030.19 321.78C-1099.56 308.194 -1168.76 284.658 -1222.6 241.101C-1263.77 207.708 -1291.62 163.753 -1303.36 114.505C-1324.58 24.0744 -1297.13 -77.1953 -1253.65 -159.002L-1253.63 -159.015Z" fill="#FAECC8"/>
<path d="M-1253.63 -159.015C-1288.64 -83.9881 -1308.37 4.12027 -1295.06 85.4756C-1285.53 142.989 -1257.01 195.674 -1209.57 234.68C-1154.5 280.532 -1082.28 304.599 -1010.29 317.694C-943.636 330.709 -873.281 329.011 -808.509 308.99C-699.166 275.835 -615.464 199.88 -527.437 135.162C-474.277 96.0497 -416.851 59.2991 -350.647 41.7862C-246.12 13.3013 -139.105 44.6785 -47.4923 92.5073C44.916 139.646 153.145 221.559 124.107 330.125C103.398 402.512 36.7598 454.148 -30.1965 491.854C-228.318 597.064 -468.131 620.773 -692.659 597.555C-766.18 589.409 -838.921 575.226 -909.623 554.993C-925.95 550.416 -942.103 545.202 -958.271 540.174C-1022.77 519.901 -1088.86 503.092 -1156.48 494.561C-1243.8 483.562 -1355.42 483.973 -1423.45 542.522C-1450.36 566.125 -1466.36 598.311 -1468.85 632.355L-1469.32 638.193L-1469.39 647.944C-1469.44 649.245 -1469.32 650.545 -1469.24 651.845L-1468.99 655.746C-1468.87 660.88 -1467.83 666.32 -1467.27 671.282C-1446.42 787.384 -1332.5 877.244 -1219.69 921.888C-1198.81 930.194 -1177.39 937.358 -1155.63 943.488C-1182.83 935.912 -1209.57 926.665 -1235.34 915.639C-1342.5 869.628 -1448.09 782.9 -1468.43 671.454C-1468.89 668.389 -1469.61 662.671 -1469.93 659.752C-1470.03 657.749 -1470.33 653.901 -1470.45 651.911C-1470.77 648.462 -1470.54 641.709 -1470.57 638.166C-1469.28 607.426 -1457.94 576.712 -1436.1 553.109L-1433.4 550.058L-1430.45 547.205C-1428.45 545.321 -1426.53 543.385 -1424.49 541.54L-1418.1 536.286C-1415.14 533.739 -1411.27 531.245 -1408.05 528.923C-1404.19 526.15 -1397.96 522.581 -1393.82 520.167C-1391.66 519.039 -1384.9 515.603 -1382.6 514.422C-1316.87 484.265 -1240.47 484.08 -1168.92 491.257C-1142.08 494.348 -1115.32 498.501 -1088.93 503.888C-1044.43 512.949 -1000.63 524.704 -957.534 538.263C-743.245 607.904 -507.611 622.935 -285.368 578.463C-142.663 550.164 79.5801 471.038 121.344 329.515C150.05 222.355 42.3562 141.159 -48.8229 94.6699C-139.771 47.1595 -246.134 15.769 -349.967 44.0417C-415.853 61.4352 -472.976 98.0398 -525.948 136.913C-614.162 201.605 -698.299 277.64 -807.93 310.689C-872.992 330.709 -943.781 332.328 -1010.62 319.18C-1082.83 305.952 -1155.26 281.673 -1210.38 235.516C-1257.87 196.258 -1286.37 143.348 -1295.77 85.6083C-1308.86 4.13354 -1288.89 -83.9616 -1253.65 -158.988L-1253.63 -159.015Z" fill="#FAECC8"/>
<path d="M-1253.63 -159.015C-1295.26 -56.0604 -1309.76 76.5997 -1245.95 174.3C-1186.43 266.668 -1068.68 306.881 -957.707 319.737C-764.966 341.243 -646.122 232.982 -508.883 130.094C-473.236 104.103 -436.171 79.3195 -395.318 60.5595C-262.128 -3.09718 -127.753 33.6799 -6.68225 101.874C182.733 206.58 203.861 351.605 15.5593 472.179C-239.598 626.995 -624.372 633.655 -908.611 546.993C-983.723 523.072 -1060.06 501.088 -1139.1 491.43C-1183.96 485.738 -1229.94 483.774 -1274.96 488.842C-1327.72 494.972 -1382.54 512.498 -1417.36 551.053C-1437.45 572.904 -1448.99 601.018 -1451.1 629.463L-1451.42 633.35L-1451.56 635.301V637.251L-1451.62 645.052C-1451.48 652.694 -1450.57 660.8 -1449.48 668.363C-1428.5 784.412 -1314.7 874.166 -1201.9 918.797C-1181.02 927.102 -1159.62 934.254 -1137.87 940.383C-1159.65 934.307 -1181.06 927.195 -1201.97 918.943C-1311.36 875.585 -1417.9 793.752 -1447.37 683.912C-1449.64 675.275 -1451.2 665.669 -1452.17 656.82C-1452.46 652.946 -1452.74 648.9 -1452.87 645.065C-1452.92 643.314 -1452.79 636.813 -1452.82 635.247C-1451.74 611.061 -1444.82 586.888 -1430.96 566.165C-1429.99 564.466 -1425.22 558.151 -1423.83 556.347C-1422.5 554.609 -1420.01 551.889 -1418.51 550.177C-1415.05 546.025 -1410.81 542.363 -1406.92 538.595L-1400.53 533.341C-1399.44 532.492 -1398.43 531.55 -1397.29 530.754L-1393.89 528.366C-1391.61 526.787 -1389.39 525.129 -1387.05 523.629C-1382.54 520.963 -1377.16 517.473 -1372.55 515.271C-1303.9 479.635 -1215.06 480.365 -1138.81 489.678C-1071.07 498.09 -1004.82 514.82 -940.194 535.013C-683.707 617.814 -394.494 625.403 -137.543 540.492C-73.8555 518.614 -12.0763 490.408 41.2717 451.389C205.727 328.971 160.058 196.988 -8.05615 103.97C-160.291 19.0858 -300.119 -3.87994 -452.657 94.4974C-616.65 200.822 -732.615 345.714 -957.866 321.249C-1069.38 308.181 -1187.17 267.676 -1246.75 174.738C-1310.36 76.7324 -1295.58 -55.9808 -1253.59 -159.028L-1253.63 -159.015Z" fill="#FAECC8"/>
<path d="M-1253.63 -159.015C-1297.48 -31.0382 -1296.73 131.832 -1180.48 227.768C-1123.42 275.464 -1048.21 300.247 -973.094 312.068C-883.621 327.936 -789.174 314.788 -709.246 274.469C-550.517 199.402 -436.417 31.8888 -245.556 24.1672C-153.451 20.9035 -65.6847 56.0884 11.597 99.1011C86.7963 141.344 167.332 206.341 164.179 294.144C156.139 419.375 -4.9469 500.982 -119.351 539.935C-371.428 622.962 -654.799 617.483 -907.353 538.834C-1028.73 499.828 -1198.76 458.314 -1323.46 500.332C-1331.39 503.012 -1339.23 506.329 -1346.81 509.712L-1357.94 515.404C-1359.16 516.067 -1360.31 516.81 -1361.51 517.513L-1368.61 521.785C-1372.49 524.28 -1375.08 526.349 -1378.77 528.844C-1379.88 529.64 -1380.89 530.555 -1381.96 531.404L-1388.3 536.592L-1394.18 542.204C-1395.15 543.159 -1396.18 544.048 -1397.09 545.043L-1399.78 548.055C-1416.22 565.912 -1426.82 588.056 -1431.39 610.995C-1432.65 618.027 -1433.47 625.178 -1433.88 632.302V634.253L-1433.94 642.054C-1433.78 649.669 -1432.87 657.815 -1431.78 665.364C-1411.17 778.919 -1301.77 867.161 -1192 912.535C-1168.68 922.167 -1144.62 930.419 -1120.18 937.278C-1141.95 931.215 -1163.36 924.104 -1184.27 915.852C-1293.65 872.507 -1400.14 790.714 -1429.65 680.914C-1430.91 676.801 -1432.03 669.809 -1432.94 665.524C-1433.23 662.724 -1434.24 656.581 -1434.47 653.835C-1434.6 649.934 -1435.15 645.928 -1435.18 642.08L-1435.15 634.226C-1434.56 610.73 -1428.31 587.047 -1415.5 566.589C-1411.55 560.022 -1406.21 552.924 -1400.93 547.192C-1398.19 543.756 -1392.62 538.781 -1389.37 535.597C-1386.66 533.368 -1382.32 529.746 -1379.76 527.756L-1376.36 525.367C-1374.08 523.789 -1371.87 522.13 -1369.54 520.618L-1362.38 516.306C-1361.18 515.603 -1360.01 514.846 -1358.78 514.17C-1289.05 476.544 -1199.44 477.088 -1121.38 486.547C-1098.85 489.267 -1076.33 493.101 -1054.14 497.546C-1009.67 506.581 -965.878 518.296 -922.812 531.842C-631.805 626.04 -269.865 626.783 2.57312 484.093C142.733 407.766 230.21 281.049 91.3228 157.637C66.8107 135.958 39.1172 117.529 10.1365 101.197C-84.9038 47.3983 -200.667 7.02579 -312.541 35.8822C-378.644 52.4001 -436.171 88.474 -489.317 127.069C-594.336 204.125 -698.429 297.939 -837.316 316.168C-882.421 322.576 -928.596 321.011 -973.427 313.515C-1046.04 301.999 -1118.53 278.449 -1174.95 233.751C-1222.87 196.417 -1255.39 144.077 -1269.68 88.1423C-1290.33 6.64104 -1280.88 -79.7558 -1253.7 -159.028L-1253.63 -159.015Z" fill="#FAECC8"/>
<path d="M-1253.63 -159.015C-1278.66 -69.1951 -1281.58 30.6151 -1244.94 118.073C-1224.38 166.619 -1189.23 210.029 -1143.52 241.048C-1088.8 278.767 -1022.25 299.133 -955.234 309.083C-865.574 323.903 -771.415 309.813 -691.589 269.494C-533.063 194.294 -418.326 27.086 -227.305 20.5054C-146.987 18.0377 -69.1555 45.05 0.100098 80.3942C39.9268 100.667 78.394 123.831 111.279 152.953C135.791 174.858 157.296 200.238 170.079 229.625C187.852 268.764 185.22 314.151 165.162 352.123C115.56 445.14 -0.261475 501.592 -101.838 536.923C-345.86 617.363 -619.209 614.378 -865.429 543.132C-872.674 540.93 -882.537 538.024 -889.724 535.703C-948.669 516.81 -1008.81 500.319 -1070.3 490.076C-1160.33 475.588 -1272.16 469.406 -1350.91 518.747C-1353.21 520.246 -1355.42 521.878 -1357.68 523.444L-1361.05 525.805C-1362.16 526.615 -1363.18 527.517 -1364.25 528.366L-1370.58 533.553L-1376.45 539.179C-1377.42 540.134 -1378.45 541.023 -1379.34 542.018L-1382.03 545.03C-1402.08 566.907 -1413.57 595.021 -1415.64 623.453C-1417.02 638.883 -1415.64 654.817 -1412.5 670.021C-1392 762.906 -1313.27 836.765 -1227.14 884.182C-1188.16 905.437 -1145.73 922.074 -1102.41 934.2C-1124.17 928.137 -1145.59 921.026 -1166.49 912.774C-1274.27 869.827 -1376.29 792.227 -1409.84 685.504C-1420.21 650.041 -1420.95 611.924 -1405.35 577.641C-1403.02 572.984 -1400.67 567.969 -1397.74 563.564C-1396.23 561.335 -1394.95 558.854 -1393.36 556.811L-1388.5 550.337C-1386.24 547.458 -1382.93 543.915 -1380.49 541.116C-1378.98 539.603 -1373.39 534.217 -1371.64 532.558C-1368.86 530.29 -1364.64 526.747 -1362.03 524.717C-1358.65 522.329 -1355.21 519.861 -1351.81 517.579L-1344.65 513.268C-1283.39 478.229 -1207.79 475.071 -1137.65 479.953C-1105.07 482.567 -1072.63 487.396 -1040.63 493.579C-994.757 502.813 -949.565 514.74 -905.154 528.724C-648.797 611.565 -359.714 619.26 -102.793 534.548C-1.80884 499.377 113.203 443.269 162.574 351.021C182.285 313.621 184.989 269.109 167.476 230.58C141.373 172.244 85.1766 130.784 28.2277 98.2786C-66.7982 44.506 -182.273 3.72223 -294.305 31.8622C-360.524 47.9821 -418.225 83.8437 -471.472 122.306C-560.178 186.453 -644.358 261.745 -753.18 296.373C-817.779 317.389 -888.162 321.316 -955.509 310.556C-1037.95 298.43 -1120.5 269.334 -1179.57 213.545C-1282.24 116.508 -1288.67 -34.3683 -1253.63 -159.015Z" fill="#FAECC8"/>
<path d="M-1253.63 -159.015C-1279.83 -40.1661 -1267.33 102.418 -1177.16 196.948C-1147.35 228.418 -1109.68 253.307 -1068.63 271.006C-965.849 313.515 -844.214 325.654 -736.882 290.469C-628.392 255.603 -544.444 180.629 -455.795 116.521C-402.274 77.8866 -344.168 41.9852 -277.559 25.892C-164.803 -2.12866 -48.5769 38.8807 47.0563 92.8787C76.1959 109.29 104.092 127.812 128.749 149.623C268.489 273.805 182.516 402.406 39.5797 480.112C-222.548 618.823 -581.349 622.073 -863.766 535.185C-936.058 511.914 -1010.01 491.536 -1086.1 482.116C-1130.94 476.437 -1176.93 474.5 -1221.93 479.582C-1274.67 485.725 -1329.48 503.291 -1364.25 541.872C-1380.69 559.73 -1391.29 581.873 -1395.87 604.812C-1397.13 611.844 -1397.96 618.995 -1398.36 626.12V628.07L-1398.42 635.871C-1398.26 643.5 -1397.35 651.619 -1396.26 659.182C-1375.25 775.152 -1261.43 864.945 -1148.68 909.536C-1127.82 917.828 -1106.41 924.993 -1084.66 931.109C-1106.43 925.033 -1127.85 917.935 -1148.76 909.682C-1258.13 866.338 -1364.62 784.545 -1394.14 674.744C-1395.41 670.671 -1396.49 663.613 -1397.42 659.354C-1397.77 656.542 -1398.68 650.412 -1398.95 647.666C-1399.24 643.792 -1399.52 639.745 -1399.66 635.911L-1399.63 628.057C-1399.04 604.56 -1392.79 580.878 -1379.98 560.42C-1376.03 553.852 -1370.7 546.754 -1365.4 541.023C-1362.66 537.587 -1357.09 532.611 -1353.83 529.427C-1351.1 527.185 -1346.81 523.59 -1344.23 521.586L-1340.83 519.198C-1338.55 517.619 -1336.34 515.961 -1334.01 514.448L-1326.85 510.136C-1325.65 509.433 -1324.48 508.677 -1323.25 508.014C-1253.51 470.388 -1163.91 470.932 -1085.85 480.404C-1063.32 483.124 -1040.8 486.958 -1018.6 491.403C-974.135 500.438 -930.346 512.153 -887.28 525.699C-715.913 581.621 -531.11 602.092 -350.169 585.813C-204.167 571.816 -56.256 536.857 66.7383 461.047C194.418 381.138 252.697 262.78 126.84 151.481C102.328 129.802 74.634 111.387 45.6389 95.0413C-49.4303 41.3219 -164.803 0.392136 -276.922 28.1872C-343.199 44.1611 -400.987 79.9165 -454.306 118.312C-543.128 182.367 -627.496 257.42 -736.245 292.181C-844.098 327.339 -966.109 315.08 -1069.23 272.213C-1110.38 254.355 -1148.13 229.267 -1177.95 197.624C-1267.99 102.683 -1280.21 -40.0202 -1253.63 -159.015Z" fill="#FAECC8"/>
<path d="M-1253.63 -159.015C-1266.94 -76.7442 -1261.32 9.44046 -1230.67 88.0362C-1181.31 215.257 -1064.43 285.454 -922.06 302.874C-854.785 312.214 -784.749 307.624 -720.569 286.436C-589.708 244.538 -496.374 145.484 -383.908 75.817C-367.349 65.6409 -350.155 56.1813 -332.411 47.8494C-219.482 -6.46709 -106.582 8.32597 4.20728 59.0603C44.6268 77.754 84.8149 99.1807 120.144 125.291C194.967 179.66 245.192 258.349 201.07 345.024C171.612 402.485 115.835 444.238 57.8879 476.703C-140.277 581.687 -379.989 605.316 -604.43 582.019C-677.922 573.846 -750.634 559.65 -821.307 539.404C-837.634 534.827 -853.773 529.6 -869.926 524.585C-923.665 507.629 -978.503 493.367 -1034.41 483.933C-1132.88 467.628 -1270.83 461.512 -1343.73 535.61L-1349.1 541.633C-1349.99 542.655 -1350.94 543.61 -1351.71 544.711L-1356.54 551.119C-1356.93 551.663 -1357.36 552.181 -1357.72 552.738L-1358.78 554.423L-1360.91 557.793C-1363.52 561.813 -1366.39 567.319 -1368.51 571.71C-1375.93 587.91 -1379.78 605.33 -1380.66 622.856C-1380.66 627.924 -1380.88 635.301 -1380.31 640.395C-1380.21 645.45 -1379.14 651.022 -1378.59 655.918C-1357.64 771.981 -1243.81 861.761 -1131.01 906.392C-1110.13 914.698 -1088.73 921.862 -1066.98 927.978C-1110.36 915.945 -1152.89 899.4 -1191.94 878.212C-1283.26 828.592 -1369.94 745.048 -1381.28 644.389C-1383.61 619.605 -1380.34 594.238 -1369.83 571.206C-1368.08 567.624 -1366.24 564.055 -1364.33 560.539C-1363.31 558.801 -1361.09 555.445 -1360.05 553.72L-1358.98 552.021C-1358.62 551.451 -1358.19 550.934 -1357.8 550.39C-1355.7 547.59 -1352.53 543.185 -1350.31 540.797L-1347.6 537.746C-1344.14 533.593 -1339.91 529.931 -1336.02 526.163C-1333.21 523.881 -1329.05 520.339 -1326.4 518.336C-1323.02 515.948 -1319.57 513.453 -1316.16 511.211C-1313.01 509.327 -1308.32 506.435 -1305.39 504.777C-1303.2 503.675 -1296.48 500.186 -1294.17 499.018C-1227.18 468.318 -1149.18 468.424 -1076.35 476.252C-1050.93 479.184 -1025.62 483.27 -1000.61 488.325C-956.131 497.373 -912.342 509.102 -869.261 522.661C-655.059 592.328 -419.526 607.439 -197.327 563.086C-55.3594 535.265 168.17 455.342 209.761 314.695C239.132 207.548 131.699 126.206 40.5775 79.5583C13.6215 65.5613 -14.9253 52.5858 -43.6746 42.1577C-145.121 5.51331 -242.085 5.00916 -338.89 53.4747C-414.176 90.8621 -476.735 145.232 -543.952 193.167C-615.001 244.79 -695.32 290.31 -786.137 303.843C-830.924 310.914 -877.446 310.476 -922.364 304.334C-1065.23 286.675 -1182.22 215.933 -1231.39 88.2484C-1261.86 9.46696 -1267.22 -76.7044 -1253.7 -159.028L-1253.63 -159.015Z" fill="#FAECC8"/>
</g>
</svg>
